<svg width="1017" height="56" viewBox="0 0 1017 56" fill="none" xmlns="http://www.w3.org/2000/svg">
<path d="M0 16C0 10.3995 0 7.59921 1.08993 5.46009C2.04867 3.57847 3.57847 2.04867 5.46009 1.08993C7.59921 0 10.3995 0 16 0H1001C1006.6 0 1009.4 0 1011.54 1.08993C1013.42 2.04867 1014.95 3.57847 1015.91 5.46009C1017 7.59921 1017 10.3995 1017 16V40C1017 45.6005 1017 48.4008 1015.91 50.5399C1014.95 52.4215 1013.42 53.9513 1011.54 54.9101C1009.4 56 1006.6 56 1001 56H16C10.3995 56 7.59921 56 5.46009 54.9101C3.57847 53.9513 2.04867 52.4215 1.08993 50.5399C0 48.4008 0 45.6005 0 40V16Z" fill="#D7FFD3"/>
<path d="M355.713 32.8C355.38 32.8 355.093 32.6867 354.853 32.46C354.627 32.22 354.513 31.9333 354.513 31.6C354.513 31.2667 354.627 30.9867 354.853 30.76C355.093 30.52 355.38 30.4 355.713 30.4C356.047 30.4 356.327 30.52 356.553 30.76C356.793 30.9867 356.913 31.2667 356.913 31.6C356.913 31.9333 356.793 32.22 356.553 32.46C356.327 32.6867 356.047 32.8 355.713 32.8ZM365.012 22.98L367.752 29.46C368.019 30.1133 368.319 30.5667 368.652 30.82C368.999 31.0733 369.466 31.2 370.052 31.2H370.272L370.372 32.1L370.272 33H370.052C369.212 33 368.492 32.7867 367.892 32.36C367.292 31.92 366.786 31.2267 366.372 30.28L363.572 23.74L365.012 22.98ZM360.032 30.32C360.552 30.6267 361.052 30.88 361.532 31.08C362.012 31.2667 362.586 31.36 363.252 31.36C364.079 31.36 364.772 31.2333 365.332 30.98C365.892 30.7133 366.439 30.3867 366.972 30L367.772 31.14C367.399 31.4867 367.046 31.7867 366.712 32.04C366.379 32.2933 365.926 32.5333 365.352 32.76C364.779 32.9733 364.126 33.08 363.392 33.08C362.486 33.08 361.706 32.94 361.052 32.66C360.399 32.38 359.799 32.04 359.252 31.64L360.032 30.32ZM381.276 31.2C382.276 31.2 382.776 30.6467 382.776 29.54C382.776 29.0867 382.642 28.4533 382.376 27.64C382.122 26.8133 381.896 26.1867 381.696 25.76L383.116 24.98C383.382 25.54 383.649 26.2733 383.916 27.18C384.182 28.0733 384.316 28.86 384.316 29.54C384.316 30.1933 384.182 30.7867 383.916 31.32C383.662 31.84 383.302 32.2533 382.836 32.56C382.382 32.8533 381.862 33 381.276 33H381.236V31.2H381.276ZM375.836 33V31.2H375.896C376.642 31.2 377.282 30.7333 377.816 29.8C377.989 29.48 378.122 29.1 378.216 28.66C378.322 28.22 378.422 27.7333 378.516 27.2L379.996 27.28C379.982 27.3333 379.936 27.58 379.856 28.02C379.776 28.46 379.736 28.8867 379.736 29.3C379.736 29.94 379.856 30.42 380.096 30.74C380.349 31.0467 380.742 31.2 381.276 31.2H381.316L381.416 32.1L381.316 33H381.276C380.502 33 379.882 32.7733 379.416 32.32C378.962 31.8533 378.689 31.2067 378.596 30.38L378.916 30.36C378.636 31.12 378.222 31.7533 377.676 32.26C377.142 32.7533 376.542 33 375.876 33H375.836ZM370.116 33L370.016 32.1L370.116 31.2H370.216C370.709 31.2 371.176 31.0867 371.616 30.86C372.056 30.6333 372.396 30.3333 372.636 29.96C372.889 29.6 373.082 29.22 373.216 28.82C373.362 28.42 373.509 27.9467 373.656 27.4L375.156 27.56C375.129 27.64 375.076 27.84 374.996 28.16C374.916 28.48 374.849 28.78 374.796 29.06C374.756 29.34 374.736 29.5933 374.736 29.82C374.736 30.74 375.109 31.2 375.856 31.2H375.896L375.996 32.1L375.896 33H375.836C375.222 33 374.709 32.82 374.296 32.46C373.896 32.0867 373.656 31.5867 373.576 30.96C373.162 31.6267 372.669 32.1333 372.096 32.48C371.522 32.8267 370.889 33 370.196 33H370.116ZM379.296 19.56L380.496 20.78L379.296 21.98L378.096 20.78L379.296 19.56ZM381.136 21.6L382.496 22.96L381.136 24.3C380.696 23.8467 380.249 23.4 379.796 22.96L381.136 21.6ZM377.456 21.6L378.816 22.96L377.456 24.3C377.016 23.8467 376.569 23.4 376.116 22.96L377.456 21.6ZM392.812 31.16C392.839 30.5733 393.032 30.1 393.392 29.74C393.766 29.3667 394.206 29.18 394.712 29.18C394.939 29.18 395.159 29.22 395.372 29.3C395.906 28.1933 396.472 27.3 397.072 26.62C397.672 25.94 398.326 25.58 399.032 25.54C399.712 25.5 400.306 25.68 400.812 26.08C401.332 26.4667 401.726 26.9867 401.992 27.64C402.272 28.2933 402.412 28.9733 402.412 29.68C402.412 30.3733 402.272 31.0133 401.992 31.6C401.712 32.1733 401.299 32.6067 400.752 32.9C400.486 33.0333 400.206 33.1 399.912 33.1C399.419 33.1 398.792 32.94 398.032 32.62C397.272 32.3 396.286 31.7867 395.072 31.08C394.966 31.0267 394.879 31 394.812 31C394.572 31 394.446 31.1533 394.432 31.46L394.412 32.22C394.412 33.5 394.532 35.58 394.772 38.46L394.892 39.94L393.312 40.22L393.252 39.56C393.106 38.0133 392.992 36.68 392.912 35.56C392.832 34.44 392.792 33.3533 392.792 32.3C392.792 31.7667 392.799 31.3867 392.812 31.16ZM396.652 29.98C397.372 30.4467 398.012 30.8 398.572 31.04C399.132 31.28 399.572 31.4 399.892 31.4C400.039 31.4 400.159 31.3733 400.252 31.32C400.492 31.2 400.672 31 400.792 30.72C400.912 30.44 400.972 30.1133 400.972 29.74C400.972 29.1 400.806 28.5133 400.472 27.98C400.152 27.4467 399.732 27.18 399.212 27.18C398.492 27.18 397.639 28.1133 396.652 29.98ZM406.203 19.08C406.31 19.76 406.39 20.9533 406.443 22.66C406.51 24.3533 406.543 25.8933 406.543 27.28V28.12L406.523 28.82C406.523 29.4467 406.576 29.9267 406.683 30.26C406.79 30.58 406.99 30.82 407.283 30.98C407.59 31.1267 408.043 31.2 408.643 31.2H408.743L408.843 32.1L408.743 33H408.643C407.696 33 406.956 32.8467 406.423 32.54C405.89 32.22 405.51 31.7467 405.283 31.12C405.07 30.4933 404.963 29.6667 404.963 28.64C404.963 27.12 404.93 25.4 404.863 23.48C404.81 21.5467 404.723 20.1933 404.603 19.42L406.203 19.08ZM423.892 31.2L423.992 32.1L423.892 33H423.692C422.372 32.9867 421.319 32.7133 420.532 32.18C419.759 31.6467 419.239 30.8333 418.972 29.74L420.012 28.98C420.159 29.6333 420.552 30.1667 421.192 30.58C421.846 30.98 422.679 31.1867 423.692 31.2H423.892ZM408.532 31.2H410.372C412.039 31.2 413.592 31 415.032 30.6C416.486 30.1867 417.939 29.5933 419.392 28.82C420.206 28.38 421.006 28.0467 421.792 27.82L421.852 28.54C421.092 28.54 420.366 28.4533 419.672 28.28C418.992 28.1067 418.286 27.8333 417.552 27.46C416.912 27.1267 416.339 26.8733 415.832 26.7C415.326 26.5267 414.826 26.44 414.332 26.44C413.772 26.44 413.266 26.6067 412.812 26.94C412.359 27.2733 412.019 27.6667 411.792 28.12L410.712 27.38C411.139 26.5133 411.666 25.86 412.292 25.42C412.919 24.9667 413.619 24.74 414.392 24.74C414.952 24.74 415.472 24.8333 415.952 25.02C416.446 25.2067 417.172 25.54 418.132 26.02C419.026 26.4733 419.726 26.8133 420.232 27.04C420.752 27.2533 421.339 27.4267 421.992 27.56L422.052 29.14C421.786 29.22 421.506 29.3267 421.212 29.46C420.932 29.5933 420.526 29.8067 419.992 30.1C418.192 31.0467 416.559 31.7667 415.092 32.26C413.639 32.7533 412.066 33 410.372 33H408.532V31.2ZM413.732 36.02L414.212 35.54C414.839 34.9133 415.152 34.6 415.152 34.6C415.152 34.6 415.466 34.9133 416.092 35.54L416.572 36.02L415.152 37.44L413.732 36.02ZM423.689 31.2H424.729C425.796 31.2 426.562 31.06 427.029 30.78C427.509 30.5 427.749 30.0667 427.749 29.48C427.749 29.0667 427.616 28.4333 427.349 27.58C427.082 26.7267 426.862 26.1067 426.689 25.72L428.129 24.96C428.382 25.52 428.642 26.26 428.909 27.18C429.176 28.0867 429.309 28.86 429.309 29.5C429.296 30.6467 428.896 31.52 428.109 32.12C427.322 32.7067 426.196 33 424.729 33H423.689V31.2ZM425.409 22.28L425.889 21.8C426.516 21.1733 426.829 20.86 426.829 20.86C426.829 20.86 427.142 21.1733 427.769 21.8L428.249 22.28L426.829 23.7L425.409 22.28ZM431.757 32.88C431.85 32.08 431.897 30.7267 431.897 28.82C431.897 27.0067 431.857 25.1333 431.777 23.2C431.71 21.2533 431.63 19.9933 431.537 19.42L433.137 19.08C433.217 19.6933 433.297 21.0333 433.377 23.1C433.47 25.1533 433.517 27.1067 433.517 28.96C433.517 30.8267 433.47 32.2 433.377 33.08L431.757 32.88ZM450.174 33.2C450.161 33 450.154 32.7 450.154 32.3C450.154 31.9 450.161 31.6 450.174 31.4C451.801 31.4 453.127 31.2667 454.154 31C455.181 30.72 455.987 30.2933 456.574 29.72C457.174 29.1333 457.634 28.36 457.954 27.4L459.434 27.56C459.207 28.3067 459.094 28.9333 459.094 29.44C459.094 30.6133 459.667 31.2 460.814 31.2L460.914 32.1L460.814 33C459.921 33 459.187 32.72 458.614 32.16C458.054 31.6 457.774 30.8467 457.774 29.9H458.174C457.441 31.06 456.414 31.9 455.094 32.42C453.787 32.94 452.147 33.2 450.174 33.2ZM444.814 26.26C444.441 27.3 444.254 28.12 444.254 28.72C444.254 28.9067 444.261 29.0467 444.274 29.14C444.381 29.86 444.934 30.42 445.934 30.82C446.934 31.2067 448.381 31.4 450.274 31.4C450.301 31.6267 450.314 31.96 450.314 32.4C450.314 32.76 450.307 33.0267 450.294 33.2C447.974 33.2133 446.161 32.8933 444.854 32.24C443.561 31.5733 442.854 30.6267 442.734 29.4C442.721 29.2933 442.714 29.14 442.714 28.94C442.714 28.38 442.781 27.8 442.914 27.2C443.061 26.5867 443.241 26.0467 443.454 25.58L444.814 26.26ZM447.974 25.52L448.874 24.62L450.214 25.96L448.874 27.32L447.534 25.96L447.974 25.52ZM451.534 25.52L452.434 24.62L453.774 25.96L452.434 27.32L451.094 25.96L451.534 25.52ZM460.623 31.2H460.803C461.829 31.2 462.629 31.16 463.203 31.08C463.776 30.9867 464.196 30.8467 464.463 30.66C464.729 30.4733 464.923 30.22 465.043 29.9C465.123 29.66 465.163 29.3733 465.163 29.04C465.163 28.6133 465.083 27.88 464.923 26.84L466.403 26.56C466.563 27.4 466.649 28.4667 466.663 29.76C466.849 30.72 467.456 31.2 468.483 31.2H468.623L468.723 32.1L468.623 33H468.483C467.816 33 467.229 32.8067 466.723 32.42C466.229 32.02 465.883 31.5133 465.683 30.9L466.083 30.98C465.909 31.4867 465.623 31.8867 465.223 32.18C464.823 32.4733 464.269 32.6867 463.563 32.82C462.869 32.94 461.949 33 460.803 33H460.623V31.2ZM460.083 35.78L460.983 34.88L462.323 36.22L460.983 37.58L459.643 36.22L460.083 35.78ZM463.643 35.78L464.543 34.88L465.883 36.22L464.543 37.58L463.203 36.22L463.643 35.78ZM468.356 31.2H468.836C470.369 31.2 471.582 31.1 472.476 30.9C473.369 30.6867 474.016 30.4067 474.416 30.06C474.829 29.7 475.102 29.26 475.236 28.74L475.256 28.46C475.256 27.8867 475.096 27.3867 474.776 26.96C474.456 26.52 474.042 26.3 473.536 26.3C473.042 26.3 472.609 26.5133 472.236 26.94C471.876 27.3667 471.656 27.88 471.576 28.48C471.536 28.9733 471.702 29.4267 472.076 29.84C472.462 30.2533 473.029 30.5867 473.776 30.84C474.522 31.08 475.409 31.2 476.436 31.2H478.196L478.296 32.1L478.196 33H476.996C475.662 33 474.469 32.8133 473.416 32.44C472.362 32.0533 471.536 31.54 470.936 30.9C470.349 30.2467 470.056 29.52 470.056 28.72C470.056 28.64 470.069 28.4933 470.096 28.28C470.189 27.5867 470.409 26.9533 470.756 26.38C471.102 25.7933 471.522 25.3333 472.016 25C472.522 24.6533 473.042 24.48 473.576 24.48C474.162 24.48 474.696 24.6667 475.176 25.04C475.669 25.4133 476.056 25.9 476.336 26.5C476.616 27.1 476.756 27.72 476.756 28.36C476.756 28.4667 476.742 28.64 476.716 28.88C476.542 30.28 475.796 31.32 474.476 32C473.169 32.6667 471.289 33 468.836 33H468.356V31.2ZM471.016 21.56L471.916 20.66L473.256 22L471.916 23.36L470.576 22L471.016 21.56ZM474.576 21.56L475.476 20.66L476.816 22L475.476 23.36L474.136 22L474.576 21.56ZM477.946 31.2H478.186C480.24 31.2 481.806 31.02 482.886 30.66C483.966 30.2867 484.62 29.68 484.846 28.84C484.846 28.1467 484.746 27.4333 484.546 26.7C484.36 25.9533 484.073 25.3333 483.686 24.84C483.313 24.3333 482.866 24.08 482.346 24.08C482.026 24.08 481.726 24.1867 481.446 24.4C481.18 24.6133 480.966 24.8933 480.806 25.24C480.646 25.5733 480.566 25.9067 480.566 26.24C480.566 26.5067 480.626 26.7533 480.746 26.98C480.946 27.3133 481.32 27.5733 481.866 27.76C482.426 27.9467 483.053 28.04 483.746 28.04C484.253 28.04 484.72 27.9933 485.146 27.9V29.58C484.546 29.6867 483.966 29.74 483.406 29.74C482.513 29.74 481.72 29.6 481.026 29.32C480.333 29.04 479.833 28.6133 479.526 28.04C479.273 27.5467 479.146 26.9933 479.146 26.38C479.146 25.7267 479.286 25.0867 479.566 24.46C479.86 23.8333 480.26 23.32 480.766 22.92C481.273 22.52 481.826 22.32 482.426 22.32C483.16 22.32 483.806 22.6 484.366 23.16C484.94 23.72 485.373 24.4467 485.666 25.34C485.973 26.22 486.126 27.12 486.126 28.04C486.126 28.2133 486.113 28.46 486.086 28.78C485.966 30.14 485.24 31.1867 483.906 31.92C482.573 32.64 480.666 33 478.186 33H477.946V31.2ZM480.806 19.34L481.286 18.86C481.913 18.2333 482.226 17.92 482.226 17.92C482.226 17.92 482.54 18.2333 483.166 18.86L483.646 19.34L482.226 20.76L480.806 19.34ZM487.534 37.14C489.667 36.6733 491.247 36.04 492.274 35.24C493.3 34.4533 493.814 33.46 493.814 32.26C493.814 31.4867 493.714 30.7133 493.514 29.94C493.314 29.1533 493.014 28.5 492.614 27.98C492.227 27.4467 491.767 27.16 491.234 27.12C490.94 27.1067 490.654 27.2267 490.374 27.48C490.094 27.7333 489.867 28.06 489.694 28.46C489.52 28.86 489.434 29.24 489.434 29.6C489.434 29.8933 489.494 30.14 489.614 30.34C489.827 30.6867 490.327 30.92 491.114 31.04C491.9 31.1467 492.914 31.2 494.154 31.2H495.914L496.014 32.1L495.914 33L493.494 33.02C492.134 33.02 491.02 32.9067 490.154 32.68C489.287 32.4533 488.68 32.0067 488.334 31.34C488.12 30.9133 488.014 30.4133 488.014 29.84C488.014 29.1467 488.16 28.4533 488.454 27.76C488.76 27.0667 489.16 26.4933 489.654 26.04C490.16 25.5867 490.7 25.36 491.274 25.36C492.06 25.36 492.754 25.7067 493.354 26.4C493.954 27.0933 494.414 27.9667 494.734 29.02C495.054 30.06 495.214 31.0867 495.214 32.1C495.214 33.7533 494.58 35.16 493.314 36.32C492.06 37.48 490.307 38.2867 488.054 38.74L487.534 37.14ZM499.502 29.62C500.342 30.1933 501.095 30.6333 501.762 30.94C502.428 31.2467 502.942 31.4 503.302 31.4C503.422 31.4 503.535 31.3733 503.642 31.32C503.882 31.2 504.062 31 504.182 30.72C504.302 30.44 504.362 30.12 504.362 29.76C504.362 29.1067 504.195 28.5133 503.862 27.98C503.542 27.4467 503.115 27.18 502.582 27.18C502.168 27.18 501.728 27.4733 501.262 28.06C500.795 28.6333 500.282 29.48 499.722 30.6C499.322 31.3867 498.802 31.9867 498.162 32.4C497.535 32.8 496.822 33 496.022 33H495.662L495.682 31.2H496.062C496.608 31.2 497.108 31.0467 497.562 30.74C498.028 30.42 498.415 29.9533 498.722 29.34C499.282 28.2067 499.862 27.3 500.462 26.62C501.062 25.94 501.722 25.58 502.442 25.54C503.108 25.5 503.695 25.68 504.202 26.08C504.722 26.4667 505.115 26.9867 505.382 27.64C505.662 28.28 505.802 28.9533 505.802 29.66C505.802 30.3667 505.662 31.0133 505.382 31.6C505.102 32.1733 504.688 32.6067 504.142 32.9C503.915 33.0333 503.628 33.1 503.282 33.1C502.268 33.1 500.768 32.44 498.782 31.12L499.502 29.62ZM516.574 19.08C516.681 19.76 516.761 20.9533 516.814 22.66C516.881 24.3533 516.914 25.8933 516.914 27.28V28.12L516.894 28.82C516.894 29.4467 516.948 29.9267 517.054 30.26C517.161 30.58 517.361 30.82 517.654 30.98C517.961 31.1267 518.414 31.2 519.014 31.2H519.114L519.214 32.1L519.114 33H519.014C518.068 33 517.328 32.8467 516.794 32.54C516.261 32.22 515.881 31.7467 515.654 31.12C515.441 30.4933 515.334 29.6667 515.334 28.64C515.334 27.12 515.301 25.4 515.234 23.48C515.181 21.5467 515.094 20.1933 514.974 19.42L516.574 19.08ZM518.923 31.2H519.963C521.03 31.2 521.797 31.06 522.263 30.78C522.743 30.5 522.983 30.0667 522.983 29.48C522.983 29.0667 522.85 28.4333 522.583 27.58C522.317 26.7267 522.097 26.1067 521.923 25.72L523.363 24.96C523.617 25.52 523.877 26.26 524.143 27.18C524.41 28.0867 524.543 28.86 524.543 29.5C524.53 30.6467 524.13 31.52 523.343 32.12C522.557 32.7067 521.43 33 519.963 33H518.923V31.2ZM518.983 36.28L519.463 35.8C520.09 35.1733 520.403 34.86 520.403 34.86C520.403 34.86 520.717 35.1733 521.343 35.8L521.823 36.28L520.403 37.7L518.983 36.28ZM535.363 19.08C535.47 19.76 535.55 20.9533 535.603 22.66C535.67 24.3533 535.703 25.8933 535.703 27.28V28.12L535.683 28.82C535.683 29.4467 535.737 29.9267 535.843 30.26C535.95 30.58 536.15 30.82 536.443 30.98C536.75 31.1267 537.203 31.2 537.803 31.2H537.903L538.003 32.1L537.903 33H537.803C536.857 33 536.117 32.8467 535.583 32.54C535.05 32.22 534.67 31.7467 534.443 31.12C534.23 30.4933 534.123 29.6667 534.123 28.64C534.123 27.12 534.09 25.4 534.023 23.48C533.97 21.5467 533.883 20.1933 533.763 19.42L535.363 19.08ZM537.712 31.2H538.113C539.233 31.2 540.119 30.58 540.773 29.34C541.426 28.14 542.033 27.22 542.593 26.58C543.153 25.9267 543.786 25.58 544.493 25.54C546.026 25.46 547.066 26.5133 547.613 28.7C547.826 29.5933 548.053 30.2333 548.293 30.62C548.533 31.0067 548.866 31.2 549.293 31.2H549.473L549.572 32.1L549.473 33H549.293C548.306 33 547.666 32.4533 547.373 31.36C547.333 31.68 547.193 31.98 546.953 32.26C546.726 32.54 546.473 32.7533 546.193 32.9C545.966 33.0333 545.686 33.1 545.353 33.1C544.393 33.1 543.039 32.5333 541.293 31.4C540.893 31.92 540.413 32.32 539.853 32.6C539.306 32.8667 538.713 33 538.073 33H537.712V31.2ZM542.093 29.96C542.839 30.48 543.526 30.8733 544.153 31.14C544.793 31.3933 545.299 31.52 545.673 31.52C545.806 31.52 545.913 31.5 545.993 31.46C546.286 31.18 546.433 30.7267 546.433 30.1C546.433 29.66 546.353 29.2133 546.193 28.76C546.046 28.3067 545.833 27.9333 545.553 27.64C545.286 27.3333 544.979 27.18 544.633 27.18C544.233 27.18 543.819 27.4267 543.393 27.92C542.979 28.4133 542.546 29.0933 542.093 29.96ZM560.475 31.2C561.475 31.2 561.975 30.6467 561.975 29.54C561.975 29.0867 561.842 28.4533 561.575 27.64C561.322 26.8133 561.095 26.1867 560.895 25.76L562.315 24.98C562.582 25.54 562.848 26.2733 563.115 27.18C563.382 28.0733 563.515 28.86 563.515 29.54C563.515 30.1933 563.382 30.7867 563.115 31.32C562.862 31.84 562.502 32.2533 562.035 32.56C561.582 32.8533 561.062 33 560.475 33H560.435V31.2H560.475ZM555.035 33V31.2H555.095C555.842 31.2 556.482 30.7333 557.015 29.8C557.188 29.48 557.322 29.1 557.415 28.66C557.522 28.22 557.622 27.7333 557.715 27.2L559.195 27.28C559.182 27.3333 559.135 27.58 559.055 28.02C558.975 28.46 558.935 28.8867 558.935 29.3C558.935 29.94 559.055 30.42 559.295 30.74C559.548 31.0467 559.942 31.2 560.475 31.2H560.515L560.615 32.1L560.515 33H560.475C559.702 33 559.082 32.7733 558.615 32.32C558.162 31.8533 557.888 31.2067 557.795 30.38L558.115 30.36C557.835 31.12 557.422 31.7533 556.875 32.26C556.342 32.7533 555.742 33 555.075 33H555.035ZM549.315 33L549.215 32.1L549.315 31.2H549.415C549.908 31.2 550.375 31.0867 550.815 30.86C551.255 30.6333 551.595 30.3333 551.835 29.96C552.088 29.6 552.282 29.22 552.415 28.82C552.562 28.42 552.708 27.9467 552.855 27.4L554.355 27.56C554.328 27.64 554.275 27.84 554.195 28.16C554.115 28.48 554.048 28.78 553.995 29.06C553.955 29.34 553.935 29.5933 553.935 29.82C553.935 30.74 554.308 31.2 555.055 31.2H555.095L555.195 32.1L555.095 33H555.035C554.422 33 553.908 32.82 553.495 32.46C553.095 32.0867 552.855 31.5867 552.775 30.96C552.362 31.6267 551.868 32.1333 551.295 32.48C550.722 32.8267 550.088 33 549.395 33H549.315ZM558.495 19.56L559.695 20.78L558.495 21.98L557.295 20.78L558.495 19.56ZM560.335 21.6L561.695 22.96L560.335 24.3C559.895 23.8467 559.448 23.4 558.995 22.96L560.335 21.6ZM556.655 21.6L558.015 22.96L556.655 24.3C556.215 23.8467 555.768 23.4 555.315 22.96L556.655 21.6ZM579.451 33.2C579.438 33 579.431 32.7 579.431 32.3C579.431 31.9 579.438 31.6 579.451 31.4C581.078 31.4 582.405 31.2667 583.431 31C584.458 30.72 585.265 30.2933 585.851 29.72C586.451 29.1333 586.911 28.36 587.231 27.4L588.711 27.56C588.485 28.3067 588.371 28.9333 588.371 29.44C588.371 30.6133 588.945 31.2 590.091 31.2L590.191 32.1L590.091 33C589.198 33 588.465 32.72 587.891 32.16C587.331 31.6 587.051 30.8467 587.051 29.9H587.451C586.718 31.06 585.691 31.9 584.371 32.42C583.065 32.94 581.425 33.2 579.451 33.2ZM574.091 26.26C573.718 27.3 573.531 28.12 573.531 28.72C573.531 28.9067 573.538 29.0467 573.551 29.14C573.658 29.86 574.211 30.42 575.211 30.82C576.211 31.2067 577.658 31.4 579.551 31.4C579.578 31.6267 579.591 31.96 579.591 32.4C579.591 32.76 579.585 33.0267 579.571 33.2C577.251 33.2133 575.438 32.8933 574.131 32.24C572.838 31.5733 572.131 30.6267 572.011 29.4C571.998 29.2933 571.991 29.14 571.991 28.94C571.991 28.38 572.058 27.8 572.191 27.2C572.338 26.5867 572.518 26.0467 572.731 25.58L574.091 26.26ZM577.251 25.52L578.151 24.62L579.491 25.96L578.151 27.32L576.811 25.96L577.251 25.52ZM580.811 25.52L581.711 24.62L583.051 25.96L581.711 27.32L580.371 25.96L580.811 25.52ZM589.88 31.2H591.72C593.387 31.2 594.94 31 596.38 30.6C597.833 30.1867 599.287 29.5933 600.74 28.82C601.553 28.38 602.353 28.0467 603.14 27.82L603.2 28.54C602.44 28.54 601.713 28.4533 601.02 28.28C600.34 28.1067 599.633 27.8333 598.9 27.46C598.26 27.1267 597.687 26.8733 597.18 26.7C596.673 26.5267 596.173 26.44 595.68 26.44C595.12 26.44 594.613 26.6067 594.16 26.94C593.707 27.2733 593.367 27.6667 593.14 28.12L592.06 27.38C592.487 26.5133 593.013 25.86 593.64 25.42C594.267 24.9667 594.967 24.74 595.74 24.74C596.3 24.74 596.82 24.8333 597.3 25.02C597.793 25.2067 598.52 25.54 599.48 26.02C600.373 26.4733 601.073 26.8133 601.58 27.04C602.1 27.2533 602.687 27.4267 603.34 27.56L603.4 29.14C603.133 29.22 602.853 29.3267 602.56 29.46C602.28 29.5933 601.873 29.8067 601.34 30.1C599.54 31.0467 597.907 31.7667 596.44 32.26C594.987 32.7533 593.413 33 591.72 33H589.88V31.2ZM594.14 21.62L594.62 21.14C595.247 20.5133 595.56 20.2 595.56 20.2C595.56 20.2 595.873 20.5133 596.5 21.14L596.98 21.62L595.56 23.04L594.14 21.62ZM605.624 32.88C605.717 32.08 605.764 30.7267 605.764 28.82C605.764 27.0067 605.724 25.1333 605.644 23.2C605.577 21.2533 605.497 19.9933 605.404 19.42L607.004 19.08C607.084 19.6933 607.164 21.0333 607.244 23.1C607.337 25.1533 607.384 27.1067 607.384 28.96C607.384 30.8267 607.337 32.2 607.244 33.08L605.624 32.88ZM610.169 30.32C610.222 30.3467 610.416 30.46 610.749 30.66C611.096 30.8467 611.529 31.0067 612.049 31.14C612.582 31.2733 613.142 31.34 613.729 31.34C614.449 31.34 615.036 31.24 615.489 31.04C615.956 30.8267 616.256 30.5933 616.389 30.34C616.456 30.18 616.489 30.0133 616.489 29.84C616.489 29.2133 616.142 28.44 615.449 27.52C614.769 26.5867 613.729 25.6067 612.329 24.58L613.229 23.02C614.709 24.14 615.862 25.3 616.689 26.5C617.529 27.6867 617.949 28.8 617.949 29.84C617.949 30.32 617.862 30.7533 617.689 31.14C617.422 31.7533 616.942 32.2267 616.249 32.56C615.556 32.8933 614.762 33.06 613.869 33.06C612.816 33.06 611.916 32.92 611.169 32.64C610.422 32.3467 609.829 32.0133 609.389 31.64L610.169 30.32ZM624.783 33C623.957 33 623.317 32.7133 622.863 32.14C622.41 31.5667 622.03 30.74 621.723 29.66L622.843 28.98C623.043 29.7933 623.283 30.3667 623.563 30.7C623.857 31.0333 624.263 31.2 624.783 31.2H624.923L625.023 32.1L624.923 33H624.783ZM617.363 37.18C618.217 36.8867 618.99 36.5 619.683 36.02C620.377 35.54 620.917 35.0267 621.303 34.48C621.703 33.9333 621.903 33.42 621.903 32.94C621.903 32.26 621.563 30.5933 620.883 27.94L622.423 27.36C622.717 28.3067 622.957 29.3067 623.143 30.36C623.343 31.4133 623.443 32.2733 623.443 32.94C623.443 33.7267 623.21 34.4933 622.743 35.24C622.277 36 621.63 36.68 620.803 37.28C619.99 37.8933 619.07 38.38 618.043 38.74L617.363 37.18ZM625.164 31.2H625.964C627.391 31.2 628.398 31.0667 628.984 30.8C629.571 30.52 629.864 30.0667 629.864 29.44C629.851 29.0267 629.711 28.4 629.444 27.56C629.191 26.7067 628.971 26.0933 628.784 25.72L630.224 24.96C630.491 25.48 630.751 26.1867 631.004 27.08C631.271 27.96 631.404 28.7267 631.404 29.38C631.404 30.5667 630.971 31.4667 630.104 32.08C629.238 32.6933 627.931 33 626.184 33H625.164V31.2ZM629.984 34.36L631.344 35.72L629.984 37.06C629.544 36.6067 629.098 36.16 628.644 35.72L629.984 34.36ZM626.304 34.36L627.664 35.72L626.304 37.06C625.864 36.6067 625.418 36.16 624.964 35.72L626.304 34.36ZM628.144 36.64L629.344 37.86L628.144 39.06L626.944 37.86L628.144 36.64ZM624.784 33L624.684 32.1L624.784 31.2H625.304V33H624.784Z" fill="#00966D"/>
<path d="M652.5 38C658 38 662.5 33.5 662.5 28C662.5 22.5 658 18 652.5 18C647 18 642.5 22.5 642.5 28C642.5 33.5 647 38 652.5 38Z" stroke="#00966D" stroke-width="1.5" stroke-linecap="round" stroke-linejoin="round"/>
<path d="M648.25 28L651.08 30.83L656.75 25.17" stroke="#00966D" stroke-width="1.5" stroke-linecap="round" stroke-linejoin="round"/>
</svg>
