<svg width="1100" height="83" viewBox="0 0 1100 83" fill="none" xmlns="http://www.w3.org/2000/svg">
<rect x="17" width="50" height="50" rx="25" fill="#F4F4F4"/>
<path d="M42 35.75C36.07 35.75 31.25 30.93 31.25 25C31.25 19.07 36.07 14.25 42 14.25C47.93 14.25 52.75 19.07 52.75 25C52.75 30.93 47.93 35.75 42 35.75ZM42 15.75C36.9 15.75 32.75 19.9 32.75 25C32.75 30.1 36.9 34.25 42 34.25C47.1 34.25 51.25 30.1 51.25 25C51.25 19.9 47.1 15.75 42 15.75Z" fill="#BCBCBC"/>
<path d="M40.5795 28.58C40.3795 28.58 40.1895 28.5 40.0495 28.36L37.2195 25.53C36.9295 25.24 36.9295 24.76 37.2195 24.47C37.5095 24.18 37.9895 24.18 38.2795 24.47L40.5795 26.77L45.7195 21.63C46.0095 21.34 46.4895 21.34 46.7795 21.63C47.0695 21.92 47.0695 22.4 46.7795 22.69L41.1095 28.36C40.9695 28.5 40.7795 28.58 40.5795 28.58Z" fill="#BCBCBC"/>
<path d="M22.5156 69.92H22.5396C22.8356 69.92 23.1036 69.836 23.3436 69.668C23.5916 69.5 23.7276 69.308 23.7516 69.092L24.4116 69.212C24.3796 69.548 24.2716 69.852 24.0876 70.124C23.9116 70.396 23.6876 70.612 23.4156 70.772C23.1436 70.924 22.8516 71 22.5396 71H22.5156V69.92ZM25.5996 69.92L25.6596 70.46L25.5996 71H25.5396C25.0996 71 24.7116 70.876 24.3756 70.628C24.0396 70.38 23.7956 70.024 23.6436 69.56C23.5636 69.328 23.4156 68.648 23.1996 67.52L24.0756 67.292C24.2516 68.284 24.3876 68.916 24.4836 69.188C24.5636 69.436 24.6876 69.62 24.8556 69.74C25.0316 69.86 25.2596 69.92 25.5396 69.92H25.5996ZM19.2756 71V69.92H19.3116C19.7596 69.92 20.1436 69.64 20.4636 69.08C20.5676 68.888 20.6476 68.66 20.7036 68.396C20.7676 68.132 20.8276 67.84 20.8836 67.52L21.7716 67.568C21.7636 67.6 21.7356 67.748 21.6876 68.012C21.6396 68.276 21.6156 68.532 21.6156 68.78C21.6156 69.164 21.6876 69.452 21.8316 69.644C21.9836 69.828 22.2196 69.92 22.5396 69.92H22.5636L22.6236 70.46L22.5636 71H22.5396C22.0756 71 21.7036 70.864 21.4236 70.592C21.1516 70.312 20.9876 69.924 20.9316 69.428L21.1236 69.416C20.9556 69.872 20.7076 70.252 20.3796 70.556C20.0596 70.852 19.6996 71 19.2996 71H19.2756ZM18.1116 68.672C18.2316 69.112 18.3756 69.432 18.5436 69.632C18.7116 69.824 18.9796 69.92 19.3476 69.92L19.2996 71C18.8196 71 18.4396 70.8 18.1596 70.4C17.8876 69.992 17.7196 69.516 17.6556 68.972L18.1116 68.672ZM12.7116 68.552C12.2636 69.496 12.0396 70.32 12.0396 71.024C12.0396 71.784 12.2636 72.364 12.7116 72.764C13.1596 73.164 13.8036 73.364 14.6436 73.364C15.2916 73.364 15.8316 73.244 16.2636 73.004C16.7036 72.772 17.0276 72.472 17.2356 72.104C17.4436 71.744 17.5476 71.364 17.5476 70.964C17.5476 70.3 17.3276 69.3 16.8876 67.964L17.7756 67.556C18.0076 68.292 18.1796 68.928 18.2916 69.464C18.4036 69.992 18.4596 70.492 18.4596 70.964C18.4596 71.54 18.3076 72.096 18.0036 72.632C17.7076 73.168 17.2716 73.604 16.6956 73.94C16.1196 74.276 15.4356 74.444 14.6436 74.444C13.8836 74.444 13.2356 74.292 12.6996 73.988C12.1716 73.684 11.7716 73.28 11.4996 72.776C11.2356 72.272 11.1036 71.72 11.1036 71.12C11.1036 70.64 11.1836 70.136 11.3436 69.608C11.5036 69.08 11.6876 68.6 11.8956 68.168L12.7116 68.552ZM21.3636 63.332L22.0836 64.064L21.3636 64.784L20.6436 64.064L21.3636 63.332ZM22.4676 64.556L23.2836 65.372L22.4676 66.176C22.2036 65.904 21.9356 65.636 21.6636 65.372L22.4676 64.556ZM20.2596 64.556L21.0756 65.372L20.2596 66.176C19.9956 65.904 19.7276 65.636 19.4556 65.372L20.2596 64.556ZM25.4693 69.92H25.5773C26.1933 69.92 26.6733 69.896 27.0173 69.848C27.3613 69.792 27.6133 69.708 27.7733 69.596C27.9333 69.484 28.0493 69.332 28.1213 69.14C28.1693 68.996 28.1933 68.824 28.1933 68.624C28.1933 68.368 28.1453 67.928 28.0493 67.304L28.9373 67.136C29.0333 67.64 29.0853 68.28 29.0933 69.056C29.2053 69.632 29.5693 69.92 30.1853 69.92H30.2693L30.3293 70.46L30.2693 71H30.1853C29.7853 71 29.4333 70.884 29.1293 70.652C28.8333 70.412 28.6253 70.108 28.5053 69.74L28.7453 69.788C28.6413 70.092 28.4693 70.332 28.2293 70.508C27.9893 70.684 27.6573 70.812 27.2333 70.892C26.8173 70.964 26.2653 71 25.5773 71H25.4693V69.92ZM25.1453 72.668L25.6853 72.128L26.4893 72.932L25.6853 73.748L24.8813 72.932L25.1453 72.668ZM27.2813 72.668L27.8213 72.128L28.6253 72.932L27.8213 73.748L27.0173 72.932L27.2813 72.668ZM30.1331 69.92H30.2771C31.5091 69.92 32.4491 69.812 33.0971 69.596C33.7451 69.372 34.1371 69.008 34.2731 68.504C34.2731 68.088 34.2131 67.66 34.0931 67.22C33.9811 66.772 33.8091 66.4 33.5771 66.104C33.3531 65.8 33.0851 65.648 32.7731 65.648C32.5811 65.648 32.4011 65.712 32.2331 65.84C32.0731 65.968 31.9451 66.136 31.8491 66.344C31.7531 66.544 31.7051 66.744 31.7051 66.944C31.7051 67.104 31.7411 67.252 31.8131 67.388C31.9331 67.588 32.1571 67.744 32.4851 67.856C32.8211 67.968 33.1971 68.024 33.6131 68.024C33.9171 68.024 34.1971 67.996 34.4531 67.94V68.948C34.0931 69.012 33.7451 69.044 33.4091 69.044C32.8731 69.044 32.3971 68.96 31.9811 68.792C31.5651 68.624 31.2651 68.368 31.0811 68.024C30.9291 67.728 30.8531 67.396 30.8531 67.028C30.8531 66.636 30.9371 66.252 31.1051 65.876C31.2811 65.5 31.5211 65.192 31.8251 64.952C32.1291 64.712 32.4611 64.592 32.8211 64.592C33.2611 64.592 33.6491 64.76 33.9851 65.096C34.3291 65.432 34.5891 65.868 34.7651 66.404C34.9491 66.932 35.0411 67.472 35.0411 68.024C35.0411 68.128 35.0331 68.276 35.0171 68.468C34.9451 69.284 34.5091 69.912 33.7091 70.352C32.9091 70.784 31.7651 71 30.2771 71H30.1331V69.92ZM31.8491 62.804L32.1371 62.516C32.5131 62.14 32.7011 61.952 32.7011 61.952C32.7011 61.952 32.8891 62.14 33.2651 62.516L33.5531 62.804L32.7011 63.656L31.8491 62.804ZM44.6767 71.12C44.6687 71 44.6647 70.82 44.6647 70.58C44.6647 70.34 44.6687 70.16 44.6767 70.04C45.6527 70.04 46.4487 69.96 47.0647 69.8C47.6807 69.632 48.1647 69.376 48.5167 69.032C48.8767 68.68 49.1527 68.216 49.3447 67.64L50.2327 67.736C50.0967 68.184 50.0287 68.56 50.0287 68.864C50.0287 69.568 50.3727 69.92 51.0607 69.92L51.1207 70.46L51.0607 71C50.5247 71 50.0847 70.832 49.7407 70.496C49.4047 70.16 49.2367 69.708 49.2367 69.14H49.4767C49.0367 69.836 48.4207 70.34 47.6287 70.652C46.8447 70.964 45.8607 71.12 44.6767 71.12ZM41.4607 66.956C41.2367 67.58 41.1247 68.072 41.1247 68.432C41.1247 68.544 41.1287 68.628 41.1367 68.684C41.2007 69.116 41.5327 69.452 42.1327 69.692C42.7327 69.924 43.6007 70.04 44.7367 70.04C44.7527 70.176 44.7607 70.376 44.7607 70.64C44.7607 70.856 44.7567 71.016 44.7487 71.12C43.3567 71.128 42.2687 70.936 41.4847 70.544C40.7087 70.144 40.2847 69.576 40.2127 68.84C40.2047 68.776 40.2007 68.684 40.2007 68.564C40.2007 68.228 40.2407 67.88 40.3207 67.52C40.4087 67.152 40.5167 66.828 40.6447 66.548L41.4607 66.956ZM43.3567 66.512L43.8967 65.972L44.7007 66.776L43.8967 67.592L43.0927 66.776L43.3567 66.512ZM45.4927 66.512L46.0327 65.972L46.8367 66.776L46.0327 67.592L45.2287 66.776L45.4927 66.512ZM50.9339 69.92H51.0779C52.3099 69.92 53.2499 69.812 53.8979 69.596C54.5459 69.372 54.9379 69.008 55.0739 68.504C55.0739 68.088 55.0139 67.66 54.8939 67.22C54.7819 66.772 54.6099 66.4 54.3779 66.104C54.1539 65.8 53.8859 65.648 53.5739 65.648C53.3819 65.648 53.2019 65.712 53.0339 65.84C52.8739 65.968 52.7459 66.136 52.6499 66.344C52.5539 66.544 52.5059 66.744 52.5059 66.944C52.5059 67.104 52.5419 67.252 52.6139 67.388C52.7339 67.588 52.9579 67.744 53.2859 67.856C53.6219 67.968 53.9979 68.024 54.4139 68.024C54.7179 68.024 54.9979 67.996 55.2539 67.94V68.948C54.8939 69.012 54.5459 69.044 54.2099 69.044C53.6739 69.044 53.1979 68.96 52.7819 68.792C52.3659 68.624 52.0659 68.368 51.8819 68.024C51.7299 67.728 51.6539 67.396 51.6539 67.028C51.6539 66.636 51.7379 66.252 51.9059 65.876C52.0819 65.5 52.3219 65.192 52.6259 64.952C52.9299 64.712 53.2619 64.592 53.6219 64.592C54.0619 64.592 54.4499 64.76 54.7859 65.096C55.1299 65.432 55.3899 65.868 55.5659 66.404C55.7499 66.932 55.8419 67.472 55.8419 68.024C55.8419 68.128 55.8339 68.276 55.8179 68.468C55.7459 69.284 55.3099 69.912 54.5099 70.352C53.7099 70.784 52.5659 71 51.0779 71H50.9339V69.92ZM52.6499 62.804L52.9379 62.516C53.3139 62.14 53.5019 61.952 53.5019 61.952C53.5019 61.952 53.6899 62.14 54.0659 62.516L54.3539 62.804L53.5019 63.656L52.6499 62.804ZM58.1262 62.648C58.1902 63.056 58.2382 63.772 58.2702 64.796C58.3102 65.812 58.3302 66.736 58.3302 67.568V68.072L58.3182 68.492C58.3182 68.868 58.3502 69.156 58.4142 69.356C58.4782 69.548 58.5982 69.692 58.7742 69.788C58.9582 69.876 59.2302 69.92 59.5902 69.92H59.6502L59.7102 70.46L59.6502 71H59.5902C59.0222 71 58.5782 70.908 58.2582 70.724C57.9382 70.532 57.7102 70.248 57.5742 69.872C57.4462 69.496 57.3822 69 57.3822 68.384C57.3822 67.472 57.3622 66.44 57.3222 65.288C57.2902 64.128 57.2382 63.316 57.1662 62.852L58.1262 62.648ZM59.5357 69.92H60.0157C60.8717 69.92 61.4757 69.84 61.8277 69.68C62.1797 69.512 62.3557 69.24 62.3557 68.864C62.3477 68.616 62.2637 68.24 62.1037 67.736C61.9517 67.224 61.8197 66.856 61.7077 66.632L62.5717 66.176C62.7317 66.488 62.8877 66.912 63.0397 67.448C63.1997 67.976 63.2797 68.436 63.2797 68.828C63.2797 69.54 63.0197 70.08 62.4997 70.448C61.9797 70.816 61.1957 71 60.1477 71H59.5357V69.92ZM59.1277 72.692L59.6677 72.152L60.4717 72.956L59.6677 73.772L58.8637 72.956L59.1277 72.692ZM61.2637 72.692L61.8037 72.152L62.6077 72.956L61.8037 73.772L60.9997 72.956L61.2637 72.692ZM63.2871 73.508C63.7991 73.332 64.2631 73.1 64.6791 72.812C65.0951 72.524 65.4191 72.216 65.6511 71.888C65.8911 71.56 66.0111 71.252 66.0111 70.964C66.0111 70.556 65.8071 69.556 65.3991 67.964L66.3231 67.616C66.4991 68.184 66.6431 68.784 66.7551 69.416C66.8751 70.048 66.9351 70.564 66.9351 70.964C66.9351 71.436 66.7951 71.896 66.5151 72.344C66.2351 72.8 65.8471 73.208 65.3511 73.568C64.8631 73.936 64.3111 74.228 63.6951 74.444L63.2871 73.508ZM68.2401 69.392C68.2721 69.408 68.3881 69.476 68.5881 69.596C68.7961 69.708 69.0561 69.804 69.3681 69.884C69.6881 69.964 70.0241 70.004 70.3761 70.004C70.8081 70.004 71.1601 69.944 71.4321 69.824C71.7121 69.696 71.8921 69.556 71.9721 69.404C72.0121 69.308 72.0321 69.208 72.0321 69.104C72.0321 68.728 71.8241 68.264 71.4081 67.712C71.0001 67.152 70.3761 66.564 69.5361 65.948L70.0761 65.012C70.9641 65.684 71.6561 66.38 72.1521 67.1C72.6561 67.812 72.9081 68.48 72.9081 69.104C72.9081 69.392 72.8561 69.652 72.7521 69.884C72.5921 70.252 72.3041 70.536 71.8881 70.736C71.4721 70.936 70.9961 71.036 70.4601 71.036C69.8281 71.036 69.2881 70.952 68.8401 70.784C68.3921 70.608 68.0361 70.408 67.7721 70.184L68.2401 69.392Z" fill="#BCBCBC"/>
<path d="M254 41.5L104 41.5" stroke="#BCBCBC" stroke-linecap="round"/>
<rect x="271" width="50" height="50" rx="25" fill="#F4F4F4"/>
<path d="M287.929 29.63C287.739 29.63 287.549 29.56 287.399 29.41C287.109 29.12 287.109 28.64 287.399 28.35L299.349 16.4C299.639 16.11 300.119 16.11 300.409 16.4C300.699 16.69 300.699 17.17 300.409 17.46L288.459 29.42C288.319 29.56 288.119 29.63 287.929 29.63Z" fill="#BCBCBC"/>
<path d="M295.099 32.03C294.909 32.03 294.719 31.96 294.569 31.81C294.279 31.52 294.279 31.04 294.569 30.75L295.769 29.55C296.059 29.26 296.539 29.26 296.829 29.55C297.119 29.84 297.119 30.32 296.829 30.61L295.629 31.81C295.489 31.95 295.299 32.03 295.099 32.03Z" fill="#BCBCBC"/>
<path d="M297.79 29.34C297.6 29.34 297.41 29.27 297.26 29.12C296.97 28.83 296.97 28.35 297.26 28.06L299.65 25.67C299.94 25.38 300.42 25.38 300.71 25.67C301 25.96 301 26.44 300.71 26.73L298.32 29.12C298.18 29.26 297.98 29.34 297.79 29.34Z" fill="#BCBCBC"/>
<path d="M295.101 35.75C294.121 35.75 293.141 35.15 291.951 33.96L287.041 29.05C284.651 26.66 284.661 25.12 287.071 22.71L293.711 16.07C296.121 13.66 297.661 13.65 300.051 16.04L304.961 20.95C307.351 23.34 307.341 24.88 304.931 27.29L298.291 33.93C297.081 35.14 296.091 35.75 295.101 35.75ZM296.901 15.75C296.381 15.75 295.721 16.18 294.771 17.13L288.131 23.77C287.181 24.72 286.751 25.38 286.751 25.89C286.751 26.41 287.151 27.04 288.101 27.99L293.011 32.9C293.961 33.85 294.581 34.25 295.101 34.25C295.101 34.25 295.101 34.25 295.111 34.25C295.631 34.25 296.281 33.82 297.231 32.87L303.871 26.23C304.821 25.28 305.251 24.62 305.251 24.11C305.251 23.59 304.851 22.96 303.901 22.01L298.991 17.1C298.051 16.15 297.421 15.75 296.901 15.75Z" fill="#BCBCBC"/>
<path d="M306 35.75H286C285.59 35.75 285.25 35.41 285.25 35C285.25 34.59 285.59 34.25 286 34.25H306C306.41 34.25 306.75 34.59 306.75 35C306.75 35.41 306.41 35.75 306 35.75Z" fill="#BCBCBC"/>
<path d="M264.306 71.12C264.298 71 264.294 70.82 264.294 70.58C264.294 70.34 264.298 70.16 264.306 70.04C265.282 70.04 266.078 69.96 266.694 69.8C267.31 69.632 267.794 69.376 268.146 69.032C268.506 68.68 268.782 68.216 268.974 67.64L269.862 67.736C269.726 68.184 269.658 68.56 269.658 68.864C269.658 69.568 270.002 69.92 270.69 69.92L270.75 70.46L270.69 71C270.154 71 269.714 70.832 269.37 70.496C269.034 70.16 268.866 69.708 268.866 69.14H269.106C268.666 69.836 268.05 70.34 267.258 70.652C266.474 70.964 265.49 71.12 264.306 71.12ZM261.09 66.956C260.866 67.58 260.754 68.072 260.754 68.432C260.754 68.544 260.758 68.628 260.766 68.684C260.83 69.116 261.162 69.452 261.762 69.692C262.362 69.924 263.23 70.04 264.366 70.04C264.382 70.176 264.39 70.376 264.39 70.64C264.39 70.856 264.386 71.016 264.378 71.12C262.986 71.128 261.898 70.936 261.114 70.544C260.338 70.144 259.914 69.576 259.842 68.84C259.834 68.776 259.83 68.684 259.83 68.564C259.83 68.228 259.87 67.88 259.95 67.52C260.038 67.152 260.146 66.828 260.274 66.548L261.09 66.956ZM262.986 66.512L263.526 65.972L264.33 66.776L263.526 67.592L262.722 66.776L262.986 66.512ZM265.122 66.512L265.662 65.972L266.466 66.776L265.662 67.592L264.858 66.776L265.122 66.512ZM270.563 69.92H271.667C272.667 69.92 273.599 69.8 274.463 69.56C275.335 69.312 276.207 68.956 277.079 68.492C277.567 68.228 278.047 68.028 278.519 67.892L278.555 68.324C278.099 68.324 277.663 68.272 277.247 68.168C276.839 68.064 276.415 67.9 275.975 67.676C275.591 67.476 275.247 67.324 274.943 67.22C274.639 67.116 274.339 67.064 274.043 67.064C273.707 67.064 273.403 67.164 273.131 67.364C272.859 67.564 272.655 67.8 272.519 68.072L271.871 67.628C272.127 67.108 272.443 66.716 272.819 66.452C273.195 66.18 273.615 66.044 274.079 66.044C274.415 66.044 274.727 66.1 275.015 66.212C275.311 66.324 275.747 66.524 276.323 66.812C276.859 67.084 277.279 67.288 277.583 67.424C277.895 67.552 278.247 67.656 278.639 67.736L278.675 68.684C278.515 68.732 278.347 68.796 278.171 68.876C278.003 68.956 277.759 69.084 277.439 69.26C276.359 69.828 275.379 70.26 274.499 70.556C273.627 70.852 272.683 71 271.667 71H270.563V69.92ZM273.119 64.172L273.407 63.884C273.783 63.508 273.971 63.32 273.971 63.32C273.971 63.32 274.159 63.508 274.535 63.884L274.823 64.172L273.971 65.024L273.119 64.172ZM280.009 70.928C280.065 70.448 280.093 69.636 280.093 68.492C280.093 67.404 280.069 66.28 280.021 65.12C279.981 63.952 279.933 63.196 279.877 62.852L280.837 62.648C280.885 63.016 280.933 63.82 280.981 65.06C281.037 66.292 281.065 67.464 281.065 68.576C281.065 69.696 281.037 70.52 280.981 71.048L280.009 70.928ZM282.736 69.392C282.768 69.408 282.884 69.476 283.084 69.596C283.292 69.708 283.552 69.804 283.864 69.884C284.184 69.964 284.52 70.004 284.872 70.004C285.304 70.004 285.656 69.944 285.928 69.824C286.208 69.696 286.388 69.556 286.468 69.404C286.508 69.308 286.528 69.208 286.528 69.104C286.528 68.728 286.32 68.264 285.904 67.712C285.496 67.152 284.872 66.564 284.032 65.948L284.572 65.012C285.46 65.684 286.152 66.38 286.648 67.1C287.152 67.812 287.404 68.48 287.404 69.104C287.404 69.392 287.352 69.652 287.248 69.884C287.088 70.252 286.8 70.536 286.384 70.736C285.968 70.936 285.492 71.036 284.956 71.036C284.324 71.036 283.784 70.952 283.336 70.784C282.888 70.608 282.532 70.408 282.268 70.184L282.736 69.392ZM291.505 71C291.009 71 290.625 70.828 290.353 70.484C290.081 70.14 289.853 69.644 289.669 68.996L290.341 68.588C290.461 69.076 290.605 69.42 290.773 69.62C290.949 69.82 291.193 69.92 291.505 69.92H291.589L291.649 70.46L291.589 71H291.505ZM287.053 73.508C287.565 73.332 288.029 73.1 288.445 72.812C288.861 72.524 289.185 72.216 289.417 71.888C289.657 71.56 289.777 71.252 289.777 70.964C289.777 70.556 289.573 69.556 289.165 67.964L290.089 67.616C290.265 68.184 290.409 68.784 290.521 69.416C290.641 70.048 290.701 70.564 290.701 70.964C290.701 71.436 290.561 71.896 290.281 72.344C290.001 72.8 289.613 73.208 289.117 73.568C288.629 73.936 288.077 74.228 287.461 74.444L287.053 73.508ZM291.733 69.92H292.213C293.069 69.92 293.673 69.84 294.025 69.68C294.377 69.512 294.553 69.24 294.553 68.864C294.545 68.616 294.461 68.24 294.301 67.736C294.149 67.224 294.017 66.856 293.905 66.632L294.769 66.176C294.929 66.488 295.085 66.912 295.237 67.448C295.397 67.976 295.477 68.436 295.477 68.828C295.477 69.54 295.217 70.08 294.697 70.448C294.177 70.816 293.393 71 292.345 71H291.733V69.92ZM294.625 71.816L295.441 72.632L294.625 73.436C294.361 73.164 294.093 72.896 293.821 72.632L294.625 71.816ZM292.417 71.816L293.233 72.632L292.417 73.436C292.153 73.164 291.885 72.896 291.613 72.632L292.417 71.816ZM293.521 73.184L294.241 73.916L293.521 74.636L292.801 73.916L293.521 73.184ZM291.505 71L291.445 70.46L291.505 69.92H291.817V71H291.505ZM300.526 73.484C301.806 73.204 302.754 72.824 303.37 72.344C303.986 71.872 304.294 71.276 304.294 70.556C304.286 70.084 304.222 69.616 304.102 69.152C303.982 68.688 303.806 68.3 303.574 67.988C303.342 67.668 303.066 67.496 302.746 67.472C302.57 67.464 302.398 67.536 302.23 67.688C302.062 67.84 301.926 68.036 301.822 68.276C301.718 68.516 301.666 68.744 301.666 68.96C301.666 69.136 301.702 69.284 301.774 69.404C301.902 69.596 302.118 69.74 302.422 69.836C302.734 69.932 303.09 69.98 303.49 69.98C303.874 69.98 304.226 69.944 304.546 69.872V70.892C304.202 70.988 303.802 71.036 303.346 71.036C302.818 71.036 302.342 70.956 301.918 70.796C301.494 70.628 301.19 70.364 301.006 70.004C300.878 69.748 300.814 69.448 300.814 69.104C300.814 68.688 300.902 68.272 301.078 67.856C301.262 67.44 301.502 67.096 301.798 66.824C302.102 66.552 302.426 66.416 302.77 66.416C303.242 66.416 303.658 66.624 304.018 67.04C304.378 67.456 304.654 67.98 304.846 68.612C305.038 69.236 305.134 69.852 305.134 70.46C305.134 71.452 304.754 72.296 303.994 72.992C303.242 73.688 302.19 74.172 300.838 74.444L300.526 73.484ZM313.627 64.988L315.271 68.876C315.431 69.268 315.611 69.54 315.811 69.692C316.019 69.844 316.299 69.92 316.651 69.92H316.783L316.843 70.46L316.783 71H316.651C316.147 71 315.715 70.872 315.355 70.616C314.995 70.352 314.691 69.936 314.443 69.368L312.763 65.444L313.627 64.988ZM310.639 69.392C310.951 69.576 311.251 69.728 311.539 69.848C311.827 69.96 312.171 70.016 312.571 70.016C313.067 70.016 313.483 69.94 313.819 69.788C314.155 69.628 314.483 69.432 314.803 69.2L315.283 69.884C315.059 70.092 314.847 70.272 314.647 70.424C314.447 70.576 314.175 70.72 313.831 70.856C313.487 70.984 313.095 71.048 312.655 71.048C312.111 71.048 311.643 70.964 311.251 70.796C310.859 70.628 310.499 70.424 310.171 70.184L310.639 69.392ZM316.665 69.92H316.773C317.389 69.92 317.869 69.896 318.213 69.848C318.557 69.792 318.809 69.708 318.969 69.596C319.129 69.484 319.245 69.332 319.317 69.14C319.365 68.996 319.389 68.824 319.389 68.624C319.389 68.368 319.341 67.928 319.245 67.304L320.133 67.136C320.229 67.64 320.281 68.28 320.289 69.056C320.401 69.632 320.765 69.92 321.381 69.92H321.465L321.525 70.46L321.465 71H321.381C320.981 71 320.629 70.884 320.325 70.652C320.029 70.412 319.821 70.108 319.701 69.74L319.941 69.788C319.837 70.092 319.665 70.332 319.425 70.508C319.185 70.684 318.853 70.812 318.429 70.892C318.013 70.964 317.461 71 316.773 71H316.665V69.92ZM316.341 72.668L316.881 72.128L317.685 72.932L316.881 73.748L316.077 72.932L316.341 72.668ZM318.477 72.668L319.017 72.128L319.821 72.932L319.017 73.748L318.213 72.932L318.477 72.668ZM321.34 69.92H321.964C322.604 69.92 323.064 69.836 323.344 69.668C323.632 69.5 323.776 69.24 323.776 68.888C323.776 68.64 323.696 68.26 323.536 67.748C323.376 67.236 323.244 66.864 323.14 66.632L324.004 66.176C324.156 66.512 324.312 66.956 324.472 67.508C324.632 68.052 324.712 68.516 324.712 68.9C324.704 69.588 324.464 70.112 323.992 70.472C323.52 70.824 322.844 71 321.964 71H321.34V69.92ZM323.008 65.24C322.672 65.208 322.384 65.088 322.144 64.88C321.912 64.664 321.796 64.404 321.796 64.1C321.796 63.852 321.872 63.624 322.024 63.416C322.184 63.2 322.384 63.064 322.624 63.008C322.72 62.984 322.82 62.972 322.924 62.972C323.14 62.972 323.412 63.024 323.74 63.128L323.584 63.716C323.296 63.62 323.076 63.572 322.924 63.572C322.716 63.572 322.548 63.64 322.42 63.776C322.3 63.904 322.26 64.048 322.3 64.208C322.324 64.336 322.408 64.448 322.552 64.544C322.704 64.64 322.888 64.684 323.104 64.676L323.008 65.24ZM321.436 65.168L323.98 64.352V64.952L321.436 65.768V65.168ZM327.009 62.648C327.073 63.056 327.121 63.772 327.153 64.796C327.193 65.812 327.213 66.736 327.213 67.568V68.072L327.201 68.492C327.201 68.868 327.233 69.156 327.297 69.356C327.361 69.548 327.481 69.692 327.657 69.788C327.841 69.876 328.113 69.92 328.473 69.92H328.533L328.593 70.46L328.533 71H328.473C327.905 71 327.461 70.908 327.141 70.724C326.821 70.532 326.593 70.248 326.457 69.872C326.329 69.496 326.265 69 326.265 68.384C326.265 67.472 326.245 66.44 326.205 65.288C326.173 64.128 326.121 63.316 326.049 62.852L327.009 62.648ZM328.419 69.92H328.899C329.755 69.92 330.359 69.84 330.711 69.68C331.063 69.512 331.239 69.24 331.239 68.864C331.231 68.616 331.147 68.24 330.987 67.736C330.835 67.224 330.703 66.856 330.591 66.632L331.455 66.176C331.615 66.488 331.771 66.912 331.923 67.448C332.083 67.976 332.163 68.436 332.163 68.828C332.163 69.54 331.903 70.08 331.383 70.448C330.863 70.816 330.079 71 329.031 71H328.419V69.92ZM329.019 64.352L329.559 63.812L330.363 64.616L329.559 65.432L328.755 64.616L329.019 64.352ZM331.155 64.352L331.695 63.812L332.499 64.616L331.695 65.432L330.891 64.616L331.155 64.352Z" fill="#BCBCBC"/>
<path d="M508 41.5L358 41.5" stroke="#BCBCBC" stroke-linecap="round"/>
<rect x="525" width="50" height="50" rx="25" fill="#FCE9F2"/>
<path d="M550.009 35.74C549.379 35.74 548.759 35.53 548.269 35.11L546.689 33.76C546.529 33.62 546.129 33.48 545.919 33.48H544.169C542.689 33.48 541.489 32.28 541.489 30.8V29.09C541.489 28.88 541.349 28.48 541.219 28.33L539.859 26.73C539.039 25.76 539.039 24.24 539.859 23.26L541.219 21.66C541.349 21.51 541.489 21.11 541.489 20.9V19.2C541.489 17.72 542.689 16.52 544.169 16.52H545.899C546.109 16.52 546.499 16.37 546.669 16.23L548.249 14.88C549.229 14.05 550.759 14.05 551.739 14.88L553.319 16.23C553.479 16.37 553.889 16.51 554.099 16.51H555.799C557.279 16.51 558.479 17.71 558.479 19.19V20.89C558.479 21.1 558.629 21.49 558.769 21.66L560.119 23.24C560.959 24.23 560.949 25.76 560.119 26.73L558.769 28.31C558.629 28.48 558.489 28.87 558.489 29.08V30.78C558.489 32.26 557.289 33.46 555.809 33.46H554.109C553.899 33.46 553.509 33.61 553.329 33.75L551.749 35.1C551.259 35.53 550.629 35.74 550.009 35.74ZM544.169 18.02C543.519 18.02 542.989 18.55 542.989 19.2V20.9C542.989 21.47 542.729 22.19 542.359 22.63L540.999 24.23C540.659 24.64 540.659 25.36 540.999 25.76L542.349 27.35C542.709 27.76 542.979 28.51 542.979 29.08V30.79C542.979 31.44 543.509 31.97 544.159 31.97H545.899C546.459 31.97 547.199 32.24 547.639 32.61L549.229 33.97C549.639 34.32 550.359 34.32 550.769 33.97L552.349 32.62C552.799 32.24 553.529 31.98 554.089 31.98H555.789C556.439 31.98 556.969 31.45 556.969 30.8V29.1C556.969 28.54 557.239 27.81 557.609 27.36L558.969 25.77C559.319 25.36 559.319 24.64 558.969 24.23L557.619 22.65C557.239 22.2 556.979 21.47 556.979 20.91V19.2C556.979 18.55 556.449 18.02 555.799 18.02H554.099C553.529 18.02 552.789 17.75 552.349 17.38L550.759 16.02C550.349 15.67 549.639 15.67 549.219 16.02L547.649 17.38C547.199 17.75 546.469 18.02 545.899 18.02H544.169Z" fill="#841249"/>
<path d="M550 29.87C549.45 29.87 549 29.42 549 28.87C549 28.32 549.44 27.87 550 27.87C550.55 27.87 551 28.32 551 28.87C551 29.42 550.56 29.87 550 29.87Z" fill="#841249"/>
<path d="M550 26.72C549.59 26.72 549.25 26.38 549.25 25.97V21.13C549.25 20.72 549.59 20.38 550 20.38C550.41 20.38 550.75 20.72 550.75 21.13V25.96C550.75 26.38 550.42 26.72 550 26.72Z" fill="#841249"/>
<path d="M535.924 71.12C535.916 71 535.912 70.82 535.912 70.58C535.912 70.34 535.916 70.16 535.924 70.04C536.66 70.04 537.296 69.988 537.832 69.884C538.368 69.772 538.776 69.64 539.056 69.488C539.344 69.328 539.504 69.18 539.536 69.044C539.504 68.724 539.408 68.316 539.248 67.82C539.096 67.316 538.964 66.924 538.852 66.644L539.716 66.176C539.876 66.56 540.032 67.036 540.184 67.604C540.344 68.172 540.424 68.628 540.424 68.972C540.424 69.412 540.232 69.796 539.848 70.124C539.464 70.444 538.928 70.692 538.24 70.868C537.56 71.036 536.788 71.12 535.924 71.12ZM532.744 66.956C532.52 67.58 532.408 68.072 532.408 68.432C532.408 68.544 532.412 68.628 532.42 68.684C532.484 69.116 532.816 69.452 533.416 69.692C534.016 69.924 534.884 70.04 536.02 70.04C536.036 70.176 536.044 70.376 536.044 70.64C536.044 70.856 536.04 71.016 536.032 71.12C534.64 71.128 533.552 70.936 532.768 70.544C531.992 70.144 531.568 69.576 531.496 68.84C531.488 68.776 531.484 68.684 531.484 68.564C531.484 68.228 531.524 67.88 531.604 67.52C531.692 67.152 531.8 66.828 531.928 66.548L532.744 66.956ZM534.316 66.536L534.856 65.996L535.66 66.8L534.856 67.616L534.052 66.8L534.316 66.536ZM536.452 66.536L536.992 65.996L537.796 66.8L536.992 67.616L536.188 66.8L536.452 66.536ZM542.706 62.648C542.77 63.056 542.818 63.772 542.85 64.796C542.89 65.812 542.91 66.736 542.91 67.568V68.072L542.898 68.492C542.898 68.868 542.93 69.156 542.994 69.356C543.058 69.548 543.178 69.692 543.354 69.788C543.538 69.876 543.81 69.92 544.17 69.92H544.23L544.29 70.46L544.23 71H544.17C543.602 71 543.158 70.908 542.838 70.724C542.518 70.532 542.29 70.248 542.154 69.872C542.026 69.496 541.962 69 541.962 68.384C541.962 67.472 541.942 66.44 541.902 65.288C541.87 64.128 541.818 63.316 541.746 62.852L542.706 62.648ZM544.116 69.92H544.26C545.644 69.92 546.76 69.872 547.608 69.776C548.464 69.672 549.208 69.5 549.84 69.26L550.068 70.22C549.412 70.492 548.64 70.692 547.752 70.82C546.864 70.94 545.7 71 544.26 71H544.116V69.92ZM548.16 70.688C547.656 70.72 547.172 70.636 546.708 70.436C546.244 70.236 545.868 69.948 545.58 69.572C545.3 69.196 545.16 68.768 545.16 68.288C545.16 67.896 545.256 67.528 545.448 67.184C545.648 66.832 545.916 66.544 546.252 66.32C546.588 66.096 546.96 65.96 547.368 65.912C547.424 65.904 547.504 65.9 547.608 65.9C547.96 65.9 548.304 65.976 548.64 66.128C548.984 66.272 549.292 66.468 549.564 66.716L549.18 67.46C548.66 67.14 548.16 66.98 547.68 66.98C547.36 66.98 547.076 67.04 546.828 67.16C546.588 67.28 546.4 67.444 546.264 67.652C546.128 67.852 546.06 68.068 546.06 68.3C546.06 68.556 546.148 68.8 546.324 69.032C546.508 69.256 546.756 69.432 547.068 69.56C547.38 69.68 547.724 69.732 548.1 69.716L548.16 70.688ZM557.73 71C557.026 71 556.518 70.732 556.206 70.196C555.894 69.652 555.738 68.932 555.738 68.036C555.738 67.74 555.782 67.508 555.87 67.34C555.958 67.164 556.054 67.076 556.158 67.076C556.23 67.076 556.29 67.12 556.338 67.208C556.386 67.296 556.41 67.42 556.41 67.58C556.402 68.38 556.494 68.972 556.686 69.356C556.878 69.732 557.23 69.92 557.742 69.92H557.862V71H557.73ZM556.05 62.648C556.178 63.656 556.27 64.492 556.326 65.156C556.39 65.812 556.422 66.476 556.422 67.148C556.422 67.444 556.418 67.664 556.41 67.808C556.37 68.936 555.918 69.78 555.054 70.34C554.19 70.892 553.058 71.232 551.658 71.36L551.394 70.304C554.098 70.016 555.45 69.184 555.45 67.808C555.45 67.016 555.422 66.26 555.366 65.54C555.31 64.812 555.218 63.916 555.09 62.852L556.05 62.648ZM551.85 63.692C552.354 64.78 552.75 65.816 553.038 66.8C553.326 67.784 553.47 68.62 553.47 69.308C553.47 69.564 553.446 69.796 553.398 70.004L552.438 70.28C552.51 70.072 552.546 69.82 552.546 69.524C552.546 68.9 552.402 68.12 552.114 67.184C551.834 66.24 551.474 65.256 551.034 64.232L551.85 63.692ZM560.877 69.92C561.629 69.92 562.301 69.836 562.893 69.668C563.485 69.492 563.941 69.26 564.261 68.972C564.589 68.684 564.753 68.372 564.753 68.036C564.753 67.748 564.641 67.512 564.417 67.328C564.201 67.136 563.901 67.04 563.517 67.04C562.853 67.04 562.169 67.356 561.465 67.988C560.769 68.612 560.117 69.472 559.509 70.568L558.765 70.112C559.437 68.816 560.181 67.808 560.997 67.088C561.821 66.368 562.629 66.004 563.421 65.996C563.837 65.996 564.213 66.084 564.549 66.26C564.893 66.436 565.161 66.68 565.353 66.992C565.545 67.296 565.641 67.644 565.641 68.036C565.641 68.62 565.441 69.14 565.041 69.596C564.641 70.044 564.089 70.392 563.385 70.64C562.681 70.88 561.893 71 561.021 71H557.745V69.92H560.877ZM559.713 68.744C559.737 68.432 559.749 68.056 559.749 67.616C559.749 66.8 559.713 65.896 559.641 64.904C559.569 63.904 559.501 63.224 559.437 62.864L560.397 62.648C560.461 63 560.521 63.572 560.577 64.364C560.641 65.148 560.673 65.92 560.673 66.68C560.673 67.424 560.641 68.048 560.577 68.552L559.713 68.744ZM567.097 70.928C567.153 70.448 567.181 69.636 567.181 68.492C567.181 67.404 567.157 66.28 567.109 65.12C567.069 63.952 567.021 63.196 566.965 62.852L567.925 62.648C567.973 63.016 568.021 63.82 568.069 65.06C568.125 66.292 568.153 67.464 568.153 68.576C568.153 69.696 568.125 70.52 568.069 71.048L567.097 70.928Z" fill="#841249"/>
<path d="M762 41.5L612 41.5" stroke="#BCBCBC" stroke-linecap="round"/>
<rect x="779" width="50" height="50" rx="25" fill="#FCE9F2"/>
<path d="M808 35.75H800C796.98 35.75 795.25 34.02 795.25 31V21.25C795.25 18.1 796.85 16.5 800 16.5C800.41 16.5 800.75 16.84 800.75 17.25C800.75 17.65 800.91 18.03 801.19 18.31C801.47 18.59 801.85 18.75 802.25 18.75H805.75C806.58 18.75 807.25 18.08 807.25 17.25C807.25 16.84 807.59 16.5 808 16.5C811.15 16.5 812.75 18.1 812.75 21.25V31C812.75 34.02 811.02 35.75 808 35.75ZM799.35 18.02C797.77 18.15 796.75 18.86 796.75 21.25V31C796.75 33.22 797.78 34.25 800 34.25H808C810.22 34.25 811.25 33.22 811.25 31V21.25C811.25 18.86 810.23 18.16 808.65 18.02C808.31 19.3 807.14 20.25 805.75 20.25H802.25C801.45 20.25 800.7 19.94 800.13 19.37C799.75 18.99 799.49 18.53 799.35 18.02Z" fill="#EA78AF"/>
<path d="M805.75 20.25H802.25C801.45 20.25 800.7 19.94 800.13 19.37C799.56 18.8 799.25 18.05 799.25 17.25C799.25 15.6 800.6 14.25 802.25 14.25H805.75C806.55 14.25 807.3 14.56 807.87 15.13C808.44 15.7 808.75 16.45 808.75 17.25C808.75 18.9 807.4 20.25 805.75 20.25ZM802.25 15.75C801.42 15.75 800.75 16.42 800.75 17.25C800.75 17.65 800.91 18.03 801.19 18.31C801.47 18.59 801.85 18.75 802.25 18.75H805.75C806.58 18.75 807.25 18.08 807.25 17.25C807.25 16.85 807.09 16.47 806.81 16.19C806.53 15.91 806.15 15.75 805.75 15.75H802.25Z" fill="#EA78AF"/>
<path d="M804 26.75H800C799.59 26.75 799.25 26.41 799.25 26C799.25 25.59 799.59 25.25 800 25.25H804C804.41 25.25 804.75 25.59 804.75 26C804.75 26.41 804.41 26.75 804 26.75Z" fill="#EA78AF"/>
<path d="M808 30.75H800C799.59 30.75 799.25 30.41 799.25 30C799.25 29.59 799.59 29.25 800 29.25H808C808.41 29.25 808.75 29.59 808.75 30C808.75 30.41 808.41 30.75 808 30.75Z" fill="#EA78AF"/>
<path d="M781.907 68.072C781.459 69.016 781.235 69.84 781.235 70.544C781.235 71.304 781.459 71.884 781.907 72.284C782.355 72.684 782.999 72.884 783.839 72.884C784.487 72.884 785.027 72.764 785.459 72.524C785.899 72.292 786.223 71.992 786.431 71.624C786.639 71.264 786.743 70.884 786.743 70.484C786.743 69.82 786.523 68.82 786.083 67.484L786.971 67.076C787.203 67.812 787.375 68.448 787.487 68.984C787.599 69.512 787.655 70.012 787.655 70.484C787.655 71.06 787.503 71.616 787.199 72.152C786.903 72.688 786.467 73.124 785.891 73.46C785.315 73.796 784.631 73.964 783.839 73.964C783.079 73.964 782.431 73.812 781.895 73.508C781.367 73.204 780.967 72.8 780.695 72.296C780.431 71.792 780.299 71.24 780.299 70.64C780.299 70.16 780.379 69.656 780.539 69.128C780.699 68.6 780.883 68.12 781.091 67.688L781.907 68.072ZM783.239 67.256L783.527 66.968C783.903 66.592 784.091 66.404 784.091 66.404C784.091 66.404 784.279 66.592 784.655 66.968L784.943 67.256L784.091 68.108L783.239 67.256ZM789.786 62.648C789.85 63.056 789.898 63.772 789.93 64.796C789.97 65.812 789.99 66.736 789.99 67.568V68.072L789.978 68.492C789.978 68.868 790.01 69.156 790.074 69.356C790.138 69.548 790.258 69.692 790.434 69.788C790.618 69.876 790.89 69.92 791.25 69.92H791.31L791.37 70.46L791.31 71H791.25C790.682 71 790.238 70.908 789.918 70.724C789.598 70.532 789.37 70.248 789.234 69.872C789.106 69.496 789.042 69 789.042 68.384C789.042 67.472 789.022 66.44 788.982 65.288C788.95 64.128 788.898 63.316 788.826 62.852L789.786 62.648ZM793.5 68.972C794.004 69.316 794.456 69.58 794.856 69.764C795.256 69.948 795.564 70.04 795.78 70.04C795.852 70.04 795.92 70.024 795.984 69.992C796.128 69.92 796.236 69.8 796.308 69.632C796.38 69.464 796.416 69.272 796.416 69.056C796.416 68.664 796.316 68.308 796.116 67.988C795.924 67.668 795.668 67.508 795.348 67.508C795.1 67.508 794.836 67.684 794.556 68.036C794.276 68.38 793.968 68.888 793.632 69.56C793.392 70.032 793.08 70.392 792.696 70.64C792.32 70.88 791.892 71 791.412 71H791.196L791.208 69.92H791.436C791.764 69.92 792.064 69.828 792.336 69.644C792.616 69.452 792.848 69.172 793.032 68.804C793.368 68.124 793.716 67.58 794.076 67.172C794.436 66.764 794.832 66.548 795.264 66.524C795.664 66.5 796.016 66.608 796.32 66.848C796.632 67.08 796.868 67.392 797.028 67.784C797.196 68.168 797.28 68.572 797.28 68.996C797.28 69.42 797.196 69.808 797.028 70.16C796.86 70.504 796.612 70.764 796.284 70.94C796.148 71.02 795.976 71.06 795.768 71.06C795.16 71.06 794.26 70.664 793.068 69.872L793.5 68.972ZM796.904 73.508C797.416 73.332 797.88 73.1 798.296 72.812C798.712 72.524 799.036 72.216 799.268 71.888C799.508 71.56 799.628 71.252 799.628 70.964C799.628 70.556 799.424 69.556 799.016 67.964L799.94 67.616C800.116 68.184 800.26 68.784 800.372 69.416C800.492 70.048 800.552 70.564 800.552 70.964C800.552 71.436 800.412 71.896 800.132 72.344C799.852 72.8 799.464 73.208 798.968 73.568C798.48 73.936 797.928 74.228 797.312 74.444L796.904 73.508ZM798.428 65.564L798.716 65.276C799.092 64.9 799.28 64.712 799.28 64.712C799.28 64.712 799.468 64.9 799.844 65.276L800.132 65.564L799.28 66.416L798.428 65.564ZM805.585 73.484C806.865 73.204 807.813 72.824 808.429 72.344C809.045 71.872 809.353 71.276 809.353 70.556C809.345 70.084 809.281 69.616 809.161 69.152C809.041 68.688 808.865 68.3 808.633 67.988C808.401 67.668 808.125 67.496 807.805 67.472C807.629 67.464 807.457 67.536 807.289 67.688C807.121 67.84 806.985 68.036 806.881 68.276C806.777 68.516 806.725 68.744 806.725 68.96C806.725 69.136 806.761 69.284 806.833 69.404C806.961 69.596 807.177 69.74 807.481 69.836C807.793 69.932 808.149 69.98 808.549 69.98C808.933 69.98 809.285 69.944 809.605 69.872V70.892C809.261 70.988 808.861 71.036 808.405 71.036C807.877 71.036 807.401 70.956 806.977 70.796C806.553 70.628 806.249 70.364 806.065 70.004C805.937 69.748 805.873 69.448 805.873 69.104C805.873 68.688 805.961 68.272 806.137 67.856C806.321 67.44 806.561 67.096 806.857 66.824C807.161 66.552 807.485 66.416 807.829 66.416C808.301 66.416 808.717 66.624 809.077 67.04C809.437 67.456 809.713 67.98 809.905 68.612C810.097 69.236 810.193 69.852 810.193 70.46C810.193 71.452 809.813 72.296 809.053 72.992C808.301 73.688 807.249 74.172 805.897 74.444L805.585 73.484ZM814.869 73.508C815.381 73.332 815.845 73.1 816.261 72.812C816.677 72.524 817.001 72.216 817.233 71.888C817.473 71.56 817.593 71.252 817.593 70.964C817.593 70.556 817.389 69.556 816.981 67.964L817.905 67.616C818.081 68.184 818.225 68.784 818.337 69.416C818.457 70.048 818.517 70.564 818.517 70.964C818.517 71.436 818.377 71.896 818.097 72.344C817.817 72.8 817.429 73.208 816.933 73.568C816.445 73.936 815.893 74.228 815.277 74.444L814.869 73.508ZM816.393 65.564L816.681 65.276C817.057 64.9 817.245 64.712 817.245 64.712C817.245 64.712 817.433 64.9 817.809 65.276L818.097 65.564L817.245 66.416L816.393 65.564ZM819.354 73.484C820.634 73.204 821.582 72.824 822.198 72.344C822.814 71.872 823.122 71.276 823.122 70.556C823.114 70.084 823.05 69.616 822.93 69.152C822.81 68.688 822.634 68.3 822.402 67.988C822.17 67.668 821.894 67.496 821.574 67.472C821.398 67.464 821.226 67.536 821.058 67.688C820.89 67.84 820.754 68.036 820.65 68.276C820.546 68.516 820.494 68.744 820.494 68.96C820.494 69.136 820.53 69.284 820.602 69.404C820.73 69.596 820.946 69.74 821.25 69.836C821.562 69.932 821.918 69.98 822.318 69.98C822.702 69.98 823.054 69.944 823.374 69.872V70.892C823.03 70.988 822.63 71.036 822.174 71.036C821.646 71.036 821.17 70.956 820.746 70.796C820.322 70.628 820.018 70.364 819.834 70.004C819.706 69.748 819.642 69.448 819.642 69.104C819.642 68.688 819.73 68.272 819.906 67.856C820.09 67.44 820.33 67.096 820.626 66.824C820.93 66.552 821.254 66.416 821.598 66.416C822.07 66.416 822.486 66.624 822.846 67.04C823.206 67.456 823.482 67.98 823.674 68.612C823.866 69.236 823.962 69.852 823.962 70.46C823.962 71.452 823.582 72.296 822.822 72.992C822.07 73.688 821.018 74.172 819.666 74.444L819.354 73.484ZM824.08 73.508C824.592 73.332 825.056 73.1 825.472 72.812C825.888 72.524 826.212 72.216 826.444 71.888C826.684 71.56 826.804 71.252 826.804 70.964C826.804 70.556 826.6 69.556 826.192 67.964L827.116 67.616C827.292 68.184 827.436 68.784 827.548 69.416C827.668 70.048 827.728 70.564 827.728 70.964C827.728 71.436 827.588 71.896 827.308 72.344C827.028 72.8 826.64 73.208 826.144 73.568C825.656 73.936 825.104 74.228 824.488 74.444L824.08 73.508Z" fill="#EA78AF"/>
<path d="M1016 41.5L866 41.5" stroke="#BCBCBC" stroke-linecap="round"/>
<rect x="1033" width="50" height="50" rx="25" fill="#FCE9F2"/>
<path d="M1062 35.75H1054C1050.98 35.75 1049.25 34.02 1049.25 31V21.25C1049.25 18.1 1050.85 16.5 1054 16.5C1054.41 16.5 1054.75 16.84 1054.75 17.25C1054.75 17.65 1054.91 18.03 1055.19 18.31C1055.47 18.59 1055.85 18.75 1056.25 18.75H1059.75C1060.58 18.75 1061.25 18.08 1061.25 17.25C1061.25 16.84 1061.59 16.5 1062 16.5C1065.15 16.5 1066.75 18.1 1066.75 21.25V31C1066.75 34.02 1065.02 35.75 1062 35.75ZM1053.35 18.02C1051.77 18.15 1050.75 18.86 1050.75 21.25V31C1050.75 33.22 1051.78 34.25 1054 34.25H1062C1064.22 34.25 1065.25 33.22 1065.25 31V21.25C1065.25 18.86 1064.23 18.16 1062.65 18.02C1062.31 19.3 1061.14 20.25 1059.75 20.25H1056.25C1055.45 20.25 1054.7 19.94 1054.13 19.37C1053.75 18.99 1053.49 18.53 1053.35 18.02Z" fill="#EA78AF"/>
<path d="M1059.75 20.25H1056.25C1055.45 20.25 1054.7 19.94 1054.13 19.37C1053.56 18.8 1053.25 18.05 1053.25 17.25C1053.25 15.6 1054.6 14.25 1056.25 14.25H1059.75C1060.55 14.25 1061.3 14.56 1061.87 15.13C1062.44 15.7 1062.75 16.45 1062.75 17.25C1062.75 18.9 1061.4 20.25 1059.75 20.25ZM1056.25 15.75C1055.42 15.75 1054.75 16.42 1054.75 17.25C1054.75 17.65 1054.91 18.03 1055.19 18.31C1055.47 18.59 1055.85 18.75 1056.25 18.75H1059.75C1060.58 18.75 1061.25 18.08 1061.25 17.25C1061.25 16.85 1061.09 16.47 1060.81 16.19C1060.53 15.91 1060.15 15.75 1059.75 15.75H1056.25Z" fill="#EA78AF"/>
<path d="M1058 26.75H1054C1053.59 26.75 1053.25 26.41 1053.25 26C1053.25 25.59 1053.59 25.25 1054 25.25H1058C1058.41 25.25 1058.75 25.59 1058.75 26C1058.75 26.41 1058.41 26.75 1058 26.75Z" fill="#EA78AF"/>
<path d="M1062 30.75H1054C1053.59 30.75 1053.25 30.41 1053.25 30C1053.25 29.59 1053.59 29.25 1054 29.25H1062C1062.41 29.25 1062.75 29.59 1062.75 30C1062.75 30.41 1062.41 30.75 1062 30.75Z" fill="#EA78AF"/>
<path d="M1045.43 71.12C1045.42 71 1045.42 70.82 1045.42 70.58C1045.42 70.34 1045.42 70.16 1045.43 70.04C1046.17 70.04 1046.8 69.988 1047.34 69.884C1047.87 69.772 1048.28 69.64 1048.56 69.488C1048.85 69.328 1049.01 69.18 1049.04 69.044C1049.01 68.724 1048.91 68.316 1048.75 67.82C1048.6 67.316 1048.47 66.924 1048.36 66.644L1049.22 66.176C1049.38 66.56 1049.54 67.036 1049.69 67.604C1049.85 68.172 1049.93 68.628 1049.93 68.972C1049.93 69.412 1049.74 69.796 1049.35 70.124C1048.97 70.444 1048.43 70.692 1047.75 70.868C1047.07 71.036 1046.29 71.12 1045.43 71.12ZM1042.25 66.956C1042.03 67.58 1041.91 68.072 1041.91 68.432C1041.91 68.544 1041.92 68.628 1041.93 68.684C1041.99 69.116 1042.32 69.452 1042.92 69.692C1043.52 69.924 1044.39 70.04 1045.53 70.04C1045.54 70.176 1045.55 70.376 1045.55 70.64C1045.55 70.856 1045.55 71.016 1045.54 71.12C1044.15 71.128 1043.06 70.936 1042.27 70.544C1041.5 70.144 1041.07 69.576 1041 68.84C1040.99 68.776 1040.99 68.684 1040.99 68.564C1040.99 68.228 1041.03 67.88 1041.11 67.52C1041.2 67.152 1041.31 66.828 1041.43 66.548L1042.25 66.956ZM1043.82 66.536L1044.36 65.996L1045.17 66.8L1044.36 67.616L1043.56 66.8L1043.82 66.536ZM1045.96 66.536L1046.5 65.996L1047.3 66.8L1046.5 67.616L1045.69 66.8L1045.96 66.536ZM1052.21 62.648C1052.28 63.056 1052.32 63.772 1052.36 64.796C1052.4 65.812 1052.42 66.736 1052.42 67.568V68.072L1052.4 68.492C1052.4 68.868 1052.44 69.156 1052.5 69.356C1052.56 69.548 1052.68 69.692 1052.86 69.788C1053.04 69.876 1053.32 69.92 1053.68 69.92H1053.74L1053.8 70.46L1053.74 71H1053.68C1053.11 71 1052.66 70.908 1052.34 70.724C1052.02 70.532 1051.8 70.248 1051.66 69.872C1051.53 69.496 1051.47 69 1051.47 68.384C1051.47 67.472 1051.45 66.44 1051.41 65.288C1051.38 64.128 1051.32 63.316 1051.25 62.852L1052.21 62.648ZM1055.93 68.972C1056.43 69.316 1056.88 69.58 1057.28 69.764C1057.68 69.948 1057.99 70.04 1058.21 70.04C1058.28 70.04 1058.35 70.024 1058.41 69.992C1058.55 69.92 1058.66 69.8 1058.73 69.632C1058.81 69.464 1058.84 69.272 1058.84 69.056C1058.84 68.664 1058.74 68.308 1058.54 67.988C1058.35 67.668 1058.09 67.508 1057.77 67.508C1057.53 67.508 1057.26 67.684 1056.98 68.036C1056.7 68.38 1056.39 68.888 1056.06 69.56C1055.82 70.032 1055.51 70.392 1055.12 70.64C1054.75 70.88 1054.32 71 1053.84 71H1053.62L1053.63 69.92H1053.86C1054.19 69.92 1054.49 69.828 1054.76 69.644C1055.04 69.452 1055.27 69.172 1055.46 68.804C1055.79 68.124 1056.14 67.58 1056.5 67.172C1056.86 66.764 1057.26 66.548 1057.69 66.524C1058.09 66.5 1058.44 66.608 1058.75 66.848C1059.06 67.08 1059.29 67.392 1059.45 67.784C1059.62 68.168 1059.71 68.572 1059.71 68.996C1059.71 69.42 1059.62 69.808 1059.45 70.16C1059.29 70.504 1059.04 70.764 1058.71 70.94C1058.57 71.02 1058.4 71.06 1058.19 71.06C1057.59 71.06 1056.69 70.664 1055.49 69.872L1055.93 68.972ZM1063.99 64.988L1065.63 68.876C1065.79 69.268 1065.97 69.54 1066.17 69.692C1066.38 69.844 1066.66 69.92 1067.01 69.92H1067.15L1067.21 70.46L1067.15 71H1067.01C1066.51 71 1066.08 70.872 1065.72 70.616C1065.36 70.352 1065.05 69.936 1064.81 69.368L1063.13 65.444L1063.99 64.988ZM1061 69.392C1061.31 69.576 1061.61 69.728 1061.9 69.848C1062.19 69.96 1062.53 70.016 1062.93 70.016C1063.43 70.016 1063.85 69.94 1064.18 69.788C1064.52 69.628 1064.85 69.432 1065.17 69.2L1065.65 69.884C1065.42 70.092 1065.21 70.272 1065.01 70.424C1064.81 70.576 1064.54 70.72 1064.19 70.856C1063.85 70.984 1063.46 71.048 1063.02 71.048C1062.47 71.048 1062.01 70.964 1061.61 70.796C1061.22 70.628 1060.86 70.424 1060.53 70.184L1061 69.392ZM1067.02 69.92H1068.12C1069.12 69.92 1070.05 69.8 1070.92 69.56C1071.79 69.312 1072.66 68.956 1073.53 68.492C1074.02 68.228 1074.5 68.028 1074.97 67.892L1075.01 68.324C1074.55 68.324 1074.12 68.272 1073.7 68.168C1073.29 68.064 1072.87 67.9 1072.43 67.676C1072.04 67.476 1071.7 67.324 1071.4 67.22C1071.09 67.116 1070.79 67.064 1070.5 67.064C1070.16 67.064 1069.86 67.164 1069.58 67.364C1069.31 67.564 1069.11 67.8 1068.97 68.072L1068.32 67.628C1068.58 67.108 1068.9 66.716 1069.27 66.452C1069.65 66.18 1070.07 66.044 1070.53 66.044C1070.87 66.044 1071.18 66.1 1071.47 66.212C1071.76 66.324 1072.2 66.524 1072.78 66.812C1073.31 67.084 1073.73 67.288 1074.04 67.424C1074.35 67.552 1074.7 67.656 1075.09 67.736L1075.13 68.684C1074.97 68.732 1074.8 68.796 1074.62 68.876C1074.46 68.956 1074.21 69.084 1073.89 69.26C1072.81 69.828 1071.83 70.26 1070.95 70.556C1070.08 70.852 1069.14 71 1068.12 71H1067.02V69.92ZM1069.57 64.172L1069.86 63.884C1070.24 63.508 1070.42 63.32 1070.42 63.32C1070.42 63.32 1070.61 63.508 1070.99 63.884L1071.28 64.172L1070.42 65.024L1069.57 64.172Z" fill="#EA78AF"/>
</svg>
