<svg width="24" height="24" viewBox="0 0 24 24" fill="none" xmlns="http://www.w3.org/2000/svg">
<path d="M6.37396 12.7474L6.37397 12.7474C5.63816 11.6436 5.25 10.3468 5.25 9C5.25 5.27386 8.27386 2.25 12 2.25C15.7251 2.25 18.7504 5.27297 18.74 8.99072C18.74 8.99096 18.74 8.9912 18.74 8.99144L18.24 8.98999C18.24 10.24 17.88 11.44 17.2 12.46L6.37396 12.7474ZM6.37396 12.7474L6.37617 12.7506C7.44223 14.3228 9.11255 15.3818 10.9717 15.6539L6.37396 12.7474ZM10.9106 16.1583L10.9015 16.1566L10.8923 16.1553C8.91445 15.866 7.10822 14.7263 5.96559 13.032C5.17065 11.8343 4.75 10.4411 4.75 9C4.75 5.00614 8.00614 1.75 12 1.75C15.9939 1.75 19.25 5.00614 19.25 9C19.25 10.441 18.8294 11.8341 18.0346 13.0317C16.8828 14.7349 15.0767 15.8663 13.0761 16.1655L13.076 16.1654L13.0655 16.1672C12.7482 16.2216 12.377 16.25 12 16.25C11.6241 16.25 11.2551 16.2217 10.9106 16.1583Z" fill="#393939" stroke="#393939"/>
<path d="M5.24653 21.1275L5.24654 21.1275L5.24573 21.1241L4.89638 19.6569C4.82989 19.3661 4.60735 19.1743 4.363 19.101L4.34878 19.0968L4.33434 19.0934L2.68691 18.704C2.68653 18.7039 2.68615 18.7038 2.68577 18.7037C2.23574 18.5944 1.8904 18.2643 1.77097 17.8357C1.649 17.3981 1.77153 16.9249 2.09288 16.6035L5.99288 12.7035L5.64513 12.3558L5.99288 12.7035C6.04971 12.6467 6.1243 12.6216 6.19406 12.6279C6.25834 12.6338 6.32637 12.6692 6.37621 12.7416C7.44149 14.312 9.11096 15.3817 10.9812 15.6539C11.6689 15.7713 12.3528 15.7728 13.0005 15.6534C14.8893 15.3806 16.5582 14.3112 17.6232 12.7406L17.6277 12.7338L17.6321 12.727C17.6633 12.6774 17.7286 12.6348 17.8046 12.6279C17.8744 12.6216 17.9489 12.6467 18.0058 12.7035L21.9058 16.6035C22.2271 16.9249 22.3497 17.3981 22.2277 17.8357C22.1075 18.267 21.751 18.6032 21.3175 18.7026L21.3143 18.7034L19.6668 19.0928C19.3757 19.1591 19.1838 19.3818 19.1104 19.6263L19.1063 19.6401L19.1029 19.6541L18.7529 21.1241L18.7521 21.1275C18.6451 21.5912 18.2906 21.9458 17.8269 22.0528L17.8269 22.0527L17.8198 22.0545C17.3596 22.1678 16.8851 22.0061 16.5853 21.6421L16.5854 21.642L16.5766 21.6319L12.3766 16.8019L11.9989 16.3675L11.6217 16.8023L7.42169 21.6423L7.42167 21.6423L7.41836 21.6461C7.17272 21.9351 6.83165 22.09 6.46933 22.09C6.37946 22.09 6.28866 22.0776 6.16814 22.0519C5.70623 21.9439 5.35326 21.59 5.24653 21.1275ZM6.46896 13.7046L6.11757 13.2946L5.73578 13.6764L2.44578 16.9664C2.1873 17.2249 2.20668 17.5324 2.25793 17.7056C2.30539 17.8808 2.46228 18.161 2.81676 18.2295L4.45431 18.6166L4.45431 18.6166L4.4569 18.6172C4.9206 18.7242 5.27513 19.0787 5.38213 19.5424L5.38212 19.5424L5.38293 19.5458L5.73213 21.0124C5.73229 21.0131 5.73245 21.0137 5.7326 21.0144C5.82617 21.4154 6.16033 21.534 6.25121 21.5643L6.28843 21.5767L6.32713 21.5832C6.4384 21.6017 6.76517 21.6398 7.03098 21.3445L7.03103 21.3445L7.03684 21.3378L10.8668 16.9278L11.4346 16.2741L10.5846 16.1091C8.99641 15.8008 7.53626 14.9498 6.46896 13.7046ZM13.4146 16.099L12.5623 16.2635L13.1322 16.9182L16.9582 21.3136C17.1869 21.5874 17.499 21.6244 17.7191 21.5658C17.946 21.5143 18.1743 21.3389 18.2672 21.037L18.272 21.0215L18.2757 21.0058L18.6257 19.5358L18.6265 19.5324C18.7335 19.0687 19.0881 18.7142 19.5518 18.6072L19.5543 18.6066L21.2043 18.2166L21.2043 18.2166L21.2106 18.2151C21.5229 18.137 21.6934 17.903 21.7492 17.7018C21.8094 17.5102 21.8091 17.2026 21.5629 16.9564L18.2729 13.6664L17.8927 13.2863L17.5411 13.6929C16.4626 14.9403 15.0114 15.7909 13.4146 16.099Z" fill="#393939" stroke="#393939"/>
<path d="M13.8911 12.89C13.6311 12.89 13.3211 12.82 12.9511 12.6L12.0011 12.03L11.0511 12.59C10.1811 13.11 9.61112 12.81 9.40112 12.66C9.19112 12.51 8.74112 12.06 8.97112 11.07L9.21112 10.04L8.41112 9.29999C7.97112 8.85999 7.81112 8.33001 7.96112 7.85001C8.11112 7.37001 8.55112 7.02999 9.17112 6.92999L10.2411 6.75L10.7511 5.63C11.0411 5.06 11.4911 4.73999 12.0011 4.73999C12.5111 4.73999 12.9711 5.07001 13.2511 5.64001L13.8411 6.82001L14.8311 6.94C15.4411 7.04 15.8811 7.37999 16.0411 7.85999C16.1911 8.33999 16.0311 8.87 15.5911 9.31L14.7611 10.14L15.0211 11.07C15.2511 12.06 14.8011 12.51 14.5911 12.66C14.4811 12.75 14.2411 12.89 13.8911 12.89ZM9.61112 8.39001L10.3011 9.07999C10.6211 9.39999 10.7811 9.94 10.6811 10.38L10.4911 11.18L11.2911 10.71C11.7211 10.46 12.3011 10.46 12.7211 10.71L13.5211 11.18L13.3411 10.38C13.2411 9.93001 13.3911 9.39999 13.7111 9.07999L14.4011 8.39001L13.5311 8.23999C13.1111 8.16999 12.6911 7.86001 12.5011 7.48001L12.0011 6.5L11.5011 7.5C11.3211 7.87 10.9011 8.19001 10.4811 8.26001L9.61112 8.39001Z" fill="#393939"/>
</svg>
