<svg width="22" height="23" viewBox="0 0 22 23" fill="none" xmlns="http://www.w3.org/2000/svg">
<path d="M16.6601 22.1699C16.1301 22.1699 15.4501 21.9999 14.6001 21.4999L11.6101 19.7299C11.3001 19.5499 10.7001 19.5499 10.4001 19.7299L7.40012 21.4999C5.63012 22.5499 4.59012 22.1299 4.12012 21.7899C3.66012 21.4499 2.94012 20.5799 3.41012 18.5799L4.12012 15.5099C4.20012 15.1899 4.04012 14.6399 3.80012 14.3999L1.32012 11.9199C0.0801177 10.6799 0.180118 9.61995 0.350118 9.09995C0.520118 8.57995 1.06012 7.65995 2.78012 7.36995L5.97012 6.83995C6.27012 6.78995 6.70012 6.46995 6.83012 6.19995L8.60012 2.66995C9.40012 1.05995 10.4501 0.819946 11.0001 0.819946C11.5501 0.819946 12.6001 1.05995 13.4001 2.66995L15.1601 6.18995C15.3001 6.45995 15.7301 6.77995 16.0301 6.82995L19.2201 7.35995C20.9501 7.64995 21.4901 8.56995 21.6501 9.08995C21.8101 9.60995 21.9101 10.6699 20.6801 11.9099L18.2001 14.3999C17.9601 14.6399 17.8101 15.1799 17.8801 15.5099L18.5901 18.5799C19.0501 20.5799 18.3401 21.4499 17.8801 21.7899C17.6301 21.9699 17.2301 22.1699 16.6601 22.1699ZM11.0001 18.0899C11.4901 18.0899 11.9801 18.2099 12.3701 18.4399L15.3601 20.2099C16.2301 20.7299 16.7801 20.7299 16.9901 20.5799C17.2001 20.4299 17.3501 19.8999 17.1301 18.9199L16.4201 15.8499C16.2301 15.0199 16.5401 13.9499 17.1401 13.3399L19.6201 10.8599C20.1101 10.3699 20.3301 9.88995 20.2301 9.55995C20.1201 9.22995 19.6601 8.95995 18.9801 8.84995L15.7901 8.31995C15.0201 8.18995 14.1801 7.56995 13.8301 6.86995L12.0701 3.34995C11.7501 2.70995 11.3501 2.32995 11.0001 2.32995C10.6501 2.32995 10.2501 2.70995 9.94012 3.34995L8.17012 6.86995C7.82012 7.56995 6.98012 8.18995 6.21012 8.31995L3.03012 8.84995C2.35012 8.95995 1.89012 9.22995 1.78012 9.55995C1.67012 9.88995 1.90012 10.3799 2.39012 10.8599L4.87012 13.3399C5.47012 13.9399 5.78012 15.0199 5.59012 15.8499L4.88012 18.9199C4.65012 19.9099 4.81012 20.4299 5.02012 20.5799C5.23012 20.7299 5.77012 20.7199 6.65012 20.2099L9.64012 18.4399C10.0201 18.2099 10.5101 18.0899 11.0001 18.0899Z" fill="#E9C600"/>
</svg>
