<svg width="24" height="24" viewBox="0 0 24 24" fill="none" xmlns="http://www.w3.org/2000/svg">
<path d="M10.3199 5.93086C10.3199 6.12086 10.2499 6.31086 10.0999 6.46086L4.55994 12.0009L10.0999 17.5409C10.3899 17.8309 10.3899 18.3109 10.0999 18.6009C9.80994 18.8909 9.32994 18.8909 9.03994 18.6009L2.96994 12.5309C2.67994 12.2409 2.67994 11.7609 2.96994 11.4709L9.03994 5.40086C9.32994 5.11086 9.80994 5.11086 10.0999 5.40086C10.2499 5.54086 10.3199 5.74086 10.3199 5.93086Z" fill="#393939"/>
<path d="M21.2499 12C21.2499 12.41 20.9099 12.75 20.4999 12.75L3.66992 12.75C3.25992 12.75 2.91992 12.41 2.91992 12C2.91992 11.59 3.25992 11.25 3.66992 11.25L20.4999 11.25C20.9099 11.25 21.2499 11.59 21.2499 12Z" fill="#393939"/>
</svg>
