<svg width="387" height="161" viewBox="0 0 387 161" fill="none" xmlns="http://www.w3.org/2000/svg">
<g filter="url(#filter0_d_2765_13109)">
<mask id="path-1-inside-1_2765_13109" fill="white">
<path fill-rule="evenodd" clip-rule="evenodd" d="M47.2477 26.2829C39.4817 19.1286 30.9844 10 20.4253 10C9.14474 10 0 19.1447 0 30.4253V126C0 139.807 11.1929 151 25 151H352C365.807 151 377 139.807 377 126V35C377 21.1929 365.807 10 352 10H116.824C103.9 10 93.2768 21.6548 82.5519 28.8663C78.0374 31.9018 72.509 33.688 66.5372 33.688C59.0282 33.688 52.2203 30.8639 47.2477 26.2829Z"/>
</mask>
<path fill-rule="evenodd" clip-rule="evenodd" d="M47.2477 26.2829C39.4817 19.1286 30.9844 10 20.4253 10C9.14474 10 0 19.1447 0 30.4253V126C0 139.807 11.1929 151 25 151H352C365.807 151 377 139.807 377 126V35C377 21.1929 365.807 10 352 10H116.824C103.9 10 93.2768 21.6548 82.5519 28.8663C78.0374 31.9018 72.509 33.688 66.5372 33.688C59.0282 33.688 52.2203 30.8639 47.2477 26.2829Z" fill="#F8F2FF"/>
<path d="M1 126V30.4253H-1V126H1ZM352 150H25V152H352V150ZM376 35V126H378V35H376ZM116.824 11H352V9H116.824V11ZM81.9939 28.0364C77.6425 30.9623 72.308 32.688 66.5372 32.688V34.688C72.7101 34.688 78.4324 32.8413 83.1099 29.6961L81.9939 28.0364ZM66.5372 32.688C59.2812 32.688 52.7146 29.9596 47.9252 25.5474L46.5701 27.0184C51.7259 31.7681 58.7753 34.688 66.5372 34.688V32.688ZM116.824 9C110.059 9 103.966 12.0505 98.3011 15.9018C95.4638 17.8307 92.7008 19.9841 89.9997 22.087C87.2884 24.1979 84.6412 26.2564 81.9939 28.0364L83.1099 29.6961C85.825 27.8704 88.5276 25.7678 91.2284 23.6651C93.9394 21.5545 96.6509 19.4421 99.4255 17.5558C104.984 13.7769 110.665 11 116.824 11V9ZM378 35C378 20.6406 366.359 9 352 9V11C365.255 11 376 21.7452 376 35H378ZM352 152C366.359 152 378 140.359 378 126H376C376 139.255 365.255 150 352 150V152ZM-1 126C-1 140.359 10.6406 152 25 152V150C11.7452 150 1 139.255 1 126H-1ZM20.4253 11C25.4069 11 29.9656 13.1519 34.2999 16.2703C38.65 19.4001 42.643 23.4006 46.5701 27.0184L47.9252 25.5474C44.0864 22.011 39.9478 17.87 35.468 14.6469C30.9724 11.4124 26.0029 9 20.4253 9V11ZM20.4253 9C8.59246 9 -1 18.5925 -1 30.4253H1C1 19.697 9.69703 11 20.4253 11V9Z" fill="url(#paint0_linear_2765_13109)" mask="url(#path-1-inside-1_2765_13109)"/>
</g>
<defs>
<filter id="filter0_d_2765_13109" x="-10" y="0" width="397" height="161" filterUnits="userSpaceOnUse" color-interpolation-filters="sRGB">
<feFlood flood-opacity="0" result="BackgroundImageFix"/>
<feColorMatrix in="SourceAlpha" type="matrix" values="0 0 0 0 0 0 0 0 0 0 0 0 0 0 0 0 0 0 127 0" result="hardAlpha"/>
<feOffset/>
<feGaussianBlur stdDeviation="5"/>
<feComposite in2="hardAlpha" operator="out"/>
<feColorMatrix type="matrix" values="0 0 0 0 0 0 0 0 0 0 0 0 0 0 0 0 0 0 0.08 0"/>
<feBlend mode="normal" in2="BackgroundImageFix" result="effect1_dropShadow_2765_13109"/>
<feBlend mode="normal" in="SourceGraphic" in2="effect1_dropShadow_2765_13109" result="shape"/>
</filter>
<linearGradient id="paint0_linear_2765_13109" x1="211" y1="10" x2="211" y2="129.286" gradientUnits="userSpaceOnUse">
<stop stop-color="#EBB5EA"/>
<stop offset="1" stop-color="white"/>
</linearGradient>
</defs>
</svg>
