<svg width="547" height="578" viewBox="0 0 547 578" fill="none" xmlns="http://www.w3.org/2000/svg">
<g clip-path="url(#clip0_2488_22855)">
<path d="M0 32C0 20.7989 0 15.1984 2.17987 10.9202C4.09734 7.15695 7.15695 4.09734 10.9202 2.17987C15.1984 0 20.799 0 32 0H515C526.201 0 531.802 0 536.08 2.17987C539.843 4.09734 542.903 7.15695 544.82 10.9202C547 15.1984 547 20.799 547 32V546C547 557.201 547 562.802 544.82 567.08C542.903 570.843 539.843 573.903 536.08 575.82C531.802 578 526.201 578 515 578H32C20.7989 578 15.1984 578 10.9202 575.82C7.15695 573.903 4.09734 570.843 2.17987 567.08C0 562.802 0 557.201 0 546V32Z" fill="white"/>
<circle cx="-149" cy="-143" r="355" stroke="#FFF2F8" stroke-width="80"/>
<circle cx="696" cy="684" r="355" stroke="#FFF2F8" stroke-width="80"/>
<path d="M14.7825 512.023C13.6325 513.173 11.7725 513.173 10.6225 512.023C9.47251 510.873 9.47251 509.012 10.6225 507.862C11.7725 506.712 13.6325 506.712 14.7825 507.862C15.9225 509.003 15.9225 510.873 14.7825 512.023ZM27.2225 520.292C26.0725 519.142 24.2125 519.142 23.0625 520.292C21.9125 521.442 21.9125 523.302 23.0625 524.452C24.2125 525.602 26.0725 525.602 27.2225 524.452C28.3625 523.312 28.3625 521.442 27.2225 520.292ZM39.6525 532.732C38.5025 531.582 36.6425 531.582 35.4925 532.732C34.3425 533.882 34.3425 535.742 35.4925 536.892C36.6425 538.042 38.5025 538.042 39.6525 536.892C40.8025 535.742 40.8025 533.882 39.6525 532.732ZM52.0925 545.172C50.9425 544.022 49.0825 544.022 47.9325 545.172C46.7825 546.322 46.7825 548.182 47.9325 549.333C49.0825 550.483 50.9425 550.483 52.0925 549.333C53.2425 548.182 53.2425 546.322 52.0925 545.172ZM64.5325 557.612C63.3825 556.462 61.5225 556.462 60.3725 557.612C59.2225 558.762 59.2225 560.623 60.3725 561.773C61.5225 562.923 63.3825 562.923 64.5325 561.773C65.6825 560.623 65.6825 558.762 64.5325 557.612ZM2.34251 520.292C1.19251 519.142 -0.667492 519.142 -1.81749 520.292C-2.96749 521.442 -2.96749 523.302 -1.81749 524.452C-0.667492 525.602 1.19251 525.602 2.34251 524.452C3.49251 523.312 3.49251 521.442 2.34251 520.292ZM14.7825 532.732C13.6325 531.582 11.7725 531.582 10.6225 532.732C9.47251 533.882 9.47251 535.742 10.6225 536.892C11.7725 538.042 13.6325 538.042 14.7825 536.892C15.9225 535.742 15.9225 533.882 14.7825 532.732ZM27.2225 545.172C26.0725 544.022 24.2125 544.022 23.0625 545.172C21.9125 546.322 21.9125 548.182 23.0625 549.333C24.2125 550.483 26.0725 550.483 27.2225 549.333C28.3625 548.182 28.3625 546.322 27.2225 545.172ZM39.6525 557.612C38.5025 556.462 36.6425 556.462 35.4925 557.612C34.3425 558.762 34.3425 560.623 35.4925 561.773C36.6425 562.923 38.5025 562.923 39.6525 561.773C40.8025 560.623 40.8025 558.762 39.6525 557.612ZM52.0925 570.052C50.9425 568.902 49.0825 568.902 47.9325 570.052C46.7825 571.202 46.7825 573.063 47.9325 574.213C49.0825 575.363 50.9425 575.363 52.0925 574.213C53.2425 573.063 53.2425 571.202 52.0925 570.052ZM-10.0975 532.732C-11.2475 531.582 -13.1075 531.582 -14.2575 532.732C-15.4075 533.882 -15.4075 535.742 -14.2575 536.892C-13.1075 538.042 -11.2475 538.042 -10.0975 536.892C-8.94749 535.742 -8.94749 533.882 -10.0975 532.732ZM2.34251 545.172C1.19251 544.022 -0.667492 544.022 -1.81749 545.172C-2.96749 546.322 -2.96749 548.182 -1.81749 549.333C-0.667492 550.483 1.19251 550.483 2.34251 549.333C3.49251 548.182 3.49251 546.322 2.34251 545.172ZM14.7825 557.612C13.6325 556.462 11.7725 556.462 10.6225 557.612C9.47251 558.762 9.47251 560.623 10.6225 561.773C11.7725 562.923 13.6325 562.923 14.7825 561.773C15.9225 560.623 15.9225 558.762 14.7825 557.612ZM27.2225 570.052C26.0725 568.902 24.2125 568.902 23.0625 570.052C21.9125 571.202 21.9125 573.063 23.0625 574.213C24.2125 575.363 26.0725 575.363 27.2225 574.213C28.3625 573.063 28.3625 571.202 27.2225 570.052ZM39.6525 582.492C38.5025 581.342 36.6425 581.342 35.4925 582.492C34.3425 583.642 34.3425 585.503 35.4925 586.653C36.6425 587.803 38.5025 587.803 39.6525 586.653C40.8025 585.503 40.8025 583.642 39.6525 582.492ZM-22.5375 545.172C-23.6875 544.022 -25.5475 544.022 -26.6975 545.172C-27.8475 546.322 -27.8475 548.182 -26.6975 549.333C-25.5475 550.483 -23.6875 550.483 -22.5375 549.333C-21.3875 548.182 -21.3875 546.322 -22.5375 545.172ZM-10.0975 557.612C-11.2475 556.462 -13.1075 556.462 -14.2575 557.612C-15.4075 558.762 -15.4075 560.623 -14.2575 561.773C-13.1075 562.923 -11.2475 562.923 -10.0975 561.773C-8.94749 560.623 -8.94749 558.762 -10.0975 557.612ZM2.34251 570.052C1.19251 568.902 -0.667492 568.902 -1.81749 570.052C-2.96749 571.202 -2.96749 573.063 -1.81749 574.213C-0.667492 575.363 1.19251 575.363 2.34251 574.213C3.49251 573.063 3.49251 571.202 2.34251 570.052ZM14.7825 582.492C13.6325 581.342 11.7725 581.342 10.6225 582.492C9.47251 583.642 9.47251 585.503 10.6225 586.653C11.7725 587.803 13.6325 587.803 14.7825 586.653C15.9225 585.503 15.9225 583.642 14.7825 582.492ZM27.2225 594.932C26.0725 593.782 24.2125 593.782 23.0625 594.932C21.9125 596.082 21.9125 597.943 23.0625 599.093C24.2125 600.243 26.0725 600.243 27.2225 599.093C28.3625 597.943 28.3625 596.082 27.2225 594.932ZM-34.9775 557.612C-36.1275 556.462 -37.9875 556.462 -39.1375 557.612C-40.2875 558.762 -40.2875 560.623 -39.1375 561.773C-37.9875 562.923 -36.1275 562.923 -34.9775 561.773C-33.8275 560.623 -33.8275 558.762 -34.9775 557.612ZM-22.5375 570.052C-23.6875 568.902 -25.5475 568.902 -26.6975 570.052C-27.8475 571.202 -27.8475 573.063 -26.6975 574.213C-25.5475 575.363 -23.6875 575.363 -22.5375 574.213C-21.3875 573.063 -21.3875 571.202 -22.5375 570.052ZM-10.0975 582.492C-11.2475 581.342 -13.1075 581.342 -14.2575 582.492C-15.4075 583.642 -15.4075 585.503 -14.2575 586.653C-13.1075 587.803 -11.2475 587.803 -10.0975 586.653C-8.94749 585.503 -8.94749 583.642 -10.0975 582.492ZM2.34251 594.932C1.19251 593.782 -0.667492 593.782 -1.81749 594.932C-2.96749 596.082 -2.96749 597.943 -1.81749 599.093C-0.667492 600.243 1.19251 600.243 2.34251 599.093C3.49251 597.943 3.49251 596.082 2.34251 594.932ZM14.7825 607.372C13.6325 606.222 11.7725 606.222 10.6225 607.372C9.47251 608.522 9.47251 610.383 10.6225 611.533C11.7725 612.683 13.6325 612.683 14.7825 611.533C15.9325 610.383 15.9225 608.522 14.7825 607.372Z" fill="#FCDDEC"/>
<path d="M538.783 -13.9775C537.633 -12.8275 535.773 -12.8275 534.623 -13.9775C533.473 -15.1275 533.473 -16.9875 534.623 -18.1375C535.773 -19.2875 537.633 -19.2875 538.783 -18.1375C539.923 -16.9975 539.923 -15.1275 538.783 -13.9775ZM551.223 -5.70751C550.073 -6.85751 548.213 -6.85751 547.063 -5.70751C545.913 -4.55751 545.913 -2.6975 547.063 -1.5475C548.213 -0.397505 550.073 -0.397505 551.223 -1.5475C552.363 -2.6875 552.363 -4.55751 551.223 -5.70751ZM563.653 6.73249C562.503 5.58249 560.643 5.58249 559.493 6.73249C558.343 7.88249 558.343 9.7425 559.493 10.8925C560.643 12.0425 562.503 12.0425 563.653 10.8925C564.803 9.7425 564.803 7.88249 563.653 6.73249ZM576.093 19.1725C574.943 18.0225 573.083 18.0225 571.933 19.1725C570.783 20.3225 570.783 22.1825 571.933 23.3325C573.083 24.4825 574.943 24.4825 576.093 23.3325C577.243 22.1825 577.243 20.3225 576.093 19.1725ZM588.533 31.6125C587.383 30.4625 585.523 30.4625 584.373 31.6125C583.223 32.7625 583.223 34.6225 584.373 35.7725C585.523 36.9225 587.383 36.9225 588.533 35.7725C589.683 34.6225 589.683 32.7625 588.533 31.6125ZM526.343 -5.70751C525.193 -6.85751 523.333 -6.85751 522.183 -5.70751C521.033 -4.55751 521.033 -2.6975 522.183 -1.5475C523.333 -0.397505 525.193 -0.397505 526.343 -1.5475C527.493 -2.6875 527.493 -4.55751 526.343 -5.70751ZM538.783 6.73249C537.633 5.58249 535.773 5.58249 534.623 6.73249C533.473 7.88249 533.473 9.7425 534.623 10.8925C535.773 12.0425 537.633 12.0425 538.783 10.8925C539.923 9.7425 539.923 7.88249 538.783 6.73249ZM551.223 19.1725C550.073 18.0225 548.213 18.0225 547.063 19.1725C545.913 20.3225 545.913 22.1825 547.063 23.3325C548.213 24.4825 550.073 24.4825 551.223 23.3325C552.363 22.1825 552.363 20.3225 551.223 19.1725ZM563.653 31.6125C562.503 30.4625 560.643 30.4625 559.493 31.6125C558.343 32.7625 558.343 34.6225 559.493 35.7725C560.643 36.9225 562.503 36.9225 563.653 35.7725C564.803 34.6225 564.803 32.7625 563.653 31.6125ZM576.093 44.0525C574.943 42.9025 573.083 42.9025 571.933 44.0525C570.783 45.2025 570.783 47.0625 571.933 48.2125C573.083 49.3625 574.943 49.3625 576.093 48.2125C577.243 47.0625 577.243 45.2025 576.093 44.0525ZM513.903 6.73249C512.753 5.58249 510.893 5.58249 509.743 6.73249C508.593 7.88249 508.593 9.7425 509.743 10.8925C510.893 12.0425 512.753 12.0425 513.903 10.8925C515.053 9.7425 515.053 7.88249 513.903 6.73249ZM526.343 19.1725C525.193 18.0225 523.333 18.0225 522.183 19.1725C521.033 20.3225 521.033 22.1825 522.183 23.3325C523.333 24.4825 525.193 24.4825 526.343 23.3325C527.493 22.1825 527.493 20.3225 526.343 19.1725ZM538.783 31.6125C537.633 30.4625 535.773 30.4625 534.623 31.6125C533.473 32.7625 533.473 34.6225 534.623 35.7725C535.773 36.9225 537.633 36.9225 538.783 35.7725C539.923 34.6225 539.923 32.7625 538.783 31.6125ZM551.223 44.0525C550.073 42.9025 548.213 42.9025 547.063 44.0525C545.913 45.2025 545.913 47.0625 547.063 48.2125C548.213 49.3625 550.073 49.3625 551.223 48.2125C552.363 47.0625 552.363 45.2025 551.223 44.0525ZM563.653 56.4925C562.503 55.3425 560.643 55.3425 559.493 56.4925C558.343 57.6425 558.343 59.5025 559.493 60.6525C560.643 61.8025 562.503 61.8025 563.653 60.6525C564.803 59.5025 564.803 57.6425 563.653 56.4925ZM501.463 19.1725C500.313 18.0225 498.453 18.0225 497.303 19.1725C496.153 20.3225 496.153 22.1825 497.303 23.3325C498.453 24.4825 500.313 24.4825 501.463 23.3325C502.613 22.1825 502.613 20.3225 501.463 19.1725ZM513.903 31.6125C512.753 30.4625 510.893 30.4625 509.743 31.6125C508.593 32.7625 508.593 34.6225 509.743 35.7725C510.893 36.9225 512.753 36.9225 513.903 35.7725C515.053 34.6225 515.053 32.7625 513.903 31.6125ZM526.343 44.0525C525.193 42.9025 523.333 42.9025 522.183 44.0525C521.033 45.2025 521.033 47.0625 522.183 48.2125C523.333 49.3625 525.193 49.3625 526.343 48.2125C527.493 47.0625 527.493 45.2025 526.343 44.0525ZM538.783 56.4925C537.633 55.3425 535.773 55.3425 534.623 56.4925C533.473 57.6425 533.473 59.5025 534.623 60.6525C535.773 61.8025 537.633 61.8025 538.783 60.6525C539.923 59.5025 539.923 57.6425 538.783 56.4925ZM551.223 68.9325C550.073 67.7825 548.213 67.7825 547.063 68.9325C545.913 70.0825 545.913 71.9425 547.063 73.0925C548.213 74.2425 550.073 74.2425 551.223 73.0925C552.363 71.9425 552.363 70.0825 551.223 68.9325ZM489.023 31.6125C487.873 30.4625 486.012 30.4625 484.862 31.6125C483.712 32.7625 483.712 34.6225 484.862 35.7725C486.012 36.9225 487.873 36.9225 489.023 35.7725C490.173 34.6225 490.173 32.7625 489.023 31.6125ZM501.463 44.0525C500.313 42.9025 498.453 42.9025 497.303 44.0525C496.153 45.2025 496.153 47.0625 497.303 48.2125C498.453 49.3625 500.313 49.3625 501.463 48.2125C502.613 47.0625 502.613 45.2025 501.463 44.0525ZM513.903 56.4925C512.753 55.3425 510.893 55.3425 509.743 56.4925C508.593 57.6425 508.593 59.5025 509.743 60.6525C510.893 61.8025 512.753 61.8025 513.903 60.6525C515.053 59.5025 515.053 57.6425 513.903 56.4925ZM526.343 68.9325C525.193 67.7825 523.333 67.7825 522.183 68.9325C521.033 70.0825 521.033 71.9425 522.183 73.0925C523.333 74.2425 525.193 74.2425 526.343 73.0925C527.493 71.9425 527.493 70.0825 526.343 68.9325ZM538.783 81.3725C537.633 80.2225 535.773 80.2225 534.623 81.3725C533.473 82.5225 533.473 84.3825 534.623 85.5325C535.773 86.6825 537.633 86.6825 538.783 85.5325C539.933 84.3825 539.923 82.5225 538.783 81.3725Z" fill="#FCDDEC"/>
</g>
<defs>
<clipPath id="clip0_2488_22855">
<path d="M0 32C0 20.7989 0 15.1984 2.17987 10.9202C4.09734 7.15695 7.15695 4.09734 10.9202 2.17987C15.1984 0 20.799 0 32 0H515C526.201 0 531.802 0 536.08 2.17987C539.843 4.09734 542.903 7.15695 544.82 10.9202C547 15.1984 547 20.799 547 32V546C547 557.201 547 562.802 544.82 567.08C542.903 570.843 539.843 573.903 536.08 575.82C531.802 578 526.201 578 515 578H32C20.7989 578 15.1984 578 10.9202 575.82C7.15695 573.903 4.09734 570.843 2.17987 567.08C0 562.802 0 557.201 0 546V32Z" fill="white"/>
</clipPath>
</defs>
</svg>
