<svg width="184" height="30" viewBox="0 0 184 30" fill="none" xmlns="http://www.w3.org/2000/svg">
<path d="M8.45234 20.2C8.42568 19.72 8.41234 19.36 8.41234 19.12C8.41234 18.8667 8.42568 18.5 8.45234 18.02C9.67901 18.02 10.7323 17.94 11.6123 17.78C12.4923 17.6067 13.1657 17.4067 13.6323 17.18C14.099 16.9533 14.3523 16.7467 14.3923 16.56C14.299 15.7333 13.9123 14.4067 13.2323 12.58L14.8923 11.68C15.1723 12.3333 15.439 13.1333 15.6923 14.08C15.9457 15.0267 16.0723 15.8133 16.0723 16.44C16.0723 17.2267 15.7457 17.9067 15.0923 18.48C14.439 19.04 13.5323 19.4667 12.3723 19.76C11.2257 20.0533 9.91901 20.2 8.45234 20.2ZM3.27234 13.14C2.89901 14.1933 2.71234 15.0133 2.71234 15.6C2.71234 15.7467 2.71901 15.86 2.73234 15.94C2.83901 16.5933 3.38568 17.1067 4.37234 17.48C5.37234 17.84 6.79234 18.02 8.63234 18.02C8.65901 18.5533 8.67234 18.9533 8.67234 19.22C8.67234 19.4467 8.65901 19.7733 8.63234 20.2C6.28568 20.2133 4.45234 19.8867 3.13234 19.22C1.81234 18.54 1.09234 17.56 0.972344 16.28C0.95901 16.1733 0.952344 16.02 0.952344 15.82C0.952344 15.2733 1.02568 14.6933 1.17234 14.08C1.31901 13.4533 1.49901 12.8867 1.71234 12.38L3.27234 13.14ZM5.75234 12.12C6.39234 11.48 6.71234 11.16 6.71234 11.16L8.17234 12.6C7.69234 13.0933 7.20568 13.58 6.71234 14.06L5.27234 12.6L5.75234 12.12ZM9.27234 12.12C9.91234 11.48 10.2323 11.16 10.2323 11.16L11.6923 12.6C11.2123 13.0933 10.7257 13.58 10.2323 14.06L8.79234 12.6L9.27234 12.12ZM26.5511 5.78C26.7511 7.34 26.9044 8.72 27.0111 9.92C27.1178 11.1067 27.1711 12.2933 27.1711 13.48L27.1511 14.46C27.0978 16.3933 26.2978 17.86 24.7511 18.86C23.2178 19.86 21.2644 20.44 18.8911 20.6L18.3511 18.5C20.4311 18.3 22.1044 17.8933 23.3711 17.28C24.6378 16.6667 25.2711 15.7267 25.2711 14.46C25.2711 13.1267 25.2178 11.8533 25.1111 10.64C25.0178 9.41333 24.8644 7.93333 24.6511 6.2L26.5511 5.78ZM19.4311 7.52C20.2578 9.25333 20.8911 10.9067 21.3311 12.48C21.7844 14.0533 22.0111 15.4067 22.0111 16.54C22.0111 17.1267 21.9511 17.64 21.8311 18.08L20.0711 18.48C20.2178 18.1333 20.2911 17.68 20.2911 17.12C20.2911 16.1067 20.0644 14.8533 19.6111 13.36C19.1578 11.8667 18.5644 10.2867 17.8311 8.62L19.4311 7.52ZM31.2025 5.78C31.3092 6.54 31.3958 7.75333 31.4625 9.42C31.5292 11.0733 31.5625 12.6133 31.5625 14.04V14.92C31.5492 15.72 31.5825 16.3133 31.6625 16.7C31.7425 17.0867 31.9225 17.3667 32.2025 17.54C32.4825 17.7133 32.9292 17.8 33.5425 17.8H33.6425L33.7625 18.9L33.6425 20H33.5425C32.1292 20 31.1358 19.6333 30.5625 18.9C30.0025 18.1533 29.7225 16.9733 29.7225 15.36C29.7225 13.8933 29.6825 12.2267 29.6025 10.36C29.5358 8.48 29.4358 7.09333 29.3025 6.2L31.2025 5.78ZM33.3908 17.8H33.8708C35.3241 17.8 36.4774 17.7133 37.3308 17.54C38.1974 17.3667 38.8374 17.12 39.2508 16.8C39.6641 16.4667 39.9574 16.0467 40.1308 15.54C40.1574 15.18 40.1041 14.8267 39.9708 14.48C39.8508 14.1333 39.6574 13.8467 39.3908 13.62C39.1241 13.3933 38.8174 13.28 38.4708 13.28C38.0174 13.28 37.6174 13.48 37.2708 13.88C36.9241 14.2667 36.7174 14.7333 36.6508 15.28C36.6374 15.72 36.8108 16.1333 37.1708 16.52C37.5308 16.9067 38.0574 17.22 38.7508 17.46C39.4574 17.6867 40.2908 17.8 41.2508 17.8H43.1908L43.3108 18.9L43.1908 20H41.9908C40.6441 20 39.4308 19.8 38.3508 19.4C37.2841 19 36.4441 18.46 35.8308 17.78C35.2308 17.1 34.9308 16.3533 34.9308 15.54C34.9308 15.4333 34.9441 15.2733 34.9708 15.06C35.0774 14.34 35.3041 13.68 35.6508 13.08C36.0108 12.4667 36.4441 11.9867 36.9508 11.64C37.4708 11.28 38.0108 11.1 38.5708 11.1C39.1974 11.1 39.7574 11.3 40.2508 11.7C40.7574 12.1 41.1508 12.6133 41.4308 13.24C41.7108 13.8667 41.8508 14.5067 41.8508 15.16C41.8508 15.28 41.8374 15.46 41.8108 15.7C41.6108 17.1667 40.8508 18.2533 39.5308 18.96C38.2241 19.6533 36.3374 20 33.8708 20H33.3908V17.8ZM35.9108 8.04C36.5508 7.4 36.8708 7.08 36.8708 7.08L38.3308 8.52C37.8508 9.01333 37.3641 9.5 36.8708 9.98L35.4308 8.52L35.9108 8.04ZM39.4308 8.04C40.0708 7.4 40.3908 7.08 40.3908 7.08L41.8508 8.52C41.3708 9.01333 40.8841 9.5 40.3908 9.98L38.9508 8.52L39.4308 8.04ZM46.863 16.26C47.6896 16.82 48.4363 17.26 49.103 17.58C49.7696 17.9 50.283 18.06 50.643 18.06C50.7496 18.06 50.8563 18.0333 50.963 17.98C51.163 17.8733 51.3163 17.7 51.423 17.46C51.5296 17.2067 51.583 16.92 51.583 16.6C51.583 15.9867 51.423 15.4267 51.103 14.92C50.783 14.4133 50.3696 14.16 49.863 14.16C49.463 14.16 49.0363 14.4333 48.583 14.98C48.143 15.5267 47.6563 16.3667 47.123 17.5C46.723 18.3267 46.1963 18.9533 45.543 19.38C44.8896 19.7933 44.143 20 43.303 20H42.943L42.983 17.8H43.343C43.8763 17.8 44.3696 17.6467 44.823 17.34C45.2763 17.0333 45.663 16.5667 45.983 15.94C46.5696 14.7933 47.163 13.8867 47.763 13.22C48.363 12.5533 49.0163 12.2 49.723 12.16C50.4296 12.12 51.043 12.3067 51.563 12.72C52.0963 13.1333 52.503 13.68 52.783 14.36C53.063 15.04 53.203 15.7533 53.203 16.5C53.203 17.2333 53.063 17.9067 52.783 18.52C52.503 19.12 52.0896 19.5733 51.543 19.88C51.2763 20.0267 50.9696 20.1 50.623 20.1C49.5696 20.1 48.0296 19.4267 46.003 18.08L46.863 16.26Z" fill="#393939"/>
<path d="M68.9998 23.67C68.8098 23.67 68.6198 23.6 68.4698 23.45L61.9498 16.93C60.8898 15.87 60.8898 14.13 61.9498 13.07L68.4698 6.55002C68.7598 6.26002 69.2398 6.26002 69.5298 6.55002C69.8198 6.84002 69.8198 7.32002 69.5298 7.61002L63.0098 14.13C62.5298 14.61 62.5298 15.39 63.0098 15.87L69.5298 22.39C69.8198 22.68 69.8198 23.16 69.5298 23.45C69.3798 23.59 69.1898 23.67 68.9998 23.67Z" fill="#727272"/>
<path d="M91.0353 25.64C89.862 25.64 88.822 25.42 87.9153 24.98C87.0086 24.54 86.2953 23.8933 85.7753 23.04C85.2553 22.2 84.9953 21.2 84.9953 20.04C84.9953 19.24 85.1286 18.38 85.3953 17.46C85.6753 16.54 85.9953 15.7133 86.3553 14.98L87.8953 15.7C87.562 16.4467 87.2953 17.16 87.0953 17.84C86.8953 18.5067 86.7953 19.1533 86.7953 19.78C86.7953 20.9933 87.162 21.9067 87.8953 22.52C88.6286 23.1467 89.6753 23.46 91.0353 23.46C91.8086 23.46 92.542 23.36 93.2353 23.16C93.942 22.96 94.5286 22.7133 94.9953 22.42C95.462 22.14 95.7486 21.88 95.8553 21.64C95.7086 21.4 95.2353 21.0267 94.4353 20.52C93.6353 20.0133 92.7886 19.5867 91.8953 19.24L92.3553 17.16C93.422 17.3733 94.3686 17.5333 95.1953 17.64C96.0353 17.7467 96.8486 17.8 97.6353 17.8H98.0553L98.1753 18.9L98.0553 20H97.6353C96.7553 20 95.8886 19.94 95.0353 19.82C94.182 19.6867 93.1353 19.4933 91.8953 19.24L92.3753 17.86L92.8153 18.06C94.1353 18.6333 95.262 19.22 96.1953 19.82C97.1286 20.4067 97.5886 21.04 97.5753 21.72C97.562 22.3467 97.2553 22.9667 96.6553 23.58C96.0553 24.1933 95.2553 24.6867 94.2553 25.06C93.2686 25.4467 92.1953 25.64 91.0353 25.64ZM103.888 17.8L104.008 18.9L103.888 20H103.668C103.068 20 102.508 19.82 101.988 19.46C101.481 19.0867 101.075 18.58 100.768 17.94C100.461 17.3 100.308 16.5867 100.308 15.8C100.321 15.48 100.268 14 100.148 11.36C100.028 8.72 99.9281 7 99.8481 6.2L101.748 5.8C101.828 6.6 101.901 8.17333 101.968 10.52C102.048 12.8533 102.095 14.1733 102.108 14.48L102.148 15.82C102.228 17.14 102.735 17.8 103.668 17.8H103.888ZM97.7281 17.8H98.2481C98.9948 17.8 99.5281 17.6467 99.8481 17.34C100.168 17.02 100.321 16.5067 100.308 15.8L101.708 15.96C101.708 17.1733 101.408 18.1533 100.808 18.9C100.221 19.6333 99.3748 20 98.2681 20H97.7281V17.8ZM103.665 17.8H103.965C104.618 17.8 105.152 17.66 105.565 17.38C105.978 17.0867 106.305 16.6333 106.545 16.02C106.798 15.4067 106.998 14.58 107.145 13.54L108.805 13.88C108.738 14.2933 108.705 14.74 108.705 15.22C108.705 16.3267 108.992 17.1067 109.565 17.56C110.152 18.0133 111.105 18.24 112.425 18.24C113.638 18.24 114.718 18.1 115.665 17.82C116.612 17.54 117.345 17.1733 117.865 16.72C118.398 16.2667 118.665 15.7933 118.665 15.3C118.665 14.8733 118.485 14.52 118.125 14.24C117.778 13.9467 117.298 13.8 116.685 13.8C115.605 13.8 114.505 14.2733 113.385 15.22C112.278 16.1533 111.258 17.48 110.325 19.2L108.965 18.3C110.005 16.2467 111.192 14.64 112.525 13.48C113.872 12.3067 115.205 11.72 116.525 11.72C117.245 11.72 117.898 11.8733 118.485 12.18C119.072 12.4867 119.525 12.9133 119.845 13.46C120.178 13.9933 120.345 14.6 120.345 15.28C120.345 16.3067 120.012 17.2067 119.345 17.98C118.678 18.7533 117.752 19.3533 116.565 19.78C115.392 20.2067 114.065 20.42 112.585 20.42C109.878 20.42 108.225 19.5867 107.625 17.92C107.265 18.6 106.798 19.12 106.225 19.48C105.652 19.8267 104.892 20 103.945 20H103.665V17.8ZM122.629 19.88C122.736 19.08 122.789 17.68 122.789 15.68C122.789 13.8533 122.742 11.98 122.649 10.06C122.569 8.12667 122.476 6.84 122.369 6.2L124.269 5.78C124.362 6.44667 124.456 7.76 124.549 9.72C124.642 11.68 124.689 13.5733 124.689 15.4C124.689 17.48 124.622 19.0467 124.489 20.1L122.629 19.88ZM139.385 9.9C139.612 12.3 139.805 14.1267 139.965 15.38C140.032 16.06 140.125 16.5667 140.245 16.9C140.365 17.2333 140.545 17.4667 140.785 17.6C141.025 17.7333 141.378 17.8 141.845 17.8H142.145L142.265 18.9L142.145 20H141.845C140.738 20 139.892 19.6667 139.305 19C138.718 18.32 138.338 17.2067 138.165 15.66C138.098 14.9533 137.958 13.78 137.745 12.14C137.705 11.7267 137.632 11.1067 137.525 10.28L139.385 9.9ZM139.225 18.6C138.425 18.8667 137.618 19 136.805 19C135.672 19 134.745 18.74 134.025 18.22C133.318 17.7 132.965 16.9867 132.965 16.08C132.965 14.9733 133.432 14.04 134.365 13.28C135.298 12.5067 136.552 11.8467 138.125 11.3L138.525 13.3C137.525 13.5533 136.645 13.9067 135.885 14.36C135.138 14.8133 134.745 15.2467 134.705 15.66C134.665 16.0067 134.825 16.3 135.185 16.54C135.558 16.7667 136.052 16.88 136.665 16.88C137.318 16.88 138.018 16.7467 138.765 16.48L139.225 18.6ZM157.267 17.8L157.387 18.9L157.267 20H157.067C155.681 19.9867 154.581 19.7067 153.767 19.16C152.954 18.6133 152.401 17.8 152.107 16.72L153.307 15.74C153.441 16.3267 153.814 16.82 154.427 17.22C155.054 17.6067 155.847 17.8 156.807 17.8H157.267ZM141.907 17.8H143.627C145.267 17.8 146.801 17.6067 148.227 17.22C149.654 16.8333 151.107 16.2467 152.587 15.46C153.001 15.2333 153.434 15.0267 153.887 14.84C154.341 14.64 154.714 14.5 155.007 14.42L155.067 15.6C154.334 15.5867 153.627 15.4867 152.947 15.3C152.281 15.1 151.547 14.8 150.747 14.4C149.507 13.7467 148.461 13.42 147.607 13.42C147.061 13.42 146.567 13.58 146.127 13.9C145.687 14.22 145.361 14.5867 145.147 15L143.867 14.1C144.321 13.1933 144.867 12.5067 145.507 12.04C146.147 11.5733 146.861 11.34 147.647 11.34C148.221 11.34 148.761 11.44 149.267 11.64C149.787 11.8267 150.514 12.16 151.447 12.64C152.314 13.08 153.007 13.4067 153.527 13.62C154.047 13.8333 154.627 14.0067 155.267 14.14L155.347 16.08C155.094 16.1467 154.774 16.28 154.387 16.48C154.001 16.6667 153.581 16.8867 153.127 17.14C151.301 18.1133 149.661 18.8333 148.207 19.3C146.767 19.7667 145.174 20 143.427 20H141.907V17.8ZM157.004 17.8H157.484C158.937 17.8 160.091 17.7133 160.944 17.54C161.811 17.3667 162.451 17.12 162.864 16.8C163.277 16.4667 163.571 16.0467 163.744 15.54C163.771 15.18 163.717 14.8267 163.584 14.48C163.464 14.1333 163.271 13.8467 163.004 13.62C162.737 13.3933 162.431 13.28 162.084 13.28C161.631 13.28 161.231 13.48 160.884 13.88C160.537 14.2667 160.331 14.7333 160.264 15.28C160.251 15.72 160.424 16.1333 160.784 16.52C161.144 16.9067 161.671 17.22 162.364 17.46C163.071 17.6867 163.904 17.8 164.864 17.8H166.804L166.924 18.9L166.804 20H165.604C164.257 20 163.044 19.8 161.964 19.4C160.897 19 160.057 18.46 159.444 17.78C158.844 17.1 158.544 16.3533 158.544 15.54C158.544 15.4333 158.557 15.2733 158.584 15.06C158.691 14.34 158.917 13.68 159.264 13.08C159.624 12.4667 160.057 11.9867 160.564 11.64C161.084 11.28 161.624 11.1 162.184 11.1C162.811 11.1 163.371 11.3 163.864 11.7C164.371 12.1 164.764 12.6133 165.044 13.24C165.324 13.8667 165.464 14.5067 165.464 15.16C165.464 15.28 165.451 15.46 165.424 15.7C165.224 17.1667 164.464 18.2533 163.144 18.96C161.837 19.6533 159.951 20 157.484 20H157.004V17.8ZM160.724 8.4C161.244 7.85333 161.764 7.33333 162.284 6.84C162.804 7.33333 163.324 7.85333 163.844 8.4L162.284 9.96L160.724 8.4ZM166.536 17.8H166.836C167.49 17.8 168.023 17.66 168.436 17.38C168.85 17.0867 169.176 16.6333 169.416 16.02C169.67 15.4067 169.87 14.58 170.016 13.54L171.676 13.88C171.61 14.2933 171.576 14.74 171.576 15.22C171.576 16.3267 171.863 17.1067 172.436 17.56C173.023 18.0133 173.976 18.24 175.296 18.24C176.51 18.24 177.59 18.1 178.536 17.82C179.483 17.54 180.216 17.1733 180.736 16.72C181.27 16.2667 181.536 15.7933 181.536 15.3C181.536 14.8733 181.356 14.52 180.996 14.24C180.65 13.9467 180.17 13.8 179.556 13.8C178.476 13.8 177.376 14.2733 176.256 15.22C175.15 16.1533 174.13 17.48 173.196 19.2L171.836 18.3C172.876 16.2467 174.063 14.64 175.396 13.48C176.743 12.3067 178.076 11.72 179.396 11.72C180.116 11.72 180.77 11.8733 181.356 12.18C181.943 12.4867 182.396 12.9133 182.716 13.46C183.05 13.9933 183.216 14.6 183.216 15.28C183.216 16.3067 182.883 17.2067 182.216 17.98C181.55 18.7533 180.623 19.3533 179.436 19.78C178.263 20.2067 176.936 20.42 175.456 20.42C172.75 20.42 171.096 19.5867 170.496 17.92C170.136 18.6 169.67 19.12 169.096 19.48C168.523 19.8267 167.763 20 166.816 20H166.536V17.8Z" fill="#8F8F8F"/>
</svg>
