<svg width="316" height="30" viewBox="0 0 316 30" fill="none" xmlns="http://www.w3.org/2000/svg">
<path d="M8.66031 20.2C8.63365 19.8 8.62031 19.4933 8.62031 19.28C8.62031 19 8.63365 18.58 8.66031 18.02C10.327 18.02 11.6603 17.8933 12.6603 17.64C13.6736 17.3733 14.467 16.9667 15.0403 16.42C15.6136 15.86 16.0603 15.1067 16.3803 14.16L18.0603 14.36C17.8203 15.0933 17.7003 15.7133 17.7003 16.22C17.7003 17.2733 18.2336 17.8 19.3003 17.8L19.4203 18.9L19.3003 20C18.4203 20 17.687 19.72 17.1003 19.16C16.527 18.6 16.247 17.8667 16.2603 16.96L16.6603 17C15.9003 18.1467 14.867 18.9667 13.5603 19.46C12.267 19.9533 10.6336 20.2 8.66031 20.2ZM3.44031 13.14C3.06698 14.1933 2.88031 15.0133 2.88031 15.6C2.88031 15.7467 2.88698 15.86 2.90031 15.94C3.00698 16.5933 3.55365 17.1067 4.54031 17.48C5.54031 17.84 6.96031 18.02 8.80031 18.02C8.82698 18.5533 8.84031 18.9533 8.84031 19.22C8.84031 19.4467 8.82698 19.7733 8.80031 20.2C6.45365 20.2133 4.62031 19.8867 3.30031 19.22C1.98031 18.54 1.26031 17.56 1.14031 16.28C1.12698 16.1733 1.12031 16.02 1.12031 15.82C1.12031 15.2733 1.19365 14.6933 1.34031 14.08C1.48698 13.4533 1.66698 12.8867 1.88031 12.38L3.44031 13.14ZM7.54031 23.42C8.06031 22.8733 8.58031 22.3533 9.10031 21.86C9.62031 22.3533 10.1403 22.8733 10.6603 23.42L9.10031 24.98L7.54031 23.42ZM19.0875 17.8H19.7275C20.4742 17.8 21.0075 17.64 21.3275 17.32C21.6608 17 21.8275 16.5 21.8275 15.82C21.8275 15.0467 21.7608 13.4267 21.6275 10.96C21.5075 8.48 21.3942 6.89333 21.2875 6.2L23.1875 5.78C23.2675 6.47333 23.3675 8.1 23.4875 10.66C23.6208 13.2067 23.6875 14.88 23.6875 15.68C23.6875 16.52 23.5275 17.2667 23.2075 17.92C22.8875 18.5733 22.4275 19.0867 21.8275 19.46C21.2408 19.82 20.5542 20 19.7675 20H19.0875V17.8ZM27.933 5.78C28.0396 6.54 28.1263 7.75333 28.193 9.42C28.2596 11.0733 28.293 12.6133 28.293 14.04V14.92C28.2796 15.72 28.313 16.3133 28.393 16.7C28.473 17.0867 28.653 17.3667 28.933 17.54C29.213 17.7133 29.6596 17.8 30.273 17.8H30.373L30.493 18.9L30.373 20H30.273C28.8596 20 27.8663 19.6333 27.293 18.9C26.733 18.1533 26.453 16.9733 26.453 15.36C26.453 13.8933 26.413 12.2267 26.333 10.36C26.2663 8.48 26.1663 7.09333 26.033 6.2L27.933 5.78ZM39.3813 18.18C40.0746 18.1 40.9146 18.02 41.9013 17.94C42.8879 17.8467 43.6613 17.8 44.2213 17.8L44.3413 18.9L44.2213 20C42.8746 20 41.6746 19.94 40.6213 19.82C39.5813 19.7 38.8413 19.52 38.4013 19.28L39.3813 18.18ZM35.4212 17.82C36.6479 17.82 37.7346 17.68 38.6813 17.4C39.6413 17.12 40.3813 16.7533 40.9013 16.3C41.4346 15.8467 41.7013 15.3667 41.7013 14.86C41.7013 14.4467 41.5279 14.1 41.1813 13.82C40.8479 13.54 40.3813 13.4 39.7813 13.4C38.7013 13.4 37.5746 13.9067 36.4013 14.92C35.2279 15.9333 34.1546 17.3267 33.1813 19.1L31.8213 18.18C32.9279 16.02 34.1679 14.3333 35.5413 13.12C36.9146 11.9067 38.2613 11.3 39.5813 11.3C40.3013 11.3 40.9479 11.4533 41.5213 11.76C42.1079 12.0667 42.5679 12.4933 42.9013 13.04C43.2346 13.5733 43.4013 14.1867 43.4013 14.88C43.4013 15.8933 43.0613 16.7933 42.3813 17.58C41.7013 18.3533 40.7679 18.9533 39.5813 19.38C38.4079 19.7933 37.0813 20 35.6013 20H30.1812V17.8L35.4212 17.82ZM33.3013 16.02C33.3413 15.5133 33.3613 14.9133 33.3613 14.22C33.3613 12.8867 33.2946 11.38 33.1613 9.7C33.0413 8.02 32.9213 6.86 32.8013 6.22L34.7013 5.78C34.8079 6.43333 34.9079 7.4 35.0013 8.68C35.1079 9.96 35.1613 11.2333 35.1613 12.5C35.1613 13.6733 35.1146 14.7067 35.0213 15.6L33.3013 16.02ZM47.988 16.26C48.8146 16.82 49.5613 17.26 50.228 17.58C50.8946 17.9 51.408 18.06 51.768 18.06C51.8746 18.06 51.9813 18.0333 52.088 17.98C52.288 17.8733 52.4413 17.7 52.548 17.46C52.6546 17.2067 52.708 16.92 52.708 16.6C52.708 15.9867 52.548 15.4267 52.228 14.92C51.908 14.4133 51.4946 14.16 50.988 14.16C50.588 14.16 50.1613 14.4333 49.708 14.98C49.268 15.5267 48.7813 16.3667 48.248 17.5C47.848 18.3267 47.3213 18.9533 46.668 19.38C46.0146 19.7933 45.268 20 44.428 20H44.068L44.108 17.8H44.468C45.0013 17.8 45.4946 17.6467 45.948 17.34C46.4013 17.0333 46.788 16.5667 47.108 15.94C47.6946 14.7933 48.288 13.8867 48.888 13.22C49.488 12.5533 50.1413 12.2 50.848 12.16C51.5546 12.12 52.168 12.3067 52.688 12.72C53.2213 13.1333 53.628 13.68 53.908 14.36C54.188 15.04 54.328 15.7533 54.328 16.5C54.328 17.2333 54.188 17.9067 53.908 18.52C53.628 19.12 53.2146 19.5733 52.668 19.88C52.4013 20.0267 52.0946 20.1 51.748 20.1C50.6946 20.1 49.1546 19.4267 47.128 18.08L47.988 16.26ZM68.5373 9.9C68.764 12.3 68.9573 14.1267 69.1173 15.38C69.184 16.06 69.2773 16.5667 69.3973 16.9C69.5173 17.2333 69.6973 17.4667 69.9373 17.6C70.1773 17.7333 70.5307 17.8 70.9973 17.8H71.2973L71.4173 18.9L71.2973 20H70.9973C69.8907 20 69.044 19.6667 68.4573 19C67.8707 18.32 67.4907 17.2067 67.3173 15.66C67.2507 14.9533 67.1107 13.78 66.8973 12.14C66.8573 11.7267 66.784 11.1067 66.6773 10.28L68.5373 9.9ZM68.3773 18.6C67.5773 18.8667 66.7707 19 65.9573 19C64.824 19 63.8973 18.74 63.1773 18.22C62.4707 17.7 62.1173 16.9867 62.1173 16.08C62.1173 14.9733 62.584 14.04 63.5173 13.28C64.4507 12.5067 65.704 11.8467 67.2773 11.3L67.6773 13.3C66.6773 13.5533 65.7973 13.9067 65.0373 14.36C64.2907 14.8133 63.8973 15.2467 63.8573 15.66C63.8173 16.0067 63.9773 16.3 64.3373 16.54C64.7107 16.7667 65.204 16.88 65.8173 16.88C66.4707 16.88 67.1707 16.7467 67.9173 16.48L68.3773 18.6ZM74.9997 16.26C75.8264 16.82 76.573 17.26 77.2397 17.58C77.9064 17.9 78.4197 18.06 78.7797 18.06C78.8864 18.06 78.993 18.0333 79.0997 17.98C79.2997 17.8733 79.453 17.7 79.5597 17.46C79.6664 17.2067 79.7197 16.92 79.7197 16.6C79.7197 15.9867 79.5597 15.4267 79.2397 14.92C78.9197 14.4133 78.5064 14.16 77.9997 14.16C77.5997 14.16 77.173 14.4333 76.7197 14.98C76.2797 15.5267 75.793 16.3667 75.2597 17.5C74.8597 18.3267 74.333 18.9533 73.6797 19.38C73.0264 19.7933 72.2797 20 71.4397 20H71.0797L71.1197 17.8H71.4797C72.013 17.8 72.5064 17.6467 72.9597 17.34C73.413 17.0333 73.7997 16.5667 74.1197 15.94C74.7064 14.7933 75.2997 13.8867 75.8997 13.22C76.4997 12.5533 77.153 12.2 77.8597 12.16C78.5664 12.12 79.1797 12.3067 79.6997 12.72C80.233 13.1333 80.6397 13.68 80.9197 14.36C81.1997 15.04 81.3397 15.7533 81.3397 16.5C81.3397 17.2333 81.1997 17.9067 80.9197 18.52C80.6397 19.12 80.2264 19.5733 79.6797 19.88C79.413 20.0267 79.1064 20.1 78.7597 20.1C77.7064 20.1 76.1664 19.4267 74.1397 18.08L74.9997 16.26ZM83.6367 19.88C83.7434 19.08 83.7967 17.68 83.7967 15.68C83.7967 13.8533 83.7501 11.98 83.6567 10.06C83.5767 8.12667 83.4834 6.84 83.3767 6.2L85.2767 5.78C85.3701 6.44667 85.4634 7.76 85.5567 9.72C85.6501 11.68 85.6967 13.5733 85.6967 15.4C85.6967 17.48 85.6301 19.0467 85.4967 20.1L83.6367 19.88ZM88.4205 17.02C88.9405 17.3 89.4538 17.5333 89.9605 17.72C90.4671 17.8933 91.1138 17.98 91.9005 17.98C92.6205 17.98 93.2071 17.8867 93.6605 17.7C94.1271 17.5133 94.4338 17.3 94.5805 17.06C94.6205 16.9533 94.6405 16.8267 94.6405 16.68C94.6405 16.1067 94.3005 15.3733 93.6205 14.48C92.9538 13.5733 91.9071 12.6067 90.4805 11.58L91.5605 9.68C93.0538 10.7867 94.2271 11.96 95.0805 13.2C95.9471 14.4267 96.3805 15.5733 96.3805 16.64C96.3805 17.1467 96.2871 17.6067 96.1005 18.02C95.8205 18.6733 95.3138 19.18 94.5805 19.54C93.8471 19.9 93.0205 20.08 92.1005 20.08C91.0205 20.08 90.1005 19.9267 89.3405 19.62C88.5805 19.3133 87.9805 18.9733 87.5405 18.6L88.4205 17.02ZM98.6563 19.88C98.7629 19.08 98.8163 17.68 98.8163 15.68C98.8163 13.8533 98.7696 11.98 98.6763 10.06C98.5963 8.12667 98.5029 6.84 98.3963 6.2L100.296 5.78C100.39 6.44667 100.483 7.76 100.576 9.72C100.67 11.68 100.716 13.5733 100.716 15.4C100.716 17.48 100.65 19.0467 100.516 20.1L98.6563 19.88Z" fill="#393939"/>
<path d="M117 23.67C116.81 23.67 116.62 23.6 116.47 23.45L109.95 16.93C108.89 15.87 108.89 14.13 109.95 13.07L116.47 6.55002C116.76 6.26002 117.24 6.26002 117.53 6.55002C117.82 6.84002 117.82 7.32002 117.53 7.61002L111.01 14.13C110.53 14.61 110.53 15.39 111.01 15.87L117.53 22.39C117.82 22.68 117.82 23.16 117.53 23.45C117.38 23.59 117.19 23.67 117 23.67Z" fill="#727272"/>
<path d="M140.452 20.2C140.426 19.72 140.412 19.36 140.412 19.12C140.412 18.8667 140.426 18.5 140.452 18.02C141.679 18.02 142.732 17.94 143.612 17.78C144.492 17.6067 145.166 17.4067 145.632 17.18C146.099 16.9533 146.352 16.7467 146.392 16.56C146.299 15.7333 145.912 14.4067 145.232 12.58L146.892 11.68C147.172 12.3333 147.439 13.1333 147.692 14.08C147.946 15.0267 148.072 15.8133 148.072 16.44C148.072 17.2267 147.746 17.9067 147.092 18.48C146.439 19.04 145.532 19.4667 144.372 19.76C143.226 20.0533 141.919 20.2 140.452 20.2ZM135.272 13.14C134.899 14.1933 134.712 15.0133 134.712 15.6C134.712 15.7467 134.719 15.86 134.732 15.94C134.839 16.5933 135.386 17.1067 136.372 17.48C137.372 17.84 138.792 18.02 140.632 18.02C140.659 18.5533 140.672 18.9533 140.672 19.22C140.672 19.4467 140.659 19.7733 140.632 20.2C138.286 20.2133 136.452 19.8867 135.132 19.22C133.812 18.54 133.092 17.56 132.972 16.28C132.959 16.1733 132.952 16.02 132.952 15.82C132.952 15.2733 133.026 14.6933 133.172 14.08C133.319 13.4533 133.499 12.8867 133.712 12.38L135.272 13.14ZM137.752 12.12C138.392 11.48 138.712 11.16 138.712 11.16L140.172 12.6C139.692 13.0933 139.206 13.58 138.712 14.06L137.272 12.6L137.752 12.12ZM141.272 12.12C141.912 11.48 142.232 11.16 142.232 11.16L143.692 12.6C143.212 13.0933 142.726 13.58 142.232 14.06L140.792 12.6L141.272 12.12ZM158.551 5.78C158.751 7.34 158.904 8.72 159.011 9.92C159.118 11.1067 159.171 12.2933 159.171 13.48L159.151 14.46C159.098 16.3933 158.298 17.86 156.751 18.86C155.218 19.86 153.264 20.44 150.891 20.6L150.351 18.5C152.431 18.3 154.104 17.8933 155.371 17.28C156.638 16.6667 157.271 15.7267 157.271 14.46C157.271 13.1267 157.218 11.8533 157.111 10.64C157.018 9.41333 156.864 7.93333 156.651 6.2L158.551 5.78ZM151.431 7.52C152.258 9.25333 152.891 10.9067 153.331 12.48C153.784 14.0533 154.011 15.4067 154.011 16.54C154.011 17.1267 153.951 17.64 153.831 18.08L152.071 18.48C152.218 18.1333 152.291 17.68 152.291 17.12C152.291 16.1067 152.064 14.8533 151.611 13.36C151.158 11.8667 150.564 10.2867 149.831 8.62L151.431 7.52ZM163.203 5.78C163.309 6.54 163.396 7.75333 163.463 9.42C163.529 11.0733 163.563 12.6133 163.563 14.04V14.92C163.549 15.72 163.583 16.3133 163.663 16.7C163.743 17.0867 163.923 17.3667 164.203 17.54C164.483 17.7133 164.929 17.8 165.543 17.8H165.643L165.763 18.9L165.643 20H165.543C164.129 20 163.136 19.6333 162.562 18.9C162.003 18.1533 161.723 16.9733 161.723 15.36C161.723 13.8933 161.683 12.2267 161.603 10.36C161.536 8.48 161.436 7.09333 161.303 6.2L163.203 5.78ZM165.391 17.8H165.871C167.324 17.8 168.477 17.7133 169.331 17.54C170.197 17.3667 170.837 17.12 171.251 16.8C171.664 16.4667 171.957 16.0467 172.131 15.54C172.157 15.18 172.104 14.8267 171.971 14.48C171.851 14.1333 171.657 13.8467 171.391 13.62C171.124 13.3933 170.817 13.28 170.471 13.28C170.017 13.28 169.617 13.48 169.271 13.88C168.924 14.2667 168.717 14.7333 168.651 15.28C168.637 15.72 168.811 16.1333 169.171 16.52C169.531 16.9067 170.057 17.22 170.751 17.46C171.457 17.6867 172.291 17.8 173.251 17.8H175.191L175.311 18.9L175.191 20H173.991C172.644 20 171.431 19.8 170.351 19.4C169.284 19 168.444 18.46 167.831 17.78C167.231 17.1 166.931 16.3533 166.931 15.54C166.931 15.4333 166.944 15.2733 166.971 15.06C167.077 14.34 167.304 13.68 167.651 13.08C168.011 12.4667 168.444 11.9867 168.951 11.64C169.471 11.28 170.011 11.1 170.571 11.1C171.197 11.1 171.757 11.3 172.251 11.7C172.757 12.1 173.151 12.6133 173.431 13.24C173.711 13.8667 173.851 14.5067 173.851 15.16C173.851 15.28 173.837 15.46 173.811 15.7C173.611 17.1667 172.851 18.2533 171.531 18.96C170.224 19.6533 168.337 20 165.871 20H165.391V17.8ZM167.911 8.04C168.551 7.4 168.871 7.08 168.871 7.08L170.331 8.52C169.851 9.01333 169.364 9.5 168.871 9.98L167.431 8.52L167.911 8.04ZM171.431 8.04C172.071 7.4 172.391 7.08 172.391 7.08L173.851 8.52C173.371 9.01333 172.884 9.5 172.391 9.98L170.951 8.52L171.431 8.04ZM178.863 16.26C179.69 16.82 180.436 17.26 181.103 17.58C181.77 17.9 182.283 18.06 182.643 18.06C182.75 18.06 182.856 18.0333 182.963 17.98C183.163 17.8733 183.316 17.7 183.423 17.46C183.53 17.2067 183.583 16.92 183.583 16.6C183.583 15.9867 183.423 15.4267 183.103 14.92C182.783 14.4133 182.37 14.16 181.863 14.16C181.463 14.16 181.036 14.4333 180.583 14.98C180.143 15.5267 179.656 16.3667 179.123 17.5C178.723 18.3267 178.196 18.9533 177.543 19.38C176.89 19.7933 176.143 20 175.303 20H174.943L174.983 17.8H175.343C175.876 17.8 176.37 17.6467 176.823 17.34C177.276 17.0333 177.663 16.5667 177.983 15.94C178.57 14.7933 179.163 13.8867 179.763 13.22C180.363 12.5533 181.016 12.2 181.723 12.16C182.43 12.12 183.043 12.3067 183.563 12.72C184.096 13.1333 184.503 13.68 184.783 14.36C185.063 15.04 185.203 15.7533 185.203 16.5C185.203 17.2333 185.063 17.9067 184.783 18.52C184.503 19.12 184.09 19.5733 183.543 19.88C183.276 20.0267 182.97 20.1 182.623 20.1C181.57 20.1 180.03 19.4267 178.003 18.08L178.863 16.26Z" fill="#727272"/>
<path d="M201 23.67C200.81 23.67 200.62 23.6 200.47 23.45L193.95 16.93C192.89 15.87 192.89 14.13 193.95 13.07L200.47 6.55002C200.76 6.26002 201.24 6.26002 201.53 6.55002C201.82 6.84002 201.82 7.32002 201.53 7.61002L195.01 14.13C194.53 14.61 194.53 15.39 195.01 15.87L201.53 22.39C201.82 22.68 201.82 23.16 201.53 23.45C201.38 23.59 201.19 23.67 201 23.67Z" fill="#727272"/>
<path d="M223.035 25.64C221.862 25.64 220.822 25.42 219.915 24.98C219.009 24.54 218.295 23.8933 217.775 23.04C217.255 22.2 216.995 21.2 216.995 20.04C216.995 19.24 217.129 18.38 217.395 17.46C217.675 16.54 217.995 15.7133 218.355 14.98L219.895 15.7C219.562 16.4467 219.295 17.16 219.095 17.84C218.895 18.5067 218.795 19.1533 218.795 19.78C218.795 20.9933 219.162 21.9067 219.895 22.52C220.629 23.1467 221.675 23.46 223.035 23.46C223.809 23.46 224.542 23.36 225.235 23.16C225.942 22.96 226.529 22.7133 226.995 22.42C227.462 22.14 227.749 21.88 227.855 21.64C227.709 21.4 227.235 21.0267 226.435 20.52C225.635 20.0133 224.789 19.5867 223.895 19.24L224.355 17.16C225.422 17.3733 226.369 17.5333 227.195 17.64C228.035 17.7467 228.849 17.8 229.635 17.8H230.055L230.175 18.9L230.055 20H229.635C228.755 20 227.889 19.94 227.035 19.82C226.182 19.6867 225.135 19.4933 223.895 19.24L224.375 17.86L224.815 18.06C226.135 18.6333 227.262 19.22 228.195 19.82C229.129 20.4067 229.589 21.04 229.575 21.72C229.562 22.3467 229.255 22.9667 228.655 23.58C228.055 24.1933 227.255 24.6867 226.255 25.06C225.269 25.4467 224.195 25.64 223.035 25.64ZM235.888 17.8L236.008 18.9L235.888 20H235.668C235.068 20 234.508 19.82 233.988 19.46C233.481 19.0867 233.075 18.58 232.768 17.94C232.461 17.3 232.308 16.5867 232.308 15.8C232.321 15.48 232.268 14 232.148 11.36C232.028 8.72 231.928 7 231.848 6.2L233.748 5.8C233.828 6.6 233.901 8.17333 233.968 10.52C234.048 12.8533 234.095 14.1733 234.108 14.48L234.148 15.82C234.228 17.14 234.735 17.8 235.668 17.8H235.888ZM229.728 17.8H230.248C230.995 17.8 231.528 17.6467 231.848 17.34C232.168 17.02 232.321 16.5067 232.308 15.8L233.708 15.96C233.708 17.1733 233.408 18.1533 232.808 18.9C232.221 19.6333 231.375 20 230.268 20H229.728V17.8ZM235.665 17.8H235.965C236.618 17.8 237.152 17.66 237.565 17.38C237.978 17.0867 238.305 16.6333 238.545 16.02C238.798 15.4067 238.998 14.58 239.145 13.54L240.805 13.88C240.738 14.2933 240.705 14.74 240.705 15.22C240.705 16.3267 240.992 17.1067 241.565 17.56C242.152 18.0133 243.105 18.24 244.425 18.24C245.638 18.24 246.718 18.1 247.665 17.82C248.612 17.54 249.345 17.1733 249.865 16.72C250.398 16.2667 250.665 15.7933 250.665 15.3C250.665 14.8733 250.485 14.52 250.125 14.24C249.778 13.9467 249.298 13.8 248.685 13.8C247.605 13.8 246.505 14.2733 245.385 15.22C244.278 16.1533 243.258 17.48 242.325 19.2L240.965 18.3C242.005 16.2467 243.192 14.64 244.525 13.48C245.872 12.3067 247.205 11.72 248.525 11.72C249.245 11.72 249.898 11.8733 250.485 12.18C251.072 12.4867 251.525 12.9133 251.845 13.46C252.178 13.9933 252.345 14.6 252.345 15.28C252.345 16.3067 252.012 17.2067 251.345 17.98C250.678 18.7533 249.752 19.3533 248.565 19.78C247.392 20.2067 246.065 20.42 244.585 20.42C241.878 20.42 240.225 19.5867 239.625 17.92C239.265 18.6 238.798 19.12 238.225 19.48C237.652 19.8267 236.892 20 235.945 20H235.665V17.8ZM254.629 19.88C254.736 19.08 254.789 17.68 254.789 15.68C254.789 13.8533 254.742 11.98 254.649 10.06C254.569 8.12667 254.476 6.84 254.369 6.2L256.269 5.78C256.362 6.44667 256.456 7.76 256.549 9.72C256.642 11.68 256.689 13.5733 256.689 15.4C256.689 17.48 256.622 19.0467 256.489 20.1L254.629 19.88ZM271.385 9.9C271.612 12.3 271.805 14.1267 271.965 15.38C272.032 16.06 272.125 16.5667 272.245 16.9C272.365 17.2333 272.545 17.4667 272.785 17.6C273.025 17.7333 273.378 17.8 273.845 17.8H274.145L274.265 18.9L274.145 20H273.845C272.738 20 271.892 19.6667 271.305 19C270.718 18.32 270.338 17.2067 270.165 15.66C270.098 14.9533 269.958 13.78 269.745 12.14C269.705 11.7267 269.632 11.1067 269.525 10.28L271.385 9.9ZM271.225 18.6C270.425 18.8667 269.618 19 268.805 19C267.672 19 266.745 18.74 266.025 18.22C265.318 17.7 264.965 16.9867 264.965 16.08C264.965 14.9733 265.432 14.04 266.365 13.28C267.298 12.5067 268.552 11.8467 270.125 11.3L270.525 13.3C269.525 13.5533 268.645 13.9067 267.885 14.36C267.138 14.8133 266.745 15.2467 266.705 15.66C266.665 16.0067 266.825 16.3 267.185 16.54C267.558 16.7667 268.052 16.88 268.665 16.88C269.318 16.88 270.018 16.7467 270.765 16.48L271.225 18.6ZM289.267 17.8L289.387 18.9L289.267 20H289.067C287.681 19.9867 286.581 19.7067 285.767 19.16C284.954 18.6133 284.401 17.8 284.107 16.72L285.307 15.74C285.441 16.3267 285.814 16.82 286.427 17.22C287.054 17.6067 287.847 17.8 288.807 17.8H289.267ZM273.907 17.8H275.627C277.267 17.8 278.801 17.6067 280.227 17.22C281.654 16.8333 283.107 16.2467 284.587 15.46C285.001 15.2333 285.434 15.0267 285.887 14.84C286.341 14.64 286.714 14.5 287.007 14.42L287.067 15.6C286.334 15.5867 285.627 15.4867 284.947 15.3C284.281 15.1 283.547 14.8 282.747 14.4C281.507 13.7467 280.461 13.42 279.607 13.42C279.061 13.42 278.567 13.58 278.127 13.9C277.687 14.22 277.361 14.5867 277.147 15L275.867 14.1C276.321 13.1933 276.867 12.5067 277.507 12.04C278.147 11.5733 278.861 11.34 279.647 11.34C280.221 11.34 280.761 11.44 281.267 11.64C281.787 11.8267 282.514 12.16 283.447 12.64C284.314 13.08 285.007 13.4067 285.527 13.62C286.047 13.8333 286.627 14.0067 287.267 14.14L287.347 16.08C287.094 16.1467 286.774 16.28 286.387 16.48C286.001 16.6667 285.581 16.8867 285.127 17.14C283.301 18.1133 281.661 18.8333 280.207 19.3C278.767 19.7667 277.174 20 275.427 20H273.907V17.8ZM289.004 17.8H289.484C290.937 17.8 292.091 17.7133 292.944 17.54C293.811 17.3667 294.451 17.12 294.864 16.8C295.277 16.4667 295.571 16.0467 295.744 15.54C295.771 15.18 295.717 14.8267 295.584 14.48C295.464 14.1333 295.271 13.8467 295.004 13.62C294.737 13.3933 294.431 13.28 294.084 13.28C293.631 13.28 293.231 13.48 292.884 13.88C292.537 14.2667 292.331 14.7333 292.264 15.28C292.251 15.72 292.424 16.1333 292.784 16.52C293.144 16.9067 293.671 17.22 294.364 17.46C295.071 17.6867 295.904 17.8 296.864 17.8H298.804L298.924 18.9L298.804 20H297.604C296.257 20 295.044 19.8 293.964 19.4C292.897 19 292.057 18.46 291.444 17.78C290.844 17.1 290.544 16.3533 290.544 15.54C290.544 15.4333 290.557 15.2733 290.584 15.06C290.691 14.34 290.917 13.68 291.264 13.08C291.624 12.4667 292.057 11.9867 292.564 11.64C293.084 11.28 293.624 11.1 294.184 11.1C294.811 11.1 295.371 11.3 295.864 11.7C296.371 12.1 296.764 12.6133 297.044 13.24C297.324 13.8667 297.464 14.5067 297.464 15.16C297.464 15.28 297.451 15.46 297.424 15.7C297.224 17.1667 296.464 18.2533 295.144 18.96C293.837 19.6533 291.951 20 289.484 20H289.004V17.8ZM292.724 8.4C293.244 7.85333 293.764 7.33333 294.284 6.84C294.804 7.33333 295.324 7.85333 295.844 8.4L294.284 9.96L292.724 8.4ZM298.536 17.8H298.836C299.49 17.8 300.023 17.66 300.436 17.38C300.85 17.0867 301.176 16.6333 301.416 16.02C301.67 15.4067 301.87 14.58 302.016 13.54L303.676 13.88C303.61 14.2933 303.576 14.74 303.576 15.22C303.576 16.3267 303.863 17.1067 304.436 17.56C305.023 18.0133 305.976 18.24 307.296 18.24C308.51 18.24 309.59 18.1 310.536 17.82C311.483 17.54 312.216 17.1733 312.736 16.72C313.27 16.2667 313.536 15.7933 313.536 15.3C313.536 14.8733 313.356 14.52 312.996 14.24C312.65 13.9467 312.17 13.8 311.556 13.8C310.476 13.8 309.376 14.2733 308.256 15.22C307.15 16.1533 306.13 17.48 305.196 19.2L303.836 18.3C304.876 16.2467 306.063 14.64 307.396 13.48C308.743 12.3067 310.076 11.72 311.396 11.72C312.116 11.72 312.77 11.8733 313.356 12.18C313.943 12.4867 314.396 12.9133 314.716 13.46C315.05 13.9933 315.216 14.6 315.216 15.28C315.216 16.3067 314.883 17.2067 314.216 17.98C313.55 18.7533 312.623 19.3533 311.436 19.78C310.263 20.2067 308.936 20.42 307.456 20.42C304.75 20.42 303.096 19.5867 302.496 17.92C302.136 18.6 301.67 19.12 301.096 19.48C300.523 19.8267 299.763 20 298.816 20H298.536V17.8Z" fill="#8F8F8F"/>
</svg>
