<svg width="55" height="55" viewBox="0 0 55 55" fill="none" xmlns="http://www.w3.org/2000/svg">
<path d="M27.5 52.1356C25.8958 52.1356 24.2687 51.5169 23.0542 50.3023L19.1354 46.4294C18.1729 45.4669 16.8438 44.9397 15.4917 44.9397H13.75C9.00625 44.9397 5.15625 41.1127 5.15625 36.4148V11.4126C5.15625 6.71471 9.00625 2.8877 13.75 2.8877H41.25C45.9938 2.8877 49.8438 6.71471 49.8438 11.4126V36.4148C49.8438 41.1127 45.9938 44.9397 41.25 44.9397H39.5083C38.1562 44.9397 36.8271 45.4898 35.8646 46.4294L31.9458 50.3023C30.7313 51.5169 29.1042 52.1356 27.5 52.1356ZM13.75 6.30226C10.9083 6.30226 8.59375 8.59386 8.59375 11.3897V36.3919C8.59375 39.2106 10.9083 41.4793 13.75 41.4793H15.4917C17.7604 41.4793 19.9604 42.396 21.5645 43.9773L25.4833 47.8502C26.6062 48.9502 28.4167 48.9502 29.5396 47.8502L33.4583 43.9773C35.0624 42.396 37.2625 41.4793 39.5312 41.4793H41.25C44.0917 41.4793 46.4062 39.1877 46.4062 36.3919V11.3897C46.4062 8.57094 44.0917 6.30226 41.25 6.30226H13.75Z" fill="#E34B95"/>
<path d="M27.4998 24.6356C23.6039 24.6356 20.4414 21.4731 20.4414 17.5773C20.4414 13.6814 23.6039 10.519 27.4998 10.519C31.3956 10.519 34.5581 13.6814 34.5581 17.5773C34.5581 21.4731 31.3956 24.6356 27.4998 24.6356ZM27.4998 13.9565C25.506 13.9565 23.8789 15.5835 23.8789 17.5773C23.8789 19.571 25.506 21.1981 27.4998 21.1981C29.4935 21.1981 31.1206 19.571 31.1206 17.5773C31.1206 15.5835 29.4935 13.9565 27.4998 13.9565Z" fill="#E34B95"/>
<path d="M36.6668 37.6065C35.7272 37.6065 34.9481 36.8273 34.9481 35.8877C34.9481 32.7252 31.6022 30.1357 27.5002 30.1357C23.3981 30.1357 20.0522 32.7252 20.0522 35.8877C20.0522 36.8273 19.2731 37.6065 18.3335 37.6065C17.3939 37.6065 16.6147 36.8273 16.6147 35.8877C16.6147 30.8231 21.496 26.6982 27.5002 26.6982C33.5043 26.6982 38.3856 30.8231 38.3856 35.8877C38.3856 36.8273 37.6064 37.6065 36.6668 37.6065Z" fill="#E34B95"/>
</svg>
