<svg width="24" height="24" viewBox="0 0 24 24" fill="none" xmlns="http://www.w3.org/2000/svg">
<path d="M15.8101 20.1805C15.5501 20.1805 15.2801 20.1705 14.9901 20.1405C14.4701 20.1005 13.8801 20.0005 13.2701 19.8505L11.5901 19.4505C6.98005 18.3605 5.47005 15.9205 6.55005 11.3205L7.53005 7.1305C7.75005 6.1805 8.01005 5.4105 8.33005 4.7705C10.0501 1.2205 13.3401 1.5405 15.6801 2.0905L17.3501 2.4805C19.6901 3.0305 21.1701 3.9005 22.0001 5.2305C22.8201 6.5605 22.9501 8.2705 22.4001 10.6105L21.4201 14.7905C20.5601 18.4505 18.7701 20.1805 15.8101 20.1805ZM13.1201 3.2505C11.4501 3.2505 10.3901 3.9405 9.68005 5.4205C9.42005 5.9605 9.19005 6.6305 8.99005 7.4705L8.01005 11.6605C7.12005 15.4405 8.15005 17.0905 11.9301 17.9905L13.6101 18.3905C14.1501 18.5205 14.6601 18.6005 15.1201 18.6405C17.84 18.9105 19.1901 17.7205 19.9501 14.4505L20.9301 10.2705C21.3801 8.3405 21.3201 6.9905 20.7201 6.0205C20.1201 5.0505 18.9401 4.3905 17.0001 3.9405L15.3301 3.5505C14.5001 3.3505 13.7601 3.2505 13.1201 3.2505Z" fill="#393939"/>
<path d="M8.33005 22.2505C5.76005 22.2505 4.12005 20.7105 3.07005 17.4605L1.79005 13.5105C0.370052 9.1105 1.64005 6.6305 6.02005 5.2105L7.60005 4.7005C8.12005 4.5405 8.51005 4.4305 8.86005 4.3705C9.15005 4.3105 9.43005 4.4205 9.60005 4.6505C9.77005 4.8805 9.80005 5.1805 9.68005 5.4405C9.42005 5.9705 9.19005 6.6405 9.00005 7.4805L8.02005 11.6705C7.13005 15.4505 8.16005 17.1005 11.9401 18.0005L13.6201 18.4005C14.1601 18.5305 14.6701 18.6105 15.1301 18.6505C15.4501 18.6805 15.7101 18.9005 15.8001 19.2105C15.8801 19.5205 15.7601 19.8405 15.5001 20.0205C14.8401 20.4705 14.0101 20.8505 12.9601 21.1905L11.3801 21.7105C10.2301 22.0705 9.23005 22.2505 8.33005 22.2505ZM7.78005 6.2205L6.49005 6.6405C2.92005 7.7905 2.07005 9.4705 3.22005 13.0505L4.50005 17.0005C5.66005 20.5705 7.34005 21.4305 10.9101 20.2805L12.4901 19.7605C12.5501 19.7405 12.6001 19.7205 12.6601 19.7005L11.6001 19.4505C6.99005 18.3605 5.48005 15.9205 6.56005 11.3205L7.54005 7.1305C7.61005 6.8105 7.69005 6.5005 7.78005 6.2205Z" fill="#393939"/>
<path d="M17.4901 10.5105C17.4301 10.5105 17.3701 10.5005 17.3001 10.4905L12.4501 9.2605C12.0501 9.1605 11.8101 8.7505 11.9101 8.3505C12.0101 7.9505 12.4201 7.7105 12.8201 7.8105L17.6701 9.0405C18.0701 9.1405 18.3101 9.5505 18.2101 9.9505C18.1301 10.2805 17.8201 10.5105 17.4901 10.5105Z" fill="#393939"/>
<path d="M14.5601 13.8905C14.5001 13.8905 14.4401 13.8805 14.3701 13.8705L11.4601 13.1305C11.0601 13.0305 10.8201 12.6205 10.9201 12.2205C11.0201 11.8205 11.4301 11.5805 11.8301 11.6805L14.7401 12.4205C15.1401 12.5205 15.3801 12.9305 15.2801 13.3305C15.2001 13.6705 14.9001 13.8905 14.5601 13.8905Z" fill="#393939"/>
</svg>
