<svg width="24" height="24" viewBox="0 0 24 24" fill="none" xmlns="http://www.w3.org/2000/svg">
<path d="M8.87598 9.3422L11.284 10.1815C11.6429 10.3096 11.8692 10.4843 12.0104 10.6883C12.1526 10.8937 12.2402 11.1747 12.2402 11.57L12.2403 11.5745C12.2478 12.3975 11.6015 13.04 10.8402 13.04H9.34024C8.48166 13.04 7.76024 12.3193 7.76024 11.39C7.76024 11.2561 7.87639 11.14 8.01024 11.14C8.1441 11.14 8.26024 11.2561 8.26024 11.39C8.26024 11.9717 8.6927 12.54 9.34024 12.54H10.8402C11.4107 12.54 11.7502 12.0371 11.7502 11.57C11.7502 11.4118 11.748 11.1539 11.5925 10.9451C11.5073 10.8307 11.4037 10.7655 11.3225 10.7257C11.2566 10.6935 11.1834 10.6681 11.1354 10.6515C11.1317 10.6502 11.1282 10.649 11.1248 10.6478C11.1248 10.6478 11.1248 10.6478 11.1248 10.6478C11.1247 10.6478 11.1246 10.6477 11.1245 10.6477L8.71481 9.80781L8.71481 9.80781L8.71324 9.80726C8.35447 9.68355 8.12641 9.51085 7.98353 9.30686C7.83992 9.10181 7.75024 8.81923 7.75024 8.41995C7.75024 7.6009 8.40134 6.94995 9.16024 6.94995H10.6602C11.5188 6.94995 12.2402 7.67056 12.2402 8.59995C12.2402 8.73381 12.1241 8.84995 11.9902 8.84995C11.8564 8.84995 11.7402 8.73381 11.7402 8.59995C11.7402 8.01818 11.3078 7.44995 10.6602 7.44995H9.16024C8.58981 7.44995 8.25024 7.95281 8.25024 8.41995C8.25024 8.57812 8.25246 8.836 8.40797 9.04483C8.49316 9.15922 8.59677 9.22438 8.678 9.26415C8.74391 9.29643 8.81705 9.32177 8.86511 9.33843C8.8689 9.33974 8.87253 9.341 8.87598 9.3422Z" fill="#DC1E7A" stroke="#DC1E7A"/>
<path d="M10.0002 13.84C9.86639 13.84 9.75024 13.7238 9.75024 13.59V12.85C9.75024 12.7161 9.86639 12.6 10.0002 12.6C10.1341 12.6 10.2502 12.7161 10.2502 12.85V13.59C10.2502 13.7295 10.1385 13.84 10.0002 13.84Z" fill="#DC1E7A" stroke="#DC1E7A"/>
<path d="M10.0002 7.44003C9.86639 7.44003 9.75024 7.32389 9.75024 7.19003V6.41003C9.75024 6.27618 9.86639 6.16003 10.0002 6.16003C10.1341 6.16003 10.2502 6.27618 10.2502 6.41003V7.19003C10.2502 7.32389 10.1341 7.44003 10.0002 7.44003Z" fill="#DC1E7A" stroke="#DC1E7A"/>
<path d="M9.99024 18.72C5.17024 18.72 1.25024 14.8 1.25024 9.97999C1.25024 5.15999 5.17024 1.23999 9.99024 1.23999C14.8102 1.23999 18.7302 5.15999 18.7302 9.97999C18.7302 14.8 14.8002 18.72 9.99024 18.72ZM9.99024 2.74999C6.00024 2.74999 2.75024 5.99999 2.75024 9.98999C2.75024 13.98 6.00024 17.22 9.99024 17.22C13.9802 17.22 17.2302 13.97 17.2302 9.97999C17.2302 5.98999 13.9802 2.74999 9.99024 2.74999Z" fill="#DC1E7A"/>
<path d="M17.0203 22.72C15.1703 22.72 13.4303 21.82 12.3603 20.3C12.1203 19.96 12.2003 19.49 12.5403 19.25C12.8803 19.01 13.3503 19.09 13.5903 19.43C14.3803 20.55 15.6603 21.21 17.0203 21.21C19.3403 21.21 21.2203 19.33 21.2203 17.01C21.2203 15.66 20.5603 14.38 19.4603 13.59C19.1203 13.35 19.0503 12.88 19.2903 12.54C19.5303 12.2 20.0003 12.13 20.3403 12.37C21.8303 13.44 22.7203 15.17 22.7203 17.01C22.7203 20.17 20.1703 22.72 17.0203 22.72Z" fill="#DC1E7A"/>
</svg>
