<svg width="625" height="442" viewBox="0 0 625 442" fill="none" xmlns="http://www.w3.org/2000/svg">
<path d="M1 1C106.282 23.9541 336.427 70.2431 298.507 218.389C268.677 334.931 488.322 377.478 624 332.32" stroke="#4BB09C" stroke-dasharray="14 14"/>
<path d="M285.915 20.3137C292.163 14.0653 302.294 14.0653 308.542 20.3137L502.143 213.915C508.392 220.163 508.392 230.294 502.143 236.542L308.542 430.143C302.294 436.392 292.163 436.392 285.915 430.143L92.3138 236.542C86.0654 230.294 86.0654 220.163 92.3138 213.915L285.915 20.3137Z" fill="#DC1E7A"/>
<circle cx="145.5" cy="122.5" r="6.5" fill="#F1A5CA"/>
<circle cx="350" cy="9" r="6" fill="#4BB09C"/>
<circle cx="483.5" cy="349.5" r="15.5" fill="#5DD9C1"/>
<circle cx="253" cy="432" r="9" fill="#275E53"/>
<circle cx="90" cy="346" r="9" fill="#CEF4EC"/>
<circle cx="184.5" cy="55.5" r="9.5" fill="#E34B95"/>
<ellipse cx="525.5" cy="207" rx="9.5" ry="10" fill="#580C31"/>
</svg>
