<svg width="24" height="24" viewBox="0 0 24 24" fill="none" xmlns="http://www.w3.org/2000/svg">
<path d="M13.3 8.11007L14.62 10.7501C14.8 11.1101 15.28 11.4701 15.68 11.5301L18.07 11.9301C19.6 12.1901 19.96 13.2901 18.86 14.3901L17 16.2601C16.69 16.5701 16.51 17.1801 16.61 17.6201L17.14 19.9301C17.56 21.7501 16.59 22.4601 14.98 21.5101L12.74 20.1801C12.33 19.9401 11.67 19.9401 11.26 20.1801L9.00997 21.5001C7.39997 22.4501 6.42997 21.7401 6.84997 19.9201L7.37997 17.6101C7.47997 17.1801 7.29997 16.5701 6.98997 16.2501L5.13997 14.4001C4.03997 13.3001 4.39997 12.1901 5.92997 11.9401L8.31997 11.5401C8.71997 11.4701 9.19997 11.1201 9.37997 10.7601L10.7 8.12007C11.41 6.68007 12.59 6.68007 13.3 8.11007Z" fill="#E9C600"/>
</svg>
