<svg width="20" height="20" viewBox="0 0 20 20" fill="none" xmlns="http://www.w3.org/2000/svg">
<path d="M14.7167 18.8918C14.2751 18.8918 13.7084 18.7501 13.0001 18.3334L10.5084 16.8584C10.2501 16.7084 9.75006 16.7084 9.50006 16.8584L7.00006 18.3334C5.52506 19.2084 4.65839 18.8584 4.26672 18.5751C3.88339 18.2918 3.28339 17.5668 3.67506 15.9001L4.26672 13.3418C4.33339 13.0751 4.20006 12.6168 4.00006 12.4168L1.93339 10.3501C0.900057 9.31676 0.983391 8.43343 1.12506 8.0001C1.26672 7.56676 1.71672 6.8001 3.15006 6.55843L5.80839 6.11676C6.05839 6.0751 6.41672 5.80843 6.52506 5.58343L8.00006 2.64176C8.66672 1.3001 9.54172 1.1001 10.0001 1.1001C10.4584 1.1001 11.3334 1.3001 12.0001 2.64176L13.4667 5.5751C13.5834 5.8001 13.9417 6.06676 14.1917 6.10843L16.8501 6.5501C18.2917 6.79176 18.7417 7.55843 18.8751 7.99176C19.0084 8.4251 19.0917 9.30843 18.0667 10.3418L16.0001 12.4168C15.8001 12.6168 15.6751 13.0668 15.7334 13.3418L16.3251 15.9001C16.7084 17.5668 16.1167 18.2918 15.7334 18.5751C15.5251 18.7251 15.1917 18.8918 14.7167 18.8918ZM10.0001 15.4918C10.4084 15.4918 10.8167 15.5918 11.1417 15.7834L13.6334 17.2584C14.3584 17.6918 14.8167 17.6918 14.9917 17.5668C15.1667 17.4418 15.2917 17.0001 15.1084 16.1834L14.5167 13.6251C14.3584 12.9334 14.6167 12.0418 15.1167 11.5334L17.1834 9.46676C17.5917 9.05843 17.7751 8.65843 17.6917 8.38343C17.6001 8.10843 17.2167 7.88343 16.6501 7.79176L13.9917 7.3501C13.3501 7.24176 12.6501 6.7251 12.3584 6.14176L10.8917 3.20843C10.6251 2.6751 10.2917 2.35843 10.0001 2.35843C9.70839 2.35843 9.37506 2.6751 9.11672 3.20843L7.64172 6.14176C7.35006 6.7251 6.65006 7.24176 6.00839 7.3501L3.35839 7.79176C2.79172 7.88343 2.40839 8.10843 2.31672 8.38343C2.22506 8.65843 2.41672 9.06676 2.82506 9.46676L4.89172 11.5334C5.39172 12.0334 5.65006 12.9334 5.49172 13.6251L4.90006 16.1834C4.70839 17.0084 4.84172 17.4418 5.01672 17.5668C5.19172 17.6918 5.64172 17.6834 6.37506 17.2584L8.86672 15.7834C9.18339 15.5918 9.59172 15.4918 10.0001 15.4918Z" fill="#E9C600"/>
</svg>
