<svg width="24" height="24" viewBox="0 0 24 24" fill="none" xmlns="http://www.w3.org/2000/svg">
<path d="M13.7302 3.51001L15.4902 7.03001C15.7302 7.52002 16.3702 7.99001 16.9102 8.08001L20.1002 8.61001C22.1402 8.95001 22.6202 10.43 21.1502 11.89L18.6702 14.37C18.2502 14.79 18.0202 15.6 18.1502 16.18L18.8602 19.25C19.4202 21.68 18.1302 22.62 15.9802 21.35L12.9902 19.58C12.4502 19.26 11.5602 19.26 11.0102 19.58L8.02015 21.35C5.88015 22.62 4.58015 21.67 5.14015 19.25L5.85015 16.18C5.98015 15.6 5.75015 14.79 5.33015 14.37L2.85015 11.89C1.39015 10.43 1.86015 8.95001 3.90015 8.61001L7.09015 8.08001C7.62015 7.99001 8.26015 7.52002 8.50015 7.03001L10.2602 3.51001C11.2202 1.60001 12.7802 1.60001 13.7302 3.51001Z" stroke="#DC1E7A" stroke-width="1.5" stroke-linecap="round" stroke-linejoin="round"/>
</svg>
