<svg width="24" height="24" viewBox="0 0 24 24" fill="none" xmlns="http://www.w3.org/2000/svg">
<path d="M12.0002 12.25C9.10639 12.25 6.75024 9.89386 6.75024 7C6.75024 4.10614 9.10639 1.75 12.0002 1.75C14.8941 1.75 17.2502 4.10614 17.2502 7C17.2502 9.89386 14.8941 12.25 12.0002 12.25ZM12.0002 2.25C9.3841 2.25 7.25024 4.38386 7.25024 7C7.25024 9.61614 9.3841 11.75 12.0002 11.75C14.6164 11.75 16.7502 9.61614 16.7502 7C16.7502 4.38386 14.6164 2.25 12.0002 2.25Z" fill="#DC1E7A" stroke="#DC1E7A"/>
<path d="M20.5904 22.25C20.4565 22.25 20.3404 22.1339 20.3404 22C20.3404 18.1738 16.4845 15.25 12.0004 15.25C7.51626 15.25 3.6604 18.1738 3.6604 22C3.6604 22.1339 3.54426 22.25 3.4104 22.25C3.27654 22.25 3.1604 22.1339 3.1604 22C3.1604 18.0893 7.03529 14.75 12.0004 14.75C16.9655 14.75 20.8404 18.0893 20.8404 22C20.8404 22.1339 20.7243 22.25 20.5904 22.25Z" fill="#DC1E7A" stroke="#DC1E7A"/>
</svg>
