<svg width="812" height="812" viewBox="0 0 812 812" fill="none" xmlns="http://www.w3.org/2000/svg">
<path d="M812 621.018H0V621.424H812V621.018Z" fill="#EBEBEB"/>
<path d="M730.637 647.148H676.851V647.554H730.637V647.148Z" fill="#EBEBEB"/>
<path d="M537.902 651.565H523.789V651.971H537.902V651.565Z" fill="#EBEBEB"/>
<path d="M675.227 632.077H644.062V632.483H675.227V632.077Z" fill="#EBEBEB"/>
<path d="M155.336 634.805H85.1953V635.211H155.336V634.805Z" fill="#EBEBEB"/>
<path d="M180.086 634.805H169.806V635.211H180.086V634.805Z" fill="#EBEBEB"/>
<path d="M365.643 641.659H213.507V642.065H365.643V641.659Z" fill="#EBEBEB"/>
<path d="M384.888 548.587H71.3095C68.853 548.583 66.4985 547.604 64.763 545.865C63.0275 544.127 62.0527 541.771 62.0527 539.314V98.5118C62.0741 96.0693 63.0583 93.7339 64.7915 92.0129C66.5247 90.2918 68.867 89.3241 71.3095 89.3199H384.888C387.347 89.3199 389.706 90.2969 391.445 92.036C393.184 93.775 394.161 96.1336 394.161 98.593V539.314C394.161 541.773 393.184 544.132 391.445 545.871C389.706 547.61 387.347 548.587 384.888 548.587ZM71.3095 89.6447C68.9607 89.649 66.7095 90.5851 65.0501 92.2476C63.3907 93.91 62.4587 96.1629 62.4587 98.5118V539.314C62.4587 541.663 63.3907 543.916 65.0501 545.578C66.7095 547.241 68.9607 548.177 71.3095 548.181H384.888C387.238 548.177 389.491 547.241 391.153 545.579C392.815 543.917 393.75 541.664 393.755 539.314V98.5118C393.75 96.1614 392.815 93.9085 391.153 92.2466C389.491 90.5846 387.238 89.649 384.888 89.6447H71.3095Z" fill="#EBEBEB"/>
<path d="M736.175 548.587H422.581C420.123 548.583 417.766 547.604 416.028 545.866C414.29 544.128 413.312 541.772 413.308 539.314V98.5118C413.333 96.0679 414.321 93.7325 416.057 92.0119C417.793 90.2913 420.137 89.3241 422.581 89.3199H736.175C738.615 89.3284 740.953 90.298 742.683 92.0186C744.412 93.7392 745.394 96.0721 745.416 98.5118V539.314C745.416 541.768 744.443 544.122 742.711 545.86C740.979 547.598 738.629 548.579 736.175 548.587ZM422.581 89.6447C420.23 89.649 417.977 90.5846 416.315 92.2466C414.653 93.9085 413.718 96.1614 413.714 98.5118V539.314C413.718 541.664 414.653 543.917 416.315 545.579C417.977 547.241 420.23 548.177 422.581 548.181H736.175C738.525 548.177 740.778 547.241 742.44 545.579C744.102 543.917 745.038 541.664 745.042 539.314V98.5118C745.038 96.1614 744.102 93.9085 742.44 92.2466C740.778 90.5846 738.525 89.649 736.175 89.6447H422.581Z" fill="#EBEBEB"/>
<path d="M583.033 385.716H546.817V401.128H583.033V385.716Z" fill="white"/>
<path d="M539.217 385.716H503.002V401.128H539.217V385.716Z" fill="white"/>
<path d="M495.401 385.716H459.186V401.128H495.401V385.716Z" fill="white"/>
<path d="M604.94 407.169H568.725V422.581H604.94V407.169Z" fill="white"/>
<path d="M561.124 407.169H524.909V422.581H561.124V407.169Z" fill="white"/>
<path d="M517.309 407.169H481.094V422.581H517.309V407.169Z" fill="white"/>
<path d="M473.493 407.169H437.278V422.581H473.493V407.169Z" fill="white"/>
<path d="M675.568 428.622H639.353V444.034H675.568V428.622Z" fill="white"/>
<path d="M631.752 428.622H595.537V444.034H631.752V428.622Z" fill="white"/>
<path d="M539.217 428.622H503.002V444.034H539.217V428.622Z" fill="white"/>
<path d="M495.401 428.622H459.186V444.034H495.401V428.622Z" fill="white"/>
<path d="M451.585 428.622H415.37V444.034H451.585V428.622Z" fill="white"/>
<path d="M653.66 450.059H617.445V465.471H653.66V450.059Z" fill="white"/>
<path d="M561.124 450.059H524.909V465.471H561.124V450.059Z" fill="white"/>
<path d="M517.309 450.059H481.094V465.471H517.309V450.059Z" fill="white"/>
<path d="M473.493 450.059H437.278V465.471H473.493V450.059Z" fill="white"/>
<path d="M302.568 167.207H266.353V182.619H302.568V167.207Z" fill="white"/>
<path d="M258.752 167.207H222.537V182.619H258.752V167.207Z" fill="white"/>
<path d="M324.475 188.66H288.26V204.072H324.475V188.66Z" fill="white"/>
<path d="M280.66 188.66H244.444V204.072H280.66V188.66Z" fill="white"/>
<path d="M193.029 188.66H156.813V204.072H193.029V188.66Z" fill="white"/>
<path d="M149.213 188.66H112.998V204.072H149.213V188.66Z" fill="white"/>
<path d="M258.752 210.113H222.537V225.525H258.752V210.113Z" fill="white"/>
<path d="M657.622 292.742H621.407V308.154H657.622V292.742Z" fill="white"/>
<path d="M581.327 292.742H545.111V308.154H581.327V292.742Z" fill="white"/>
<path d="M679.546 314.195H643.331V329.607H679.546V314.195Z" fill="white"/>
<path d="M635.715 314.195H599.5V329.607H635.715V314.195Z" fill="white"/>
<path d="M261.854 271.11H225.639V286.522H261.854V271.11Z" fill="white"/>
<path d="M169.302 271.11H133.087V286.522H169.302V271.11Z" fill="white"/>
<path d="M283.761 292.547H247.546V307.959H283.761V292.547Z" fill="white"/>
<path d="M223.69 292.547H187.475V307.959H223.69V292.547Z" fill="white"/>
<path d="M657.622 335.648H621.407V351.06H657.622V335.648Z" fill="white"/>
<path d="M581.327 335.648H545.111V351.06H581.327V335.648Z" fill="white"/>
<path d="M171.12 210.113H134.905V225.525H171.12V210.113Z" fill="white"/>
<path d="M684.175 167.792H647.96V183.203H684.175V167.792Z" fill="white"/>
<path d="M640.36 167.792H604.145V183.203H640.36V167.792Z" fill="white"/>
<path d="M662.267 189.228H626.052V204.64H662.267V189.228Z" fill="white"/>
<path d="M487.882 168.133H451.667V183.544H487.882V168.133Z" fill="white"/>
<path d="M444.067 168.133H407.852V183.544H444.067V168.133Z" fill="white"/>
<path d="M509.789 189.569H473.574V204.981H509.789V189.569Z" fill="white"/>
<path d="M465.974 189.569H429.759V204.981H465.974V189.569Z" fill="white"/>
<path d="M422.159 189.569H385.943V204.981H422.159V189.569Z" fill="white"/>
<path d="M531.698 211.022H495.482V226.434H531.698V211.022Z" fill="white"/>
<path d="M487.882 211.022H451.667V226.434H487.882V211.022Z" fill="white"/>
<path d="M444.067 211.022H407.852V226.434H444.067V211.022Z" fill="white"/>
<path d="M509.789 232.476H473.574V247.887H509.789V232.476Z" fill="white"/>
<path d="M465.974 232.476H429.759V247.887H465.974V232.476Z" fill="white"/>
<path d="M215.278 379.902H179.062V395.314H215.278V379.902Z" fill="white"/>
<path d="M171.446 379.902H135.23V395.314H171.446V379.902Z" fill="white"/>
<path d="M341.073 381.851H304.857V397.263H341.073V381.851Z" fill="white"/>
<path d="M237.185 401.339H200.97V416.751H237.185V401.339Z" fill="white"/>
<path d="M193.354 401.339H157.139V416.751H193.354V401.339Z" fill="white"/>
<path d="M362.98 403.304H326.765V418.716H362.98V403.304Z" fill="white"/>
<path d="M319.149 403.304H282.934V418.716H319.149V403.304Z" fill="white"/>
<path d="M435.427 333.959H399.212V349.371H435.427V333.959Z" fill="white"/>
<path d="M208.245 323.761H172.03V339.172H208.245V323.761Z" fill="white"/>
<path d="M386.041 257.907H349.826V273.319H386.041V257.907Z" fill="white"/>
<path d="M413.519 312.522H377.304V327.934H413.519V312.522Z" fill="white"/>
<path d="M457.334 312.522H421.119V327.934H457.334V312.522Z" fill="white"/>
<path d="M621.829 605.313H585.614V620.725H621.829V605.313Z" fill="white"/>
<path d="M643.738 583.877H607.522V599.288H643.738V583.877Z" fill="white"/>
<path d="M215.278 422.792H179.062V438.204H215.278V422.792Z" fill="white"/>
<path d="M171.446 422.792H135.23V438.204H171.446V422.792Z" fill="white"/>
<path d="M237.185 444.245H200.97V459.657H237.185V444.245Z" fill="white"/>
<path d="M193.354 444.245H157.139V459.657H193.354V444.245Z" fill="white"/>
<path d="M284.037 503.57H247.822V518.982H284.037V503.57Z" fill="white"/>
<path d="M240.222 503.57H204.007V518.982H240.222V503.57Z" fill="white"/>
<path d="M196.39 503.57H160.175V518.982H196.39V503.57Z" fill="white"/>
<path d="M152.575 503.57H116.359V518.982H152.575V503.57Z" fill="white"/>
<path d="M305.946 525.023H269.73V540.435H305.946V525.023Z" fill="white"/>
<path d="M262.13 525.023H225.915V540.435H262.13V525.023Z" fill="white"/>
<path d="M174.483 525.023H138.268V540.435H174.483V525.023Z" fill="white"/>
<path d="M327.853 546.46H291.638V561.872H327.853V546.46Z" fill="white"/>
<path d="M284.037 546.46H247.822V561.872H284.037V546.46Z" fill="white"/>
<path d="M240.222 546.46H204.007V561.872H240.222V546.46Z" fill="white"/>
<path d="M305.946 567.913H269.73V583.325H305.946V567.913Z" fill="white"/>
<path d="M262.13 567.913H225.915V583.325H262.13V567.913Z" fill="white"/>
<path d="M218.315 567.913H182.1V583.325H218.315V567.913Z" fill="white"/>
<path d="M580.466 502.579H544.251V517.991H580.466V502.579Z" fill="white"/>
<path d="M487.931 502.579H451.716V517.991H487.931V502.579Z" fill="white"/>
<path d="M444.116 502.579H407.9V517.991H444.116V502.579Z" fill="white"/>
<path d="M602.39 524.032H566.175V539.444H602.39V524.032Z" fill="white"/>
<path d="M509.838 524.032H473.623V539.444H509.838V524.032Z" fill="white"/>
<path d="M466.023 524.032H429.808V539.444H466.023V524.032Z" fill="white"/>
<path d="M422.207 524.032H385.992V539.444H422.207V524.032Z" fill="white"/>
<path d="M624.298 545.469H588.083V560.881H624.298V545.469Z" fill="white"/>
<path d="M580.466 545.469H544.251V560.881H580.466V545.469Z" fill="white"/>
<path d="M487.931 545.469H451.716V560.881H487.931V545.469Z" fill="white"/>
<path d="M444.116 545.469H407.9V560.881H444.116V545.469Z" fill="white"/>
<path d="M553.654 566.922H517.438V582.334H553.654V566.922Z" fill="white"/>
<path d="M509.838 566.922H473.623V582.334H509.838V566.922Z" fill="white"/>
<path d="M466.023 566.922H429.808V582.334H466.023V566.922Z" fill="white"/>
<path d="M422.207 566.922H385.992V582.334H422.207V566.922Z" fill="white"/>
<path d="M501.864 430.831H658.288V251.915L501.864 251.915V430.831Z" fill="#E0E0E0"/>
<path d="M502.157 430.831H652.556V251.915L502.157 251.915V430.831Z" fill="#E0E0E0"/>
<path d="M496.977 430.831H653.4V251.915L496.977 251.915V430.831Z" fill="#F0F0F0"/>
<path d="M504.089 422.597H646.579V257.599H504.089V422.597Z" fill="white"/>
<path d="M504.089 422.597H508.539V257.599H504.089V422.597Z" fill="#E0E0E0"/>
<path d="M508.068 376.265V380.714H646.985V376.265H508.068Z" fill="#E0E0E0"/>
<path d="M504.09 376.248H648.967V368.778H504.09V376.248Z" fill="#F0F0F0"/>
<path d="M171.982 430.831H328.405V251.915L171.982 251.915L171.982 430.831Z" fill="#E0E0E0"/>
<path d="M172.29 430.831H322.688V251.915L172.29 251.915L172.29 430.831Z" fill="#E0E0E0"/>
<path d="M167.11 430.831H323.533V251.915L167.11 251.915L167.11 430.831Z" fill="#F0F0F0"/>
<path d="M174.207 422.597H316.696V257.599H174.207L174.207 422.597Z" fill="white"/>
<path d="M174.206 422.597H178.656L178.656 257.599H174.206L174.206 422.597Z" fill="#E0E0E0"/>
<path d="M178.186 376.248V380.698H317.102V376.248H178.186Z" fill="#E0E0E0"/>
<path d="M174.207 376.248H319.084V368.778H174.207V376.248Z" fill="#F0F0F0"/>
<path d="M406 694.357C579.902 694.357 720.878 686.127 720.878 675.974C720.878 665.821 579.902 657.59 406 657.59C232.098 657.59 91.123 665.821 91.123 675.974C91.123 686.127 232.098 694.357 406 694.357Z" fill="#F5F5F5"/>
<path d="M145.153 634.026C145.153 634.026 142.912 617.51 132.339 615.707C121.767 613.904 124.95 605.963 122.206 602.813C119.461 599.662 112.267 608.838 118.422 617.688C124.577 626.539 119.542 623.746 122.206 631.963C124.869 640.181 146.16 647.732 145.153 634.026Z" fill="#5DD9C1"/>
<path opacity="0.2" d="M145.153 634.026C145.153 634.026 142.912 617.51 132.339 615.707C121.767 613.904 124.95 605.963 122.206 602.813C119.461 599.662 112.267 608.838 118.422 617.688C124.577 626.539 119.542 623.746 122.206 631.963C124.869 640.181 146.16 647.732 145.153 634.026Z" fill="white"/>
<path d="M144.715 645.491C144.577 645.493 144.441 645.456 144.323 645.385C144.205 645.313 144.11 645.209 144.049 645.085C144.049 644.907 135.929 627.725 140.151 600.344C141.519 592.512 143.696 584.844 146.647 577.462C151.763 563.528 155.791 552.517 146.566 532.412C143.643 526.046 140.655 520.118 137.764 514.386C126.916 492.852 118.357 475.848 124.772 458.618C124.841 458.437 124.979 458.291 125.156 458.212C125.332 458.133 125.533 458.127 125.714 458.195C125.806 458.224 125.891 458.272 125.963 458.335C126.036 458.398 126.094 458.476 126.135 458.562C126.177 458.649 126.199 458.744 126.202 458.84C126.205 458.936 126.188 459.032 126.153 459.121C119.998 475.751 128.442 492.51 139.145 513.72C142.035 519.469 145.023 525.413 147.963 531.795C157.447 552.452 153.111 564.275 148.093 577.965C145.135 585.25 142.957 592.828 141.597 600.571C137.423 627.465 145.3 644.273 145.381 644.419C145.464 644.594 145.476 644.794 145.412 644.977C145.348 645.16 145.214 645.31 145.04 645.394C144.94 645.45 144.829 645.483 144.715 645.491Z" fill="#5DD9C1"/>
<path d="M138.624 641.48C138.624 641.48 131.787 631.184 141.645 625.89C151.502 620.595 153.484 624.867 159.509 621.018C165.534 617.169 170.227 608.026 171.266 613.888C172.306 619.751 165.274 623.161 167.759 625.857C170.243 628.553 151.243 646.092 138.624 641.48Z" fill="#5DD9C1"/>
<path d="M122.498 467.468C122.498 467.468 115.856 447.25 130.992 446.827C146.127 446.405 129.433 465.309 122.498 467.468Z" fill="#5DD9C1"/>
<path d="M135.652 483.026C135.652 483.026 140.167 464.626 150.902 468.508C161.636 472.389 146.355 483.367 135.652 483.026Z" fill="#5DD9C1"/>
<path d="M117.431 484.618C117.431 484.618 119.055 470.002 107.687 469.645C96.3193 469.287 101.321 482.328 117.431 484.618Z" fill="#5DD9C1"/>
<path d="M125.048 514.548C125.048 514.548 109.75 500.907 104.244 511.057C98.7391 521.207 115.759 523.318 125.048 514.548Z" fill="#5DD9C1"/>
<path d="M152.071 512.128C152.071 512.128 154.946 489.392 167.304 496.587C179.663 503.781 162.838 514.402 152.071 512.128Z" fill="#5DD9C1"/>
<path d="M162.952 544.56C162.952 544.56 153.825 521.678 170.78 524.26C187.734 526.842 174.921 539.006 162.952 544.56Z" fill="#5DD9C1"/>
<path d="M136.936 552.728C136.936 552.728 122.628 535.92 111.682 541.214C100.737 546.508 109.685 563.317 136.936 552.728Z" fill="#5DD9C1"/>
<path d="M149.928 590.097C149.928 590.097 162.124 563.008 172.972 572.135C183.821 581.262 166.054 594.904 149.928 590.097Z" fill="#5DD9C1"/>
<path d="M132.21 588.505C132.21 588.505 135.458 567.491 123.359 569.18C111.26 570.869 114.46 583.731 132.21 588.505Z" fill="#5DD9C1"/>
<g opacity="0.2">
<path d="M122.498 467.468C122.498 467.468 115.856 447.25 130.992 446.827C146.127 446.405 129.433 465.309 122.498 467.468Z" fill="white"/>
<path d="M135.652 483.026C135.652 483.026 140.167 464.626 150.902 468.508C161.636 472.389 146.355 483.367 135.652 483.026Z" fill="white"/>
<path d="M117.431 484.618C117.431 484.618 119.055 470.002 107.687 469.645C96.3193 469.287 101.321 482.328 117.431 484.618Z" fill="white"/>
<path d="M125.048 514.548C125.048 514.548 109.75 500.907 104.244 511.057C98.7391 521.207 115.759 523.318 125.048 514.548Z" fill="white"/>
<path d="M152.071 512.128C152.071 512.128 154.946 489.392 167.304 496.587C179.663 503.781 162.838 514.402 152.071 512.128Z" fill="white"/>
<path d="M162.952 544.56C162.952 544.56 153.825 521.678 170.78 524.26C187.734 526.842 174.921 539.006 162.952 544.56Z" fill="white"/>
<path d="M136.936 552.728C136.936 552.728 122.628 535.92 111.682 541.214C100.737 546.508 109.685 563.317 136.936 552.728Z" fill="white"/>
<path d="M149.928 590.097C149.928 590.097 162.124 563.008 172.972 572.135C183.821 581.262 166.054 594.904 149.928 590.097Z" fill="white"/>
<path d="M132.21 588.505C132.21 588.505 135.458 567.491 123.359 569.18C111.26 570.869 114.46 583.731 132.21 588.505Z" fill="white"/>
</g>
<path d="M129.059 495.19C128.935 495.19 128.813 495.162 128.702 495.109C119.737 490.091 113.29 480.607 113.03 480.217C112.975 480.137 112.936 480.047 112.916 479.952C112.896 479.858 112.895 479.76 112.913 479.665C112.931 479.569 112.968 479.479 113.022 479.398C113.075 479.317 113.144 479.248 113.225 479.194C113.387 479.087 113.585 479.047 113.776 479.084C113.967 479.12 114.136 479.229 114.248 479.389C118.14 484.965 123.07 489.74 128.767 493.452C130.131 490.919 135.052 482.182 139.16 479.713C139.326 479.612 139.525 479.581 139.714 479.627C139.808 479.649 139.896 479.69 139.973 479.747C140.051 479.804 140.117 479.875 140.167 479.957C140.217 480.039 140.251 480.13 140.266 480.225C140.28 480.32 140.276 480.417 140.254 480.511C140.231 480.604 140.19 480.693 140.134 480.77C140.077 480.848 140.006 480.914 139.924 480.964C135.555 483.579 129.757 494.687 129.709 494.8C129.663 494.886 129.601 494.962 129.525 495.023C129.45 495.085 129.363 495.13 129.27 495.158C129.203 495.183 129.131 495.194 129.059 495.19Z" fill="#5DD9C1"/>
<path d="M142.911 523.302C142.753 523.305 142.598 523.254 142.473 523.155C129.725 513.525 113.436 513.931 113.241 513.931C113.048 513.928 112.863 513.853 112.722 513.721C112.581 513.589 112.494 513.409 112.478 513.217C112.476 513.121 112.492 513.025 112.527 512.936C112.562 512.846 112.614 512.764 112.68 512.695C112.747 512.626 112.826 512.57 112.914 512.531C113.002 512.493 113.096 512.472 113.192 512.469C113.355 512.469 129.611 512.047 142.668 521.499C144.373 518.787 150.918 508.929 159.33 503.976C159.498 503.877 159.699 503.849 159.887 503.897C160.076 503.946 160.238 504.068 160.337 504.236C160.436 504.404 160.464 504.604 160.416 504.793C160.367 504.982 160.245 505.144 160.077 505.243C150.804 510.699 143.577 522.814 143.512 522.944C143.459 523.031 143.388 523.107 143.304 523.165C143.22 523.224 143.125 523.265 143.025 523.285L142.911 523.302Z" fill="#5DD9C1"/>
<path d="M151.763 560.442C151.632 560.443 151.503 560.41 151.389 560.345C151.211 560.231 132.584 549.529 119.121 549.269C118.943 549.243 118.782 549.154 118.665 549.018C118.548 548.883 118.483 548.71 118.483 548.53C118.483 548.351 118.548 548.178 118.665 548.043C118.782 547.907 118.943 547.818 119.121 547.791C131.95 548.051 148.661 557.129 151.601 558.818C160.24 551.527 167.11 533.646 167.175 533.468C167.205 533.374 167.255 533.287 167.32 533.212C167.385 533.138 167.465 533.077 167.554 533.034C167.644 532.992 167.741 532.968 167.84 532.964C167.939 532.959 168.037 532.976 168.13 533.011C168.222 533.046 168.307 533.1 168.378 533.169C168.449 533.237 168.506 533.32 168.544 533.411C168.582 533.503 168.601 533.601 168.601 533.7C168.6 533.799 168.579 533.897 168.539 533.987C168.247 534.751 161.263 552.956 152.137 560.28C152.029 560.366 151.9 560.422 151.763 560.442Z" fill="#5DD9C1"/>
<path d="M140.979 598.834C140.848 598.832 140.72 598.799 140.605 598.736C133.573 594.709 124.479 577.088 124.106 576.341C124.015 576.169 123.997 575.968 124.055 575.782C124.113 575.596 124.242 575.441 124.414 575.351C124.586 575.26 124.788 575.242 124.973 575.3C125.159 575.358 125.314 575.487 125.405 575.659C125.405 575.838 134.191 592.711 140.8 597.129C146.181 590.846 153.301 586.297 161.263 584.055C161.448 584 161.648 584.02 161.818 584.111C161.989 584.202 162.116 584.358 162.172 584.543C162.228 584.73 162.209 584.932 162.118 585.105C162.026 585.278 161.871 585.408 161.685 585.468C153.815 587.647 146.8 592.18 141.58 598.46C141.517 598.566 141.43 598.656 141.325 598.721C141.221 598.786 141.102 598.825 140.979 598.834Z" fill="#5DD9C1"/>
<path d="M139.664 639.012C139.664 639.012 133.802 629.69 127.192 628.358C120.582 627.026 117.724 619.41 115.288 623.99C112.852 628.569 119.575 643.77 139.664 639.012Z" fill="#5DD9C1"/>
<path d="M115.807 675.6H164.657L167.921 636.153H112.543L115.807 675.6Z" fill="#E34B95"/>
<path d="M111.39 643.624H169.058L169.805 635.26H110.659L111.39 643.624Z" fill="#E34B95"/>
<path opacity="0.3" d="M111.39 643.624H169.058L169.805 635.26H110.659L111.39 643.624Z" fill="white"/>
<path d="M455.484 338.474L453.015 338.945C452.822 338.958 452.628 338.915 452.459 338.819C452.29 338.723 452.153 338.58 452.064 338.407C451.976 338.234 451.941 338.039 451.963 337.845C451.984 337.652 452.062 337.47 452.187 337.321H452.285C451.586 337.63 450.888 337.938 450.157 338.214C450.097 339.296 450.097 340.38 450.157 341.462L466.089 423.864L406.748 435.362C406.764 435.48 406.764 435.601 406.748 435.719C406.723 435.976 406.599 436.214 406.401 436.38C406.204 436.547 405.95 436.631 405.692 436.612C404.734 436.434 403.759 436.255 402.785 436.125L324.216 451.358C324.202 451.496 324.158 451.63 324.086 451.748C323.79 452.247 323.458 452.724 323.095 453.177C323.141 453.468 323.108 453.765 322.998 454.038C322.39 455.861 321.601 457.618 320.643 459.283C320.332 459.722 319.869 460.029 319.344 460.144C319.002 460.215 318.647 460.187 318.321 460.063C317.948 460.866 317.676 461.711 317.509 462.58L443.401 438.22L443.515 438.074C444.249 437.381 445.119 436.849 446.069 436.511C447.02 436.173 448.03 436.036 449.037 436.109C449.753 435.271 450.604 434.557 451.554 433.998C451.982 433.716 452.474 433.547 452.984 433.504C453.495 433.462 454.008 433.548 454.477 433.754C455.101 434.123 455.577 434.697 455.825 435.378C457.065 435.226 458.311 435.14 459.56 435.118L477.424 431.643L459.966 341.625C458.238 340.956 456.699 339.874 455.484 338.474Z" fill="#E34B95"/>
<path d="M292.742 220.718L293.327 220.831L305.068 218.558C306.367 217.989 307.65 217.389 308.901 216.853C311.263 215.736 313.802 215.038 316.404 214.79C317.955 214.719 319.505 214.95 320.967 215.472L421.947 195.903L431.318 244.201C431.427 244.046 431.578 243.925 431.753 243.854C431.928 243.782 432.121 243.762 432.307 243.796C432.493 243.831 432.666 243.917 432.804 244.047C432.943 244.176 433.041 244.342 433.088 244.526C433.633 246.649 433.927 248.83 433.965 251.022C433.914 252.074 433.672 253.109 433.25 254.075L449.182 336.298C450.14 335.941 451.082 335.551 452.024 335.129C452.118 334.562 452.326 334.021 452.636 333.538C452.946 333.055 453.351 332.64 453.826 332.319C454.507 331.997 455.282 331.939 456.003 332.157C456.378 331.304 456.65 330.41 456.815 329.493C457.043 328.377 457.147 327.238 457.123 326.099L456.49 322.77C456.49 322.591 456.344 322.429 456.262 322.267C456.196 322.142 456.161 322.002 456.161 321.861C456.161 321.719 456.196 321.579 456.262 321.455L439.503 235.025C439.406 235.041 439.307 235.041 439.21 235.025C438.624 235.088 438.031 234.989 437.496 234.74C436.961 234.492 436.504 234.102 436.174 233.612C435.712 232.665 435.569 231.594 435.768 230.559C435.93 229.341 436.239 228.139 436.482 226.938C436.744 225.876 436.821 224.777 436.71 223.69C436.67 223.506 436.69 223.314 436.766 223.142C436.841 222.97 436.97 222.826 437.132 222.732L429.694 184.389L284.07 212.744C281.365 214.317 278.282 215.12 275.154 215.066C275.006 215.057 274.863 215.01 274.738 214.931C274.613 214.851 274.51 214.742 274.439 214.612L202.188 228.627C202.145 228.815 202.051 228.987 201.917 229.125C201.782 229.262 201.611 229.36 201.424 229.406L197.624 230.137C197.609 230.714 197.435 231.276 197.121 231.761C197.095 231.988 196.985 232.196 196.812 232.346C196.563 232.55 196.324 232.766 196.098 232.995C195.659 233.401 195.237 233.84 194.782 234.229C194.628 234.378 194.437 234.484 194.23 234.538C194.061 234.567 193.887 234.553 193.725 234.496C193.563 234.439 193.418 234.342 193.304 234.213C193.136 234.014 193.05 233.759 193.061 233.499C193.052 233.407 193.052 233.314 193.061 233.223C192.476 233.223 191.891 233.223 191.323 233.076C191.068 233.048 190.833 232.922 190.667 232.726C190.501 232.53 190.416 232.278 190.43 232.021C190.451 231.765 190.571 231.528 190.766 231.361C190.961 231.193 191.213 231.11 191.469 231.128C192.083 231.217 192.701 231.266 193.321 231.274H193.808C193.878 231.282 193.949 231.282 194.019 231.274C193.541 231.206 193.104 230.969 192.785 230.608C192.78 230.565 192.78 230.521 192.785 230.478L150.95 238.598C151.144 238.6 151.333 238.651 151.503 238.744C151.712 238.892 151.855 239.115 151.904 239.366C151.952 239.617 151.902 239.877 151.762 240.092C151.428 240.537 151.053 240.95 150.642 241.326L150.528 241.456C150.528 241.375 150.626 241.456 150.528 241.456C150.458 241.539 150.393 241.626 150.333 241.716C150.333 241.716 150.333 241.846 150.333 241.895C150.326 241.949 150.326 242.003 150.333 242.057C150.326 242.089 150.326 242.123 150.333 242.155C150.312 242.322 150.249 242.481 150.151 242.617C150.052 242.754 149.921 242.863 149.769 242.936C149.617 243.009 149.45 243.042 149.282 243.033C149.113 243.025 148.95 242.974 148.807 242.885C148.72 242.839 148.627 242.806 148.531 242.788C148.43 242.748 148.327 242.716 148.222 242.691C148.225 243.148 148.101 243.598 147.865 243.99C147.772 244.125 147.645 244.232 147.496 244.301C147.348 244.369 147.183 244.397 147.02 244.379C146.857 245.294 146.55 246.176 146.111 246.994C145.621 247.83 144.956 248.55 144.162 249.105C144.319 249.316 144.45 249.545 144.552 249.787L206.751 237.737V237.64C207.015 237.198 207.356 236.808 207.758 236.487C208.025 236.289 208.333 236.155 208.66 236.096C208.987 236.037 209.323 236.054 209.642 236.146C210.152 236.304 210.631 236.551 211.055 236.877L291.589 221.27C291.682 221.054 291.85 220.88 292.062 220.778C292.274 220.677 292.515 220.655 292.742 220.718Z" fill="#E34B95"/>
<path d="M184.438 478.495L169.822 403.223C169.693 403.369 169.524 403.473 169.336 403.523C169.148 403.572 168.95 403.564 168.766 403.499C168.523 403.414 168.324 403.237 168.212 403.006C168.099 402.774 168.082 402.508 168.165 402.265C168.408 401.55 168.777 400.885 169.253 400.3L150.106 301.382L149.928 301.073C149.538 300.27 149.26 299.418 149.1 298.54C148.764 298.515 148.428 298.515 148.093 298.54C147.945 298.565 147.795 298.556 147.651 298.514C147.508 298.472 147.376 298.399 147.265 298.299C147.154 298.199 147.067 298.075 147.011 297.937C146.955 297.799 146.93 297.649 146.94 297.5C146.92 295.627 147.403 293.782 148.336 292.158L140.574 252.142C140.444 251.929 140.33 251.706 140.233 251.476L139.843 250.746C139.683 250.741 139.528 250.694 139.393 250.608C139.259 250.522 139.15 250.401 139.079 250.258C138.967 250.028 138.949 249.762 139.032 249.519C139.114 249.275 139.288 249.074 139.518 248.959C139.924 248.802 140.294 248.564 140.606 248.261C140.827 248.009 141.008 247.724 141.142 247.416C141.397 246.73 141.534 246.005 141.548 245.273C141.304 244.942 141.127 244.567 141.028 244.168C140.955 243.623 141.005 243.068 141.174 242.544C141.209 242.407 141.282 242.283 141.386 242.187C141.386 241.57 141.288 240.953 141.256 240.336L128.832 242.739L164.284 425.634C164.461 425.539 164.667 425.513 164.862 425.561C165.057 425.609 165.227 425.728 165.34 425.894C166.258 426.888 166.763 428.195 166.752 429.548C166.704 429.815 166.627 430.076 166.525 430.327C166.689 430.446 166.809 430.615 166.868 430.809C166.927 431.002 166.92 431.21 166.85 431.399C166.375 432.33 166.221 433.392 166.411 434.42C166.615 435.387 166.892 436.337 167.24 437.262C167.852 438.816 167.932 440.529 167.467 442.134L176.724 489.928L179.355 489.409C180.834 488.921 182.341 488.525 183.869 488.223C183.846 488.111 183.848 487.995 183.873 487.883C183.898 487.771 183.947 487.665 184.016 487.573C184.402 487.127 184.814 486.704 185.25 486.307C185.209 486.141 185.209 485.969 185.25 485.803C185.522 484.679 186.155 483.675 187.052 482.945C187.866 482.345 188.871 482.062 189.878 482.149C190.849 482.272 191.78 482.607 192.606 483.132C193.431 483.657 194.13 484.359 194.653 485.186C197.316 484.537 200.191 483.562 202.773 484.878L303.721 465.39C303.751 465.125 303.806 464.865 303.883 464.61C304.296 463.294 305.066 462.119 306.108 461.216C306.264 461.082 306.458 461.003 306.663 460.988C306.868 460.973 307.071 461.025 307.245 461.135C307.323 461.007 307.433 460.902 307.564 460.829C307.695 460.756 307.842 460.717 307.992 460.717C308.142 460.717 308.289 460.756 308.42 460.829C308.55 460.902 308.66 461.007 308.739 461.135L309.145 461.622L309.323 461.784L309.632 461.995L309.973 462.158C309.664 461.219 309.664 460.206 309.973 459.267C310.163 458.739 310.46 458.256 310.846 457.848C311.232 457.44 311.697 457.116 312.214 456.896C312.118 456.766 312.056 456.614 312.035 456.454C312.013 456.294 312.032 456.131 312.091 455.98C312.149 455.829 312.244 455.696 312.368 455.592C312.492 455.488 312.64 455.417 312.799 455.386C313.01 455.36 313.225 455.402 313.41 455.508C313.595 455.613 313.741 455.775 313.827 455.971C313.913 456.166 313.933 456.383 313.886 456.591C313.838 456.799 313.724 456.985 313.562 457.123L313.676 457.253C313.789 457.484 313.806 457.75 313.724 457.993C313.642 458.236 313.467 458.437 313.237 458.553L312.864 458.731L312.653 458.845L312.539 458.926L312.279 459.153L312.182 459.267L312.019 459.511V459.608C311.982 459.693 311.95 459.78 311.922 459.868C312.245 459.442 312.621 459.06 313.042 458.731C313.324 458.536 313.63 458.378 313.952 458.26C314.748 456.506 315.495 454.72 316.242 452.966L184.438 478.495Z" fill="#E34B95"/>
<path d="M208.44 402.752C208.613 402.563 208.816 402.404 209.041 402.281L238.371 344.337L224.891 346.951L213.069 370.093C213.143 370.111 213.214 370.138 213.28 370.175C213.489 370.322 213.633 370.545 213.681 370.796C213.73 371.048 213.679 371.308 213.54 371.523C213.264 371.929 213.052 372.367 212.809 372.789C213.02 372.919 213.215 373.082 213.426 373.195C213.586 373.304 213.71 373.458 213.782 373.637C213.855 373.816 213.872 374.013 213.832 374.202C213.792 374.39 213.699 374.561 213.563 374.697C213.428 374.832 213.256 374.926 213.069 374.965L212.744 375.144H212.663H212.565L211.932 375.436H211.786L211.558 375.615L211.055 376.054L210.795 376.33L210.681 376.46L210.227 377.044C209.902 377.483 209.61 377.937 209.301 378.392C209.15 378.604 208.923 378.75 208.668 378.798L191.372 412.675L192.996 421.412L200.678 419.918C200.924 419.19 201.335 418.528 201.879 417.985C202.137 417.744 202.42 417.531 202.724 417.352C202.716 417.293 202.716 417.232 202.724 417.173C203.088 413.241 204.367 409.448 206.459 406.098C206.355 405.935 206.299 405.746 206.299 405.553C206.299 405.361 206.355 405.172 206.459 405.009C206.724 404.547 206.827 404.01 206.751 403.483C206.753 403.288 206.812 403.098 206.919 402.936C207.027 402.773 207.18 402.646 207.358 402.569C207.537 402.491 207.734 402.467 207.927 402.5C208.119 402.533 208.297 402.62 208.44 402.752Z" fill="#E34B95"/>
<path d="M258.963 397.604C258.946 397.847 258.88 398.085 258.768 398.302C258.286 399.245 257.503 400 256.543 400.446C256.348 400.738 256.137 401.014 255.958 401.29C255.853 401.438 255.706 401.552 255.536 401.615C255.536 401.761 255.423 401.924 255.39 402.07C255.352 402.196 255.289 402.313 255.204 402.414C255.119 402.515 255.015 402.598 254.897 402.657C254.78 402.717 254.651 402.752 254.52 402.76C254.388 402.769 254.256 402.75 254.132 402.706C254.008 402.662 253.894 402.594 253.797 402.504C253.7 402.415 253.622 402.307 253.568 402.187C253.514 402.067 253.485 401.937 253.483 401.805C253.481 401.673 253.505 401.542 253.555 401.42C253.715 400.863 253.921 400.319 254.172 399.796L253.246 399.975C252.995 400.019 252.737 399.964 252.525 399.821C252.313 399.679 252.164 399.461 252.11 399.212C252.085 399.138 252.085 399.058 252.11 398.984L251.541 399.098L247.871 380.016L236.146 382.29L239.816 401.258L210.795 406.877C210.6 406.974 210.421 407.121 210.227 407.234V407.364C210.298 407.574 210.296 407.802 210.221 408.01C210.145 408.219 210.001 408.395 209.812 408.511C209.623 408.626 209.4 408.674 209.18 408.645C208.96 408.617 208.756 408.514 208.603 408.355C208.061 408.82 207.567 409.337 207.125 409.898C207.294 409.849 207.474 409.85 207.643 409.898C207.813 409.947 207.965 410.043 208.083 410.174C208.173 410.263 208.245 410.369 208.294 410.486C208.343 410.603 208.368 410.729 208.368 410.856C208.368 410.983 208.343 411.108 208.294 411.225C208.245 411.342 208.173 411.449 208.083 411.538L207.303 412.187C207.402 412.352 207.454 412.54 207.454 412.731C207.454 412.923 207.402 413.111 207.303 413.276V413.389C207.295 413.448 207.295 413.509 207.303 413.568C207.303 413.795 207.303 414.039 207.303 414.282C207.269 414.719 207.079 415.128 206.767 415.435C206.413 415.74 205.979 415.937 205.517 416.004H205.403C205.449 416.489 205.519 416.971 205.614 417.449C205.835 417.89 206.009 418.353 206.134 418.83L241.683 411.944L245.679 433.608L257.794 431.269L253.636 409.8L270.217 406.552L268.138 395.834L258.963 397.604Z" fill="#E34B95"/>
<path d="M329.347 339.14L328.567 339.822C328.194 340.147 327.836 340.472 327.495 340.813L327.057 341.3L326.813 341.592C326.535 341.997 326.118 342.287 325.642 342.408C325.166 342.529 324.662 342.474 324.224 342.252C323.785 342.029 323.442 341.656 323.259 341.2C323.075 340.744 323.063 340.237 323.224 339.773L323.679 338.052C323.679 338.052 323.549 337.922 323.5 337.825C323.368 337.58 323.301 337.306 323.305 337.029C323.274 336.765 323.307 336.497 323.403 336.249C323.403 336.054 323.549 335.859 323.63 335.665C323.275 335.32 322.978 334.92 322.753 334.479V334.349C315.904 330.746 308.005 329.666 300.44 331.296C279.977 335.259 267.96 354.438 273.416 382.874C278.873 411.31 297.289 424.595 317.751 420.632C319.59 420.282 321.398 419.788 323.159 419.154C323.728 418.342 324.296 417.53 324.783 416.735C324.976 416.456 325.236 416.231 325.539 416.08C325.842 415.928 326.178 415.856 326.516 415.869C326.854 415.882 327.184 415.98 327.474 416.154C327.765 416.328 328.007 416.572 328.177 416.865C341.933 409.199 349.078 392.196 344.596 369.07C342.046 355.656 336.557 345.587 329.347 339.14ZM315.608 409.54C301.885 412.204 290.225 402.817 285.888 380.471C281.552 358.125 288.86 345.068 302.583 342.42C306.189 341.641 309.939 341.856 313.431 343.043C316.924 344.231 320.028 346.345 322.412 349.16C322.643 348.996 322.902 348.875 323.176 348.803C323.707 348.707 324.254 348.824 324.701 349.127C325.147 349.431 325.457 349.897 325.563 350.427C325.735 351.457 325.763 352.507 325.644 353.545C328.867 359.06 331.068 365.112 332.14 371.409C336.509 393.836 329.201 406.909 315.608 409.54Z" fill="#E34B95"/>
<path d="M418.261 366.732L414.591 347.763L402.849 350.037L406.536 369.005L372.968 375.501L405.074 312.068L391.595 314.666L379.529 338.312C379.415 341.264 378.817 344.177 377.759 346.935C377.684 347.118 377.557 347.274 377.394 347.384C377.231 347.494 377.038 347.552 376.841 347.552C376.644 347.552 376.452 347.494 376.288 347.384C376.125 347.274 375.998 347.118 375.923 346.935C375.599 349.452 374.418 351.78 372.578 353.529C372.458 353.64 372.31 353.716 372.149 353.748C371.988 353.779 371.822 353.765 371.669 353.707L358.011 380.471L359.635 389.208L379.837 385.294C381.561 383.923 383.597 383.003 385.765 382.614C387.668 382.174 389.61 381.918 391.563 381.851C393.027 381.739 394.5 381.849 395.931 382.176L408.176 379.805L412.334 401.258L424.432 398.919L420.275 377.466L436.872 374.218L434.793 363.5L418.261 366.732Z" fill="#E34B95"/>
<path d="M195.043 314.747L193.127 304.873L212.939 301.041L211.445 293.359L191.632 297.192L189.846 287.919L212.273 283.583L210.649 275.658L178.413 281.91L181.174 296.136C181.666 296.388 182.102 296.736 182.457 297.159C183.069 297.933 183.437 298.872 183.512 299.855C183.724 301.885 183.22 303.98 183.512 305.945C183.552 306.11 183.542 306.282 183.485 306.441C183.427 306.6 183.324 306.738 183.188 306.839L186.76 324.573L219.793 318.174L218.266 310.184L195.043 314.747Z" fill="#E34B95"/>
<path d="M253.215 297.468C255.611 295.948 257.492 293.739 258.608 291.13C259.724 288.521 260.023 285.635 259.467 282.852C259.304 283.023 259.085 283.132 258.85 283.161C258.66 283.173 258.471 283.129 258.306 283.034C258.141 282.938 258.008 282.796 257.925 282.625C257.703 282.107 257.555 281.56 257.486 281.001C257.486 280.92 257.486 280.855 257.486 280.773C257.186 280.39 256.97 279.947 256.853 279.474C256.814 279.221 256.873 278.963 257.017 278.751C257.162 278.54 257.382 278.392 257.632 278.337C257.731 278.312 257.834 278.307 257.935 278.324C258.036 278.341 258.132 278.379 258.217 278.435C255.115 271.5 247.645 268.415 237.868 270.315L219.403 273.888L221.904 286.766C222.102 286.85 222.259 287.007 222.343 287.204C223.914 290.396 224.894 293.846 225.233 297.387C225.272 297.64 225.214 297.898 225.069 298.11C224.924 298.321 224.704 298.469 224.454 298.524C224.363 298.539 224.269 298.539 224.178 298.524L227.669 316.68L237.543 314.764L235.237 302.892L244.315 301.122L254.839 311.418L265.444 309.356L253.215 297.468ZM241.75 293.424L233.63 295.048L230.739 280.189L238.859 278.565C244.884 277.395 248.473 279.539 249.382 284.232C250.292 288.926 247.791 292.32 241.75 293.424Z" fill="#E34B95"/>
<path d="M298.02 288.78C300.497 287.207 302.422 284.9 303.525 282.181C304.628 279.461 304.856 276.466 304.175 273.611C302.324 264.046 294.058 259.515 282.657 261.724L264.192 265.313L272.459 307.959L282.332 306.059L280.026 294.171L289.105 292.401L299.644 302.697L310.249 300.635L298.02 288.78ZM286.555 284.752L278.435 286.376L275.56 271.5L283.599 269.876C284.103 269.779 284.59 269.714 285.045 269.665L285.353 269.405C285.382 269.162 285.437 268.923 285.516 268.691C285.621 268.409 285.813 268.168 286.064 268.002C286.315 267.836 286.612 267.753 286.912 267.765C287.489 267.822 288.044 268.011 288.536 268.317C288.621 268.215 288.726 268.132 288.845 268.074C288.851 267.762 288.89 267.452 288.958 267.148C289.053 266.916 289.233 266.729 289.462 266.626C289.69 266.524 289.95 266.513 290.186 266.597C290.422 266.68 290.617 266.852 290.73 267.075C290.843 267.299 290.866 267.558 290.794 267.798C290.599 268.545 290.956 269.21 290.891 269.974C290.869 270.155 290.814 270.331 290.729 270.493C291.642 271.023 292.421 271.756 293.007 272.634C293.592 273.513 293.968 274.514 294.106 275.56C295.081 280.189 292.58 283.583 286.555 284.752Z" fill="#E34B95"/>
<path d="M344.743 253.49L344.239 253.62C344.12 253.661 344.005 253.715 343.898 253.783C343.848 253.811 343.804 253.85 343.768 253.896C343.624 254.068 343.432 254.192 343.216 254.253C343.09 254.276 342.96 254.273 342.835 254.245C342.709 254.217 342.59 254.165 342.485 254.091C342.376 254.025 342.283 253.935 342.213 253.828C342.143 253.722 342.097 253.601 342.079 253.474C342.029 253.221 342.082 252.958 342.226 252.743C342.226 252.743 342.323 252.662 342.355 252.613C338.198 251.288 333.77 251.047 329.493 251.915C316.014 254.53 307.975 265.833 310.428 278.5C312.88 291.167 324.573 298.654 338.036 296.039C351.499 293.424 359.57 282.186 357.101 269.454C356.495 265.989 355.052 262.724 352.899 259.942C350.745 257.16 347.946 254.946 344.743 253.49ZM336.428 287.594C332.808 288.296 329.057 287.531 326.001 285.468C322.944 283.405 320.833 280.212 320.131 276.592C319.429 272.971 320.194 269.221 322.257 266.164C324.321 263.108 327.513 260.997 331.134 260.295C332.957 259.937 334.832 259.937 336.655 260.295C336.655 260.067 336.801 259.84 336.883 259.645C336.963 259.424 337.121 259.24 337.327 259.127C337.533 259.014 337.773 258.978 338.003 259.028C338.184 259.06 338.35 259.147 338.478 259.279C338.606 259.41 338.69 259.578 338.718 259.759L339.286 259.613C339.416 259.207 339.546 258.817 339.66 258.411C339.773 258.005 339.79 257.94 339.838 257.713C339.873 257.601 339.9 257.487 339.919 257.372V257.258L340.017 256.673V256.462C339.919 255.813 340.602 255.033 341.3 255.374L343.232 256.3C343.471 256.394 343.664 256.577 343.773 256.809C343.881 257.041 343.897 257.307 343.817 257.55C343.703 257.792 343.605 258.042 343.525 258.297C343.525 258.378 343.525 258.476 343.444 258.557C343.444 258.557 343.444 258.557 343.444 258.671C343.411 259.06 343.411 259.451 343.444 259.84C343.479 260.763 343.424 261.688 343.281 262.601C343.326 262.706 343.35 262.819 343.35 262.934C343.35 263.048 343.326 263.161 343.281 263.267C343.247 263.378 343.186 263.478 343.102 263.559C345.226 265.66 346.649 268.365 347.179 271.305C347.623 273.086 347.692 274.939 347.382 276.747C347.073 278.555 346.391 280.28 345.38 281.811C344.37 283.342 343.052 284.647 341.511 285.642C339.97 286.638 338.239 287.302 336.428 287.594Z" fill="#E34B95"/>
<path d="M400.576 256.186C400.522 256.179 400.467 256.179 400.414 256.186C400.026 256.049 399.668 255.84 399.358 255.569C399.211 255.821 399.042 256.06 398.855 256.283C398.704 256.489 398.482 256.63 398.232 256.679C397.982 256.727 397.722 256.679 397.507 256.543C397.294 256.398 397.148 256.175 397.099 255.923C397.05 255.67 397.103 255.409 397.247 255.195C398.206 253.888 398.81 252.355 399.001 250.746C395.753 244.152 388.428 241.278 378.896 243.129L360.431 246.702L368.648 289.316L378.522 287.399L376.216 275.512L385.294 273.758L395.834 284.038L406.439 281.991L394.21 270.136C396.513 268.682 398.342 266.588 399.473 264.11C400.604 261.632 400.987 258.878 400.576 256.186ZM382.793 266.092L374.673 267.716L371.896 252.776L380.016 251.152C386.057 249.982 389.63 252.142 390.54 256.836C391.449 261.529 388.818 264.923 382.793 266.092Z" fill="#E34B95"/>
<path d="M314.682 514.256H384.092C385.979 514.256 387.847 514.628 389.59 515.35C391.333 516.073 392.916 517.132 394.249 518.466C395.583 519.801 396.64 521.386 397.36 523.129C398.081 524.873 398.451 526.742 398.448 528.628V552.988C398.451 554.875 398.081 556.743 397.36 558.487C396.64 560.231 395.583 561.815 394.249 563.15C392.916 564.485 391.333 565.544 389.59 566.266C387.847 566.989 385.979 567.361 384.092 567.361H337.971L316.859 589.934L328.227 567.361H314.618C310.806 567.361 307.15 565.846 304.455 563.151C301.759 560.456 300.245 556.8 300.245 552.988V528.628C300.245 526.735 300.619 524.861 301.345 523.113C302.072 521.365 303.136 519.778 304.478 518.442C305.819 517.107 307.411 516.05 309.162 515.331C310.914 514.613 312.79 514.247 314.682 514.256Z" fill="#E34B95"/>
<path opacity="0.7" d="M314.682 514.256H384.092C385.979 514.256 387.847 514.628 389.59 515.35C391.333 516.073 392.916 517.132 394.249 518.466C395.583 519.801 396.64 521.386 397.36 523.129C398.081 524.873 398.451 526.742 398.448 528.628V552.988C398.451 554.875 398.081 556.743 397.36 558.487C396.64 560.231 395.583 561.815 394.249 563.15C392.916 564.485 391.333 565.544 389.59 566.266C387.847 566.989 385.979 567.361 384.092 567.361H337.971L316.859 589.934L328.227 567.361H314.618C310.806 567.361 307.15 565.846 304.455 563.151C301.759 560.456 300.245 556.8 300.245 552.988V528.628C300.245 526.735 300.619 524.861 301.345 523.113C302.072 521.365 303.136 519.778 304.478 518.442C305.819 517.107 307.411 516.05 309.162 515.331C310.914 514.613 312.79 514.247 314.682 514.256Z" fill="white"/>
<path d="M318.077 539.46C318.016 537.821 318.445 536.2 319.311 534.807C320.177 533.413 321.439 532.31 322.936 531.639C324.434 530.967 326.097 530.759 327.714 531.039C329.33 531.32 330.826 532.077 332.009 533.214C333.192 534.351 334.009 535.815 334.354 537.419C334.7 539.023 334.558 540.693 333.947 542.216C333.337 543.739 332.285 545.044 330.927 545.966C329.57 546.887 327.968 547.381 326.327 547.385C325.257 547.439 324.187 547.273 323.184 546.897C322.18 546.522 321.264 545.946 320.492 545.203C319.719 544.461 319.106 543.569 318.691 542.581C318.276 541.594 318.067 540.532 318.077 539.46ZM332.32 539.46C332.332 538.265 331.989 537.092 331.334 536.092C330.678 535.092 329.74 534.31 328.638 533.845C327.536 533.38 326.321 533.253 325.147 533.481C323.974 533.708 322.894 534.28 322.046 535.124C321.198 535.967 320.621 537.043 320.386 538.216C320.152 539.388 320.272 540.604 320.731 541.708C321.191 542.813 321.968 543.755 322.964 544.416C323.961 545.077 325.131 545.427 326.327 545.42C327.118 545.445 327.905 545.308 328.641 545.017C329.377 544.727 330.046 544.289 330.607 543.731C331.168 543.174 331.61 542.507 331.904 541.773C332.198 541.038 332.34 540.251 332.32 539.46Z" fill="#E34B95"/>
<path d="M336.526 541.344C336.493 540.131 336.823 538.937 337.473 537.912C338.122 536.887 339.062 536.08 340.173 535.592C341.284 535.103 342.514 534.957 343.709 535.172C344.903 535.386 346.006 535.951 346.877 536.795C347.749 537.639 348.349 538.723 348.602 539.91C348.855 541.096 348.748 542.331 348.296 543.457C347.844 544.583 347.067 545.548 346.064 546.231C345.061 546.913 343.877 547.281 342.664 547.288C341.864 547.328 341.064 547.203 340.314 546.921C339.564 546.64 338.88 546.206 338.304 545.649C337.729 545.092 337.274 544.422 336.968 543.681C336.662 542.941 336.511 542.145 336.526 541.344ZM346.578 541.344C346.613 540.803 346.536 540.261 346.353 539.752C346.17 539.242 345.885 538.775 345.514 538.38C345.143 537.985 344.696 537.67 344.199 537.454C343.701 537.239 343.165 537.128 342.624 537.128C342.082 537.128 341.546 537.239 341.049 537.454C340.552 537.67 340.104 537.985 339.734 538.38C339.363 538.775 339.077 539.242 338.894 539.752C338.711 540.261 338.635 540.803 338.669 541.344C338.635 541.885 338.711 542.427 338.894 542.937C339.077 543.446 339.363 543.913 339.734 544.308C340.104 544.704 340.552 545.019 341.049 545.234C341.546 545.449 342.082 545.56 342.624 545.56C343.165 545.56 343.701 545.449 344.199 545.234C344.696 545.019 345.143 544.704 345.514 544.308C345.885 543.913 346.17 543.446 346.353 542.937C346.536 542.427 346.613 541.885 346.578 541.344Z" fill="#E34B95"/>
<path d="M363.776 541.344C363.82 542.138 363.697 542.932 363.416 543.675C363.135 544.419 362.701 545.095 362.143 545.661C361.585 546.227 360.914 546.669 360.175 546.961C359.435 547.252 358.643 547.386 357.849 547.353C357.064 547.377 356.285 547.216 355.574 546.883C354.863 546.55 354.24 546.055 353.756 545.437V551.51H351.629V535.482H353.659V537.349C354.146 536.705 354.781 536.189 355.511 535.844C356.24 535.499 357.042 535.336 357.849 535.368C358.64 535.335 359.429 535.468 360.167 535.757C360.904 536.047 361.573 536.487 362.13 537.049C362.688 537.611 363.122 538.284 363.406 539.023C363.689 539.763 363.815 540.553 363.776 541.344ZM361.633 541.344C361.595 540.574 361.332 539.831 360.876 539.209C360.421 538.586 359.793 538.111 359.07 537.842C358.348 537.572 357.562 537.52 356.81 537.692C356.058 537.865 355.373 538.254 354.84 538.811C354.307 539.368 353.948 540.069 353.809 540.828C353.671 541.587 353.757 542.37 354.058 543.08C354.359 543.79 354.862 544.396 355.504 544.824C356.146 545.251 356.899 545.481 357.67 545.485C358.212 545.503 358.751 545.406 359.254 545.202C359.756 544.998 360.21 544.691 360.586 544.301C360.962 543.911 361.253 543.446 361.439 542.937C361.625 542.428 361.702 541.885 361.665 541.344H361.633Z" fill="#E34B95"/>
<path d="M365.271 545.973L366.147 544.349C367.38 545.133 368.811 545.55 370.272 545.55C372.237 545.55 373.049 544.966 373.049 543.926C373.049 541.295 365.644 543.585 365.644 538.908C365.644 536.813 367.528 535.384 370.516 535.384C372.009 535.361 373.482 535.731 374.787 536.456L373.878 538.08C372.866 537.448 371.692 537.126 370.5 537.154C368.632 537.154 367.723 537.836 367.723 538.778C367.723 541.539 375.161 539.282 375.161 543.845C375.161 545.956 373.212 547.32 370.094 547.32C368.386 547.372 366.704 546.902 365.271 545.973Z" fill="#E34B95"/>
<path d="M377.353 545.924C377.352 545.734 377.391 545.546 377.465 545.372C377.539 545.197 377.647 545.039 377.783 544.907C377.92 544.775 378.081 544.672 378.258 544.604C378.436 544.536 378.625 544.504 378.814 544.511C379.001 544.506 379.187 544.54 379.36 544.609C379.533 544.679 379.691 544.783 379.823 544.915C379.955 545.047 380.059 545.204 380.129 545.378C380.198 545.551 380.231 545.737 380.227 545.924C380.229 546.111 380.194 546.296 380.124 546.469C380.054 546.643 379.95 546.8 379.819 546.933C379.688 547.066 379.531 547.172 379.359 547.244C379.186 547.316 379.001 547.353 378.814 547.353C378.624 547.357 378.434 547.323 378.257 547.254C378.08 547.184 377.919 547.079 377.783 546.946C377.646 546.813 377.538 546.654 377.464 546.478C377.391 546.303 377.352 546.114 377.353 545.924ZM377.547 531.73H380.016L379.594 542.318H377.97L377.547 531.73Z" fill="#E34B95"/>
<path d="M719.432 261.107C719.432 266.401 690.477 270.948 649 272.946L645.67 273.108L641.188 273.287C634.968 273.53 628.505 273.709 621.846 273.855H618.858H617.234C612.119 273.936 606.889 273.969 601.579 273.969C591.965 273.969 582.627 273.839 573.678 273.612L567.182 273.4C550.861 272.865 536.05 271.939 523.578 270.737C499.104 268.366 483.66 264.907 483.66 260.993C483.66 255.163 518.739 250.258 566.988 248.634L570.771 248.505C574.139 248.407 577.554 248.326 581.019 248.261C585.193 248.18 589.447 248.131 593.751 248.099H601.595C613.743 248.099 625.468 248.293 636.495 248.683L641.724 248.862L648.529 249.154L650.299 249.252L654.83 249.479C693.042 251.72 719.432 256.056 719.432 261.107Z" fill="#393939"/>
<path opacity="0.4" d="M719.432 261.107C719.432 266.401 690.477 270.948 649 272.946L645.67 273.108L641.188 273.287C634.968 273.53 628.505 273.709 621.846 273.855H618.858H617.234C612.119 273.936 606.889 273.969 601.579 273.969C591.965 273.969 582.627 273.839 573.678 273.612L567.182 273.4C550.861 272.865 536.05 271.939 523.578 270.737C499.104 268.366 483.66 264.907 483.66 260.993C483.66 259.272 486.73 257.615 492.3 256.121C502.588 258.532 513.044 260.16 523.578 260.993C536.05 262.195 550.861 263.121 567.182 263.656L573.678 263.868C582.627 264.095 591.965 264.225 601.579 264.225C606.889 264.225 612.119 264.225 617.234 264.111H618.858H621.846C628.505 263.965 634.968 263.786 641.188 263.543L645.67 263.364L649 263.202C676.981 261.854 699.246 259.353 710.793 256.235C716.282 257.745 719.432 259.369 719.432 261.107Z" fill="white"/>
<path d="M593.572 248.212C593.454 250.147 592.726 251.995 591.493 253.49C590.145 255.114 588.992 256.348 587.677 257.696C586.897 258.492 586.053 259.32 585.322 260.035C584.802 260.571 584.266 261.074 583.698 261.561C580.947 264.102 578.04 266.467 574.993 268.642L574.457 269.016L573.044 269.958C571.099 271.258 569.07 272.43 566.971 273.465C566.191 273.855 565.347 274.229 564.567 274.586C562.622 275.405 560.619 276.078 558.575 276.6C556.756 277.087 555.018 277.509 553.297 277.866C550.877 278.402 548.424 278.89 546.102 279.328C541.669 280.189 537.251 280.952 532.802 281.602C529.018 282.17 525.234 282.706 521.434 283.226C518.38 283.599 515.327 283.924 512.242 284.184C511.902 284.225 511.558 284.225 511.219 284.184C510.19 284.043 509.241 283.557 508.526 282.804C507.812 282.051 507.375 281.077 507.289 280.043C507.272 279.837 507.272 279.631 507.289 279.425C507.33 278.527 507.638 277.661 508.173 276.938C508.708 276.215 509.446 275.668 510.293 275.365L510.683 275.236C514.889 273.725 519.111 272.296 523.35 270.916L529.765 268.837C536.261 266.726 542.757 264.744 549.074 262.65C550.698 262.13 552.208 261.594 553.654 261.026C554.899 260.613 556.097 260.069 557.227 259.402C557.957 258.979 558.688 258.508 559.435 258.005C561.073 256.904 562.65 255.717 564.161 254.448C566.305 252.678 568.448 250.729 570.543 248.699C573.91 248.602 577.326 248.521 580.791 248.456C585.013 248.293 589.268 248.245 593.572 248.212Z" fill="#FFB573"/>
<path d="M593.767 254.773C593.653 255.114 593.523 255.439 593.394 255.764C593.264 256.089 593.117 256.413 592.955 256.738C592.812 257.057 592.649 257.366 592.468 257.664L591.932 258.59V258.671C591.564 259.245 591.174 259.786 590.763 260.295C590.324 260.863 589.869 261.415 589.382 261.919L588.928 262.422C588.221 263.178 587.473 263.894 586.686 264.566C586.427 264.809 586.15 265.037 585.874 265.248C585.78 265.344 585.676 265.431 585.566 265.508C583.131 267.45 580.522 269.163 577.771 270.623L576.78 271.127L575.806 271.614L575.432 271.776L574.247 270.737L573.24 269.828L570.966 267.814L559.598 257.794L558.737 257.031C558.737 257.031 562.213 253.149 566.857 248.618L570.641 248.488C574.008 248.391 577.424 248.31 580.889 248.245C585.062 248.163 589.317 248.115 593.621 248.082H594.563C594.796 250.344 594.524 252.629 593.767 254.773Z" fill="#E34B95"/>
<path opacity="0.7" d="M593.783 254.773C593.67 255.11 593.54 255.44 593.394 255.764C593.264 256.089 593.117 256.413 592.955 256.738C592.812 257.057 592.649 257.366 592.468 257.664L591.932 258.59V258.671C591.564 259.245 591.174 259.786 590.763 260.295C590.324 260.863 589.869 261.415 589.382 261.919L588.928 262.422C588.221 263.178 587.473 263.894 586.686 264.566C586.427 264.809 586.15 265.037 585.874 265.248C585.78 265.344 585.676 265.431 585.566 265.508C583.131 267.45 580.522 269.163 577.771 270.623L576.78 271.127L575.806 271.614L575.432 271.776L574.247 270.737L573.24 269.828L570.966 267.814L559.598 257.794L558.737 257.031C558.737 257.031 562.213 253.149 566.857 248.618L570.641 248.488C574.008 248.391 577.424 248.31 580.889 248.245C585.062 248.163 589.317 248.115 593.621 248.082H594.579C594.813 250.344 594.541 252.629 593.783 254.773Z" fill="white"/>
<path opacity="0.1" d="M585.452 265.622C582.325 268.121 578.906 270.231 575.27 271.906L570.804 267.96C573.149 260.993 577.376 254.81 583.016 250.096C585.046 253.864 585.696 261.74 585.452 265.622Z" fill="#393939"/>
<path d="M512.015 275.317L496.944 273.011L497.058 286.36C497.058 286.36 507.387 289.462 512.86 282.446L512.015 275.317Z" fill="#EBB376"/>
<path d="M486.664 276.616L489.149 286.539L497.041 286.36L496.928 273.011L486.664 276.616Z" fill="#EBB376"/>
<path d="M648.349 249.235C648.219 249.576 648.073 249.917 647.943 250.275C647.554 251.265 647.18 252.272 646.823 253.279C646.595 253.896 646.384 254.513 646.173 255.147C645.962 255.78 645.735 256.413 645.54 257.047C644.939 258.931 644.354 260.831 643.786 262.763C643.766 262.868 643.739 262.971 643.705 263.072C643.087 265.216 642.535 267.408 641.999 269.568V269.828C641.723 270.964 641.431 272.101 641.171 273.254C641.041 273.774 640.928 274.277 640.814 274.797C640.375 276.795 639.953 278.808 639.563 280.806C639.417 281.553 639.271 282.3 639.141 283.031C639.011 283.762 638.833 284.655 638.703 285.353C638.703 285.516 638.703 285.678 638.621 285.84C638.54 286.263 638.459 286.685 638.394 287.107C638.183 288.293 637.988 289.462 637.793 290.615C637.793 290.794 637.793 290.956 637.712 291.135L637.517 292.353C637.127 294.724 636.786 297.046 636.478 299.303C636.47 299.433 636.47 299.563 636.478 299.693C636.137 302.178 635.844 304.565 635.585 306.887C635.471 307.846 635.357 308.787 635.26 309.713C635.114 311.012 634.984 312.263 634.87 313.481C634.773 314.374 634.691 315.251 634.61 316.095C634.529 316.94 634.464 317.719 634.399 318.418C634.334 319.116 634.269 319.912 634.204 320.61C634.042 322.591 633.912 324.378 633.798 325.921C633.798 326.603 633.717 327.22 633.668 327.804C633.538 329.964 633.473 331.475 633.441 332.157C633.441 332.433 633.441 332.579 633.441 332.579L604.647 329.932H604.225L599.353 329.477L592.029 328.795L583.016 328.048L580.888 327.853L570.121 326.863C570.121 325.839 570.024 324.849 570.007 323.842C570.007 323.566 570.007 323.29 570.007 323.014C569.699 314.147 569.861 306.01 570.332 298.654C570.592 294.799 570.928 291.135 571.339 287.659C571.924 282.657 572.655 278.061 573.483 273.823C573.662 272.865 573.856 271.923 574.051 271.013C574.181 270.38 574.311 269.779 574.457 269.178C575.547 264.304 576.891 259.49 578.485 254.757C579.264 252.483 580.109 250.421 580.807 248.553C584.981 248.472 589.236 248.423 593.539 248.391H601.383C613.531 248.391 625.256 248.586 636.283 248.976L641.512 249.154L648.349 249.235Z" fill="#E34B95"/>
<path opacity="0.7" d="M648.349 249.235C648.219 249.576 648.073 249.917 647.943 250.275C647.554 251.265 647.18 252.272 646.823 253.279C646.595 253.896 646.384 254.513 646.173 255.147C645.962 255.78 645.735 256.413 645.54 257.047V257.16C644.939 259.012 644.387 260.863 643.835 262.763C643.815 262.868 643.788 262.971 643.753 263.072C642.974 265.833 642.243 268.642 641.561 271.468C641.415 272.069 641.285 272.686 641.155 273.287C641.025 273.888 640.911 274.31 640.798 274.83C640.359 276.827 639.937 278.841 639.547 280.838C639.385 281.585 639.239 282.332 639.109 283.08C638.963 283.843 638.816 284.622 638.686 285.386C638.686 285.548 638.686 285.727 638.589 285.889C638.508 286.311 638.427 286.734 638.362 287.156C638.151 288.341 637.956 289.511 637.761 290.664C637.761 290.842 637.761 291.005 637.68 291.183L637.485 292.401C637.111 294.772 636.754 297.095 636.445 299.352C636.438 299.482 636.438 299.612 636.445 299.742C636.104 302.226 635.812 304.614 635.552 306.936C635.438 307.894 635.325 308.836 635.227 309.762C635.081 311.061 634.951 312.312 634.838 313.53C634.74 314.423 634.659 315.3 634.578 316.144C634.497 316.989 634.432 317.768 634.367 318.466C634.302 319.165 634.237 319.961 634.172 320.659C634.009 322.64 633.879 324.427 633.766 325.969C633.766 326.651 633.685 327.269 633.636 327.853C633.506 330.013 633.441 331.523 633.408 332.206C633.408 332.482 633.408 332.628 633.408 332.628L604.615 329.981H604.193L599.321 329.526L591.996 328.844L583.016 328.048L580.888 327.853L570.121 326.863C570.121 325.839 570.024 324.849 570.007 323.842C570.007 323.566 570.007 323.29 570.007 323.014C569.699 314.147 569.861 306.01 570.332 298.654C570.592 294.799 570.928 291.135 571.339 287.659C571.924 282.657 572.655 278.061 573.483 273.823C573.662 272.865 573.856 271.923 574.051 271.013C574.181 270.38 574.311 269.779 574.457 269.178C575.547 264.304 576.891 259.49 578.485 254.757C579.264 252.483 580.109 250.421 580.807 248.553C584.981 248.472 589.236 248.423 593.539 248.391H601.383C613.531 248.391 625.256 248.586 636.283 248.976L641.512 249.154L648.349 249.235Z" fill="white"/>
<path d="M492.884 464.789C492.884 464.789 513.184 456.344 513.883 447.98C513.89 447.78 513.939 447.584 514.027 447.403C514.114 447.223 514.238 447.063 514.391 446.933C514.544 446.803 514.722 446.706 514.914 446.649C515.106 446.592 515.308 446.575 515.507 446.6L531 447.542C531.365 447.573 531.716 447.7 532.015 447.911C532.315 448.123 532.553 448.41 532.705 448.744L538.909 463.084L534.605 463.668L532.802 461.703L531.178 464.139C507.858 467.387 497.756 468.443 492.949 467.631C492.072 465.666 492.884 464.789 492.884 464.789Z" fill="#393939"/>
<path d="M588.034 380.455C587.141 380.26 586.653 380.114 586.653 380.114L513.573 370.987L535.303 448.37L513.184 450.481C513.184 450.481 462.71 353.123 483.335 339.075C503.959 325.027 567.912 340.537 567.912 340.537L570.43 321.26L634.009 326.002C644.224 389.549 596.803 382.29 588.034 380.455Z" fill="#393939"/>
<path d="M566.971 604.014C566.971 604.014 588.862 601.919 591.964 594.059C592.029 593.875 592.13 593.707 592.262 593.563C592.394 593.42 592.553 593.304 592.73 593.224C592.908 593.143 593.1 593.1 593.295 593.095C593.489 593.091 593.683 593.126 593.864 593.198L608.48 598.623C608.818 598.756 609.115 598.977 609.34 599.262C609.565 599.547 609.711 599.887 609.763 600.247L611.517 615.772L607.23 615.074L606.06 612.67L603.852 614.538C580.628 610.786 570.625 608.919 566.272 606.726C565.866 604.583 566.971 604.014 566.971 604.014Z" fill="#393939"/>
<path d="M634.643 349.03C634.546 349.42 631.898 361.6 628.439 379.058C628.244 380.049 628.05 381.088 627.838 382.111C626.214 390.41 624.428 399.748 622.674 409.475C620.53 421.314 618.403 433.835 616.617 445.642C614.195 460.432 612.617 475.348 611.891 490.318C611.046 527.946 609.471 602.196 609.471 602.196L589.22 598.948C589.22 598.948 578.03 519.761 578.16 481.419C578.258 457.059 584.299 406.861 588.424 375.648C590.503 359.635 592.094 348.592 592.094 348.592L615.041 348.803L634.643 349.03Z" fill="#393939"/>
<path d="M633.052 332.189L634.4 332.303L634.335 327.902L633.149 327.821L633.052 332.189Z" fill="#393939"/>
<path d="M583.064 328.308L610.185 330.419L610.315 326.051L583.292 323.972L583.064 328.308Z" fill="#393939"/>
<path d="M581.198 323.809L569.732 322.916L569.326 327.236L580.938 328.146L581.198 323.809Z" fill="#393939"/>
<path d="M631.054 327.658L612.395 326.213L612.313 330.581L630.908 332.027L631.054 327.658Z" fill="#393939"/>
<g opacity="0.2">
<path d="M633.052 332.189L634.4 332.303L634.335 327.902L633.149 327.821L633.052 332.189Z" fill="white"/>
<path d="M583.065 328.308L610.186 330.419L610.316 326.051L583.293 323.972L583.065 328.308Z" fill="white"/>
<path d="M581.198 323.809L569.732 322.916L569.326 327.236L580.938 328.146L581.198 323.809Z" fill="white"/>
<path d="M631.054 327.658L612.395 326.213L612.313 330.582L630.908 332.027L631.054 327.658Z" fill="white"/>
</g>
<path d="M598.996 330.127H598.867L592.111 329.493C591.757 329.464 591.429 329.299 591.196 329.032C590.963 328.765 590.842 328.418 590.86 328.064L590.958 325.417C590.964 325.231 591.009 325.048 591.09 324.88C591.171 324.712 591.286 324.563 591.429 324.443C591.565 324.316 591.727 324.22 591.903 324.161C592.08 324.102 592.267 324.082 592.452 324.102L599.175 324.621C599.528 324.646 599.858 324.808 600.094 325.071C600.331 325.335 600.455 325.68 600.442 326.034V328.795C600.439 328.983 600.397 329.168 600.319 329.338C600.241 329.509 600.128 329.661 599.987 329.786C599.713 330.022 599.358 330.144 598.996 330.127ZM592.338 325.255C592.296 325.24 592.25 325.24 592.208 325.255C592.198 325.278 592.192 325.303 592.192 325.328C592.192 325.353 592.198 325.378 592.208 325.401L592.094 328.048C592.092 328.075 592.096 328.102 592.104 328.128C592.113 328.153 592.127 328.177 592.145 328.196C592.164 328.216 592.186 328.232 592.211 328.243C592.236 328.254 592.262 328.259 592.289 328.259L599.045 328.892C599.071 328.903 599.099 328.909 599.126 328.909C599.154 328.909 599.182 328.903 599.208 328.892C599.227 328.846 599.227 328.793 599.208 328.746V325.986C599.208 325.932 599.188 325.881 599.152 325.842C599.115 325.803 599.066 325.779 599.013 325.774L592.289 325.255H592.338Z" fill="white"/>
<path d="M598.899 327.886L596.836 327.691C596.679 327.674 596.535 327.597 596.435 327.476C596.335 327.354 596.286 327.198 596.3 327.041C596.317 326.889 596.392 326.749 596.511 326.652C596.629 326.555 596.781 326.508 596.933 326.521L598.996 326.716C599.151 326.716 599.3 326.778 599.409 326.888C599.519 326.997 599.581 327.146 599.581 327.301C599.581 327.456 599.519 327.605 599.409 327.714C599.3 327.824 599.151 327.886 598.996 327.886H598.899Z" fill="white"/>
<path opacity="0.1" d="M643.705 263.088C642.926 265.849 642.195 268.658 641.513 271.484C641.253 272.605 640.993 273.725 640.75 274.846C639.532 280.351 638.492 285.873 637.632 291.2L637.437 292.418C626.28 296.007 614.701 293.538 615.074 282.787C615.61 268.382 627.888 261.675 627.888 261.675C633.36 258.671 639.093 259.84 643.705 263.088Z" fill="#393939"/>
<path d="M534.556 675.6H549.578L500.728 289.575H485.706L534.556 675.6Z" fill="#393939"/>
<path opacity="0.4" d="M534.556 675.6H549.578L500.728 289.575H485.706L534.556 675.6Z" fill="white"/>
<path d="M503.148 346.789H550.909C551.504 346.757 552.078 346.557 552.564 346.212C553.05 345.867 553.428 345.391 553.654 344.84L556.691 338.344H497.366L500.403 344.84C500.629 345.391 501.007 345.867 501.493 346.212C501.979 346.557 502.553 346.757 503.148 346.789Z" fill="#393939"/>
<path opacity="0.4" d="M503.148 346.789H550.909C551.504 346.757 552.078 346.557 552.564 346.212C553.05 345.867 553.428 345.391 553.654 344.84L556.691 338.344H497.366L500.403 344.84C500.629 345.391 501.007 345.867 501.493 346.212C501.979 346.557 502.553 346.757 503.148 346.789Z" fill="white"/>
<path d="M498.162 341.462H555.879C557.592 341.462 558.98 340.074 558.98 338.36V337.662C558.98 335.949 557.592 334.56 555.879 334.56H498.162C496.449 334.56 495.06 335.949 495.06 337.662V338.36C495.06 340.074 496.449 341.462 498.162 341.462Z" fill="#393939"/>
<path opacity="0.1" d="M498.162 341.462H555.879C557.592 341.462 558.98 340.074 558.98 338.36V337.662C558.98 335.949 557.592 334.56 555.879 334.56H498.162C496.449 334.56 495.06 335.949 495.06 337.662V338.36C495.06 340.074 496.449 341.462 498.162 341.462Z" fill="white"/>
<path d="M511.868 401.972H559.614C560.212 401.943 560.788 401.742 561.275 401.393C561.762 401.045 562.138 400.564 562.359 400.007L565.395 393.593H506.087L509.108 400.007C509.331 400.565 509.71 401.047 510.199 401.395C510.689 401.744 511.268 401.944 511.868 401.972Z" fill="#393939"/>
<path opacity="0.4" d="M511.868 401.972H559.614C560.212 401.943 560.788 401.742 561.275 401.393C561.762 401.045 562.138 400.564 562.359 400.007L565.395 393.593H506.087L509.108 400.007C509.331 400.565 509.71 401.047 510.199 401.395C510.689 401.744 511.268 401.944 511.868 401.972Z" fill="white"/>
<path d="M506.883 396.646H564.6C566.313 396.646 567.702 395.257 567.702 393.544V392.846C567.702 391.132 566.313 389.744 564.6 389.744H506.883C505.17 389.744 503.781 391.132 503.781 392.846V393.544C503.781 395.257 505.17 396.646 506.883 396.646Z" fill="#393939"/>
<path opacity="0.1" d="M506.883 396.646H564.6C566.313 396.646 567.702 395.257 567.702 393.544V392.846C567.702 391.132 566.313 389.744 564.6 389.744H506.883C505.17 389.744 503.781 391.132 503.781 392.846V393.544C503.781 395.257 505.17 396.646 506.883 396.646Z" fill="white"/>
<path d="M520.573 475.004H568.4C568.998 474.979 569.577 474.782 570.067 474.436C570.557 474.09 570.936 473.611 571.16 473.055L574.181 466.559H514.808L517.844 473.055C518.065 473.607 518.439 474.084 518.923 474.43C519.406 474.775 519.979 474.975 520.573 475.004Z" fill="#393939"/>
<path opacity="0.4" d="M520.573 475.004H568.4C568.998 474.979 569.577 474.782 570.067 474.436C570.557 474.09 570.936 473.611 571.16 473.055L574.181 466.559H514.808L517.844 473.055C518.065 473.607 518.439 474.084 518.923 474.43C519.406 474.775 519.979 474.975 520.573 475.004Z" fill="white"/>
<path d="M515.587 469.693H573.304C575.018 469.693 576.406 468.305 576.406 466.592V465.893C576.406 464.18 575.018 462.791 573.304 462.791H515.587C513.874 462.791 512.486 464.18 512.486 465.893V466.592C512.486 468.305 513.874 469.693 515.587 469.693Z" fill="#393939"/>
<path opacity="0.1" d="M515.587 469.693H573.304C575.018 469.693 576.406 468.305 576.406 466.592V465.893C576.406 464.18 575.018 462.791 573.304 462.791H515.587C513.874 462.791 512.486 464.18 512.486 465.893V466.592C512.486 468.305 513.874 469.693 515.587 469.693Z" fill="white"/>
<path d="M529.278 548.051H577.039C577.635 548.023 578.211 547.824 578.697 547.479C579.184 547.134 579.561 546.656 579.784 546.102L582.821 539.606H523.496L526.533 546.102C526.756 546.656 527.133 547.134 527.62 547.479C528.106 547.824 528.682 548.023 529.278 548.051Z" fill="#393939"/>
<path opacity="0.4" d="M529.278 548.051H577.039C577.635 548.023 578.211 547.824 578.697 547.479C579.184 547.134 579.561 546.656 579.784 546.102L582.821 539.606H523.496L526.533 546.102C526.756 546.656 527.133 547.134 527.62 547.479C528.106 547.824 528.682 548.023 529.278 548.051Z" fill="white"/>
<path d="M524.293 542.741H582.009C583.723 542.741 585.111 541.352 585.111 539.639V538.941C585.111 537.228 583.723 535.839 582.009 535.839H524.293C522.579 535.839 521.191 537.228 521.191 538.941V539.639C521.191 541.352 522.579 542.741 524.293 542.741Z" fill="#393939"/>
<path opacity="0.1" d="M524.293 542.741H582.009C583.723 542.741 585.111 541.352 585.111 539.639V538.941C585.111 537.228 583.723 535.839 582.009 535.839H524.293C522.579 535.839 521.191 537.228 521.191 538.941V539.639C521.191 541.352 522.579 542.741 524.293 542.741Z" fill="white"/>
<path d="M537.999 621.099H585.744C586.341 621.073 586.917 620.875 587.404 620.529C587.891 620.183 588.268 619.705 588.489 619.15L591.526 612.654H532.201L535.238 619.15C535.462 619.706 535.842 620.185 536.332 620.531C536.821 620.877 537.4 621.074 537.999 621.099Z" fill="#393939"/>
<path opacity="0.4" d="M537.999 621.099H585.744C586.341 621.073 586.917 620.875 587.404 620.529C587.891 620.183 588.268 619.705 588.489 619.15L591.526 612.654H532.201L535.238 619.15C535.462 619.706 535.842 620.185 536.332 620.531C536.821 620.877 537.4 621.074 537.999 621.099Z" fill="white"/>
<path d="M532.997 615.788H590.714C592.427 615.788 593.815 614.4 593.815 612.686V611.988C593.815 610.275 592.427 608.886 590.714 608.886H532.997C531.284 608.886 529.895 610.275 529.895 611.988V612.686C529.895 614.4 531.284 615.788 532.997 615.788Z" fill="#393939"/>
<path opacity="0.1" d="M532.997 615.788H590.714C592.427 615.788 593.815 614.4 593.815 612.686V611.988C593.815 610.275 592.427 608.886 590.714 608.886H532.997C531.284 608.886 529.895 610.275 529.895 611.988V612.686C529.895 614.4 531.284 615.788 532.997 615.788Z" fill="white"/>
<path d="M592.549 675.6H607.571L558.721 289.575H543.699L592.549 675.6Z" fill="#393939"/>
<path opacity="0.7" d="M592.549 675.6H607.571L558.721 289.575H543.699L592.549 675.6Z" fill="white"/>
<path d="M434.842 675.6H419.82L468.654 289.575H483.676L434.842 675.6Z" fill="#393939"/>
<path opacity="0.4" d="M434.842 675.6H419.82L468.654 289.575H483.676L434.842 675.6Z" fill="white"/>
<path d="M524.227 346.789H476.482C475.884 346.76 475.307 346.561 474.818 346.216C474.329 345.871 473.948 345.394 473.721 344.84L470.7 338.344H530.009L526.972 344.84C526.749 345.394 526.372 345.871 525.885 346.217C525.399 346.562 524.823 346.761 524.227 346.789Z" fill="#393939"/>
<path opacity="0.5" d="M524.227 346.789H476.482C475.884 346.76 475.307 346.561 474.818 346.216C474.329 345.871 473.948 345.394 473.721 344.84L470.7 338.344H530.009L526.972 344.84C526.749 345.394 526.372 345.871 525.885 346.217C525.399 346.562 524.823 346.761 524.227 346.789Z" fill="white"/>
<path d="M529.213 334.577H471.496C469.783 334.577 468.395 335.965 468.395 337.678V338.377C468.395 340.09 469.783 341.479 471.496 341.479H529.213C530.926 341.479 532.315 340.09 532.315 338.377V337.678C532.315 335.965 530.926 334.577 529.213 334.577Z" fill="#393939"/>
<path opacity="0.2" d="M529.213 334.577H471.496C469.783 334.577 468.395 335.965 468.395 337.678V338.377C468.395 340.09 469.783 341.479 471.496 341.479H529.213C530.926 341.479 532.315 340.09 532.315 338.377V337.678C532.315 335.965 530.926 334.577 529.213 334.577Z" fill="white"/>
<path d="M515.523 401.972H467.712C467.115 401.941 466.539 401.739 466.053 401.391C465.566 401.043 465.19 400.563 464.968 400.007L461.931 393.593H521.304L518.267 400.007C518.045 400.563 517.668 401.043 517.182 401.391C516.696 401.739 516.12 401.941 515.523 401.972Z" fill="#393939"/>
<path opacity="0.5" d="M515.523 401.972H467.712C467.115 401.941 466.539 401.739 466.053 401.391C465.566 401.043 465.19 400.563 464.968 400.007L461.931 393.593H521.304L518.267 400.007C518.045 400.563 517.668 401.043 517.182 401.391C516.696 401.739 516.12 401.941 515.523 401.972Z" fill="white"/>
<path d="M520.508 389.744H462.791C461.078 389.744 459.689 391.132 459.689 392.846V393.544C459.689 395.257 461.078 396.646 462.791 396.646H520.508C522.221 396.646 523.61 395.257 523.61 393.544V392.846C523.61 391.132 522.221 389.744 520.508 389.744Z" fill="#393939"/>
<path opacity="0.2" d="M520.508 389.744H462.791C461.078 389.744 459.689 391.132 459.689 392.846V393.544C459.689 395.257 461.078 396.646 462.791 396.646H520.508C522.221 396.646 523.61 395.257 523.61 393.544V392.846C523.61 391.132 522.221 389.744 520.508 389.744Z" fill="white"/>
<path d="M506.801 475.004H459.056C458.459 474.978 457.883 474.78 457.396 474.434C456.909 474.088 456.533 473.61 456.311 473.055L453.274 466.559H512.583L509.562 473.055C509.338 473.611 508.958 474.09 508.469 474.436C507.979 474.782 507.4 474.979 506.801 475.004Z" fill="#393939"/>
<path opacity="0.5" d="M506.801 475.004H459.056C458.459 474.978 457.883 474.78 457.396 474.434C456.909 474.088 456.533 473.61 456.311 473.055L453.274 466.559H512.583L509.562 473.055C509.338 473.611 508.958 474.09 508.469 474.436C507.979 474.782 507.4 474.979 506.801 475.004Z" fill="white"/>
<path d="M511.788 462.791H454.071C452.357 462.791 450.969 464.18 450.969 465.893V466.591C450.969 468.305 452.357 469.693 454.071 469.693H511.788C513.501 469.693 514.889 468.305 514.889 466.591V465.893C514.889 464.18 513.501 462.791 511.788 462.791Z" fill="#393939"/>
<path opacity="0.2" d="M511.788 462.791H454.071C452.357 462.791 450.969 464.18 450.969 465.893V466.591C450.969 468.305 452.357 469.693 454.071 469.693H511.788C513.501 469.693 514.889 468.305 514.889 466.591V465.893C514.889 464.18 513.501 462.791 511.788 462.791Z" fill="white"/>
<path d="M498.097 548.051H450.352C449.753 548.024 449.175 547.826 448.686 547.481C448.197 547.135 447.817 546.657 447.591 546.102L444.57 539.606H503.879L500.842 546.102C500.621 546.657 500.244 547.136 499.757 547.482C499.27 547.827 498.694 548.025 498.097 548.051Z" fill="#393939"/>
<path opacity="0.5" d="M498.097 548.051H450.352C449.753 548.024 449.175 547.826 448.686 547.481C448.197 547.135 447.817 546.657 447.591 546.102L444.57 539.606H503.879L500.842 546.102C500.621 546.657 500.244 547.136 499.757 547.482C499.27 547.827 498.694 548.025 498.097 548.051Z" fill="white"/>
<path d="M503.082 535.839H445.366C443.652 535.839 442.264 537.228 442.264 538.941V539.639C442.264 541.352 443.652 542.741 445.366 542.741H503.082C504.796 542.741 506.184 541.352 506.184 539.639V538.941C506.184 537.228 504.796 535.839 503.082 535.839Z" fill="#393939"/>
<path opacity="0.2" d="M503.082 535.839H445.366C443.652 535.839 442.264 537.228 442.264 538.941V539.639C442.264 541.352 443.652 542.741 445.366 542.741H503.082C504.796 542.741 506.184 541.352 506.184 539.639V538.941C506.184 537.228 504.796 535.839 503.082 535.839Z" fill="white"/>
<path d="M489.393 621.099H441.631C441.035 621.071 440.46 620.872 439.973 620.527C439.487 620.181 439.11 619.703 438.886 619.15L435.85 612.654H495.174L492.137 619.15C491.916 619.705 491.539 620.183 491.052 620.529C490.566 620.875 489.989 621.073 489.393 621.099Z" fill="#393939"/>
<path opacity="0.5" d="M489.393 621.099H441.631C441.035 621.071 440.46 620.872 439.973 620.527C439.487 620.181 439.11 619.703 438.886 619.15L435.85 612.654H495.174L492.137 619.15C491.916 619.705 491.539 620.183 491.052 620.529C490.566 620.875 489.989 621.073 489.393 621.099Z" fill="white"/>
<path d="M494.378 608.886H436.661C434.948 608.886 433.56 610.275 433.56 611.988V612.687C433.56 614.4 434.948 615.788 436.661 615.788H494.378C496.091 615.788 497.48 614.4 497.48 612.687V611.988C497.48 610.275 496.091 608.886 494.378 608.886Z" fill="#393939"/>
<path opacity="0.2" d="M494.378 608.886H436.661C434.948 608.886 433.56 610.275 433.56 611.988V612.687C433.56 614.4 434.948 615.788 436.661 615.788H494.378C496.091 615.788 497.48 614.4 497.48 612.687V611.988C497.48 610.275 496.091 608.886 494.378 608.886Z" fill="white"/>
<path d="M492.819 675.6H477.797L526.647 289.575H541.669L492.819 675.6Z" fill="#393939"/>
<path opacity="0.7" d="M492.819 675.6H477.797L526.647 289.575H541.669L492.819 675.6Z" fill="white"/>
<path d="M561.125 291.54H465.926C465.331 291.508 464.757 291.308 464.272 290.963C463.786 290.618 463.408 290.143 463.181 289.592L460.145 283.096H566.906L563.886 289.592C563.649 290.139 563.266 290.61 562.779 290.953C562.292 291.297 561.72 291.5 561.125 291.54Z" fill="#393939"/>
<path opacity="0.5" d="M561.125 291.54H465.926C465.331 291.508 464.757 291.308 464.272 290.963C463.786 290.618 463.408 290.143 463.181 289.592L460.145 283.096H566.906L563.886 289.592C563.649 290.139 563.266 290.61 562.779 290.953C562.292 291.297 561.72 291.5 561.125 291.54Z" fill="white"/>
<path d="M566.11 279.328H460.956C459.243 279.328 457.854 280.717 457.854 282.43V283.128C457.854 284.841 459.243 286.23 460.956 286.23H566.11C567.823 286.23 569.212 284.841 569.212 283.128V282.43C569.212 280.717 567.823 279.328 566.11 279.328Z" fill="#393939"/>
<path opacity="0.2" d="M566.11 279.328H460.956C459.243 279.328 457.854 280.717 457.854 282.43V283.128C457.854 284.841 459.243 286.23 460.956 286.23H566.11C567.823 286.23 569.212 284.841 569.212 283.128V282.43C569.212 280.717 567.823 279.328 566.11 279.328Z" fill="white"/>
<path d="M567.783 289.933L555.295 281.131L549.448 293.132C549.448 293.132 557.308 300.505 565.331 296.672L567.783 289.933Z" fill="#EBB376"/>
<path d="M544.511 279.783L542.303 289.77L549.448 293.132L555.295 281.131L544.511 279.783Z" fill="#EBB376"/>
<path d="M653.156 262.162C650.704 265.946 648.203 269.568 645.589 273.108C643.624 275.723 641.61 278.305 639.499 280.838C638.865 281.618 638.216 282.381 637.566 283.144C636.283 284.622 634.984 286.1 633.62 287.562C631.996 289.381 630.161 291.167 628.26 292.921L627.172 293.895C625.754 295.207 624.263 296.438 622.706 297.582C620.39 299.318 617.85 300.732 615.155 301.788C614.357 302.098 613.538 302.348 612.703 302.535C611.907 302.73 611.225 302.827 610.494 302.957C609.207 303.133 607.911 303.241 606.613 303.282C604.16 303.363 601.87 303.282 599.613 303.168C595.131 302.925 590.811 302.324 586.54 301.691C581.083 300.83 575.724 299.758 570.414 298.443C568.449 297.988 566.5 297.484 564.551 296.965L561.449 296.104C560.46 295.814 559.6 295.197 559.009 294.352C558.419 293.508 558.134 292.487 558.201 291.459C558.223 291.13 558.278 290.804 558.364 290.485C558.596 289.641 559.071 288.884 559.729 288.307C560.387 287.73 561.199 287.358 562.066 287.237C562.341 287.205 562.619 287.205 562.894 287.237H562.976H564.112C566.565 287.318 568.984 287.416 571.469 287.481C576.942 287.675 582.399 287.822 587.709 287.903C591.785 287.903 595.829 287.903 599.743 287.773C601.692 287.692 603.592 287.529 605.313 287.286C606.602 287.195 607.866 286.882 609.049 286.36C610.178 285.712 611.234 284.944 612.199 284.07C613.174 283.226 614.197 282.284 615.204 281.261C615.496 280.985 615.772 280.692 616.048 280.4C616.616 279.815 617.169 279.198 617.672 278.581C619.069 277.054 620.417 275.463 621.764 273.823C622.365 273.076 622.982 272.329 623.583 271.565C626.507 267.879 629.413 263.997 632.223 260.084C634.139 257.437 636.023 254.757 637.842 252.126L637.94 251.964C638.845 250.64 640.09 249.586 641.545 248.911L648.349 249.203L650.12 249.3C650.305 249.402 650.484 249.516 650.655 249.641C652.62 250.992 653.98 253.056 654.447 255.394C654.914 257.732 654.451 260.16 653.156 262.162Z" fill="#FFB573"/>
<path d="M648.918 272.946C645.85 277.376 642.411 281.538 638.638 285.386C637.631 286.425 636.56 287.497 635.39 288.634L633.571 287.61L617.64 278.646L616.162 277.818C616.162 277.818 617.201 276.194 618.744 273.936C620.677 271.013 623.421 266.84 625.971 262.909C627.952 259.824 629.804 256.884 631.022 254.789C632.375 252.469 634.162 250.429 636.283 248.781L641.513 248.959L648.317 249.252L650.087 249.349L654.618 249.576C656.713 254.416 656.259 262.097 648.918 272.946Z" fill="#E34B95"/>
<path opacity="0.7" d="M648.918 272.946C645.85 277.376 642.411 281.538 638.638 285.386C637.631 286.425 636.56 287.497 635.39 288.634L633.571 287.61L617.64 278.646L616.162 277.818C616.162 277.818 617.201 276.194 618.744 273.936C620.677 271.013 623.421 266.84 625.971 262.909C627.952 259.824 629.804 256.884 631.022 254.789C632.375 252.469 634.162 250.429 636.283 248.781L641.513 248.959L648.317 249.252L650.087 249.349L654.618 249.576C656.713 254.416 656.259 262.097 648.918 272.946Z" fill="white"/>
<path d="M411.424 675.324C411.432 675.416 411.432 675.508 411.424 675.6C411.432 675.643 411.432 675.687 411.424 675.73C411.405 675.814 411.377 675.895 411.343 675.974C411.296 676.083 411.236 676.187 411.165 676.282C411.094 676.398 411.012 676.507 410.921 676.607C410.154 677.353 409.249 677.943 408.258 678.345L407.462 678.686C406.682 679.011 405.838 679.319 404.815 679.628C404.198 679.823 403.548 680.001 402.85 680.196C391.482 683.266 369.639 685.734 342.177 687.098L338.929 687.261L333.602 687.488L328.129 687.683L324.345 687.813C321.341 687.894 318.304 687.975 315.219 688.024H314.098H312.003H309.973C307.131 688.024 304.257 688.024 301.366 688.121H293.522C284.038 688.121 274.797 688.008 265.914 687.764L261.984 687.634C260.847 687.634 259.71 687.634 258.59 687.537L253.36 687.358L246.556 687.066L244.786 686.968L240.255 686.741C232.801 686.319 225.801 685.831 219.37 685.247C203.975 683.883 191.762 682.113 184.211 680.066L183.561 679.888L182.846 679.676C181.628 679.319 180.573 678.946 179.598 678.588C179.257 678.442 178.933 678.312 178.64 678.166C178.155 677.939 177.683 677.684 177.227 677.403C177.072 677.313 176.926 677.21 176.789 677.094L176.432 676.818L176.091 676.477C176 676.382 175.918 676.279 175.847 676.169C175.727 675.996 175.639 675.804 175.587 675.6V675.422C175.579 675.346 175.579 675.27 175.587 675.194C175.587 669.9 204.543 665.353 246.02 663.355L249.349 663.193L253.831 663.014L260.717 662.771L264.436 662.657L273.173 662.446H273.644H276.161H277.867C280.433 662.446 283.015 662.446 285.629 662.365H286.409C288.764 662.365 291.135 662.365 293.522 662.365C303.136 662.365 312.474 662.495 321.422 662.722L327.918 662.933L330.679 663.03H330.955L333.976 663.144L335.957 663.225L341.089 663.453L345.961 663.696C355.25 664.2 363.825 664.833 371.555 665.58C395.98 668 411.424 671.459 411.424 675.324Z" fill="#393939"/>
<path opacity="0.4" d="M175.555 675.324C175.555 670.03 204.511 665.483 245.988 663.485L249.317 663.323L253.799 663.144C260.019 662.901 266.482 662.722 273.141 662.576H276.129H277.834C282.95 662.495 288.179 662.462 293.49 662.462C303.104 662.462 312.442 662.592 321.39 662.819L327.886 663.031C344.207 663.566 359.018 664.492 371.49 665.694C395.964 668.065 411.408 671.524 411.408 675.438C411.408 677.159 408.339 678.816 402.769 680.31C392.48 677.899 382.024 676.271 371.49 675.438C359.018 674.236 344.207 673.31 327.886 672.775L321.39 672.563C312.442 672.336 303.104 672.206 293.49 672.206C288.179 672.206 282.95 672.206 277.834 672.32H276.08H273.092C266.434 672.466 259.97 672.645 253.75 672.888L249.268 673.067L245.939 673.229C217.957 674.577 195.692 677.078 184.227 680.196C178.64 678.686 175.555 677.062 175.555 675.324Z" fill="white"/>
<path d="M283.567 669.332C282.673 670.403 281.845 671.329 281.017 672.222C280.595 672.661 280.189 673.099 279.75 673.538C278.971 674.334 278.207 675.162 277.412 675.876C276.892 676.396 276.356 676.899 275.788 677.403C273.036 679.948 270.123 682.313 267.067 684.484L266.547 684.841C266.092 685.166 265.621 685.474 265.134 685.799C264.111 686.481 263.055 687.147 261.886 687.764C260.749 687.764 259.613 687.764 258.492 687.667L253.263 687.488L246.458 687.196L244.688 687.098L240.157 686.871C232.703 686.449 225.704 685.961 219.272 685.377L221.806 684.565C228.302 682.454 234.798 680.472 241.131 678.394C242.755 677.858 244.266 677.338 245.711 676.77C246.957 676.357 248.154 675.813 249.284 675.146C249.999 674.723 250.746 674.252 251.493 673.749C251.882 673.489 252.288 673.213 252.694 672.904C253.864 672.076 255.033 671.151 256.186 670.192C258.525 668.276 260.814 666.165 263.088 663.972L264.306 662.771C265.037 662.072 265.751 661.374 266.45 660.643L269.698 657.395L269.893 657.184C270.872 656.166 272.073 655.387 273.403 654.908C274.732 654.429 276.154 654.263 277.558 654.423C279.606 654.658 281.514 655.581 282.968 657.041C284.423 658.502 285.338 660.413 285.564 662.462C285.707 663.683 285.604 664.919 285.261 666.099C284.918 667.279 284.342 668.378 283.567 669.332Z" fill="#FFB573"/>
<path d="M279.929 650.688C270.867 650.477 250.697 673.002 250.697 673.002L267.343 687.748C267.343 687.748 282.203 681.252 285.841 670.615C289.478 659.977 279.929 650.688 279.929 650.688Z" fill="#E34B95"/>
<path opacity="0.7" d="M285.825 670.615C284.098 674.928 281.215 678.681 277.494 681.463C274.366 683.962 270.947 686.073 267.311 687.748L262.845 683.785L250.665 673.002C250.665 673.002 270.819 650.477 279.897 650.688C279.93 650.688 289.511 659.912 285.825 670.615Z" fill="white"/>
<path opacity="0.1" d="M277.542 681.463C274.415 683.962 270.996 686.073 267.36 687.748L262.894 683.785C265.266 676.842 269.509 670.688 275.155 666.002C277.136 669.705 277.786 677.582 277.542 681.463Z" fill="#393939"/>
<path d="M342.518 660.189C342.421 660.4 342.323 660.595 342.242 660.806C341.982 661.374 341.739 661.942 341.495 662.527C341.348 662.828 341.218 663.137 341.105 663.453C341.071 663.515 341.044 663.58 341.024 663.648C340.905 663.889 340.801 664.139 340.715 664.395C340.439 665.044 340.18 665.71 339.92 666.392C339.66 667.074 339.286 668.097 338.978 668.958C338.978 668.958 338.978 669.039 338.978 669.072C338.75 669.689 338.539 670.306 338.328 670.939C338.117 671.573 337.89 672.206 337.695 672.839C337.688 672.904 337.688 672.97 337.695 673.034C337.5 673.619 337.305 674.204 337.126 674.788C336.753 676.023 336.379 677.257 336.022 678.523L335.925 678.865C335.145 681.625 334.414 684.435 333.732 687.261C333.725 687.32 333.725 687.38 333.732 687.439L328.259 687.634L324.475 687.764C321.471 687.845 318.434 687.926 315.349 687.975H314.228H312.133H310.103C307.261 687.975 304.387 687.975 301.496 688.073H293.652C284.168 688.073 274.927 687.959 266.044 687.715L266.288 686.514C266.288 686.254 266.401 686.01 266.466 685.766C266.531 685.523 266.564 685.279 266.629 685.036C266.662 684.918 266.689 684.799 266.71 684.678C267.435 681.43 268.193 678.469 268.983 675.795C269.276 674.853 269.536 673.96 269.812 673.067C269.909 672.791 269.99 672.515 270.088 672.239C270.299 671.573 270.51 670.939 270.721 670.322L271.062 669.332C271.241 668.828 271.419 668.325 271.598 667.854C271.777 667.383 272.004 666.733 272.199 666.23L272.735 664.866L273.709 662.511C274.456 660.724 275.187 659.165 275.869 657.785C275.999 657.558 276.113 657.314 276.226 657.087L276.908 655.771L277.704 654.326C277.754 654.254 277.797 654.178 277.834 654.099C278.11 653.595 278.386 653.14 278.63 652.751L279.263 651.744L280.027 650.639C284.846 650.179 289.69 650.021 294.529 650.168C295.552 650.168 296.591 650.25 297.647 650.315C298.703 650.38 299.661 650.477 300.765 650.607C303.087 650.867 305.637 651.224 308.349 651.663L313.448 652.539C315.154 652.848 316.843 653.157 318.467 653.481L319.327 653.66C320.61 653.904 321.861 654.163 323.014 654.407C323.81 654.569 324.638 654.748 325.385 654.943C325.791 655.04 326.181 655.122 326.57 655.235L327.756 655.528C329.234 655.901 330.695 656.307 332.076 656.697L333.424 657.103L335.941 657.882L338.15 658.597C340.667 659.425 342.339 660.042 342.583 660.124L342.518 660.189Z" fill="#E34B95"/>
<path opacity="0.7" d="M342.535 660.188C342.437 660.4 342.34 660.594 342.258 660.806C341.999 661.374 341.739 661.942 341.511 662.527C341.36 662.83 341.23 663.139 341.122 663.453C341.115 663.517 341.115 663.583 341.122 663.648C341.002 663.889 340.899 664.139 340.813 664.395C340.537 665.044 340.277 665.71 340.017 666.392C339.758 667.074 339.368 668.097 339.075 668.958C339.075 668.958 339.075 669.039 339.075 669.072C338.848 669.689 338.637 670.306 338.426 670.939C338.215 671.573 337.987 672.206 337.792 672.839V672.953C337.598 673.538 337.403 674.122 337.224 674.707C336.851 675.941 336.477 677.176 336.12 678.442L336.022 678.783C335.243 681.544 334.512 684.354 333.83 687.179C333.822 687.239 333.822 687.299 333.83 687.358L328.357 687.553L324.573 687.683C321.569 687.764 318.532 687.845 315.446 687.894H314.326H312.231H310.201C307.359 687.894 304.484 687.894 301.594 687.991H293.75C284.265 687.991 275.025 687.878 266.142 687.634L266.385 686.449C266.499 685.929 266.596 685.442 266.71 684.954C266.743 684.837 266.77 684.718 266.791 684.597C267.517 681.349 268.274 678.388 269.065 675.714C269.357 674.772 269.617 673.879 269.893 672.986C269.99 672.709 270.072 672.433 270.169 672.157C270.38 671.492 270.591 670.858 270.802 670.241L271.144 669.25C271.322 668.747 271.501 668.243 271.679 667.773C271.858 667.302 272.085 666.652 272.28 666.149L272.816 664.784L273.791 662.43C274.538 660.643 275.268 659.084 275.934 657.704C276.064 657.476 276.178 657.233 276.292 657.005L276.974 655.69L277.769 654.245C277.819 654.172 277.862 654.096 277.899 654.017L278.695 652.669L279.328 651.662L280.092 650.558C284.911 650.097 289.755 649.94 294.594 650.087C295.617 650.087 296.657 650.168 297.712 650.233C298.768 650.298 299.726 650.396 300.83 650.526C303.153 650.786 305.702 651.143 308.414 651.581L313.514 652.458C315.219 652.767 316.908 653.075 318.532 653.4L319.393 653.579C320.676 653.822 321.926 654.082 323.079 654.326C323.875 654.488 324.703 654.667 325.45 654.862C325.856 654.959 326.246 655.04 326.636 655.154L327.821 655.43C329.299 655.804 330.761 656.21 332.141 656.616L333.489 657.022L336.006 657.801L338.215 658.516C340.732 659.344 342.405 659.961 342.648 660.042L342.535 660.188Z" fill="white"/>
<path d="M313.156 630.843C313.156 630.843 313.66 648.122 315.3 650.688C316.94 653.254 322.868 654.439 322.868 654.439C322.868 654.439 308.625 661.52 301.967 660.188C295.309 658.857 292.109 650.168 292.109 650.168C292.109 650.168 296.754 650.347 297.891 649.714C299.028 649.08 296.998 637.631 296.998 637.631L313.156 630.843Z" fill="#EBB376"/>
<path opacity="0.2" d="M298.361 641.935L297.777 642.763C297.419 640.083 296.997 637.631 296.997 637.631L313.14 630.843C313.14 630.843 313.562 644.76 314.764 649.47C308.235 650.152 300.602 645.313 298.361 641.935Z" fill="#393939"/>
<path d="M307.634 601.822C312.051 604.128 318.369 611.566 311.451 614.051C304.532 616.535 300.05 597.876 307.634 601.822Z" fill="#393939"/>
<path d="M288.001 630.567C291.39 634.705 295.081 638.586 299.044 642.178C301.892 644.591 305.389 646.111 309.096 646.547C322.088 648.171 330.501 634.334 325.255 622.918C324.648 621.61 323.97 620.336 323.225 619.101C317.525 609.715 306.563 599.857 295.715 603.072C292.98 603.884 290.496 605.375 288.495 607.407C286.493 609.438 285.039 611.944 284.269 614.69C283.498 617.436 283.437 620.333 284.089 623.109C284.742 625.886 286.088 628.451 288.001 630.567Z" fill="#EBB376"/>
<path d="M293.344 629.787L293.945 631.736C295.086 635.485 296.83 639.023 299.109 642.211C301.957 644.624 305.454 646.143 309.161 646.579C322.153 648.203 330.566 634.367 325.32 622.95C324.713 621.642 324.035 620.368 323.29 619.134C323.29 619.134 324.265 623.713 323.42 625.841C323.42 625.841 318.548 624.59 316.145 626.588C316.145 626.588 310.98 625.175 306.596 630.648C304.591 631.959 302.216 632.583 299.826 632.428C297.436 632.273 295.162 631.346 293.344 629.787Z" fill="#393939"/>
<path opacity="0.5" d="M293.344 629.787L293.945 631.736C295.086 635.485 296.83 639.023 299.109 642.211C301.957 644.624 305.454 646.143 309.161 646.579C322.153 648.203 330.566 634.367 325.32 622.95C324.713 621.642 324.035 620.368 323.29 619.134C323.29 619.134 324.265 623.713 323.42 625.841C323.42 625.841 318.548 624.59 316.145 626.588C316.145 626.588 310.98 625.175 306.596 630.648C304.591 631.959 302.216 632.583 299.826 632.428C297.436 632.273 295.162 631.346 293.344 629.787Z" fill="white"/>
<path d="M274.456 624.493C268.561 619.54 274.147 612.378 280.318 609.877C280.985 609.613 281.553 609.147 281.942 608.545L289.267 619.8C288.601 620.108 287.935 620.417 287.302 620.66C287.302 620.66 295.86 628.228 295.032 635.764C283.079 639.141 271.549 632.987 274.456 624.493Z" fill="#393939"/>
<path d="M290.583 641.48C291.837 642.332 293.249 642.925 294.735 643.223C296.222 643.522 297.753 643.52 299.239 643.218C299.525 643.163 299.808 643.087 300.083 642.99C302.552 640.668 295.211 632.499 294.87 632.077C294.085 631.838 293.257 631.772 292.444 631.884C291.631 631.996 290.852 632.284 290.16 632.727C289.462 633.241 288.902 633.92 288.529 634.704C288.157 635.487 287.984 636.35 288.026 637.217C288.067 638.083 288.323 638.925 288.769 639.669C289.215 640.413 289.838 641.035 290.583 641.48Z" fill="#EBB376"/>
<path d="M304.597 621.667C305.198 622.447 306.108 622.755 306.627 622.349C307.147 621.943 307.05 620.969 306.432 620.189C305.815 619.41 304.906 619.101 304.402 619.507C303.899 619.913 303.98 620.888 304.597 621.667Z" fill="#393939"/>
<path d="M313.433 614.635C314.034 615.415 314.943 615.723 315.463 615.317C315.982 614.911 315.885 613.953 315.268 613.158C314.651 612.362 313.741 612.069 313.238 612.492C312.734 612.914 312.767 613.872 313.433 614.635Z" fill="#393939"/>
<path d="M310.883 617.266C313.656 618.81 316.629 619.963 319.717 620.693C319.328 622.999 316.469 624.282 316.469 624.282L310.883 617.266Z" fill="#D58745"/>
<path d="M301.106 615.626C301.015 615.674 300.94 615.747 300.888 615.836C300.836 615.925 300.811 616.027 300.814 616.129C300.826 616.866 300.665 617.596 300.344 618.259C300.022 618.922 299.549 619.5 298.962 619.946C298.837 620.034 298.749 620.167 298.716 620.317C298.683 620.467 298.707 620.624 298.784 620.758C298.825 620.823 298.879 620.88 298.942 620.924C299.005 620.969 299.077 621 299.152 621.017C299.228 621.033 299.306 621.035 299.382 621.021C299.458 621.007 299.531 620.978 299.596 620.936C300.353 620.374 300.963 619.638 301.376 618.79C301.788 617.942 301.991 617.007 301.967 616.064C301.967 615.912 301.907 615.766 301.801 615.657C301.695 615.547 301.55 615.484 301.398 615.48C301.289 615.499 301.187 615.55 301.106 615.626Z" fill="#393939"/>
<path d="M314.812 608.285C314.905 608.217 314.974 608.12 315.007 608.009C315.06 607.865 315.054 607.706 314.99 607.566C314.926 607.426 314.81 607.317 314.666 607.262C313.804 606.926 312.873 606.806 311.953 606.91C311.033 607.015 310.153 607.342 309.388 607.863C309.287 607.963 309.225 608.096 309.215 608.237C309.204 608.379 309.245 608.519 309.331 608.633C309.416 608.746 309.54 608.825 309.679 608.853C309.818 608.882 309.963 608.859 310.087 608.789C310.699 608.385 311.4 608.135 312.129 608.061C312.859 607.988 313.596 608.093 314.277 608.367C314.366 608.399 314.461 608.408 314.555 608.394C314.648 608.38 314.737 608.343 314.812 608.285Z" fill="#393939"/>
<path d="M316.421 634.984C316.738 634.864 317.047 634.723 317.346 634.562L318.142 628.163C318.142 628.163 317.752 628.163 317.151 628.163C315.138 628.163 310.655 628.618 309.454 630.924C309.322 631.189 309.219 631.466 309.145 631.752C308.842 632.784 308.917 633.889 309.356 634.87C310.087 636.234 312.036 636.949 316.421 634.984Z" fill="#393939"/>
<path d="M309.145 631.736L316.956 628.91L317.151 628.147C315.137 628.147 310.655 628.602 309.453 630.908C309.322 631.172 309.218 631.45 309.145 631.736Z" fill="white"/>
<path d="M316.421 634.984C315.057 632.71 311.419 633.88 309.356 634.887C310.087 636.235 312.036 636.949 316.421 634.984Z" fill="#DE5753"/>
<path d="M274.456 624.493C272.052 622.642 268.544 617.656 273.254 612.459C277.964 607.262 283.534 604.696 280.903 600.929C278.272 597.161 282.933 593.962 286.214 596.414C286.214 596.414 293.928 583.796 299.417 593.491C299.417 593.491 304.792 589.788 308.089 593.767C311.386 597.746 312.068 602.001 307.732 603.511C303.396 605.021 302.99 605.492 303.737 608.009C304.484 610.527 300.716 612.605 300.716 612.605C300.716 612.605 303.054 611.111 301.723 609.357C301.488 610.469 300.934 611.487 300.129 612.289C299.325 613.091 298.304 613.641 297.192 613.872C292.986 615.187 294.934 619.28 294.934 619.28C294.934 619.28 292.677 620.157 292.19 616.941C292.19 616.941 290.436 624.119 285.694 625.906C280.952 627.692 278.029 627.27 274.456 624.493Z" fill="#393939"/>
<path opacity="0.1" d="M335.795 678.913C335.016 681.674 334.285 684.484 333.603 687.309C333.595 687.369 333.595 687.429 333.603 687.488L328.13 687.683L324.346 687.813C321.342 687.894 318.305 687.975 315.219 688.024H314.099H312.004H309.974C311.943 684.322 314.718 681.109 318.094 678.621C318.694 678.164 319.324 677.747 319.977 677.37C321.329 676.629 322.794 676.118 324.314 675.86C328.393 675.34 332.513 676.436 335.795 678.913Z" fill="#393939"/>
<path d="M346.692 673.538C346.61 675.127 346.112 676.668 345.247 678.004C343.184 681.252 341.089 684.272 338.897 687.261L333.57 687.488L328.097 687.683L324.313 687.813C321.309 687.894 318.272 687.975 315.187 688.024C315.365 687.829 315.511 687.634 315.674 687.439C318.597 683.753 321.504 679.871 324.313 675.958C325.109 674.87 325.937 673.765 326.652 672.71C327.773 671.086 328.844 669.591 329.9 668.049L330.014 667.886C331.166 666.22 332.839 664.983 334.769 664.369C336.7 663.755 338.78 663.798 340.683 664.492C341.415 664.758 342.108 665.118 342.746 665.564C344.029 666.446 345.066 667.642 345.756 669.037C346.447 670.433 346.769 671.982 346.692 673.538Z" fill="#FFB573"/>
<path d="M347.618 673.586C346.751 678.427 344.875 683.03 342.112 687.098L338.864 687.261L333.538 687.488L328.065 687.683L324.281 687.813C321.276 687.894 318.24 687.975 315.154 688.024H314.033H311.938C313.741 685.296 315.966 681.885 318.061 678.653C319.49 676.412 320.854 674.269 321.959 672.45L323.112 670.55C324.923 667.419 327.521 664.816 330.647 662.998C334.237 660.96 338.33 659.981 342.453 660.172C343.839 661.071 345.004 662.27 345.864 663.68C347.61 666.668 348.232 670.181 347.618 673.586Z" fill="#E34B95"/>
<path opacity="0.7" d="M347.618 673.586C346.751 678.427 344.875 683.03 342.112 687.098L338.864 687.261L333.538 687.488L328.065 687.683L324.281 687.813C321.276 687.894 318.24 687.975 315.154 688.024H314.033H311.938C313.741 685.296 315.966 681.885 318.061 678.653C319.49 676.412 320.854 674.269 321.959 672.45L323.112 670.55C324.923 667.419 327.521 664.816 330.647 662.998C334.237 660.96 338.33 659.981 342.453 660.172C343.839 661.071 345.004 662.27 345.864 663.68C347.61 666.668 348.232 670.181 347.618 673.586Z" fill="white"/>
</svg>
