<svg width="50" height="50" viewBox="0 0 50 50" fill="none" xmlns="http://www.w3.org/2000/svg">
<path d="M24.9998 4.16602C13.5207 4.16602 4.1665 13.5202 4.1665 24.9993C4.1665 36.4785 13.5207 45.8327 24.9998 45.8327C36.479 45.8327 45.8332 36.4785 45.8332 24.9993C45.8332 13.5202 36.479 4.16602 24.9998 4.16602ZM34.9582 20.2077L23.1457 32.0202C22.854 32.3118 22.4582 32.4785 22.0415 32.4785C21.6248 32.4785 21.229 32.3118 20.9373 32.0202L15.0415 26.1243C14.4373 25.5202 14.4373 24.5202 15.0415 23.916C15.6457 23.3118 16.6457 23.3118 17.2498 23.916L22.0415 28.7077L32.7498 17.9993C33.354 17.3952 34.354 17.3952 34.9582 17.9993C35.5623 18.6035 35.5623 19.5827 34.9582 20.2077Z" fill="#DC1E7A"/>
</svg>
