<svg width="280" height="361" viewBox="0 0 280 361" fill="none" xmlns="http://www.w3.org/2000/svg">
<path d="M0 32C0 20.799 0 15.1984 2.17987 10.9202C4.09734 7.15695 7.15695 4.09734 10.9202 2.17987C15.1984 0 20.799 0 32 0H248C259.201 0 264.802 0 269.08 2.17987C272.843 4.09734 275.903 7.15695 277.82 10.9202C280 15.1984 280 20.799 280 32V329C280 340.201 280 345.802 277.82 350.08C275.903 353.843 272.843 356.903 269.08 358.82C264.802 361 259.201 361 248 361H32C20.7989 361 15.1984 361 10.9202 358.82C7.15695 356.903 4.09734 353.843 2.17987 350.08C0 345.802 0 340.201 0 329V32Z" fill="white"/>
<path d="M78.9554 246.184H77.4434L77.2454 237.094H79.1354L78.9554 246.184ZM78.1994 250.198C77.8634 250.198 77.5754 250.084 77.3354 249.856C77.1074 249.616 76.9934 249.322 76.9934 248.974C76.9934 248.626 77.1074 248.338 77.3354 248.11C77.5754 247.87 77.8634 247.75 78.1994 247.75C78.5474 247.75 78.8414 247.87 79.0814 248.11C79.3214 248.338 79.4414 248.626 79.4414 248.974C79.4414 249.322 79.3214 249.616 79.0814 249.856C78.8414 250.084 78.5474 250.198 78.1994 250.198ZM86.5028 240.73L88.9688 246.562C89.1968 247.114 89.4548 247.498 89.7428 247.714C90.0308 247.918 90.4268 248.02 90.9308 248.02H91.1288L91.2368 249.01L91.1288 250H90.9308C90.1508 250 89.4908 249.796 88.9508 249.388C88.4108 248.968 87.9428 248.314 87.5468 247.426L85.0088 241.522L86.5028 240.73ZM81.9308 247.318C82.3988 247.582 82.8428 247.798 83.2628 247.966C83.6948 248.122 84.2168 248.2 84.8288 248.2C86.0288 248.2 87.1028 247.804 88.0508 247.012L88.9328 248.218C88.6208 248.542 88.3208 248.824 88.0328 249.064C87.7448 249.304 87.3368 249.532 86.8088 249.748C86.2928 249.964 85.6868 250.072 84.9908 250.072C84.1388 250.072 83.4068 249.94 82.7948 249.676C82.1828 249.412 81.6308 249.1 81.1388 248.74L81.9308 247.318ZM101.031 248.02C101.451 248.02 101.769 247.906 101.985 247.678C102.201 247.438 102.309 247.102 102.309 246.67C102.309 246.286 102.189 245.74 101.949 245.032C101.721 244.312 101.517 243.748 101.337 243.34L102.795 242.53C103.035 243.046 103.275 243.712 103.515 244.528C103.767 245.344 103.893 246.07 103.893 246.706C103.893 247.318 103.767 247.876 103.515 248.38C103.275 248.872 102.939 249.268 102.507 249.568C102.075 249.856 101.583 250 101.031 250H100.995V248.02H101.031ZM96.153 250V248.02H96.207C96.555 248.02 96.861 247.924 97.125 247.732C97.389 247.528 97.629 247.234 97.845 246.85C98.109 246.358 98.313 245.608 98.457 244.6L99.969 244.672C99.825 245.428 99.753 246.022 99.753 246.454C99.753 246.97 99.855 247.36 100.059 247.624C100.263 247.888 100.587 248.02 101.031 248.02H101.067L101.175 249.01L101.067 250H101.031C100.347 250 99.795 249.808 99.375 249.424C98.955 249.028 98.685 248.476 98.565 247.768L98.907 247.732C98.631 248.404 98.253 248.95 97.773 249.37C97.305 249.79 96.777 250 96.189 250H96.153ZM90.987 250L90.879 249.01L90.987 248.02H91.077C91.509 248.02 91.911 247.924 92.283 247.732C92.667 247.54 92.961 247.294 93.165 246.994C93.405 246.682 93.591 246.34 93.723 245.968C93.867 245.596 93.993 245.194 94.101 244.762L95.613 244.924C95.601 244.984 95.535 245.23 95.415 245.662C95.295 246.094 95.235 246.502 95.235 246.886C95.235 247.258 95.307 247.54 95.451 247.732C95.607 247.924 95.847 248.02 96.171 248.02H96.207L96.315 249.01L96.207 250H96.135C95.595 250 95.139 249.844 94.767 249.532C94.395 249.22 94.161 248.8 94.065 248.272C93.273 249.424 92.271 250 91.059 250H90.987ZM99.213 237.544L99.591 237.922C100.107 238.438 100.365 238.696 100.365 238.696L99.213 239.848L98.079 238.696L99.213 237.544ZM99.591 240.73C99.591 240.73 99.879 240.442 100.455 239.866L100.887 239.434L102.183 240.73L101.751 241.162C101.175 241.738 100.887 242.026 100.887 242.026C100.467 241.582 100.035 241.15 99.591 240.73ZM96.243 240.73C96.243 240.73 96.531 240.442 97.107 239.866L97.539 239.434L98.835 240.73L98.403 241.162C97.827 241.738 97.539 242.026 97.539 242.026C97.119 241.582 96.687 241.15 96.243 240.73ZM116.577 240.91C116.781 243.07 116.955 244.714 117.099 245.842C117.159 246.454 117.243 246.91 117.351 247.21C117.459 247.51 117.621 247.72 117.837 247.84C118.053 247.96 118.371 248.02 118.791 248.02H119.061L119.169 249.01L119.061 250H118.791C117.795 250 117.033 249.7 116.505 249.1C115.977 248.488 115.635 247.486 115.479 246.094C115.419 245.458 115.293 244.402 115.101 242.926C115.065 242.554 114.999 241.996 114.903 241.252L116.577 240.91ZM116.433 248.74C115.713 248.98 114.987 249.1 114.255 249.1C113.235 249.1 112.401 248.866 111.753 248.398C111.117 247.93 110.799 247.288 110.799 246.472C110.799 245.476 111.219 244.636 112.059 243.952C112.899 243.256 114.027 242.662 115.443 242.17L115.803 243.97C114.903 244.198 114.111 244.516 113.427 244.924C112.755 245.332 112.401 245.722 112.365 246.094C112.329 246.406 112.473 246.67 112.797 246.886C113.133 247.09 113.577 247.192 114.129 247.192C114.717 247.192 115.347 247.072 116.019 246.832L116.433 248.74ZM118.847 248.02H119.081C120.965 248.02 122.381 247.864 123.329 247.552C124.289 247.24 124.853 246.7 125.021 245.932C125.021 245.296 124.931 244.654 124.751 244.006C124.571 243.346 124.313 242.8 123.977 242.368C123.641 241.924 123.251 241.702 122.807 241.702C122.531 241.702 122.273 241.792 122.033 241.972C121.805 242.152 121.619 242.386 121.475 242.674C121.343 242.95 121.277 243.226 121.277 243.502C121.277 243.73 121.331 243.934 121.439 244.114C121.619 244.39 121.949 244.606 122.429 244.762C122.921 244.918 123.473 244.996 124.085 244.996C124.553 244.996 124.979 244.954 125.363 244.87V246.688C124.847 246.796 124.313 246.85 123.761 246.85C122.933 246.85 122.195 246.718 121.547 246.454C120.911 246.178 120.449 245.77 120.161 245.23C119.933 244.786 119.819 244.288 119.819 243.736C119.819 243.112 119.951 242.506 120.215 241.918C120.491 241.318 120.863 240.832 121.331 240.46C121.811 240.076 122.339 239.884 122.915 239.884C123.587 239.884 124.187 240.148 124.715 240.676C125.243 241.192 125.651 241.87 125.939 242.71C126.227 243.538 126.371 244.396 126.371 245.284C126.371 245.524 126.365 245.704 126.353 245.824C126.257 247.168 125.603 248.2 124.391 248.92C123.179 249.64 121.409 250 119.081 250H118.847V248.02ZM121.277 237.166C121.745 236.674 122.213 236.206 122.681 235.762C123.149 236.206 123.617 236.674 124.085 237.166L122.681 238.57L121.277 237.166ZM129.92 237.202C130.016 237.886 130.094 238.978 130.154 240.478C130.214 241.966 130.244 243.352 130.244 244.636V245.428C130.232 246.148 130.262 246.682 130.334 247.03C130.406 247.378 130.568 247.63 130.82 247.786C131.072 247.942 131.474 248.02 132.026 248.02H132.116L132.224 249.01L132.116 250H132.026C130.754 250 129.86 249.67 129.344 249.01C128.84 248.338 128.588 247.276 128.588 245.824C128.588 244.504 128.552 243.004 128.48 241.324C128.42 239.632 128.33 238.384 128.21 237.58L129.92 237.202ZM131.925 248.02H132.195C132.783 248.02 133.263 247.894 133.635 247.642C134.007 247.378 134.301 246.97 134.517 246.418C134.745 245.866 134.925 245.122 135.057 244.186L136.551 244.492C136.491 244.864 136.461 245.266 136.461 245.698C136.461 246.694 136.719 247.396 137.235 247.804C137.763 248.212 138.621 248.416 139.809 248.416C140.901 248.416 141.873 248.29 142.725 248.038C143.577 247.786 144.237 247.456 144.705 247.048C145.185 246.64 145.425 246.214 145.425 245.77C145.425 245.386 145.263 245.068 144.939 244.816C144.627 244.552 144.195 244.42 143.643 244.42C142.671 244.42 141.681 244.846 140.673 245.698C139.677 246.538 138.759 247.732 137.919 249.28L136.695 248.47C137.631 246.622 138.699 245.176 139.899 244.132C141.111 243.076 142.311 242.548 143.499 242.548C144.147 242.548 144.735 242.686 145.263 242.962C145.791 243.238 146.199 243.622 146.487 244.114C146.787 244.594 146.937 245.14 146.937 245.752C146.937 246.676 146.637 247.486 146.037 248.182C145.437 248.878 144.603 249.418 143.535 249.802C142.479 250.186 141.285 250.378 139.953 250.378C137.517 250.378 136.029 249.628 135.489 248.128C135.165 248.74 134.745 249.208 134.229 249.532C133.713 249.844 133.029 250 132.177 250H131.925V248.02ZM141.429 239.83C141.897 239.338 142.365 238.87 142.833 238.426C143.301 238.87 143.769 239.338 144.237 239.83L142.833 241.234L141.429 239.83ZM149.01 249.892C149.106 249.172 149.154 247.912 149.154 246.112C149.154 244.468 149.112 242.782 149.028 241.054C148.956 239.314 148.872 238.156 148.776 237.58L150.486 237.202C150.57 237.802 150.654 238.984 150.738 240.748C150.822 242.512 150.864 244.216 150.864 245.86C150.864 247.732 150.804 249.142 150.684 250.09L149.01 249.892ZM163.425 240.73L165.891 246.562C166.119 247.114 166.377 247.498 166.665 247.714C166.953 247.918 167.349 248.02 167.853 248.02H168.051L168.159 249.01L168.051 250H167.853C167.073 250 166.413 249.796 165.873 249.388C165.333 248.968 164.865 248.314 164.469 247.426L161.931 241.522L163.425 240.73ZM158.853 247.318C159.321 247.582 159.765 247.798 160.185 247.966C160.617 248.122 161.139 248.2 161.751 248.2C162.951 248.2 164.025 247.804 164.973 247.012L165.855 248.218C165.543 248.542 165.243 248.824 164.955 249.064C164.667 249.304 164.259 249.532 163.731 249.748C163.215 249.964 162.609 250.072 161.913 250.072C161.061 250.072 160.329 249.94 159.717 249.676C159.105 249.412 158.553 249.1 158.061 248.74L158.853 247.318ZM167.873 248.02H168.629C169.889 248.02 170.777 247.906 171.293 247.678C171.809 247.438 172.067 247.066 172.067 246.562C172.055 246.226 171.929 245.68 171.689 244.924C171.449 244.168 171.251 243.634 171.095 243.322L172.589 242.512C172.829 242.992 173.063 243.634 173.291 244.438C173.531 245.242 173.651 245.944 173.651 246.544C173.651 247.684 173.255 248.548 172.463 249.136C171.671 249.712 170.483 250 168.899 250H167.873V248.02ZM167.189 252.538C167.765 251.962 168.053 251.674 168.053 251.674L169.367 252.97C168.935 253.414 168.497 253.852 168.053 254.284L166.757 252.97L167.189 252.538ZM170.375 252.538C170.951 251.962 171.239 251.674 171.239 251.674L172.553 252.97C172.121 253.414 171.683 253.852 171.239 254.284L169.943 252.97L170.375 252.538ZM180.264 240.73L182.73 246.562C182.958 247.114 183.216 247.498 183.504 247.714C183.792 247.918 184.188 248.02 184.692 248.02H184.89L184.998 249.01L184.89 250H184.692C183.912 250 183.252 249.796 182.712 249.388C182.172 248.968 181.704 248.314 181.308 247.426L178.77 241.522L180.264 240.73ZM175.692 247.318C176.16 247.582 176.604 247.798 177.024 247.966C177.456 248.122 177.978 248.2 178.59 248.2C179.79 248.2 180.864 247.804 181.812 247.012L182.694 248.218C182.382 248.542 182.082 248.824 181.794 249.064C181.506 249.304 181.098 249.532 180.57 249.748C180.054 249.964 179.448 250.072 178.752 250.072C177.9 250.072 177.168 249.94 176.556 249.676C175.944 249.412 175.392 249.1 174.9 248.74L175.692 247.318ZM184.695 248.02H186.243C187.719 248.02 189.099 247.846 190.383 247.498C191.667 247.15 192.975 246.622 194.307 245.914C194.679 245.71 195.069 245.524 195.477 245.356C195.885 245.176 196.221 245.05 196.485 244.978L196.539 246.04C195.879 246.028 195.243 245.938 194.631 245.77C194.031 245.59 193.371 245.32 192.651 244.96C191.535 244.372 190.593 244.078 189.825 244.078C189.333 244.078 188.889 244.222 188.493 244.51C188.097 244.798 187.803 245.128 187.611 245.5L186.459 244.69C186.867 243.874 187.359 243.256 187.935 242.836C188.511 242.416 189.153 242.206 189.861 242.206C190.377 242.206 190.863 242.296 191.319 242.476C191.787 242.644 192.441 242.944 193.281 243.376C194.061 243.772 194.685 244.066 195.153 244.258C195.621 244.45 196.143 244.606 196.719 244.726L196.791 246.472C196.563 246.532 196.275 246.652 195.927 246.832C195.579 247 195.201 247.198 194.793 247.426C193.149 248.302 191.673 248.95 190.365 249.37C189.069 249.79 187.635 250 186.063 250H184.695V248.02ZM189.303 252.826C189.771 252.334 190.239 251.866 190.707 251.422C191.175 251.866 191.643 252.334 192.111 252.826L190.707 254.23L189.303 252.826ZM208.308 250C207.54 250 206.934 249.73 206.49 249.19C206.058 248.638 205.692 247.858 205.392 246.85L206.598 246.112C206.766 246.82 206.976 247.318 207.228 247.606C207.492 247.882 207.852 248.02 208.308 248.02H208.434L208.542 249.01L208.434 250H208.308ZM201.432 253.51C202.212 253.222 202.914 252.862 203.538 252.43C204.174 251.998 204.672 251.548 205.032 251.08C205.404 250.624 205.59 250.198 205.59 249.802C205.59 249.298 205.272 247.81 204.636 245.338L206.22 244.726C206.496 245.578 206.718 246.478 206.886 247.426C207.066 248.362 207.156 249.154 207.156 249.802C207.156 250.906 206.694 251.944 205.77 252.916C204.858 253.9 203.67 254.662 202.206 255.202L201.432 253.51ZM208.25 248.02H208.394C209.33 248.02 210.056 247.978 210.572 247.894C211.088 247.81 211.46 247.69 211.688 247.534C211.928 247.366 212.09 247.132 212.174 246.832C212.222 246.676 212.246 246.454 212.246 246.166C212.246 245.842 212.216 245.476 212.156 245.068C212.096 244.648 212.06 244.39 212.048 244.294L213.542 243.988C213.71 244.792 213.794 245.764 213.794 246.904C213.854 247.252 214.01 247.528 214.262 247.732C214.526 247.924 214.88 248.02 215.324 248.02H215.45L215.558 249.01L215.45 250H215.324C214.736 250 214.214 249.832 213.758 249.496C213.314 249.16 212.984 248.728 212.768 248.2L213.164 248.272C212.9 248.908 212.414 249.358 211.706 249.622C210.998 249.874 209.894 250 208.394 250H208.25V248.02ZM209.06 240.82C209.636 240.244 209.924 239.956 209.924 239.956L211.238 241.252C210.806 241.696 210.368 242.134 209.924 242.566L208.628 241.252L209.06 240.82ZM212.228 240.82C212.804 240.244 213.092 239.956 213.092 239.956L214.406 241.252C213.974 241.696 213.536 242.134 213.092 242.566L211.796 241.252L212.228 240.82ZM223.472 238.57L217.982 240.946C218.858 241.69 219.668 242.59 220.412 243.646C221.156 244.702 221.528 245.698 221.528 246.634C221.528 246.934 221.486 247.21 221.402 247.462C221.126 248.314 220.496 248.95 219.512 249.37C218.54 249.79 217.292 250 215.768 250H215.264V248.02H215.768C216.908 248.02 217.826 247.924 218.522 247.732C219.23 247.528 219.68 247.24 219.872 246.868C219.896 246.748 219.908 246.652 219.908 246.58C219.908 245.98 219.578 245.248 218.918 244.384C218.258 243.508 217.322 242.584 216.11 241.612L216.326 239.812L222.932 236.968L223.472 238.57ZM224.138 247.318C224.606 247.57 225.068 247.78 225.524 247.948C225.98 248.104 226.562 248.182 227.27 248.182C227.918 248.182 228.446 248.098 228.854 247.93C229.274 247.762 229.55 247.57 229.682 247.354C229.718 247.258 229.736 247.144 229.736 247.012C229.736 246.496 229.43 245.836 228.818 245.032C228.218 244.216 227.276 243.346 225.992 242.422L226.964 240.712C228.308 241.708 229.364 242.764 230.132 243.88C230.912 244.984 231.302 246.016 231.302 246.976C231.302 247.432 231.218 247.846 231.05 248.218C230.798 248.806 230.342 249.262 229.682 249.586C229.022 249.91 228.278 250.072 227.45 250.072C226.478 250.072 225.65 249.934 224.966 249.658C224.282 249.382 223.742 249.076 223.346 248.74L224.138 247.318Z" fill="#292C2C"/>
<path d="M140 114.166C128.521 114.166 119.167 123.52 119.167 134.999C119.167 146.479 128.521 155.833 140 155.833C151.479 155.833 160.833 146.479 160.833 134.999C160.833 123.52 151.479 114.166 140 114.166ZM149.958 130.208L138.146 142.02C137.854 142.312 137.458 142.479 137.042 142.479C136.625 142.479 136.229 142.312 135.937 142.02L130.042 136.124C129.437 135.52 129.437 134.52 130.042 133.916C130.646 133.312 131.646 133.312 132.25 133.916L137.042 138.708L147.75 127.999C148.354 127.395 149.354 127.395 149.958 127.999C150.562 128.604 150.562 129.583 149.958 130.208Z" fill="#DC1E7A"/>
</svg>
