<svg width="100" height="100" viewBox="0 0 100 100" fill="none" xmlns="http://www.w3.org/2000/svg">
<rect x="0.5" y="0.5" width="99" height="99" rx="49.5" stroke="#8F8F8F" stroke-dasharray="5 5"/>
<path d="M54 50.75H46C45.59 50.75 45.25 50.41 45.25 50C45.25 49.59 45.59 49.25 46 49.25H54C54.41 49.25 54.75 49.59 54.75 50C54.75 50.41 54.41 50.75 54 50.75Z" fill="#727272"/>
<path d="M50 54.75C49.59 54.75 49.25 54.41 49.25 54V46C49.25 45.59 49.59 45.25 50 45.25C50.41 45.25 50.75 45.59 50.75 46V54C50.75 54.41 50.41 54.75 50 54.75Z" fill="#727272"/>
<path d="M53 60.75H47C41.57 60.75 39.25 58.43 39.25 53V47C39.25 41.57 41.57 39.25 47 39.25H53C58.43 39.25 60.75 41.57 60.75 47V53C60.75 58.43 58.43 60.75 53 60.75ZM47 40.75C42.39 40.75 40.75 42.39 40.75 47V53C40.75 57.61 42.39 59.25 47 59.25H53C57.61 59.25 59.25 57.61 59.25 53V47C59.25 42.39 57.61 40.75 53 40.75H47Z" fill="#727272"/>
</svg>
