<svg width="175" height="135" viewBox="0 0 175 135" fill="none" xmlns="http://www.w3.org/2000/svg">
<g filter="url(#filter0_d_3768_16662)">
<g clip-path="url(#clip0_3768_16662)">
<path d="M4 28C4 19.5992 4 15.3988 5.6349 12.1901C7.073 9.36771 9.36771 7.073 12.1901 5.6349C15.3988 4 19.5992 4 28 4H147C155.401 4 159.601 4 162.81 5.6349C165.632 7.073 167.927 9.36771 169.365 12.1901C171 15.3988 171 19.5992 171 28V107C171 115.401 171 119.601 169.365 122.81C167.927 125.632 165.632 127.927 162.81 129.365C159.601 131 155.401 131 147 131H28C19.5992 131 15.3988 131 12.1901 129.365C9.36771 127.927 7.073 125.632 5.6349 122.81C4 119.601 4 115.401 4 107V28Z" fill="url(#paint0_linear_3768_16662)" shape-rendering="crispEdges"/>
<path d="M24.8349 131.538L23.2061 125.459L29.2849 123.83C30.0499 123.625 30.5099 122.829 30.3049 122.064C30.0999 121.299 29.3032 120.839 28.5382 121.044L22.4594 122.673L20.8306 116.594C20.6256 115.829 19.8289 115.369 19.0639 115.574C18.2989 115.779 17.8389 116.575 18.0439 117.34L19.6727 123.419L13.5939 125.048C12.8289 125.253 12.3689 126.05 12.5739 126.815C12.7789 127.58 13.5756 128.04 14.3406 127.835L20.4194 126.206L22.0482 132.285C22.2532 133.05 23.0499 133.51 23.8149 133.305C24.5799 133.1 25.0349 132.312 24.8349 131.538Z" fill="#FFF7FE"/>
<path d="M169.835 87.538L168.206 81.4592L174.285 79.8304C175.05 79.6254 175.51 78.8287 175.305 78.0637C175.1 77.2987 174.303 76.8388 173.538 77.0437L167.459 78.6725L165.831 72.5937C165.626 71.8287 164.829 71.3688 164.064 71.5737C163.299 71.7787 162.839 72.5754 163.044 73.3404L164.673 79.4192L158.594 81.048C157.829 81.253 157.369 82.0497 157.574 82.8147C157.779 83.5797 158.576 84.0397 159.341 83.8347L165.419 82.2059L167.048 88.2847C167.253 89.0497 168.05 89.5097 168.815 89.3047C169.58 89.0997 170.035 88.3116 169.835 87.538Z" fill="#FFF7FE"/>
<path d="M169.927 53.7202C162.995 53.6939 156.149 55.2146 149.228 55.6134C142.307 56.0122 134.93 55.1308 129.422 50.9203C119.632 43.4405 118.366 27.6773 107.603 21.6799C102.486 18.8279 96.3268 18.8903 90.4902 18.3754C84.6537 17.8606 78.2917 16.335 74.9032 11.5539C72.0633 7.54824 72.0563 2.00045 73.9903 -2.5139C75.9213 -7.02904 79.5407 -10.6296 83.5006 -13.5313C97.8931 -24.0833 117.347 -26.3148 134.633 -21.8766C151.919 -17.4383 167.166 -6.90967 179.679 5.81589C192.191 18.5396 202.218 33.4598 211.938 48.4259C214.092 51.7406 216.259 55.1182 217.421 58.8967C218.584 62.6751 218.632 66.9707 216.661 70.3989C215.267 72.8256 211.662 76.0348 208.719 74.4068C206.368 73.1053 204.563 69.3194 202.635 67.4161C197.116 61.9652 190.237 57.9055 182.813 55.6714C178.64 54.4157 174.288 53.7374 169.927 53.7202Z" fill="#555555" fill-opacity="0.03"/>
<path d="M9.81448 28.2888C14.9259 26.2013 17.3772 20.3654 15.2897 15.254C13.2022 10.1427 7.36633 7.69133 2.25496 9.77884C-2.85642 11.8663 -5.30774 17.7022 -3.22024 22.8136C-1.13273 27.9249 4.70311 30.3763 9.81448 28.2888Z" stroke="#D2D2D2" stroke-miterlimit="10" stroke-dasharray="2 2"/>
<path d="M160.814 140.289C165.926 138.201 168.377 132.365 166.29 127.254C164.202 122.143 158.366 119.691 153.255 121.779C148.144 123.866 145.692 129.702 147.78 134.814C149.867 139.925 155.703 142.376 160.814 140.289Z" stroke="#D2D2D2" stroke-miterlimit="10" stroke-dasharray="2 2"/>
</g>
</g>
<defs>
<filter id="filter0_d_3768_16662" x="0" y="0" width="175" height="135" filterUnits="userSpaceOnUse" color-interpolation-filters="sRGB">
<feFlood flood-opacity="0" result="BackgroundImageFix"/>
<feColorMatrix in="SourceAlpha" type="matrix" values="0 0 0 0 0 0 0 0 0 0 0 0 0 0 0 0 0 0 127 0" result="hardAlpha"/>
<feOffset/>
<feGaussianBlur stdDeviation="2"/>
<feComposite in2="hardAlpha" operator="out"/>
<feColorMatrix type="matrix" values="0 0 0 0 0 0 0 0 0 0 0 0 0 0 0 0 0 0 0.06 0"/>
<feBlend mode="normal" in2="BackgroundImageFix" result="effect1_dropShadow_3768_16662"/>
<feBlend mode="normal" in="SourceGraphic" in2="effect1_dropShadow_3768_16662" result="shape"/>
</filter>
<linearGradient id="paint0_linear_3768_16662" x1="87.5" y1="4" x2="87.5" y2="131" gradientUnits="userSpaceOnUse">
<stop stop-color="white"/>
<stop offset="1" stop-color="#F6F0FF" stop-opacity="0.96"/>
</linearGradient>
<clipPath id="clip0_3768_16662">
<path d="M4 28C4 19.5992 4 15.3988 5.6349 12.1901C7.073 9.36771 9.36771 7.073 12.1901 5.6349C15.3988 4 19.5992 4 28 4H147C155.401 4 159.601 4 162.81 5.6349C165.632 7.073 167.927 9.36771 169.365 12.1901C171 15.3988 171 19.5992 171 28V107C171 115.401 171 119.601 169.365 122.81C167.927 125.632 165.632 127.927 162.81 129.365C159.601 131 155.401 131 147 131H28C19.5992 131 15.3988 131 12.1901 129.365C9.36771 127.927 7.073 125.632 5.6349 122.81C4 119.601 4 115.401 4 107V28Z" fill="white"/>
</clipPath>
</defs>
</svg>
