<svg width="20" height="20" viewBox="0 0 20 20" fill="none" xmlns="http://www.w3.org/2000/svg">
<path d="M6.6665 4.79102C6.32484 4.79102 6.0415 4.50768 6.0415 4.16602V1.66602C6.0415 1.32435 6.32484 1.04102 6.6665 1.04102C7.00817 1.04102 7.2915 1.32435 7.2915 1.66602V4.16602C7.2915 4.50768 7.00817 4.79102 6.6665 4.79102Z" fill="#8F8F8F"/>
<path d="M13.3335 4.79102C12.9918 4.79102 12.7085 4.50768 12.7085 4.16602V1.66602C12.7085 1.32435 12.9918 1.04102 13.3335 1.04102C13.6752 1.04102 13.9585 1.32435 13.9585 1.66602V4.16602C13.9585 4.50768 13.6752 4.79102 13.3335 4.79102Z" fill="#8F8F8F"/>
<path d="M12.5002 11.459H5.8335C5.49183 11.459 5.2085 11.1757 5.2085 10.834C5.2085 10.4923 5.49183 10.209 5.8335 10.209H12.5002C12.8418 10.209 13.1252 10.4923 13.1252 10.834C13.1252 11.1757 12.8418 11.459 12.5002 11.459Z" fill="#8F8F8F"/>
<path d="M10.0002 14.791H5.8335C5.49183 14.791 5.2085 14.5077 5.2085 14.166C5.2085 13.8243 5.49183 13.541 5.8335 13.541H10.0002C10.3418 13.541 10.6252 13.8243 10.6252 14.166C10.6252 14.5077 10.3418 14.791 10.0002 14.791Z" fill="#8F8F8F"/>
<path d="M12.5 18.9577H7.5C2.81667 18.9577 1.875 16.7493 1.875 13.1827V8.04102C1.875 4.09102 3.20833 2.48268 6.63333 2.29102H13.3333C13.3417 2.29102 13.3583 2.29102 13.3667 2.29102C16.7917 2.48268 18.125 4.09102 18.125 8.04102V13.1827C18.125 16.7493 17.1833 18.9577 12.5 18.9577ZM6.66667 3.54102C4.33333 3.67435 3.125 4.40768 3.125 8.04102V13.1827C3.125 16.3743 3.73333 17.7077 7.5 17.7077H12.5C16.2667 17.7077 16.875 16.3743 16.875 13.1827V8.04102C16.875 4.41602 15.675 3.67435 13.3167 3.54102H6.66667Z" fill="#8F8F8F"/>
</svg>
