<svg width="20" height="20" viewBox="0 0 20 20" fill="none" xmlns="http://www.w3.org/2000/svg">
<path d="M9.99984 18.9577C5.05817 18.9577 1.0415 14.941 1.0415 9.99935C1.0415 5.05768 5.05817 1.04102 9.99984 1.04102C14.9415 1.04102 18.9582 5.05768 18.9582 9.99935C18.9582 14.941 14.9415 18.9577 9.99984 18.9577ZM9.99984 2.29102C5.74984 2.29102 2.2915 5.74935 2.2915 9.99935C2.2915 14.2493 5.74984 17.7077 9.99984 17.7077C14.2498 17.7077 17.7082 14.2493 17.7082 9.99935C17.7082 5.74935 14.2498 2.29102 9.99984 2.29102Z" fill="#8F8F8F"/>
<path d="M13.0919 13.2745C12.9835 13.2745 12.8752 13.2495 12.7752 13.1828L10.1919 11.6411C9.55019 11.2578 9.0752 10.4161 9.0752 9.67448V6.25781C9.0752 5.91615 9.35853 5.63281 9.7002 5.63281C10.0419 5.63281 10.3252 5.91615 10.3252 6.25781V9.67448C10.3252 9.97448 10.5752 10.4161 10.8335 10.5661L13.4169 12.1078C13.7169 12.2828 13.8085 12.6661 13.6335 12.9661C13.5085 13.1661 13.3002 13.2745 13.0919 13.2745Z" fill="#8F8F8F"/>
</svg>
