<svg width="28" height="28" viewBox="0 0 28 28" fill="none" xmlns="http://www.w3.org/2000/svg">
<path d="M14.0002 26.5423C7.08183 26.5423 1.4585 20.919 1.4585 14.0007C1.4585 7.08232 7.08183 1.45898 14.0002 1.45898C20.9185 1.45898 26.5418 7.08232 26.5418 14.0007C26.5418 20.919 20.9185 26.5423 14.0002 26.5423ZM14.0002 3.20898C8.05016 3.20898 3.2085 8.05065 3.2085 14.0007C3.2085 19.9507 8.05016 24.7923 14.0002 24.7923C19.9502 24.7923 24.7918 19.9507 24.7918 14.0007C24.7918 8.05065 19.9502 3.20898 14.0002 3.20898Z" fill="#DC1E7A"/>
<path d="M18.6668 14.875H9.3335C8.85516 14.875 8.4585 14.4783 8.4585 14C8.4585 13.5217 8.85516 13.125 9.3335 13.125H18.6668C19.1452 13.125 19.5418 13.5217 19.5418 14C19.5418 14.4783 19.1452 14.875 18.6668 14.875Z" fill="#DC1E7A"/>
<path d="M14 19.5423C13.5217 19.5423 13.125 19.1457 13.125 18.6673V9.33398C13.125 8.85565 13.5217 8.45898 14 8.45898C14.4783 8.45898 14.875 8.85565 14.875 9.33398V18.6673C14.875 19.1457 14.4783 19.5423 14 19.5423Z" fill="#DC1E7A"/>
</svg>
