<svg width="159" height="122" viewBox="0 0 159 122" fill="none" xmlns="http://www.w3.org/2000/svg">
<path d="M0 15C0 6.71573 6.71573 0 15 0H115C123.284 0 130 6.71573 130 15V107C130 115.284 123.284 122 115 122H15C6.71573 122 0 115.284 0 107V15Z" fill="#FFF2F8"/>
<path d="M60.2709 20.468H61.4109V26.504C61.4109 27.32 61.1669 27.96 60.6789 28.424C60.1909 28.888 59.5349 29.12 58.7109 29.12C57.8629 29.12 57.2029 28.904 56.7309 28.472C56.2589 28.032 56.0229 27.424 56.0229 26.648H57.1509C57.1509 27.136 57.2829 27.516 57.5469 27.788C57.8189 28.06 58.2069 28.196 58.7109 28.196C59.1829 28.196 59.5589 28.048 59.8389 27.752C60.1269 27.456 60.2709 27.048 60.2709 26.528V20.468ZM64.444 25.664V29H63.328V20.468H66.472C67.088 20.468 67.62 20.576 68.068 20.792C68.516 21.008 68.86 21.312 69.1 21.704C69.34 22.096 69.46 22.552 69.46 23.072C69.46 23.904 69.2 24.544 68.68 24.992C68.16 25.44 67.42 25.664 66.46 25.664H64.444ZM64.444 24.74H66.472C67.072 24.74 67.532 24.6 67.852 24.32C68.172 24.032 68.332 23.62 68.332 23.084C68.332 22.58 68.172 22.176 67.852 21.872C67.532 21.568 67.092 21.408 66.532 21.392H64.444V24.74ZM77.1863 27.884C76.8983 28.292 76.4983 28.6 75.9863 28.808C75.4743 29.016 74.8703 29.12 74.1743 29.12C73.4623 29.12 72.8383 28.956 72.3023 28.628C71.7743 28.3 71.3623 27.836 71.0663 27.236C70.7783 26.636 70.6303 25.94 70.6223 25.148V24.404C70.6223 23.116 70.9183 22.12 71.5103 21.416C72.1103 20.704 72.9543 20.348 74.0423 20.348C74.9303 20.348 75.6463 20.576 76.1903 21.032C76.7343 21.488 77.0663 22.136 77.1863 22.976H76.0703C75.8543 21.84 75.1823 21.272 74.0543 21.272C73.2943 21.272 72.7183 21.536 72.3263 22.064C71.9423 22.592 71.7503 23.36 71.7503 24.368V25.064C71.7503 25.696 71.8463 26.248 72.0383 26.72C72.2383 27.192 72.5223 27.556 72.8903 27.812C73.2583 28.068 73.6863 28.196 74.1743 28.196C74.6143 28.196 74.9863 28.148 75.2903 28.052C75.6023 27.956 75.8623 27.8 76.0703 27.584V25.664H74.1023V24.752H77.1863V27.884ZM79.6783 25.472C79.4783 25.472 79.3063 25.404 79.1623 25.268C79.0263 25.124 78.9583 24.952 78.9583 24.752C78.9583 24.552 79.0263 24.384 79.1623 24.248C79.3063 24.104 79.4783 24.032 79.6783 24.032C79.8783 24.032 80.0463 24.104 80.1823 24.248C80.3263 24.384 80.3983 24.552 80.3983 24.752C80.3983 24.952 80.3263 25.124 80.1823 25.268C80.0463 25.404 79.8783 25.472 79.6783 25.472ZM79.6783 28.916C79.4783 28.916 79.3063 28.848 79.1623 28.712C79.0263 28.568 78.9583 28.396 78.9583 28.196C78.9583 27.996 79.0263 27.828 79.1623 27.692C79.3063 27.548 79.4783 27.476 79.6783 27.476C79.8783 27.476 80.0463 27.548 80.1823 27.692C80.3263 27.828 80.3983 27.996 80.3983 28.196C80.3983 28.396 80.3263 28.568 80.1823 28.712C80.0463 28.848 79.8783 28.916 79.6783 28.916ZM86.2255 29.12C86.2175 29 86.2135 28.82 86.2135 28.58C86.2135 28.34 86.2175 28.16 86.2255 28.04C87.2015 28.04 87.9975 27.96 88.6135 27.8C89.2295 27.632 89.7135 27.376 90.0655 27.032C90.4255 26.68 90.7015 26.216 90.8935 25.64L91.7815 25.736C91.6455 26.184 91.5775 26.56 91.5775 26.864C91.5775 27.568 91.9215 27.92 92.6095 27.92L92.6695 28.46L92.6095 29C92.0735 29 91.6335 28.832 91.2895 28.496C90.9535 28.16 90.7855 27.708 90.7855 27.14H91.0255C90.5855 27.836 89.9695 28.34 89.1775 28.652C88.3935 28.964 87.4095 29.12 86.2255 29.12ZM83.0095 24.956C82.7855 25.58 82.6735 26.072 82.6735 26.432C82.6735 26.544 82.6775 26.628 82.6855 26.684C82.7495 27.116 83.0815 27.452 83.6815 27.692C84.2815 27.924 85.1495 28.04 86.2855 28.04C86.3015 28.176 86.3095 28.376 86.3095 28.64C86.3095 28.856 86.3055 29.016 86.2975 29.12C84.9055 29.128 83.8175 28.936 83.0335 28.544C82.2575 28.144 81.8335 27.576 81.7615 26.84C81.7535 26.776 81.7495 26.684 81.7495 26.564C81.7495 26.228 81.7895 25.88 81.8695 25.52C81.9575 25.152 82.0655 24.828 82.1935 24.548L83.0095 24.956ZM84.9055 24.512L85.4455 23.972L86.2495 24.776L85.4455 25.592L84.6415 24.776L84.9055 24.512ZM87.0415 24.512L87.5815 23.972L88.3855 24.776L87.5815 25.592L86.7775 24.776L87.0415 24.512ZM94.7987 26.972C95.3027 27.316 95.7547 27.58 96.1547 27.764C96.5547 27.948 96.8627 28.04 97.0787 28.04C97.1507 28.04 97.2187 28.024 97.2827 27.992C97.4267 27.92 97.5347 27.8 97.6067 27.632C97.6787 27.464 97.7147 27.272 97.7147 27.056C97.7147 26.664 97.6147 26.308 97.4147 25.988C97.2227 25.668 96.9667 25.508 96.6467 25.508C96.3987 25.508 96.1347 25.684 95.8547 26.036C95.5747 26.38 95.2667 26.888 94.9307 27.56C94.6907 28.032 94.3787 28.392 93.9947 28.64C93.6187 28.88 93.1907 29 92.7107 29H92.4947L92.5067 27.92H92.7347C93.0627 27.92 93.3627 27.828 93.6347 27.644C93.9147 27.452 94.1467 27.172 94.3307 26.804C94.6667 26.124 95.0147 25.58 95.3747 25.172C95.7347 24.764 96.1307 24.548 96.5627 24.524C96.9627 24.5 97.3147 24.608 97.6187 24.848C97.9307 25.08 98.1667 25.392 98.3267 25.784C98.4947 26.168 98.5787 26.572 98.5787 26.996C98.5787 27.42 98.4947 27.808 98.3267 28.16C98.1587 28.504 97.9107 28.764 97.5827 28.94C97.4467 29.02 97.2747 29.06 97.0667 29.06C96.4587 29.06 95.5587 28.664 94.3667 27.872L94.7987 26.972ZM102.655 29C102.159 29 101.775 28.828 101.503 28.484C101.231 28.14 101.003 27.644 100.819 26.996L101.491 26.588C101.611 27.076 101.755 27.42 101.923 27.62C102.099 27.82 102.343 27.92 102.655 27.92H102.739L102.799 28.46L102.739 29H102.655ZM98.2031 31.508C98.7151 31.332 99.1791 31.1 99.5951 30.812C100.011 30.524 100.335 30.216 100.567 29.888C100.807 29.56 100.927 29.252 100.927 28.964C100.927 28.556 100.723 27.556 100.315 25.964L101.239 25.616C101.415 26.184 101.559 26.784 101.671 27.416C101.791 28.048 101.851 28.564 101.851 28.964C101.851 29.436 101.711 29.896 101.431 30.344C101.151 30.8 100.763 31.208 100.267 31.568C99.7791 31.936 99.2271 32.228 98.6111 32.444L98.2031 31.508ZM102.608 27.92H102.752C103.984 27.92 104.924 27.812 105.572 27.596C106.22 27.372 106.612 27.008 106.748 26.504C106.748 26.088 106.688 25.66 106.568 25.22C106.456 24.772 106.284 24.4 106.052 24.104C105.828 23.8 105.56 23.648 105.248 23.648C105.056 23.648 104.876 23.712 104.708 23.84C104.548 23.968 104.42 24.136 104.324 24.344C104.228 24.544 104.18 24.744 104.18 24.944C104.18 25.104 104.216 25.252 104.288 25.388C104.408 25.588 104.632 25.744 104.96 25.856C105.296 25.968 105.672 26.024 106.088 26.024C106.392 26.024 106.672 25.996 106.928 25.94V26.948C106.568 27.012 106.22 27.044 105.884 27.044C105.348 27.044 104.872 26.96 104.456 26.792C104.04 26.624 103.74 26.368 103.556 26.024C103.404 25.728 103.328 25.396 103.328 25.028C103.328 24.636 103.412 24.252 103.58 23.876C103.756 23.5 103.996 23.192 104.3 22.952C104.604 22.712 104.936 22.592 105.296 22.592C105.736 22.592 106.124 22.76 106.46 23.096C106.804 23.432 107.064 23.868 107.24 24.404C107.424 24.932 107.516 25.472 107.516 26.024C107.516 26.128 107.508 26.276 107.492 26.468C107.42 27.284 106.984 27.912 106.184 28.352C105.384 28.784 104.24 29 102.752 29H102.608V27.92ZM104.324 20.804L104.612 20.516C104.988 20.14 105.176 19.952 105.176 19.952C105.176 19.952 105.364 20.14 105.74 20.516L106.028 20.804L105.176 21.656L104.324 20.804Z" fill="#565656"/>
<path d="M33.7542 55.904C33.7542 56.536 33.6542 57.096 33.4542 57.584C33.2542 58.072 32.9662 58.452 32.5902 58.724C32.2222 58.988 31.7902 59.12 31.2942 59.12C30.5262 59.12 29.9222 58.876 29.4822 58.388V61.436H28.3902V52.664H29.3862L29.4342 53.36C29.8822 52.816 30.4982 52.544 31.2822 52.544C32.0502 52.544 32.6542 52.832 33.0942 53.408C33.5342 53.976 33.7542 54.772 33.7542 55.796V55.904ZM32.6622 55.772C32.6702 55.06 32.5182 54.5 32.2062 54.092C31.9022 53.676 31.4862 53.468 30.9582 53.468C30.3022 53.468 29.8102 53.756 29.4822 54.332V57.368C29.8102 57.944 30.3062 58.232 30.9702 58.232C31.4902 58.232 31.8982 58.032 32.1942 57.632C32.4982 57.224 32.6542 56.632 32.6622 55.856V55.772ZM37.1708 54.98L38.5748 52.664H39.8348L37.7588 55.796L39.9068 59H38.6468L37.1828 56.624L35.7188 59H34.4588L36.5948 55.796L34.5188 52.664H35.7788L37.1708 54.98ZM46.4432 51.56C46.5872 51.944 46.7232 52.252 46.8512 52.484C46.9792 52.716 47.1432 52.904 47.3432 53.048C47.5432 53.184 47.7952 53.252 48.0992 53.252C48.5792 53.252 48.9192 53.104 49.1192 52.808C49.3192 52.512 49.4192 52.096 49.4192 51.56C49.4192 51.416 49.4032 51.168 49.3712 50.816L50.2712 50.648C50.3272 50.96 50.3552 51.284 50.3552 51.62C50.3552 52.444 50.1632 53.112 49.7792 53.624C49.3952 54.136 48.8432 54.392 48.1232 54.392C47.4832 54.392 46.9832 54.188 46.6232 53.78C46.2632 53.372 45.9392 52.796 45.6512 52.052L46.4432 51.56ZM46.1792 59C46.1872 58.888 46.1912 58.708 46.1912 58.46C46.1912 57.796 46.1712 57.12 46.1312 56.432C46.0992 55.744 46.0472 55.14 45.9752 54.62C45.8872 53.916 45.7672 53.3 45.6152 52.772C45.4712 52.236 45.2912 51.724 45.0752 51.236L46.0952 50.648C46.5272 51.56 46.8352 52.84 47.0192 54.488C47.1392 55.568 47.1992 56.836 47.1992 58.292C47.1992 58.612 47.1952 58.848 47.1872 59H46.1792ZM51.0788 58.436C51.3748 57.972 51.7268 57.288 52.1348 56.384C52.5428 55.472 52.9108 54.504 53.2388 53.48C53.5748 52.456 53.7908 51.544 53.8867 50.744H54.8948C54.9668 51.536 55.1668 52.444 55.4948 53.468C55.8308 54.484 56.2068 55.448 56.6228 56.36C57.0388 57.272 57.3988 57.964 57.7028 58.436L56.7548 59.132C56.4508 58.628 56.1028 57.904 55.7108 56.96C55.3188 56.016 54.9548 55 54.6188 53.912C54.2908 52.824 54.0548 51.816 53.9108 50.888H54.8708C54.7108 51.824 54.4628 52.84 54.1268 53.936C53.7908 55.032 53.4308 56.052 53.0468 56.996C52.6628 57.932 52.3228 58.644 52.0268 59.132L51.0788 58.436ZM62.4584 59.252C62.2584 58.804 62.0904 58.108 61.9544 57.164C61.8184 56.22 61.7224 55.252 61.6664 54.26C61.6424 53.644 61.5384 53.072 61.3544 52.544C61.1784 52.008 60.8864 51.74 60.4784 51.74C60.3024 51.74 60.1344 51.812 59.9744 51.956C59.8144 52.1 59.6824 52.288 59.5784 52.52C59.4824 52.752 59.4344 52.992 59.4344 53.24C59.4344 53.528 59.5344 53.752 59.7344 53.912C59.9344 54.072 60.2184 54.152 60.5864 54.152C60.9384 54.152 61.2184 54.104 61.4264 54.008C61.6344 53.912 61.7824 53.828 61.8704 53.756C61.9664 53.676 62.0224 53.628 62.0384 53.612L62.4344 54.704C62.2264 54.864 61.9584 55 61.6304 55.112C61.3024 55.224 60.9424 55.28 60.5504 55.28C59.9264 55.28 59.4264 55.108 59.0504 54.764C58.6744 54.412 58.4864 53.92 58.4864 53.288C58.4864 52.888 58.5744 52.484 58.7504 52.076C58.9264 51.668 59.1664 51.332 59.4704 51.068C59.7824 50.804 60.1304 50.672 60.5144 50.672C61.0664 50.672 61.4904 50.876 61.7864 51.284C62.0904 51.692 62.2904 52.124 62.3864 52.58C62.4824 53.028 62.5624 53.564 62.6264 54.188C62.7064 55.028 62.8224 55.876 62.9744 56.732C63.1344 57.58 63.3024 58.22 63.4784 58.652L62.4584 59.252ZM65.8929 53.24L64.1289 52.712L64.3929 51.824L66.1689 52.484L66.1089 50.468H67.0089L66.9489 52.508L68.6889 51.872L68.9649 52.76L67.1649 53.288L68.3169 54.884L67.5969 55.436L66.5049 53.744L65.4489 55.388L64.7169 54.86L65.8929 53.24ZM71.0249 58.46C71.0249 57.804 71.0049 57.132 70.9649 56.444C70.9329 55.756 70.8849 55.148 70.8209 54.62C70.7329 53.916 70.6129 53.3 70.4609 52.772C70.3169 52.236 70.1369 51.724 69.9209 51.236L70.9409 50.648C71.3729 51.56 71.6809 52.84 71.8649 54.488C71.9769 55.496 72.0329 56.764 72.0329 58.292V59H71.0249V58.46ZM75.3843 58.46C75.3843 57.804 75.3643 57.132 75.3243 56.444C75.2923 55.756 75.2443 55.148 75.1803 54.62C75.0923 53.916 74.9723 53.3 74.8203 52.772C74.6763 52.236 74.4963 51.724 74.2803 51.236L75.3003 50.648C75.7323 51.56 76.0403 52.84 76.2243 54.488C76.3363 55.496 76.3923 56.764 76.3923 58.292V59H75.3843V58.46ZM82.2397 59.252C82.0397 58.804 81.8717 58.108 81.7357 57.164C81.5997 56.22 81.5037 55.252 81.4477 54.26C81.4237 53.644 81.3197 53.072 81.1357 52.544C80.9597 52.008 80.6677 51.74 80.2597 51.74C80.0837 51.74 79.9157 51.812 79.7557 51.956C79.5957 52.1 79.4637 52.288 79.3597 52.52C79.2637 52.752 79.2157 52.992 79.2157 53.24C79.2157 53.528 79.3157 53.752 79.5157 53.912C79.7157 54.072 79.9997 54.152 80.3677 54.152C80.7197 54.152 80.9997 54.104 81.2077 54.008C81.4157 53.912 81.5637 53.828 81.6517 53.756C81.7477 53.676 81.8037 53.628 81.8197 53.612L82.2157 54.704C82.0077 54.864 81.7397 55 81.4117 55.112C81.0837 55.224 80.7237 55.28 80.3317 55.28C79.7077 55.28 79.2077 55.108 78.8317 54.764C78.4557 54.412 78.2677 53.92 78.2677 53.288C78.2677 52.888 78.3557 52.484 78.5317 52.076C78.7077 51.668 78.9477 51.332 79.2517 51.068C79.5637 50.804 79.9117 50.672 80.2957 50.672C80.8477 50.672 81.2717 50.876 81.5677 51.284C81.8717 51.692 82.0717 52.124 82.1677 52.58C82.2637 53.028 82.3437 53.564 82.4077 54.188C82.4877 55.028 82.6037 55.876 82.7557 56.732C82.9157 57.58 83.0837 58.22 83.2597 58.652L82.2397 59.252ZM85.3502 55.472C85.1502 55.472 84.9782 55.404 84.8342 55.268C84.6982 55.124 84.6302 54.952 84.6302 54.752C84.6302 54.552 84.6982 54.384 84.8342 54.248C84.9782 54.104 85.1502 54.032 85.3502 54.032C85.5502 54.032 85.7182 54.104 85.8542 54.248C85.9982 54.384 86.0702 54.552 86.0702 54.752C86.0702 54.952 85.9982 55.124 85.8542 55.268C85.7182 55.404 85.5502 55.472 85.3502 55.472ZM85.3502 58.916C85.1502 58.916 84.9782 58.848 84.8342 58.712C84.6982 58.568 84.6302 58.396 84.6302 58.196C84.6302 57.996 84.6982 57.828 84.8342 57.692C84.9782 57.548 85.1502 57.476 85.3502 57.476C85.5502 57.476 85.7182 57.548 85.8542 57.692C85.9982 57.828 86.0702 57.996 86.0702 58.196C86.0702 58.396 85.9982 58.568 85.8542 58.712C85.7182 58.848 85.5502 58.916 85.3502 58.916ZM91.3934 59C90.8974 59 90.5134 58.828 90.2414 58.484C89.9694 58.14 89.7414 57.644 89.5574 56.996L90.2294 56.588C90.3494 57.076 90.4934 57.42 90.6614 57.62C90.8374 57.82 91.0814 57.92 91.3934 57.92H91.4774L91.5374 58.46L91.4774 59H91.3934ZM86.9414 61.508C87.4534 61.332 87.9174 61.1 88.3334 60.812C88.7494 60.524 89.0734 60.216 89.3054 59.888C89.5454 59.56 89.6654 59.252 89.6654 58.964C89.6654 58.556 89.4614 57.556 89.0534 55.964L89.9774 55.616C90.1534 56.184 90.2974 56.784 90.4094 57.416C90.5294 58.048 90.5894 58.564 90.5894 58.964C90.5894 59.436 90.4494 59.896 90.1694 60.344C89.8894 60.8 89.5014 61.208 89.0054 61.568C88.5174 61.936 87.9654 62.228 87.3494 62.444L86.9414 61.508ZM88.4654 53.564L88.7534 53.276C89.1294 52.9 89.3174 52.712 89.3174 52.712C89.3174 52.712 89.5054 52.9 89.8814 53.276L90.1694 53.564L89.3174 54.416L88.4654 53.564ZM91.598 57.92H92.078C92.934 57.92 93.538 57.84 93.89 57.68C94.242 57.512 94.418 57.24 94.418 56.864C94.41 56.616 94.326 56.24 94.166 55.736C94.014 55.224 93.882 54.856 93.77 54.632L94.634 54.176C94.794 54.488 94.95 54.912 95.102 55.448C95.262 55.976 95.342 56.436 95.342 56.828C95.342 57.54 95.082 58.08 94.562 58.448C94.042 58.816 93.258 59 92.21 59H91.598V57.92ZM91.754 60.668L92.294 60.128L93.098 60.932L92.294 61.748L91.49 60.932L91.754 60.668ZM93.89 60.668L94.43 60.128L95.234 60.932L94.43 61.748L93.626 60.932L93.89 60.668ZM91.394 59L91.334 58.46L91.394 57.92H91.706V59H91.394ZM97.6359 50.648C97.6999 51.056 97.7479 51.772 97.7799 52.796C97.8199 53.812 97.8399 54.736 97.8399 55.568V56.072L97.8279 56.492C97.8279 56.868 97.8599 57.156 97.9239 57.356C97.9879 57.548 98.1079 57.692 98.2839 57.788C98.4679 57.876 98.7399 57.92 99.0999 57.92H99.1599L99.2199 58.46L99.1599 59H99.0999C98.5319 59 98.0879 58.908 97.7679 58.724C97.4479 58.532 97.2199 58.248 97.0839 57.872C96.9559 57.496 96.8919 57 96.8919 56.384C96.8919 55.472 96.8719 54.44 96.8319 53.288C96.7999 52.128 96.7479 51.316 96.6759 50.852L97.6359 50.648ZM105.765 57.92C106.365 57.92 106.665 57.588 106.665 56.924C106.665 56.652 106.585 56.272 106.425 55.784C106.273 55.288 106.137 54.912 106.017 54.656L106.869 54.188C107.029 54.524 107.189 54.964 107.349 55.508C107.509 56.044 107.589 56.516 107.589 56.924C107.589 57.316 107.509 57.672 107.349 57.992C107.197 58.304 106.981 58.552 106.701 58.736C106.429 58.912 106.117 59 105.765 59H105.741V57.92H105.765ZM102.501 59V57.92H102.537C102.985 57.92 103.369 57.64 103.689 57.08C103.793 56.888 103.873 56.66 103.929 56.396C103.993 56.132 104.053 55.84 104.109 55.52L104.997 55.568C104.989 55.6 104.961 55.748 104.913 56.012C104.865 56.276 104.841 56.532 104.841 56.78C104.841 57.164 104.913 57.452 105.057 57.644C105.209 57.828 105.445 57.92 105.765 57.92H105.789L105.849 58.46L105.789 59H105.765C105.301 59 104.929 58.864 104.649 58.592C104.377 58.312 104.213 57.924 104.157 57.428L104.349 57.416C104.181 57.872 103.933 58.252 103.605 58.556C103.285 58.852 102.925 59 102.525 59H102.501ZM99.0695 59L99.0095 58.46L99.0695 57.92H99.1295C99.4255 57.92 99.7055 57.852 99.9695 57.716C100.233 57.58 100.437 57.4 100.581 57.176C100.733 56.96 100.849 56.732 100.929 56.492C101.017 56.252 101.105 55.968 101.193 55.64L102.093 55.736C102.077 55.784 102.045 55.904 101.997 56.096C101.949 56.288 101.909 56.468 101.877 56.636C101.853 56.804 101.841 56.956 101.841 57.092C101.841 57.644 102.065 57.92 102.513 57.92H102.537L102.597 58.46L102.537 59H102.501C102.133 59 101.825 58.892 101.577 58.676C101.337 58.452 101.193 58.152 101.145 57.776C100.897 58.176 100.601 58.48 100.257 58.688C99.9135 58.896 99.5335 59 99.1175 59H99.0695Z" fill="#565656"/>
<path d="M55.3356 81.308C55.0396 81.772 54.6876 82.46 54.2796 83.372C53.8716 84.276 53.4996 85.24 53.1636 86.264C52.8356 87.288 52.6236 88.2 52.5276 89H51.5196C51.4476 88.208 51.2436 87.304 50.9076 86.288C50.5796 85.264 50.2076 84.296 49.7916 83.384C49.3756 82.472 49.0156 81.78 48.7116 81.308L49.6596 80.612C49.9636 81.116 50.3116 81.84 50.7036 82.784C51.0956 83.728 51.4556 84.744 51.7836 85.832C52.1196 86.92 52.3596 87.928 52.5036 88.856H51.5436C51.7036 87.92 51.9516 86.904 52.2876 85.808C52.6236 84.712 52.9836 83.696 53.3676 82.76C53.7516 81.816 54.0916 81.1 54.3876 80.612L55.3356 81.308ZM57.7752 81.56C57.9192 81.944 58.0552 82.252 58.1832 82.484C58.3112 82.716 58.4752 82.904 58.6752 83.048C58.8752 83.184 59.1272 83.252 59.4312 83.252C59.9112 83.252 60.2512 83.104 60.4512 82.808C60.6512 82.512 60.7512 82.096 60.7512 81.56C60.7512 81.416 60.7352 81.168 60.7032 80.816L61.6032 80.648C61.6592 80.96 61.6872 81.284 61.6872 81.62C61.6872 82.444 61.4952 83.112 61.1112 83.624C60.7272 84.136 60.1752 84.392 59.4552 84.392C58.8152 84.392 58.3152 84.188 57.9552 83.78C57.5952 83.372 57.2712 82.796 56.9832 82.052L57.7752 81.56ZM57.5112 89C57.5192 88.888 57.5232 88.708 57.5232 88.46C57.5232 87.796 57.5032 87.12 57.4632 86.432C57.4312 85.744 57.3792 85.14 57.3072 84.62C57.2192 83.916 57.0992 83.3 56.9472 82.772C56.8032 82.236 56.6232 81.724 56.4072 81.236L57.4272 80.648C57.8592 81.56 58.1672 82.84 58.3512 84.488C58.4712 85.568 58.5312 86.836 58.5312 88.292C58.5312 88.612 58.5272 88.848 58.5192 89H57.5112ZM64.6668 88.484C64.3148 88.484 63.9908 88.4 63.6948 88.232C63.3988 88.056 63.1628 87.82 62.9868 87.524C62.8108 87.228 62.7228 86.912 62.7228 86.576C62.7228 86.232 62.8108 85.916 62.9868 85.628C63.1628 85.332 63.3988 85.1 63.6948 84.932C63.9908 84.756 64.3148 84.668 64.6668 84.668C65.0188 84.668 65.3428 84.756 65.6388 84.932C65.9348 85.1 66.1708 85.332 66.3468 85.628C66.5228 85.916 66.6108 86.232 66.6108 86.576C66.6108 86.912 66.5228 87.228 66.3468 87.524C66.1708 87.82 65.9348 88.056 65.6388 88.232C65.3428 88.4 65.0188 88.484 64.6668 88.484ZM64.6668 87.536C64.9308 87.536 65.1508 87.448 65.3268 87.272C65.5028 87.088 65.5908 86.856 65.5908 86.576C65.5908 86.296 65.5028 86.068 65.3268 85.892C65.1508 85.708 64.9308 85.616 64.6668 85.616C64.4028 85.616 64.1788 85.708 63.9948 85.892C63.8188 86.068 63.7308 86.296 63.7308 86.576C63.7308 86.856 63.8188 87.088 63.9948 87.272C64.1788 87.448 64.4028 87.536 64.6668 87.536ZM70.0451 86.06L69.3611 86.768V89H68.2811V80H69.3611V85.448L69.9491 84.752L71.9171 82.664H73.2371L70.7651 85.304L73.5251 89H72.2531L70.0451 86.06ZM79.7272 85.904C79.7272 86.544 79.6232 87.108 79.4152 87.596C79.2152 88.076 78.9272 88.452 78.5512 88.724C78.1832 88.988 77.7552 89.12 77.2672 89.12C76.4592 89.12 75.8392 88.836 75.4072 88.268L75.3472 89H74.3512V80H75.4432V83.36C75.8752 82.816 76.4792 82.544 77.2552 82.544C78.0232 82.544 78.6272 82.836 79.0672 83.42C79.5072 83.996 79.7272 84.792 79.7272 85.808V85.904ZM78.6352 85.772C78.6352 85.036 78.4912 84.468 78.2032 84.068C77.9232 83.668 77.5152 83.468 76.9792 83.468C76.2672 83.468 75.7552 83.8 75.4432 84.464V87.2C75.7712 87.864 76.2872 88.196 76.9912 88.196C77.5192 88.196 77.9232 87.996 78.2032 87.596C78.4912 87.188 78.6352 86.58 78.6352 85.772ZM81.8697 85.472C81.6697 85.472 81.4977 85.404 81.3537 85.268C81.2177 85.124 81.1497 84.952 81.1497 84.752C81.1497 84.552 81.2177 84.384 81.3537 84.248C81.4977 84.104 81.6697 84.032 81.8697 84.032C82.0697 84.032 82.2377 84.104 82.3737 84.248C82.5177 84.384 82.5897 84.552 82.5897 84.752C82.5897 84.952 82.5177 85.124 82.3737 85.268C82.2377 85.404 82.0697 85.472 81.8697 85.472ZM81.8697 88.916C81.6697 88.916 81.4977 88.848 81.3537 88.712C81.2177 88.568 81.1497 88.396 81.1497 88.196C81.1497 87.996 81.2177 87.828 81.3537 87.692C81.4977 87.548 81.6697 87.476 81.8697 87.476C82.0697 87.476 82.2377 87.548 82.3737 87.692C82.5177 87.828 82.5897 87.996 82.5897 88.196C82.5897 88.396 82.5177 88.568 82.3737 88.712C82.2377 88.848 82.0697 88.916 81.8697 88.916ZM84.1809 92.948C84.0369 91.22 83.9649 89.828 83.9649 88.772C83.9649 88.54 83.9729 88.248 83.9889 87.896C84.0049 87.544 84.1089 87.256 84.3009 87.032C84.4929 86.808 84.7329 86.696 85.0209 86.696C85.1489 86.696 85.2769 86.72 85.4049 86.768C85.7969 86.056 86.1569 85.512 86.4849 85.136C86.8129 84.752 87.1889 84.548 87.6129 84.524C88.5329 84.476 89.1569 85.108 89.4849 86.42C89.6049 86.94 89.7409 87.32 89.8929 87.56C90.0529 87.8 90.2569 87.92 90.5049 87.92H90.5769L90.6369 88.46L90.5769 89H90.5049C89.9049 89 89.5089 88.672 89.3169 88.016C89.2929 88.208 89.2129 88.388 89.0769 88.556C88.9489 88.724 88.8049 88.852 88.6449 88.94C88.4849 89.02 88.3209 89.06 88.1529 89.06C87.8569 89.06 87.4809 88.964 87.0249 88.772C86.5689 88.58 85.9729 88.272 85.2369 87.848C85.1969 87.816 85.1409 87.8 85.0689 87.8C84.9329 87.8 84.8609 87.884 84.8529 88.052L84.8409 88.532C84.8409 89.284 84.8769 90.112 84.9489 91.016C85.0209 91.92 85.0609 92.444 85.0689 92.588L85.1169 93.14L84.2049 93.332L84.1809 92.948ZM88.5129 88.064C88.6889 87.896 88.7769 87.624 88.7769 87.248C88.7769 86.984 88.7289 86.716 88.6329 86.444C88.5449 86.172 88.4169 85.948 88.2489 85.772C88.0889 85.596 87.9049 85.508 87.6969 85.508C87.4489 85.508 87.2049 85.652 86.9649 85.94C86.7249 86.228 86.4609 86.64 86.1729 87.176C86.6449 87.488 87.0689 87.72 87.4449 87.872C87.8289 88.016 88.1289 88.088 88.3449 88.088C88.4089 88.088 88.4649 88.08 88.5129 88.064ZM99.6596 87.92L99.7196 88.46L99.6596 89H99.5396C98.7476 88.992 98.1156 88.828 97.6436 88.508C97.1796 88.188 96.8676 87.7 96.7076 87.044L97.3316 86.588C97.4196 86.98 97.6556 87.3 98.0396 87.548C98.4316 87.788 98.9316 87.912 99.5396 87.92H99.6596ZM90.4436 87.92H91.5476C92.5476 87.92 93.4796 87.8 94.3436 87.56C95.2156 87.312 96.0876 86.956 96.9596 86.492C97.4476 86.228 97.9276 86.028 98.3996 85.892L98.4356 86.324C97.9796 86.324 97.5436 86.272 97.1276 86.168C96.7196 86.064 96.2956 85.9 95.8556 85.676C95.4716 85.476 95.1276 85.324 94.8236 85.22C94.5196 85.116 94.2196 85.064 93.9236 85.064C93.5876 85.064 93.2836 85.164 93.0116 85.364C92.7396 85.564 92.5356 85.8 92.3996 86.072L91.7516 85.628C92.0076 85.108 92.3236 84.716 92.6996 84.452C93.0756 84.18 93.4956 84.044 93.9596 84.044C94.2956 84.044 94.6076 84.1 94.8956 84.212C95.1916 84.324 95.6276 84.524 96.2036 84.812C96.7396 85.084 97.1596 85.288 97.4636 85.424C97.7756 85.552 98.1276 85.656 98.5196 85.736L98.5556 86.684C98.3956 86.732 98.2276 86.796 98.0516 86.876C97.8836 86.956 97.6396 87.084 97.3196 87.26C96.2396 87.828 95.2596 88.26 94.3796 88.556C93.5076 88.852 92.5636 89 91.5476 89H90.4436V87.92ZM93.5636 90.812L93.8516 90.524C94.2276 90.148 94.4156 89.96 94.4156 89.96C94.4156 89.96 94.6036 90.148 94.9796 90.524L95.2676 90.812L94.4156 91.664L93.5636 90.812ZM99.5257 87.92H100.63C101.63 87.92 102.562 87.8 103.426 87.56C104.298 87.312 105.17 86.956 106.042 86.492C106.53 86.228 107.01 86.028 107.482 85.892L107.518 86.324C107.062 86.324 106.626 86.272 106.21 86.168C105.802 86.064 105.378 85.9 104.938 85.676C104.554 85.476 104.21 85.324 103.906 85.22C103.602 85.116 103.302 85.064 103.006 85.064C102.67 85.064 102.366 85.164 102.094 85.364C101.822 85.564 101.618 85.8 101.482 86.072L100.834 85.628C101.09 85.108 101.406 84.716 101.782 84.452C102.158 84.18 102.578 84.044 103.042 84.044C103.378 84.044 103.69 84.1 103.978 84.212C104.274 84.324 104.71 84.524 105.286 84.812C105.822 85.084 106.242 85.288 106.546 85.424C106.858 85.552 107.21 85.656 107.602 85.736L107.638 86.684C107.478 86.732 107.31 86.796 107.134 86.876C106.966 86.956 106.722 87.084 106.402 87.26C105.322 87.828 104.342 88.26 103.462 88.556C102.59 88.852 101.646 89 100.63 89H99.5257V87.92Z" fill="#565656"/>
<path d="M147 22.75C141.07 22.75 136.25 17.93 136.25 12C136.25 6.07 141.07 1.25 147 1.25C152.93 1.25 157.75 6.07 157.75 12C157.75 17.93 152.93 22.75 147 22.75ZM147 2.75C141.9 2.75 137.75 6.9 137.75 12C137.75 17.1 141.9 21.25 147 21.25C152.1 21.25 156.25 17.1 156.25 12C156.25 6.9 152.1 2.75 147 2.75Z" fill="#5DD9C1"/>
<path d="M147 13.75C146.59 13.75 146.25 13.41 146.25 13V8C146.25 7.59 146.59 7.25 147 7.25C147.41 7.25 147.75 7.59 147.75 8V13C147.75 13.41 147.41 13.75 147 13.75Z" fill="#5DD9C1"/>
<path d="M147 17.0009C146.87 17.0009 146.74 16.9709 146.62 16.9209C146.5 16.8709 146.39 16.8009 146.29 16.7109C146.2 16.6109 146.13 16.5109 146.08 16.3809C146.03 16.2609 146 16.1309 146 16.0009C146 15.8709 146.03 15.7409 146.08 15.6209C146.13 15.5009 146.2 15.3909 146.29 15.2909C146.39 15.2009 146.5 15.1309 146.62 15.0809C146.86 14.9809 147.14 14.9809 147.38 15.0809C147.5 15.1309 147.61 15.2009 147.71 15.2909C147.8 15.3909 147.87 15.5009 147.92 15.6209C147.97 15.7409 148 15.8709 148 16.0009C148 16.1309 147.97 16.2609 147.92 16.3809C147.87 16.5109 147.8 16.6109 147.71 16.7109C147.61 16.8009 147.5 16.8709 147.38 16.9209C147.26 16.9709 147.13 17.0009 147 17.0009Z" fill="#5DD9C1"/>
</svg>
