<svg width="24" height="24" viewBox="0 0 24 24" fill="none" xmlns="http://www.w3.org/2000/svg">
<path d="M12.6777 19.957C12.9524 20.0209 12.9776 20.3807 12.71 20.4699L11.13 20.9899C7.16001 22.2699 5.07001 21.1999 3.78001 17.2299L2.50001 13.2799C1.22001 9.30992 2.28001 7.20992 6.25001 5.92992L6.774 5.75639C7.17687 5.62297 7.56893 6.02703 7.45454 6.43571C7.39783 6.63828 7.34329 6.84968 7.29001 7.06992L6.31001 11.2599C5.21001 15.9699 6.82001 18.5699 11.53 19.6899L12.6777 19.957Z" fill="#DC1E7A"/>
<path d="M17.17 3.2105L15.5 2.8205C12.16 2.0305 10.17 2.6805 9 5.1005C8.7 5.7105 8.46 6.4505 8.26 7.3005L7.28 11.4905C6.3 15.6705 7.59 17.7305 11.76 18.7205L13.44 19.1205C14.02 19.2605 14.56 19.3505 15.06 19.3905C18.18 19.6905 19.84 18.2305 20.68 14.6205L21.66 10.4405C22.64 6.2605 21.36 4.1905 17.17 3.2105ZM15.29 13.3305C15.2 13.6705 14.9 13.8905 14.56 13.8905C14.5 13.8905 14.44 13.8805 14.37 13.8705L11.46 13.1305C11.06 13.0305 10.82 12.6205 10.92 12.2205C11.02 11.8205 11.43 11.5805 11.83 11.6805L14.74 12.4205C15.15 12.5205 15.39 12.9305 15.29 13.3305ZM18.22 9.9505C18.13 10.2905 17.83 10.5105 17.49 10.5105C17.43 10.5105 17.37 10.5005 17.3 10.4905L12.45 9.2605C12.05 9.1605 11.81 8.7505 11.91 8.3505C12.01 7.9505 12.42 7.7105 12.82 7.8105L17.67 9.0405C18.08 9.1305 18.32 9.5405 18.22 9.9505Z" fill="#DC1E7A"/>
</svg>
