<svg width="330" height="335" viewBox="0 0 330 335" fill="none" xmlns="http://www.w3.org/2000/svg">
<g clip-path="url(#clip0_3768_16684)">
<rect width="330" height="335" fill="#FFF2F8"/>
<g clip-path="url(#clip1_3768_16684)">
<rect width="330" height="171" fill="#EBB9E5"/>
<path d="M4.84858 49.1167L-4.40036 49.1167L4.84861 58.3656L4.84858 49.1167Z" fill="white" fill-opacity="0.31"/>
<path d="M18.7148 62.9819L9.46585 62.9819L18.7148 72.2309L18.7148 62.9819Z" fill="white" fill-opacity="0.31"/>
<path d="M32.5815 76.8491L23.3326 76.8491L32.5815 86.098L32.5815 76.8491Z" fill="white" fill-opacity="0.31"/>
<path d="M5.14546 21.0874L-4.10348 21.0874L5.15252 30.3434L5.14546 21.0874Z" fill="white" fill-opacity="0.31"/>
<path d="M19.0122 34.9526L9.76322 34.9526L19.0122 44.2016L19.0122 34.9526Z" fill="white" fill-opacity="0.31"/>
<path d="M32.8784 48.8198L23.6294 48.8198L32.8784 58.0688L32.8784 48.8198Z" fill="white" fill-opacity="0.31"/>
<path d="M19.3017 6.9311L10.0528 6.93111L19.3088 16.1871L19.3017 6.9311Z" fill="white" fill-opacity="0.31"/>
<path d="M33.1679 20.7983L23.919 20.7983L33.168 30.0473L33.1679 20.7983Z" fill="white" fill-opacity="0.31"/>
<path d="M5.40718 34.6987L-3.84176 34.6987L5.4072 43.9477L5.40718 34.6987Z" fill="white" fill-opacity="0.31"/>
<path d="M19.2734 48.5659L10.0244 48.5659L19.2734 57.8149L19.2734 48.5659Z" fill="white" fill-opacity="0.31"/>
<path d="M33.1396 62.4311L23.8907 62.4311L33.1396 71.6801L33.1396 62.4311Z" fill="white" fill-opacity="0.31"/>
<path d="M5.2939 7.07954L-3.95505 7.07956L5.29388 16.3285L5.2939 7.07954Z" fill="white" fill-opacity="0.31"/>
<path d="M19.1601 20.9467L9.91117 20.9467L19.1601 30.1957L19.1601 20.9467Z" fill="white" fill-opacity="0.31"/>
<path d="M33.0268 34.812L23.7779 34.812L33.0268 44.0609L33.0268 34.812Z" fill="white" fill-opacity="0.31"/>
<path d="M33.8115 6.29438L24.5625 6.2944L33.8115 15.5434L33.8115 6.29438Z" fill="white" fill-opacity="0.31"/>
<path d="M2.94019 156.359C2.35019 157.769 1.84018 159.219 1.43018 160.679L48.5502 207.799C50.0102 207.389 51.4502 206.879 52.8702 206.289L2.94019 156.359Z" fill="white" fill-opacity="0.29"/>
<path d="M6.17981 150.26C5.38981 151.46 4.6898 152.7 4.0498 153.96L55.2698 205.18C56.5298 204.54 57.7698 203.84 58.9698 203.05L6.17981 150.26Z" fill="white" fill-opacity="0.29"/>
<path d="M10.2901 145.051C9.34013 146.071 8.45012 147.121 7.62012 148.211L61.0201 201.611C62.1101 200.791 63.1701 199.901 64.1801 198.941L10.2901 145.051Z" fill="white" fill-opacity="0.29"/>
<path d="M74.22 158.8C72.4 153.45 69.36 148.41 65.09 144.15C60.82 139.88 55.7899 136.84 50.4399 135.02L74.22 158.8Z" fill="white" fill-opacity="0.29"/>
<path d="M0.749817 163.5C0.399817 165.2 0.179824 166.92 0.0698242 168.65L40.5898 209.17C42.3198 209.06 44.0398 208.83 45.7398 208.49L0.749817 163.5Z" fill="white" fill-opacity="0.29"/>
<path d="M20.9597 137.051C19.6997 137.691 18.4598 138.391 17.2598 139.181L70.0598 191.981C70.8498 190.781 71.5498 189.541 72.1898 188.281L20.9597 137.051Z" fill="white" fill-opacity="0.29"/>
<path d="M45.6401 133.73C43.4801 133.3 41.2801 133.06 39.0801 133L76.23 170.15C76.17 167.95 75.9401 165.76 75.5001 163.59L45.6401 133.73Z" fill="white" fill-opacity="0.29"/>
<path d="M27.6798 134.43C26.2198 134.84 24.7799 135.35 23.3599 135.94L73.2898 185.87C73.8798 184.46 74.3898 183.01 74.7998 181.55L27.6798 134.43Z" fill="white" fill-opacity="0.29"/>
<path d="M35.6403 133.07C33.9103 133.18 32.1902 133.41 30.4902 133.75L75.4802 178.74C75.8302 177.04 76.0502 175.32 76.1602 173.59L35.6403 133.07Z" fill="white" fill-opacity="0.29"/>
<path d="M15.2098 140.631C14.1198 141.451 13.0598 142.341 12.0498 143.301L65.9498 197.201C66.8998 196.181 67.7898 195.131 68.6198 194.041L15.2098 140.631Z" fill="white" fill-opacity="0.29"/>
<path d="M82.4 55.36L77.95 50.91L82.4 46.46C82.96 45.9 82.96 44.98 82.4 44.42C81.84 43.86 80.92 43.86 80.36 44.42L75.91 48.87L71.46 44.42C70.9 43.86 69.98 43.86 69.42 44.42C68.86 44.98 68.86 45.9 69.42 46.46L73.87 50.91L69.42 55.36C68.86 55.92 68.86 56.84 69.42 57.4C69.98 57.96 70.9 57.96 71.46 57.4L75.91 52.95L80.36 57.4C80.92 57.96 81.84 57.96 82.4 57.4C82.96 56.84 82.96 55.93 82.4 55.36Z" fill="white" fill-opacity="0.3"/>
<path d="M233.4 170.36L228.95 165.91L233.4 161.46C233.96 160.9 233.96 159.98 233.4 159.42C232.84 158.86 231.92 158.86 231.36 159.42L226.91 163.87L222.46 159.42C221.9 158.86 220.98 158.86 220.42 159.42C219.86 159.98 219.86 160.9 220.42 161.46L224.87 165.91L220.42 170.36C219.86 170.92 219.86 171.84 220.42 172.4C220.98 172.96 221.9 172.96 222.46 172.4L226.91 167.95L231.36 172.4C231.92 172.96 232.84 172.96 233.4 172.4C233.96 171.84 233.96 170.93 233.4 170.36Z" fill="white" fill-opacity="0.3"/>
<path d="M326.4 63.36L321.95 58.91L326.4 54.46C326.96 53.9 326.96 52.98 326.4 52.42C325.84 51.86 324.92 51.86 324.36 52.42L319.91 56.87L315.46 52.42C314.9 51.86 313.98 51.86 313.42 52.42C312.86 52.98 312.86 53.9 313.42 54.46L317.87 58.91L313.42 63.36C312.86 63.92 312.86 64.84 313.42 65.4C313.98 65.96 314.9 65.96 315.46 65.4L319.91 60.95L324.36 65.4C324.92 65.96 325.84 65.96 326.4 65.4C326.96 64.84 326.96 63.93 326.4 63.36Z" fill="white" fill-opacity="0.3"/>
<path d="M189.4 107.36L184.95 102.91L189.4 98.46C189.96 97.9 189.96 96.98 189.4 96.42C188.84 95.86 187.92 95.86 187.36 96.42L182.91 100.87L178.46 96.42C177.9 95.86 176.98 95.86 176.42 96.42C175.86 96.98 175.86 97.9 176.42 98.46L180.87 102.91L176.42 107.36C175.86 107.92 175.86 108.84 176.42 109.4C176.98 109.96 177.9 109.96 178.46 109.4L182.91 104.95L187.36 109.4C187.92 109.96 188.84 109.96 189.4 109.4C189.96 108.84 189.96 107.93 189.4 107.36Z" fill="white" fill-opacity="0.3"/>
<path d="M54 109.5C54 111.436 52.4358 113 50.5 113C48.5642 113 47 111.436 47 109.5C47 107.564 48.5642 106 50.5 106C52.4358 106 54 107.564 54 109.5Z" fill="white" fill-opacity="0.26"/>
<path d="M220 144.5C220 146.436 218.436 148 216.5 148C214.564 148 213 146.436 213 144.5C213 142.564 214.564 141 216.5 141C218.436 141 220 142.564 220 144.5Z" fill="white" fill-opacity="0.26"/>
<path d="M238 57.5C238 59.4358 236.436 61 234.5 61C232.564 61 231 59.4358 231 57.5C231 55.5642 232.564 54 234.5 54C236.436 54 238 55.5642 238 57.5Z" fill="white" fill-opacity="0.26"/>
<path d="M155 20.5C155 22.4358 153.436 24 151.5 24C149.564 24 148 22.4358 148 20.5C148 18.5642 149.564 17 151.5 17C153.436 17 155 18.5642 155 20.5Z" fill="white" fill-opacity="0.26"/>
<path d="M327 89.5C327 91.4358 325.436 93 323.5 93C321.564 93 320 91.4358 320 89.5C320 87.5642 321.564 86 323.5 86C325.436 86 327 87.5642 327 89.5Z" fill="white" fill-opacity="0.26"/>
<path d="M340.895 93.3733C327.229 93.3214 313.732 96.3196 300.088 97.1058C286.443 97.892 271.898 96.1544 261.038 87.8532C241.738 73.1066 239.241 42.029 218.023 30.205C207.934 24.5821 195.791 24.7051 184.284 23.6901C172.777 22.6751 160.234 19.6673 153.554 10.2412C147.955 2.34401 147.941 -8.59362 151.754 -17.4938C155.561 -26.3955 162.697 -33.4942 170.504 -39.2149C198.879 -60.0184 237.232 -64.4179 271.312 -55.6678C305.391 -46.9177 335.453 -26.1601 360.123 -1.07137C384.79 24.0137 404.558 53.4294 423.722 82.9354C427.968 89.4705 432.24 96.1295 434.532 103.579C436.824 111.028 436.919 119.497 433.033 126.256C430.285 131.04 423.177 137.367 417.375 134.157C412.74 131.591 409.182 124.127 405.38 120.375C394.5 109.628 380.938 101.625 366.3 97.2201C358.073 94.7445 349.493 93.4071 340.895 93.3733Z" fill="white" fill-opacity="0.18"/>
</g>
<path d="M2.55182 268.271C16.2179 268.323 29.7144 265.325 43.3591 264.539C57.0038 263.753 71.5486 265.49 82.4084 273.791C101.709 288.538 104.205 319.615 125.424 331.439C135.513 337.062 147.656 336.939 159.163 337.954C170.67 338.969 183.213 341.977 189.893 351.403C195.492 359.301 195.506 370.238 191.693 379.138C187.886 388.04 180.75 395.139 172.943 400.859C144.568 421.663 106.215 426.062 72.1349 417.312C38.0553 408.562 7.99387 387.805 -16.676 362.716C-41.3436 337.631 -61.1117 308.215 -80.2755 278.709C-84.521 272.174 -88.7932 265.515 -91.085 258.066C-93.3768 250.616 -93.4722 242.148 -89.5866 235.389C-86.8386 230.605 -79.7299 224.277 -73.9281 227.487C-69.2937 230.053 -65.7353 237.517 -61.9328 241.269C-51.0535 252.016 -37.491 260.02 -22.8536 264.424C-14.6261 266.9 -6.04624 268.237 2.55182 268.271Z" fill="white"/>
<path d="M299.011 334.103L296.618 343.037L307.954 336.492L299.011 334.103Z" fill="#F5BCD7"/>
<path d="M315.994 324.298L313.601 333.232L324.937 326.687L315.994 324.298Z" fill="#F5BCD7"/>
<path d="M332.977 314.494L330.583 323.427L341.911 316.887L332.977 314.494Z" fill="#F5BCD7"/>
<path d="M305.984 306.96L303.59 315.894L314.927 309.349L305.984 306.96Z" fill="#F5BCD7"/>
<path d="M322.967 297.156L320.573 306.09L331.901 299.55L322.967 297.156Z" fill="#F5BCD7"/>
<path d="M312.227 337.373L309.833 346.306L321.161 339.766L312.227 337.373Z" fill="#F5BCD7"/>
<path d="M329.21 327.568L326.816 336.502L338.144 329.962L329.21 327.568Z" fill="#F5BCD7"/>
<path d="M302.502 320.529L300.108 329.463L311.436 322.923L302.502 320.529Z" fill="#F5BCD7"/>
<path d="M319.485 310.724L317.091 319.658L328.419 313.118L319.485 310.724Z" fill="#F5BCD7"/>
<path d="M309.125 292.779L306.731 301.713L318.059 295.173L309.125 292.779Z" fill="#F5BCD7"/>
<path d="M17.5735 182.257L17.5806 173.001L8.32455 182.257L17.5735 182.257Z" fill="#F5BCD7"/>
<path d="M3.7144 196.117L3.71439 186.868L-5.54162 196.124L3.7144 196.117Z" fill="#F5BCD7"/>
<path d="M17.8775 210.279L17.8775 201.03L8.62147 210.286L17.8775 210.279Z" fill="#F5BCD7"/>
<path d="M4.01128 224.146L4.01126 214.897L-5.24474 224.153L4.01128 224.146Z" fill="#F5BCD7"/>
<path d="M18.1675 238.302L18.1675 229.053L8.91152 238.309L18.1675 238.302Z" fill="#F5BCD7"/>
<path d="M4.30132 252.169L4.30131 242.92L-4.94766 252.169L4.30132 252.169Z" fill="#F5BCD7"/>
<path d="M18.1318 196.675L18.1319 187.426L8.8829 196.675L18.1318 196.675Z" fill="#F5BCD7"/>
<path d="M4.26567 210.542L4.26566 201.293L-4.98327 210.542L4.26567 210.542Z" fill="#F5BCD7"/>
<path d="M18.0186 224.294L18.0186 215.045L8.76966 224.294L18.0186 224.294Z" fill="#F5BCD7"/>
<path d="M4.15239 238.162L4.15238 228.913L-5.09659 238.162L4.15239 238.162Z" fill="#F5BCD7"/>
<path d="M18.8038 252.812L18.8037 243.563L9.55478 252.812L18.8038 252.812Z" fill="#F5BCD7"/>
</g>
<defs>
<clipPath id="clip0_3768_16684">
<rect width="330" height="335" fill="white"/>
</clipPath>
<clipPath id="clip1_3768_16684">
<rect width="330" height="171" fill="white"/>
</clipPath>
</defs>
</svg>
