<svg width="190" height="30" viewBox="0 0 190 30" fill="none" xmlns="http://www.w3.org/2000/svg">
<path d="M4.73609 15C3.98943 16.5467 3.61609 17.8933 3.61609 19.04C3.61609 20.2533 3.98276 21.1733 4.71609 21.8C5.44943 22.4267 6.49609 22.74 7.85609 22.74C8.88276 22.74 9.75609 22.5533 10.4761 22.18C11.1961 21.82 11.7294 21.3467 12.0761 20.76C12.4361 20.1867 12.6161 19.58 12.6161 18.94C12.6161 18.3667 12.4961 17.6133 12.2561 16.68C12.0161 15.7467 11.7494 14.8533 11.4561 14L13.1561 13.18C13.5561 14.34 13.8494 15.3867 14.0361 16.32C14.2361 17.2533 14.3361 18.1267 14.3361 18.94C14.3361 19.9667 14.0761 20.94 13.5561 21.86C13.0361 22.78 12.2828 23.52 11.2961 24.08C10.3228 24.6533 9.17609 24.94 7.85609 24.94C6.60276 24.94 5.52276 24.6867 4.61609 24.18C3.70943 23.6867 3.01609 23.0133 2.53609 22.16C2.06943 21.3067 1.83609 20.3467 1.83609 19.28C1.83609 18.48 1.96943 17.6267 2.23609 16.72C2.50276 15.8133 2.81609 15 3.17609 14.28L4.73609 15ZM6.71609 13.38C7.23609 12.8333 7.75609 12.3133 8.27609 11.82C8.79609 12.3133 9.31609 12.8333 9.83609 13.38L8.27609 14.94L6.71609 13.38ZM18.0423 5.78C18.149 6.54 18.2357 7.75333 18.3023 9.42C18.369 11.0733 18.4023 12.6133 18.4023 14.04V14.92C18.389 15.72 18.4223 16.3133 18.5023 16.7C18.5823 17.0867 18.7623 17.3667 19.0423 17.54C19.3223 17.7133 19.769 17.8 20.3823 17.8H20.4823L20.6023 18.9L20.4823 20H20.3823C18.969 20 17.9757 19.6333 17.4023 18.9C16.8423 18.1533 16.5623 16.9733 16.5623 15.36C16.5623 13.8933 16.5223 12.2267 16.4423 10.36C16.3757 8.48 16.2757 7.09333 16.1423 6.2L18.0423 5.78ZM26.0353 13.3C26.782 14.5133 27.3953 15.4333 27.8753 16.06C28.3553 16.6867 28.8086 17.1333 29.2353 17.4C29.662 17.6667 30.1353 17.8 30.6553 17.8H30.9153L31.0353 18.9L30.9153 20H30.6553C29.962 20 29.3286 19.8133 28.7553 19.44C28.182 19.0667 27.6086 18.5 27.0353 17.74C26.4753 16.9667 25.802 15.9067 25.0153 14.56L26.0353 13.3ZM29.2153 7.3L23.1153 9.94C24.0886 10.7667 24.9886 11.7667 25.8153 12.94C26.642 14.1133 27.0553 15.22 27.0553 16.26C27.0553 16.5933 27.0086 16.9 26.9153 17.18C26.6086 18.1267 25.9086 18.8333 24.8153 19.3C23.7353 19.7667 22.3486 20 20.6553 20H20.0953V17.8H20.6553C21.922 17.8 22.942 17.6933 23.7153 17.48C24.502 17.2533 25.002 16.9333 25.2153 16.52C25.242 16.3867 25.2553 16.28 25.2553 16.2C25.2553 15.5333 24.8886 14.72 24.1553 13.76C23.422 12.7867 22.382 11.76 21.0353 10.68L21.2753 8.68L28.6153 5.52L29.2153 7.3ZM41.9398 17.8C42.4065 17.8 42.7598 17.6733 42.9998 17.42C43.2398 17.1533 43.3598 16.78 43.3598 16.3C43.3598 15.8733 43.2265 15.2667 42.9598 14.48C42.7065 13.68 42.4798 13.0533 42.2798 12.6L43.8998 11.7C44.1665 12.2733 44.4332 13.0133 44.6998 13.92C44.9798 14.8267 45.1198 15.6333 45.1198 16.34C45.1198 17.02 44.9798 17.64 44.6998 18.2C44.4332 18.7467 44.0598 19.1867 43.5798 19.52C43.0998 19.84 42.5532 20 41.9398 20H41.8998V17.8H41.9398ZM36.5198 20V17.8H36.5798C36.9665 17.8 37.3065 17.6933 37.5998 17.48C37.8932 17.2533 38.1598 16.9267 38.3998 16.5C38.6932 15.9533 38.9198 15.12 39.0798 14L40.7598 14.08C40.5998 14.92 40.5198 15.58 40.5198 16.06C40.5198 16.6333 40.6332 17.0667 40.8598 17.36C41.0865 17.6533 41.4465 17.8 41.9398 17.8H41.9798L42.0998 18.9L41.9798 20H41.9398C41.1798 20 40.5665 19.7867 40.0998 19.36C39.6332 18.92 39.3332 18.3067 39.1998 17.52L39.5798 17.48C39.2732 18.2267 38.8532 18.8333 38.3198 19.3C37.7998 19.7667 37.2132 20 36.5598 20H36.5198ZM30.7798 20L30.6598 18.9L30.7798 17.8H30.8798C31.3598 17.8 31.8065 17.6933 32.2198 17.48C32.6465 17.2667 32.9732 16.9933 33.1998 16.66C33.4665 16.3133 33.6732 15.9333 33.8198 15.52C33.9798 15.1067 34.1198 14.66 34.2398 14.18L35.9198 14.36C35.9065 14.4267 35.8332 14.7 35.6998 15.18C35.5665 15.66 35.4998 16.1133 35.4998 16.54C35.4998 16.9533 35.5798 17.2667 35.7398 17.48C35.9132 17.6933 36.1798 17.8 36.5398 17.8H36.5798L36.6998 18.9L36.5798 20H36.4998C35.8998 20 35.3932 19.8267 34.9798 19.48C34.5665 19.1333 34.3065 18.6667 34.1998 18.08C33.3198 19.36 32.2065 20 30.8598 20H30.7798ZM39.9198 6.16L40.3398 6.58C40.9132 7.15333 41.1998 7.44 41.1998 7.44L39.9198 8.72L38.6598 7.44L39.9198 6.16ZM40.3398 9.7C40.3398 9.7 40.6598 9.38 41.2998 8.74L41.7798 8.26L43.2198 9.7L42.7398 10.18C42.0998 10.82 41.7798 11.14 41.7798 11.14C41.3132 10.6467 40.8332 10.1667 40.3398 9.7ZM36.6198 9.7C36.6198 9.7 36.9398 9.38 37.5798 8.74L38.0598 8.26L39.4998 9.7L39.0198 10.18C38.3798 10.82 38.0598 11.14 38.0598 11.14C37.5932 10.6467 37.1132 10.1667 36.6198 9.7ZM52.2103 20C51.357 20 50.6836 19.7 50.1903 19.1C49.7103 18.4867 49.3036 17.62 48.9703 16.5L50.3103 15.68C50.497 16.4667 50.7303 17.02 51.0103 17.34C51.3036 17.6467 51.7036 17.8 52.2103 17.8H52.3503L52.4703 18.9L52.3503 20H52.2103ZM44.5703 23.9C45.437 23.58 46.217 23.18 46.9103 22.7C47.617 22.22 48.1703 21.72 48.5703 21.2C48.9836 20.6933 49.1903 20.22 49.1903 19.78C49.1903 19.22 48.837 17.5667 48.1303 14.82L49.8903 14.14C50.197 15.0867 50.4436 16.0867 50.6303 17.14C50.8303 18.18 50.9303 19.06 50.9303 19.78C50.9303 21.0067 50.417 22.16 49.3903 23.24C48.377 24.3333 47.057 25.18 45.4303 25.78L44.5703 23.9ZM47.1103 10.64C47.6303 10.0933 48.1503 9.57333 48.6703 9.08C49.1903 9.57333 49.7103 10.0933 50.2303 10.64L48.6703 12.2L47.1103 10.64ZM52.7456 17.8H53.5856C54.9856 17.8 55.9723 17.6733 56.5456 17.42C57.119 17.1533 57.4056 16.74 57.4056 16.18C57.3923 15.8067 57.2523 15.2 56.9856 14.36C56.719 13.52 56.499 12.9267 56.3256 12.58L57.9856 11.68C58.2523 12.2133 58.5123 12.9267 58.7656 13.82C59.0323 14.7133 59.1656 15.4933 59.1656 16.16C59.1656 18.72 57.4056 20 53.8856 20H52.7456V17.8ZM57.0656 21.84L57.5256 21.36L58.9656 22.8L58.4856 23.28C57.8456 23.92 57.5256 24.24 57.5256 24.24C57.059 23.7467 56.579 23.2667 56.0856 22.8L57.0656 21.84ZM53.3456 21.84L53.8256 21.36L55.2656 22.8L54.7856 23.28C54.1456 23.92 53.8256 24.24 53.8256 24.24C53.359 23.7467 52.879 23.2667 52.3856 22.8L53.3456 21.84ZM55.6656 23.74L56.0856 24.16C56.659 24.7333 56.9456 25.02 56.9456 25.02L55.6656 26.3L54.4056 25.02L55.6656 23.74ZM52.2256 20L52.1056 18.9L52.2256 17.8H52.8856V20H52.2256Z" fill="#393939"/>
<path d="M74.9998 23.67C74.8098 23.67 74.6198 23.6 74.4698 23.45L67.9498 16.93C66.8898 15.87 66.8898 14.13 67.9498 13.07L74.4698 6.55002C74.7598 6.26002 75.2398 6.26002 75.5298 6.55002C75.8198 6.84002 75.8198 7.32002 75.5298 7.61002L69.0098 14.13C68.5298 14.61 68.5298 15.39 69.0098 15.87L75.5298 22.39C75.8198 22.68 75.8198 23.16 75.5298 23.45C75.3798 23.59 75.1898 23.67 74.9998 23.67Z" fill="#727272"/>
<path d="M97.0353 25.64C95.862 25.64 94.822 25.42 93.9153 24.98C93.0086 24.54 92.2953 23.8933 91.7753 23.04C91.2553 22.2 90.9953 21.2 90.9953 20.04C90.9953 19.24 91.1286 18.38 91.3953 17.46C91.6753 16.54 91.9953 15.7133 92.3553 14.98L93.8953 15.7C93.562 16.4467 93.2953 17.16 93.0953 17.84C92.8953 18.5067 92.7953 19.1533 92.7953 19.78C92.7953 20.9933 93.162 21.9067 93.8953 22.52C94.6286 23.1467 95.6753 23.46 97.0353 23.46C97.8086 23.46 98.542 23.36 99.2353 23.16C99.942 22.96 100.529 22.7133 100.995 22.42C101.462 22.14 101.749 21.88 101.855 21.64C101.709 21.4 101.235 21.0267 100.435 20.52C99.6353 20.0133 98.7886 19.5867 97.8953 19.24L98.3553 17.16C99.422 17.3733 100.369 17.5333 101.195 17.64C102.035 17.7467 102.849 17.8 103.635 17.8H104.055L104.175 18.9L104.055 20H103.635C102.755 20 101.889 19.94 101.035 19.82C100.182 19.6867 99.1353 19.4933 97.8953 19.24L98.3753 17.86L98.8153 18.06C100.135 18.6333 101.262 19.22 102.195 19.82C103.129 20.4067 103.589 21.04 103.575 21.72C103.562 22.3467 103.255 22.9667 102.655 23.58C102.055 24.1933 101.255 24.6867 100.255 25.06C99.2686 25.4467 98.1953 25.64 97.0353 25.64ZM109.888 17.8L110.008 18.9L109.888 20H109.668C109.068 20 108.508 19.82 107.988 19.46C107.481 19.0867 107.075 18.58 106.768 17.94C106.461 17.3 106.308 16.5867 106.308 15.8C106.321 15.48 106.268 14 106.148 11.36C106.028 8.72 105.928 7 105.848 6.2L107.748 5.8C107.828 6.6 107.901 8.17333 107.968 10.52C108.048 12.8533 108.095 14.1733 108.108 14.48L108.148 15.82C108.228 17.14 108.735 17.8 109.668 17.8H109.888ZM103.728 17.8H104.248C104.995 17.8 105.528 17.6467 105.848 17.34C106.168 17.02 106.321 16.5067 106.308 15.8L107.708 15.96C107.708 17.1733 107.408 18.1533 106.808 18.9C106.221 19.6333 105.375 20 104.268 20H103.728V17.8ZM109.665 17.8H109.965C110.618 17.8 111.152 17.66 111.565 17.38C111.978 17.0867 112.305 16.6333 112.545 16.02C112.798 15.4067 112.998 14.58 113.145 13.54L114.805 13.88C114.738 14.2933 114.705 14.74 114.705 15.22C114.705 16.3267 114.992 17.1067 115.565 17.56C116.152 18.0133 117.105 18.24 118.425 18.24C119.638 18.24 120.718 18.1 121.665 17.82C122.612 17.54 123.345 17.1733 123.865 16.72C124.398 16.2667 124.665 15.7933 124.665 15.3C124.665 14.8733 124.485 14.52 124.125 14.24C123.778 13.9467 123.298 13.8 122.685 13.8C121.605 13.8 120.505 14.2733 119.385 15.22C118.278 16.1533 117.258 17.48 116.325 19.2L114.965 18.3C116.005 16.2467 117.192 14.64 118.525 13.48C119.872 12.3067 121.205 11.72 122.525 11.72C123.245 11.72 123.898 11.8733 124.485 12.18C125.072 12.4867 125.525 12.9133 125.845 13.46C126.178 13.9933 126.345 14.6 126.345 15.28C126.345 16.3067 126.012 17.2067 125.345 17.98C124.678 18.7533 123.752 19.3533 122.565 19.78C121.392 20.2067 120.065 20.42 118.585 20.42C115.878 20.42 114.225 19.5867 113.625 17.92C113.265 18.6 112.798 19.12 112.225 19.48C111.652 19.8267 110.892 20 109.945 20H109.665V17.8ZM128.629 19.88C128.736 19.08 128.789 17.68 128.789 15.68C128.789 13.8533 128.742 11.98 128.649 10.06C128.569 8.12667 128.476 6.84 128.369 6.2L130.269 5.78C130.362 6.44667 130.456 7.76 130.549 9.72C130.642 11.68 130.689 13.5733 130.689 15.4C130.689 17.48 130.622 19.0467 130.489 20.1L128.629 19.88ZM145.385 9.9C145.612 12.3 145.805 14.1267 145.965 15.38C146.032 16.06 146.125 16.5667 146.245 16.9C146.365 17.2333 146.545 17.4667 146.785 17.6C147.025 17.7333 147.378 17.8 147.845 17.8H148.145L148.265 18.9L148.145 20H147.845C146.738 20 145.892 19.6667 145.305 19C144.718 18.32 144.338 17.2067 144.165 15.66C144.098 14.9533 143.958 13.78 143.745 12.14C143.705 11.7267 143.632 11.1067 143.525 10.28L145.385 9.9ZM145.225 18.6C144.425 18.8667 143.618 19 142.805 19C141.672 19 140.745 18.74 140.025 18.22C139.318 17.7 138.965 16.9867 138.965 16.08C138.965 14.9733 139.432 14.04 140.365 13.28C141.298 12.5067 142.552 11.8467 144.125 11.3L144.525 13.3C143.525 13.5533 142.645 13.9067 141.885 14.36C141.138 14.8133 140.745 15.2467 140.705 15.66C140.665 16.0067 140.825 16.3 141.185 16.54C141.558 16.7667 142.052 16.88 142.665 16.88C143.318 16.88 144.018 16.7467 144.765 16.48L145.225 18.6ZM163.267 17.8L163.387 18.9L163.267 20H163.067C161.681 19.9867 160.581 19.7067 159.767 19.16C158.954 18.6133 158.401 17.8 158.107 16.72L159.307 15.74C159.441 16.3267 159.814 16.82 160.427 17.22C161.054 17.6067 161.847 17.8 162.807 17.8H163.267ZM147.907 17.8H149.627C151.267 17.8 152.801 17.6067 154.227 17.22C155.654 16.8333 157.107 16.2467 158.587 15.46C159.001 15.2333 159.434 15.0267 159.887 14.84C160.341 14.64 160.714 14.5 161.007 14.42L161.067 15.6C160.334 15.5867 159.627 15.4867 158.947 15.3C158.281 15.1 157.547 14.8 156.747 14.4C155.507 13.7467 154.461 13.42 153.607 13.42C153.061 13.42 152.567 13.58 152.127 13.9C151.687 14.22 151.361 14.5867 151.147 15L149.867 14.1C150.321 13.1933 150.867 12.5067 151.507 12.04C152.147 11.5733 152.861 11.34 153.647 11.34C154.221 11.34 154.761 11.44 155.267 11.64C155.787 11.8267 156.514 12.16 157.447 12.64C158.314 13.08 159.007 13.4067 159.527 13.62C160.047 13.8333 160.627 14.0067 161.267 14.14L161.347 16.08C161.094 16.1467 160.774 16.28 160.387 16.48C160.001 16.6667 159.581 16.8867 159.127 17.14C157.301 18.1133 155.661 18.8333 154.207 19.3C152.767 19.7667 151.174 20 149.427 20H147.907V17.8ZM163.004 17.8H163.484C164.937 17.8 166.091 17.7133 166.944 17.54C167.811 17.3667 168.451 17.12 168.864 16.8C169.277 16.4667 169.571 16.0467 169.744 15.54C169.771 15.18 169.717 14.8267 169.584 14.48C169.464 14.1333 169.271 13.8467 169.004 13.62C168.737 13.3933 168.431 13.28 168.084 13.28C167.631 13.28 167.231 13.48 166.884 13.88C166.537 14.2667 166.331 14.7333 166.264 15.28C166.251 15.72 166.424 16.1333 166.784 16.52C167.144 16.9067 167.671 17.22 168.364 17.46C169.071 17.6867 169.904 17.8 170.864 17.8H172.804L172.924 18.9L172.804 20H171.604C170.257 20 169.044 19.8 167.964 19.4C166.897 19 166.057 18.46 165.444 17.78C164.844 17.1 164.544 16.3533 164.544 15.54C164.544 15.4333 164.557 15.2733 164.584 15.06C164.691 14.34 164.917 13.68 165.264 13.08C165.624 12.4667 166.057 11.9867 166.564 11.64C167.084 11.28 167.624 11.1 168.184 11.1C168.811 11.1 169.371 11.3 169.864 11.7C170.371 12.1 170.764 12.6133 171.044 13.24C171.324 13.8667 171.464 14.5067 171.464 15.16C171.464 15.28 171.451 15.46 171.424 15.7C171.224 17.1667 170.464 18.2533 169.144 18.96C167.837 19.6533 165.951 20 163.484 20H163.004V17.8ZM166.724 8.4C167.244 7.85333 167.764 7.33333 168.284 6.84C168.804 7.33333 169.324 7.85333 169.844 8.4L168.284 9.96L166.724 8.4ZM172.536 17.8H172.836C173.49 17.8 174.023 17.66 174.436 17.38C174.85 17.0867 175.176 16.6333 175.416 16.02C175.67 15.4067 175.87 14.58 176.016 13.54L177.676 13.88C177.61 14.2933 177.576 14.74 177.576 15.22C177.576 16.3267 177.863 17.1067 178.436 17.56C179.023 18.0133 179.976 18.24 181.296 18.24C182.51 18.24 183.59 18.1 184.536 17.82C185.483 17.54 186.216 17.1733 186.736 16.72C187.27 16.2667 187.536 15.7933 187.536 15.3C187.536 14.8733 187.356 14.52 186.996 14.24C186.65 13.9467 186.17 13.8 185.556 13.8C184.476 13.8 183.376 14.2733 182.256 15.22C181.15 16.1533 180.13 17.48 179.196 19.2L177.836 18.3C178.876 16.2467 180.063 14.64 181.396 13.48C182.743 12.3067 184.076 11.72 185.396 11.72C186.116 11.72 186.77 11.8733 187.356 12.18C187.943 12.4867 188.396 12.9133 188.716 13.46C189.05 13.9933 189.216 14.6 189.216 15.28C189.216 16.3067 188.883 17.2067 188.216 17.98C187.55 18.7533 186.623 19.3533 185.436 19.78C184.263 20.2067 182.936 20.42 181.456 20.42C178.75 20.42 177.096 19.5867 176.496 17.92C176.136 18.6 175.67 19.12 175.096 19.48C174.523 19.8267 173.763 20 172.816 20H172.536V17.8Z" fill="#727272"/>
</svg>
