<svg width="22" height="23" viewBox="0 0 22 23" fill="none" xmlns="http://www.w3.org/2000/svg">
<path d="M15.9955 21.3542C14.9597 21.3542 13.8688 21.1067 12.7413 20.63C11.6413 20.1625 10.5322 19.5209 9.45051 18.7417C8.37801 17.9534 7.34217 17.0734 6.36134 16.1109C5.38967 15.13 4.50967 14.0942 3.73051 13.0309C2.94217 11.9309 2.30967 10.8309 1.86051 9.76754C1.38384 8.63087 1.14551 7.53087 1.14551 6.49504C1.14551 5.78004 1.27384 5.10171 1.52134 4.46921C1.77801 3.81837 2.19051 3.21337 2.74967 2.69087C3.45551 1.99421 4.26217 1.64587 5.12384 1.64587C5.48134 1.64587 5.84801 1.72837 6.15967 1.87504C6.51717 2.04004 6.81967 2.28754 7.03967 2.61754L9.16634 5.61504C9.35884 5.88087 9.50551 6.13754 9.60634 6.39421C9.72551 6.66921 9.78967 6.94421 9.78967 7.21004C9.78967 7.55837 9.68884 7.89754 9.49634 8.21837C9.35884 8.46587 9.14801 8.73171 8.88217 8.99754L8.25884 9.64837C8.26801 9.67587 8.27717 9.69421 8.28634 9.71254C8.39634 9.90504 8.61634 10.235 9.03801 10.73C9.48717 11.2434 9.90884 11.7109 10.3305 12.1417C10.8713 12.6734 11.3205 13.095 11.7422 13.4434C12.2647 13.8834 12.6038 14.1034 12.8055 14.2042L12.7872 14.25L13.4563 13.59C13.7405 13.3059 14.0155 13.095 14.2813 12.9575C14.7855 12.6459 15.4272 12.5909 16.0688 12.8567C16.3072 12.9575 16.5638 13.095 16.8388 13.2875L19.8822 15.4509C20.2213 15.68 20.4688 15.9734 20.6155 16.3217C20.753 16.67 20.8172 16.9909 20.8172 17.3117C20.8172 17.7517 20.7163 18.1917 20.5238 18.6042C20.3313 19.0167 20.093 19.3742 19.7905 19.7042C19.268 20.2817 18.6997 20.6942 18.0397 20.96C17.4072 21.2167 16.7197 21.3542 15.9955 21.3542ZM5.12384 3.02087C4.61967 3.02087 4.15217 3.24087 3.70301 3.68087C3.28134 4.07504 2.98801 4.50587 2.80467 4.97337C2.61217 5.45004 2.52051 5.95421 2.52051 6.49504C2.52051 7.34754 2.72217 8.27337 3.12551 9.22671C3.53801 10.1984 4.11551 11.2067 4.84884 12.215C5.58217 13.2234 6.41634 14.2042 7.33301 15.13C8.24967 16.0375 9.23967 16.8809 10.2572 17.6234C11.2472 18.3475 12.2647 18.9342 13.273 19.3559C14.8405 20.025 16.3072 20.1809 17.5172 19.6767C17.9847 19.4842 18.3972 19.1909 18.773 18.7692C18.9838 18.54 19.1488 18.2925 19.2863 17.9992C19.3963 17.77 19.4513 17.5317 19.4513 17.2934C19.4513 17.1467 19.4238 17 19.3505 16.835C19.323 16.78 19.268 16.6792 19.0938 16.56L16.0505 14.3967C15.8672 14.2684 15.7022 14.1767 15.5463 14.1125C15.3447 14.03 15.2622 13.9475 14.9505 14.14C14.7672 14.2317 14.6022 14.3692 14.4188 14.5525L13.7222 15.24C13.3647 15.5884 12.8147 15.6709 12.393 15.515L12.1455 15.405C11.7697 15.2034 11.3297 14.8917 10.8438 14.4792C10.4038 14.1034 9.92717 13.6634 9.34967 13.095C8.90051 12.6367 8.45134 12.1509 7.98384 11.61C7.55301 11.1059 7.24134 10.675 7.04884 10.3175L6.93884 10.0425C6.88384 9.83171 6.86551 9.71254 6.86551 9.58421C6.86551 9.25421 6.98467 8.96087 7.21384 8.73171L7.90134 8.01671C8.08467 7.83337 8.22217 7.65921 8.31384 7.50337C8.38717 7.38421 8.41467 7.28337 8.41467 7.19171C8.41467 7.11837 8.38717 7.00837 8.34134 6.89837C8.27717 6.75171 8.17634 6.58671 8.04801 6.41254L5.92134 3.40587C5.82967 3.27754 5.71967 3.18587 5.58217 3.12171C5.43551 3.05754 5.27967 3.02087 5.12384 3.02087ZM12.7872 14.2592L12.6405 14.8825L12.888 14.2409C12.8422 14.2317 12.8055 14.2409 12.7872 14.2592Z" fill="#DC1E7A"/>
<path d="M16.9583 9.43746C16.5825 9.43746 16.2708 9.12579 16.2708 8.74996C16.2708 8.41996 15.9408 7.73246 15.3908 7.14579C14.85 6.56829 14.2542 6.22913 13.75 6.22913C13.3742 6.22913 13.0625 5.91746 13.0625 5.54163C13.0625 5.16579 13.3742 4.85413 13.75 4.85413C14.6392 4.85413 15.5742 5.33079 16.39 6.20163C17.1508 7.01746 17.6458 8.01663 17.6458 8.74996C17.6458 9.12579 17.3342 9.43746 16.9583 9.43746Z" fill="#5DD9C1"/>
<path d="M20.1667 9.43754C19.7908 9.43754 19.4792 9.12587 19.4792 8.75004C19.4792 5.58754 16.9125 3.02087 13.75 3.02087C13.3742 3.02087 13.0625 2.70921 13.0625 2.33337C13.0625 1.95754 13.3742 1.64587 13.75 1.64587C17.6642 1.64587 20.8542 4.83587 20.8542 8.75004C20.8542 9.12587 20.5425 9.43754 20.1667 9.43754Z" fill="#5DD9C1"/>
</svg>
