<svg width="22" height="23" viewBox="0 0 22 23" fill="none" xmlns="http://www.w3.org/2000/svg">
<path d="M13.7497 21.3542H8.24967C3.27217 21.3542 1.14551 19.2275 1.14551 14.25V8.75004C1.14551 3.77254 3.27217 1.64587 8.24967 1.64587H13.7497C18.7272 1.64587 20.8538 3.77254 20.8538 8.75004V14.25C20.8538 19.2275 18.7272 21.3542 13.7497 21.3542ZM8.24967 3.02087C4.02384 3.02087 2.52051 4.52421 2.52051 8.75004V14.25C2.52051 18.4759 4.02384 19.9792 8.24967 19.9792H13.7497C17.9755 19.9792 19.4788 18.4759 19.4788 14.25V8.75004C19.4788 4.52421 17.9755 3.02087 13.7497 3.02087H8.24967Z" fill="#DC1E7A"/>
<path d="M11.0003 15.3958C8.85533 15.3958 7.10449 13.645 7.10449 11.5C7.10449 9.35496 8.85533 7.60413 11.0003 7.60413C13.1453 7.60413 14.8962 9.35496 14.8962 11.5C14.8962 13.645 13.1453 15.3958 11.0003 15.3958ZM11.0003 8.97913C9.60699 8.97913 8.47949 10.1066 8.47949 11.5C8.47949 12.8933 9.60699 14.0208 11.0003 14.0208C12.3937 14.0208 13.5212 12.8933 13.5212 11.5C13.5212 10.1066 12.3937 8.97913 11.0003 8.97913Z" fill="#5DD9C1"/>
<path d="M15.5837 7.37503C15.4645 7.37503 15.3453 7.34753 15.2353 7.3017C15.1253 7.25587 15.0245 7.1917 14.9328 7.1092C14.8503 7.01753 14.777 6.9167 14.7312 6.8067C14.6853 6.6967 14.667 6.57753 14.667 6.45837C14.667 6.3392 14.6853 6.22003 14.7312 6.11003C14.7862 5.99087 14.8503 5.8992 14.9328 5.80753C14.9787 5.77087 15.0245 5.72503 15.0703 5.69753C15.1253 5.66087 15.1803 5.63337 15.2353 5.61503C15.2903 5.58753 15.3453 5.5692 15.4095 5.56003C15.7028 5.49587 16.0145 5.5967 16.2345 5.80753C16.317 5.8992 16.3812 5.99087 16.427 6.11003C16.4728 6.22003 16.5003 6.3392 16.5003 6.45837C16.5003 6.57753 16.4728 6.6967 16.427 6.8067C16.3812 6.9167 16.317 7.01753 16.2345 7.1092C16.1428 7.1917 16.042 7.25587 15.932 7.3017C15.822 7.34753 15.7028 7.37503 15.5837 7.37503Z" fill="#5DD9C1"/>
</svg>
