<svg width="22" height="23" viewBox="0 0 22 23" fill="none" xmlns="http://www.w3.org/2000/svg">
<path d="M10.9996 13.4892C9.04715 13.4892 7.45215 11.9033 7.45215 9.94165C7.45215 7.97999 9.04715 6.40332 10.9996 6.40332C12.9521 6.40332 14.5471 7.98915 14.5471 9.95082C14.5471 11.9125 12.9521 13.4892 10.9996 13.4892ZM10.9996 7.77832C9.80798 7.77832 8.82715 8.74999 8.82715 9.95082C8.82715 11.1517 9.79882 12.1233 10.9996 12.1233C12.2005 12.1233 13.1721 11.1517 13.1721 9.95082C13.1721 8.74999 12.1913 7.77832 10.9996 7.77832Z" fill="#5DD9C1"/>
<path d="M10.9996 21.3634C9.64288 21.3634 8.27705 20.85 7.21372 19.8325C4.50955 17.2292 1.52122 13.0767 2.64872 8.13587C3.66622 3.65337 7.58038 1.64587 10.9996 1.64587C10.9996 1.64587 10.9996 1.64587 11.0087 1.64587C14.4279 1.64587 18.3421 3.65337 19.3596 8.14504C20.4779 13.0859 17.4896 17.2292 14.7854 19.8325C13.7221 20.85 12.3562 21.3634 10.9996 21.3634ZM10.9996 3.02087C8.33205 3.02087 4.90372 4.44171 3.99622 8.43837C3.00622 12.7559 5.71955 16.4775 8.17622 18.8334C9.76205 20.3642 12.2462 20.3642 13.8321 18.8334C16.2796 16.4775 18.9929 12.7559 18.0212 8.43837C17.1046 4.44171 13.6671 3.02087 10.9996 3.02087Z" fill="#DC1E7A"/>
</svg>
