<svg width="22" height="23" viewBox="0 0 22 23" fill="none" xmlns="http://www.w3.org/2000/svg">
<path d="M11.0003 21.3542C6.19699 21.3542 2.29199 17.4492 2.29199 12.6458C2.29199 7.8425 6.19699 3.9375 11.0003 3.9375C15.8037 3.9375 19.7087 7.8425 19.7087 12.6458C19.7087 17.4492 15.8037 21.3542 11.0003 21.3542ZM11.0003 5.3125C6.95783 5.3125 3.66699 8.60333 3.66699 12.6458C3.66699 16.6883 6.95783 19.9792 11.0003 19.9792C15.0428 19.9792 18.3337 16.6883 18.3337 12.6458C18.3337 8.60333 15.0428 5.3125 11.0003 5.3125Z" fill="#DC1E7A"/>
<path d="M11 13.1042C10.6242 13.1042 10.3125 12.7925 10.3125 12.4167V7.83337C10.3125 7.45754 10.6242 7.14587 11 7.14587C11.3758 7.14587 11.6875 7.45754 11.6875 7.83337V12.4167C11.6875 12.7925 11.3758 13.1042 11 13.1042Z" fill="#5DD9C1"/>
<path d="M13.75 3.02087H8.25C7.87417 3.02087 7.5625 2.70921 7.5625 2.33337C7.5625 1.95754 7.87417 1.64587 8.25 1.64587H13.75C14.1258 1.64587 14.4375 1.95754 14.4375 2.33337C14.4375 2.70921 14.1258 3.02087 13.75 3.02087Z" fill="#5DD9C1"/>
</svg>
