<svg width="24" height="24" viewBox="0 0 24 24" fill="none" xmlns="http://www.w3.org/2000/svg">
<path d="M22.75 9L22.75 15C22.75 20.43 20.43 22.75 15 22.75L9 22.75C3.57 22.75 1.25 20.43 1.25 15L1.25 9C1.25 3.57 3.57 1.25 9 1.25L15 1.25C20.43 1.25 22.75 3.57 22.75 9ZM2.75 15C2.75 19.61 4.39 21.25 9 21.25L15 21.25C19.61 21.25 21.25 19.61 21.25 15L21.25 9C21.25 4.39 19.61 2.75 15 2.75L9 2.75C4.39 2.75 2.75 4.39 2.75 9L2.75 15Z" fill="#4BB09C"/>
<path d="M14.2101 8.46984C14.2101 8.65984 14.1401 8.84984 13.9901 8.99984L10.9901 11.9998L13.9901 14.9998C14.2801 15.2898 14.2801 15.7698 13.9901 16.0598C13.7001 16.3498 13.2201 16.3498 12.9301 16.0598L9.40012 12.5298C9.11012 12.2398 9.11012 11.7598 9.40012 11.4698L12.9301 7.93984C13.2201 7.64984 13.7001 7.64984 13.9901 7.93984C14.1401 8.08984 14.2101 8.27984 14.2101 8.46984Z" fill="#4BB09C"/>
</svg>
