<svg width="24" height="24" viewBox="0 0 24 24" fill="none" xmlns="http://www.w3.org/2000/svg">
<path d="M1.25 9L1.25 15C1.25 20.43 3.57 22.75 9 22.75L15 22.75C20.43 22.75 22.75 20.43 22.75 15L22.75 9C22.75 3.57 20.43 1.25 15 1.25L9 1.25C3.57 1.25 1.25 3.57 1.25 9ZM21.25 15C21.25 19.61 19.61 21.25 15 21.25L9 21.25C4.39 21.25 2.75 19.61 2.75 15L2.75 9C2.75 4.39 4.39 2.75 9 2.75L15 2.75C19.61 2.75 21.25 4.39 21.25 9L21.25 15Z" fill="#4BB09C"/>
<path d="M9.78988 8.46984C9.78988 8.65984 9.85988 8.84984 10.0099 8.99984L13.0099 11.9998L10.0099 14.9998C9.71988 15.2898 9.71988 15.7698 10.0099 16.0598C10.2999 16.3498 10.7799 16.3498 11.0699 16.0598L14.5999 12.5298C14.8899 12.2398 14.8899 11.7598 14.5999 11.4698L11.0699 7.93984C10.7799 7.64984 10.2999 7.64984 10.0099 7.93984C9.85988 8.08984 9.78988 8.27984 9.78988 8.46984Z" fill="#4BB09C"/>
</svg>
