<svg width="24" height="24" viewBox="0 0 24 24" fill="none" xmlns="http://www.w3.org/2000/svg">
<path d="M15.0899 20.67C15.2799 20.67 15.4699 20.6 15.6199 20.45C15.9099 20.16 15.9099 19.68 15.6199 19.39L9.0999 12.87C8.6199 12.39 8.6199 11.61 9.0999 11.13L15.6199 4.61002C15.9099 4.32002 15.9099 3.84002 15.6199 3.55002C15.3299 3.26002 14.8499 3.26002 14.5599 3.55002L8.0399 10.07C7.5299 10.58 7.2399 11.27 7.2399 12C7.2399 12.73 7.5199 13.42 8.0399 13.93L14.5599 20.45C14.7099 20.59 14.8999 20.67 15.0899 20.67Z" fill="#393939"/>
</svg>
