<svg width="1440" height="409" viewBox="0 0 1440 409" fill="none" xmlns="http://www.w3.org/2000/svg">
<g clip-path="url(#clip0_1567_18325)">
<rect width="1440" height="409" fill="#FFF4F9"/>
<g opacity="0.24">
<path d="M-54.3359 288.784L-54.3361 288.783C-67.7401 270.895 -73.7139 248.406 -76.1492 226.109L-76.6462 226.163L-76.1492 226.109C-85.0197 145.077 -49.4168 62.9891 7.66099 4.70308C64.7384 -53.5826 141.287 -89.8976 220.319 -110.363L220.194 -110.847L220.319 -110.363C299.345 -130.829 381.399 -136.427 462.98 -140.707L462.954 -141.207L462.98 -140.707C481.06 -141.658 499.341 -142.511 516.902 -138.489C534.458 -134.469 551.453 -124.887 560.441 -109.386L560.874 -109.637L560.441 -109.386C563.619 -103.91 566.317 -95.809 566.587 -88.1118C566.856 -80.4089 564.697 -73.2403 558.326 -69.4051C553.162 -66.2992 545.848 -65.0973 538.242 -64.2701C536.552 -64.0862 534.847 -63.921 533.15 -63.7566C527.268 -63.1864 521.493 -62.6266 516.811 -61.3388C482.492 -51.9171 450.58 -33.8962 424.671 -9.52092C410.108 4.18054 397.427 19.9181 387.352 37.2115C379.349 50.9512 372.937 65.4866 366.747 80.1147C365.765 82.4361 364.788 84.7597 363.812 87.0828C358.632 99.4067 353.458 111.718 347.467 123.629C333.227 151.94 312.917 179.04 283.782 191.172C259.514 201.282 232.324 199.88 205.185 198.48C203.356 198.385 201.527 198.291 199.7 198.2C170.811 196.765 142.21 196.216 117.857 210.774C106.273 217.698 97.0111 227.331 88.7269 237.961C83.2164 245.032 78.1204 252.569 73.0625 260.05C70.5261 263.801 67.9992 267.539 65.4344 271.196C50.041 293.147 29.5461 314.698 3.07735 317.165C-19.0869 319.235 -40.9417 306.682 -54.3359 288.784Z" fill="url(#paint0_linear_1567_18325)" stroke="#8F8F8F"/>
<path d="M370.784 29.4632C354.814 56.8832 345.174 87.5032 330.914 115.853C316.654 144.203 296.274 171.433 266.974 183.633C214.914 205.323 149.524 174.263 101.114 203.203C78.0937 216.963 64.2437 241.523 48.8438 263.483C33.4438 285.443 12.8338 307.173 -13.8762 309.663C-36.2562 311.753 -58.2663 299.083 -71.7362 281.083C-85.2162 263.093 -91.2062 240.503 -93.6462 218.163C-102.536 136.953 -66.8563 54.7232 -9.69625 -3.64676C47.4637 -62.0168 124.104 -98.3668 203.194 -118.847C282.274 -139.327 364.374 -144.927 445.954 -149.207C464.024 -150.157 482.374 -151.017 500.014 -146.977C517.654 -142.937 534.794 -133.297 543.874 -117.637C550.304 -106.557 554.774 -84.9168 541.584 -76.9768C531.044 -70.6367 511.904 -72.1468 499.944 -68.8568C465.704 -59.4567 433.864 -41.4768 408.014 -17.1568C393.484 -3.48676 380.834 12.2132 370.784 29.4632Z" fill="url(#paint1_linear_1567_18325)"/>
<path d="M-75.6322 243.233L-75.6324 243.233C-88.5955 225.022 -94.0183 202.394 -95.9084 180.044L-96.4066 180.086L-95.9084 180.044C-102.797 98.82 -65.2002 17.626 -6.71593 -39.2486C51.7679 -96.1229 129.18 -130.558 208.689 -149.087L208.575 -149.573L208.689 -149.087C288.191 -167.616 370.357 -171.209 452.018 -173.496L452.004 -173.996L452.019 -173.496C470.116 -174.005 488.413 -174.411 505.87 -169.962C523.323 -165.513 540.079 -155.52 548.686 -139.804L549.124 -140.044L548.686 -139.803C551.729 -134.251 554.228 -126.087 554.31 -118.386C554.391 -110.678 552.057 -103.565 545.595 -99.8863C540.357 -96.9074 533.016 -95.8844 525.391 -95.2432C523.697 -95.1007 521.988 -94.9772 520.289 -94.8542C514.394 -94.4279 508.607 -94.0094 503.895 -92.8363C469.356 -84.2555 437.013 -67.0193 410.517 -43.2841C395.623 -29.9424 382.562 -14.5192 372.068 2.52301C363.732 16.0632 356.966 30.4376 350.421 44.9101C349.383 47.2069 348.35 49.506 347.317 51.8045C341.838 63.9982 336.365 76.1792 330.084 87.9402C315.157 115.895 294.191 142.492 264.768 153.908C240.261 163.423 213.114 161.357 186.016 159.294C184.19 159.155 182.365 159.016 180.54 158.881C151.694 156.74 123.116 155.493 98.4147 169.452C86.6648 176.092 77.1704 185.495 68.6291 195.919C62.9475 202.853 57.669 210.264 52.43 217.619C49.8026 221.308 47.1852 224.982 44.5319 228.576C28.607 250.144 7.59185 271.188 -18.9292 273.009C-41.1374 274.536 -62.6792 261.454 -75.6322 243.233Z" fill="url(#paint2_linear_1567_18325)" stroke="#8F8F8F"/>
</g>
<path d="M108 102.5H95H108ZM101.5 109V96V109Z" fill="url(#paint3_linear_1567_18325)"/>
<path d="M101.5 109V96M108 102.5H95H108Z" stroke="#393939" stroke-opacity="0.1" stroke-miterlimit="10"/>
<path d="M108 70.5H95H108ZM101.5 77V64V77Z" fill="url(#paint4_linear_1567_18325)"/>
<path d="M101.5 77V64M108 70.5H95H108Z" stroke="#393939" stroke-opacity="0.1" stroke-miterlimit="10"/>
<path d="M108 39.5H95H108ZM101.5 46V33V46Z" fill="url(#paint5_linear_1567_18325)"/>
<path d="M101.5 46V33M108 39.5H95H108Z" stroke="#393939" stroke-opacity="0.1" stroke-miterlimit="10"/>
<path d="M108 102.5H95H108ZM101.5 109V96V109Z" fill="url(#paint6_linear_1567_18325)"/>
<path d="M101.5 109V96M108 102.5H95H108Z" stroke="#393939" stroke-opacity="0.1" stroke-width="2" stroke-miterlimit="10"/>
<path d="M108 70.5H95H108ZM101.5 77V64V77Z" fill="url(#paint7_linear_1567_18325)"/>
<path d="M101.5 77V64M108 70.5H95H108Z" stroke="#393939" stroke-opacity="0.1" stroke-width="2" stroke-miterlimit="10"/>
<path d="M108 39.5H95H108ZM101.5 46V33V46Z" fill="url(#paint8_linear_1567_18325)"/>
<path d="M101.5 46V33M108 39.5H95H108Z" stroke="#393939" stroke-opacity="0.1" stroke-width="2" stroke-miterlimit="10"/>
<path d="M138 102.5H125H138ZM131.5 109V96V109Z" fill="url(#paint9_linear_1567_18325)"/>
<path d="M131.5 109V96M138 102.5H125H138Z" stroke="#393939" stroke-opacity="0.1" stroke-miterlimit="10"/>
<path d="M138 70.5H125H138ZM131.5 77V64V77Z" fill="url(#paint10_linear_1567_18325)"/>
<path d="M131.5 77V64M138 70.5H125H138Z" stroke="#393939" stroke-opacity="0.1" stroke-miterlimit="10"/>
<path d="M138 39.5H125H138ZM131.5 46V33V46Z" fill="url(#paint11_linear_1567_18325)"/>
<path d="M131.5 46V33M138 39.5H125H138Z" stroke="#393939" stroke-opacity="0.1" stroke-miterlimit="10"/>
<path d="M138 102.5H125H138ZM131.5 109V96V109Z" fill="url(#paint12_linear_1567_18325)"/>
<path d="M131.5 109V96M138 102.5H125H138Z" stroke="#393939" stroke-opacity="0.1" stroke-width="2" stroke-miterlimit="10"/>
<path d="M138 70.5H125H138ZM131.5 77V64V77Z" fill="url(#paint13_linear_1567_18325)"/>
<path d="M131.5 77V64M138 70.5H125H138Z" stroke="#393939" stroke-opacity="0.1" stroke-width="2" stroke-miterlimit="10"/>
<path d="M138 39.5H125H138ZM131.5 46V33V46Z" fill="url(#paint14_linear_1567_18325)"/>
<path d="M131.5 46V33M138 39.5H125H138Z" stroke="#393939" stroke-opacity="0.1" stroke-width="2" stroke-miterlimit="10"/>
<path d="M168 70.5H155H168ZM161.5 77V64V77Z" fill="url(#paint15_linear_1567_18325)"/>
<path d="M161.5 77V64M168 70.5H155H168Z" stroke="#393939" stroke-opacity="0.1" stroke-miterlimit="10"/>
<path d="M168 39.5H155H168ZM161.5 46V33V46Z" fill="url(#paint16_linear_1567_18325)"/>
<path d="M161.5 46V33M168 39.5H155H168Z" stroke="#393939" stroke-opacity="0.1" stroke-miterlimit="10"/>
<path d="M168 70.5H155H168ZM161.5 77V64V77Z" fill="url(#paint17_linear_1567_18325)"/>
<path d="M161.5 77V64M168 70.5H155H168Z" stroke="#393939" stroke-opacity="0.1" stroke-width="2" stroke-miterlimit="10"/>
<path d="M168 39.5H155H168ZM161.5 46V33V46Z" fill="url(#paint18_linear_1567_18325)"/>
<path d="M161.5 46V33M168 39.5H155H168Z" stroke="#393939" stroke-opacity="0.1" stroke-width="2" stroke-miterlimit="10"/>
<path d="M198 70.5H185H198ZM191.5 77V64V77Z" fill="url(#paint19_linear_1567_18325)"/>
<path d="M191.5 77V64M198 70.5H185H198Z" stroke="#393939" stroke-opacity="0.1" stroke-miterlimit="10"/>
<path d="M198 39.5H185H198ZM191.5 46V33V46Z" fill="url(#paint20_linear_1567_18325)"/>
<path d="M191.5 46V33M198 39.5H185H198Z" stroke="#393939" stroke-opacity="0.1" stroke-miterlimit="10"/>
<path d="M198 70.5H185H198ZM191.5 77V64V77Z" fill="url(#paint21_linear_1567_18325)"/>
<path d="M191.5 77V64M198 70.5H185H198Z" stroke="#393939" stroke-opacity="0.1" stroke-width="2" stroke-miterlimit="10"/>
<path d="M198 39.5H185H198ZM191.5 46V33V46Z" fill="url(#paint22_linear_1567_18325)"/>
<path d="M191.5 46V33M198 39.5H185H198Z" stroke="#393939" stroke-opacity="0.1" stroke-width="2" stroke-miterlimit="10"/>
<path d="M228 70.5H215H228ZM221.5 77V64V77Z" fill="url(#paint23_linear_1567_18325)"/>
<path d="M221.5 77V64M228 70.5H215H228Z" stroke="#393939" stroke-opacity="0.1" stroke-miterlimit="10"/>
<path d="M228 39.5H215H228ZM221.5 46V33V46Z" fill="url(#paint24_linear_1567_18325)"/>
<path d="M221.5 46V33M228 39.5H215H228Z" stroke="#393939" stroke-opacity="0.1" stroke-miterlimit="10"/>
<path d="M228 70.5H215H228ZM221.5 77V64V77Z" fill="url(#paint25_linear_1567_18325)"/>
<path d="M221.5 77V64M228 70.5H215H228Z" stroke="#393939" stroke-opacity="0.1" stroke-width="2" stroke-miterlimit="10"/>
<path d="M228 39.5H215H228ZM221.5 46V33V46Z" fill="url(#paint26_linear_1567_18325)"/>
<path d="M221.5 46V33M228 39.5H215H228Z" stroke="#393939" stroke-opacity="0.1" stroke-width="2" stroke-miterlimit="10"/>
<g opacity="0.52">
<path d="M18 361.5H5H18ZM11.5 368V355V368Z" fill="url(#paint27_linear_1567_18325)"/>
<path d="M11.5 368V355M18 361.5H5H18Z" stroke="#393939" stroke-opacity="0.1" stroke-miterlimit="10"/>
<path d="M18 329.5H5H18ZM11.5 336V323V336Z" fill="url(#paint28_linear_1567_18325)"/>
<path d="M11.5 336V323M18 329.5H5H18Z" stroke="#393939" stroke-opacity="0.1" stroke-miterlimit="10"/>
<path d="M18 298.5H5H18ZM11.5 305V292V305Z" fill="url(#paint29_linear_1567_18325)"/>
<path d="M11.5 305V292M18 298.5H5H18Z" stroke="#393939" stroke-opacity="0.1" stroke-miterlimit="10"/>
<path d="M18 361.5H5H18ZM11.5 368V355V368Z" fill="url(#paint30_linear_1567_18325)"/>
<path d="M11.5 368V355M18 361.5H5H18Z" stroke="#393939" stroke-opacity="0.1" stroke-width="2" stroke-miterlimit="10"/>
<path d="M18 329.5H5H18ZM11.5 336V323V336Z" fill="url(#paint31_linear_1567_18325)"/>
<path d="M11.5 336V323M18 329.5H5H18Z" stroke="#393939" stroke-opacity="0.1" stroke-width="2" stroke-miterlimit="10"/>
<path d="M18 298.5H5H18ZM11.5 305V292V305Z" fill="url(#paint32_linear_1567_18325)"/>
<path d="M11.5 305V292M18 298.5H5H18Z" stroke="#393939" stroke-opacity="0.1" stroke-width="2" stroke-miterlimit="10"/>
<path d="M48 329.5H35H48ZM41.5 336V323V336Z" fill="url(#paint33_linear_1567_18325)"/>
<path d="M41.5 336V323M48 329.5H35H48Z" stroke="#393939" stroke-opacity="0.1" stroke-miterlimit="10"/>
<path d="M48 298.5H35H48ZM41.5 305V292V305Z" fill="url(#paint34_linear_1567_18325)"/>
<path d="M41.5 305V292M48 298.5H35H48Z" stroke="#393939" stroke-opacity="0.1" stroke-miterlimit="10"/>
<path d="M48 329.5H35H48ZM41.5 336V323V336Z" fill="url(#paint35_linear_1567_18325)"/>
<path d="M41.5 336V323M48 329.5H35H48Z" stroke="#393939" stroke-opacity="0.1" stroke-width="2" stroke-miterlimit="10"/>
<path d="M48 298.5H35H48ZM41.5 305V292V305Z" fill="url(#paint36_linear_1567_18325)"/>
<path d="M41.5 305V292M48 298.5H35H48Z" stroke="#393939" stroke-opacity="0.1" stroke-width="2" stroke-miterlimit="10"/>
<path d="M78 329.5H65H78ZM71.5 336V323V336Z" fill="url(#paint37_linear_1567_18325)"/>
<path d="M71.5 336V323M78 329.5H65H78Z" stroke="#393939" stroke-opacity="0.1" stroke-miterlimit="10"/>
<path d="M78 298.5H65H78ZM71.5 305V292V305Z" fill="url(#paint38_linear_1567_18325)"/>
<path d="M71.5 305V292M78 298.5H65H78Z" stroke="#393939" stroke-opacity="0.1" stroke-miterlimit="10"/>
<path d="M78 329.5H65H78ZM71.5 336V323V336Z" fill="url(#paint39_linear_1567_18325)"/>
<path d="M71.5 336V323M78 329.5H65H78Z" stroke="#393939" stroke-opacity="0.1" stroke-width="2" stroke-miterlimit="10"/>
<path d="M78 298.5H65H78ZM71.5 305V292V305Z" fill="url(#paint40_linear_1567_18325)"/>
<path d="M71.5 305V292M78 298.5H65H78Z" stroke="#393939" stroke-opacity="0.1" stroke-width="2" stroke-miterlimit="10"/>
<path d="M108 329.5H95H108ZM101.5 336V323V336Z" fill="url(#paint41_linear_1567_18325)"/>
<path d="M101.5 336V323M108 329.5H95H108Z" stroke="#393939" stroke-opacity="0.1" stroke-miterlimit="10"/>
<path d="M108 298.5H95H108ZM101.5 305V292V305Z" fill="url(#paint42_linear_1567_18325)"/>
<path d="M101.5 305V292M108 298.5H95H108Z" stroke="#393939" stroke-opacity="0.1" stroke-miterlimit="10"/>
<path d="M108 329.5H95H108ZM101.5 336V323V336Z" fill="url(#paint43_linear_1567_18325)"/>
<path d="M101.5 336V323M108 329.5H95H108Z" stroke="#393939" stroke-opacity="0.1" stroke-width="2" stroke-miterlimit="10"/>
<path d="M108 298.5H95H108ZM101.5 305V292V305Z" fill="url(#paint44_linear_1567_18325)"/>
<path d="M101.5 305V292M108 298.5H95H108Z" stroke="#393939" stroke-opacity="0.1" stroke-width="2" stroke-miterlimit="10"/>
</g>
</g>
<defs>
<linearGradient id="paint0_linear_1567_18325" x1="-78.0037" y1="87.9434" x2="567.106" y2="87.9434" gradientUnits="userSpaceOnUse">
<stop stop-color="#F5BCD7"/>
<stop offset="0.2294" stop-color="#F1A5CA"/>
<stop offset="0.711" stop-color="#F1A5CA"/>
<stop offset="1" stop-color="#B01862"/>
</linearGradient>
<linearGradient id="paint1_linear_1567_18325" x1="-95.0037" y1="79.9434" x2="550.106" y2="79.9434" gradientUnits="userSpaceOnUse">
<stop stop-color="#F5BCD7"/>
<stop offset="0.2294" stop-color="#F1A5CA"/>
<stop offset="0.711" stop-color="#F1A5CA"/>
<stop offset="1" stop-color="#B01862"/>
</linearGradient>
<linearGradient id="paint2_linear_1567_18325" x1="-94.388" y1="41.8748" x2="550.53" y2="57.6298" gradientUnits="userSpaceOnUse">
<stop stop-color="#F5BCD7"/>
<stop offset="0.2294" stop-color="#F1A5CA"/>
<stop offset="0.711" stop-color="#F1A5CA"/>
<stop offset="1" stop-color="#B01862"/>
</linearGradient>
<linearGradient id="paint3_linear_1567_18325" x1="94.9999" y1="102.5" x2="108" y2="102.5" gradientUnits="userSpaceOnUse">
<stop stop-color="#F5BCD7"/>
<stop offset="0.2294" stop-color="#F1A5CA"/>
<stop offset="0.711" stop-color="#F1A5CA"/>
<stop offset="1" stop-color="#B01862"/>
</linearGradient>
<linearGradient id="paint4_linear_1567_18325" x1="94.9999" y1="70.5" x2="108" y2="70.5" gradientUnits="userSpaceOnUse">
<stop stop-color="#F5BCD7"/>
<stop offset="0.2294" stop-color="#F1A5CA"/>
<stop offset="0.711" stop-color="#F1A5CA"/>
<stop offset="1" stop-color="#B01862"/>
</linearGradient>
<linearGradient id="paint5_linear_1567_18325" x1="94.9999" y1="39.5" x2="108" y2="39.5" gradientUnits="userSpaceOnUse">
<stop stop-color="#F5BCD7"/>
<stop offset="0.2294" stop-color="#F1A5CA"/>
<stop offset="0.711" stop-color="#F1A5CA"/>
<stop offset="1" stop-color="#B01862"/>
</linearGradient>
<linearGradient id="paint6_linear_1567_18325" x1="94.9999" y1="102.5" x2="108" y2="102.5" gradientUnits="userSpaceOnUse">
<stop stop-color="#F5BCD7"/>
<stop offset="0.2294" stop-color="#F1A5CA"/>
<stop offset="0.711" stop-color="#F1A5CA"/>
<stop offset="1" stop-color="#B01862"/>
</linearGradient>
<linearGradient id="paint7_linear_1567_18325" x1="94.9999" y1="70.5" x2="108" y2="70.5" gradientUnits="userSpaceOnUse">
<stop stop-color="#F5BCD7"/>
<stop offset="0.2294" stop-color="#F1A5CA"/>
<stop offset="0.711" stop-color="#F1A5CA"/>
<stop offset="1" stop-color="#B01862"/>
</linearGradient>
<linearGradient id="paint8_linear_1567_18325" x1="94.9999" y1="39.5" x2="108" y2="39.5" gradientUnits="userSpaceOnUse">
<stop stop-color="#F5BCD7"/>
<stop offset="0.2294" stop-color="#F1A5CA"/>
<stop offset="0.711" stop-color="#F1A5CA"/>
<stop offset="1" stop-color="#B01862"/>
</linearGradient>
<linearGradient id="paint9_linear_1567_18325" x1="125" y1="102.5" x2="138" y2="102.5" gradientUnits="userSpaceOnUse">
<stop stop-color="#F5BCD7"/>
<stop offset="0.2294" stop-color="#F1A5CA"/>
<stop offset="0.711" stop-color="#F1A5CA"/>
<stop offset="1" stop-color="#B01862"/>
</linearGradient>
<linearGradient id="paint10_linear_1567_18325" x1="125" y1="70.5" x2="138" y2="70.5" gradientUnits="userSpaceOnUse">
<stop stop-color="#F5BCD7"/>
<stop offset="0.2294" stop-color="#F1A5CA"/>
<stop offset="0.711" stop-color="#F1A5CA"/>
<stop offset="1" stop-color="#B01862"/>
</linearGradient>
<linearGradient id="paint11_linear_1567_18325" x1="125" y1="39.5" x2="138" y2="39.5" gradientUnits="userSpaceOnUse">
<stop stop-color="#F5BCD7"/>
<stop offset="0.2294" stop-color="#F1A5CA"/>
<stop offset="0.711" stop-color="#F1A5CA"/>
<stop offset="1" stop-color="#B01862"/>
</linearGradient>
<linearGradient id="paint12_linear_1567_18325" x1="125" y1="102.5" x2="138" y2="102.5" gradientUnits="userSpaceOnUse">
<stop stop-color="#F5BCD7"/>
<stop offset="0.2294" stop-color="#F1A5CA"/>
<stop offset="0.711" stop-color="#F1A5CA"/>
<stop offset="1" stop-color="#B01862"/>
</linearGradient>
<linearGradient id="paint13_linear_1567_18325" x1="125" y1="70.5" x2="138" y2="70.5" gradientUnits="userSpaceOnUse">
<stop stop-color="#F5BCD7"/>
<stop offset="0.2294" stop-color="#F1A5CA"/>
<stop offset="0.711" stop-color="#F1A5CA"/>
<stop offset="1" stop-color="#B01862"/>
</linearGradient>
<linearGradient id="paint14_linear_1567_18325" x1="125" y1="39.5" x2="138" y2="39.5" gradientUnits="userSpaceOnUse">
<stop stop-color="#F5BCD7"/>
<stop offset="0.2294" stop-color="#F1A5CA"/>
<stop offset="0.711" stop-color="#F1A5CA"/>
<stop offset="1" stop-color="#B01862"/>
</linearGradient>
<linearGradient id="paint15_linear_1567_18325" x1="155" y1="70.5" x2="168" y2="70.5" gradientUnits="userSpaceOnUse">
<stop stop-color="#F5BCD7"/>
<stop offset="0.2294" stop-color="#F1A5CA"/>
<stop offset="0.711" stop-color="#F1A5CA"/>
<stop offset="1" stop-color="#B01862"/>
</linearGradient>
<linearGradient id="paint16_linear_1567_18325" x1="155" y1="39.5" x2="168" y2="39.5" gradientUnits="userSpaceOnUse">
<stop stop-color="#F5BCD7"/>
<stop offset="0.2294" stop-color="#F1A5CA"/>
<stop offset="0.711" stop-color="#F1A5CA"/>
<stop offset="1" stop-color="#B01862"/>
</linearGradient>
<linearGradient id="paint17_linear_1567_18325" x1="155" y1="70.5" x2="168" y2="70.5" gradientUnits="userSpaceOnUse">
<stop stop-color="#F5BCD7"/>
<stop offset="0.2294" stop-color="#F1A5CA"/>
<stop offset="0.711" stop-color="#F1A5CA"/>
<stop offset="1" stop-color="#B01862"/>
</linearGradient>
<linearGradient id="paint18_linear_1567_18325" x1="155" y1="39.5" x2="168" y2="39.5" gradientUnits="userSpaceOnUse">
<stop stop-color="#F5BCD7"/>
<stop offset="0.2294" stop-color="#F1A5CA"/>
<stop offset="0.711" stop-color="#F1A5CA"/>
<stop offset="1" stop-color="#B01862"/>
</linearGradient>
<linearGradient id="paint19_linear_1567_18325" x1="185" y1="70.5" x2="198" y2="70.5" gradientUnits="userSpaceOnUse">
<stop stop-color="#F5BCD7"/>
<stop offset="0.2294" stop-color="#F1A5CA"/>
<stop offset="0.711" stop-color="#F1A5CA"/>
<stop offset="1" stop-color="#B01862"/>
</linearGradient>
<linearGradient id="paint20_linear_1567_18325" x1="185" y1="39.5" x2="198" y2="39.5" gradientUnits="userSpaceOnUse">
<stop stop-color="#F5BCD7"/>
<stop offset="0.2294" stop-color="#F1A5CA"/>
<stop offset="0.711" stop-color="#F1A5CA"/>
<stop offset="1" stop-color="#B01862"/>
</linearGradient>
<linearGradient id="paint21_linear_1567_18325" x1="185" y1="70.5" x2="198" y2="70.5" gradientUnits="userSpaceOnUse">
<stop stop-color="#F5BCD7"/>
<stop offset="0.2294" stop-color="#F1A5CA"/>
<stop offset="0.711" stop-color="#F1A5CA"/>
<stop offset="1" stop-color="#B01862"/>
</linearGradient>
<linearGradient id="paint22_linear_1567_18325" x1="185" y1="39.5" x2="198" y2="39.5" gradientUnits="userSpaceOnUse">
<stop stop-color="#F5BCD7"/>
<stop offset="0.2294" stop-color="#F1A5CA"/>
<stop offset="0.711" stop-color="#F1A5CA"/>
<stop offset="1" stop-color="#B01862"/>
</linearGradient>
<linearGradient id="paint23_linear_1567_18325" x1="215" y1="70.5" x2="228" y2="70.5" gradientUnits="userSpaceOnUse">
<stop stop-color="#F5BCD7"/>
<stop offset="0.2294" stop-color="#F1A5CA"/>
<stop offset="0.711" stop-color="#F1A5CA"/>
<stop offset="1" stop-color="#B01862"/>
</linearGradient>
<linearGradient id="paint24_linear_1567_18325" x1="215" y1="39.5" x2="228" y2="39.5" gradientUnits="userSpaceOnUse">
<stop stop-color="#F5BCD7"/>
<stop offset="0.2294" stop-color="#F1A5CA"/>
<stop offset="0.711" stop-color="#F1A5CA"/>
<stop offset="1" stop-color="#B01862"/>
</linearGradient>
<linearGradient id="paint25_linear_1567_18325" x1="215" y1="70.5" x2="228" y2="70.5" gradientUnits="userSpaceOnUse">
<stop stop-color="#F5BCD7"/>
<stop offset="0.2294" stop-color="#F1A5CA"/>
<stop offset="0.711" stop-color="#F1A5CA"/>
<stop offset="1" stop-color="#B01862"/>
</linearGradient>
<linearGradient id="paint26_linear_1567_18325" x1="215" y1="39.5" x2="228" y2="39.5" gradientUnits="userSpaceOnUse">
<stop stop-color="#F5BCD7"/>
<stop offset="0.2294" stop-color="#F1A5CA"/>
<stop offset="0.711" stop-color="#F1A5CA"/>
<stop offset="1" stop-color="#B01862"/>
</linearGradient>
<linearGradient id="paint27_linear_1567_18325" x1="4.99992" y1="361.5" x2="18" y2="361.5" gradientUnits="userSpaceOnUse">
<stop stop-color="#F5BCD7"/>
<stop offset="0.2294" stop-color="#F1A5CA"/>
<stop offset="0.711" stop-color="#F1A5CA"/>
<stop offset="1" stop-color="#B01862"/>
</linearGradient>
<linearGradient id="paint28_linear_1567_18325" x1="4.99992" y1="329.5" x2="18" y2="329.5" gradientUnits="userSpaceOnUse">
<stop stop-color="#F5BCD7"/>
<stop offset="0.2294" stop-color="#F1A5CA"/>
<stop offset="0.711" stop-color="#F1A5CA"/>
<stop offset="1" stop-color="#B01862"/>
</linearGradient>
<linearGradient id="paint29_linear_1567_18325" x1="4.99992" y1="298.5" x2="18" y2="298.5" gradientUnits="userSpaceOnUse">
<stop stop-color="#F5BCD7"/>
<stop offset="0.2294" stop-color="#F1A5CA"/>
<stop offset="0.711" stop-color="#F1A5CA"/>
<stop offset="1" stop-color="#B01862"/>
</linearGradient>
<linearGradient id="paint30_linear_1567_18325" x1="4.99992" y1="361.5" x2="18" y2="361.5" gradientUnits="userSpaceOnUse">
<stop stop-color="#F5BCD7"/>
<stop offset="0.2294" stop-color="#F1A5CA"/>
<stop offset="0.711" stop-color="#F1A5CA"/>
<stop offset="1" stop-color="#B01862"/>
</linearGradient>
<linearGradient id="paint31_linear_1567_18325" x1="4.99992" y1="329.5" x2="18" y2="329.5" gradientUnits="userSpaceOnUse">
<stop stop-color="#F5BCD7"/>
<stop offset="0.2294" stop-color="#F1A5CA"/>
<stop offset="0.711" stop-color="#F1A5CA"/>
<stop offset="1" stop-color="#B01862"/>
</linearGradient>
<linearGradient id="paint32_linear_1567_18325" x1="4.99992" y1="298.5" x2="18" y2="298.5" gradientUnits="userSpaceOnUse">
<stop stop-color="#F5BCD7"/>
<stop offset="0.2294" stop-color="#F1A5CA"/>
<stop offset="0.711" stop-color="#F1A5CA"/>
<stop offset="1" stop-color="#B01862"/>
</linearGradient>
<linearGradient id="paint33_linear_1567_18325" x1="34.9999" y1="329.5" x2="48" y2="329.5" gradientUnits="userSpaceOnUse">
<stop stop-color="#F5BCD7"/>
<stop offset="0.2294" stop-color="#F1A5CA"/>
<stop offset="0.711" stop-color="#F1A5CA"/>
<stop offset="1" stop-color="#B01862"/>
</linearGradient>
<linearGradient id="paint34_linear_1567_18325" x1="34.9999" y1="298.5" x2="48" y2="298.5" gradientUnits="userSpaceOnUse">
<stop stop-color="#F5BCD7"/>
<stop offset="0.2294" stop-color="#F1A5CA"/>
<stop offset="0.711" stop-color="#F1A5CA"/>
<stop offset="1" stop-color="#B01862"/>
</linearGradient>
<linearGradient id="paint35_linear_1567_18325" x1="34.9999" y1="329.5" x2="48" y2="329.5" gradientUnits="userSpaceOnUse">
<stop stop-color="#F5BCD7"/>
<stop offset="0.2294" stop-color="#F1A5CA"/>
<stop offset="0.711" stop-color="#F1A5CA"/>
<stop offset="1" stop-color="#B01862"/>
</linearGradient>
<linearGradient id="paint36_linear_1567_18325" x1="34.9999" y1="298.5" x2="48" y2="298.5" gradientUnits="userSpaceOnUse">
<stop stop-color="#F5BCD7"/>
<stop offset="0.2294" stop-color="#F1A5CA"/>
<stop offset="0.711" stop-color="#F1A5CA"/>
<stop offset="1" stop-color="#B01862"/>
</linearGradient>
<linearGradient id="paint37_linear_1567_18325" x1="64.9999" y1="329.5" x2="78" y2="329.5" gradientUnits="userSpaceOnUse">
<stop stop-color="#F5BCD7"/>
<stop offset="0.2294" stop-color="#F1A5CA"/>
<stop offset="0.711" stop-color="#F1A5CA"/>
<stop offset="1" stop-color="#B01862"/>
</linearGradient>
<linearGradient id="paint38_linear_1567_18325" x1="64.9999" y1="298.5" x2="78" y2="298.5" gradientUnits="userSpaceOnUse">
<stop stop-color="#F5BCD7"/>
<stop offset="0.2294" stop-color="#F1A5CA"/>
<stop offset="0.711" stop-color="#F1A5CA"/>
<stop offset="1" stop-color="#B01862"/>
</linearGradient>
<linearGradient id="paint39_linear_1567_18325" x1="64.9999" y1="329.5" x2="78" y2="329.5" gradientUnits="userSpaceOnUse">
<stop stop-color="#F5BCD7"/>
<stop offset="0.2294" stop-color="#F1A5CA"/>
<stop offset="0.711" stop-color="#F1A5CA"/>
<stop offset="1" stop-color="#B01862"/>
</linearGradient>
<linearGradient id="paint40_linear_1567_18325" x1="64.9999" y1="298.5" x2="78" y2="298.5" gradientUnits="userSpaceOnUse">
<stop stop-color="#F5BCD7"/>
<stop offset="0.2294" stop-color="#F1A5CA"/>
<stop offset="0.711" stop-color="#F1A5CA"/>
<stop offset="1" stop-color="#B01862"/>
</linearGradient>
<linearGradient id="paint41_linear_1567_18325" x1="94.9999" y1="329.5" x2="108" y2="329.5" gradientUnits="userSpaceOnUse">
<stop stop-color="#F5BCD7"/>
<stop offset="0.2294" stop-color="#F1A5CA"/>
<stop offset="0.711" stop-color="#F1A5CA"/>
<stop offset="1" stop-color="#B01862"/>
</linearGradient>
<linearGradient id="paint42_linear_1567_18325" x1="94.9999" y1="298.5" x2="108" y2="298.5" gradientUnits="userSpaceOnUse">
<stop stop-color="#F5BCD7"/>
<stop offset="0.2294" stop-color="#F1A5CA"/>
<stop offset="0.711" stop-color="#F1A5CA"/>
<stop offset="1" stop-color="#B01862"/>
</linearGradient>
<linearGradient id="paint43_linear_1567_18325" x1="94.9999" y1="329.5" x2="108" y2="329.5" gradientUnits="userSpaceOnUse">
<stop stop-color="#F5BCD7"/>
<stop offset="0.2294" stop-color="#F1A5CA"/>
<stop offset="0.711" stop-color="#F1A5CA"/>
<stop offset="1" stop-color="#B01862"/>
</linearGradient>
<linearGradient id="paint44_linear_1567_18325" x1="94.9999" y1="298.5" x2="108" y2="298.5" gradientUnits="userSpaceOnUse">
<stop stop-color="#F5BCD7"/>
<stop offset="0.2294" stop-color="#F1A5CA"/>
<stop offset="0.711" stop-color="#F1A5CA"/>
<stop offset="1" stop-color="#B01862"/>
</linearGradient>
<clipPath id="clip0_1567_18325">
<rect width="1440" height="409" fill="white"/>
</clipPath>
</defs>
</svg>
