<svg width="370" height="179" viewBox="0 0 370 179" fill="none" xmlns="http://www.w3.org/2000/svg">
<g filter="url(#filter0_d_1211_11741)">
<path d="M7 64C7 55.5992 7 51.3988 8.6349 48.1901C10.073 45.3677 12.3677 43.073 15.1901 41.6349C18.3988 40 22.5992 40 31 40H339C347.401 40 351.601 40 354.81 41.6349C357.632 43.073 359.927 45.3677 361.365 48.1901C363 51.3988 363 55.5992 363 64V148C363 156.401 363 160.601 361.365 163.81C359.927 166.632 357.632 168.927 354.81 170.365C351.601 172 347.401 172 339 172H7V64Z" fill="white" shape-rendering="crispEdges"/>
<path d="M132.111 89.202C130.983 89.202 130.011 88.974 129.195 88.518C128.379 88.074 127.755 87.468 127.323 86.7C126.903 85.932 126.693 85.068 126.693 84.108C126.693 83.388 126.813 82.62 127.053 81.804C127.293 80.988 127.575 80.256 127.899 79.608L129.303 80.256C128.631 81.648 128.295 82.86 128.295 83.892C128.295 84.984 128.625 85.812 129.285 86.376C129.945 86.94 130.887 87.222 132.111 87.222C133.035 87.222 133.821 87.054 134.469 86.718C135.117 86.394 135.597 85.968 135.909 85.44C136.233 84.924 136.395 84.378 136.395 83.802C136.395 83.274 136.275 82.596 136.035 81.768C135.807 80.94 135.573 80.238 135.333 79.662L136.845 78.888C137.577 80.604 137.943 82.242 137.943 83.802C137.943 84.726 137.709 85.602 137.241 86.43C136.773 87.258 136.095 87.924 135.207 88.428C134.331 88.944 133.299 89.202 132.111 89.202ZM141.669 84.396C140.301 84.396 139.131 84.084 138.159 83.46C137.199 82.836 136.425 81.804 135.837 80.364L137.115 79.536C137.427 80.328 137.763 80.928 138.123 81.336C138.495 81.744 138.957 82.032 139.509 82.2C140.061 82.356 140.799 82.434 141.723 82.434C142.683 82.434 143.541 82.308 144.297 82.056C145.053 81.804 145.635 81.48 146.043 81.084C146.463 80.676 146.673 80.256 146.673 79.824C146.673 79.452 146.511 79.134 146.187 78.87C145.875 78.594 145.449 78.456 144.909 78.456C143.817 78.456 142.779 78.93 141.795 79.878C140.811 80.826 139.977 81.918 139.293 83.154L138.069 82.344C138.525 81.408 139.101 80.502 139.797 79.626C140.493 78.738 141.267 78.006 142.119 77.43C142.983 76.842 143.865 76.548 144.765 76.548C145.449 76.548 146.061 76.71 146.601 77.034C147.153 77.346 147.567 77.778 147.843 78.33C148.131 78.882 148.245 79.488 148.185 80.148C148.101 81 147.765 81.75 147.177 82.398C146.601 83.034 145.833 83.526 144.873 83.874C143.925 84.222 142.857 84.396 141.669 84.396ZM145.395 82.38C146.835 82.14 148.077 82.02 149.121 82.02L149.229 83.01L149.121 84C147.849 84 146.871 83.97 146.187 83.91C145.503 83.838 144.975 83.67 144.603 83.406L145.395 82.38ZM164.767 82.02L164.875 83.01L164.767 84H164.659C163.159 84 162.079 83.97 161.419 83.91C160.759 83.838 160.243 83.67 159.871 83.406L160.627 82.56C162.355 82.2 163.705 82.02 164.677 82.02H164.767ZM148.909 82.02H149.179C149.767 82.02 150.247 81.894 150.619 81.642C150.991 81.378 151.285 80.97 151.501 80.418C151.729 79.866 151.909 79.122 152.041 78.186L153.535 78.492C153.475 78.864 153.445 79.266 153.445 79.698C153.445 80.694 153.703 81.396 154.219 81.804C154.747 82.212 155.605 82.416 156.793 82.416C157.885 82.416 158.857 82.29 159.709 82.038C160.561 81.786 161.221 81.456 161.689 81.048C162.169 80.64 162.409 80.214 162.409 79.77C162.409 79.386 162.247 79.068 161.923 78.816C161.611 78.552 161.179 78.42 160.627 78.42C159.655 78.42 158.665 78.846 157.657 79.698C156.661 80.538 155.743 81.732 154.903 83.28L153.679 82.47C154.615 80.622 155.683 79.176 156.883 78.132C158.095 77.076 159.295 76.548 160.483 76.548C161.131 76.548 161.719 76.686 162.247 76.962C162.775 77.238 163.183 77.622 163.471 78.114C163.771 78.594 163.921 79.14 163.921 79.752C163.921 80.676 163.621 81.486 163.021 82.182C162.421 82.878 161.587 83.418 160.519 83.802C159.463 84.186 158.269 84.378 156.937 84.378C154.501 84.378 153.013 83.628 152.473 82.128C152.149 82.74 151.729 83.208 151.213 83.532C150.697 83.844 150.013 84 149.161 84H148.909V82.02ZM178.395 82.02L178.503 83.01L178.395 84H178.215C176.967 83.988 175.977 83.736 175.245 83.244C174.513 82.752 174.015 82.02 173.751 81.048L174.831 80.166C174.951 80.694 175.287 81.138 175.839 81.498C176.403 81.846 177.117 82.02 177.981 82.02H178.395ZM164.571 82.02H166.119C167.595 82.02 168.975 81.846 170.259 81.498C171.543 81.15 172.851 80.622 174.183 79.914C174.555 79.71 174.945 79.524 175.353 79.356C175.761 79.176 176.097 79.05 176.361 78.978L176.415 80.04C175.755 80.028 175.119 79.938 174.507 79.77C173.907 79.59 173.247 79.32 172.527 78.96C171.411 78.372 170.469 78.078 169.701 78.078C169.209 78.078 168.765 78.222 168.369 78.51C167.973 78.798 167.679 79.128 167.487 79.5L166.335 78.69C166.743 77.874 167.235 77.256 167.811 76.836C168.387 76.416 169.029 76.206 169.737 76.206C170.253 76.206 170.739 76.296 171.195 76.476C171.663 76.644 172.317 76.944 173.157 77.376C173.937 77.772 174.561 78.066 175.029 78.258C175.497 78.45 176.019 78.606 176.595 78.726L176.667 80.472C176.439 80.532 176.151 80.652 175.803 80.832C175.455 81 175.077 81.198 174.669 81.426C173.025 82.302 171.549 82.95 170.241 83.37C168.945 83.79 167.511 84 165.939 84H164.571V82.02ZM168.297 73.362C168.765 72.87 169.233 72.402 169.701 71.958C170.169 72.402 170.637 72.87 171.105 73.362L169.701 74.766L168.297 73.362ZM178.212 82.02H178.968C180.228 82.02 181.116 81.906 181.632 81.678C182.148 81.438 182.406 81.066 182.406 80.562C182.394 80.226 182.268 79.68 182.028 78.924C181.788 78.168 181.59 77.634 181.434 77.322L182.928 76.512C183.168 76.992 183.402 77.634 183.63 78.438C183.87 79.242 183.99 79.944 183.99 80.544C183.99 81.684 183.594 82.548 182.802 83.136C182.01 83.712 180.822 84 179.238 84H178.212V82.02ZM179.058 73.776C179.634 73.2 179.922 72.912 179.922 72.912L181.236 74.208C180.804 74.652 180.366 75.09 179.922 75.522L178.626 74.208L179.058 73.776ZM182.226 73.776C182.802 73.2 183.09 72.912 183.09 72.912L184.404 74.208C183.972 74.652 183.534 75.09 183.09 75.522L181.794 74.208L182.226 73.776ZM190.83 87.456C192.798 87.036 194.244 86.478 195.168 85.782C196.092 85.098 196.554 84.234 196.554 83.19C196.542 82.506 196.446 81.822 196.266 81.138C196.086 80.454 195.822 79.884 195.474 79.428C195.138 78.96 194.748 78.702 194.304 78.654C194.04 78.618 193.782 78.708 193.53 78.924C193.29 79.128 193.092 79.398 192.936 79.734C192.792 80.07 192.72 80.394 192.72 80.706C192.72 80.958 192.768 81.156 192.864 81.3C193.056 81.576 193.386 81.786 193.854 81.93C194.334 82.062 194.874 82.128 195.474 82.128C195.966 82.128 196.464 82.08 196.968 81.984V83.838C196.428 83.982 195.828 84.054 195.168 84.054C194.352 84.054 193.614 83.922 192.954 83.658C192.294 83.382 191.826 82.962 191.55 82.398C191.346 81.966 191.244 81.492 191.244 80.976C191.244 80.328 191.382 79.68 191.658 79.032C191.946 78.384 192.324 77.85 192.792 77.43C193.272 77.01 193.788 76.8 194.34 76.8C195.048 76.8 195.678 77.112 196.23 77.736C196.794 78.348 197.226 79.14 197.526 80.112C197.838 81.072 197.994 82.038 197.994 83.01C197.994 84.57 197.412 85.89 196.248 86.97C195.096 88.05 193.488 88.794 191.424 89.202L190.83 87.456ZM210.799 74.91C211.003 77.07 211.177 78.714 211.321 79.842C211.381 80.454 211.465 80.91 211.573 81.21C211.681 81.51 211.843 81.72 212.059 81.84C212.275 81.96 212.593 82.02 213.013 82.02H213.283L213.391 83.01L213.283 84H213.013C212.017 84 211.255 83.7 210.727 83.1C210.199 82.488 209.857 81.486 209.701 80.094C209.641 79.458 209.515 78.402 209.323 76.926C209.287 76.554 209.221 75.996 209.125 75.252L210.799 74.91ZM210.655 82.74C209.935 82.98 209.209 83.1 208.477 83.1C207.457 83.1 206.623 82.866 205.975 82.398C205.339 81.93 205.021 81.288 205.021 80.472C205.021 79.476 205.441 78.636 206.281 77.952C207.121 77.256 208.249 76.662 209.665 76.17L210.025 77.97C209.125 78.198 208.333 78.516 207.649 78.924C206.977 79.332 206.623 79.722 206.587 80.094C206.551 80.406 206.695 80.67 207.019 80.886C207.355 81.09 207.799 81.192 208.351 81.192C208.939 81.192 209.569 81.072 210.241 80.832L210.655 82.74ZM213.087 82.02H214.023C214.959 82.02 215.631 81.906 216.039 81.678C216.447 81.45 216.651 81.096 216.651 80.616C216.651 80.292 216.525 79.74 216.273 78.96C216.033 78.168 215.841 77.622 215.697 77.322L217.191 76.512C217.419 76.98 217.653 77.634 217.893 78.474C218.133 79.302 218.253 80.016 218.253 80.616C218.253 81.732 217.887 82.578 217.155 83.154C216.435 83.718 215.391 84 214.023 84H213.087V82.02ZM213.033 86.988C213.501 86.496 213.969 86.028 214.437 85.584C214.905 86.028 215.373 86.496 215.841 86.988L214.437 88.392L213.033 86.988ZM224.975 84C224.207 84 223.601 83.73 223.157 83.19C222.725 82.638 222.359 81.858 222.059 80.85L223.265 80.112C223.433 80.82 223.643 81.318 223.895 81.606C224.159 81.882 224.519 82.02 224.975 82.02H225.101L225.209 83.01L225.101 84H224.975ZM218.099 87.51C218.879 87.222 219.581 86.862 220.205 86.43C220.841 85.998 221.339 85.548 221.699 85.08C222.071 84.624 222.257 84.198 222.257 83.802C222.257 83.298 221.939 81.81 221.303 79.338L222.887 78.726C223.163 79.578 223.385 80.478 223.553 81.426C223.733 82.362 223.823 83.154 223.823 83.802C223.823 84.906 223.361 85.944 222.437 86.916C221.525 87.9 220.337 88.662 218.873 89.202L218.099 87.51ZM238.723 82.02L238.831 83.01L238.723 84H238.543C237.295 83.988 236.305 83.736 235.573 83.244C234.841 82.752 234.343 82.02 234.079 81.048L235.159 80.166C235.279 80.694 235.615 81.138 236.167 81.498C236.731 81.846 237.445 82.02 238.309 82.02H238.723ZM224.899 82.02H226.447C227.923 82.02 229.303 81.846 230.587 81.498C231.871 81.15 233.179 80.622 234.511 79.914C234.883 79.71 235.273 79.524 235.681 79.356C236.089 79.176 236.425 79.05 236.689 78.978L236.743 80.04C236.083 80.028 235.447 79.938 234.835 79.77C234.235 79.59 233.575 79.32 232.855 78.96C231.739 78.372 230.797 78.078 230.029 78.078C229.537 78.078 229.093 78.222 228.697 78.51C228.301 78.798 228.007 79.128 227.815 79.5L226.663 78.69C227.071 77.874 227.563 77.256 228.139 76.836C228.715 76.416 229.357 76.206 230.065 76.206C230.581 76.206 231.067 76.296 231.523 76.476C231.991 76.644 232.645 76.944 233.485 77.376C234.265 77.772 234.889 78.066 235.357 78.258C235.825 78.45 236.347 78.606 236.923 78.726L236.995 80.472C236.767 80.532 236.479 80.652 236.131 80.832C235.783 81 235.405 81.198 234.997 81.426C233.353 82.302 231.877 82.95 230.569 83.37C229.273 83.79 227.839 84 226.267 84H224.899V82.02ZM229.507 86.808C229.975 86.316 230.443 85.848 230.911 85.404C231.379 85.848 231.847 86.316 232.315 86.808L230.911 88.212L229.507 86.808ZM238.54 82.02H239.296C240.556 82.02 241.444 81.906 241.96 81.678C242.476 81.438 242.734 81.066 242.734 80.562C242.722 80.226 242.596 79.68 242.356 78.924C242.116 78.168 241.918 77.634 241.762 77.322L243.256 76.512C243.496 76.992 243.73 77.634 243.958 78.438C244.198 79.242 244.318 79.944 244.318 80.544C244.318 81.684 243.922 82.548 243.13 83.136C242.338 83.712 241.15 84 239.566 84H238.54V82.02ZM239.386 73.776C239.962 73.2 240.25 72.912 240.25 72.912L241.564 74.208C241.132 74.652 240.694 75.09 240.25 75.522L238.954 74.208L239.386 73.776ZM242.554 73.776C243.13 73.2 243.418 72.912 243.418 72.912L244.732 74.208C244.3 74.652 243.862 75.09 243.418 75.522L242.122 74.208L242.554 73.776Z" fill="#393939"/>
<path d="M35.4332 108.054L31.0512 109.958C31.7979 110.593 32.4559 111.325 33.0252 112.156C33.6039 112.977 33.8932 113.743 33.8932 114.452C33.8932 114.695 33.8512 114.928 33.7672 115.152C33.5339 115.796 33.0439 116.291 32.2972 116.636C31.5506 116.972 30.6032 117.14 29.4552 117.14H29.1052L29.0352 116.51L29.1052 115.88H29.4552C30.3886 115.88 31.1352 115.787 31.6952 115.6C32.2552 115.413 32.6006 115.147 32.7312 114.802C32.7779 114.699 32.8012 114.559 32.8012 114.382C32.8012 113.878 32.5399 113.285 32.0172 112.604C31.4946 111.913 30.7572 111.185 29.8052 110.42L29.9592 109.23L35.0692 107.018L35.4332 108.054ZM25.3952 112.282C25.1339 113.01 25.0032 113.584 25.0032 114.004C25.0032 114.135 25.0079 114.233 25.0172 114.298C25.0919 114.802 25.4792 115.194 26.1792 115.474C26.8792 115.745 27.8919 115.88 29.2172 115.88C29.2359 116.039 29.2452 116.272 29.2452 116.58C29.2452 116.832 29.2406 117.019 29.2312 117.14C27.6072 117.149 26.3379 116.925 25.4232 116.468C24.5179 116.001 24.0232 115.339 23.9392 114.48C23.9299 114.405 23.9252 114.298 23.9252 114.158C23.9252 113.766 23.9719 113.36 24.0652 112.94C24.1679 112.511 24.2939 112.133 24.4432 111.806L25.3952 112.282ZM34.043 119.926C34.6403 119.721 35.1816 119.45 35.667 119.114C36.1523 118.778 36.5303 118.419 36.801 118.036C37.081 117.653 37.221 117.294 37.221 116.958C37.221 116.482 36.983 115.315 36.507 113.458L37.585 113.052C37.7903 113.715 37.9583 114.415 38.089 115.152C38.229 115.889 38.299 116.491 38.299 116.958C38.299 117.509 38.1356 118.045 37.809 118.568C37.4823 119.1 37.0296 119.576 36.451 119.996C35.8816 120.425 35.2376 120.766 34.519 121.018L34.043 119.926ZM43.3075 109.986L45.2255 114.522C45.4121 114.979 45.6221 115.297 45.8555 115.474C46.0981 115.651 46.4248 115.74 46.8355 115.74H46.9895L47.0595 116.37L46.9895 117H46.8355C46.2475 117 45.7435 116.851 45.3235 116.552C44.9035 116.244 44.5488 115.759 44.2595 115.096L42.2995 110.518L43.3075 109.986ZM39.8215 115.124C40.1855 115.339 40.5355 115.516 40.8715 115.656C41.2075 115.787 41.6088 115.852 42.0755 115.852C42.6541 115.852 43.1395 115.763 43.5315 115.586C43.9235 115.399 44.3061 115.171 44.6795 114.9L45.2395 115.698C44.9781 115.941 44.7308 116.151 44.4975 116.328C44.2641 116.505 43.9468 116.673 43.5455 116.832C43.1441 116.981 42.6868 117.056 42.1735 117.056C41.5388 117.056 40.9928 116.958 40.5355 116.762C40.0781 116.566 39.6581 116.328 39.2755 116.048L39.8215 115.124ZM49.5399 114.634C50.1279 115.035 50.6552 115.343 51.1219 115.558C51.5885 115.773 51.9479 115.88 52.1999 115.88C52.2839 115.88 52.3632 115.861 52.4379 115.824C52.6059 115.74 52.7319 115.6 52.8159 115.404C52.8999 115.208 52.9419 114.984 52.9419 114.732C52.9419 114.275 52.8252 113.859 52.5919 113.486C52.3679 113.113 52.0692 112.926 51.6959 112.926C51.4065 112.926 51.0985 113.131 50.7719 113.542C50.4452 113.943 50.0859 114.536 49.6939 115.32C49.4139 115.871 49.0499 116.291 48.6019 116.58C48.1632 116.86 47.6639 117 47.1039 117H46.8519L46.8659 115.74H47.1319C47.5145 115.74 47.8645 115.633 48.1819 115.418C48.5085 115.194 48.7792 114.867 48.9939 114.438C49.3859 113.645 49.7919 113.01 50.2119 112.534C50.6319 112.058 51.0939 111.806 51.5979 111.778C52.0645 111.75 52.4752 111.876 52.8299 112.156C53.1939 112.427 53.4692 112.791 53.6559 113.248C53.8519 113.696 53.9499 114.167 53.9499 114.662C53.9499 115.157 53.8519 115.609 53.6559 116.02C53.4599 116.421 53.1705 116.725 52.7879 116.93C52.6292 117.023 52.4285 117.07 52.1859 117.07C51.4765 117.07 50.4265 116.608 49.0359 115.684L49.5399 114.634ZM61.8266 113.36C61.304 114.461 61.0426 115.423 61.0426 116.244C61.0426 117.131 61.304 117.807 61.8266 118.274C62.3493 118.741 63.1006 118.974 64.0806 118.974C64.734 118.974 65.308 118.871 65.8026 118.666C66.3066 118.47 66.708 118.218 67.0066 117.91C67.3053 117.602 67.506 117.289 67.6086 116.972C67.6273 116.907 67.5153 116.827 67.2726 116.734C67.0393 116.631 66.6006 116.487 65.9566 116.3C65.2193 116.095 64.706 115.875 64.4166 115.642C64.1273 115.399 63.9826 115.045 63.9826 114.578C63.9826 113.887 64.16 113.234 64.5146 112.618C64.8693 112.002 65.336 111.507 65.9146 111.134C66.4933 110.761 67.1093 110.574 67.7626 110.574C68.0146 110.574 68.262 110.607 68.5046 110.672C68.7473 110.728 68.934 110.803 69.0646 110.896L68.6866 112.002C68.4346 111.89 68.1266 111.834 67.7626 111.834C67.2866 111.834 66.8433 111.96 66.4326 112.212C66.022 112.464 65.6906 112.781 65.4386 113.164C65.196 113.547 65.0746 113.915 65.0746 114.27C65.0746 114.447 65.1726 114.601 65.3686 114.732C65.574 114.863 65.98 115.017 66.5866 115.194C67.184 115.371 67.6273 115.525 67.9166 115.656C68.2153 115.787 68.4206 115.931 68.5326 116.09C68.6446 116.239 68.7006 116.435 68.7006 116.678C68.7006 117.247 68.5 117.807 68.0986 118.358C67.7066 118.909 67.156 119.357 66.4466 119.702C65.7466 120.057 64.958 120.234 64.0806 120.234C63.278 120.234 62.564 120.075 61.9386 119.758C61.3226 119.45 60.8373 119.007 60.4826 118.428C60.128 117.849 59.9506 117.173 59.9506 116.398C59.9506 115.829 60.044 115.227 60.2306 114.592C60.4173 113.957 60.632 113.397 60.8746 112.912L61.8266 113.36ZM70.8059 116.916C70.8712 116.356 70.9039 115.409 70.9039 114.074C70.9039 112.805 70.8759 111.493 70.8199 110.14C70.7732 108.777 70.7172 107.895 70.6519 107.494L71.7719 107.256C71.8279 107.685 71.8839 108.623 71.9399 110.07C72.0052 111.507 72.0379 112.875 72.0379 114.172C72.0379 115.479 72.0052 116.44 71.9399 117.056L70.8059 116.916ZM72.0371 119.926C72.6344 119.721 73.1758 119.45 73.6611 119.114C74.1464 118.778 74.5244 118.419 74.7951 118.036C75.0751 117.653 75.2151 117.294 75.2151 116.958C75.2151 116.482 74.9771 115.315 74.5011 113.458L75.5791 113.052C75.7844 113.715 75.9524 114.415 76.0831 115.152C76.2231 115.889 76.2931 116.491 76.2931 116.958C76.2931 117.509 76.1298 118.045 75.8031 118.568C75.4764 119.1 75.0238 119.576 74.4451 119.996C73.8758 120.425 73.2318 120.766 72.5131 121.018L72.0371 119.926ZM77.9836 116.916C78.0489 116.356 78.0816 115.409 78.0816 114.074C78.0816 112.805 78.0536 111.493 77.9976 110.14C77.9509 108.777 77.8949 107.895 77.8296 107.494L78.9496 107.256C79.0056 107.685 79.0616 108.623 79.1176 110.07C79.1829 111.507 79.2156 112.875 79.2156 114.172C79.2156 115.479 79.1829 116.44 79.1176 117.056L77.9836 116.916ZM81.1652 115.124C81.2026 115.143 81.3379 115.222 81.5712 115.362C81.8139 115.493 82.1172 115.605 82.4812 115.698C82.8546 115.791 83.2466 115.838 83.6572 115.838C84.1612 115.838 84.5719 115.768 84.8892 115.628C85.2159 115.479 85.4259 115.315 85.5192 115.138C85.5659 115.026 85.5892 114.909 85.5892 114.788C85.5892 114.349 85.3466 113.808 84.8612 113.164C84.3852 112.511 83.6572 111.825 82.6772 111.106L83.3072 110.014C84.3432 110.798 85.1506 111.61 85.7292 112.45C86.3172 113.281 86.6112 114.06 86.6112 114.788C86.6112 115.124 86.5506 115.427 86.4292 115.698C86.2426 116.127 85.9066 116.459 85.4212 116.692C84.9359 116.925 84.3806 117.042 83.7552 117.042C83.0179 117.042 82.3879 116.944 81.8652 116.748C81.3426 116.543 80.9272 116.309 80.6192 116.048L81.1652 115.124ZM92.5001 119.898C93.9934 119.571 95.0994 119.128 95.8181 118.568C96.5367 118.017 96.8961 117.322 96.8961 116.482C96.8867 115.931 96.8121 115.385 96.6721 114.844C96.5321 114.303 96.3267 113.85 96.0561 113.486C95.7854 113.113 95.4634 112.912 95.0901 112.884C94.8847 112.875 94.6841 112.959 94.4881 113.136C94.2921 113.313 94.1334 113.542 94.0121 113.822C93.8907 114.102 93.8301 114.368 93.8301 114.62C93.8301 114.825 93.8721 114.998 93.9561 115.138C94.1054 115.362 94.3574 115.53 94.7121 115.642C95.0761 115.754 95.4914 115.81 95.9581 115.81C96.4061 115.81 96.8167 115.768 97.1901 115.684V116.874C96.7887 116.986 96.3221 117.042 95.7901 117.042C95.1741 117.042 94.6187 116.949 94.1241 116.762C93.6294 116.566 93.2747 116.258 93.0601 115.838C92.9107 115.539 92.8361 115.189 92.8361 114.788C92.8361 114.303 92.9387 113.817 93.1441 113.332C93.3587 112.847 93.6387 112.445 93.9841 112.128C94.3387 111.811 94.7167 111.652 95.1181 111.652C95.6687 111.652 96.1541 111.895 96.5741 112.38C96.9941 112.865 97.3161 113.477 97.5401 114.214C97.7641 114.942 97.8761 115.661 97.8761 116.37C97.8761 117.527 97.4327 118.512 96.5461 119.324C95.6687 120.136 94.4414 120.701 92.8641 121.018L92.5001 119.898ZM108.246 110.21C108.414 112.077 108.54 113.337 108.624 113.99C108.671 114.466 108.736 114.825 108.82 115.068C108.913 115.311 109.049 115.483 109.226 115.586C109.403 115.689 109.66 115.74 109.996 115.74H110.192L110.262 116.37L110.192 117H109.996C109.249 117 108.68 116.781 108.288 116.342C107.896 115.894 107.644 115.166 107.532 114.158L107.294 112.002L107.112 110.434L108.246 110.21ZM108.176 116.02C107.625 116.207 107.075 116.3 106.524 116.3C105.759 116.3 105.129 116.123 104.634 115.768C104.149 115.413 103.906 114.933 103.906 114.326C103.906 113.001 105.096 111.951 107.476 111.176L107.714 112.352C106.977 112.548 106.342 112.814 105.81 113.15C105.278 113.477 104.998 113.794 104.97 114.102C104.942 114.373 105.059 114.597 105.32 114.774C105.591 114.951 105.955 115.04 106.412 115.04C106.879 115.04 107.373 114.947 107.896 114.76L108.176 116.02ZM110.03 115.74H110.59C111.588 115.74 112.293 115.647 112.704 115.46C113.114 115.264 113.32 114.947 113.32 114.508C113.31 114.219 113.212 113.78 113.026 113.192C112.848 112.595 112.694 112.165 112.564 111.904L113.572 111.372C113.758 111.736 113.94 112.231 114.118 112.856C114.304 113.472 114.398 114.009 114.398 114.466C114.398 115.297 114.094 115.927 113.488 116.356C112.881 116.785 111.966 117 110.744 117H110.03V115.74ZM109.554 118.974L110.184 118.344L111.122 119.282L110.184 120.234L109.246 119.282L109.554 118.974ZM112.046 118.974L112.676 118.344L113.614 119.282L112.676 120.234L111.738 119.282L112.046 118.974ZM119.6 117C119.022 117 118.574 116.799 118.256 116.398C117.939 115.997 117.673 115.418 117.458 114.662L118.242 114.186C118.382 114.755 118.55 115.157 118.746 115.39C118.952 115.623 119.236 115.74 119.6 115.74H119.698L119.768 116.37L119.698 117H119.6ZM114.406 119.926C115.004 119.721 115.545 119.45 116.03 119.114C116.516 118.778 116.894 118.419 117.164 118.036C117.444 117.653 117.584 117.294 117.584 116.958C117.584 116.482 117.346 115.315 116.87 113.458L117.948 113.052C118.154 113.715 118.322 114.415 118.452 115.152C118.592 115.889 118.662 116.491 118.662 116.958C118.662 117.509 118.499 118.045 118.172 118.568C117.846 119.1 117.393 119.576 116.814 119.996C116.245 120.425 115.601 120.766 114.882 121.018L114.406 119.926ZM130.297 115.74L130.367 116.37L130.297 117H130.157C129.233 116.991 128.496 116.799 127.945 116.426C127.404 116.053 127.04 115.483 126.853 114.718L127.581 114.186C127.684 114.643 127.959 115.017 128.407 115.306C128.864 115.586 129.448 115.731 130.157 115.74H130.297ZM119.545 115.74H120.833C122 115.74 123.087 115.6 124.095 115.32C125.112 115.031 126.13 114.615 127.147 114.074C127.716 113.766 128.276 113.533 128.827 113.374L128.869 113.878C128.337 113.878 127.828 113.817 127.343 113.696C126.867 113.575 126.372 113.383 125.859 113.122C125.411 112.889 125.01 112.711 124.655 112.59C124.3 112.469 123.95 112.408 123.605 112.408C123.213 112.408 122.858 112.525 122.541 112.758C122.224 112.991 121.986 113.267 121.827 113.584L121.071 113.066C121.37 112.459 121.738 112.002 122.177 111.694C122.616 111.377 123.106 111.218 123.647 111.218C124.039 111.218 124.403 111.283 124.739 111.414C125.084 111.545 125.593 111.778 126.265 112.114C126.89 112.431 127.38 112.669 127.735 112.828C128.099 112.977 128.51 113.099 128.967 113.192L129.009 114.298C128.822 114.354 128.626 114.429 128.421 114.522C128.225 114.615 127.94 114.765 127.567 114.97C126.307 115.633 125.164 116.137 124.137 116.482C123.12 116.827 122.018 117 120.833 117H119.545V115.74ZM130.155 115.74H130.715C131.713 115.74 132.418 115.647 132.829 115.46C133.239 115.264 133.445 114.947 133.445 114.508C133.435 114.219 133.337 113.78 133.151 113.192C132.973 112.595 132.819 112.165 132.689 111.904L133.697 111.372C133.883 111.736 134.065 112.231 134.243 112.856C134.429 113.472 134.523 114.009 134.523 114.466C134.523 115.297 134.219 115.927 133.613 116.356C133.006 116.785 132.091 117 130.869 117H130.155V115.74ZM130.855 109.244L131.485 108.614L132.423 109.552L131.485 110.504L130.547 109.552L130.855 109.244ZM133.347 109.244L133.977 108.614L134.915 109.552L133.977 110.504L133.039 109.552L133.347 109.244ZM142.086 107.256C142.161 107.732 142.217 108.567 142.254 109.762C142.301 110.947 142.324 112.025 142.324 112.996V113.584L142.31 114.074C142.31 114.513 142.348 114.849 142.422 115.082C142.497 115.306 142.637 115.474 142.842 115.586C143.057 115.689 143.374 115.74 143.794 115.74H143.864L143.934 116.37L143.864 117H143.794C143.132 117 142.614 116.893 142.24 116.678C141.867 116.454 141.601 116.123 141.442 115.684C141.293 115.245 141.218 114.667 141.218 113.948C141.218 112.884 141.195 111.68 141.148 110.336C141.111 108.983 141.05 108.035 140.966 107.494L142.086 107.256ZM143.731 115.74H144.459C145.205 115.74 145.742 115.642 146.069 115.446C146.405 115.25 146.573 114.947 146.573 114.536C146.573 114.247 146.479 113.803 146.293 113.206C146.106 112.609 145.952 112.175 145.831 111.904L146.839 111.372C147.016 111.764 147.198 112.282 147.385 112.926C147.571 113.561 147.665 114.102 147.665 114.55C147.655 115.353 147.375 115.964 146.825 116.384C146.274 116.795 145.485 117 144.459 117H143.731V115.74ZM143.773 119.296L144.109 118.96C144.547 118.521 144.767 118.302 144.767 118.302C144.767 118.302 144.986 118.521 145.425 118.96L145.761 119.296L144.767 120.29L143.773 119.296ZM155.603 113.584C155.08 114.685 154.819 115.647 154.819 116.468C154.819 117.355 155.08 118.031 155.603 118.498C156.125 118.965 156.877 119.198 157.857 119.198C158.613 119.198 159.243 119.058 159.747 118.778C160.26 118.507 160.638 118.157 160.881 117.728C161.123 117.308 161.245 116.865 161.245 116.398C161.245 115.623 160.988 114.457 160.475 112.898L161.511 112.422C161.781 113.281 161.982 114.023 162.113 114.648C162.243 115.264 162.309 115.847 162.309 116.398C162.309 117.07 162.131 117.719 161.777 118.344C161.431 118.969 160.923 119.478 160.251 119.87C159.579 120.262 158.781 120.458 157.857 120.458C156.97 120.458 156.214 120.281 155.589 119.926C154.973 119.571 154.506 119.1 154.189 118.512C153.881 117.924 153.727 117.28 153.727 116.58C153.727 116.02 153.82 115.432 154.007 114.816C154.193 114.2 154.408 113.64 154.651 113.136L155.603 113.584ZM157.157 112.632L157.493 112.296C157.931 111.857 158.151 111.638 158.151 111.638C158.151 111.638 158.37 111.857 158.809 112.296L159.145 112.632L158.151 113.626L157.157 112.632ZM164.795 107.256C164.87 107.732 164.926 108.567 164.963 109.762C165.01 110.947 165.033 112.025 165.033 112.996V113.584L165.019 114.074C165.019 114.513 165.057 114.849 165.131 115.082C165.206 115.306 165.346 115.474 165.551 115.586C165.766 115.689 166.083 115.74 166.503 115.74H166.573L166.643 116.37L166.573 117H166.503C165.841 117 165.323 116.893 164.949 116.678C164.576 116.454 164.31 116.123 164.151 115.684C164.002 115.245 163.927 114.667 163.927 113.948C163.927 112.884 163.904 111.68 163.857 110.336C163.82 108.983 163.759 108.035 163.675 107.494L164.795 107.256ZM178.732 115.74L178.802 116.37L178.732 117H178.648C177.518 117 176.706 116.977 176.212 116.93C175.717 116.883 175.334 116.771 175.064 116.594L175.386 116.258C175.796 116.137 176.319 116.02 176.954 115.908C177.598 115.796 178.167 115.74 178.662 115.74H178.732ZM166.426 115.74H166.636C167.112 115.74 167.499 115.637 167.798 115.432C168.096 115.227 168.334 114.905 168.512 114.466C168.689 114.018 168.829 113.421 168.932 112.674L169.954 112.884C169.907 113.257 169.884 113.565 169.884 113.808C169.884 114.611 170.094 115.185 170.514 115.53C170.943 115.866 171.61 116.034 172.516 116.034C173.384 116.034 174.158 115.931 174.84 115.726C175.521 115.521 176.048 115.25 176.422 114.914C176.804 114.578 176.996 114.219 176.996 113.836C176.996 113.491 176.865 113.211 176.604 112.996C176.342 112.772 175.978 112.66 175.512 112.66C174.746 112.66 173.976 112.996 173.202 113.668C172.436 114.34 171.718 115.287 171.046 116.51L170.178 115.978C170.906 114.569 171.732 113.463 172.656 112.66C173.589 111.857 174.513 111.456 175.428 111.456C175.913 111.456 176.352 111.559 176.744 111.764C177.145 111.969 177.458 112.254 177.682 112.618C177.915 112.973 178.032 113.374 178.032 113.822C178.032 114.513 177.798 115.119 177.332 115.642C176.874 116.165 176.24 116.571 175.428 116.86C174.616 117.149 173.696 117.294 172.67 117.294C171.606 117.294 170.798 117.135 170.248 116.818C169.706 116.491 169.361 116.048 169.212 115.488C168.969 115.973 168.652 116.347 168.26 116.608C167.868 116.869 167.322 117 166.622 117H166.426V115.74ZM190.886 115.74L190.956 116.37L190.886 117H190.802C189.673 117 188.861 116.977 188.366 116.93C187.871 116.883 187.489 116.771 187.218 116.594L187.54 116.258C187.951 116.137 188.473 116.02 189.108 115.908C189.752 115.796 190.321 115.74 190.816 115.74H190.886ZM178.58 115.74H178.79C179.266 115.74 179.653 115.637 179.952 115.432C180.251 115.227 180.489 114.905 180.666 114.466C180.843 114.018 180.983 113.421 181.086 112.674L182.108 112.884C182.061 113.257 182.038 113.565 182.038 113.808C182.038 114.611 182.248 115.185 182.668 115.53C183.097 115.866 183.765 116.034 184.67 116.034C185.538 116.034 186.313 115.931 186.994 115.726C187.675 115.521 188.203 115.25 188.576 114.914C188.959 114.578 189.15 114.219 189.15 113.836C189.15 113.491 189.019 113.211 188.758 112.996C188.497 112.772 188.133 112.66 187.666 112.66C186.901 112.66 186.131 112.996 185.356 113.668C184.591 114.34 183.872 115.287 183.2 116.51L182.332 115.978C183.06 114.569 183.886 113.463 184.81 112.66C185.743 111.857 186.667 111.456 187.582 111.456C188.067 111.456 188.506 111.559 188.898 111.764C189.299 111.969 189.612 112.254 189.836 112.618C190.069 112.973 190.186 113.374 190.186 113.822C190.186 114.513 189.953 115.119 189.486 115.642C189.029 116.165 188.394 116.571 187.582 116.86C186.77 117.149 185.851 117.294 184.824 117.294C183.76 117.294 182.953 117.135 182.402 116.818C181.861 116.491 181.515 116.048 181.366 115.488C181.123 115.973 180.806 116.347 180.414 116.608C180.022 116.869 179.476 117 178.776 117H178.58V115.74ZM201.486 115.74L201.556 116.37L201.486 117H201.346C200.422 116.991 199.685 116.799 199.134 116.426C198.593 116.053 198.229 115.483 198.042 114.718L198.77 114.186C198.873 114.643 199.148 115.017 199.596 115.306C200.054 115.586 200.637 115.731 201.346 115.74H201.486ZM190.734 115.74H192.022C193.189 115.74 194.276 115.6 195.284 115.32C196.302 115.031 197.319 114.615 198.336 114.074C198.906 113.766 199.466 113.533 200.016 113.374L200.058 113.878C199.526 113.878 199.018 113.817 198.532 113.696C198.056 113.575 197.562 113.383 197.048 113.122C196.6 112.889 196.199 112.711 195.844 112.59C195.49 112.469 195.14 112.408 194.794 112.408C194.402 112.408 194.048 112.525 193.73 112.758C193.413 112.991 193.175 113.267 193.016 113.584L192.26 113.066C192.559 112.459 192.928 112.002 193.366 111.694C193.805 111.377 194.295 111.218 194.836 111.218C195.228 111.218 195.592 111.283 195.928 111.414C196.274 111.545 196.782 111.778 197.454 112.114C198.08 112.431 198.57 112.669 198.924 112.828C199.288 112.977 199.699 113.099 200.156 113.192L200.198 114.298C200.012 114.354 199.816 114.429 199.61 114.522C199.414 114.615 199.13 114.765 198.756 114.97C197.496 115.633 196.353 116.137 195.326 116.482C194.309 116.827 193.208 117 192.022 117H190.734V115.74ZM193.716 109.034L194.052 108.698C194.491 108.259 194.71 108.04 194.71 108.04C194.71 108.04 194.93 108.259 195.368 108.698L195.704 109.034L194.71 110.028L193.716 109.034ZM201.344 115.74H201.47C202.189 115.74 202.749 115.712 203.15 115.656C203.551 115.591 203.845 115.493 204.032 115.362C204.219 115.231 204.354 115.054 204.438 114.83C204.494 114.662 204.522 114.461 204.522 114.228C204.522 113.929 204.466 113.416 204.354 112.688L205.39 112.492C205.502 113.08 205.563 113.827 205.572 114.732C205.703 115.404 206.127 115.74 206.846 115.74H206.944L207.014 116.37L206.944 117H206.846C206.379 117 205.969 116.865 205.614 116.594C205.269 116.314 205.026 115.959 204.886 115.53L205.166 115.586C205.045 115.941 204.844 116.221 204.564 116.426C204.284 116.631 203.897 116.781 203.402 116.874C202.917 116.958 202.273 117 201.47 117H201.344V115.74ZM202.114 110.07L202.744 109.44L203.682 110.378L202.744 111.33L201.806 110.378L202.114 110.07ZM204.606 110.07L205.236 109.44L206.174 110.378L205.236 111.33L204.298 110.378L204.606 110.07ZM209.487 114.634C210.075 115.035 210.602 115.343 211.069 115.558C211.536 115.773 211.895 115.88 212.147 115.88C212.231 115.88 212.31 115.861 212.385 115.824C212.553 115.74 212.679 115.6 212.763 115.404C212.847 115.208 212.889 114.984 212.889 114.732C212.889 114.275 212.772 113.859 212.539 113.486C212.315 113.113 212.016 112.926 211.643 112.926C211.354 112.926 211.046 113.131 210.719 113.542C210.392 113.943 210.033 114.536 209.641 115.32C209.361 115.871 208.997 116.291 208.549 116.58C208.11 116.86 207.611 117 207.051 117H206.799L206.813 115.74H207.079C207.462 115.74 207.812 115.633 208.129 115.418C208.456 115.194 208.726 114.867 208.941 114.438C209.333 113.645 209.739 113.01 210.159 112.534C210.579 112.058 211.041 111.806 211.545 111.778C212.012 111.75 212.422 111.876 212.777 112.156C213.141 112.427 213.416 112.791 213.603 113.248C213.799 113.696 213.897 114.167 213.897 114.662C213.897 115.157 213.799 115.609 213.603 116.02C213.407 116.421 213.118 116.725 212.735 116.93C212.576 117.023 212.376 117.07 212.133 117.07C211.424 117.07 210.374 116.608 208.983 115.684L209.487 114.634ZM219.758 119.898C221.251 119.571 222.357 119.128 223.076 118.568C223.795 118.017 224.154 117.322 224.154 116.482C224.145 115.931 224.07 115.385 223.93 114.844C223.79 114.303 223.585 113.85 223.314 113.486C223.043 113.113 222.721 112.912 222.348 112.884C222.143 112.875 221.942 112.959 221.746 113.136C221.55 113.313 221.391 113.542 221.27 113.822C221.149 114.102 221.088 114.368 221.088 114.62C221.088 114.825 221.13 114.998 221.214 115.138C221.363 115.362 221.615 115.53 221.97 115.642C222.334 115.754 222.749 115.81 223.216 115.81C223.664 115.81 224.075 115.768 224.448 115.684V116.874C224.047 116.986 223.58 117.042 223.048 117.042C222.432 117.042 221.877 116.949 221.382 116.762C220.887 116.566 220.533 116.258 220.318 115.838C220.169 115.539 220.094 115.189 220.094 114.788C220.094 114.303 220.197 113.817 220.402 113.332C220.617 112.847 220.897 112.445 221.242 112.128C221.597 111.811 221.975 111.652 222.376 111.652C222.927 111.652 223.412 111.895 223.832 112.38C224.252 112.865 224.574 113.477 224.798 114.214C225.022 114.942 225.134 115.661 225.134 116.37C225.134 117.527 224.691 118.512 223.804 119.324C222.927 120.136 221.699 120.701 220.122 121.018L219.758 119.898ZM233.054 113.584C232.531 114.685 232.27 115.647 232.27 116.468C232.27 117.355 232.531 118.031 233.054 118.498C233.577 118.965 234.328 119.198 235.308 119.198C236.064 119.198 236.694 119.058 237.198 118.778C237.711 118.507 238.089 118.157 238.332 117.728C238.575 117.308 238.696 116.865 238.696 116.398C238.696 115.623 238.439 114.457 237.926 112.898L238.962 112.422C239.233 113.281 239.433 114.023 239.564 114.648C239.695 115.264 239.76 115.847 239.76 116.398C239.76 117.07 239.583 117.719 239.228 118.344C238.883 118.969 238.374 119.478 237.702 119.87C237.03 120.262 236.232 120.458 235.308 120.458C234.421 120.458 233.665 120.281 233.04 119.926C232.424 119.571 231.957 119.1 231.64 118.512C231.332 117.924 231.178 117.28 231.178 116.58C231.178 116.02 231.271 115.432 231.458 114.816C231.645 114.2 231.859 113.64 232.102 113.136L233.054 113.584ZM234.608 112.632L234.944 112.296C235.383 111.857 235.602 111.638 235.602 111.638C235.602 111.638 235.821 111.857 236.26 112.296L236.596 112.632L235.602 113.626L234.608 112.632ZM242.246 107.256C242.321 107.732 242.377 108.567 242.414 109.762C242.461 110.947 242.484 112.025 242.484 112.996V113.584L242.47 114.074C242.47 114.513 242.508 114.849 242.582 115.082C242.657 115.306 242.797 115.474 243.002 115.586C243.217 115.689 243.534 115.74 243.954 115.74H244.024L244.094 116.37L244.024 117H243.954C243.292 117 242.774 116.893 242.4 116.678C242.027 116.454 241.761 116.123 241.602 115.684C241.453 115.245 241.378 114.667 241.378 113.948C241.378 112.884 241.355 111.68 241.308 110.336C241.271 108.983 241.21 108.035 241.126 107.494L242.246 107.256ZM247.87 112.408C248.411 113.304 248.85 113.981 249.186 114.438C249.531 114.895 249.858 115.227 250.166 115.432C250.483 115.637 250.838 115.74 251.23 115.74H251.398L251.468 116.37L251.398 117H251.23C250.735 117 250.287 116.869 249.886 116.608C249.484 116.337 249.083 115.931 248.682 115.39C248.29 114.849 247.823 114.097 247.282 113.136L247.87 112.408ZM250.11 108.054L245.728 109.958C246.474 110.593 247.132 111.325 247.702 112.156C248.28 112.977 248.57 113.743 248.57 114.452C248.57 114.695 248.528 114.928 248.444 115.152C248.22 115.777 247.739 116.244 247.002 116.552C246.264 116.851 245.308 117 244.132 117H243.782V115.74H244.132C246.362 115.74 247.478 115.278 247.478 114.354C247.478 113.878 247.212 113.295 246.68 112.604C246.157 111.913 245.424 111.185 244.482 110.42L244.636 109.23L249.746 107.018L250.11 108.054ZM259.1 115.74C259.8 115.74 260.15 115.353 260.15 114.578C260.15 114.261 260.057 113.817 259.87 113.248C259.693 112.669 259.534 112.231 259.394 111.932L260.388 111.386C260.575 111.778 260.761 112.291 260.948 112.926C261.135 113.551 261.228 114.102 261.228 114.578C261.228 115.035 261.135 115.451 260.948 115.824C260.771 116.188 260.519 116.477 260.192 116.692C259.875 116.897 259.511 117 259.1 117H259.072V115.74H259.1ZM255.292 117V115.74H255.334C255.857 115.74 256.305 115.413 256.678 114.76C256.799 114.536 256.893 114.27 256.958 113.962C257.033 113.654 257.103 113.313 257.168 112.94L258.204 112.996C258.195 113.033 258.162 113.206 258.106 113.514C258.05 113.822 258.022 114.121 258.022 114.41C258.022 114.858 258.106 115.194 258.274 115.418C258.451 115.633 258.727 115.74 259.1 115.74H259.128L259.198 116.37L259.128 117H259.1C258.559 117 258.125 116.841 257.798 116.524C257.481 116.197 257.289 115.745 257.224 115.166L257.448 115.152C257.252 115.684 256.963 116.127 256.58 116.482C256.207 116.827 255.787 117 255.32 117H255.292ZM251.288 117L251.218 116.37L251.288 115.74H251.358C251.703 115.74 252.03 115.661 252.338 115.502C252.646 115.343 252.884 115.133 253.052 114.872C253.229 114.62 253.365 114.354 253.458 114.074C253.561 113.794 253.663 113.463 253.766 113.08L254.816 113.192C254.797 113.248 254.76 113.388 254.704 113.612C254.648 113.836 254.601 114.046 254.564 114.242C254.536 114.438 254.522 114.615 254.522 114.774C254.522 115.418 254.783 115.74 255.306 115.74H255.334L255.404 116.37L255.334 117H255.292C254.863 117 254.503 116.874 254.214 116.622C253.934 116.361 253.766 116.011 253.71 115.572C253.421 116.039 253.075 116.393 252.674 116.636C252.273 116.879 251.829 117 251.344 117H251.288ZM257.714 107.592L258.554 108.446L257.714 109.286L256.874 108.446L257.714 107.592ZM259.002 109.02L259.954 109.972L259.002 110.91C258.694 110.593 258.381 110.28 258.064 109.972L259.002 109.02ZM256.426 109.02L257.378 109.972L256.426 110.91C256.118 110.593 255.805 110.28 255.488 109.972L256.426 109.02ZM266.067 117C265.488 117 265.04 116.799 264.723 116.398C264.406 115.997 264.14 115.418 263.925 114.662L264.709 114.186C264.849 114.755 265.017 115.157 265.213 115.39C265.418 115.623 265.703 115.74 266.067 115.74H266.165L266.235 116.37L266.165 117H266.067ZM260.873 119.926C261.47 119.721 262.012 119.45 262.497 119.114C262.982 118.778 263.36 118.419 263.631 118.036C263.911 117.653 264.051 117.294 264.051 116.958C264.051 116.482 263.813 115.315 263.337 113.458L264.415 113.052C264.62 113.715 264.788 114.415 264.919 115.152C265.059 115.889 265.129 116.491 265.129 116.958C265.129 117.509 264.966 118.045 264.639 118.568C264.312 119.1 263.86 119.576 263.281 119.996C262.712 120.425 262.068 120.766 261.349 121.018L260.873 119.926ZM262.651 110.658L262.987 110.322C263.426 109.883 263.645 109.664 263.645 109.664C263.645 109.664 263.864 109.883 264.303 110.322L264.639 110.658L263.645 111.652L262.651 110.658ZM266.334 115.74H266.894C267.892 115.74 268.597 115.647 269.008 115.46C269.418 115.264 269.624 114.947 269.624 114.508C269.614 114.219 269.516 113.78 269.33 113.192C269.152 112.595 268.998 112.165 268.868 111.904L269.876 111.372C270.062 111.736 270.244 112.231 270.422 112.856C270.608 113.472 270.702 114.009 270.702 114.466C270.702 115.297 270.398 115.927 269.792 116.356C269.185 116.785 268.27 117 267.048 117H266.334V115.74ZM269.708 117.952L270.66 118.904L269.708 119.842C269.4 119.525 269.087 119.212 268.77 118.904L269.708 117.952ZM267.132 117.952L268.084 118.904L267.132 119.842C266.824 119.525 266.511 119.212 266.194 118.904L267.132 117.952ZM268.42 119.548L269.26 120.402L268.42 121.242L267.58 120.402L268.42 119.548ZM266.068 117L265.998 116.37L266.068 115.74H266.432V117H266.068ZM286.21 115.74L286.28 116.37L286.21 117H286.056C285.636 117 285.263 116.883 284.936 116.65C284.609 116.407 284.357 116.076 284.18 115.656C284.012 115.227 283.942 114.746 283.97 114.214L284.614 114.088C284.642 114.527 284.703 114.863 284.796 115.096C284.889 115.329 285.029 115.497 285.216 115.6C285.412 115.693 285.692 115.74 286.056 115.74H286.21ZM284.25 107.256C284.343 108.208 284.488 111.05 284.684 115.782C284.74 117.275 284.409 118.437 283.69 119.268C282.981 120.099 281.949 120.514 280.596 120.514C279.877 120.514 279.224 120.365 278.636 120.066C278.057 119.777 277.595 119.366 277.25 118.834C276.914 118.302 276.746 117.686 276.746 116.986C276.746 116.491 276.835 115.936 277.012 115.32C277.189 114.704 277.404 114.139 277.656 113.626L278.608 114.088C278.095 115.133 277.838 116.043 277.838 116.818C277.838 117.546 278.085 118.134 278.58 118.582C279.084 119.03 279.756 119.254 280.596 119.254C281.651 119.254 282.425 118.969 282.92 118.4C283.415 117.831 283.639 116.977 283.592 115.838C283.424 111.61 283.275 108.829 283.144 107.494L284.25 107.256ZM288.757 114.634C289.345 115.035 289.872 115.343 290.339 115.558C290.805 115.773 291.165 115.88 291.417 115.88C291.501 115.88 291.58 115.861 291.655 115.824C291.823 115.74 291.949 115.6 292.033 115.404C292.117 115.208 292.159 114.984 292.159 114.732C292.159 114.275 292.042 113.859 291.809 113.486C291.585 113.113 291.286 112.926 290.913 112.926C290.623 112.926 290.315 113.131 289.989 113.542C289.662 113.943 289.303 114.536 288.911 115.32C288.631 115.871 288.267 116.291 287.819 116.58C287.38 116.86 286.881 117 286.321 117H286.069L286.083 115.74H286.349C286.731 115.74 287.081 115.633 287.399 115.418C287.725 115.194 287.996 114.867 288.211 114.438C288.603 113.645 289.009 113.01 289.429 112.534C289.849 112.058 290.311 111.806 290.815 111.778C291.281 111.75 291.692 111.876 292.047 112.156C292.411 112.427 292.686 112.791 292.873 113.248C293.069 113.696 293.167 114.167 293.167 114.662C293.167 115.157 293.069 115.609 292.873 116.02C292.677 116.421 292.387 116.725 292.005 116.93C291.846 117.023 291.645 117.07 291.403 117.07C290.693 117.07 289.643 116.608 288.253 115.684L288.757 114.634ZM295.813 107.256C295.888 107.732 295.944 108.567 295.981 109.762C296.028 110.947 296.051 112.025 296.051 112.996V113.584L296.037 114.074C296.037 114.513 296.074 114.849 296.149 115.082C296.224 115.306 296.364 115.474 296.569 115.586C296.784 115.689 297.101 115.74 297.521 115.74H297.591L297.661 116.37L297.591 117H297.521C296.858 117 296.34 116.893 295.967 116.678C295.594 116.454 295.328 116.123 295.169 115.684C295.02 115.245 294.945 114.667 294.945 113.948C294.945 112.884 294.922 111.68 294.875 110.336C294.838 108.983 294.777 108.035 294.693 107.494L295.813 107.256ZM305.297 115.74C305.997 115.74 306.347 115.353 306.347 114.578C306.347 114.261 306.254 113.817 306.067 113.248C305.89 112.669 305.731 112.231 305.591 111.932L306.585 111.386C306.772 111.778 306.959 112.291 307.145 112.926C307.332 113.551 307.425 114.102 307.425 114.578C307.425 115.035 307.332 115.451 307.145 115.824C306.968 116.188 306.716 116.477 306.389 116.692C306.072 116.897 305.708 117 305.297 117H305.269V115.74H305.297ZM301.489 117V115.74H301.531C302.054 115.74 302.502 115.413 302.875 114.76C302.997 114.536 303.09 114.27 303.155 113.962C303.23 113.654 303.3 113.313 303.365 112.94L304.401 112.996C304.392 113.033 304.359 113.206 304.303 113.514C304.247 113.822 304.219 114.121 304.219 114.41C304.219 114.858 304.303 115.194 304.471 115.418C304.649 115.633 304.924 115.74 305.297 115.74H305.325L305.395 116.37L305.325 117H305.297C304.756 117 304.322 116.841 303.995 116.524C303.678 116.197 303.487 115.745 303.421 115.166L303.645 115.152C303.449 115.684 303.16 116.127 302.777 116.482C302.404 116.827 301.984 117 301.517 117H301.489ZM297.485 117L297.415 116.37L297.485 115.74H297.555C297.901 115.74 298.227 115.661 298.535 115.502C298.843 115.343 299.081 115.133 299.249 114.872C299.427 114.62 299.562 114.354 299.655 114.074C299.758 113.794 299.861 113.463 299.963 113.08L301.013 113.192C300.995 113.248 300.957 113.388 300.901 113.612C300.845 113.836 300.799 114.046 300.761 114.242C300.733 114.438 300.719 114.615 300.719 114.774C300.719 115.418 300.981 115.74 301.503 115.74H301.531L301.601 116.37L301.531 117H301.489C301.06 117 300.701 116.874 300.411 116.622C300.131 116.361 299.963 116.011 299.907 115.572C299.618 116.039 299.273 116.393 298.871 116.636C298.47 116.879 298.027 117 297.541 117H297.485ZM303.911 107.592L304.751 108.446L303.911 109.286L303.071 108.446L303.911 107.592ZM305.199 109.02L306.151 109.972L305.199 110.91C304.891 110.593 304.579 110.28 304.261 109.972L305.199 109.02ZM302.623 109.02L303.575 109.972L302.623 110.91C302.315 110.593 302.003 110.28 301.685 109.972L302.623 109.02ZM314.899 107.256C314.973 107.732 315.029 108.567 315.067 109.762C315.113 110.947 315.137 112.025 315.137 112.996V113.584L315.123 114.074C315.123 114.513 315.16 114.849 315.235 115.082C315.309 115.306 315.449 115.474 315.655 115.586C315.869 115.689 316.187 115.74 316.607 115.74H316.677L316.747 116.37L316.677 117H316.607C315.944 117 315.426 116.893 315.053 116.678C314.679 116.454 314.413 116.123 314.255 115.684C314.105 115.245 314.031 114.667 314.031 113.948C314.031 112.884 314.007 111.68 313.961 110.336C313.923 108.983 313.863 108.035 313.779 107.494L314.899 107.256ZM319.231 114.634C319.819 115.035 320.347 115.343 320.813 115.558C321.28 115.773 321.639 115.88 321.891 115.88C321.975 115.88 322.055 115.861 322.129 115.824C322.297 115.74 322.423 115.6 322.507 115.404C322.591 115.208 322.633 114.984 322.633 114.732C322.633 114.275 322.517 113.859 322.283 113.486C322.059 113.113 321.761 112.926 321.387 112.926C321.098 112.926 320.79 113.131 320.463 113.542C320.137 113.943 319.777 114.536 319.385 115.32C319.105 115.871 318.741 116.291 318.293 116.58C317.855 116.86 317.355 117 316.795 117H316.543L316.557 115.74H316.823C317.206 115.74 317.556 115.633 317.873 115.418C318.2 115.194 318.471 114.867 318.685 114.438C319.077 113.645 319.483 113.01 319.903 112.534C320.323 112.058 320.785 111.806 321.289 111.778C321.756 111.75 322.167 111.876 322.521 112.156C322.885 112.427 323.161 112.791 323.347 113.248C323.543 113.696 323.641 114.167 323.641 114.662C323.641 115.157 323.543 115.609 323.347 116.02C323.151 116.421 322.862 116.725 322.479 116.93C322.321 117.023 322.12 117.07 321.877 117.07C321.168 117.07 320.118 116.608 318.727 115.684L319.231 114.634ZM329.922 121.606C329.754 119.59 329.67 117.966 329.67 116.734C329.67 116.463 329.679 116.123 329.698 115.712C329.717 115.301 329.838 114.965 330.062 114.704C330.286 114.443 330.566 114.312 330.902 114.312C331.051 114.312 331.201 114.34 331.35 114.396C331.807 113.565 332.227 112.931 332.61 112.492C332.993 112.044 333.431 111.806 333.926 111.778C334.999 111.722 335.727 112.459 336.11 113.99C336.25 114.597 336.409 115.04 336.586 115.32C336.773 115.6 337.011 115.74 337.3 115.74H337.384L337.454 116.37L337.384 117H337.3C336.6 117 336.138 116.617 335.914 115.852C335.886 116.076 335.793 116.286 335.634 116.482C335.485 116.678 335.317 116.827 335.13 116.93C334.943 117.023 334.752 117.07 334.556 117.07C334.211 117.07 333.772 116.958 333.24 116.734C332.708 116.51 332.013 116.151 331.154 115.656C331.107 115.619 331.042 115.6 330.958 115.6C330.799 115.6 330.715 115.698 330.706 115.894L330.692 116.454C330.692 117.331 330.734 118.297 330.818 119.352C330.902 120.407 330.949 121.018 330.958 121.186L331.014 121.83L329.95 122.054L329.922 121.606ZM334.976 115.908C335.181 115.712 335.284 115.395 335.284 114.956C335.284 114.648 335.228 114.335 335.116 114.018C335.013 113.701 334.864 113.439 334.668 113.234C334.481 113.029 334.267 112.926 334.024 112.926C333.735 112.926 333.45 113.094 333.17 113.43C332.89 113.766 332.582 114.247 332.246 114.872C332.797 115.236 333.291 115.507 333.73 115.684C334.178 115.852 334.528 115.936 334.78 115.936C334.855 115.936 334.92 115.927 334.976 115.908ZM337.242 115.74H337.369C338.087 115.74 338.647 115.712 339.049 115.656C339.45 115.591 339.744 115.493 339.931 115.362C340.117 115.231 340.253 115.054 340.337 114.83C340.393 114.662 340.421 114.461 340.421 114.228C340.421 113.929 340.365 113.416 340.253 112.688L341.289 112.492C341.401 113.08 341.461 113.827 341.471 114.732C341.601 115.404 342.026 115.74 342.745 115.74H342.843L342.913 116.37L342.843 117H342.745C342.278 117 341.867 116.865 341.513 116.594C341.167 116.314 340.925 115.959 340.785 115.53L341.065 115.586C340.943 115.941 340.743 116.221 340.463 116.426C340.183 116.631 339.795 116.781 339.301 116.874C338.815 116.958 338.171 117 337.369 117H337.242V115.74ZM336.864 118.946L337.495 118.316L338.433 119.254L337.495 120.206L336.556 119.254L336.864 118.946ZM339.357 118.946L339.987 118.316L340.925 119.254L339.987 120.206L339.049 119.254L339.357 118.946ZM342.698 115.74H343.258C344.256 115.74 344.961 115.647 345.372 115.46C345.782 115.264 345.988 114.947 345.988 114.508C345.978 114.219 345.88 113.78 345.694 113.192C345.516 112.595 345.362 112.165 345.232 111.904L346.24 111.372C346.426 111.736 346.608 112.231 346.786 112.856C346.972 113.472 347.066 114.009 347.066 114.466C347.066 115.297 346.762 115.927 346.156 116.356C345.549 116.785 344.634 117 343.412 117H342.698V115.74ZM343.398 109.244L344.028 108.614L344.966 109.552L344.028 110.504L343.09 109.552L343.398 109.244ZM345.89 109.244L346.52 108.614L347.458 109.552L346.52 110.504L345.582 109.552L345.89 109.244ZM117.016 141.14C117.007 141 117.002 140.79 117.002 140.51C117.002 140.23 117.007 140.02 117.016 139.88C118.155 139.88 119.084 139.787 119.802 139.6C120.521 139.404 121.086 139.105 121.496 138.704C121.916 138.293 122.238 137.752 122.462 137.08L123.498 137.192C123.34 137.715 123.26 138.153 123.26 138.508C123.26 139.329 123.662 139.74 124.464 139.74L124.534 140.37L124.464 141C123.839 141 123.326 140.804 122.924 140.412C122.532 140.02 122.336 139.493 122.336 138.83H122.616C122.103 139.642 121.384 140.23 120.46 140.594C119.546 140.958 118.398 141.14 117.016 141.14ZM113.264 136.282C113.003 137.01 112.872 137.584 112.872 138.004C112.872 138.135 112.877 138.233 112.886 138.298C112.961 138.802 113.348 139.194 114.048 139.474C114.748 139.745 115.761 139.88 117.086 139.88C117.105 140.039 117.114 140.272 117.114 140.58C117.114 140.832 117.11 141.019 117.1 141.14C115.476 141.149 114.207 140.925 113.292 140.468C112.387 140.001 111.892 139.339 111.808 138.48C111.799 138.405 111.794 138.298 111.794 138.158C111.794 137.766 111.841 137.36 111.934 136.94C112.037 136.511 112.163 136.133 112.312 135.806L113.264 136.282ZM115.476 135.764L116.106 135.134L117.044 136.072L116.106 137.024L115.168 136.072L115.476 135.764ZM117.968 135.764L118.598 135.134L119.536 136.072L118.598 137.024L117.66 136.072L117.968 135.764ZM132.17 139.74C132.87 139.74 133.22 139.353 133.22 138.578C133.22 138.261 133.127 137.817 132.94 137.248C132.763 136.669 132.604 136.231 132.464 135.932L133.458 135.386C133.645 135.778 133.832 136.291 134.018 136.926C134.205 137.551 134.298 138.102 134.298 138.578C134.298 139.035 134.205 139.451 134.018 139.824C133.841 140.188 133.589 140.477 133.262 140.692C132.945 140.897 132.581 141 132.17 141H132.142V139.74H132.17ZM128.362 141V139.74H128.404C128.927 139.74 129.375 139.413 129.748 138.76C129.87 138.536 129.963 138.27 130.028 137.962C130.103 137.654 130.173 137.313 130.238 136.94L131.274 136.996C131.265 137.033 131.232 137.206 131.176 137.514C131.12 137.822 131.092 138.121 131.092 138.41C131.092 138.858 131.176 139.194 131.344 139.418C131.522 139.633 131.797 139.74 132.17 139.74H132.198L132.268 140.37L132.198 141H132.17C131.629 141 131.195 140.841 130.868 140.524C130.551 140.197 130.36 139.745 130.294 139.166L130.518 139.152C130.322 139.684 130.033 140.127 129.65 140.482C129.277 140.827 128.857 141 128.39 141H128.362ZM124.358 141L124.288 140.37L124.358 139.74H124.428C124.774 139.74 125.1 139.661 125.408 139.502C125.716 139.343 125.954 139.133 126.122 138.872C126.3 138.62 126.435 138.354 126.528 138.074C126.631 137.794 126.734 137.463 126.836 137.08L127.886 137.192C127.868 137.248 127.83 137.388 127.774 137.612C127.718 137.836 127.672 138.046 127.634 138.242C127.606 138.438 127.592 138.615 127.592 138.774C127.592 139.418 127.854 139.74 128.376 139.74H128.404L128.474 140.37L128.404 141H128.362C127.933 141 127.574 140.874 127.284 140.622C127.004 140.361 126.836 140.011 126.78 139.572C126.491 140.039 126.146 140.393 125.744 140.636C125.343 140.879 124.9 141 124.414 141H124.358ZM135.911 140.916C135.977 140.356 136.009 139.409 136.009 138.074C136.009 136.805 135.981 135.493 135.925 134.14C135.879 132.777 135.823 131.895 135.757 131.494L136.877 131.256C136.933 131.685 136.989 132.623 137.045 134.07C137.111 135.507 137.143 136.875 137.143 138.172C137.143 139.479 137.111 140.44 137.045 141.056L135.911 140.916ZM147.711 144.906C146.909 144.906 146.195 144.747 145.569 144.43C144.953 144.122 144.468 143.679 144.113 143.1C143.759 142.521 143.581 141.845 143.581 141.07C143.581 140.501 143.675 139.899 143.861 139.264C144.048 138.629 144.263 138.069 144.505 137.584L145.457 138.032C144.935 139.133 144.673 140.095 144.673 140.916C144.673 141.803 144.935 142.479 145.457 142.946C145.98 143.413 146.731 143.646 147.711 143.646C148.281 143.646 148.817 143.571 149.321 143.422C149.835 143.273 150.255 143.086 150.581 142.862C150.908 142.647 151.095 142.456 151.141 142.288C151.095 142.185 150.931 142.022 150.651 141.798C150.381 141.583 150.04 141.355 149.629 141.112C149.219 140.869 148.794 140.659 148.355 140.482L148.621 139.292C150.068 139.591 151.421 139.74 152.681 139.74H153.283L153.353 140.37L153.283 141H152.681C152.037 141 151.323 140.949 150.539 140.846C149.765 140.743 149.041 140.622 148.369 140.482L148.649 139.67L148.929 139.796C149.863 140.207 150.642 140.613 151.267 141.014C151.902 141.425 152.219 141.859 152.219 142.316C152.219 142.745 152.009 143.156 151.589 143.548C151.179 143.949 150.623 144.276 149.923 144.528C149.233 144.78 148.495 144.906 147.711 144.906ZM153.403 139.74H153.963C154.962 139.74 155.667 139.647 156.077 139.46C156.488 139.264 156.693 138.947 156.693 138.508C156.684 138.219 156.586 137.78 156.399 137.192C156.222 136.595 156.068 136.165 155.937 135.904L156.945 135.372C157.132 135.736 157.314 136.231 157.491 136.856C157.678 137.472 157.771 138.009 157.771 138.466C157.771 139.297 157.468 139.927 156.861 140.356C156.255 140.785 155.34 141 154.117 141H153.403V139.74ZM153.585 142.946L154.215 142.316L155.153 143.254L154.215 144.206L153.277 143.254L153.585 142.946ZM156.077 142.946L156.707 142.316L157.645 143.254L156.707 144.206L155.769 143.254L156.077 142.946ZM153.165 141L153.095 140.37L153.165 139.74H153.529V141H153.165ZM160.448 131.256C160.522 131.732 160.578 132.567 160.616 133.762C160.662 134.947 160.686 136.025 160.686 136.996V137.584L160.672 138.074C160.672 138.513 160.709 138.849 160.784 139.082C160.858 139.306 160.998 139.474 161.204 139.586C161.418 139.689 161.736 139.74 162.156 139.74H162.226L162.296 140.37L162.226 141H162.156C161.493 141 160.975 140.893 160.602 140.678C160.228 140.454 159.962 140.123 159.804 139.684C159.654 139.245 159.58 138.667 159.58 137.948C159.58 136.884 159.556 135.68 159.51 134.336C159.472 132.983 159.412 132.035 159.328 131.494L160.448 131.256ZM162.092 139.74H162.204C162.876 139.74 163.389 139.67 163.744 139.53C164.099 139.381 164.337 139.147 164.458 138.83C164.505 138.699 164.528 138.517 164.528 138.284C164.528 138.051 164.491 137.654 164.416 137.094L164.36 136.688L165.382 136.492C165.503 137.08 165.564 137.827 165.564 138.732C165.629 139.059 165.774 139.311 165.998 139.488C166.222 139.656 166.502 139.74 166.838 139.74H166.95L167.02 140.37L166.95 141H166.838C166.371 141 165.961 140.865 165.606 140.594C165.261 140.314 165.018 139.959 164.878 139.53L165.172 139.586C164.995 140.099 164.663 140.463 164.178 140.678C163.702 140.893 163.044 141 162.204 141H162.092V139.74ZM161.98 143.296L162.316 142.96C162.755 142.521 162.974 142.302 162.974 142.302C162.974 142.302 163.193 142.521 163.632 142.96L163.968 143.296L162.974 144.29L161.98 143.296ZM166.809 139.74H167.369C168.368 139.74 169.072 139.647 169.483 139.46C169.894 139.264 170.099 138.947 170.099 138.508C170.09 138.219 169.992 137.78 169.805 137.192C169.628 136.595 169.474 136.165 169.343 135.904L170.351 135.372C170.538 135.736 170.72 136.231 170.897 136.856C171.084 137.472 171.177 138.009 171.177 138.466C171.177 139.297 170.874 139.927 170.267 140.356C169.66 140.785 168.746 141 167.523 141H166.809V139.74ZM166.333 142.974L166.963 142.344L167.901 143.282L166.963 144.234L166.025 143.282L166.333 142.974ZM168.825 142.974L169.455 142.344L170.393 143.282L169.455 144.234L168.517 143.282L168.825 142.974ZM171.746 143.926C172.343 143.721 172.885 143.45 173.37 143.114C173.855 142.778 174.233 142.419 174.504 142.036C174.784 141.653 174.924 141.294 174.924 140.958C174.924 140.482 174.686 139.315 174.21 137.458L175.288 137.052C175.493 137.715 175.661 138.415 175.792 139.152C175.932 139.889 176.002 140.491 176.002 140.958C176.002 141.509 175.839 142.045 175.512 142.568C175.185 143.1 174.733 143.576 174.154 143.996C173.585 144.425 172.941 144.766 172.222 145.018L171.746 143.926ZM173.524 134.658L173.86 134.322C174.299 133.883 174.518 133.664 174.518 133.664C174.518 133.664 174.737 133.883 175.176 134.322L175.512 134.658L174.518 135.652L173.524 134.658ZM186.367 134.21C186.535 136.077 186.661 137.337 186.745 137.99C186.792 138.466 186.857 138.825 186.941 139.068C187.034 139.311 187.17 139.483 187.347 139.586C187.524 139.689 187.781 139.74 188.117 139.74H188.313L188.383 140.37L188.313 141H188.117C187.37 141 186.801 140.781 186.409 140.342C186.017 139.894 185.765 139.166 185.653 138.158L185.415 136.002L185.233 134.434L186.367 134.21ZM186.297 140.02C185.746 140.207 185.196 140.3 184.645 140.3C183.88 140.3 183.25 140.123 182.755 139.768C182.27 139.413 182.027 138.933 182.027 138.326C182.027 137.001 183.217 135.951 185.597 135.176L185.835 136.352C185.098 136.548 184.463 136.814 183.931 137.15C183.399 137.477 183.119 137.794 183.091 138.102C183.063 138.373 183.18 138.597 183.441 138.774C183.712 138.951 184.076 139.04 184.533 139.04C185 139.04 185.494 138.947 186.017 138.76L186.297 140.02ZM188.151 139.74H188.263C188.935 139.74 189.448 139.67 189.803 139.53C190.157 139.381 190.395 139.147 190.517 138.83C190.563 138.699 190.587 138.517 190.587 138.284C190.587 138.051 190.549 137.654 190.475 137.094L190.419 136.688L191.441 136.492C191.562 137.08 191.623 137.827 191.623 138.732C191.688 139.059 191.833 139.311 192.057 139.488C192.281 139.656 192.561 139.74 192.897 139.74H193.009L193.079 140.37L193.009 141H192.897C192.43 141 192.019 140.865 191.665 140.594C191.319 140.314 191.077 139.959 190.937 139.53L191.231 139.586C191.053 140.099 190.722 140.463 190.237 140.678C189.761 140.893 189.103 141 188.263 141H188.151V139.74ZM188.949 134.336L189.285 134C189.723 133.561 189.943 133.342 189.943 133.342C189.943 133.342 190.162 133.561 190.601 134L190.937 134.336L189.943 135.33L188.949 134.336ZM192.867 139.74H192.994C193.712 139.74 194.272 139.712 194.674 139.656C195.075 139.591 195.369 139.493 195.556 139.362C195.742 139.231 195.878 139.054 195.962 138.83C196.018 138.662 196.046 138.461 196.046 138.228C196.046 137.929 195.99 137.416 195.878 136.688L196.914 136.492C197.026 137.08 197.086 137.827 197.096 138.732C197.226 139.404 197.651 139.74 198.37 139.74H198.468L198.538 140.37L198.468 141H198.37C197.903 141 197.492 140.865 197.138 140.594C196.792 140.314 196.55 139.959 196.41 139.53L196.69 139.586C196.568 139.941 196.368 140.221 196.088 140.426C195.808 140.631 195.42 140.781 194.926 140.874C194.44 140.958 193.796 141 192.994 141H192.867V139.74ZM192.489 142.946L193.12 142.316L194.058 143.254L193.12 144.206L192.181 143.254L192.489 142.946ZM194.982 142.946L195.612 142.316L196.55 143.254L195.612 144.206L194.674 143.254L194.982 142.946ZM201.011 138.634C201.599 139.035 202.126 139.343 202.593 139.558C203.059 139.773 203.419 139.88 203.671 139.88C203.755 139.88 203.834 139.861 203.909 139.824C204.077 139.74 204.203 139.6 204.287 139.404C204.371 139.208 204.413 138.984 204.413 138.732C204.413 138.275 204.296 137.859 204.063 137.486C203.839 137.113 203.54 136.926 203.167 136.926C202.877 136.926 202.569 137.131 202.243 137.542C201.916 137.943 201.557 138.536 201.165 139.32C200.885 139.871 200.521 140.291 200.073 140.58C199.634 140.86 199.135 141 198.575 141H198.323L198.337 139.74H198.603C198.985 139.74 199.335 139.633 199.653 139.418C199.979 139.194 200.25 138.867 200.465 138.438C200.857 137.645 201.263 137.01 201.683 136.534C202.103 136.058 202.565 135.806 203.069 135.778C203.535 135.75 203.946 135.876 204.301 136.156C204.665 136.427 204.94 136.791 205.127 137.248C205.323 137.696 205.421 138.167 205.421 138.662C205.421 139.157 205.323 139.609 205.127 140.02C204.931 140.421 204.641 140.725 204.259 140.93C204.1 141.023 203.899 141.07 203.657 141.07C202.947 141.07 201.897 140.608 200.507 139.684L201.011 138.634ZM204.982 143.926C205.58 143.721 206.121 143.45 206.606 143.114C207.092 142.778 207.47 142.419 207.74 142.036C208.02 141.653 208.16 141.294 208.16 140.958C208.16 140.482 207.922 139.315 207.446 137.458L208.524 137.052C208.73 137.715 208.898 138.415 209.028 139.152C209.168 139.889 209.238 140.491 209.238 140.958C209.238 141.509 209.075 142.045 208.748 142.568C208.422 143.1 207.969 143.576 207.39 143.996C206.821 144.425 206.177 144.766 205.458 145.018L204.982 143.926ZM206.76 134.658L207.096 134.322C207.535 133.883 207.754 133.664 207.754 133.664C207.754 133.664 207.974 133.883 208.412 134.322L208.748 134.658L207.754 135.652L206.76 134.658ZM213.568 143.926C214.166 143.721 214.707 143.45 215.192 143.114C215.678 142.778 216.056 142.419 216.326 142.036C216.606 141.653 216.746 141.294 216.746 140.958C216.746 140.482 216.508 139.315 216.032 137.458L217.11 137.052C217.316 137.715 217.484 138.415 217.614 139.152C217.754 139.889 217.824 140.491 217.824 140.958C217.824 141.509 217.661 142.045 217.334 142.568C217.008 143.1 216.555 143.576 215.976 143.996C215.407 144.425 214.763 144.766 214.044 145.018L213.568 143.926ZM219.347 139.124C219.384 139.143 219.52 139.222 219.753 139.362C219.996 139.493 220.299 139.605 220.663 139.698C221.036 139.791 221.428 139.838 221.839 139.838C222.343 139.838 222.754 139.768 223.071 139.628C223.398 139.479 223.608 139.315 223.701 139.138C223.748 139.026 223.771 138.909 223.771 138.788C223.771 138.349 223.528 137.808 223.043 137.164C222.567 136.511 221.839 135.825 220.859 135.106L221.489 134.014C222.525 134.798 223.332 135.61 223.911 136.45C224.499 137.281 224.793 138.06 224.793 138.788C224.793 139.124 224.732 139.427 224.611 139.698C224.424 140.127 224.088 140.459 223.603 140.692C223.118 140.925 222.562 141.042 221.937 141.042C221.2 141.042 220.57 140.944 220.047 140.748C219.524 140.543 219.109 140.309 218.801 140.048L219.347 139.124ZM234.335 141C233.756 141 233.308 140.799 232.991 140.398C232.673 139.997 232.407 139.418 232.193 138.662L232.977 138.186C233.117 138.755 233.285 139.157 233.481 139.39C233.686 139.623 233.971 139.74 234.335 139.74H234.433L234.503 140.37L234.433 141H234.335ZM229.141 143.926C229.738 143.721 230.279 143.45 230.765 143.114C231.25 142.778 231.628 142.419 231.899 142.036C232.179 141.653 232.319 141.294 232.319 140.958C232.319 140.482 232.081 139.315 231.605 137.458L232.683 137.052C232.888 137.715 233.056 138.415 233.187 139.152C233.327 139.889 233.397 140.491 233.397 140.958C233.397 141.509 233.233 142.045 232.907 142.568C232.58 143.1 232.127 143.576 231.549 143.996C230.979 144.425 230.335 144.766 229.617 145.018L229.141 143.926ZM234.293 139.74H234.405C235.077 139.74 235.591 139.67 235.945 139.53C236.3 139.381 236.538 139.147 236.659 138.83C236.706 138.699 236.729 138.517 236.729 138.284C236.729 138.051 236.692 137.654 236.617 137.094L236.561 136.688L237.583 136.492C237.705 137.08 237.765 137.827 237.765 138.732C237.831 139.059 237.975 139.311 238.199 139.488C238.423 139.656 238.703 139.74 239.039 139.74H239.151L239.221 140.37L239.151 141H239.039C238.573 141 238.162 140.865 237.807 140.594C237.462 140.314 237.219 139.959 237.079 139.53L237.373 139.586C237.196 140.099 236.865 140.463 236.379 140.678C235.903 140.893 235.245 141 234.405 141H234.293V139.74ZM234.965 143.282L235.301 142.946C235.74 142.507 235.959 142.288 235.959 142.288C235.959 142.288 236.179 142.507 236.617 142.946L236.953 143.282L235.959 144.276L234.965 143.282ZM239.01 139.74H239.136C239.855 139.74 240.415 139.712 240.816 139.656C241.217 139.591 241.511 139.493 241.698 139.362C241.885 139.231 242.02 139.054 242.104 138.83C242.16 138.662 242.188 138.461 242.188 138.228C242.188 137.929 242.132 137.416 242.02 136.688L243.056 136.492C243.168 137.08 243.229 137.827 243.238 138.732C243.369 139.404 243.793 139.74 244.512 139.74H244.61L244.68 140.37L244.61 141H244.512C244.045 141 243.635 140.865 243.28 140.594C242.935 140.314 242.692 139.959 242.552 139.53L242.832 139.586C242.711 139.941 242.51 140.221 242.23 140.426C241.95 140.631 241.563 140.781 241.068 140.874C240.583 140.958 239.939 141 239.136 141H239.01V139.74ZM239.78 134.07L240.41 133.44L241.348 134.378L240.41 135.33L239.472 134.378L239.78 134.07ZM242.272 134.07L242.902 133.44L243.84 134.378L242.902 135.33L241.964 134.378L242.272 134.07ZM244.465 139.74H244.759C245.991 139.74 247.022 139.558 247.853 139.194C248.684 138.83 249.304 138.429 249.715 137.99C250.126 137.542 250.378 137.173 250.471 136.884C250.378 136.688 250.163 136.529 249.827 136.408C249.5 136.287 249.118 136.226 248.679 136.226C248.287 136.226 247.9 136.282 247.517 136.394C247.134 136.497 246.808 136.655 246.537 136.87C247.125 137.57 247.671 138.125 248.175 138.536C248.679 138.937 249.23 139.241 249.827 139.446C250.424 139.642 251.12 139.74 251.913 139.74H252.263L252.333 140.37L252.263 141H251.913C250.942 141 250.102 140.874 249.393 140.622C248.693 140.361 248.04 139.959 247.433 139.418C246.826 138.867 246.136 138.097 245.361 137.108L245.403 136.282C245.776 135.909 246.252 135.624 246.831 135.428C247.41 135.232 248.007 135.134 248.623 135.134C249.323 135.134 249.934 135.255 250.457 135.498C250.98 135.731 251.306 136.063 251.437 136.492C251.456 136.585 251.465 136.665 251.465 136.73C251.465 137.234 251.171 137.827 250.583 138.508C249.995 139.189 249.188 139.777 248.161 140.272C247.134 140.757 246 141 244.759 141H244.465V139.74ZM254.809 138.634C255.397 139.035 255.925 139.343 256.391 139.558C256.858 139.773 257.217 139.88 257.469 139.88C257.553 139.88 257.633 139.861 257.707 139.824C257.875 139.74 258.001 139.6 258.085 139.404C258.169 139.208 258.211 138.984 258.211 138.732C258.211 138.275 258.095 137.859 257.861 137.486C257.637 137.113 257.339 136.926 256.965 136.926C256.676 136.926 256.368 137.131 256.041 137.542C255.715 137.943 255.355 138.536 254.963 139.32C254.683 139.871 254.319 140.291 253.871 140.58C253.433 140.86 252.933 141 252.373 141H252.121L252.135 139.74H252.401C252.784 139.74 253.134 139.633 253.451 139.418C253.778 139.194 254.049 138.867 254.263 138.438C254.655 137.645 255.061 137.01 255.481 136.534C255.901 136.058 256.363 135.806 256.867 135.778C257.334 135.75 257.745 135.876 258.099 136.156C258.463 136.427 258.739 136.791 258.925 137.248C259.121 137.696 259.219 138.167 259.219 138.662C259.219 139.157 259.121 139.609 258.925 140.02C258.729 140.421 258.44 140.725 258.057 140.93C257.899 141.023 257.698 141.07 257.455 141.07C256.746 141.07 255.696 140.608 254.305 139.684L254.809 138.634Z" fill="#8F8F8F"/>
<rect x="157" y="7" width="57" height="57" rx="28.5" fill="#F1F6FE"/>
<path d="M193.018 50.6159C192.267 50.6159 191.304 50.3751 190.1 49.6668L185.864 47.1593C185.425 46.9043 184.575 46.9043 184.15 47.1593L179.9 49.6668C177.392 51.1543 175.919 50.5593 175.253 50.0776C174.602 49.596 173.582 48.3635 174.247 45.5301L175.253 41.181C175.367 40.7276 175.14 39.9485 174.8 39.6084L171.287 36.0951C169.53 34.3385 169.672 32.8368 169.912 32.1001C170.153 31.3635 170.918 30.0601 173.355 29.6493L177.874 28.8984C178.299 28.8276 178.908 28.3743 179.092 27.9918L181.6 22.991C182.733 20.7101 184.221 20.3701 185 20.3701C185.779 20.3701 187.267 20.7101 188.4 22.991L190.893 27.9776C191.092 28.3601 191.701 28.8134 192.126 28.8843L196.645 29.6351C199.096 30.0459 199.861 31.3493 200.087 32.086C200.314 32.8226 200.456 34.3243 198.713 36.081L195.2 39.6084C194.86 39.9485 194.647 40.7135 194.747 41.181L195.752 45.5301C196.404 48.3635 195.398 49.596 194.747 50.0776C194.392 50.3326 193.826 50.6159 193.018 50.6159ZM185 44.836C185.694 44.836 186.388 45.006 186.941 45.3318L191.177 47.8393C192.409 48.5759 193.188 48.576 193.486 48.3635C193.783 48.1509 193.996 47.4001 193.684 46.0118L192.678 41.6626C192.409 40.4868 192.848 38.971 193.698 38.1068L197.212 34.5934C197.906 33.8993 198.217 33.2193 198.076 32.7518C197.92 32.2843 197.268 31.9018 196.305 31.746L191.786 30.9951C190.695 30.8109 189.505 29.9326 189.009 28.9409L186.516 23.9543C186.062 23.0476 185.496 22.5093 185 22.5093C184.504 22.5093 183.937 23.0476 183.498 23.9543L180.991 28.9409C180.495 29.9326 179.305 30.8109 178.214 30.9951L173.709 31.746C172.746 31.9018 172.094 32.2843 171.938 32.7518C171.782 33.2193 172.108 33.9135 172.802 34.5934L176.316 38.1068C177.166 38.9568 177.605 40.4868 177.336 41.6626L176.33 46.0118C176.004 47.4143 176.231 48.1509 176.528 48.3635C176.826 48.576 177.591 48.5618 178.837 47.8393L183.073 45.3318C183.612 45.006 184.306 44.836 185 44.836Z" fill="#4BB09C"/>
</g>
<defs>
<filter id="filter0_d_1211_11741" x="0" y="0" width="370" height="179" filterUnits="userSpaceOnUse" color-interpolation-filters="sRGB">
<feFlood flood-opacity="0" result="BackgroundImageFix"/>
<feColorMatrix in="SourceAlpha" type="matrix" values="0 0 0 0 0 0 0 0 0 0 0 0 0 0 0 0 0 0 127 0" result="hardAlpha"/>
<feOffset/>
<feGaussianBlur stdDeviation="3.5"/>
<feComposite in2="hardAlpha" operator="out"/>
<feColorMatrix type="matrix" values="0 0 0 0 0 0 0 0 0 0 0 0 0 0 0 0 0 0 0.1 0"/>
<feBlend mode="normal" in2="BackgroundImageFix" result="effect1_dropShadow_1211_11741"/>
<feBlend mode="normal" in="SourceGraphic" in2="effect1_dropShadow_1211_11741" result="shape"/>
</filter>
</defs>
</svg>
