<svg width="1441" height="536" viewBox="0 0 1441 536" fill="none" xmlns="http://www.w3.org/2000/svg">
<g clip-path="url(#clip0_2477_19257)">
<rect width="1441" height="536" fill="white"/>
<g opacity="0.24">
<path d="M-111.842 325.677L-111.842 325.677C-126.746 308.295 -133.387 286.447 -136.094 264.786L-136.59 264.848L-136.094 264.786C-145.955 186.063 -106.377 106.292 -42.8869 49.6349C20.6021 -7.0214 105.753 -42.3237 193.669 -62.2181L193.559 -62.7057L193.67 -62.2181C281.575 -82.1125 372.847 -87.5544 463.583 -91.7144L463.56 -92.2139L463.583 -91.7144C483.689 -92.6382 504.038 -93.4689 523.588 -89.5562C543.141 -85.6429 562.055 -76.3187 572.051 -61.2533L572.468 -61.5297L572.051 -61.2531C575.584 -55.9337 578.579 -48.0707 578.878 -40.6057C579.176 -33.152 576.793 -26.1907 569.688 -22.4531C563.926 -19.4243 555.769 -18.2546 547.309 -17.4506C545.425 -17.2715 543.526 -17.1106 541.638 -16.9507C535.097 -16.3967 528.688 -15.8537 523.491 -14.6046C485.339 -5.45142 449.857 12.057 421.045 35.7447C404.85 49.0597 390.746 64.3552 379.539 81.1655L379.955 81.4429L379.539 81.1656C370.637 94.5215 363.504 108.651 356.62 122.869C355.527 125.126 354.441 127.385 353.354 129.643C347.594 141.621 341.84 153.584 335.178 165.159C319.345 192.666 296.755 219.017 264.325 230.817C237.311 240.653 207.045 239.288 176.866 237.927C174.83 237.836 172.794 237.744 170.76 237.655C138.627 236.26 106.85 235.73 79.7929 249.865C58.3655 261.057 44.0392 279.578 29.9784 297.755C27.1597 301.399 24.3516 305.029 21.4991 308.584C4.38876 329.905 -18.4193 350.88 -47.9094 353.282C-72.617 355.299 -96.9477 343.07 -111.842 325.677Z" stroke="#8F8F8F"/>
<path d="M361.22 73.9619C343.482 100.613 332.776 130.373 316.938 157.928C301.099 185.482 278.464 211.948 245.922 223.806C188.101 244.887 115.475 214.699 61.7075 242.827C36.1401 256.201 20.7575 280.072 3.65329 301.416C-13.4509 322.759 -36.3416 343.88 -66.0074 346.3C-90.864 348.331 -115.31 336.017 -130.27 318.522C-145.242 301.037 -151.895 279.08 -154.605 257.367C-164.479 178.436 -124.85 98.5131 -61.3648 41.7809C2.12057 -14.9513 87.2417 -50.2813 175.084 -70.1867C262.915 -90.0921 354.1 -95.5349 444.708 -99.6948C464.778 -100.618 485.158 -101.454 504.75 -97.5274C524.342 -93.6008 543.379 -84.2312 553.464 -69.0106C560.605 -58.2415 565.57 -37.2087 550.921 -29.4915C539.214 -23.3294 517.956 -24.797 504.673 -21.5994C466.643 -12.4631 431.28 5.01239 402.569 28.65C386.432 41.9364 372.382 57.1959 361.22 73.9619Z" fill="url(#paint0_linear_2477_19257)"/>
<path d="M-135.092 267.199L-135.092 267.198C-149.497 250.177 -155.52 229.033 -157.62 208.149L-158.117 208.203L-157.62 208.149C-165.273 132.245 -123.505 56.3407 -58.481 3.15014C6.54203 -50.0393 92.6156 -82.2462 181.023 -99.5763C269.419 -116.907 360.775 -120.267 451.558 -122.405L451.55 -122.904L451.558 -122.405C471.675 -122.88 492.033 -123.262 511.461 -119.096C530.895 -114.93 549.534 -105.572 559.098 -90.8802L559.518 -91.1553L559.098 -90.88C562.478 -85.6938 565.248 -78.075 565.338 -70.897C565.428 -63.7357 562.86 -57.0965 555.656 -53.6477C549.812 -50.8518 541.626 -49.8941 533.15 -49.2945C531.262 -49.161 529.359 -49.0452 527.468 -48.9301C520.917 -48.5316 514.499 -48.1411 509.273 -47.0466C470.896 -39.0268 434.953 -22.9161 405.501 -0.72404C388.946 11.7502 374.425 26.1729 362.755 42.113L363.158 42.406L362.755 42.1131C353.487 54.7776 345.963 68.2224 338.687 81.7565C337.532 83.9048 336.383 86.0552 335.235 88.205C329.144 99.6072 323.061 110.995 316.081 121.991C299.495 148.118 276.187 172.999 243.45 183.684C216.178 192.59 185.97 190.656 155.852 188.727C153.82 188.597 151.788 188.467 149.758 188.34C117.689 186.339 85.9554 185.176 58.5271 198.215C36.8032 208.54 21.9695 226.06 7.41139 243.255C4.49304 246.702 1.58577 250.136 -1.36371 253.496C-19.0537 273.649 -42.4309 293.358 -71.9723 295.063C-96.7255 296.496 -120.698 284.23 -135.092 267.199Z" stroke="#8F8F8F"/>
</g>
<path d="M61.895 141.733V129.577M69.121 135.655H54.6689H69.121Z" stroke="#393939" stroke-opacity="0.1" stroke-miterlimit="10"/>
<path d="M61.895 111.809V99.6528M69.121 105.731H54.6689H69.121Z" stroke="#393939" stroke-opacity="0.1" stroke-miterlimit="10"/>
<path d="M61.895 82.8215V70.665M69.121 76.7433H54.6689H69.121Z" stroke="#393939" stroke-opacity="0.1" stroke-miterlimit="10"/>
<path d="M61.895 141.733V129.577M69.121 135.655H54.6689H69.121Z" stroke="#393939" stroke-opacity="0.1" stroke-width="2" stroke-miterlimit="10"/>
<path d="M61.895 111.809V99.6528M69.121 105.731H54.6689H69.121Z" stroke="#393939" stroke-opacity="0.1" stroke-width="2" stroke-miterlimit="10"/>
<path d="M61.895 82.8215V70.665M69.121 76.7433H54.6689H69.121Z" stroke="#393939" stroke-opacity="0.1" stroke-width="2" stroke-miterlimit="10"/>
<path d="M95.2456 141.733V129.577M102.472 135.655H88.0195H102.472Z" stroke="#393939" stroke-opacity="0.1" stroke-miterlimit="10"/>
<path d="M95.2456 111.809V99.6528M102.472 105.731H88.0195H102.472Z" stroke="#393939" stroke-opacity="0.1" stroke-miterlimit="10"/>
<path d="M95.2456 82.8215V70.665M102.472 76.7433H88.0195H102.472Z" stroke="#393939" stroke-opacity="0.1" stroke-miterlimit="10"/>
<path d="M95.2456 141.733V129.577M102.472 135.655H88.0195H102.472Z" stroke="#393939" stroke-opacity="0.1" stroke-width="2" stroke-miterlimit="10"/>
<path d="M95.2456 111.809V99.6528M102.472 105.731H88.0195H102.472Z" stroke="#393939" stroke-opacity="0.1" stroke-width="2" stroke-miterlimit="10"/>
<path d="M95.2456 82.8215V70.665M102.472 76.7433H88.0195H102.472Z" stroke="#393939" stroke-opacity="0.1" stroke-width="2" stroke-miterlimit="10"/>
<path d="M128.596 111.809V99.6528M135.822 105.731H121.37H135.822Z" stroke="#393939" stroke-opacity="0.1" stroke-miterlimit="10"/>
<path d="M128.596 82.8215V70.665M135.822 76.7433H121.37H135.822Z" stroke="#393939" stroke-opacity="0.1" stroke-miterlimit="10"/>
<path d="M128.596 111.809V99.6528M135.822 105.731H121.37H135.822Z" stroke="#393939" stroke-opacity="0.1" stroke-width="2" stroke-miterlimit="10"/>
<path d="M128.596 82.8215V70.665M135.822 76.7433H121.37H135.822Z" stroke="#393939" stroke-opacity="0.1" stroke-width="2" stroke-miterlimit="10"/>
<path d="M161.948 111.809V99.6528M169.174 105.731H154.722H169.174Z" stroke="#393939" stroke-opacity="0.1" stroke-miterlimit="10"/>
<path d="M161.948 82.8215V70.665M169.174 76.7433H154.722H169.174Z" stroke="#393939" stroke-opacity="0.1" stroke-miterlimit="10"/>
<path d="M161.948 111.809V99.6528M169.174 105.731H154.722H169.174Z" stroke="#393939" stroke-opacity="0.1" stroke-width="2" stroke-miterlimit="10"/>
<path d="M161.948 82.8215V70.665M169.174 76.7433H154.722H169.174Z" stroke="#393939" stroke-opacity="0.1" stroke-width="2" stroke-miterlimit="10"/>
<path d="M195.298 111.809V99.6528M202.524 105.731H188.072H202.524Z" stroke="#393939" stroke-opacity="0.1" stroke-miterlimit="10"/>
<path d="M195.298 82.8215V70.665M202.524 76.7433H188.072H202.524Z" stroke="#393939" stroke-opacity="0.1" stroke-miterlimit="10"/>
<path d="M195.298 111.809V99.6528M202.524 105.731H188.072H202.524Z" stroke="#393939" stroke-opacity="0.1" stroke-width="2" stroke-miterlimit="10"/>
<path d="M195.298 82.8215V70.665M202.524 76.7433H188.072H202.524Z" stroke="#393939" stroke-opacity="0.1" stroke-width="2" stroke-miterlimit="10"/>
<g opacity="0.52">
<path d="M21.5649 343.718V331.561M28.7909 337.639H14.3389H28.7909Z" stroke="#393939" stroke-opacity="0.1" stroke-miterlimit="10"/>
<path d="M21.5649 313.794V301.637M28.7909 307.715H14.3389H28.7909Z" stroke="#393939" stroke-opacity="0.1" stroke-miterlimit="10"/>
<path d="M21.5649 284.806V272.649M28.7909 278.728H14.3389H28.7909Z" stroke="#393939" stroke-opacity="0.1" stroke-miterlimit="10"/>
<path d="M21.5649 343.718V331.561M28.7909 337.639H14.3389H28.7909Z" stroke="#393939" stroke-opacity="0.1" stroke-width="2" stroke-miterlimit="10"/>
<path d="M21.5649 313.794V301.637M28.7909 307.715H14.3389H28.7909Z" stroke="#393939" stroke-opacity="0.1" stroke-width="2" stroke-miterlimit="10"/>
<path d="M21.5649 284.806V272.649M28.7909 278.728H14.3389H28.7909Z" stroke="#393939" stroke-opacity="0.1" stroke-width="2" stroke-miterlimit="10"/>
<path d="M54.9155 313.794V301.637M62.1415 307.715H47.6895H62.1415Z" stroke="#393939" stroke-opacity="0.1" stroke-miterlimit="10"/>
<path d="M54.9155 284.806V272.649M62.1415 278.728H47.6895H62.1415Z" stroke="#393939" stroke-opacity="0.1" stroke-miterlimit="10"/>
<path d="M54.9155 313.794V301.637M62.1415 307.715H47.6895H62.1415Z" stroke="#393939" stroke-opacity="0.1" stroke-width="2" stroke-miterlimit="10"/>
<path d="M54.9155 284.806V272.649M62.1415 278.728H47.6895H62.1415Z" stroke="#393939" stroke-opacity="0.1" stroke-width="2" stroke-miterlimit="10"/>
<path d="M88.2661 313.794V301.637M95.4921 307.715H81.04H95.4921Z" stroke="#393939" stroke-opacity="0.1" stroke-miterlimit="10"/>
<path d="M88.2661 284.806V272.649M95.4921 278.728H81.04H95.4921Z" stroke="#393939" stroke-opacity="0.1" stroke-miterlimit="10"/>
<path d="M88.2661 313.794V301.637M95.4921 307.715H81.04H95.4921Z" stroke="#393939" stroke-opacity="0.1" stroke-width="2" stroke-miterlimit="10"/>
<path d="M88.2661 284.806V272.649M95.4921 278.728H81.04H95.4921Z" stroke="#393939" stroke-opacity="0.1" stroke-width="2" stroke-miterlimit="10"/>
<path d="M121.618 313.794V301.637M128.844 307.715H114.392H128.844Z" stroke="#393939" stroke-opacity="0.1" stroke-miterlimit="10"/>
<path d="M121.618 284.806V272.649M128.844 278.728H114.392H128.844Z" stroke="#393939" stroke-opacity="0.1" stroke-miterlimit="10"/>
<path d="M121.618 313.794V301.637M128.844 307.715H114.392H128.844Z" stroke="#393939" stroke-opacity="0.1" stroke-width="2" stroke-miterlimit="10"/>
<path d="M121.618 284.806V272.649M128.844 278.728H114.392H128.844Z" stroke="#393939" stroke-opacity="0.1" stroke-width="2" stroke-miterlimit="10"/>
</g>
<path d="M534.059 231.677C534.059 231.677 525.322 218.916 525.203 212.854C525.083 206.791 528.753 209.286 528.753 209.286C528.753 209.286 528.715 205.679 532.116 204.299C535.517 202.919 538.032 206.765 538.032 206.765C538.032 206.765 541.21 204.48 542.281 207.332C545.318 215.415 534.059 231.677 534.059 231.677Z" fill="#D666FF" fill-opacity="0.06"/>
<g filter="url(#filter0_f_2477_19257)">
<path d="M538.155 212.764C537.617 210.548 536.047 215.056 536.047 215.056C536.047 215.056 534.76 209.335 533.054 210.407C531.348 211.48 531.494 216.691 531.494 216.691C531.494 216.691 529.526 212.344 529.585 217.054C529.645 221.763 534.029 231.676 534.029 231.676C534.029 231.676 539.679 219.043 538.155 212.764Z" fill="#D666FF" fill-opacity="0.06"/>
</g>
<path d="M533.942 231.676C533.942 231.676 542.678 244.437 542.798 250.499C542.918 256.562 539.247 254.067 539.247 254.067C539.247 254.067 539.286 257.674 535.885 259.055C532.484 260.435 529.97 256.588 529.97 256.588C529.97 256.588 526.792 258.873 525.72 256.021C522.682 247.939 533.942 231.676 533.942 231.676Z" fill="#D666FF" fill-opacity="0.06"/>
<g filter="url(#filter1_f_2477_19257)">
<path d="M529.845 250.589C530.383 252.805 531.952 248.297 531.952 248.297C531.952 248.297 533.239 254.018 534.945 252.945C536.652 251.873 536.505 246.661 536.505 246.661C536.505 246.661 538.474 251.009 538.414 246.299C538.354 241.589 533.97 231.676 533.97 231.676C533.97 231.676 528.321 244.31 529.845 250.589Z" fill="#D666FF" fill-opacity="0.06"/>
</g>
<path d="M534.029 231.726C534.029 231.726 541.016 217.937 546.285 214.902C551.555 211.866 551.138 216.273 551.138 216.273C551.138 216.273 554.288 214.496 557.146 216.794C560.003 219.092 557.838 223.144 557.838 223.144C557.838 223.144 561.383 224.811 559.395 227.124C553.762 233.681 534.029 231.726 534.029 231.726Z" fill="#D666FF" fill-opacity="0.06"/>
<g filter="url(#filter2_f_2477_19257)">
<path d="M552.627 226.155C554.314 224.615 549.595 225.426 549.595 225.426C549.595 225.426 554 221.538 552.232 220.568C550.465 219.598 545.957 222.246 545.957 222.246C545.957 222.246 548.824 218.427 544.715 220.757C540.605 223.086 534.015 231.702 534.015 231.702C534.015 231.702 547.848 230.52 552.627 226.155Z" fill="#D666FF" fill-opacity="0.06"/>
</g>
<path d="M533.972 231.625C533.972 231.625 526.985 245.414 521.715 248.449C516.446 251.485 516.863 247.078 516.863 247.078C516.863 247.078 513.713 248.856 510.855 246.558C507.998 244.259 510.162 240.207 510.162 240.207C510.162 240.207 506.618 238.541 508.605 236.227C514.238 229.67 533.972 231.625 533.972 231.625Z" fill="#D666FF" fill-opacity="0.06"/>
<g filter="url(#filter3_f_2477_19257)">
<path d="M515.373 237.197C513.686 238.737 518.406 237.926 518.406 237.926C518.406 237.926 514.001 241.815 515.768 242.784C517.535 243.754 522.044 241.106 522.044 241.106C522.044 241.106 519.176 244.925 523.286 242.595C527.395 240.266 533.985 231.65 533.985 231.65C533.985 231.65 520.153 232.832 515.373 237.197Z" fill="#D666FF" fill-opacity="0.06"/>
</g>
<path d="M533.97 231.727C533.97 231.727 549.44 230.687 554.747 233.654C560.055 236.623 556.037 238.512 556.037 238.512C556.037 238.512 559.178 240.306 558.649 243.926C558.121 247.547 553.519 247.758 553.519 247.758C553.519 247.758 553.886 251.644 550.875 251.12C542.341 249.636 533.97 231.727 533.97 231.727Z" fill="#D666FF" fill-opacity="0.06"/>
<g filter="url(#filter4_f_2477_19257)">
<path d="M548.264 244.827C550.454 245.487 547.348 241.855 547.348 241.855C547.348 241.855 552.951 243.648 552.888 241.639C552.824 239.63 548.239 237.116 548.239 237.116C548.239 237.116 552.998 237.627 548.892 235.293C544.785 232.959 533.985 231.703 533.985 231.703C533.985 231.703 542.058 242.955 548.264 244.827Z" fill="#D666FF" fill-opacity="0.06"/>
</g>
<path d="M534.03 231.627C534.03 231.627 518.561 232.668 513.253 229.7C507.946 226.731 511.964 224.842 511.964 224.842C511.964 224.842 508.823 223.048 509.351 219.428C509.879 215.807 514.482 215.596 514.482 215.596C514.482 215.596 514.114 211.71 517.125 212.234C525.658 213.719 534.03 231.627 534.03 231.627Z" fill="#D666FF" fill-opacity="0.06"/>
<g filter="url(#filter5_f_2477_19257)">
<path d="M519.735 218.529C517.545 217.869 520.651 221.5 520.651 221.5C520.651 221.5 515.048 219.707 515.111 221.716C515.175 223.725 519.76 226.239 519.76 226.239C519.76 226.239 515.001 225.728 519.107 228.063C523.214 230.397 534.014 231.653 534.014 231.653C534.014 231.653 525.941 220.4 519.735 218.529Z" fill="#D666FF" fill-opacity="0.06"/>
</g>
</g>
<defs>
<filter id="filter0_f_2477_19257" x="515.458" y="196.148" width="37.0829" height="49.6542" filterUnits="userSpaceOnUse" color-interpolation-filters="sRGB">
<feFlood flood-opacity="0" result="BackgroundImageFix"/>
<feBlend mode="normal" in="SourceGraphic" in2="BackgroundImageFix" result="shape"/>
<feGaussianBlur stdDeviation="7.06283" result="effect1_foregroundBlur_2477_19257"/>
</filter>
<filter id="filter1_f_2477_19257" x="515.458" y="217.551" width="37.0829" height="49.6542" filterUnits="userSpaceOnUse" color-interpolation-filters="sRGB">
<feFlood flood-opacity="0" result="BackgroundImageFix"/>
<feBlend mode="normal" in="SourceGraphic" in2="BackgroundImageFix" result="shape"/>
<feGaussianBlur stdDeviation="7.06283" result="effect1_foregroundBlur_2477_19257"/>
</filter>
<filter id="filter2_f_2477_19257" x="519.889" y="205.878" width="47.2279" height="39.9501" filterUnits="userSpaceOnUse" color-interpolation-filters="sRGB">
<feFlood flood-opacity="0" result="BackgroundImageFix"/>
<feBlend mode="normal" in="SourceGraphic" in2="BackgroundImageFix" result="shape"/>
<feGaussianBlur stdDeviation="7.06283" result="effect1_foregroundBlur_2477_19257"/>
</filter>
<filter id="filter3_f_2477_19257" x="500.883" y="217.524" width="47.2279" height="39.9501" filterUnits="userSpaceOnUse" color-interpolation-filters="sRGB">
<feFlood flood-opacity="0" result="BackgroundImageFix"/>
<feBlend mode="normal" in="SourceGraphic" in2="BackgroundImageFix" result="shape"/>
<feGaussianBlur stdDeviation="7.06283" result="effect1_foregroundBlur_2477_19257"/>
</filter>
<filter id="filter4_f_2477_19257" x="519.859" y="217.577" width="47.1547" height="41.4554" filterUnits="userSpaceOnUse" color-interpolation-filters="sRGB">
<feFlood flood-opacity="0" result="BackgroundImageFix"/>
<feBlend mode="normal" in="SourceGraphic" in2="BackgroundImageFix" result="shape"/>
<feGaussianBlur stdDeviation="7.06283" result="effect1_foregroundBlur_2477_19257"/>
</filter>
<filter id="filter5_f_2477_19257" x="500.985" y="204.323" width="47.1547" height="41.4554" filterUnits="userSpaceOnUse" color-interpolation-filters="sRGB">
<feFlood flood-opacity="0" result="BackgroundImageFix"/>
<feBlend mode="normal" in="SourceGraphic" in2="BackgroundImageFix" result="shape"/>
<feGaussianBlur stdDeviation="7.06283" result="effect1_foregroundBlur_2477_19257"/>
</filter>
<linearGradient id="paint0_linear_2477_19257" x1="-156.113" y1="123.026" x2="560.386" y2="123.026" gradientUnits="userSpaceOnUse">
<stop offset="0.085" stop-color="#9EE8DA"/>
<stop offset="0.285" stop-color="#4BB09C"/>
<stop offset="0.69" stop-color="#4BB09C"/>
<stop offset="0.92" stop-color="#275E53"/>
</linearGradient>
<clipPath id="clip0_2477_19257">
<rect width="1441" height="536" fill="white"/>
</clipPath>
</defs>
</svg>
