<svg width="68" height="72" viewBox="0 0 68 72" fill="none" xmlns="http://www.w3.org/2000/svg">
<path d="M34.0593 35.6768C34.0593 35.6768 25.3227 22.9164 25.2031 16.8539C25.0834 10.7914 28.7539 13.2858 28.7539 13.2858C28.7539 13.2858 28.7156 9.67877 32.1166 8.29903C35.5176 6.91863 38.0322 10.7653 38.0322 10.7653C38.0322 10.7653 41.2101 8.48046 42.2819 11.3323C45.3187 19.4146 34.0593 35.6768 34.0593 35.6768Z" fill="#D666FF" fill-opacity="0.06"/>
<g filter="url(#filter0_f_1211_11840)">
<path d="M38.1546 16.7636C37.617 14.5477 36.0473 19.0558 36.0473 19.0558C36.0473 19.0558 34.7604 13.3347 33.0542 14.4071C31.348 15.4796 31.4945 20.6912 31.4945 20.6912C31.4945 20.6912 29.5255 16.3438 29.5853 21.0534C29.6451 25.763 34.0292 35.6762 34.0292 35.6762C34.0292 35.6762 39.6787 23.0424 38.1546 16.7636Z" fill="#D666FF" fill-opacity="0.06"/>
</g>
<path d="M33.9414 35.6763C33.9414 35.6763 42.678 48.4366 42.7976 54.4992C42.9172 60.5617 39.2468 58.0674 39.2468 58.0674C39.2468 58.0674 39.2851 61.6743 35.8841 63.0547C32.4831 64.4351 29.9692 60.5885 29.9692 60.5885C29.9692 60.5885 26.7913 62.8733 25.7195 60.0215C22.6814 51.9385 33.9414 35.6763 33.9414 35.6763Z" fill="#D666FF" fill-opacity="0.06"/>
<g filter="url(#filter1_f_1211_11840)">
<path d="M29.8449 54.5889C30.3825 56.8048 31.9523 52.2967 31.9523 52.2967C31.9523 52.2967 33.2392 58.0178 34.9454 56.9453C36.6516 55.8729 36.5051 50.6612 36.5051 50.6612C36.5051 50.6612 38.4741 55.0086 38.4143 50.2991C38.3545 45.5895 33.9703 35.6763 33.9703 35.6763C33.9703 35.6763 28.3208 48.3101 29.8449 54.5889Z" fill="#D666FF" fill-opacity="0.06"/>
</g>
<path d="M34.0293 35.726C34.0293 35.726 41.0167 21.9373 46.2859 18.902C51.555 15.8661 51.1384 20.2731 51.1384 20.2731C51.1384 20.2731 54.2887 18.4957 57.146 20.7939C60.0034 23.0921 57.8389 27.1443 57.8389 27.1443C57.8389 27.1443 61.383 28.8106 59.3952 31.1242C53.7625 37.6814 34.0293 35.726 34.0293 35.726Z" fill="#D666FF" fill-opacity="0.06"/>
<g filter="url(#filter2_f_1211_11840)">
<path d="M52.628 30.1549C54.3147 28.6145 49.5952 29.4259 49.5952 29.4259C49.5952 29.4259 54.0002 25.5377 52.2328 24.5677C50.4655 23.5984 45.957 26.246 45.957 26.246C45.957 26.246 48.8245 22.4268 44.7152 24.7565C40.6059 27.0862 34.0156 35.702 34.0156 35.702C34.0156 35.702 47.848 34.5198 52.628 30.1549Z" fill="#D666FF" fill-opacity="0.06"/>
</g>
<path d="M33.9719 35.6255C33.9719 35.6255 26.9845 49.4141 21.7154 52.4494C16.4462 55.4847 16.8629 51.0784 16.8629 51.0784C16.8629 51.0784 13.7125 52.8558 10.8552 50.5575C7.99786 48.2593 10.1617 44.2071 10.1617 44.2071C10.1617 44.2071 6.61758 42.5409 8.60535 40.2273C14.238 33.67 33.9719 35.6255 33.9719 35.6255Z" fill="#D666FF" fill-opacity="0.06"/>
<g filter="url(#filter3_f_1211_11840)">
<path d="M15.373 41.1972C13.6863 42.7376 18.4057 41.9262 18.4057 41.9262C18.4057 41.9262 14.0008 45.8151 15.7681 46.7844C17.5355 47.7538 22.0439 45.1061 22.0439 45.1061C22.0439 45.1061 19.1765 48.9253 23.2858 46.5956C27.395 44.266 33.9853 35.6501 33.9853 35.6501C33.9853 35.6501 20.1529 36.8324 15.373 41.1972Z" fill="#D666FF" fill-opacity="0.06"/>
</g>
<path d="M33.9707 35.7268C33.9707 35.7268 49.4401 34.6864 54.7475 37.6541C60.055 40.6224 56.0371 42.5116 56.0371 42.5116C56.0371 42.5116 59.178 44.3057 58.6498 47.9261C58.1217 51.5465 53.5191 51.7574 53.5191 51.7574C53.5191 51.7574 53.8867 55.6442 50.8755 55.12C42.3418 53.6359 33.9707 35.7268 33.9707 35.7268Z" fill="#D666FF" fill-opacity="0.06"/>
<g filter="url(#filter4_f_1211_11840)">
<path d="M48.2637 48.8263C50.4537 49.4863 47.3471 45.8552 47.3471 45.8552C47.3471 45.8552 52.9509 47.648 52.887 45.639C52.8232 43.63 48.2381 41.1162 48.2381 41.1162C48.2381 41.1162 52.9979 41.627 48.8913 39.2926C44.7847 36.9583 33.9844 35.7024 33.9844 35.7024C33.9844 35.7024 42.0571 46.9545 48.2637 48.8263Z" fill="#D666FF" fill-opacity="0.06"/>
</g>
<path d="M34.03 35.627C34.03 35.627 18.5606 36.668 13.2532 33.6996C7.94573 30.7313 11.9636 28.8421 11.9636 28.8421C11.9636 28.8421 8.82269 27.0479 9.35088 23.4276C9.87907 19.8072 14.4816 19.5963 14.4816 19.5963C14.4816 19.5963 14.114 15.7095 17.1252 16.2337C25.6583 17.7185 34.03 35.627 34.03 35.627Z" fill="#D666FF" fill-opacity="0.06"/>
<g filter="url(#filter5_f_1211_11840)">
<path d="M19.7352 22.5289C17.5452 21.8689 20.6518 25.4999 20.6518 25.4999C20.6518 25.4999 15.048 23.7072 15.1119 25.7162C15.1757 27.7252 19.7608 30.239 19.7608 30.239C19.7608 30.239 15.001 29.7282 19.1076 32.0626C23.2142 34.3969 34.0145 35.6528 34.0145 35.6528C34.0145 35.6528 25.9418 24.4 19.7352 22.5289Z" fill="#D666FF" fill-opacity="0.06"/>
</g>
<defs>
<filter id="filter0_f_1211_11840" x="15.4583" y="0.147528" width="37.0834" height="49.6544" filterUnits="userSpaceOnUse" color-interpolation-filters="sRGB">
<feFlood flood-opacity="0" result="BackgroundImageFix"/>
<feBlend mode="normal" in="SourceGraphic" in2="BackgroundImageFix" result="shape"/>
<feGaussianBlur stdDeviation="7.06283" result="effect1_foregroundBlur_1211_11840"/>
</filter>
<filter id="filter1_f_1211_11840" x="15.4583" y="21.5506" width="37.0834" height="49.6544" filterUnits="userSpaceOnUse" color-interpolation-filters="sRGB">
<feFlood flood-opacity="0" result="BackgroundImageFix"/>
<feBlend mode="normal" in="SourceGraphic" in2="BackgroundImageFix" result="shape"/>
<feGaussianBlur stdDeviation="7.06283" result="effect1_foregroundBlur_1211_11840"/>
</filter>
<filter id="filter2_f_1211_11840" x="19.89" y="9.87775" width="47.2279" height="39.9498" filterUnits="userSpaceOnUse" color-interpolation-filters="sRGB">
<feFlood flood-opacity="0" result="BackgroundImageFix"/>
<feBlend mode="normal" in="SourceGraphic" in2="BackgroundImageFix" result="shape"/>
<feGaussianBlur stdDeviation="7.06283" result="effect1_foregroundBlur_1211_11840"/>
</filter>
<filter id="filter3_f_1211_11840" x="0.883123" y="21.5245" width="47.2279" height="39.9498" filterUnits="userSpaceOnUse" color-interpolation-filters="sRGB">
<feFlood flood-opacity="0" result="BackgroundImageFix"/>
<feBlend mode="normal" in="SourceGraphic" in2="BackgroundImageFix" result="shape"/>
<feGaussianBlur stdDeviation="7.06283" result="effect1_foregroundBlur_1211_11840"/>
</filter>
<filter id="filter4_f_1211_11840" x="19.8587" y="21.5767" width="47.1547" height="41.4554" filterUnits="userSpaceOnUse" color-interpolation-filters="sRGB">
<feFlood flood-opacity="0" result="BackgroundImageFix"/>
<feBlend mode="normal" in="SourceGraphic" in2="BackgroundImageFix" result="shape"/>
<feGaussianBlur stdDeviation="7.06283" result="effect1_foregroundBlur_1211_11840"/>
</filter>
<filter id="filter5_f_1211_11840" x="0.985662" y="8.32306" width="47.1547" height="41.4554" filterUnits="userSpaceOnUse" color-interpolation-filters="sRGB">
<feFlood flood-opacity="0" result="BackgroundImageFix"/>
<feBlend mode="normal" in="SourceGraphic" in2="BackgroundImageFix" result="shape"/>
<feGaussianBlur stdDeviation="7.06283" result="effect1_foregroundBlur_1211_11840"/>
</filter>
</defs>
</svg>
