<svg width="1280" height="605" viewBox="0 0 1280 605" fill="none" xmlns="http://www.w3.org/2000/svg">
<path d="M1280 557C1280 573.802 1280 582.202 1276.73 588.62C1273.85 594.265 1269.26 598.854 1263.62 601.73C1257.2 605 1248.8 605 1232 605H84.6766C56.9567 605 43.0967 605 35.1744 599.187C28.2665 594.117 23.8557 586.336 23.0543 577.806C22.1354 568.022 29.2543 556.13 43.4918 532.346L288.481 123.087C293 115.539 295.259 111.764 298.322 108.892C301.035 106.348 304.197 104.331 307.648 102.943C311.543 101.376 315.918 100.918 324.669 100.002L1227 5.54761C1245.36 3.62628 1254.54 2.66559 1261.63 5.65179C1267.87 8.27472 1273.03 12.9274 1276.29 18.855C1280 25.6036 1280 34.8313 1280 53.2868V557Z" fill="#EA78AF"/>
<mask id="mask0_3066_19005" style="mask-type:alpha" maskUnits="userSpaceOnUse" x="22" y="3" width="1258" height="602">
<path d="M1280 560C1280 573.978 1280 580.967 1277.72 586.481C1274.67 593.831 1268.83 599.672 1261.48 602.716C1255.97 605 1248.98 605 1235 605H79.3843C56.342 605 44.8208 605 37.8203 600.921C28.4863 595.483 22.797 585.446 22.9249 574.644C23.021 566.543 28.9385 556.658 40.7736 536.887L289.251 121.801C293.015 115.514 294.896 112.371 297.33 109.866C300.576 106.527 304.554 103.99 308.949 102.454C312.246 101.302 315.89 100.921 323.177 100.158L1230.32 5.20093C1245.58 3.60266 1253.22 2.80359 1259.28 4.77551C1267.36 7.40472 1273.95 13.3395 1277.41 21.105C1280 26.9292 1280 34.6049 1280 49.9564V560Z" fill="#5DD9C1"/>
</mask>
<g mask="url(#mask0_3066_19005)">
<g opacity="0.6">
<g opacity="0.2">
<path d="M562.929 610.274C582.677 596.068 600.101 579.28 614.04 559.908C595.454 553.451 578.03 544.411 562.929 534.08C542.601 519.874 525.177 502.44 511.238 482.422C501.945 488.88 491.491 494.045 479.294 497.92C463.613 502.44 445.027 505.022 422.957 505.022C303.893 505.022 283.565 430.765 283.565 320.994L283.565 51.731L562.349 51.731L562.349 244.154C562.349 333.908 578.03 399.771 647.145 421.08C652.373 423.017 658.761 424.308 664.569 425.6C666.893 409.457 667.473 392.668 667.473 375.88L667.473 -93.5547L177.278 -93.5547L177.278 375.88C177.278 522.457 255.686 650.954 422.376 650.954C479.875 650.954 526.339 635.457 562.929 610.274Z" fill="white" fill-opacity="0.17"/>
</g>
<g opacity="0.4">
<path d="M703.483 573.716C670.377 573.716 640.756 568.551 614.039 559.511C595.454 553.053 578.03 544.013 562.929 533.682C542.601 519.476 525.177 502.042 511.238 482.025C497.879 463.945 487.425 443.282 479.294 421.328C465.355 383.876 458.385 342.551 458.385 299.288L458.385 51.3336L562.348 51.3336L562.348 243.756C562.348 333.511 578.03 399.373 647.145 420.682C652.372 422.619 658.761 423.911 664.569 425.202C676.185 427.139 688.963 428.431 703.483 428.431C822.547 428.431 842.874 354.174 842.875 244.402L842.875 51.3336L668.054 51.3336L668.054 -93.9522L948.58 -93.9521L948.58 299.288C948.58 445.219 870.172 573.716 703.483 573.716Z" fill="white" fill-opacity="0.17"/>
</g>
</g>
</g>
</svg>
