<svg width="370" height="179" viewBox="0 0 370 179" fill="none" xmlns="http://www.w3.org/2000/svg">
<g filter="url(#filter0_d_1211_11740)">
<path d="M7 64C7 55.5992 7 51.3988 8.6349 48.1901C10.073 45.3677 12.3677 43.073 15.1901 41.6349C18.3988 40 22.5992 40 31 40H339C347.401 40 351.601 40 354.81 41.6349C357.632 43.073 359.927 45.3677 361.365 48.1901C363 51.3988 363 55.5992 363 64V172H31C22.5992 172 18.3988 172 15.1901 170.365C12.3677 168.927 10.073 166.632 8.6349 163.81C7 160.601 7 156.401 7 148V64Z" fill="white" shape-rendering="crispEdges"/>
<path d="M106.622 89.076C105.566 89.076 104.63 88.878 103.814 88.482C102.998 88.086 102.356 87.504 101.888 86.736C101.42 85.98 101.186 85.08 101.186 84.036C101.186 83.316 101.306 82.542 101.546 81.714C101.798 80.886 102.086 80.142 102.41 79.482L103.796 80.13C103.496 80.802 103.256 81.444 103.076 82.056C102.896 82.656 102.806 83.238 102.806 83.802C102.806 84.894 103.136 85.716 103.796 86.268C104.456 86.832 105.398 87.114 106.622 87.114C107.318 87.114 107.978 87.024 108.602 86.844C109.238 86.664 109.766 86.442 110.186 86.178C110.606 85.926 110.864 85.692 110.96 85.476C110.828 85.26 110.402 84.924 109.682 84.468C108.962 84.012 108.2 83.628 107.396 83.316L107.81 81.444C108.77 81.636 109.622 81.78 110.366 81.876C111.122 81.972 111.854 82.02 112.562 82.02H112.94L113.048 83.01L112.94 84H112.562C111.77 84 110.99 83.946 110.222 83.838C109.454 83.718 108.512 83.544 107.396 83.316L107.828 82.074L108.224 82.254C109.412 82.77 110.426 83.298 111.266 83.838C112.106 84.366 112.52 84.936 112.508 85.548C112.496 86.112 112.22 86.67 111.68 87.222C111.14 87.774 110.42 88.218 109.52 88.554C108.632 88.902 107.666 89.076 106.622 89.076ZM112.645 82.02H112.789C113.725 82.02 114.451 81.978 114.967 81.894C115.483 81.81 115.855 81.69 116.083 81.534C116.323 81.366 116.485 81.132 116.569 80.832C116.617 80.676 116.641 80.454 116.641 80.166C116.641 79.842 116.611 79.476 116.551 79.068C116.491 78.648 116.455 78.39 116.443 78.294L117.937 77.988C118.105 78.792 118.189 79.764 118.189 80.904C118.249 81.252 118.405 81.528 118.657 81.732C118.921 81.924 119.275 82.02 119.719 82.02H119.845L119.953 83.01L119.845 84H119.719C119.131 84 118.609 83.832 118.153 83.496C117.709 83.16 117.379 82.728 117.163 82.2L117.559 82.272C117.295 82.908 116.809 83.358 116.101 83.622C115.393 83.874 114.289 84 112.789 84H112.645V82.02ZM113.455 74.82C114.031 74.244 114.319 73.956 114.319 73.956L115.633 75.252C115.201 75.696 114.763 76.134 114.319 76.566L113.023 75.252L113.455 74.82ZM116.623 74.82C117.199 74.244 117.487 73.956 117.487 73.956L118.801 75.252C118.369 75.696 117.931 76.134 117.487 76.566L116.191 75.252L116.623 74.82ZM129.739 82.02C130.159 82.02 130.477 81.906 130.693 81.678C130.909 81.438 131.017 81.102 131.017 80.67C131.017 80.286 130.897 79.74 130.657 79.032C130.429 78.312 130.225 77.748 130.045 77.34L131.503 76.53C131.743 77.046 131.983 77.712 132.223 78.528C132.475 79.344 132.601 80.07 132.601 80.706C132.601 81.318 132.475 81.876 132.223 82.38C131.983 82.872 131.647 83.268 131.215 83.568C130.783 83.856 130.291 84 129.739 84H129.703V82.02H129.739ZM124.861 84V82.02H124.915C125.263 82.02 125.569 81.924 125.833 81.732C126.097 81.528 126.337 81.234 126.553 80.85C126.817 80.358 127.021 79.608 127.165 78.6L128.677 78.672C128.533 79.428 128.461 80.022 128.461 80.454C128.461 80.97 128.563 81.36 128.767 81.624C128.971 81.888 129.295 82.02 129.739 82.02H129.775L129.883 83.01L129.775 84H129.739C129.055 84 128.503 83.808 128.083 83.424C127.663 83.028 127.393 82.476 127.273 81.768L127.615 81.732C127.339 82.404 126.961 82.95 126.481 83.37C126.013 83.79 125.485 84 124.897 84H124.861ZM119.695 84L119.587 83.01L119.695 82.02H119.785C120.217 82.02 120.619 81.924 120.991 81.732C121.375 81.54 121.669 81.294 121.873 80.994C122.113 80.682 122.299 80.34 122.431 79.968C122.575 79.596 122.701 79.194 122.809 78.762L124.321 78.924C124.309 78.984 124.243 79.23 124.123 79.662C124.003 80.094 123.943 80.502 123.943 80.886C123.943 81.258 124.015 81.54 124.159 81.732C124.315 81.924 124.555 82.02 124.879 82.02H124.915L125.023 83.01L124.915 84H124.843C124.303 84 123.847 83.844 123.475 83.532C123.103 83.22 122.869 82.8 122.773 82.272C121.981 83.424 120.979 84 119.767 84H119.695ZM127.921 71.544L128.299 71.922C128.815 72.438 129.073 72.696 129.073 72.696L127.921 73.848L126.787 72.696L127.921 71.544ZM128.299 74.73C128.299 74.73 128.587 74.442 129.163 73.866L129.595 73.434L130.891 74.73L130.459 75.162C129.883 75.738 129.595 76.026 129.595 76.026C129.175 75.582 128.743 75.15 128.299 74.73ZM124.951 74.73C124.951 74.73 125.239 74.442 125.815 73.866L126.247 73.434L127.543 74.73L127.111 75.162C126.535 75.738 126.247 76.026 126.247 76.026C125.827 75.582 125.395 75.15 124.951 74.73ZM134.564 83.892C134.66 83.172 134.708 81.912 134.708 80.112C134.708 78.468 134.666 76.782 134.582 75.054C134.51 73.314 134.426 72.156 134.33 71.58L136.04 71.202C136.124 71.802 136.208 72.984 136.292 74.748C136.376 76.512 136.418 78.216 136.418 79.86C136.418 81.732 136.358 83.142 136.238 84.09L134.564 83.892ZM143.441 74.73L145.907 80.562C146.135 81.114 146.393 81.498 146.681 81.714C146.969 81.918 147.365 82.02 147.869 82.02H148.067L148.175 83.01L148.067 84H147.869C147.089 84 146.429 83.796 145.889 83.388C145.349 82.968 144.881 82.314 144.485 81.426L141.947 75.522L143.441 74.73ZM138.869 81.318C139.337 81.582 139.781 81.798 140.201 81.966C140.633 82.122 141.155 82.2 141.767 82.2C142.967 82.2 144.041 81.804 144.989 81.012L145.871 82.218C145.559 82.542 145.259 82.824 144.971 83.064C144.683 83.304 144.275 83.532 143.747 83.748C143.231 83.964 142.625 84.072 141.929 84.072C141.077 84.072 140.345 83.94 139.733 83.676C139.121 83.412 138.569 83.1 138.077 82.74L138.869 81.318ZM147.907 82.02H149.131C150.619 82.02 151.747 81.822 152.515 81.426C153.283 81.03 153.667 80.49 153.667 79.806C153.667 79.446 153.523 79.056 153.235 78.636C152.947 78.216 152.587 77.874 152.155 77.61C151.807 78.126 151.489 78.876 151.201 79.86C150.925 80.844 150.787 81.816 150.787 82.776C150.787 83.508 150.919 84.156 151.183 84.72C151.447 85.284 151.783 85.716 152.191 86.016C152.599 86.328 153.013 86.484 153.433 86.484C153.697 86.484 153.955 86.406 154.207 86.25C154.315 86.142 154.369 85.986 154.369 85.782C154.369 85.386 154.189 84.93 153.829 84.414C153.469 83.91 152.971 83.496 152.335 83.172L152.677 81.462C153.289 81.666 153.943 81.81 154.639 81.894C155.335 81.978 156.163 82.02 157.123 82.02L157.231 83.01L157.123 84C156.199 84 155.365 83.934 154.621 83.802C153.877 83.67 153.115 83.46 152.335 83.172L152.713 81.876C153.313 82.092 153.853 82.422 154.333 82.866C154.825 83.298 155.203 83.784 155.467 84.324C155.743 84.876 155.881 85.41 155.881 85.926C155.881 86.646 155.629 87.222 155.125 87.654C154.645 88.086 154.051 88.302 153.343 88.302C152.659 88.302 151.993 88.086 151.345 87.654C150.709 87.222 150.193 86.574 149.797 85.71C149.413 84.846 149.245 83.802 149.293 82.578C149.365 81.102 149.593 79.83 149.977 78.762C150.373 77.694 150.769 76.854 151.165 76.242L152.515 75.756C153.295 76.2 153.919 76.806 154.387 77.574C154.867 78.33 155.107 79.11 155.107 79.914C155.107 81.234 154.537 82.248 153.397 82.956C152.257 83.652 150.697 84 148.717 84H147.907V82.02ZM156.925 82.02H157.861C158.797 82.02 159.469 81.906 159.877 81.678C160.285 81.45 160.489 81.096 160.489 80.616C160.489 80.292 160.363 79.74 160.111 78.96C159.871 78.168 159.679 77.622 159.535 77.322L161.029 76.512C161.257 76.98 161.491 77.634 161.731 78.474C161.971 79.302 162.091 80.016 162.091 80.616C162.091 81.732 161.725 82.578 160.993 83.154C160.273 83.718 159.229 84 157.861 84H156.925V82.02ZM157.753 86.97C158.221 86.478 158.689 86.01 159.157 85.566C159.625 86.01 160.093 86.478 160.561 86.97L159.157 88.374L157.753 86.97ZM168.928 87.456C170.896 87.036 172.342 86.478 173.266 85.782C174.19 85.098 174.652 84.234 174.652 83.19C174.64 82.506 174.544 81.822 174.364 81.138C174.184 80.454 173.92 79.884 173.572 79.428C173.236 78.96 172.846 78.702 172.402 78.654C172.138 78.618 171.88 78.708 171.628 78.924C171.388 79.128 171.19 79.398 171.034 79.734C170.89 80.07 170.818 80.394 170.818 80.706C170.818 80.958 170.866 81.156 170.962 81.3C171.154 81.576 171.484 81.786 171.952 81.93C172.432 82.062 172.972 82.128 173.572 82.128C174.064 82.128 174.562 82.08 175.066 81.984V83.838C174.526 83.982 173.926 84.054 173.266 84.054C172.45 84.054 171.712 83.922 171.052 83.658C170.392 83.382 169.924 82.962 169.648 82.398C169.444 81.966 169.342 81.492 169.342 80.976C169.342 80.328 169.48 79.68 169.756 79.032C170.044 78.384 170.422 77.85 170.89 77.43C171.37 77.01 171.886 76.8 172.438 76.8C173.146 76.8 173.776 77.112 174.328 77.736C174.892 78.348 175.324 79.14 175.624 80.112C175.936 81.072 176.092 82.038 176.092 83.01C176.092 84.57 175.51 85.89 174.346 86.97C173.194 88.05 171.586 88.794 169.522 89.202L168.928 87.456ZM193.756 80.076C193.984 80.808 194.212 81.318 194.44 81.606C194.68 81.882 195.034 82.02 195.502 82.02H195.61L195.718 83.01L195.61 84H195.502C195.046 84 194.65 83.85 194.314 83.55C193.978 83.25 193.696 82.878 193.468 82.434C193.24 81.978 192.994 81.402 192.73 80.706L193.756 80.076ZM185.728 80.256C185.056 81.648 184.72 82.86 184.72 83.892C184.72 84.984 185.05 85.812 185.71 86.376C186.37 86.94 187.312 87.222 188.536 87.222C189.46 87.222 190.246 87.054 190.894 86.718C191.542 86.394 192.022 85.968 192.334 85.44C192.658 84.924 192.82 84.378 192.82 83.802C192.82 83.286 192.712 82.608 192.496 81.768C192.28 80.928 192.04 80.124 191.776 79.356L193.306 78.618C193.666 79.662 193.93 80.604 194.098 81.444C194.278 82.284 194.368 83.07 194.368 83.802C194.368 84.726 194.134 85.602 193.666 86.43C193.198 87.258 192.52 87.924 191.632 88.428C190.756 88.944 189.724 89.202 188.536 89.202C187.408 89.202 186.436 88.974 185.62 88.518C184.804 88.074 184.18 87.468 183.748 86.7C183.328 85.932 183.118 85.068 183.118 84.108C183.118 83.388 183.238 82.62 183.478 81.804C183.718 80.988 184 80.256 184.324 79.608L185.728 80.256ZM187.51 78.816C187.978 78.324 188.446 77.856 188.914 77.412C189.382 77.856 189.85 78.324 190.318 78.816L188.914 80.22L187.51 78.816ZM198.949 80.634C199.693 81.138 200.365 81.534 200.965 81.822C201.565 82.11 202.027 82.254 202.351 82.254C202.447 82.254 202.543 82.23 202.639 82.182C202.819 82.086 202.957 81.93 203.053 81.714C203.149 81.486 203.197 81.228 203.197 80.94C203.197 80.388 203.053 79.884 202.765 79.428C202.477 78.972 202.105 78.744 201.649 78.744C201.289 78.744 200.905 78.99 200.497 79.482C200.101 79.974 199.663 80.73 199.183 81.75C198.823 82.494 198.349 83.058 197.761 83.442C197.173 83.814 196.501 84 195.745 84H195.421L195.457 82.02H195.781C196.261 82.02 196.705 81.882 197.113 81.606C197.521 81.33 197.869 80.91 198.157 80.346C198.685 79.314 199.219 78.498 199.759 77.898C200.299 77.298 200.887 76.98 201.523 76.944C202.159 76.908 202.711 77.076 203.179 77.448C203.659 77.82 204.025 78.312 204.277 78.924C204.529 79.536 204.655 80.178 204.655 80.85C204.655 81.51 204.529 82.116 204.277 82.668C204.025 83.208 203.653 83.616 203.161 83.892C202.921 84.024 202.645 84.09 202.333 84.09C201.385 84.09 199.999 83.484 198.175 82.272L198.949 80.634ZM206.722 83.892C206.818 83.172 206.866 81.912 206.866 80.112C206.866 78.468 206.824 76.782 206.74 75.054C206.668 73.314 206.584 72.156 206.488 71.58L208.198 71.202C208.282 71.802 208.366 72.984 208.45 74.748C208.534 76.512 208.576 78.216 208.576 79.86C208.576 81.732 208.516 83.142 208.396 84.09L206.722 83.892ZM221.425 89.076C220.369 89.076 219.433 88.878 218.617 88.482C217.801 88.086 217.159 87.504 216.691 86.736C216.223 85.98 215.989 85.08 215.989 84.036C215.989 83.316 216.109 82.542 216.349 81.714C216.601 80.886 216.889 80.142 217.213 79.482L218.599 80.13C218.299 80.802 218.059 81.444 217.879 82.056C217.699 82.656 217.609 83.238 217.609 83.802C217.609 84.894 217.939 85.716 218.599 86.268C219.259 86.832 220.201 87.114 221.425 87.114C222.121 87.114 222.781 87.024 223.405 86.844C224.041 86.664 224.569 86.442 224.989 86.178C225.409 85.926 225.667 85.692 225.763 85.476C225.631 85.26 225.205 84.924 224.485 84.468C223.765 84.012 223.003 83.628 222.199 83.316L222.613 81.444C223.573 81.636 224.425 81.78 225.169 81.876C225.925 81.972 226.657 82.02 227.365 82.02H227.743L227.851 83.01L227.743 84H227.365C226.573 84 225.793 83.946 225.025 83.838C224.257 83.718 223.315 83.544 222.199 83.316L222.631 82.074L223.027 82.254C224.215 82.77 225.229 83.298 226.069 83.838C226.909 84.366 227.323 84.936 227.311 85.548C227.299 86.112 227.023 86.67 226.483 87.222C225.943 87.774 225.223 88.218 224.323 88.554C223.435 88.902 222.469 89.076 221.425 89.076ZM235.728 82.362C236.352 82.29 237.108 82.218 237.996 82.146C238.884 82.062 239.58 82.02 240.084 82.02L240.192 83.01L240.084 84C238.872 84 237.792 83.946 236.844 83.838C235.908 83.73 235.242 83.568 234.846 83.352L235.728 82.362ZM232.164 82.038C233.268 82.038 234.246 81.912 235.098 81.66C235.962 81.408 236.628 81.078 237.096 80.67C237.576 80.262 237.816 79.83 237.816 79.374C237.816 79.002 237.66 78.69 237.348 78.438C237.048 78.186 236.628 78.06 236.088 78.06C235.116 78.06 234.102 78.516 233.046 79.428C231.99 80.34 231.024 81.594 230.148 83.19L228.924 82.362C229.92 80.418 231.036 78.9 232.272 77.808C233.508 76.716 234.72 76.17 235.908 76.17C236.556 76.17 237.138 76.308 237.654 76.584C238.182 76.86 238.596 77.244 238.896 77.736C239.196 78.216 239.346 78.768 239.346 79.392C239.346 80.304 239.04 81.114 238.428 81.822C237.816 82.518 236.976 83.058 235.908 83.442C234.852 83.814 233.658 84 232.326 84H227.448V82.02L232.164 82.038ZM230.256 80.418C230.292 79.962 230.31 79.422 230.31 78.798C230.31 77.598 230.25 76.242 230.13 74.73C230.022 73.218 229.914 72.174 229.806 71.598L231.516 71.202C231.612 71.79 231.702 72.66 231.786 73.812C231.882 74.964 231.93 76.11 231.93 77.25C231.93 78.306 231.888 79.236 231.804 80.04L230.256 80.418ZM239.946 82.02H240.09C241.026 82.02 241.752 81.978 242.268 81.894C242.784 81.81 243.156 81.69 243.384 81.534C243.624 81.366 243.786 81.132 243.87 80.832C243.918 80.676 243.942 80.454 243.942 80.166C243.942 79.842 243.912 79.476 243.852 79.068C243.792 78.648 243.756 78.39 243.744 78.294L245.238 77.988C245.406 78.792 245.49 79.764 245.49 80.904C245.55 81.252 245.706 81.528 245.958 81.732C246.222 81.924 246.576 82.02 247.02 82.02H247.146L247.254 83.01L247.146 84H247.02C246.432 84 245.91 83.832 245.454 83.496C245.01 83.16 244.68 82.728 244.464 82.2L244.86 82.272C244.596 82.908 244.11 83.358 243.402 83.622C242.694 83.874 241.59 84 240.09 84H239.946V82.02ZM239.28 86.502C239.856 85.926 240.144 85.638 240.144 85.638L241.458 86.934C241.026 87.378 240.588 87.816 240.144 88.248L238.848 86.934L239.28 86.502ZM242.466 86.502C243.042 85.926 243.33 85.638 243.33 85.638L244.644 86.934C244.212 87.378 243.774 87.816 243.33 88.248L242.034 86.934L242.466 86.502ZM260.766 82.02L260.874 83.01L260.766 84H260.586C259.338 83.988 258.348 83.736 257.616 83.244C256.884 82.752 256.386 82.02 256.122 81.048L257.202 80.166C257.322 80.694 257.658 81.138 258.21 81.498C258.774 81.846 259.488 82.02 260.352 82.02H260.766ZM246.942 82.02H248.49C249.966 82.02 251.346 81.846 252.63 81.498C253.914 81.15 255.222 80.622 256.554 79.914C256.926 79.71 257.316 79.524 257.724 79.356C258.132 79.176 258.468 79.05 258.732 78.978L258.786 80.04C258.126 80.028 257.49 79.938 256.878 79.77C256.278 79.59 255.618 79.32 254.898 78.96C253.782 78.372 252.84 78.078 252.072 78.078C251.58 78.078 251.136 78.222 250.74 78.51C250.344 78.798 250.05 79.128 249.858 79.5L248.706 78.69C249.114 77.874 249.606 77.256 250.182 76.836C250.758 76.416 251.4 76.206 252.108 76.206C252.624 76.206 253.11 76.296 253.566 76.476C254.034 76.644 254.688 76.944 255.528 77.376C256.308 77.772 256.932 78.066 257.4 78.258C257.868 78.45 258.39 78.606 258.966 78.726L259.038 80.472C258.81 80.532 258.522 80.652 258.174 80.832C257.826 81 257.448 81.198 257.04 81.426C255.396 82.302 253.92 82.95 252.612 83.37C251.316 83.79 249.882 84 248.31 84H246.942V82.02ZM264.111 80.634C264.855 81.138 265.527 81.534 266.127 81.822C266.727 82.11 267.189 82.254 267.513 82.254C267.609 82.254 267.705 82.23 267.801 82.182C267.981 82.086 268.119 81.93 268.215 81.714C268.311 81.486 268.359 81.228 268.359 80.94C268.359 80.388 268.215 79.884 267.927 79.428C267.639 78.972 267.267 78.744 266.811 78.744C266.451 78.744 266.067 78.99 265.659 79.482C265.263 79.974 264.825 80.73 264.345 81.75C263.985 82.494 263.511 83.058 262.923 83.442C262.335 83.814 261.663 84 260.907 84H260.583L260.619 82.02H260.943C261.423 82.02 261.867 81.882 262.275 81.606C262.683 81.33 263.031 80.91 263.319 80.346C263.847 79.314 264.381 78.498 264.921 77.898C265.461 77.298 266.049 76.98 266.685 76.944C267.321 76.908 267.873 77.076 268.341 77.448C268.821 77.82 269.187 78.312 269.439 78.924C269.691 79.536 269.817 80.178 269.817 80.85C269.817 81.51 269.691 82.116 269.439 82.668C269.187 83.208 268.815 83.616 268.323 83.892C268.083 84.024 267.807 84.09 267.495 84.09C266.547 84.09 265.161 83.484 263.337 82.272L264.111 80.634Z" fill="#393939"/>
<path d="M28.2722 117.14C28.2629 117 28.2582 116.79 28.2582 116.51C28.2582 116.23 28.2629 116.02 28.2722 115.88C29.4109 115.88 30.3396 115.787 31.0582 115.6C31.7769 115.404 32.3416 115.105 32.7522 114.704C33.1722 114.293 33.4942 113.752 33.7182 113.08L34.7542 113.192C34.5956 113.715 34.5162 114.153 34.5162 114.508C34.5162 115.329 34.9176 115.74 35.7202 115.74L35.7902 116.37L35.7202 117C35.0949 117 34.5816 116.804 34.1802 116.412C33.7882 116.02 33.5922 115.493 33.5922 114.83H33.8722C33.3589 115.642 32.6402 116.23 31.7162 116.594C30.8016 116.958 29.6536 117.14 28.2722 117.14ZM24.5202 112.282C24.2589 113.01 24.1282 113.584 24.1282 114.004C24.1282 114.135 24.1329 114.233 24.1422 114.298C24.2169 114.802 24.6042 115.194 25.3042 115.474C26.0042 115.745 27.0169 115.88 28.3422 115.88C28.3609 116.039 28.3702 116.272 28.3702 116.58C28.3702 116.832 28.3656 117.019 28.3562 117.14C26.7322 117.149 25.4629 116.925 24.5482 116.468C23.6429 116.001 23.1482 115.339 23.0642 114.48C23.0549 114.405 23.0502 114.298 23.0502 114.158C23.0502 113.766 23.0969 113.36 23.1902 112.94C23.2929 112.511 23.4189 112.133 23.5682 111.806L24.5202 112.282ZM26.7322 111.764L27.3622 111.134L28.3002 112.072L27.3622 113.024L26.4242 112.072L26.7322 111.764ZM29.2242 111.764L29.8542 111.134L30.7922 112.072L29.8542 113.024L28.9162 112.072L29.2242 111.764ZM35.5862 115.74H35.7123C36.4309 115.74 36.9909 115.712 37.3923 115.656C37.7936 115.591 38.0876 115.493 38.2743 115.362C38.4609 115.231 38.5963 115.054 38.6803 114.83C38.7363 114.662 38.7643 114.461 38.7643 114.228C38.7643 113.929 38.7083 113.416 38.5963 112.688L39.6323 112.492C39.7443 113.08 39.8049 113.827 39.8143 114.732C39.9449 115.404 40.3696 115.74 41.0883 115.74H41.1863L41.2563 116.37L41.1863 117H41.0883C40.6216 117 40.2109 116.865 39.8563 116.594C39.5109 116.314 39.2683 115.959 39.1283 115.53L39.4083 115.586C39.2869 115.941 39.0863 116.221 38.8063 116.426C38.5263 116.631 38.1389 116.781 37.6443 116.874C37.1589 116.958 36.5149 117 35.7123 117H35.5862V115.74ZM35.2082 118.946L35.8383 118.316L36.7763 119.254L35.8383 120.206L34.9002 119.254L35.2082 118.946ZM37.7003 118.946L38.3303 118.316L39.2683 119.254L38.3303 120.206L37.3923 119.254L37.7003 118.946ZM41.0413 115.74H41.3213C42.1053 115.74 42.726 115.306 43.1833 114.438C43.6407 113.598 44.0653 112.954 44.4573 112.506C44.8493 112.049 45.2927 111.806 45.7873 111.778C46.8607 111.722 47.5887 112.459 47.9713 113.99C48.1207 114.615 48.2793 115.063 48.4473 115.334C48.6153 115.605 48.8487 115.74 49.1473 115.74H49.2733L49.3433 116.37L49.2733 117H49.1473C48.4567 117 48.0087 116.617 47.8033 115.852C47.7753 116.076 47.6773 116.286 47.5093 116.482C47.3507 116.678 47.1733 116.827 46.9773 116.93C46.8187 117.023 46.6227 117.07 46.3893 117.07C45.7173 117.07 44.77 116.673 43.5473 115.88C43.2673 116.244 42.9313 116.524 42.5393 116.72C42.1567 116.907 41.7413 117 41.2933 117H41.0413V115.74ZM44.1073 114.872C44.63 115.236 45.1107 115.511 45.5493 115.698C45.9973 115.875 46.352 115.964 46.6133 115.964C46.7067 115.964 46.7813 115.95 46.8373 115.922C47.0427 115.726 47.1453 115.409 47.1453 114.97C47.1453 114.662 47.0893 114.349 46.9773 114.032C46.8747 113.715 46.7253 113.453 46.5293 113.248C46.3427 113.033 46.128 112.926 45.8853 112.926C45.6053 112.926 45.316 113.099 45.0173 113.444C44.728 113.789 44.4247 114.265 44.1073 114.872ZM49.1631 115.74H49.3591C50.8524 115.74 51.9537 115.6 52.6631 115.32C53.3724 115.04 53.7737 114.597 53.8671 113.99C53.8764 113.934 53.8811 113.855 53.8811 113.752C53.8811 113.341 53.7691 112.982 53.5451 112.674C53.3304 112.366 53.0411 112.212 52.6771 112.212C52.4531 112.212 52.2291 112.291 52.0051 112.45C51.7904 112.609 51.6131 112.814 51.4731 113.066C51.3331 113.309 51.2631 113.547 51.2631 113.78C51.2631 114.153 51.4637 114.508 51.8651 114.844C52.2664 115.171 52.7611 115.432 53.3491 115.628C53.9464 115.824 54.5111 115.922 55.0431 115.922C55.4351 115.922 55.7617 115.861 56.0231 115.74C56.2937 115.619 56.4711 115.437 56.5551 115.194C56.5831 115.119 56.5971 115.04 56.5971 114.956C56.5971 114.629 56.4057 114.279 56.0231 113.906C55.6497 113.533 55.0337 113.145 54.1751 112.744C53.3164 112.343 52.2057 111.955 50.8431 111.582L51.2771 110.406C52.9477 110.975 54.2451 111.507 55.1691 112.002C56.1024 112.497 56.7417 112.963 57.0871 113.402C57.4417 113.841 57.6191 114.289 57.6191 114.746C57.6191 114.979 57.5677 115.283 57.4651 115.656C57.3251 116.113 57.0264 116.459 56.5691 116.692C56.1117 116.916 55.5611 117.028 54.9171 117.028C54.1797 117.028 53.4377 116.888 52.6911 116.608C51.9444 116.328 51.3331 115.945 50.8571 115.46C50.3904 114.975 50.1804 114.438 50.2271 113.85C50.2644 113.393 50.4091 112.949 50.6611 112.52C50.9131 112.091 51.2211 111.745 51.5851 111.484C51.9584 111.213 52.3364 111.078 52.7191 111.078C53.1017 111.078 53.4611 111.204 53.7971 111.456C54.1331 111.708 54.3991 112.039 54.5951 112.45C54.7911 112.861 54.8891 113.29 54.8891 113.738C54.8891 113.831 54.8797 113.962 54.8611 114.13C54.7117 115.157 54.1984 115.894 53.3211 116.342C52.4437 116.781 51.1231 117 49.3591 117H49.1631V115.74ZM59.2942 116.916C59.3595 116.356 59.3922 115.409 59.3922 114.074C59.3922 112.805 59.3642 111.493 59.3082 110.14C59.2615 108.777 59.2055 107.895 59.1402 107.494L60.2602 107.256C60.3162 107.685 60.3722 108.623 60.4282 110.07C60.4935 111.507 60.5262 112.875 60.5262 114.172C60.5262 115.479 60.4935 116.44 60.4282 117.056L59.2942 116.916ZM71.0943 120.906C70.2916 120.906 69.5776 120.747 68.9523 120.43C68.3363 120.122 67.851 119.679 67.4963 119.1C67.1416 118.521 66.9643 117.845 66.9643 117.07C66.9643 116.501 67.0576 115.899 67.2443 115.264C67.431 114.629 67.6456 114.069 67.8883 113.584L68.8403 114.032C68.3176 115.133 68.0563 116.095 68.0563 116.916C68.0563 117.803 68.3176 118.479 68.8403 118.946C69.363 119.413 70.1143 119.646 71.0943 119.646C71.6636 119.646 72.2003 119.571 72.7043 119.422C73.2176 119.273 73.6376 119.086 73.9643 118.862C74.291 118.647 74.4776 118.456 74.5243 118.288C74.4776 118.185 74.3143 118.022 74.0343 117.798C73.7636 117.583 73.423 117.355 73.0123 117.112C72.6016 116.869 72.177 116.659 71.7383 116.482L72.0043 115.292C73.451 115.591 74.655 115.74 75.6163 115.74H75.9523L76.0223 116.37L75.9523 117H75.6163C74.991 117 74.389 116.958 73.8103 116.874C73.2316 116.781 72.5456 116.65 71.7523 116.482L72.0323 115.67L72.3123 115.796C73.2456 116.207 74.025 116.613 74.6503 117.014C75.285 117.425 75.6023 117.859 75.6023 118.316C75.6023 118.745 75.3923 119.156 74.9723 119.548C74.5616 119.949 74.0063 120.276 73.3063 120.528C72.6156 120.78 71.8783 120.906 71.0943 120.906ZM75.6995 115.74H75.8115C76.4835 115.74 76.9969 115.67 77.3515 115.53C77.7062 115.381 77.9442 115.147 78.0655 114.83C78.1122 114.699 78.1355 114.517 78.1355 114.284C78.1355 114.051 78.0982 113.654 78.0235 113.094L77.9675 112.688L78.9895 112.492C79.1109 113.08 79.1715 113.827 79.1715 114.732C79.2369 115.059 79.3815 115.311 79.6055 115.488C79.8295 115.656 80.1095 115.74 80.4455 115.74H80.5575L80.6275 116.37L80.5575 117H80.4455C79.9789 117 79.5682 116.865 79.2135 116.594C78.8682 116.314 78.6255 115.959 78.4855 115.53L78.7795 115.586C78.6022 116.099 78.2709 116.463 77.7855 116.678C77.3095 116.893 76.6515 117 75.8115 117H75.6995V115.74ZM76.4975 110.336L76.8335 110C77.2722 109.561 77.4915 109.342 77.4915 109.342C77.4915 109.342 77.7109 109.561 78.1495 110L78.4855 110.336L77.4915 111.33L76.4975 110.336ZM80.4163 115.74H80.6963C81.4803 115.74 82.101 115.306 82.5583 114.438C83.0157 113.598 83.4403 112.954 83.8323 112.506C84.2243 112.049 84.6677 111.806 85.1623 111.778C86.2357 111.722 86.9637 112.459 87.3463 113.99C87.4957 114.615 87.6543 115.063 87.8223 115.334C87.9903 115.605 88.2237 115.74 88.5223 115.74H88.6483L88.7183 116.37L88.6483 117H88.5223C87.8317 117 87.3837 116.617 87.1783 115.852C87.1503 116.076 87.0523 116.286 86.8843 116.482C86.7257 116.678 86.5483 116.827 86.3523 116.93C86.1937 117.023 85.9977 117.07 85.7643 117.07C85.0923 117.07 84.145 116.673 82.9223 115.88C82.6423 116.244 82.3063 116.524 81.9143 116.72C81.5317 116.907 81.1163 117 80.6683 117H80.4163V115.74ZM83.4823 114.872C84.005 115.236 84.4857 115.511 84.9243 115.698C85.3723 115.875 85.727 115.964 85.9883 115.964C86.0817 115.964 86.1563 115.95 86.2123 115.922C86.4177 115.726 86.5203 115.409 86.5203 114.97C86.5203 114.662 86.4643 114.349 86.3523 114.032C86.2497 113.715 86.1003 113.453 85.9043 113.248C85.7177 113.033 85.503 112.926 85.2603 112.926C84.9803 112.926 84.691 113.099 84.3923 113.444C84.103 113.789 83.7997 114.265 83.4823 114.872ZM88.5101 115.74H89.0701C90.0687 115.74 90.7734 115.647 91.1841 115.46C91.5947 115.264 91.8001 114.947 91.8001 114.508C91.7907 114.219 91.6927 113.78 91.5061 113.192C91.3287 112.595 91.1747 112.165 91.0441 111.904L92.0521 111.372C92.2387 111.736 92.4207 112.231 92.5981 112.856C92.7847 113.472 92.8781 114.009 92.8781 114.466C92.8781 115.297 92.5747 115.927 91.9681 116.356C91.3614 116.785 90.4467 117 89.2241 117H88.5101V115.74ZM88.0341 118.974L88.6641 118.344L89.6021 119.282L88.6641 120.234L87.7261 119.282L88.0341 118.974ZM90.5261 118.974L91.1561 118.344L92.0941 119.282L91.1561 120.234L90.2181 119.282L90.5261 118.974ZM94.5813 116.916C94.6466 116.356 94.6793 115.409 94.6793 114.074C94.6793 112.805 94.6513 111.493 94.5953 110.14C94.5486 108.777 94.4926 107.895 94.4273 107.494L95.5473 107.256C95.6033 107.685 95.6593 108.623 95.7153 110.07C95.7806 111.507 95.8133 112.875 95.8133 114.172C95.8133 115.479 95.7806 116.44 95.7153 117.056L94.5813 116.916ZM102.111 119.898C103.605 119.571 104.711 119.128 105.429 118.568C106.148 118.017 106.507 117.322 106.507 116.482C106.498 115.931 106.423 115.385 106.283 114.844C106.143 114.303 105.938 113.85 105.667 113.486C105.397 113.113 105.075 112.912 104.701 112.884C104.496 112.875 104.295 112.959 104.099 113.136C103.903 113.313 103.745 113.542 103.623 113.822C103.502 114.102 103.441 114.368 103.441 114.62C103.441 114.825 103.483 114.998 103.567 115.138C103.717 115.362 103.969 115.53 104.323 115.642C104.687 115.754 105.103 115.81 105.569 115.81C106.017 115.81 106.428 115.768 106.801 115.684V116.874C106.4 116.986 105.933 117.042 105.401 117.042C104.785 117.042 104.23 116.949 103.735 116.762C103.241 116.566 102.886 116.258 102.671 115.838C102.522 115.539 102.447 115.189 102.447 114.788C102.447 114.303 102.55 113.817 102.755 113.332C102.97 112.847 103.25 112.445 103.595 112.128C103.95 111.811 104.328 111.652 104.729 111.652C105.28 111.652 105.765 111.895 106.185 112.38C106.605 112.865 106.927 113.477 107.151 114.214C107.375 114.942 107.487 115.661 107.487 116.37C107.487 117.527 107.044 118.512 106.157 119.324C105.28 120.136 104.053 120.701 102.475 121.018L102.111 119.898ZM117.633 120.906C116.831 120.906 116.117 120.747 115.491 120.43C114.875 120.122 114.39 119.679 114.035 119.1C113.681 118.521 113.503 117.845 113.503 117.07C113.503 116.501 113.597 115.899 113.783 115.264C113.97 114.629 114.185 114.069 114.427 113.584L115.379 114.032C114.857 115.133 114.595 116.095 114.595 116.916C114.595 117.803 114.857 118.479 115.379 118.946C115.902 119.413 116.653 119.646 117.633 119.646C118.203 119.646 118.739 119.571 119.243 119.422C119.757 119.273 120.177 119.086 120.503 118.862C120.83 118.647 121.017 118.456 121.063 118.288C121.017 118.185 120.853 118.022 120.573 117.798C120.303 117.583 119.962 117.355 119.551 117.112C119.141 116.869 118.716 116.659 118.277 116.482L118.543 115.292C119.99 115.591 121.194 115.74 122.155 115.74H122.491L122.561 116.37L122.491 117H122.155C121.53 117 120.928 116.958 120.349 116.874C119.771 116.781 119.085 116.65 118.291 116.482L118.571 115.67L118.851 115.796C119.785 116.207 120.564 116.613 121.189 117.014C121.824 117.425 122.141 117.859 122.141 118.316C122.141 118.745 121.931 119.156 121.511 119.548C121.101 119.949 120.545 120.276 119.845 120.528C119.155 120.78 118.417 120.906 117.633 120.906ZM122.239 115.74H122.365C123.083 115.74 123.643 115.712 124.045 115.656C124.446 115.591 124.74 115.493 124.927 115.362C125.113 115.231 125.249 115.054 125.333 114.83C125.389 114.662 125.417 114.461 125.417 114.228C125.417 113.929 125.361 113.416 125.249 112.688L126.285 112.492C126.397 113.08 126.457 113.827 126.467 114.732C126.597 115.404 127.022 115.74 127.741 115.74H127.839L127.909 116.37L127.839 117H127.741C127.274 117 126.863 116.865 126.509 116.594C126.163 116.314 125.921 115.959 125.781 115.53L126.061 115.586C125.939 115.941 125.739 116.221 125.459 116.426C125.179 116.631 124.791 116.781 124.297 116.874C123.811 116.958 123.167 117 122.365 117H122.239V115.74ZM123.009 110.07L123.639 109.44L124.577 110.378L123.639 111.33L122.701 110.378L123.009 110.07ZM125.501 110.07L126.131 109.44L127.069 110.378L126.131 111.33L125.193 110.378L125.501 110.07ZM135.534 115.74C136.234 115.74 136.584 115.353 136.584 114.578C136.584 114.261 136.49 113.817 136.304 113.248C136.126 112.669 135.968 112.231 135.828 111.932L136.822 111.386C137.008 111.778 137.195 112.291 137.382 112.926C137.568 113.551 137.662 114.102 137.662 114.578C137.662 115.035 137.568 115.451 137.382 115.824C137.204 116.188 136.952 116.477 136.626 116.692C136.308 116.897 135.944 117 135.534 117H135.506V115.74H135.534ZM131.726 117V115.74H131.768C132.29 115.74 132.738 115.413 133.112 114.76C133.233 114.536 133.326 114.27 133.392 113.962C133.466 113.654 133.536 113.313 133.602 112.94L134.638 112.996C134.628 113.033 134.596 113.206 134.54 113.514C134.484 113.822 134.456 114.121 134.456 114.41C134.456 114.858 134.54 115.194 134.708 115.418C134.885 115.633 135.16 115.74 135.534 115.74H135.562L135.632 116.37L135.562 117H135.534C134.992 117 134.558 116.841 134.232 116.524C133.914 116.197 133.723 115.745 133.658 115.166L133.882 115.152C133.686 115.684 133.396 116.127 133.014 116.482C132.64 116.827 132.22 117 131.754 117H131.726ZM127.722 117L127.652 116.37L127.722 115.74H127.792C128.137 115.74 128.464 115.661 128.772 115.502C129.08 115.343 129.318 115.133 129.486 114.872C129.663 114.62 129.798 114.354 129.892 114.074C129.994 113.794 130.097 113.463 130.2 113.08L131.25 113.192C131.231 113.248 131.194 113.388 131.138 113.612C131.082 113.836 131.035 114.046 130.998 114.242C130.97 114.438 130.956 114.615 130.956 114.774C130.956 115.418 131.217 115.74 131.74 115.74H131.768L131.838 116.37L131.768 117H131.726C131.296 117 130.937 116.874 130.648 116.622C130.368 116.361 130.2 116.011 130.144 115.572C129.854 116.039 129.509 116.393 129.108 116.636C128.706 116.879 128.263 117 127.778 117H127.722ZM134.148 107.592L134.988 108.446L134.148 109.286L133.308 108.446L134.148 107.592ZM135.436 109.02L136.388 109.972L135.436 110.91C135.128 110.593 134.815 110.28 134.498 109.972L135.436 109.02ZM132.86 109.02L133.812 109.972L132.86 110.91C132.552 110.593 132.239 110.28 131.922 109.972L132.86 109.02ZM139.275 116.916C139.34 116.356 139.373 115.409 139.373 114.074C139.373 112.805 139.345 111.493 139.289 110.14C139.242 108.777 139.186 107.895 139.121 107.494L140.241 107.256C140.297 107.685 140.353 108.623 140.409 110.07C140.474 111.507 140.507 112.875 140.507 114.172C140.507 115.479 140.474 116.44 140.409 117.056L139.275 116.916ZM145.942 109.986L147.86 114.522C148.047 114.979 148.257 115.297 148.49 115.474C148.733 115.651 149.06 115.74 149.47 115.74H149.624L149.694 116.37L149.624 117H149.47C148.882 117 148.378 116.851 147.958 116.552C147.538 116.244 147.184 115.759 146.894 115.096L144.934 110.518L145.942 109.986ZM142.456 115.124C142.82 115.339 143.17 115.516 143.506 115.656C143.842 115.787 144.244 115.852 144.71 115.852C145.289 115.852 145.774 115.763 146.166 115.586C146.558 115.399 146.941 115.171 147.314 114.9L147.874 115.698C147.613 115.941 147.366 116.151 147.132 116.328C146.899 116.505 146.582 116.673 146.18 116.832C145.779 116.981 145.322 117.056 144.808 117.056C144.174 117.056 143.628 116.958 143.17 116.762C142.713 116.566 142.293 116.328 141.91 116.048L142.456 115.124ZM149.501 115.74H150.369C151.526 115.74 152.403 115.586 153.001 115.278C153.607 114.961 153.934 114.517 153.981 113.948C154.009 113.64 153.906 113.309 153.673 112.954C153.439 112.599 153.136 112.301 152.763 112.058C152.492 112.469 152.245 113.066 152.021 113.85C151.797 114.625 151.685 115.39 151.685 116.146C151.685 116.753 151.792 117.285 152.007 117.742C152.221 118.209 152.492 118.563 152.819 118.806C153.145 119.058 153.467 119.184 153.785 119.184C154.037 119.184 154.251 119.109 154.429 118.96C154.541 118.867 154.597 118.722 154.597 118.526C154.597 118.19 154.447 117.807 154.149 117.378C153.859 116.949 153.472 116.594 152.987 116.314L153.211 115.25C153.687 115.427 154.205 115.553 154.765 115.628C155.334 115.703 155.987 115.74 156.725 115.74L156.795 116.37L156.725 117C156.006 117 155.348 116.944 154.751 116.832C154.163 116.72 153.575 116.547 152.987 116.314L153.267 115.53C153.715 115.707 154.116 115.959 154.471 116.286C154.835 116.613 155.115 116.977 155.311 117.378C155.516 117.779 155.619 118.171 155.619 118.554C155.619 119.067 155.432 119.497 155.059 119.842C154.685 120.169 154.242 120.332 153.729 120.332C153.215 120.332 152.716 120.169 152.231 119.842C151.755 119.515 151.367 119.03 151.069 118.386C150.779 117.742 150.649 116.963 150.677 116.048C150.723 114.993 150.887 114.06 151.167 113.248C151.447 112.427 151.736 111.783 152.035 111.316L153.043 110.91C153.621 111.246 154.088 111.694 154.443 112.254C154.797 112.805 154.975 113.369 154.975 113.948C154.975 114.919 154.536 115.67 153.659 116.202C152.791 116.734 151.615 117 150.131 117H149.501V115.74ZM156.555 115.74H157.283C158.03 115.74 158.566 115.642 158.893 115.446C159.229 115.25 159.397 114.947 159.397 114.536C159.397 114.247 159.304 113.803 159.117 113.206C158.93 112.609 158.776 112.175 158.655 111.904L159.663 111.372C159.84 111.764 160.022 112.282 160.209 112.926C160.396 113.561 160.489 114.102 160.489 114.55C160.48 115.353 160.2 115.964 159.649 116.384C159.098 116.795 158.31 117 157.283 117H156.555V115.74ZM157.269 119.282L157.605 118.946C158.044 118.507 158.263 118.288 158.263 118.288C158.263 118.288 158.482 118.507 158.921 118.946L159.257 119.282L158.263 120.276L157.269 119.282ZM168.399 113.36C167.876 114.461 167.615 115.423 167.615 116.244C167.615 117.131 167.876 117.807 168.399 118.274C168.922 118.741 169.673 118.974 170.653 118.974C171.306 118.974 171.88 118.871 172.375 118.666C172.879 118.47 173.28 118.218 173.579 117.91C173.878 117.602 174.078 117.289 174.181 116.972C174.2 116.907 174.088 116.827 173.845 116.734C173.612 116.631 173.173 116.487 172.529 116.3C171.792 116.095 171.278 115.875 170.989 115.642C170.7 115.399 170.555 115.045 170.555 114.578C170.555 113.887 170.732 113.234 171.087 112.618C171.442 112.002 171.908 111.507 172.487 111.134C173.066 110.761 173.682 110.574 174.335 110.574C174.587 110.574 174.834 110.607 175.077 110.672C175.32 110.728 175.506 110.803 175.637 110.896L175.259 112.002C175.007 111.89 174.699 111.834 174.335 111.834C173.859 111.834 173.416 111.96 173.005 112.212C172.594 112.464 172.263 112.781 172.011 113.164C171.768 113.547 171.647 113.915 171.647 114.27C171.647 114.447 171.745 114.601 171.941 114.732C172.146 114.863 172.552 115.017 173.159 115.194C173.756 115.371 174.2 115.525 174.489 115.656C174.788 115.787 174.993 115.931 175.105 116.09C175.217 116.239 175.273 116.435 175.273 116.678C175.273 117.247 175.072 117.807 174.671 118.358C174.279 118.909 173.728 119.357 173.019 119.702C172.319 120.057 171.53 120.234 170.653 120.234C169.85 120.234 169.136 120.075 168.511 119.758C167.895 119.45 167.41 119.007 167.055 118.428C166.7 117.849 166.523 117.173 166.523 116.398C166.523 115.829 166.616 115.227 166.803 114.592C166.99 113.957 167.204 113.397 167.447 112.912L168.399 113.36ZM178.344 107.256C178.419 107.732 178.475 108.567 178.512 109.762C178.559 110.947 178.582 112.025 178.582 112.996V113.584L178.568 114.074C178.568 114.513 178.605 114.849 178.68 115.082C178.755 115.306 178.895 115.474 179.1 115.586C179.315 115.689 179.632 115.74 180.052 115.74H180.122L180.192 116.37L180.122 117H180.052C179.389 117 178.871 116.893 178.498 116.678C178.125 116.454 177.859 116.123 177.7 115.684C177.551 115.245 177.476 114.667 177.476 113.948C177.476 112.884 177.453 111.68 177.406 110.336C177.369 108.983 177.308 108.035 177.224 107.494L178.344 107.256ZM180.017 115.74H180.213C181.706 115.74 182.807 115.6 183.517 115.32C184.226 115.04 184.627 114.597 184.721 113.99C184.73 113.934 184.735 113.855 184.735 113.752C184.735 113.341 184.623 112.982 184.399 112.674C184.184 112.366 183.895 112.212 183.531 112.212C183.307 112.212 183.083 112.291 182.859 112.45C182.644 112.609 182.467 112.814 182.327 113.066C182.187 113.309 182.117 113.547 182.117 113.78C182.117 114.153 182.317 114.508 182.719 114.844C183.12 115.171 183.615 115.432 184.203 115.628C184.8 115.824 185.365 115.922 185.897 115.922C186.289 115.922 186.615 115.861 186.877 115.74C187.147 115.619 187.325 115.437 187.409 115.194C187.437 115.119 187.451 115.04 187.451 114.956C187.451 114.629 187.259 114.279 186.877 113.906C186.503 113.533 185.887 113.145 185.029 112.744C184.17 112.343 183.059 111.955 181.697 111.582L182.131 110.406C183.801 110.975 185.099 111.507 186.023 112.002C186.956 112.497 187.595 112.963 187.941 113.402C188.295 113.841 188.473 114.289 188.473 114.746C188.473 114.979 188.421 115.283 188.319 115.656C188.179 116.113 187.88 116.459 187.423 116.692C186.965 116.916 186.415 117.028 185.771 117.028C185.033 117.028 184.291 116.888 183.545 116.608C182.798 116.328 182.187 115.945 181.711 115.46C181.244 114.975 181.034 114.438 181.081 113.85C181.118 113.393 181.263 112.949 181.515 112.52C181.767 112.091 182.075 111.745 182.439 111.484C182.812 111.213 183.19 111.078 183.573 111.078C183.955 111.078 184.315 111.204 184.651 111.456C184.987 111.708 185.253 112.039 185.449 112.45C185.645 112.861 185.743 113.29 185.743 113.738C185.743 113.831 185.733 113.962 185.715 114.13C185.565 115.157 185.052 115.894 184.175 116.342C183.297 116.781 181.977 117 180.213 117H180.017V115.74ZM188.029 119.926C188.627 119.721 189.168 119.45 189.653 119.114C190.139 118.778 190.517 118.419 190.787 118.036C191.067 117.653 191.207 117.294 191.207 116.958C191.207 116.482 190.969 115.315 190.493 113.458L191.571 113.052C191.777 113.715 191.945 114.415 192.075 115.152C192.215 115.889 192.285 116.491 192.285 116.958C192.285 117.509 192.122 118.045 191.795 118.568C191.469 119.1 191.016 119.576 190.437 119.996C189.868 120.425 189.224 120.766 188.505 121.018L188.029 119.926ZM193.976 116.916C194.041 116.356 194.074 115.409 194.074 114.074C194.074 112.805 194.046 111.493 193.99 110.14C193.943 108.777 193.887 107.895 193.822 107.494L194.942 107.256C194.998 107.685 195.054 108.623 195.11 110.07C195.175 111.507 195.208 112.875 195.208 114.172C195.208 115.479 195.175 116.44 195.11 117.056L193.976 116.916ZM200.643 109.986L202.561 114.522C202.748 114.979 202.958 115.297 203.191 115.474C203.434 115.651 203.761 115.74 204.171 115.74H204.325L204.395 116.37L204.325 117H204.171C203.583 117 203.079 116.851 202.659 116.552C202.239 116.244 201.885 115.759 201.595 115.096L199.635 110.518L200.643 109.986ZM197.157 115.124C197.521 115.339 197.871 115.516 198.207 115.656C198.543 115.787 198.945 115.852 199.411 115.852C199.99 115.852 200.475 115.763 200.867 115.586C201.259 115.399 201.642 115.171 202.015 114.9L202.575 115.698C202.314 115.941 202.067 116.151 201.833 116.328C201.6 116.505 201.283 116.673 200.881 116.832C200.48 116.981 200.023 117.056 199.509 117.056C198.875 117.056 198.329 116.958 197.871 116.762C197.414 116.566 196.994 116.328 196.611 116.048L197.157 115.124ZM204.188 115.74H204.916C205.662 115.74 206.199 115.642 206.526 115.446C206.862 115.25 207.03 114.947 207.03 114.536C207.03 114.247 206.936 113.803 206.75 113.206C206.563 112.609 206.409 112.175 206.288 111.904L207.296 111.372C207.473 111.764 207.655 112.282 207.842 112.926C208.028 113.561 208.122 114.102 208.122 114.55C208.112 115.353 207.832 115.964 207.282 116.384C206.731 116.795 205.942 117 204.916 117H204.188V115.74ZM205.392 109.496L205.728 109.16C206.166 108.721 206.386 108.502 206.386 108.502C206.386 108.502 206.605 108.721 207.044 109.16L207.38 109.496L206.386 110.49L205.392 109.496ZM210.801 107.256C210.876 107.732 210.932 108.567 210.969 109.762C211.016 110.947 211.039 112.025 211.039 112.996V113.584L211.025 114.074C211.025 114.513 211.063 114.849 211.137 115.082C211.212 115.306 211.352 115.474 211.557 115.586C211.772 115.689 212.089 115.74 212.509 115.74H212.579L212.649 116.37L212.579 117H212.509C211.847 117 211.329 116.893 210.955 116.678C210.582 116.454 210.316 116.123 210.157 115.684C210.008 115.245 209.933 114.667 209.933 113.948C209.933 112.884 209.91 111.68 209.863 110.336C209.826 108.983 209.765 108.035 209.681 107.494L210.801 107.256ZM212.446 115.74H212.572C213.29 115.74 213.85 115.712 214.252 115.656C214.653 115.591 214.947 115.493 215.134 115.362C215.32 115.231 215.456 115.054 215.54 114.83C215.596 114.662 215.624 114.461 215.624 114.228C215.624 113.929 215.568 113.416 215.456 112.688L216.492 112.492C216.604 113.08 216.664 113.827 216.674 114.732C216.804 115.404 217.229 115.74 217.948 115.74H218.046L218.116 116.37L218.046 117H217.948C217.481 117 217.07 116.865 216.716 116.594C216.37 116.314 216.128 115.959 215.988 115.53L216.268 115.586C216.146 115.941 215.946 116.221 215.666 116.426C215.386 116.631 214.998 116.781 214.504 116.874C214.018 116.958 213.374 117 212.572 117H212.446V115.74ZM213.216 110.07L213.846 109.44L214.784 110.378L213.846 111.33L212.908 110.378L213.216 110.07ZM215.708 110.07L216.338 109.44L217.276 110.378L216.338 111.33L215.4 110.378L215.708 110.07ZM225.741 115.74C226.441 115.74 226.791 115.353 226.791 114.578C226.791 114.261 226.697 113.817 226.511 113.248C226.333 112.669 226.175 112.231 226.035 111.932L227.029 111.386C227.215 111.778 227.402 112.291 227.589 112.926C227.775 113.551 227.869 114.102 227.869 114.578C227.869 115.035 227.775 115.451 227.589 115.824C227.411 116.188 227.159 116.477 226.833 116.692C226.515 116.897 226.151 117 225.741 117H225.713V115.74H225.741ZM221.933 117V115.74H221.975C222.497 115.74 222.945 115.413 223.319 114.76C223.44 114.536 223.533 114.27 223.599 113.962C223.673 113.654 223.743 113.313 223.809 112.94L224.845 112.996C224.835 113.033 224.803 113.206 224.747 113.514C224.691 113.822 224.663 114.121 224.663 114.41C224.663 114.858 224.747 115.194 224.915 115.418C225.092 115.633 225.367 115.74 225.741 115.74H225.769L225.839 116.37L225.769 117H225.741C225.199 117 224.765 116.841 224.439 116.524C224.121 116.197 223.93 115.745 223.865 115.166L224.089 115.152C223.893 115.684 223.603 116.127 223.221 116.482C222.847 116.827 222.427 117 221.961 117H221.933ZM217.929 117L217.859 116.37L217.929 115.74H217.999C218.344 115.74 218.671 115.661 218.979 115.502C219.287 115.343 219.525 115.133 219.693 114.872C219.87 114.62 220.005 114.354 220.099 114.074C220.201 113.794 220.304 113.463 220.407 113.08L221.457 113.192C221.438 113.248 221.401 113.388 221.345 113.612C221.289 113.836 221.242 114.046 221.205 114.242C221.177 114.438 221.163 114.615 221.163 114.774C221.163 115.418 221.424 115.74 221.947 115.74H221.975L222.045 116.37L221.975 117H221.933C221.503 117 221.144 116.874 220.855 116.622C220.575 116.361 220.407 116.011 220.351 115.572C220.061 116.039 219.716 116.393 219.315 116.636C218.913 116.879 218.47 117 217.985 117H217.929ZM229.482 116.916C229.547 116.356 229.58 115.409 229.58 114.074C229.58 112.805 229.552 111.493 229.496 110.14C229.449 108.777 229.393 107.895 229.328 107.494L230.448 107.256C230.504 107.685 230.56 108.623 230.616 110.07C230.681 111.507 230.714 112.875 230.714 114.172C230.714 115.479 230.681 116.44 230.616 117.056L229.482 116.916ZM245.314 114.158C245.482 114.746 245.659 115.157 245.846 115.39C246.042 115.623 246.322 115.74 246.686 115.74H246.77L246.84 116.37L246.77 117H246.686C246.359 117 246.074 116.888 245.832 116.664C245.598 116.431 245.402 116.155 245.244 115.838C245.085 115.511 244.898 115.077 244.684 114.536L245.314 114.158ZM239.056 114.144C238.533 115.245 238.272 116.207 238.272 117.028C238.272 117.915 238.533 118.591 239.056 119.058C239.578 119.525 240.33 119.758 241.31 119.758C242.066 119.758 242.696 119.618 243.2 119.338C243.713 119.067 244.091 118.717 244.334 118.288C244.576 117.868 244.698 117.425 244.698 116.958C244.698 116.183 244.441 115.017 243.928 113.458L244.964 112.982C245.234 113.841 245.435 114.583 245.566 115.208C245.696 115.824 245.762 116.407 245.762 116.958C245.762 117.63 245.584 118.279 245.23 118.904C244.884 119.529 244.376 120.038 243.704 120.43C243.032 120.822 242.234 121.018 241.31 121.018C240.423 121.018 239.667 120.841 239.042 120.486C238.426 120.131 237.959 119.66 237.642 119.072C237.334 118.484 237.18 117.84 237.18 117.14C237.18 116.58 237.273 115.992 237.46 115.376C237.646 114.76 237.861 114.2 238.104 113.696L239.056 114.144ZM240.61 113.192L240.946 112.856C241.384 112.417 241.604 112.198 241.604 112.198C241.604 112.198 241.823 112.417 242.262 112.856L242.598 113.192L241.604 114.186L240.61 113.192ZM246.892 115.74H247.452C248.45 115.74 249.155 115.647 249.566 115.46C249.976 115.264 250.182 114.947 250.182 114.508C250.172 114.219 250.074 113.78 249.888 113.192C249.71 112.595 249.556 112.165 249.426 111.904L250.434 111.372C250.62 111.736 250.802 112.231 250.98 112.856C251.166 113.472 251.26 114.009 251.26 114.466C251.26 115.297 250.956 115.927 250.35 116.356C249.743 116.785 248.828 117 247.606 117H246.892V115.74ZM247.074 118.946L247.704 118.316L248.642 119.254L247.704 120.206L246.766 119.254L247.074 118.946ZM249.566 118.946L250.196 118.316L251.134 119.254L250.196 120.206L249.258 119.254L249.566 118.946ZM246.654 117L246.584 116.37L246.654 115.74H247.018V117H246.654ZM257.03 117C256.451 117 256.003 116.799 255.686 116.398C255.369 115.997 255.103 115.418 254.888 114.662L255.672 114.186C255.812 114.755 255.98 115.157 256.176 115.39C256.381 115.623 256.666 115.74 257.03 115.74H257.128L257.198 116.37L257.128 117H257.03ZM251.836 119.926C252.433 119.721 252.975 119.45 253.46 119.114C253.945 118.778 254.323 118.419 254.594 118.036C254.874 117.653 255.014 117.294 255.014 116.958C255.014 116.482 254.776 115.315 254.3 113.458L255.378 113.052C255.583 113.715 255.751 114.415 255.882 115.152C256.022 115.889 256.092 116.491 256.092 116.958C256.092 117.509 255.929 118.045 255.602 118.568C255.275 119.1 254.823 119.576 254.244 119.996C253.675 120.425 253.031 120.766 252.312 121.018L251.836 119.926ZM256.989 115.74H257.549C258.547 115.74 259.252 115.647 259.663 115.46C260.073 115.264 260.279 114.947 260.279 114.508C260.269 114.219 260.171 113.78 259.985 113.192C259.807 112.595 259.653 112.165 259.523 111.904L260.531 111.372C260.717 111.736 260.899 112.231 261.077 112.856C261.263 113.472 261.357 114.009 261.357 114.466C261.357 115.297 261.053 115.927 260.447 116.356C259.84 116.785 258.925 117 257.703 117H256.989V115.74ZM257.689 109.244L258.319 108.614L259.257 109.552L258.319 110.504L257.381 109.552L257.689 109.244ZM260.181 109.244L260.811 108.614L261.749 109.552L260.811 110.504L259.873 109.552L260.181 109.244ZM268.902 107.256C269.051 108.432 269.158 109.407 269.224 110.182C269.298 110.947 269.336 111.722 269.336 112.506C269.336 112.851 269.331 113.108 269.322 113.276C269.275 114.592 268.748 115.577 267.74 116.23C266.732 116.874 265.411 117.271 263.778 117.42L263.47 116.188C266.624 115.852 268.202 114.881 268.202 113.276C268.202 112.352 268.169 111.47 268.104 110.63C268.038 109.781 267.931 108.735 267.782 107.494L268.902 107.256ZM264.002 108.474C264.59 109.743 265.052 110.952 265.388 112.1C265.724 113.248 265.892 114.223 265.892 115.026C265.892 115.325 265.864 115.595 265.808 115.838L264.688 116.16C264.772 115.917 264.814 115.623 264.814 115.278C264.814 114.55 264.646 113.64 264.31 112.548C263.983 111.447 263.563 110.299 263.05 109.104L264.002 108.474ZM272.092 107.256C272.167 107.732 272.223 108.567 272.26 109.762C272.307 110.947 272.33 112.025 272.33 112.996V113.584L272.316 114.074C272.316 114.513 272.354 114.849 272.428 115.082C272.503 115.306 272.643 115.474 272.848 115.586C273.063 115.689 273.38 115.74 273.8 115.74H273.87L273.94 116.37L273.87 117H273.8C273.138 117 272.62 116.893 272.246 116.678C271.873 116.454 271.607 116.123 271.448 115.684C271.299 115.245 271.224 114.667 271.224 113.948C271.224 112.884 271.201 111.68 271.154 110.336C271.117 108.983 271.056 108.035 270.972 107.494L272.092 107.256ZM273.737 115.74H274.465C275.211 115.74 275.748 115.642 276.075 115.446C276.411 115.25 276.579 114.947 276.579 114.536C276.579 114.247 276.485 113.803 276.299 113.206C276.112 112.609 275.958 112.175 275.837 111.904L276.845 111.372C277.022 111.764 277.204 112.282 277.391 112.926C277.577 113.561 277.671 114.102 277.671 114.55C277.661 115.353 277.381 115.964 276.831 116.384C276.28 116.795 275.491 117 274.465 117H273.737V115.74ZM273.779 119.296L274.115 118.96C274.553 118.521 274.773 118.302 274.773 118.302C274.773 118.302 274.992 118.521 275.431 118.96L275.767 119.296L274.773 120.29L273.779 119.296ZM288.927 117.14C288.917 117 288.913 116.79 288.913 116.51C288.913 116.23 288.917 116.02 288.927 115.88C290.065 115.88 290.994 115.787 291.713 115.6C292.431 115.404 292.996 115.105 293.407 114.704C293.827 114.293 294.149 113.752 294.373 113.08L295.409 113.192C295.25 113.715 295.171 114.153 295.171 114.508C295.171 115.329 295.572 115.74 296.375 115.74L296.445 116.37L296.375 117C295.749 117 295.236 116.804 294.835 116.412C294.443 116.02 294.247 115.493 294.247 114.83H294.527C294.013 115.642 293.295 116.23 292.371 116.594C291.456 116.958 290.308 117.14 288.927 117.14ZM285.175 112.282C284.913 113.01 284.783 113.584 284.783 114.004C284.783 114.135 284.787 114.233 284.797 114.298C284.871 114.802 285.259 115.194 285.959 115.474C286.659 115.745 287.671 115.88 288.997 115.88C289.015 116.039 289.025 116.272 289.025 116.58C289.025 116.832 289.02 117.019 289.011 117.14C287.387 117.149 286.117 116.925 285.203 116.468C284.297 116.001 283.803 115.339 283.719 114.48C283.709 114.405 283.705 114.298 283.705 114.158C283.705 113.766 283.751 113.36 283.845 112.94C283.947 112.511 284.073 112.133 284.223 111.806L285.175 112.282ZM287.387 111.764L288.017 111.134L288.955 112.072L288.017 113.024L287.079 112.072L287.387 111.764ZM289.879 111.764L290.509 111.134L291.447 112.072L290.509 113.024L289.571 112.072L289.879 111.764ZM296.241 115.74H296.801C297.799 115.74 298.504 115.647 298.915 115.46C299.325 115.264 299.531 114.947 299.531 114.508C299.521 114.219 299.423 113.78 299.237 113.192C299.059 112.595 298.905 112.165 298.775 111.904L299.783 111.372C299.969 111.736 300.151 112.231 300.329 112.856C300.515 113.472 300.609 114.009 300.609 114.466C300.609 115.297 300.305 115.927 299.699 116.356C299.092 116.785 298.177 117 296.955 117H296.241V115.74ZM295.765 118.974L296.395 118.344L297.333 119.282L296.395 120.234L295.457 119.282L295.765 118.974ZM298.257 118.974L298.887 118.344L299.825 119.282L298.887 120.234L297.949 119.282L298.257 118.974ZM303.278 107.256C303.352 107.732 303.408 108.567 303.446 109.762C303.492 110.947 303.516 112.025 303.516 112.996V113.584L303.502 114.074C303.502 114.513 303.539 114.849 303.614 115.082C303.688 115.306 303.828 115.474 304.034 115.586C304.248 115.689 304.566 115.74 304.986 115.74H305.056L305.126 116.37L305.056 117H304.986C304.323 117 303.805 116.893 303.432 116.678C303.058 116.454 302.792 116.123 302.634 115.684C302.484 115.245 302.41 114.667 302.41 113.948C302.41 112.884 302.386 111.68 302.34 110.336C302.302 108.983 302.242 108.035 302.158 107.494L303.278 107.256ZM304.922 115.74H305.09C306.705 115.74 308.007 115.684 308.996 115.572C309.995 115.451 310.863 115.25 311.6 114.97L311.866 116.09C311.101 116.407 310.2 116.641 309.164 116.79C308.128 116.93 306.77 117 305.09 117H304.922V115.74ZM309.64 116.636C309.052 116.673 308.488 116.575 307.946 116.342C307.405 116.109 306.966 115.773 306.63 115.334C306.304 114.895 306.14 114.396 306.14 113.836C306.14 113.379 306.252 112.949 306.476 112.548C306.71 112.137 307.022 111.801 307.414 111.54C307.806 111.279 308.24 111.12 308.716 111.064C308.782 111.055 308.875 111.05 308.996 111.05C309.407 111.05 309.808 111.139 310.2 111.316C310.602 111.484 310.961 111.713 311.278 112.002L310.83 112.87C310.224 112.497 309.64 112.31 309.08 112.31C308.707 112.31 308.376 112.38 308.086 112.52C307.806 112.66 307.587 112.851 307.428 113.094C307.27 113.327 307.19 113.579 307.19 113.85C307.19 114.149 307.293 114.433 307.498 114.704C307.713 114.965 308.002 115.171 308.366 115.32C308.73 115.46 309.132 115.521 309.57 115.502L309.64 116.636ZM311.309 119.926C311.906 119.721 312.447 119.45 312.933 119.114C313.418 118.778 313.796 118.419 314.067 118.036C314.347 117.653 314.487 117.294 314.487 116.958C314.487 116.482 314.249 115.315 313.773 113.458L314.851 113.052C315.056 113.715 315.224 114.415 315.355 115.152C315.495 115.889 315.565 116.491 315.565 116.958C315.565 117.509 315.401 118.045 315.075 118.568C314.748 119.1 314.295 119.576 313.717 119.996C313.147 120.425 312.503 120.766 311.785 121.018L311.309 119.926ZM325.93 110.21C326.098 112.077 326.224 113.337 326.308 113.99C326.354 114.466 326.42 114.825 326.504 115.068C326.597 115.311 326.732 115.483 326.91 115.586C327.087 115.689 327.344 115.74 327.68 115.74H327.876L327.946 116.37L327.876 117H327.68C326.933 117 326.364 116.781 325.972 116.342C325.58 115.894 325.328 115.166 325.216 114.158L324.978 112.002L324.796 110.434L325.93 110.21ZM325.86 116.02C325.309 116.207 324.758 116.3 324.208 116.3C323.442 116.3 322.812 116.123 322.318 115.768C321.832 115.413 321.59 114.933 321.59 114.326C321.59 113.001 322.78 111.951 325.16 111.176L325.398 112.352C324.66 112.548 324.026 112.814 323.494 113.15C322.962 113.477 322.682 113.794 322.654 114.102C322.626 114.373 322.742 114.597 323.004 114.774C323.274 114.951 323.638 115.04 324.096 115.04C324.562 115.04 325.057 114.947 325.58 114.76L325.86 116.02ZM327.713 115.74H328.441C329.188 115.74 329.725 115.642 330.051 115.446C330.387 115.25 330.555 114.947 330.555 114.536C330.555 114.247 330.462 113.803 330.275 113.206C330.089 112.609 329.935 112.175 329.813 111.904L330.821 111.372C330.999 111.764 331.181 112.282 331.367 112.926C331.554 113.561 331.647 114.102 331.647 114.55C331.638 115.353 331.358 115.964 330.807 116.384C330.257 116.795 329.468 117 328.441 117H327.713V115.74ZM327.755 119.296L328.091 118.96C328.53 118.521 328.749 118.302 328.749 118.302C328.749 118.302 328.969 118.521 329.407 118.96L329.743 119.296L328.749 120.29L327.755 119.296ZM339.221 107.256C339.296 107.732 339.352 108.567 339.389 109.762C339.436 110.947 339.459 112.025 339.459 112.996V113.584L339.445 114.074C339.445 114.513 339.482 114.849 339.557 115.082C339.632 115.306 339.772 115.474 339.977 115.586C340.192 115.689 340.509 115.74 340.929 115.74H340.999L341.069 116.37L340.999 117H340.929C340.266 117 339.748 116.893 339.375 116.678C339.002 116.454 338.736 116.123 338.577 115.684C338.428 115.245 338.353 114.667 338.353 113.948C338.353 112.884 338.33 111.68 338.283 110.336C338.246 108.983 338.185 108.035 338.101 107.494L339.221 107.256ZM343.554 114.634C344.142 115.035 344.669 115.343 345.136 115.558C345.602 115.773 345.962 115.88 346.214 115.88C346.298 115.88 346.377 115.861 346.452 115.824C346.62 115.74 346.746 115.6 346.83 115.404C346.914 115.208 346.956 114.984 346.956 114.732C346.956 114.275 346.839 113.859 346.606 113.486C346.382 113.113 346.083 112.926 345.71 112.926C345.42 112.926 345.112 113.131 344.786 113.542C344.459 113.943 344.1 114.536 343.708 115.32C343.428 115.871 343.064 116.291 342.616 116.58C342.177 116.86 341.678 117 341.118 117H340.866L340.88 115.74H341.146C341.528 115.74 341.878 115.633 342.196 115.418C342.522 115.194 342.793 114.867 343.008 114.438C343.4 113.645 343.806 113.01 344.226 112.534C344.646 112.058 345.108 111.806 345.612 111.778C346.078 111.75 346.489 111.876 346.844 112.156C347.208 112.427 347.483 112.791 347.67 113.248C347.866 113.696 347.964 114.167 347.964 114.662C347.964 115.157 347.866 115.609 347.67 116.02C347.474 116.421 347.184 116.725 346.802 116.93C346.643 117.023 346.442 117.07 346.2 117.07C345.49 117.07 344.44 116.608 343.05 115.684L343.554 114.634ZM113.884 139.74H113.912C114.258 139.74 114.57 139.642 114.85 139.446C115.14 139.25 115.298 139.026 115.326 138.774L116.096 138.914C116.059 139.306 115.933 139.661 115.718 139.978C115.513 140.295 115.252 140.547 114.934 140.734C114.617 140.911 114.276 141 113.912 141H113.884V139.74ZM117.482 139.74L117.552 140.37L117.482 141H117.412C116.899 141 116.446 140.855 116.054 140.566C115.662 140.277 115.378 139.861 115.2 139.32C115.107 139.049 114.934 138.256 114.682 136.94L115.704 136.674C115.91 137.831 116.068 138.569 116.18 138.886C116.274 139.175 116.418 139.39 116.614 139.53C116.82 139.67 117.086 139.74 117.412 139.74H117.482ZM110.104 141V139.74H110.146C110.669 139.74 111.117 139.413 111.49 138.76C111.612 138.536 111.705 138.27 111.77 137.962C111.845 137.654 111.915 137.313 111.98 136.94L113.016 136.996C113.007 137.033 112.974 137.206 112.918 137.514C112.862 137.822 112.834 138.121 112.834 138.41C112.834 138.858 112.918 139.194 113.086 139.418C113.264 139.633 113.539 139.74 113.912 139.74H113.94L114.01 140.37L113.94 141H113.912C113.371 141 112.937 140.841 112.61 140.524C112.293 140.197 112.102 139.745 112.036 139.166L112.26 139.152C112.064 139.684 111.775 140.127 111.392 140.482C111.019 140.827 110.599 141 110.132 141H110.104ZM108.746 138.284C108.886 138.797 109.054 139.171 109.25 139.404C109.446 139.628 109.759 139.74 110.188 139.74L110.132 141C109.572 141 109.129 140.767 108.802 140.3C108.485 139.824 108.289 139.269 108.214 138.634L108.746 138.284ZM102.446 138.144C101.924 139.245 101.662 140.207 101.662 141.028C101.662 141.915 101.924 142.591 102.446 143.058C102.969 143.525 103.72 143.758 104.7 143.758C105.456 143.758 106.086 143.618 106.59 143.338C107.104 143.067 107.482 142.717 107.724 142.288C107.967 141.868 108.088 141.425 108.088 140.958C108.088 140.183 107.832 139.017 107.318 137.458L108.354 136.982C108.625 137.841 108.826 138.583 108.956 139.208C109.087 139.824 109.152 140.407 109.152 140.958C109.152 141.63 108.975 142.279 108.62 142.904C108.275 143.529 107.766 144.038 107.094 144.43C106.422 144.822 105.624 145.018 104.7 145.018C103.814 145.018 103.058 144.841 102.432 144.486C101.816 144.131 101.35 143.66 101.032 143.072C100.724 142.484 100.57 141.84 100.57 141.14C100.57 140.58 100.664 139.992 100.85 139.376C101.037 138.76 101.252 138.2 101.494 137.696L102.446 138.144ZM112.54 132.054L113.38 132.908L112.54 133.748L111.7 132.908L112.54 132.054ZM113.828 133.482L114.78 134.434L113.828 135.372C113.52 135.055 113.208 134.742 112.89 134.434L113.828 133.482ZM111.252 133.482L112.204 134.434L111.252 135.372C110.944 135.055 110.632 134.742 110.314 134.434L111.252 133.482ZM120.018 138.634C120.606 139.035 121.134 139.343 121.6 139.558C122.067 139.773 122.426 139.88 122.678 139.88C122.762 139.88 122.842 139.861 122.916 139.824C123.084 139.74 123.21 139.6 123.294 139.404C123.378 139.208 123.42 138.984 123.42 138.732C123.42 138.275 123.304 137.859 123.07 137.486C122.846 137.113 122.548 136.926 122.174 136.926C121.885 136.926 121.577 137.131 121.25 137.542C120.924 137.943 120.564 138.536 120.172 139.32C119.892 139.871 119.528 140.291 119.08 140.58C118.642 140.86 118.142 141 117.582 141H117.33L117.344 139.74H117.61C117.993 139.74 118.343 139.633 118.66 139.418C118.987 139.194 119.258 138.867 119.472 138.438C119.864 137.645 120.27 137.01 120.69 136.534C121.11 136.058 121.572 135.806 122.076 135.778C122.543 135.75 122.954 135.876 123.308 136.156C123.672 136.427 123.948 136.791 124.134 137.248C124.33 137.696 124.428 138.167 124.428 138.662C124.428 139.157 124.33 139.609 124.134 140.02C123.938 140.421 123.649 140.725 123.266 140.93C123.108 141.023 122.907 141.07 122.664 141.07C121.955 141.07 120.905 140.608 119.514 139.684L120.018 138.634ZM126.109 140.916C126.174 140.356 126.207 139.409 126.207 138.074C126.207 136.805 126.179 135.493 126.123 134.14C126.076 132.777 126.02 131.895 125.955 131.494L127.075 131.256C127.131 131.685 127.187 132.623 127.243 134.07C127.308 135.507 127.341 136.875 127.341 138.172C127.341 139.479 127.308 140.44 127.243 141.056L126.109 140.916ZM127.34 143.926C127.937 143.721 128.479 143.45 128.964 143.114C129.449 142.778 129.827 142.419 130.098 142.036C130.378 141.653 130.518 141.294 130.518 140.958C130.518 140.482 130.28 139.315 129.804 137.458L130.882 137.052C131.087 137.715 131.255 138.415 131.386 139.152C131.526 139.889 131.596 140.491 131.596 140.958C131.596 141.509 131.433 142.045 131.106 142.568C130.779 143.1 130.327 143.576 129.748 143.996C129.179 144.425 128.535 144.766 127.816 145.018L127.34 143.926ZM133.272 140.916C133.328 140.337 133.356 139.525 133.356 138.48C133.356 137.388 133.328 136.263 133.272 135.106C133.226 133.939 133.17 133.151 133.104 132.74L134.224 132.502C134.29 132.922 134.35 133.725 134.406 134.91C134.472 136.095 134.504 137.243 134.504 138.354C134.504 139.549 134.467 140.449 134.392 141.056L133.272 140.916ZM131.382 131.718C131.541 131.317 131.746 131.013 131.998 130.808C132.25 130.593 132.526 130.486 132.824 130.486C132.974 130.486 133.114 130.505 133.244 130.542C133.375 130.579 133.52 130.635 133.678 130.71C133.8 130.757 133.921 130.803 134.042 130.85C134.164 130.887 134.285 130.906 134.406 130.906C134.584 130.906 134.761 130.855 134.938 130.752C135.116 130.649 135.265 130.509 135.386 130.332L135.848 130.738C135.662 131.009 135.438 131.223 135.176 131.382C134.924 131.541 134.668 131.62 134.406 131.62C134.248 131.62 134.103 131.601 133.972 131.564C133.851 131.527 133.706 131.471 133.538 131.396C133.389 131.331 133.263 131.284 133.16 131.256C133.058 131.219 132.946 131.2 132.824 131.2C132.628 131.2 132.451 131.27 132.292 131.41C132.134 131.541 132.003 131.737 131.9 131.998L131.382 131.718ZM142.852 131.256C142.927 131.732 142.983 132.567 143.02 133.762C143.067 134.947 143.09 136.025 143.09 136.996V137.584L143.076 138.074C143.076 138.513 143.113 138.849 143.188 139.082C143.263 139.306 143.403 139.474 143.608 139.586C143.823 139.689 144.14 139.74 144.56 139.74H144.63L144.7 140.37L144.63 141H144.56C143.897 141 143.379 140.893 143.006 140.678C142.633 140.454 142.367 140.123 142.208 139.684C142.059 139.245 141.984 138.667 141.984 137.948C141.984 136.884 141.961 135.68 141.914 134.336C141.877 132.983 141.816 132.035 141.732 131.494L142.852 131.256ZM144.496 139.74H145.224C145.971 139.74 146.508 139.642 146.834 139.446C147.17 139.25 147.338 138.947 147.338 138.536C147.338 138.247 147.245 137.803 147.058 137.206C146.872 136.609 146.718 136.175 146.596 135.904L147.604 135.372C147.782 135.764 147.964 136.282 148.15 136.926C148.337 137.561 148.43 138.102 148.43 138.55C148.421 139.353 148.141 139.964 147.59 140.384C147.04 140.795 146.251 141 145.224 141H144.496V139.74ZM144.538 143.296L144.874 142.96C145.313 142.521 145.532 142.302 145.532 142.302C145.532 142.302 145.752 142.521 146.19 142.96L146.526 143.296L145.532 144.29L144.538 143.296ZM156.368 137.584C155.846 138.685 155.584 139.647 155.584 140.468C155.584 141.355 155.846 142.031 156.368 142.498C156.891 142.965 157.642 143.198 158.622 143.198C159.378 143.198 160.008 143.058 160.512 142.778C161.026 142.507 161.404 142.157 161.646 141.728C161.889 141.308 162.01 140.865 162.01 140.398C162.01 139.623 161.754 138.457 161.24 136.898L162.276 136.422C162.547 137.281 162.748 138.023 162.878 138.648C163.009 139.264 163.074 139.847 163.074 140.398C163.074 141.07 162.897 141.719 162.542 142.344C162.197 142.969 161.688 143.478 161.016 143.87C160.344 144.262 159.546 144.458 158.622 144.458C157.736 144.458 156.98 144.281 156.354 143.926C155.738 143.571 155.272 143.1 154.954 142.512C154.646 141.924 154.492 141.28 154.492 140.58C154.492 140.02 154.586 139.432 154.772 138.816C154.959 138.2 155.174 137.64 155.416 137.136L156.368 137.584ZM157.922 136.632L158.258 136.296C158.697 135.857 158.916 135.638 158.916 135.638C158.916 135.638 159.136 135.857 159.574 136.296L159.91 136.632L158.916 137.626L157.922 136.632ZM165.561 131.256C165.636 131.732 165.692 132.567 165.729 133.762C165.776 134.947 165.799 136.025 165.799 136.996V137.584L165.785 138.074C165.785 138.513 165.822 138.849 165.897 139.082C165.972 139.306 166.112 139.474 166.317 139.586C166.532 139.689 166.849 139.74 167.269 139.74H167.339L167.409 140.37L167.339 141H167.269C166.606 141 166.088 140.893 165.715 140.678C165.342 140.454 165.076 140.123 164.917 139.684C164.768 139.245 164.693 138.667 164.693 137.948C164.693 136.884 164.67 135.68 164.623 134.336C164.586 132.983 164.525 132.035 164.441 131.494L165.561 131.256ZM167.205 139.74H167.765C168.764 139.74 169.469 139.647 169.879 139.46C170.29 139.264 170.495 138.947 170.495 138.508C170.486 138.219 170.388 137.78 170.201 137.192C170.024 136.595 169.87 136.165 169.739 135.904L170.747 135.372C170.934 135.736 171.116 136.231 171.293 136.856C171.48 137.472 171.573 138.009 171.573 138.466C171.573 139.297 171.27 139.927 170.663 140.356C170.057 140.785 169.142 141 167.919 141H167.205V139.74ZM166.729 142.974L167.359 142.344L168.297 143.282L167.359 144.234L166.421 143.282L166.729 142.974ZM169.221 142.974L169.851 142.344L170.789 143.282L169.851 144.234L168.913 143.282L169.221 142.974ZM176.776 141C176.197 141 175.749 140.799 175.432 140.398C175.115 139.997 174.849 139.418 174.634 138.662L175.418 138.186C175.558 138.755 175.726 139.157 175.922 139.39C176.127 139.623 176.412 139.74 176.776 139.74H176.874L176.944 140.37L176.874 141H176.776ZM171.582 143.926C172.179 143.721 172.721 143.45 173.206 143.114C173.691 142.778 174.069 142.419 174.34 142.036C174.62 141.653 174.76 141.294 174.76 140.958C174.76 140.482 174.522 139.315 174.046 137.458L175.124 137.052C175.329 137.715 175.497 138.415 175.628 139.152C175.768 139.889 175.838 140.491 175.838 140.958C175.838 141.509 175.675 142.045 175.348 142.568C175.021 143.1 174.569 143.576 173.99 143.996C173.421 144.425 172.777 144.766 172.058 145.018L171.582 143.926ZM176.735 139.74H176.861C177.579 139.74 178.139 139.712 178.541 139.656C178.942 139.591 179.236 139.493 179.423 139.362C179.609 139.231 179.745 139.054 179.829 138.83C179.885 138.662 179.913 138.461 179.913 138.228C179.913 137.929 179.857 137.416 179.745 136.688L180.781 136.492C180.893 137.08 180.953 137.827 180.963 138.732C181.093 139.404 181.518 139.74 182.237 139.74H182.335L182.405 140.37L182.335 141H182.237C181.77 141 181.359 140.865 181.005 140.594C180.659 140.314 180.417 139.959 180.277 139.53L180.557 139.586C180.435 139.941 180.235 140.221 179.955 140.426C179.675 140.631 179.287 140.781 178.793 140.874C178.307 140.958 177.663 141 176.861 141H176.735V139.74ZM177.505 134.07L178.135 133.44L179.073 134.378L178.135 135.33L177.197 134.378L177.505 134.07ZM179.997 134.07L180.627 133.44L181.565 134.378L180.627 135.33L179.689 134.378L179.997 134.07ZM190.002 139.74H190.03C190.375 139.74 190.688 139.642 190.968 139.446C191.257 139.25 191.416 139.026 191.444 138.774L192.214 138.914C192.176 139.306 192.05 139.661 191.836 139.978C191.63 140.295 191.369 140.547 191.052 140.734C190.734 140.911 190.394 141 190.03 141H190.002V139.74ZM193.6 139.74L193.67 140.37L193.6 141H193.53C193.016 141 192.564 140.855 192.172 140.566C191.78 140.277 191.495 139.861 191.318 139.32C191.224 139.049 191.052 138.256 190.8 136.94L191.822 136.674C192.027 137.831 192.186 138.569 192.298 138.886C192.391 139.175 192.536 139.39 192.732 139.53C192.937 139.67 193.203 139.74 193.53 139.74H193.6ZM186.222 141V139.74H186.264C186.786 139.74 187.234 139.413 187.608 138.76C187.729 138.536 187.822 138.27 187.888 137.962C187.962 137.654 188.032 137.313 188.098 136.94L189.134 136.996C189.124 137.033 189.092 137.206 189.036 137.514C188.98 137.822 188.952 138.121 188.952 138.41C188.952 138.858 189.036 139.194 189.204 139.418C189.381 139.633 189.656 139.74 190.03 139.74H190.058L190.128 140.37L190.058 141H190.03C189.488 141 189.054 140.841 188.728 140.524C188.41 140.197 188.219 139.745 188.154 139.166L188.378 139.152C188.182 139.684 187.892 140.127 187.51 140.482C187.136 140.827 186.716 141 186.25 141H186.222ZM182.218 141L182.148 140.37L182.218 139.74H182.288C182.633 139.74 182.96 139.661 183.268 139.502C183.576 139.343 183.814 139.133 183.982 138.872C184.159 138.62 184.294 138.354 184.388 138.074C184.49 137.794 184.593 137.463 184.696 137.08L185.746 137.192C185.727 137.248 185.69 137.388 185.634 137.612C185.578 137.836 185.531 138.046 185.494 138.242C185.466 138.438 185.452 138.615 185.452 138.774C185.452 139.418 185.713 139.74 186.236 139.74H186.264L186.334 140.37L186.264 141H186.222C185.792 141 185.433 140.874 185.144 140.622C184.864 140.361 184.696 140.011 184.64 139.572C184.35 140.039 184.005 140.393 183.604 140.636C183.202 140.879 182.759 141 182.274 141H182.218ZM188.784 132.11L189.624 132.964L188.784 133.804L187.944 132.964L188.784 132.11ZM190.072 133.538L191.024 134.49L190.072 135.428C189.764 135.111 189.451 134.798 189.134 134.49L190.072 133.538ZM187.496 133.538L188.448 134.49L187.496 135.428C187.188 135.111 186.875 134.798 186.558 134.49L187.496 133.538ZM196.13 138.634C196.718 139.035 197.245 139.343 197.712 139.558C198.178 139.773 198.538 139.88 198.79 139.88C198.874 139.88 198.953 139.861 199.028 139.824C199.196 139.74 199.322 139.6 199.406 139.404C199.49 139.208 199.532 138.984 199.532 138.732C199.532 138.275 199.415 137.859 199.182 137.486C198.958 137.113 198.659 136.926 198.286 136.926C197.996 136.926 197.688 137.131 197.362 137.542C197.035 137.943 196.676 138.536 196.284 139.32C196.004 139.871 195.64 140.291 195.192 140.58C194.753 140.86 194.254 141 193.694 141H193.442L193.456 139.74H193.722C194.104 139.74 194.454 139.633 194.772 139.418C195.098 139.194 195.369 138.867 195.584 138.438C195.976 137.645 196.382 137.01 196.802 136.534C197.222 136.058 197.684 135.806 198.188 135.778C198.654 135.75 199.065 135.876 199.42 136.156C199.784 136.427 200.059 136.791 200.246 137.248C200.442 137.696 200.54 138.167 200.54 138.662C200.54 139.157 200.442 139.609 200.246 140.02C200.05 140.421 199.76 140.725 199.378 140.93C199.219 141.023 199.018 141.07 198.776 141.07C198.066 141.07 197.016 140.608 195.626 139.684L196.13 138.634ZM208.08 131.256C208.155 131.732 208.211 132.567 208.248 133.762C208.295 134.947 208.318 136.025 208.318 136.996V137.584L208.304 138.074C208.304 138.513 208.342 138.849 208.416 139.082C208.491 139.306 208.631 139.474 208.836 139.586C209.051 139.689 209.368 139.74 209.788 139.74H209.858L209.928 140.37L209.858 141H209.788C209.126 141 208.608 140.893 208.234 140.678C207.861 140.454 207.595 140.123 207.436 139.684C207.287 139.245 207.212 138.667 207.212 137.948C207.212 136.884 207.189 135.68 207.142 134.336C207.105 132.983 207.044 132.035 206.96 131.494L208.08 131.256ZM209.725 139.74H210.285C211.284 139.74 211.988 139.647 212.399 139.46C212.81 139.264 213.015 138.947 213.015 138.508C213.006 138.219 212.908 137.78 212.721 137.192C212.544 136.595 212.39 136.165 212.259 135.904L213.267 135.372C213.454 135.736 213.636 136.231 213.813 136.856C214 137.472 214.093 138.009 214.093 138.466C214.093 139.297 213.79 139.927 213.183 140.356C212.576 140.785 211.662 141 210.439 141H209.725V139.74ZM210.425 133.244L211.055 132.614L211.993 133.552L211.055 134.504L210.117 133.552L210.425 133.244ZM212.917 133.244L213.547 132.614L214.485 133.552L213.547 134.504L212.609 133.552L212.917 133.244ZM220.397 145.606C220.229 143.59 220.145 141.966 220.145 140.734C220.145 140.463 220.154 140.123 220.173 139.712C220.191 139.301 220.313 138.965 220.537 138.704C220.761 138.443 221.041 138.312 221.377 138.312C221.526 138.312 221.675 138.34 221.825 138.396C222.282 137.565 222.702 136.931 223.085 136.492C223.467 136.044 223.906 135.806 224.401 135.778C225.474 135.722 226.202 136.459 226.585 137.99C226.725 138.597 226.883 139.04 227.061 139.32C227.247 139.6 227.485 139.74 227.775 139.74H227.859L227.929 140.37L227.859 141H227.775C227.075 141 226.613 140.617 226.389 139.852C226.361 140.076 226.267 140.286 226.109 140.482C225.959 140.678 225.791 140.827 225.605 140.93C225.418 141.023 225.227 141.07 225.031 141.07C224.685 141.07 224.247 140.958 223.715 140.734C223.183 140.51 222.487 140.151 221.629 139.656C221.582 139.619 221.517 139.6 221.433 139.6C221.274 139.6 221.19 139.698 221.181 139.894L221.167 140.454C221.167 141.331 221.209 142.297 221.293 143.352C221.377 144.407 221.423 145.018 221.433 145.186L221.489 145.83L220.425 146.054L220.397 145.606ZM225.451 139.908C225.656 139.712 225.759 139.395 225.759 138.956C225.759 138.648 225.703 138.335 225.591 138.018C225.488 137.701 225.339 137.439 225.143 137.234C224.956 137.029 224.741 136.926 224.499 136.926C224.209 136.926 223.925 137.094 223.645 137.43C223.365 137.766 223.057 138.247 222.721 138.872C223.271 139.236 223.766 139.507 224.205 139.684C224.653 139.852 225.003 139.936 225.255 139.936C225.329 139.936 225.395 139.927 225.451 139.908ZM227.717 139.74H227.843C228.562 139.74 229.122 139.712 229.523 139.656C229.924 139.591 230.218 139.493 230.405 139.362C230.592 139.231 230.727 139.054 230.811 138.83C230.867 138.662 230.895 138.461 230.895 138.228C230.895 137.929 230.839 137.416 230.727 136.688L231.763 136.492C231.875 137.08 231.936 137.827 231.945 138.732C232.076 139.404 232.5 139.74 233.219 139.74H233.317L233.387 140.37L233.317 141H233.219C232.752 141 232.342 140.865 231.987 140.594C231.642 140.314 231.399 139.959 231.259 139.53L231.539 139.586C231.418 139.941 231.217 140.221 230.937 140.426C230.657 140.631 230.27 140.781 229.775 140.874C229.29 140.958 228.646 141 227.843 141H227.717V139.74ZM227.339 142.946L227.969 142.316L228.907 143.254L227.969 144.206L227.031 143.254L227.339 142.946ZM229.831 142.946L230.461 142.316L231.399 143.254L230.461 144.206L229.523 143.254L229.831 142.946ZM233.2 139.74H233.396C234.89 139.74 235.991 139.6 236.7 139.32C237.41 139.04 237.811 138.597 237.904 137.99C237.914 137.934 237.918 137.855 237.918 137.752C237.918 137.341 237.806 136.982 237.582 136.674C237.368 136.366 237.078 136.212 236.714 136.212C236.49 136.212 236.266 136.291 236.042 136.45C235.828 136.609 235.65 136.814 235.51 137.066C235.37 137.309 235.3 137.547 235.3 137.78C235.3 138.153 235.501 138.508 235.902 138.844C236.304 139.171 236.798 139.432 237.386 139.628C237.984 139.824 238.548 139.922 239.08 139.922C239.472 139.922 239.799 139.861 240.06 139.74C240.331 139.619 240.508 139.437 240.592 139.194C240.62 139.119 240.634 139.04 240.634 138.956C240.634 138.629 240.443 138.279 240.06 137.906C239.687 137.533 239.071 137.145 238.212 136.744C237.354 136.343 236.243 135.955 234.88 135.582L235.314 134.406C236.985 134.975 238.282 135.507 239.206 136.002C240.14 136.497 240.779 136.963 241.124 137.402C241.479 137.841 241.656 138.289 241.656 138.746C241.656 138.979 241.605 139.283 241.502 139.656C241.362 140.113 241.064 140.459 240.606 140.692C240.149 140.916 239.598 141.028 238.954 141.028C238.217 141.028 237.475 140.888 236.728 140.608C235.982 140.328 235.37 139.945 234.894 139.46C234.428 138.975 234.218 138.438 234.264 137.85C234.302 137.393 234.446 136.949 234.698 136.52C234.95 136.091 235.258 135.745 235.622 135.484C235.996 135.213 236.374 135.078 236.756 135.078C237.139 135.078 237.498 135.204 237.834 135.456C238.17 135.708 238.436 136.039 238.632 136.45C238.828 136.861 238.926 137.29 238.926 137.738C238.926 137.831 238.917 137.962 238.898 138.13C238.749 139.157 238.236 139.894 237.358 140.342C236.481 140.781 235.16 141 233.396 141H233.2V139.74ZM243.163 139.124C243.201 139.143 243.336 139.222 243.569 139.362C243.812 139.493 244.115 139.605 244.479 139.698C244.853 139.791 245.245 139.838 245.655 139.838C246.159 139.838 246.57 139.768 246.887 139.628C247.214 139.479 247.424 139.315 247.517 139.138C247.564 139.026 247.587 138.909 247.587 138.788C247.587 138.349 247.345 137.808 246.859 137.164C246.383 136.511 245.655 135.825 244.675 135.106L245.305 134.014C246.341 134.798 247.149 135.61 247.727 136.45C248.315 137.281 248.609 138.06 248.609 138.788C248.609 139.124 248.549 139.427 248.427 139.698C248.241 140.127 247.905 140.459 247.419 140.692C246.934 140.925 246.379 141.042 245.753 141.042C245.016 141.042 244.386 140.944 243.863 140.748C243.341 140.543 242.925 140.309 242.617 140.048L243.163 139.124ZM258.768 144.906C257.965 144.906 257.251 144.747 256.626 144.43C256.01 144.122 255.525 143.679 255.17 143.1C254.815 142.521 254.638 141.845 254.638 141.07C254.638 140.501 254.731 139.899 254.918 139.264C255.105 138.629 255.319 138.069 255.562 137.584L256.514 138.032C255.991 139.133 255.73 140.095 255.73 140.916C255.73 141.803 255.991 142.479 256.514 142.946C257.037 143.413 257.788 143.646 258.768 143.646C259.337 143.646 259.874 143.571 260.378 143.422C260.891 143.273 261.311 143.086 261.638 142.862C261.965 142.647 262.151 142.456 262.198 142.288C262.151 142.185 261.988 142.022 261.708 141.798C261.437 141.583 261.097 141.355 260.686 141.112C260.275 140.869 259.851 140.659 259.412 140.482L259.678 139.292C261.125 139.591 262.329 139.74 263.29 139.74H263.626L263.696 140.37L263.626 141H263.29C262.665 141 262.063 140.958 261.484 140.874C260.905 140.781 260.219 140.65 259.426 140.482L259.706 139.67L259.986 139.796C260.919 140.207 261.699 140.613 262.324 141.014C262.959 141.425 263.276 141.859 263.276 142.316C263.276 142.745 263.066 143.156 262.646 143.548C262.235 143.949 261.68 144.276 260.98 144.528C260.289 144.78 259.552 144.906 258.768 144.906ZM266.061 138.634C266.649 139.035 267.177 139.343 267.643 139.558C268.11 139.773 268.469 139.88 268.721 139.88C268.805 139.88 268.885 139.861 268.959 139.824C269.127 139.74 269.253 139.6 269.337 139.404C269.421 139.208 269.463 138.984 269.463 138.732C269.463 138.275 269.347 137.859 269.113 137.486C268.889 137.113 268.591 136.926 268.217 136.926C267.928 136.926 267.62 137.131 267.293 137.542C266.967 137.943 266.607 138.536 266.215 139.32C265.935 139.871 265.571 140.291 265.123 140.58C264.685 140.86 264.185 141 263.625 141H263.373L263.387 139.74H263.653C264.036 139.74 264.386 139.633 264.703 139.418C265.03 139.194 265.301 138.867 265.515 138.438C265.907 137.645 266.313 137.01 266.733 136.534C267.153 136.058 267.615 135.806 268.119 135.778C268.586 135.75 268.997 135.876 269.351 136.156C269.715 136.427 269.991 136.791 270.177 137.248C270.373 137.696 270.471 138.167 270.471 138.662C270.471 139.157 270.373 139.609 270.177 140.02C269.981 140.421 269.692 140.725 269.309 140.93C269.151 141.023 268.95 141.07 268.707 141.07C267.998 141.07 266.948 140.608 265.557 139.684L266.061 138.634Z" fill="#8F8F8F"/>
<rect x="157" y="7" width="57" height="57" rx="28.5" fill="#F1F6FE"/>
<path d="M193.018 50.6159C192.267 50.6159 191.304 50.3751 190.1 49.6668L185.864 47.1593C185.425 46.9043 184.575 46.9043 184.15 47.1593L179.9 49.6668C177.392 51.1543 175.919 50.5593 175.253 50.0776C174.602 49.596 173.582 48.3635 174.247 45.5301L175.253 41.181C175.367 40.7276 175.14 39.9485 174.8 39.6084L171.287 36.0951C169.53 34.3385 169.672 32.8368 169.912 32.1001C170.153 31.3635 170.918 30.0601 173.355 29.6493L177.874 28.8984C178.299 28.8276 178.908 28.3743 179.092 27.9918L181.6 22.991C182.733 20.7101 184.221 20.3701 185 20.3701C185.779 20.3701 187.267 20.7101 188.4 22.991L190.893 27.9776C191.092 28.3601 191.701 28.8134 192.126 28.8843L196.645 29.6351C199.096 30.0459 199.861 31.3493 200.087 32.086C200.314 32.8226 200.456 34.3243 198.713 36.081L195.2 39.6084C194.86 39.9485 194.647 40.7135 194.747 41.181L195.752 45.5301C196.404 48.3635 195.398 49.596 194.747 50.0776C194.392 50.3326 193.826 50.6159 193.018 50.6159ZM185 44.836C185.694 44.836 186.388 45.006 186.941 45.3318L191.177 47.8393C192.409 48.5759 193.188 48.576 193.486 48.3635C193.783 48.1509 193.996 47.4001 193.684 46.0118L192.678 41.6626C192.409 40.4868 192.848 38.971 193.698 38.1068L197.212 34.5934C197.906 33.8993 198.217 33.2193 198.076 32.7518C197.92 32.2843 197.268 31.9018 196.305 31.746L191.786 30.9951C190.695 30.8109 189.505 29.9326 189.009 28.9409L186.516 23.9543C186.062 23.0476 185.496 22.5093 185 22.5093C184.504 22.5093 183.937 23.0476 183.498 23.9543L180.991 28.9409C180.495 29.9326 179.305 30.8109 178.214 30.9951L173.709 31.746C172.746 31.9018 172.094 32.2843 171.938 32.7518C171.782 33.2193 172.108 33.9135 172.802 34.5934L176.316 38.1068C177.166 38.9568 177.605 40.4868 177.336 41.6626L176.33 46.0118C176.004 47.4143 176.231 48.1509 176.528 48.3635C176.826 48.576 177.591 48.5618 178.837 47.8393L183.073 45.3318C183.612 45.006 184.306 44.836 185 44.836Z" fill="#4BB09C"/>
</g>
<defs>
<filter id="filter0_d_1211_11740" x="0" y="0" width="370" height="179" filterUnits="userSpaceOnUse" color-interpolation-filters="sRGB">
<feFlood flood-opacity="0" result="BackgroundImageFix"/>
<feColorMatrix in="SourceAlpha" type="matrix" values="0 0 0 0 0 0 0 0 0 0 0 0 0 0 0 0 0 0 127 0" result="hardAlpha"/>
<feOffset/>
<feGaussianBlur stdDeviation="3.5"/>
<feComposite in2="hardAlpha" operator="out"/>
<feColorMatrix type="matrix" values="0 0 0 0 0 0 0 0 0 0 0 0 0 0 0 0 0 0 0.1 0"/>
<feBlend mode="normal" in2="BackgroundImageFix" result="effect1_dropShadow_1211_11740"/>
<feBlend mode="normal" in="SourceGraphic" in2="effect1_dropShadow_1211_11740" result="shape"/>
</filter>
</defs>
</svg>
