<svg width="70" height="84" viewBox="0 0 70 84" fill="none" xmlns="http://www.w3.org/2000/svg">
<g filter="url(#filter0_d_1585_11815)">
<g filter="url(#filter1_dd_1585_11815)">
<path fill-rule="evenodd" clip-rule="evenodd" d="M35 67C48.8071 67 60 55.8071 60 42C60 28.1929 48.8071 17 35 17C21.1929 17 10 28.1929 10 42C10 55.8071 21.1929 67 35 67Z" fill="white"/>
</g>
</g>
<path d="M38 52.75H32C26.57 52.75 24.25 50.43 24.25 45V39C24.25 33.57 26.57 31.25 32 31.25H38C43.43 31.25 45.75 33.57 45.75 39V45C45.75 50.43 43.43 52.75 38 52.75ZM32 32.75C27.39 32.75 25.75 34.39 25.75 39V45C25.75 49.61 27.39 51.25 32 51.25H38C42.61 51.25 44.25 49.61 44.25 45V39C44.25 34.39 42.61 32.75 38 32.75H32Z" fill="#393939"/>
<path d="M35 46.25C32.66 46.25 30.75 44.34 30.75 42C30.75 39.66 32.66 37.75 35 37.75C37.34 37.75 39.25 39.66 39.25 42C39.25 44.34 37.34 46.25 35 46.25ZM35 39.25C33.48 39.25 32.25 40.48 32.25 42C32.25 43.52 33.48 44.75 35 44.75C36.52 44.75 37.75 43.52 37.75 42C37.75 40.48 36.52 39.25 35 39.25Z" fill="#393939"/>
<path d="M40 37.4999C39.87 37.4999 39.74 37.4699 39.62 37.4199C39.5 37.3699 39.39 37.2999 39.29 37.2099C39.2 37.1099 39.12 36.9999 39.07 36.8799C39.02 36.7599 39 36.6299 39 36.4999C39 36.3699 39.02 36.2399 39.07 36.1199C39.13 35.9899 39.2 35.8899 39.29 35.7899C39.34 35.7499 39.39 35.6999 39.44 35.6699C39.5 35.6299 39.56 35.5999 39.62 35.5799C39.68 35.5499 39.74 35.5299 39.81 35.5199C40.13 35.4499 40.47 35.5599 40.71 35.7899C40.8 35.8899 40.87 35.9899 40.92 36.1199C40.97 36.2399 41 36.3699 41 36.4999C41 36.6299 40.97 36.7599 40.92 36.8799C40.87 36.9999 40.8 37.1099 40.71 37.2099C40.61 37.2999 40.5 37.3699 40.38 37.4199C40.26 37.4699 40.13 37.4999 40 37.4999Z" fill="#393939"/>
<defs>
<filter id="filter0_d_1585_11815" x="6" y="13" width="58" height="58" filterUnits="userSpaceOnUse" color-interpolation-filters="sRGB">
<feFlood flood-opacity="0" result="BackgroundImageFix"/>
<feColorMatrix in="SourceAlpha" type="matrix" values="0 0 0 0 0 0 0 0 0 0 0 0 0 0 0 0 0 0 127 0" result="hardAlpha"/>
<feOffset/>
<feGaussianBlur stdDeviation="2"/>
<feComposite in2="hardAlpha" operator="out"/>
<feColorMatrix type="matrix" values="0 0 0 0 0 0 0 0 0 0 0 0 0 0 0 0 0 0 0.1 0"/>
<feBlend mode="normal" in2="BackgroundImageFix" result="effect1_dropShadow_1585_11815"/>
<feBlend mode="normal" in="SourceGraphic" in2="effect1_dropShadow_1585_11815" result="shape"/>
</filter>
<filter id="filter1_dd_1585_11815" x="0" y="0" width="70" height="84" filterUnits="userSpaceOnUse" color-interpolation-filters="sRGB">
<feFlood flood-opacity="0" result="BackgroundImageFix"/>
<feColorMatrix in="SourceAlpha" type="matrix" values="0 0 0 0 0 0 0 0 0 0 0 0 0 0 0 0 0 0 127 0" result="hardAlpha"/>
<feOffset dy="7"/>
<feGaussianBlur stdDeviation="5"/>
<feColorMatrix type="matrix" values="0 0 0 0 0.294118 0 0 0 0 0.294118 0 0 0 0 0.294118 0 0 0 0.1 0"/>
<feBlend mode="normal" in2="BackgroundImageFix" result="effect1_dropShadow_1585_11815"/>
<feColorMatrix in="SourceAlpha" type="matrix" values="0 0 0 0 0 0 0 0 0 0 0 0 0 0 0 0 0 0 127 0" result="hardAlpha"/>
<feOffset dy="-7"/>
<feGaussianBlur stdDeviation="5"/>
<feColorMatrix type="matrix" values="0 0 0 0 0.294118 0 0 0 0 0.294118 0 0 0 0 0.294118 0 0 0 0.01 0"/>
<feBlend mode="normal" in2="effect1_dropShadow_1585_11815" result="effect2_dropShadow_1585_11815"/>
<feBlend mode="normal" in="SourceGraphic" in2="effect2_dropShadow_1585_11815" result="shape"/>
</filter>
</defs>
</svg>
