<svg width="70" height="84" viewBox="0 0 70 84" fill="none" xmlns="http://www.w3.org/2000/svg">
<g filter="url(#filter0_d_1585_11798)">
<g filter="url(#filter1_dd_1585_11798)">
<path fill-rule="evenodd" clip-rule="evenodd" d="M35 67C48.8071 67 60 55.8071 60 42C60 28.1929 48.8071 17 35 17C21.1929 17 10 28.1929 10 42C10 55.8071 21.1929 67 35 67Z" fill="white"/>
</g>
</g>
<path d="M34.9999 44.1699C32.8699 44.1699 31.1299 42.4399 31.1299 40.2999C31.1299 38.1599 32.8699 36.4399 34.9999 36.4399C37.1299 36.4399 38.8699 38.1699 38.8699 40.3099C38.8699 42.4499 37.1299 44.1699 34.9999 44.1699ZM34.9999 37.9399C33.6999 37.9399 32.6299 38.9999 32.6299 40.3099C32.6299 41.6199 33.6899 42.6799 34.9999 42.6799C36.3099 42.6799 37.3699 41.6199 37.3699 40.3099C37.3699 38.9999 36.2999 37.9399 34.9999 37.9399Z" fill="#393939"/>
<path d="M35.0002 52.76C33.5202 52.76 32.0302 52.2 30.8702 51.09C27.9202 48.25 24.6602 43.72 25.8902 38.33C27.0002 33.44 31.2702 31.25 35.0002 31.25C35.0002 31.25 35.0002 31.25 35.0102 31.25C38.7402 31.25 43.0102 33.44 44.1202 38.34C45.3402 43.73 42.0802 48.25 39.1302 51.09C37.9702 52.2 36.4802 52.76 35.0002 52.76ZM35.0002 32.75C32.0902 32.75 28.3502 34.3 27.3602 38.66C26.2802 43.37 29.2402 47.43 31.9202 50C33.6502 51.67 36.3602 51.67 38.0902 50C40.7602 47.43 43.7202 43.37 42.6602 38.66C41.6602 34.3 37.9102 32.75 35.0002 32.75Z" fill="#393939"/>
<defs>
<filter id="filter0_d_1585_11798" x="6" y="13" width="58" height="58" filterUnits="userSpaceOnUse" color-interpolation-filters="sRGB">
<feFlood flood-opacity="0" result="BackgroundImageFix"/>
<feColorMatrix in="SourceAlpha" type="matrix" values="0 0 0 0 0 0 0 0 0 0 0 0 0 0 0 0 0 0 127 0" result="hardAlpha"/>
<feOffset/>
<feGaussianBlur stdDeviation="2"/>
<feComposite in2="hardAlpha" operator="out"/>
<feColorMatrix type="matrix" values="0 0 0 0 0 0 0 0 0 0 0 0 0 0 0 0 0 0 0.1 0"/>
<feBlend mode="normal" in2="BackgroundImageFix" result="effect1_dropShadow_1585_11798"/>
<feBlend mode="normal" in="SourceGraphic" in2="effect1_dropShadow_1585_11798" result="shape"/>
</filter>
<filter id="filter1_dd_1585_11798" x="0" y="0" width="70" height="84" filterUnits="userSpaceOnUse" color-interpolation-filters="sRGB">
<feFlood flood-opacity="0" result="BackgroundImageFix"/>
<feColorMatrix in="SourceAlpha" type="matrix" values="0 0 0 0 0 0 0 0 0 0 0 0 0 0 0 0 0 0 127 0" result="hardAlpha"/>
<feOffset dy="7"/>
<feGaussianBlur stdDeviation="5"/>
<feColorMatrix type="matrix" values="0 0 0 0 0.294118 0 0 0 0 0.294118 0 0 0 0 0.294118 0 0 0 0.1 0"/>
<feBlend mode="normal" in2="BackgroundImageFix" result="effect1_dropShadow_1585_11798"/>
<feColorMatrix in="SourceAlpha" type="matrix" values="0 0 0 0 0 0 0 0 0 0 0 0 0 0 0 0 0 0 127 0" result="hardAlpha"/>
<feOffset dy="-7"/>
<feGaussianBlur stdDeviation="5"/>
<feColorMatrix type="matrix" values="0 0 0 0 0.294118 0 0 0 0 0.294118 0 0 0 0 0.294118 0 0 0 0.01 0"/>
<feBlend mode="normal" in2="effect1_dropShadow_1585_11798" result="effect2_dropShadow_1585_11798"/>
<feBlend mode="normal" in="SourceGraphic" in2="effect2_dropShadow_1585_11798" result="shape"/>
</filter>
</defs>
</svg>
