<svg width="144" height="40" viewBox="0 0 144 40" fill="none" xmlns="http://www.w3.org/2000/svg">
<path d="M0 8C0 5.19974 0 3.79961 0.544967 2.73005C1.02433 1.78924 1.78924 1.02433 2.73005 0.544967C3.79961 0 5.19974 0 8 0H136C138.8 0 140.2 0 141.27 0.544967C142.211 1.02433 142.976 1.78924 143.455 2.73005C144 3.79961 144 5.19974 144 8V32C144 34.8003 144 36.2004 143.455 37.27C142.976 38.2108 142.211 38.9757 141.27 39.455C140.2 40 138.8 40 136 40H8C5.19974 40 3.79961 40 2.73005 39.455C1.78924 38.9757 1.02433 38.2108 0.544967 37.27C0 36.2004 0 34.8003 0 32V8Z" fill="#DC1E7A"/>
<path d="M17.1957 22.6C17.2144 22.152 17.3637 21.788 17.6437 21.508C17.9331 21.2187 18.2784 21.074 18.6797 21.074C18.8384 21.074 18.9784 21.0927 19.0997 21.13C19.4637 20.3647 19.8651 19.744 20.3037 19.268C20.7424 18.792 21.2091 18.54 21.7037 18.512C22.1984 18.484 22.6277 18.6147 22.9917 18.904C23.3651 19.1933 23.6497 19.576 23.8457 20.052C24.0511 20.528 24.1537 21.0273 24.1537 21.55C24.1537 22.0633 24.0557 22.5347 23.8597 22.964C23.6637 23.384 23.3697 23.7013 22.9777 23.916C22.7911 24.0187 22.5811 24.07 22.3477 24.07C21.9931 24.07 21.5451 23.9627 21.0037 23.748C20.4624 23.524 19.7531 23.1647 18.8757 22.67C18.8384 22.642 18.7917 22.628 18.7357 22.628C18.5957 22.628 18.5211 22.712 18.5117 22.88V23.3C18.5117 23.944 18.5351 24.63 18.5817 25.358C18.6284 26.086 18.6984 26.996 18.7917 28.088C18.8197 28.3307 18.8337 28.5173 18.8337 28.648C18.8431 28.788 18.8524 28.886 18.8617 28.942L17.5457 29.194L17.4897 28.606C17.3964 27.5327 17.3217 26.59 17.2657 25.778C17.2097 24.966 17.1817 24.182 17.1817 23.426C17.1817 23.0433 17.1864 22.768 17.1957 22.6ZM20.1637 21.69C21.1717 22.3247 21.8951 22.642 22.3337 22.642C22.4457 22.642 22.5251 22.6233 22.5717 22.586C22.7211 22.5113 22.8284 22.39 22.8937 22.222C22.9684 22.0447 23.0057 21.8393 23.0057 21.606C23.0057 21.1767 22.8937 20.7893 22.6697 20.444C22.4551 20.0893 22.1704 19.912 21.8157 19.912C21.3397 19.912 20.7891 20.5047 20.1637 21.69ZM26.8865 14.046C26.9611 14.578 27.0218 15.4273 27.0685 16.594C27.1151 17.7513 27.1385 18.8293 27.1385 19.828V20.444C27.1291 21.004 27.1525 21.4193 27.2085 21.69C27.2645 21.9607 27.3905 22.1567 27.5865 22.278C27.7825 22.3993 28.0951 22.46 28.5245 22.46H28.5945L28.6785 23.23L28.5945 24H28.5245C27.5351 24 26.8398 23.7433 26.4385 23.23C26.0465 22.7073 25.8505 21.8813 25.8505 20.752C25.8505 19.7253 25.8225 18.5587 25.7665 17.252C25.7198 15.936 25.6498 14.9653 25.5565 14.34L26.8865 14.046ZM28.4603 22.46H29.1883C29.9163 22.46 30.4389 22.3713 30.7563 22.194C31.0736 22.0167 31.2323 21.7413 31.2323 21.368C31.2323 21.116 31.1343 20.6867 30.9383 20.08C30.7516 19.464 30.6023 19.0393 30.4903 18.806L31.6523 18.176C31.8296 18.54 32.0116 19.0487 32.1983 19.702C32.3849 20.346 32.4783 20.9013 32.4783 21.368C32.4783 22.236 32.1936 22.894 31.6243 23.342C31.0643 23.7807 30.2523 24 29.1883 24H28.4603V22.46ZM29.5383 16.314C29.9023 15.9313 30.2663 15.5673 30.6303 15.222C30.9943 15.5673 31.3583 15.9313 31.7223 16.314L30.6303 17.406L29.5383 16.314ZM43.2003 24.14C43.1816 23.86 43.1723 23.6453 43.1723 23.496C43.1723 23.3 43.1816 23.006 43.2003 22.614C44.367 22.614 45.3003 22.5253 46.0003 22.348C46.7096 22.1613 47.265 21.8767 47.6663 21.494C48.0676 21.102 48.3803 20.5747 48.6043 19.912L49.7803 20.052C49.6123 20.5653 49.5283 20.9993 49.5283 21.354C49.5283 22.0913 49.9016 22.46 50.6483 22.46L50.7323 23.23L50.6483 24C50.0323 24 49.519 23.804 49.1083 23.412C48.707 23.02 48.511 22.5067 48.5203 21.872L48.8003 21.9C48.2683 22.7027 47.545 23.2767 46.6303 23.622C45.725 23.9673 44.5816 24.14 43.2003 24.14ZM39.5463 19.198C39.285 19.9353 39.1543 20.5093 39.1543 20.92C39.1543 21.0227 39.159 21.102 39.1683 21.158C39.243 21.6153 39.6256 21.9747 40.3163 22.236C41.0163 22.488 42.0103 22.614 43.2983 22.614C43.317 22.9873 43.3263 23.2673 43.3263 23.454C43.3263 23.6127 43.317 23.8413 43.2983 24.14C41.6556 24.1493 40.3723 23.9207 39.4483 23.454C38.5243 22.978 38.0203 22.292 37.9363 21.396C37.927 21.3213 37.9223 21.214 37.9223 21.074C37.9223 20.6913 37.9736 20.2853 38.0763 19.856C38.179 19.4173 38.305 19.0207 38.4543 18.666L39.5463 19.198ZM41.7023 18.456C42.1503 18.008 42.3743 17.784 42.3743 17.784L43.3963 18.792C43.0603 19.1373 42.7196 19.478 42.3743 19.814L41.3663 18.792L41.7023 18.456ZM44.1663 18.456C44.6143 18.008 44.8383 17.784 44.8383 17.784L45.8603 18.792C45.5243 19.1373 45.1836 19.478 44.8383 19.814L43.8303 18.792L44.1663 18.456ZM55.3293 22.46L55.4133 23.23L55.3293 24H55.2593C54.6993 24 54.2187 23.86 53.8173 23.58C53.4253 23.2907 53.1547 22.8613 53.0053 22.292C52.9587 22.096 52.8047 21.4147 52.5433 20.248L52.4173 19.646L53.5513 19.282C53.7567 20.2433 53.934 20.99 54.0833 21.522C54.1767 21.8393 54.3213 22.0773 54.5173 22.236C54.7133 22.3853 54.9607 22.46 55.2593 22.46H55.3293ZM53.9433 21.55C53.822 22.3993 53.486 23.02 52.9353 23.412C52.394 23.804 51.61 24 50.5833 24H50.4993V22.46H50.5833C51.33 22.46 51.8947 22.3667 52.2773 22.18C52.6693 21.9933 52.8887 21.7133 52.9353 21.34L53.9433 21.55ZM50.3453 26.324C50.7093 25.9413 51.0733 25.5773 51.4373 25.232C51.8013 25.5773 52.1653 25.9413 52.5293 26.324L51.4373 27.416L50.3453 26.324ZM55.2025 22.46H55.7905C56.7705 22.46 57.4611 22.3713 57.8625 22.194C58.2638 22.0073 58.4645 21.718 58.4645 21.326C58.4551 21.0647 58.3571 20.64 58.1705 20.052C57.9838 19.464 57.8298 19.0487 57.7085 18.806L58.8705 18.176C59.0571 18.5493 59.2391 19.0487 59.4165 19.674C59.6031 20.2993 59.6965 20.8453 59.6965 21.312C59.6965 22.1987 59.3885 22.8707 58.7725 23.328C58.1565 23.776 57.2325 24 56.0005 24H55.2025V22.46ZM57.8345 13.878L58.1285 14.172C58.5298 14.5733 58.7305 14.774 58.7305 14.774L57.8345 15.67L56.9525 14.774L57.8345 13.878ZM58.1285 16.356C58.1285 16.356 58.3525 16.132 58.8005 15.684L59.1365 15.348L60.1445 16.356L59.8085 16.692C59.3605 17.14 59.1365 17.364 59.1365 17.364C58.8098 17.0187 58.4738 16.6827 58.1285 16.356ZM55.5245 16.356C55.5245 16.356 55.7485 16.132 56.1965 15.684L56.5325 15.348L57.5405 16.356L57.2045 16.692C56.7565 17.14 56.5325 17.364 56.5325 17.364C56.2058 17.0187 55.8698 16.6827 55.5245 16.356ZM65.885 24.854H64.597L68.601 14.046H69.889L65.885 24.854ZM75.5031 21.914C75.8671 22.11 76.2265 22.2733 76.5811 22.404C76.9358 22.5253 77.3885 22.586 77.9391 22.586C78.4431 22.586 78.8538 22.5207 79.1711 22.39C79.4978 22.2593 79.7125 22.11 79.8151 21.942C79.8431 21.8673 79.8571 21.7787 79.8571 21.676C79.8571 21.2747 79.6191 20.7613 79.1431 20.136C78.6765 19.5013 77.9438 18.8247 76.9451 18.106L77.7011 16.776C78.7465 17.5507 79.5678 18.372 80.1651 19.24C80.7718 20.0987 81.0751 20.9013 81.0751 21.648C81.0751 22.0027 81.0098 22.3247 80.8791 22.614C80.6831 23.0713 80.3285 23.426 79.8151 23.678C79.3018 23.93 78.7231 24.056 78.0791 24.056C77.3231 24.056 76.6791 23.9487 76.1471 23.734C75.6151 23.5193 75.1951 23.2813 74.8871 23.02L75.5031 21.914ZM82.0522 26.688C83.5828 26.3613 84.7075 25.9273 85.4262 25.386C86.1448 24.854 86.5042 24.182 86.5042 23.37C86.4948 22.838 86.4202 22.306 86.2802 21.774C86.1402 21.242 85.9348 20.7987 85.6642 20.444C85.4028 20.08 85.0995 19.8793 84.7542 19.842C84.5488 19.814 84.3482 19.884 84.1522 20.052C83.9655 20.2107 83.8115 20.4207 83.6902 20.682C83.5782 20.9433 83.5222 21.1953 83.5222 21.438C83.5222 21.634 83.5595 21.788 83.6342 21.9C83.7835 22.1147 84.0402 22.278 84.4042 22.39C84.7775 22.4927 85.1975 22.544 85.6642 22.544C86.0468 22.544 86.4342 22.5067 86.8262 22.432V23.874C86.4062 23.986 85.9395 24.042 85.4262 24.042C84.7915 24.042 84.2175 23.9393 83.7042 23.734C83.1908 23.5193 82.8268 23.1927 82.6122 22.754C82.4535 22.418 82.3742 22.0493 82.3742 21.648C82.3742 21.144 82.4815 20.64 82.6962 20.136C82.9202 19.632 83.2142 19.2167 83.5782 18.89C83.9515 18.5633 84.3528 18.4 84.7822 18.4C85.3328 18.4 85.8228 18.6427 86.2522 19.128C86.6908 19.604 87.0268 20.22 87.2602 20.976C87.5028 21.7227 87.6242 22.474 87.6242 23.23C87.6242 24.4433 87.1715 25.47 86.2662 26.31C85.3702 27.15 84.1195 27.7287 82.5142 28.046L82.0522 26.688ZM87.7705 26.73C88.3772 26.506 88.9232 26.226 89.4085 25.89C89.9032 25.554 90.2905 25.204 90.5705 24.84C90.8598 24.4853 91.0045 24.154 91.0045 23.846C91.0045 23.454 90.7572 22.2967 90.2625 20.374L91.4945 19.898C91.7092 20.5607 91.8818 21.2607 92.0125 21.998C92.1525 22.726 92.2225 23.342 92.2225 23.846C92.2225 24.7047 91.8632 25.512 91.1445 26.268C90.4352 27.0333 89.5112 27.626 88.3725 28.046L87.7705 26.73ZM93.2221 26.688C94.7528 26.3613 95.8774 25.9273 96.5961 25.386C97.3148 24.854 97.6741 24.182 97.6741 23.37C97.6648 22.838 97.5901 22.306 97.4501 21.774C97.3101 21.242 97.1048 20.7987 96.8341 20.444C96.5728 20.08 96.2694 19.8793 95.9241 19.842C95.7188 19.814 95.5181 19.884 95.3221 20.052C95.1354 20.2107 94.9814 20.4207 94.8601 20.682C94.7481 20.9433 94.6921 21.1953 94.6921 21.438C94.6921 21.634 94.7294 21.788 94.8041 21.9C94.9534 22.1147 95.2101 22.278 95.5741 22.39C95.9474 22.4927 96.3674 22.544 96.8341 22.544C97.2168 22.544 97.6041 22.5067 97.9961 22.432V23.874C97.5761 23.986 97.1094 24.042 96.5961 24.042C95.9614 24.042 95.3874 23.9393 94.8741 23.734C94.3608 23.5193 93.9968 23.1927 93.7821 22.754C93.6234 22.418 93.5441 22.0493 93.5441 21.648C93.5441 21.144 93.6514 20.64 93.8661 20.136C94.0901 19.632 94.3841 19.2167 94.7481 18.89C95.1214 18.5633 95.5228 18.4 95.9521 18.4C96.5028 18.4 96.9928 18.6427 97.4221 19.128C97.8608 19.604 98.1968 20.22 98.4301 20.976C98.6728 21.7227 98.7941 22.474 98.7941 23.23C98.7941 24.4433 98.3414 25.47 97.4361 26.31C96.5401 27.15 95.2894 27.7287 93.6841 28.046L93.2221 26.688Z" fill="white"/>
<path d="M117.5 20.6251C114.858 20.6251 112.708 18.4751 112.708 15.8334C112.708 13.1917 114.858 11.0417 117.5 11.0417C120.141 11.0417 122.291 13.1917 122.291 15.8334C122.291 18.4751 120.141 20.6251 117.5 20.6251ZM117.5 12.2917C115.55 12.2917 113.958 13.8834 113.958 15.8334C113.958 17.7834 115.55 19.3751 117.5 19.3751C119.45 19.3751 121.041 17.7834 121.041 15.8334C121.041 13.8834 119.45 12.2917 117.5 12.2917Z" fill="white"/>
<path d="M124.658 28.9583C124.317 28.9583 124.033 28.675 124.033 28.3333C124.033 25.4583 121.1 23.125 117.5 23.125C113.9 23.125 110.967 25.4583 110.967 28.3333C110.967 28.675 110.683 28.9583 110.342 28.9583C110 28.9583 109.717 28.675 109.717 28.3333C109.717 24.775 113.208 21.875 117.5 21.875C121.792 21.875 125.283 24.775 125.283 28.3333C125.283 28.675 125 28.9583 124.658 28.9583Z" fill="white"/>
</svg>
