<svg width="90" height="30" viewBox="0 0 90 30" fill="none" xmlns="http://www.w3.org/2000/svg">
<path d="M6.82 9.16L9.56 15.64C9.77333 16.1733 10.02 16.54 10.3 16.74C10.58 16.9267 10.98 17.02 11.5 17.02H11.74L11.9 18.52L11.74 20H11.5C10.5933 20 9.83333 19.7467 9.22 19.24C8.62 18.7333 8.08667 17.9333 7.62 16.84L4.76 10.28L6.82 9.16ZM1.56 16.4C1.98667 16.6267 2.45333 16.8333 2.96 17.02C3.46667 17.1933 4.06667 17.28 4.76 17.28C5.62667 17.28 6.32667 17.1533 6.86 16.9C7.39333 16.6333 7.80667 16.3533 8.1 16.06L9.44 17.8C9.13333 18.1867 8.83333 18.5267 8.54 18.82C8.26 19.1 7.82 19.3867 7.22 19.68C6.62 19.96 5.9 20.1 5.06 20.1C3.43333 20.1 1.90667 19.5667 0.48 18.5L1.56 16.4ZM11.5406 17.02H11.6806C12.8806 17.02 13.774 16.96 14.3606 16.84C14.9473 16.7067 15.334 16.5133 15.5206 16.26C15.7073 16.0067 15.8006 15.64 15.8006 15.16C15.8006 14.7733 15.734 14.14 15.6006 13.26L17.6606 12.86C17.8473 13.8333 17.9406 14.9333 17.9406 16.16C17.994 16.3867 18.1406 16.5867 18.3806 16.76C18.6206 16.9333 18.9673 17.02 19.4206 17.02H19.5406L19.7006 18.52L19.5406 20H19.4206C18.8073 20 18.2406 19.8333 17.7206 19.5C17.2006 19.1533 16.794 18.72 16.5006 18.2L17.0006 18.3C16.6406 18.9133 16.054 19.3533 15.2406 19.62C14.4406 19.8733 13.254 20 11.6806 20H11.5406V17.02ZM11.5406 21.68L13.2006 23.36C12.8406 23.7333 12.474 24.1 12.1006 24.46L11.5406 25.02L10.7206 24.18L9.88062 23.36L11.5406 21.68ZM15.0406 21.68L16.7006 23.36C16.3406 23.7333 15.974 24.1 15.6006 24.46L15.0406 25.02L14.2206 24.18L13.3806 23.36L15.0406 21.68ZM19.3336 17.02H20.3936C21.3536 17.02 22.0403 16.9133 22.4536 16.7C22.8803 16.4867 23.0936 16.1667 23.0936 15.74C23.0936 15.46 22.9536 14.9133 22.6736 14.1C22.3936 13.2733 22.1736 12.6667 22.0136 12.28L24.1136 11.12C24.3669 11.68 24.6269 12.4333 24.8936 13.38C25.1736 14.3133 25.3136 15.1333 25.3136 15.84C25.3136 17.2 24.8869 18.2333 24.0336 18.94C23.1936 19.6467 21.9803 20 20.3936 20H19.3336V17.02ZM20.5136 8.46L22.3736 6.62L24.2136 8.46L23.5936 9.08C23.1936 9.49333 22.7869 9.9 22.3736 10.3L20.5136 8.46ZM27.4323 19.88C27.5657 19 27.6323 17.64 27.6323 15.8C27.6323 13.96 27.5723 12.0333 27.4523 10.02C27.3457 7.99333 27.219 6.57333 27.0723 5.76L29.5723 5.18C29.6923 5.95333 29.799 7.30667 29.8923 9.24C29.9857 11.1733 30.0323 13.0733 30.0323 14.94C30.0323 17.2467 29.9523 18.98 29.7923 20.14L27.4323 19.88ZM29.3359 23.32C30.2159 22.96 31.0226 22.54 31.7559 22.06C32.4893 21.5933 33.0626 21.1267 33.4759 20.66C33.9026 20.1933 34.1159 19.7933 34.1159 19.46C34.1159 18.9133 33.7626 17.4267 33.0559 15L32.9559 14.6L35.1959 13.72C35.5159 14.64 35.7693 15.6267 35.9559 16.68C36.1426 17.72 36.2359 18.6467 36.2359 19.46C36.2359 20.7667 35.7226 21.9733 34.6959 23.08C33.6693 24.2 32.2893 25.12 30.5559 25.84L29.3359 23.32ZM37.7108 23.26C39.9908 22.7667 41.6441 22.1733 42.6708 21.48C43.6974 20.7867 44.2108 19.8933 44.2108 18.8C44.2108 18.0133 44.0974 17.2467 43.8708 16.5C43.6574 15.74 43.3574 15.12 42.9708 14.64C42.5974 14.16 42.1774 13.92 41.7108 13.92C41.4441 13.92 41.1908 14.02 40.9508 14.22C40.7241 14.4067 40.5441 14.6467 40.4108 14.94C40.2774 15.2333 40.2108 15.5133 40.2108 15.78C40.2108 16.0067 40.2574 16.1867 40.3508 16.32C40.5641 16.6133 41.0508 16.8067 41.8108 16.9C42.5841 16.98 43.6441 17.02 44.9908 17.02H46.9708L47.1308 18.52L46.9708 20L44.4308 20.02C42.8174 20.02 41.5241 19.8867 40.5508 19.62C39.5774 19.3533 38.8974 18.8133 38.5108 18C38.2708 17.48 38.1508 16.9067 38.1508 16.28C38.1508 15.4933 38.3174 14.7133 38.6508 13.94C38.9841 13.1533 39.4441 12.5133 40.0308 12.02C40.6174 11.5133 41.2574 11.26 41.9508 11.26C42.7508 11.26 43.4774 11.6067 44.1308 12.3C44.7841 12.9933 45.2974 13.9 45.6708 15.02C46.0441 16.14 46.2308 17.3067 46.2308 18.52C46.2308 20.3867 45.5574 21.96 44.2108 23.24C42.8641 24.52 41.0041 25.3867 38.6308 25.84L37.7108 23.26ZM46.7164 17.02H47.7764C48.7364 17.02 49.4231 16.9133 49.8364 16.7C50.2631 16.4867 50.4764 16.1667 50.4764 15.74C50.4764 15.46 50.3364 14.9133 50.0564 14.1C49.7764 13.2733 49.5564 12.6667 49.3964 12.28L51.4964 11.12C51.7497 11.68 52.0097 12.4333 52.2764 13.38C52.5564 14.3133 52.6964 15.1333 52.6964 15.84C52.6964 17.2 52.2697 18.2333 51.4164 18.94C50.5764 19.6467 49.3631 20 47.7764 20H46.7164V17.02ZM47.8964 8.46L49.7564 6.62L51.5964 8.46L50.9764 9.08C50.5764 9.49333 50.1697 9.9 49.7564 10.3L47.8964 8.46Z" fill="#DC1E7A"/>
<path fill-rule="evenodd" clip-rule="evenodd" d="M75 30C83.2843 30 90 23.2843 90 15C90 6.71573 83.2843 0 75 0C66.7157 0 60 6.71573 60 15C60 23.2843 66.7157 30 75 30ZM77.3152 11.5894C78.5938 10.3108 78.5938 8.23768 77.3152 6.959C76.0366 5.68034 73.9635 5.68034 72.6848 6.959C71.4062 8.23768 71.4062 10.3108 72.6848 11.5894L75 13.9046L77.3152 11.5894ZM78.4106 17.3152C79.6893 18.5939 81.7624 18.5939 83.041 17.3152C84.3196 16.0366 84.3196 13.9635 83.041 12.6848C81.7624 11.4062 79.6893 11.4062 78.4106 12.6848L76.0954 15.0001L78.4106 17.3152ZM77.3152 23.041C78.5938 21.7624 78.5938 19.6893 77.3152 18.4106L75 16.0954L72.6848 18.4106C71.4062 19.6893 71.4062 21.7624 72.6848 23.041C73.9635 24.3197 76.0366 24.3197 77.3152 23.041ZM66.959 17.3152C65.6803 16.0366 65.6803 13.9635 66.959 12.6848C68.2377 11.4062 70.3108 11.4062 71.5894 12.6848L73.9046 15.0001L71.5894 17.3152C70.3108 18.5939 68.2377 18.5939 66.959 17.3152Z" fill="#DC1E7A"/>
</svg>
