<svg width="370" height="179" viewBox="0 0 370 179" fill="none" xmlns="http://www.w3.org/2000/svg">
<g filter="url(#filter0_d_1211_11738)">
<path d="M7 64C7 55.5992 7 51.3988 8.6349 48.1901C10.073 45.3677 12.3677 43.073 15.1901 41.6349C18.3988 40 22.5992 40 31 40H339C347.401 40 351.601 40 354.81 41.6349C357.632 43.073 359.927 45.3677 361.365 48.1901C363 51.3988 363 55.5992 363 64V172H31C22.5992 172 18.3988 172 15.1901 170.365C12.3677 168.927 10.073 166.632 8.6349 163.81C7 160.601 7 156.401 7 148V64Z" fill="white" shape-rendering="crispEdges"/>
<path d="M120.781 89.076C119.725 89.076 118.789 88.878 117.973 88.482C117.157 88.086 116.515 87.504 116.047 86.736C115.579 85.98 115.345 85.08 115.345 84.036C115.345 83.316 115.465 82.542 115.705 81.714C115.957 80.886 116.245 80.142 116.569 79.482L117.955 80.13C117.655 80.802 117.415 81.444 117.235 82.056C117.055 82.656 116.965 83.238 116.965 83.802C116.965 84.894 117.295 85.716 117.955 86.268C118.615 86.832 119.557 87.114 120.781 87.114C121.477 87.114 122.137 87.024 122.761 86.844C123.397 86.664 123.925 86.442 124.345 86.178C124.765 85.926 125.023 85.692 125.119 85.476C124.987 85.26 124.561 84.924 123.841 84.468C123.121 84.012 122.359 83.628 121.555 83.316L121.969 81.444C122.929 81.636 123.781 81.78 124.525 81.876C125.281 81.972 126.013 82.02 126.721 82.02H127.099L127.207 83.01L127.099 84H126.721C125.929 84 125.149 83.946 124.381 83.838C123.613 83.718 122.671 83.544 121.555 83.316L121.987 82.074L122.383 82.254C123.571 82.77 124.585 83.298 125.425 83.838C126.265 84.366 126.679 84.936 126.667 85.548C126.655 86.112 126.379 86.67 125.839 87.222C125.299 87.774 124.579 88.218 123.679 88.554C122.791 88.902 121.825 89.076 120.781 89.076ZM126.787 82.02H127.021C128.905 82.02 130.321 81.864 131.269 81.552C132.229 81.24 132.793 80.7 132.961 79.932C132.961 79.296 132.871 78.654 132.691 78.006C132.511 77.346 132.253 76.8 131.917 76.368C131.581 75.924 131.191 75.702 130.747 75.702C130.471 75.702 130.213 75.792 129.973 75.972C129.745 76.152 129.559 76.386 129.415 76.674C129.283 76.95 129.217 77.226 129.217 77.502C129.217 77.73 129.271 77.934 129.379 78.114C129.559 78.39 129.889 78.606 130.369 78.762C130.861 78.918 131.413 78.996 132.025 78.996C132.493 78.996 132.919 78.954 133.303 78.87V80.688C132.787 80.796 132.253 80.85 131.701 80.85C130.873 80.85 130.135 80.718 129.487 80.454C128.851 80.178 128.389 79.77 128.101 79.23C127.873 78.786 127.759 78.288 127.759 77.736C127.759 77.112 127.891 76.506 128.155 75.918C128.431 75.318 128.803 74.832 129.271 74.46C129.751 74.076 130.279 73.884 130.855 73.884C131.527 73.884 132.127 74.148 132.655 74.676C133.183 75.192 133.591 75.87 133.879 76.71C134.167 77.538 134.311 78.396 134.311 79.284C134.311 79.524 134.305 79.704 134.293 79.824C134.197 81.168 133.543 82.2 132.331 82.92C131.119 83.64 129.349 84 127.021 84H126.787V82.02ZM129.217 71.166C129.685 70.674 130.153 70.206 130.621 69.762C131.089 70.206 131.557 70.674 132.025 71.166L130.621 72.57L129.217 71.166ZM140.468 84C139.7 84 139.094 83.73 138.65 83.19C138.218 82.638 137.852 81.858 137.552 80.85L138.758 80.112C138.926 80.82 139.136 81.318 139.388 81.606C139.652 81.882 140.012 82.02 140.468 82.02H140.594L140.702 83.01L140.594 84H140.468ZM133.592 87.51C134.372 87.222 135.074 86.862 135.698 86.43C136.334 85.998 136.832 85.548 137.192 85.08C137.564 84.624 137.75 84.198 137.75 83.802C137.75 83.298 137.432 81.81 136.796 79.338L138.38 78.726C138.656 79.578 138.878 80.478 139.046 81.426C139.226 82.362 139.316 83.154 139.316 83.802C139.316 84.906 138.854 85.944 137.93 86.916C137.018 87.9 135.83 88.662 134.366 89.202L133.592 87.51ZM156.25 82.02L156.358 83.01L156.25 84H156.142C154.642 84 153.562 83.97 152.902 83.91C152.242 83.838 151.726 83.67 151.354 83.406L152.11 82.56C153.838 82.2 155.188 82.02 156.16 82.02H156.25ZM140.392 82.02H140.662C141.25 82.02 141.73 81.894 142.102 81.642C142.474 81.378 142.768 80.97 142.984 80.418C143.212 79.866 143.392 79.122 143.524 78.186L145.018 78.492C144.958 78.864 144.928 79.266 144.928 79.698C144.928 80.694 145.186 81.396 145.702 81.804C146.23 82.212 147.088 82.416 148.276 82.416C149.368 82.416 150.34 82.29 151.192 82.038C152.044 81.786 152.704 81.456 153.172 81.048C153.652 80.64 153.892 80.214 153.892 79.77C153.892 79.386 153.73 79.068 153.406 78.816C153.094 78.552 152.662 78.42 152.11 78.42C151.138 78.42 150.148 78.846 149.14 79.698C148.144 80.538 147.226 81.732 146.386 83.28L145.162 82.47C146.098 80.622 147.166 79.176 148.366 78.132C149.578 77.076 150.778 76.548 151.966 76.548C152.614 76.548 153.202 76.686 153.73 76.962C154.258 77.238 154.666 77.622 154.954 78.114C155.254 78.594 155.404 79.14 155.404 79.752C155.404 80.676 155.104 81.486 154.504 82.182C153.904 82.878 153.07 83.418 152.002 83.802C150.946 84.186 149.752 84.378 148.42 84.378C145.984 84.378 144.496 83.628 143.956 82.128C143.632 82.74 143.212 83.208 142.696 83.532C142.18 83.844 141.496 84 140.644 84H140.392V82.02ZM159.6 80.634C160.344 81.138 161.016 81.534 161.616 81.822C162.216 82.11 162.678 82.254 163.002 82.254C163.098 82.254 163.194 82.23 163.29 82.182C163.47 82.086 163.608 81.93 163.704 81.714C163.8 81.486 163.848 81.228 163.848 80.94C163.848 80.388 163.704 79.884 163.416 79.428C163.128 78.972 162.756 78.744 162.3 78.744C161.94 78.744 161.556 78.99 161.148 79.482C160.752 79.974 160.314 80.73 159.834 81.75C159.474 82.494 159 83.058 158.412 83.442C157.824 83.814 157.152 84 156.396 84H156.072L156.108 82.02H156.432C156.912 82.02 157.356 81.882 157.764 81.606C158.172 81.33 158.52 80.91 158.808 80.346C159.336 79.314 159.87 78.498 160.41 77.898C160.95 77.298 161.538 76.98 162.174 76.944C162.81 76.908 163.362 77.076 163.83 77.448C164.31 77.82 164.676 78.312 164.928 78.924C165.18 79.536 165.306 80.178 165.306 80.85C165.306 81.51 165.18 82.116 164.928 82.668C164.676 83.208 164.304 83.616 163.812 83.892C163.572 84.024 163.296 84.09 162.984 84.09C162.036 84.09 160.65 83.484 158.826 82.272L159.6 80.634ZM172.857 81.318C173.325 81.57 173.787 81.78 174.243 81.948C174.699 82.104 175.281 82.182 175.989 82.182C176.637 82.182 177.165 82.098 177.573 81.93C177.993 81.762 178.269 81.57 178.401 81.354C178.437 81.258 178.455 81.144 178.455 81.012C178.455 80.496 178.149 79.836 177.537 79.032C176.937 78.216 175.995 77.346 174.711 76.422L175.683 74.712C177.027 75.708 178.083 76.764 178.851 77.88C179.631 78.984 180.021 80.016 180.021 80.976C180.021 81.432 179.937 81.846 179.769 82.218C179.517 82.806 179.061 83.262 178.401 83.586C177.741 83.91 176.997 84.072 176.169 84.072C175.197 84.072 174.369 83.934 173.685 83.658C173.001 83.382 172.461 83.076 172.065 82.74L172.857 81.318ZM182.069 83.892C182.165 83.172 182.213 81.912 182.213 80.112C182.213 78.468 182.171 76.782 182.087 75.054C182.015 73.314 181.931 72.156 181.835 71.58L183.545 71.202C183.629 71.802 183.713 72.984 183.797 74.748C183.881 76.512 183.923 78.216 183.923 79.86C183.923 81.732 183.863 83.142 183.743 84.09L182.069 83.892ZM185.636 87.456C187.604 87.036 189.05 86.478 189.974 85.782C190.898 85.098 191.36 84.234 191.36 83.19C191.36 82.506 191.27 81.822 191.09 81.138C190.91 80.454 190.646 79.884 190.298 79.428C189.962 78.96 189.566 78.702 189.11 78.654C188.846 78.618 188.588 78.708 188.336 78.924C188.096 79.128 187.898 79.398 187.742 79.734C187.598 80.07 187.526 80.394 187.526 80.706C187.526 80.958 187.574 81.156 187.67 81.3C187.862 81.588 188.3 81.78 188.984 81.876C189.68 81.972 190.58 82.02 191.684 82.02H193.448L193.556 83.01L193.448 84L191.234 84.018C189.926 84.018 188.864 83.916 188.048 83.712C187.244 83.496 186.68 83.058 186.356 82.398C186.152 81.966 186.05 81.492 186.05 80.976C186.05 80.328 186.188 79.68 186.464 79.032C186.752 78.384 187.13 77.85 187.598 77.43C188.078 77.01 188.594 76.8 189.146 76.8C189.854 76.8 190.484 77.112 191.036 77.736C191.6 78.348 192.032 79.14 192.332 80.112C192.644 81.072 192.8 82.038 192.8 83.01C192.8 84.57 192.218 85.89 191.054 86.97C189.902 88.05 188.294 88.794 186.23 89.202L185.636 87.456ZM196.743 80.634C197.487 81.138 198.159 81.534 198.759 81.822C199.359 82.11 199.821 82.254 200.145 82.254C200.241 82.254 200.337 82.23 200.433 82.182C200.613 82.086 200.751 81.93 200.847 81.714C200.943 81.486 200.991 81.228 200.991 80.94C200.991 80.388 200.847 79.884 200.559 79.428C200.271 78.972 199.899 78.744 199.443 78.744C199.083 78.744 198.699 78.99 198.291 79.482C197.895 79.974 197.457 80.73 196.977 81.75C196.617 82.494 196.143 83.058 195.555 83.442C194.967 83.814 194.295 84 193.539 84H193.215L193.251 82.02H193.575C194.055 82.02 194.499 81.882 194.907 81.606C195.315 81.33 195.663 80.91 195.951 80.346C196.479 79.314 197.013 78.498 197.553 77.898C198.093 77.298 198.681 76.98 199.317 76.944C199.953 76.908 200.505 77.076 200.973 77.448C201.453 77.82 201.819 78.312 202.071 78.924C202.323 79.536 202.449 80.178 202.449 80.85C202.449 81.51 202.323 82.116 202.071 82.668C201.819 83.208 201.447 83.616 200.955 83.892C200.715 84.024 200.439 84.09 200.127 84.09C199.179 84.09 197.793 83.484 195.969 82.272L196.743 80.634ZM216.209 84.18C216.185 83.82 216.173 83.544 216.173 83.352C216.173 83.1 216.185 82.722 216.209 82.218C217.709 82.218 218.909 82.104 219.809 81.876C220.721 81.636 221.435 81.27 221.951 80.778C222.467 80.274 222.869 79.596 223.157 78.744L224.669 78.924C224.453 79.584 224.345 80.142 224.345 80.598C224.345 81.546 224.825 82.02 225.785 82.02L225.893 83.01L225.785 84C224.993 84 224.333 83.748 223.805 83.244C223.289 82.74 223.037 82.08 223.049 81.264L223.409 81.3C222.725 82.332 221.795 83.07 220.619 83.514C219.455 83.958 217.985 84.18 216.209 84.18ZM211.511 77.826C211.175 78.774 211.007 79.512 211.007 80.04C211.007 80.172 211.013 80.274 211.025 80.346C211.121 80.934 211.613 81.396 212.501 81.732C213.401 82.056 214.679 82.218 216.335 82.218C216.359 82.698 216.371 83.058 216.371 83.298C216.371 83.502 216.359 83.796 216.335 84.18C214.223 84.192 212.573 83.898 211.385 83.298C210.197 82.686 209.549 81.804 209.441 80.652C209.429 80.556 209.423 80.418 209.423 80.238C209.423 79.746 209.489 79.224 209.621 78.672C209.753 78.108 209.915 77.598 210.107 77.142L211.511 77.826ZM214.283 76.872C214.859 76.296 215.147 76.008 215.147 76.008L216.461 77.304C216.029 77.748 215.591 78.186 215.147 78.618L213.851 77.304L214.283 76.872ZM217.451 76.872C218.027 76.296 218.315 76.008 218.315 76.008L219.629 77.304C219.197 77.748 218.759 78.186 218.315 78.618L217.019 77.304L217.451 76.872ZM225.594 82.02H225.738C226.674 82.02 227.4 81.978 227.916 81.894C228.432 81.81 228.804 81.69 229.032 81.534C229.272 81.366 229.434 81.132 229.518 80.832C229.566 80.676 229.59 80.454 229.59 80.166C229.59 79.842 229.56 79.476 229.5 79.068C229.44 78.648 229.404 78.39 229.392 78.294L230.886 77.988C231.054 78.792 231.138 79.764 231.138 80.904C231.198 81.252 231.354 81.528 231.606 81.732C231.87 81.924 232.224 82.02 232.668 82.02H232.794L232.902 83.01L232.794 84H232.668C232.08 84 231.558 83.832 231.102 83.496C230.658 83.16 230.328 82.728 230.112 82.2L230.508 82.272C230.244 82.908 229.758 83.358 229.05 83.622C228.342 83.874 227.238 84 225.738 84H225.594V82.02ZM224.928 86.502C225.504 85.926 225.792 85.638 225.792 85.638L227.106 86.934C226.674 87.378 226.236 87.816 225.792 88.248L224.496 86.934L224.928 86.502ZM228.114 86.502C228.69 85.926 228.978 85.638 228.978 85.638L230.292 86.934C229.86 87.378 229.422 87.816 228.978 88.248L227.682 86.934L228.114 86.502ZM232.553 82.02H232.985C234.293 82.02 235.331 81.942 236.099 81.786C236.879 81.63 237.455 81.408 237.827 81.12C238.199 80.82 238.463 80.442 238.619 79.986C238.643 79.662 238.595 79.344 238.475 79.032C238.367 78.72 238.193 78.462 237.953 78.258C237.713 78.054 237.437 77.952 237.125 77.952C236.717 77.952 236.357 78.132 236.045 78.492C235.733 78.84 235.547 79.26 235.487 79.752C235.475 80.148 235.631 80.52 235.955 80.868C236.279 81.216 236.753 81.498 237.377 81.714C238.013 81.918 238.763 82.02 239.627 82.02H241.373L241.481 83.01L241.373 84H240.293C239.081 84 237.989 83.82 237.017 83.46C236.057 83.1 235.301 82.614 234.749 82.002C234.209 81.39 233.939 80.718 233.939 79.986C233.939 79.89 233.951 79.746 233.975 79.554C234.071 78.906 234.275 78.312 234.587 77.772C234.911 77.22 235.301 76.788 235.757 76.476C236.225 76.152 236.711 75.99 237.215 75.99C237.779 75.99 238.283 76.17 238.727 76.53C239.183 76.89 239.537 77.352 239.789 77.916C240.041 78.48 240.167 79.056 240.167 79.644C240.167 79.752 240.155 79.914 240.131 80.13C239.951 81.45 239.267 82.428 238.079 83.064C236.903 83.688 235.205 84 232.985 84H232.553V82.02ZM235.901 73.56C236.369 73.068 236.837 72.6 237.305 72.156C237.773 72.6 238.241 73.068 238.709 73.56L237.305 74.964L235.901 73.56ZM241.15 82.02H241.294C242.23 82.02 242.956 81.978 243.472 81.894C243.988 81.81 244.36 81.69 244.588 81.534C244.828 81.366 244.99 81.132 245.074 80.832C245.122 80.676 245.146 80.454 245.146 80.166C245.146 79.842 245.116 79.476 245.056 79.068C244.996 78.648 244.96 78.39 244.948 78.294L246.442 77.988C246.61 78.792 246.694 79.764 246.694 80.904C246.754 81.252 246.91 81.528 247.162 81.732C247.426 81.924 247.78 82.02 248.224 82.02H248.35L248.458 83.01L248.35 84H248.224C247.636 84 247.114 83.832 246.658 83.496C246.214 83.16 245.884 82.728 245.668 82.2L246.064 82.272C245.8 82.908 245.314 83.358 244.606 83.622C243.898 83.874 242.794 84 241.294 84H241.15V82.02ZM240.484 86.502C241.06 85.926 241.348 85.638 241.348 85.638L242.662 86.934C242.23 87.378 241.792 87.816 241.348 88.248L240.052 86.934L240.484 86.502ZM243.67 86.502C244.246 85.926 244.534 85.638 244.534 85.638L245.848 86.934C245.416 87.378 244.978 87.816 244.534 88.248L243.238 86.934L243.67 86.502ZM256.372 72.57L250.882 74.946C251.758 75.69 252.568 76.59 253.312 77.646C254.056 78.702 254.428 79.698 254.428 80.634C254.428 80.934 254.386 81.21 254.302 81.462C254.026 82.314 253.396 82.95 252.412 83.37C251.44 83.79 250.192 84 248.668 84H248.164V82.02H248.668C249.808 82.02 250.726 81.924 251.422 81.732C252.13 81.528 252.58 81.24 252.772 80.868C252.796 80.748 252.808 80.652 252.808 80.58C252.808 79.98 252.478 79.248 251.818 78.384C251.158 77.508 250.222 76.584 249.01 75.612L249.226 73.812L255.832 70.968L256.372 72.57Z" fill="#393939"/>
<path d="M34.7203 120.906C33.9176 120.906 33.2036 120.747 32.5783 120.43C31.9623 120.122 31.4769 119.679 31.1223 119.1C30.7676 118.521 30.5903 117.845 30.5903 117.07C30.5903 116.501 30.6836 115.899 30.8703 115.264C31.0569 114.629 31.2716 114.069 31.5143 113.584L32.4663 114.032C31.9436 115.133 31.6823 116.095 31.6823 116.916C31.6823 117.803 31.9436 118.479 32.4663 118.946C32.9889 119.413 33.7403 119.646 34.7203 119.646C35.2896 119.646 35.8263 119.571 36.3303 119.422C36.8436 119.273 37.2636 119.086 37.5903 118.862C37.9169 118.647 38.1036 118.456 38.1503 118.288C38.1036 118.185 37.9403 118.022 37.6603 117.798C37.3896 117.583 37.0489 117.355 36.6383 117.112C36.2276 116.869 35.8029 116.659 35.3643 116.482L35.6303 115.292C37.0769 115.591 38.2809 115.74 39.2423 115.74H39.5783L39.6483 116.37L39.5783 117H39.2423C38.6169 117 38.0149 116.958 37.4363 116.874C36.8576 116.781 36.1716 116.65 35.3783 116.482L35.6583 115.67L35.9383 115.796C36.8716 116.207 37.6509 116.613 38.2763 117.014C38.9109 117.425 39.2283 117.859 39.2283 118.316C39.2283 118.745 39.0183 119.156 38.5983 119.548C38.1876 119.949 37.6323 120.276 36.9323 120.528C36.2416 120.78 35.5043 120.906 34.7203 120.906ZM42.0135 114.634C42.6015 115.035 43.1288 115.343 43.5955 115.558C44.0622 115.773 44.4215 115.88 44.6735 115.88C44.7575 115.88 44.8368 115.861 44.9115 115.824C45.0795 115.74 45.2055 115.6 45.2895 115.404C45.3735 115.208 45.4155 114.984 45.4155 114.732C45.4155 114.275 45.2988 113.859 45.0655 113.486C44.8415 113.113 44.5428 112.926 44.1695 112.926C43.8802 112.926 43.5722 113.131 43.2455 113.542C42.9188 113.943 42.5595 114.536 42.1675 115.32C41.8875 115.871 41.5235 116.291 41.0755 116.58C40.6368 116.86 40.1375 117 39.5775 117H39.3255L39.3395 115.74H39.6055C39.9882 115.74 40.3382 115.633 40.6555 115.418C40.9822 115.194 41.2528 114.867 41.4675 114.438C41.8595 113.645 42.2655 113.01 42.6855 112.534C43.1055 112.058 43.5675 111.806 44.0715 111.778C44.5382 111.75 44.9488 111.876 45.3035 112.156C45.6675 112.427 45.9428 112.791 46.1295 113.248C46.3255 113.696 46.4235 114.167 46.4235 114.662C46.4235 115.157 46.3255 115.609 46.1295 116.02C45.9335 116.421 45.6442 116.725 45.2615 116.93C45.1028 117.023 44.9022 117.07 44.6595 117.07C43.9502 117.07 42.9002 116.608 41.5095 115.684L42.0135 114.634ZM49.0697 107.256C49.1444 107.732 49.2004 108.567 49.2377 109.762C49.2844 110.947 49.3077 112.025 49.3077 112.996V113.584L49.2937 114.074C49.2937 114.513 49.3311 114.849 49.4057 115.082C49.4804 115.306 49.6204 115.474 49.8257 115.586C50.0404 115.689 50.3577 115.74 50.7777 115.74H50.8477L50.9177 116.37L50.8477 117H50.7777C50.1151 117 49.5971 116.893 49.2237 116.678C48.8504 116.454 48.5844 116.123 48.4257 115.684C48.2764 115.245 48.2017 114.667 48.2017 113.948C48.2017 112.884 48.1784 111.68 48.1317 110.336C48.0944 108.983 48.0337 108.035 47.9497 107.494L49.0697 107.256ZM50.7142 115.74H50.9942C51.7782 115.74 52.3988 115.306 52.8562 114.438C53.3135 113.598 53.7382 112.954 54.1302 112.506C54.5222 112.049 54.9655 111.806 55.4602 111.778C56.5335 111.722 57.2615 112.459 57.6442 113.99C57.7935 114.615 57.9522 115.063 58.1202 115.334C58.2882 115.605 58.5215 115.74 58.8202 115.74H58.9462L59.0162 116.37L58.9462 117H58.8202C58.1295 117 57.6815 116.617 57.4762 115.852C57.4482 116.076 57.3502 116.286 57.1822 116.482C57.0235 116.678 56.8462 116.827 56.6502 116.93C56.4915 117.023 56.2955 117.07 56.0622 117.07C55.3902 117.07 54.4428 116.673 53.2202 115.88C52.9402 116.244 52.6042 116.524 52.2122 116.72C51.8295 116.907 51.4142 117 50.9662 117H50.7142V115.74ZM53.7802 114.872C54.3028 115.236 54.7835 115.511 55.2222 115.698C55.6702 115.875 56.0248 115.964 56.2862 115.964C56.3795 115.964 56.4542 115.95 56.5102 115.922C56.7155 115.726 56.8182 115.409 56.8182 114.97C56.8182 114.662 56.7622 114.349 56.6502 114.032C56.5475 113.715 56.3982 113.453 56.2022 113.248C56.0155 113.033 55.8008 112.926 55.5582 112.926C55.2782 112.926 54.9888 113.099 54.6902 113.444C54.4008 113.789 54.0975 114.265 53.7802 114.872ZM58.8079 115.74H59.3679C60.3666 115.74 61.0713 115.647 61.4819 115.46C61.8926 115.264 62.0979 114.947 62.0979 114.508C62.0886 114.219 61.9906 113.78 61.8039 113.192C61.6266 112.595 61.4726 112.165 61.3419 111.904L62.3499 111.372C62.5366 111.736 62.7186 112.231 62.8959 112.856C63.0826 113.472 63.1759 114.009 63.1759 114.466C63.1759 115.297 62.8726 115.927 62.2659 116.356C61.6593 116.785 60.7446 117 59.5219 117H58.8079V115.74ZM59.5079 109.244L60.1379 108.614L61.0759 109.552L60.1379 110.504L59.1999 109.552L59.5079 109.244ZM61.9999 109.244L62.6299 108.614L63.5679 109.552L62.6299 110.504L61.6919 109.552L61.9999 109.244ZM67.5186 119.926C68.1159 119.721 68.6572 119.45 69.1426 119.114C69.6279 118.778 70.0059 118.419 70.2766 118.036C70.5566 117.653 70.6966 117.294 70.6966 116.958C70.6966 116.482 70.4586 115.315 69.9826 113.458L71.0606 113.052C71.2659 113.715 71.4339 114.415 71.5646 115.152C71.7046 115.889 71.7746 116.491 71.7746 116.958C71.7746 117.509 71.6112 118.045 71.2846 118.568C70.9579 119.1 70.5052 119.576 69.9266 119.996C69.3572 120.425 68.7132 120.766 67.9946 121.018L67.5186 119.926ZM73.2971 115.124C73.3344 115.143 73.4697 115.222 73.7031 115.362C73.9457 115.493 74.2491 115.605 74.6131 115.698C74.9864 115.791 75.3784 115.838 75.7891 115.838C76.2931 115.838 76.7037 115.768 77.0211 115.628C77.3477 115.479 77.5577 115.315 77.6511 115.138C77.6977 115.026 77.7211 114.909 77.7211 114.788C77.7211 114.349 77.4784 113.808 76.9931 113.164C76.5171 112.511 75.7891 111.825 74.8091 111.106L75.4391 110.014C76.4751 110.798 77.2824 111.61 77.8611 112.45C78.4491 113.281 78.7431 114.06 78.7431 114.788C78.7431 115.124 78.6824 115.427 78.5611 115.698C78.3744 116.127 78.0384 116.459 77.5531 116.692C77.0677 116.925 76.5124 117.042 75.8871 117.042C75.1497 117.042 74.5197 116.944 73.9971 116.748C73.4744 116.543 73.0591 116.309 72.7511 116.048L73.2971 115.124ZM89.9519 117.14C89.9426 117 89.9379 116.79 89.9379 116.51C89.9379 116.23 89.9426 116.02 89.9519 115.88C90.8106 115.88 91.5526 115.819 92.1779 115.698C92.8032 115.567 93.2792 115.413 93.6059 115.236C93.9419 115.049 94.1286 114.877 94.1659 114.718C94.1286 114.345 94.0166 113.869 93.8299 113.29C93.6526 112.702 93.4986 112.245 93.3679 111.918L94.3759 111.372C94.5626 111.82 94.7446 112.375 94.9219 113.038C95.1086 113.701 95.2019 114.233 95.2019 114.634C95.2019 115.147 94.9779 115.595 94.5299 115.978C94.0819 116.351 93.4566 116.641 92.6539 116.846C91.8606 117.042 90.9599 117.14 89.9519 117.14ZM86.2419 112.282C85.9806 113.01 85.8499 113.584 85.8499 114.004C85.8499 114.135 85.8546 114.233 85.8639 114.298C85.9386 114.802 86.3259 115.194 87.0259 115.474C87.7259 115.745 88.7386 115.88 90.0639 115.88C90.0826 116.039 90.0919 116.272 90.0919 116.58C90.0919 116.832 90.0872 117.019 90.0779 117.14C88.4539 117.149 87.1846 116.925 86.2699 116.468C85.3646 116.001 84.8699 115.339 84.7859 114.48C84.7766 114.405 84.7719 114.298 84.7719 114.158C84.7719 113.766 84.8186 113.36 84.9119 112.94C85.0146 112.511 85.1406 112.133 85.2899 111.806L86.2419 112.282ZM88.0759 111.792L88.7059 111.162L89.6439 112.1L88.7059 113.052L87.7679 112.1L88.0759 111.792ZM90.5679 111.792L91.1979 111.162L92.1359 112.1L91.1979 113.052L90.2599 112.1L90.5679 111.792ZM102.317 107.256C102.466 108.432 102.573 109.407 102.639 110.182C102.713 110.947 102.751 111.722 102.751 112.506C102.751 112.851 102.746 113.108 102.737 113.276C102.69 114.592 102.163 115.577 101.155 116.23C100.147 116.874 98.826 117.271 97.1926 117.42L96.8846 116.188C100.039 115.852 101.617 114.881 101.617 113.276C101.617 112.352 101.584 111.47 101.519 110.63C101.453 109.781 101.346 108.735 101.197 107.494L102.317 107.256ZM97.4166 108.474C98.0046 109.743 98.4666 110.952 98.8026 112.1C99.1386 113.248 99.3066 114.223 99.3066 115.026C99.3066 115.325 99.2786 115.595 99.2226 115.838L98.1026 116.16C98.1866 115.917 98.2286 115.623 98.2286 115.278C98.2286 114.55 98.0606 113.64 97.7246 112.548C97.398 111.447 96.978 110.299 96.4646 109.104L97.4166 108.474ZM103.827 119.898C105.321 119.571 106.427 119.128 107.145 118.568C107.864 118.017 108.223 117.322 108.223 116.482C108.223 115.941 108.153 115.399 108.013 114.858C107.873 114.307 107.663 113.85 107.383 113.486C107.113 113.113 106.791 112.912 106.417 112.884C106.212 112.875 106.011 112.959 105.815 113.136C105.619 113.313 105.461 113.542 105.339 113.822C105.218 114.102 105.157 114.368 105.157 114.62C105.157 114.825 105.199 114.998 105.283 115.138C105.433 115.381 105.783 115.544 106.333 115.628C106.884 115.703 107.593 115.74 108.461 115.74H109.693L109.763 116.37L109.693 117L107.999 117.014C107.047 117.014 106.268 116.935 105.661 116.776C105.055 116.617 104.63 116.305 104.387 115.838C104.238 115.539 104.163 115.189 104.163 114.788C104.163 114.303 104.266 113.817 104.471 113.332C104.686 112.847 104.966 112.445 105.311 112.128C105.666 111.811 106.044 111.652 106.445 111.652C106.996 111.652 107.481 111.895 107.901 112.38C108.321 112.865 108.643 113.477 108.867 114.214C109.091 114.942 109.203 115.661 109.203 116.37C109.203 117.527 108.76 118.512 107.873 119.324C106.996 120.136 105.769 120.701 104.191 121.018L103.827 119.898ZM109.517 115.74H109.643C110.362 115.74 110.922 115.712 111.323 115.656C111.724 115.591 112.018 115.493 112.205 115.362C112.392 115.231 112.527 115.054 112.611 114.83C112.667 114.662 112.695 114.461 112.695 114.228C112.695 113.929 112.639 113.416 112.527 112.688L113.563 112.492C113.675 113.08 113.736 113.827 113.745 114.732C113.876 115.404 114.3 115.74 115.019 115.74H115.117L115.187 116.37L115.117 117H115.019C114.552 117 114.142 116.865 113.787 116.594C113.442 116.314 113.199 115.959 113.059 115.53L113.339 115.586C113.218 115.941 113.017 116.221 112.737 116.426C112.457 116.631 112.07 116.781 111.575 116.874C111.09 116.958 110.446 117 109.643 117H109.517V115.74ZM112.037 107.886L112.877 108.74L112.037 109.58L111.197 108.74L112.037 107.886ZM113.325 109.314L114.277 110.266L113.325 111.204C113.017 110.887 112.704 110.574 112.387 110.266L113.325 109.314ZM110.749 109.314L111.701 110.266L110.749 111.204C110.441 110.887 110.128 110.574 109.811 110.266L110.749 109.314ZM125.71 115.74L125.78 116.37L125.71 117H125.57C124.646 116.991 123.909 116.799 123.358 116.426C122.817 116.053 122.453 115.483 122.266 114.718L122.994 114.186C123.097 114.643 123.372 115.017 123.82 115.306C124.277 115.586 124.861 115.731 125.57 115.74H125.71ZM114.958 115.74H116.246C117.413 115.74 118.5 115.6 119.508 115.32C120.525 115.031 121.543 114.615 122.56 114.074C123.129 113.766 123.689 113.533 124.24 113.374L124.282 113.878C123.75 113.878 123.241 113.817 122.756 113.696C122.28 113.575 121.785 113.383 121.272 113.122C120.824 112.889 120.423 112.711 120.068 112.59C119.713 112.469 119.363 112.408 119.018 112.408C118.626 112.408 118.271 112.525 117.954 112.758C117.637 112.991 117.399 113.267 117.24 113.584L116.484 113.066C116.783 112.459 117.151 112.002 117.59 111.694C118.029 111.377 118.519 111.218 119.06 111.218C119.452 111.218 119.816 111.283 120.152 111.414C120.497 111.545 121.006 111.778 121.678 112.114C122.303 112.431 122.793 112.669 123.148 112.828C123.512 112.977 123.923 113.099 124.38 113.192L124.422 114.298C124.235 114.354 124.039 114.429 123.834 114.522C123.638 114.615 123.353 114.765 122.98 114.97C121.72 115.633 120.577 116.137 119.55 116.482C118.533 116.827 117.431 117 116.246 117H114.958V115.74ZM128.256 114.634C128.844 115.035 129.371 115.343 129.838 115.558C130.304 115.773 130.664 115.88 130.916 115.88C131 115.88 131.079 115.861 131.154 115.824C131.322 115.74 131.448 115.6 131.532 115.404C131.616 115.208 131.658 114.984 131.658 114.732C131.658 114.275 131.541 113.859 131.308 113.486C131.084 113.113 130.785 112.926 130.412 112.926C130.122 112.926 129.814 113.131 129.488 113.542C129.161 113.943 128.802 114.536 128.41 115.32C128.13 115.871 127.766 116.291 127.318 116.58C126.879 116.86 126.38 117 125.82 117H125.568L125.582 115.74H125.848C126.23 115.74 126.58 115.633 126.898 115.418C127.224 115.194 127.495 114.867 127.71 114.438C128.102 113.645 128.508 113.01 128.928 112.534C129.348 112.058 129.81 111.806 130.314 111.778C130.78 111.75 131.191 111.876 131.546 112.156C131.91 112.427 132.185 112.791 132.372 113.248C132.568 113.696 132.666 114.167 132.666 114.662C132.666 115.157 132.568 115.609 132.372 116.02C132.176 116.421 131.886 116.725 131.504 116.93C131.345 117.023 131.144 117.07 130.902 117.07C130.192 117.07 129.142 116.608 127.752 115.684L128.256 114.634ZM138.526 119.898C140.02 119.571 141.126 119.128 141.844 118.568C142.563 118.017 142.922 117.322 142.922 116.482C142.913 115.931 142.838 115.385 142.698 114.844C142.558 114.303 142.353 113.85 142.082 113.486C141.812 113.113 141.49 112.912 141.116 112.884C140.911 112.875 140.71 112.959 140.514 113.136C140.318 113.313 140.16 113.542 140.038 113.822C139.917 114.102 139.856 114.368 139.856 114.62C139.856 114.825 139.898 114.998 139.982 115.138C140.132 115.362 140.384 115.53 140.738 115.642C141.102 115.754 141.518 115.81 141.984 115.81C142.432 115.81 142.843 115.768 143.216 115.684V116.874C142.815 116.986 142.348 117.042 141.816 117.042C141.2 117.042 140.645 116.949 140.15 116.762C139.656 116.566 139.301 116.258 139.086 115.838C138.937 115.539 138.862 115.189 138.862 114.788C138.862 114.303 138.965 113.817 139.17 113.332C139.385 112.847 139.665 112.445 140.01 112.128C140.365 111.811 140.743 111.652 141.144 111.652C141.695 111.652 142.18 111.895 142.6 112.38C143.02 112.865 143.342 113.477 143.566 114.214C143.79 114.942 143.902 115.661 143.902 116.37C143.902 117.527 143.459 118.512 142.572 119.324C141.695 120.136 140.468 120.701 138.89 121.018L138.526 119.898ZM150.324 115.124C150.362 115.143 150.497 115.222 150.73 115.362C150.973 115.493 151.276 115.605 151.64 115.698C152.014 115.791 152.406 115.838 152.816 115.838C153.32 115.838 153.731 115.768 154.048 115.628C154.375 115.479 154.585 115.315 154.678 115.138C154.725 115.026 154.748 114.909 154.748 114.788C154.748 114.349 154.506 113.808 154.02 113.164C153.544 112.511 152.816 111.825 151.836 111.106L152.466 110.014C153.502 110.798 154.31 111.61 154.888 112.45C155.476 113.281 155.77 114.06 155.77 114.788C155.77 115.124 155.71 115.427 155.588 115.698C155.402 116.127 155.066 116.459 154.58 116.692C154.095 116.925 153.54 117.042 152.914 117.042C152.177 117.042 151.547 116.944 151.024 116.748C150.502 116.543 150.086 116.309 149.778 116.048L150.324 115.124ZM157.479 116.916C157.544 116.356 157.577 115.409 157.577 114.074C157.577 112.805 157.549 111.493 157.493 110.14C157.446 108.777 157.39 107.895 157.325 107.494L158.445 107.256C158.501 107.685 158.557 108.623 158.613 110.07C158.678 111.507 158.711 112.875 158.711 114.172C158.711 115.479 158.678 116.44 158.613 117.056L157.479 116.916ZM160.114 119.898C161.608 119.571 162.714 119.128 163.432 118.568C164.151 118.017 164.51 117.322 164.51 116.482C164.51 115.941 164.44 115.399 164.3 114.858C164.16 114.307 163.95 113.85 163.67 113.486C163.4 113.113 163.078 112.912 162.704 112.884C162.499 112.875 162.298 112.959 162.102 113.136C161.906 113.313 161.748 113.542 161.626 113.822C161.505 114.102 161.444 114.368 161.444 114.62C161.444 114.825 161.486 114.998 161.57 115.138C161.72 115.381 162.07 115.544 162.62 115.628C163.171 115.703 163.88 115.74 164.748 115.74H165.98L166.05 116.37L165.98 117L164.286 117.014C163.334 117.014 162.555 116.935 161.948 116.776C161.342 116.617 160.917 116.305 160.674 115.838C160.525 115.539 160.45 115.189 160.45 114.788C160.45 114.303 160.553 113.817 160.758 113.332C160.973 112.847 161.253 112.445 161.598 112.128C161.953 111.811 162.331 111.652 162.732 111.652C163.283 111.652 163.768 111.895 164.188 112.38C164.608 112.865 164.93 113.477 165.154 114.214C165.378 114.942 165.49 115.661 165.49 116.37C165.49 117.527 165.047 118.512 164.16 119.324C163.283 120.136 162.056 120.701 160.478 121.018L160.114 119.898ZM168.492 114.634C169.08 115.035 169.607 115.343 170.074 115.558C170.541 115.773 170.9 115.88 171.152 115.88C171.236 115.88 171.315 115.861 171.39 115.824C171.558 115.74 171.684 115.6 171.768 115.404C171.852 115.208 171.894 114.984 171.894 114.732C171.894 114.275 171.777 113.859 171.544 113.486C171.32 113.113 171.021 112.926 170.648 112.926C170.359 112.926 170.051 113.131 169.724 113.542C169.397 113.943 169.038 114.536 168.646 115.32C168.366 115.871 168.002 116.291 167.554 116.58C167.115 116.86 166.616 117 166.056 117H165.804L165.818 115.74H166.084C166.467 115.74 166.817 115.633 167.134 115.418C167.461 115.194 167.731 114.867 167.946 114.438C168.338 113.645 168.744 113.01 169.164 112.534C169.584 112.058 170.046 111.806 170.55 111.778C171.017 111.75 171.427 111.876 171.782 112.156C172.146 112.427 172.421 112.791 172.608 113.248C172.804 113.696 172.902 114.167 172.902 114.662C172.902 115.157 172.804 115.609 172.608 116.02C172.412 116.421 172.123 116.725 171.74 116.93C171.581 117.023 171.381 117.07 171.138 117.07C170.429 117.07 169.379 116.608 167.988 115.684L168.492 114.634ZM187.065 114.158C187.233 114.746 187.41 115.157 187.597 115.39C187.793 115.623 188.073 115.74 188.437 115.74H188.521L188.591 116.37L188.521 117H188.437C188.11 117 187.825 116.888 187.583 116.664C187.349 116.431 187.153 116.155 186.995 115.838C186.836 115.511 186.649 115.077 186.435 114.536L187.065 114.158ZM180.807 114.144C180.284 115.245 180.023 116.207 180.023 117.028C180.023 117.915 180.284 118.591 180.807 119.058C181.329 119.525 182.081 119.758 183.061 119.758C183.817 119.758 184.447 119.618 184.951 119.338C185.464 119.067 185.842 118.717 186.085 118.288C186.327 117.868 186.449 117.425 186.449 116.958C186.449 116.183 186.192 115.017 185.679 113.458L186.715 112.982C186.985 113.841 187.186 114.583 187.317 115.208C187.447 115.824 187.513 116.407 187.513 116.958C187.513 117.63 187.335 118.279 186.981 118.904C186.635 119.529 186.127 120.038 185.455 120.43C184.783 120.822 183.985 121.018 183.061 121.018C182.174 121.018 181.418 120.841 180.793 120.486C180.177 120.131 179.71 119.66 179.393 119.072C179.085 118.484 178.931 117.84 178.931 117.14C178.931 116.58 179.024 115.992 179.211 115.376C179.397 114.76 179.612 114.2 179.855 113.696L180.807 114.144ZM182.361 113.192L182.697 112.856C183.135 112.417 183.355 112.198 183.355 112.198C183.355 112.198 183.574 112.417 184.013 112.856L184.349 113.192L183.355 114.186L182.361 113.192ZM188.643 115.74H189.203C190.201 115.74 190.906 115.647 191.317 115.46C191.727 115.264 191.933 114.947 191.933 114.508C191.923 114.219 191.825 113.78 191.639 113.192C191.461 112.595 191.307 112.165 191.177 111.904L192.185 111.372C192.371 111.736 192.553 112.231 192.731 112.856C192.917 113.472 193.011 114.009 193.011 114.466C193.011 115.297 192.707 115.927 192.101 116.356C191.494 116.785 190.579 117 189.357 117H188.643V115.74ZM188.825 118.946L189.455 118.316L190.393 119.254L189.455 120.206L188.517 119.254L188.825 118.946ZM191.317 118.946L191.947 118.316L192.885 119.254L191.947 120.206L191.009 119.254L191.317 118.946ZM188.405 117L188.335 116.37L188.405 115.74H188.769V117H188.405ZM198.781 117C198.202 117 197.754 116.799 197.437 116.398C197.12 115.997 196.854 115.418 196.639 114.662L197.423 114.186C197.563 114.755 197.731 115.157 197.927 115.39C198.132 115.623 198.417 115.74 198.781 115.74H198.879L198.949 116.37L198.879 117H198.781ZM193.587 119.926C194.184 119.721 194.726 119.45 195.211 119.114C195.696 118.778 196.074 118.419 196.345 118.036C196.625 117.653 196.765 117.294 196.765 116.958C196.765 116.482 196.527 115.315 196.051 113.458L197.129 113.052C197.334 113.715 197.502 114.415 197.633 115.152C197.773 115.889 197.843 116.491 197.843 116.958C197.843 117.509 197.68 118.045 197.353 118.568C197.026 119.1 196.574 119.576 195.995 119.996C195.426 120.425 194.782 120.766 194.063 121.018L193.587 119.926ZM198.74 115.74H199.3C200.298 115.74 201.003 115.647 201.414 115.46C201.824 115.264 202.03 114.947 202.03 114.508C202.02 114.219 201.922 113.78 201.736 113.192C201.558 112.595 201.404 112.165 201.274 111.904L202.282 111.372C202.468 111.736 202.65 112.231 202.828 112.856C203.014 113.472 203.108 114.009 203.108 114.466C203.108 115.297 202.804 115.927 202.198 116.356C201.591 116.785 200.676 117 199.454 117H198.74V115.74ZM199.44 109.244L200.07 108.614L201.008 109.552L200.07 110.504L199.132 109.552L199.44 109.244ZM201.932 109.244L202.562 108.614L203.5 109.552L202.562 110.504L201.624 109.552L201.932 109.244ZM214.353 117.14C214.344 117 214.339 116.79 214.339 116.51C214.339 116.23 214.344 116.02 214.353 115.88C215.492 115.88 216.421 115.787 217.139 115.6C217.858 115.404 218.423 115.105 218.833 114.704C219.253 114.293 219.575 113.752 219.799 113.08L220.835 113.192C220.677 113.715 220.597 114.153 220.597 114.508C220.597 115.329 220.999 115.74 221.801 115.74L221.871 116.37L221.801 117C221.176 117 220.663 116.804 220.261 116.412C219.869 116.02 219.673 115.493 219.673 114.83H219.953C219.44 115.642 218.721 116.23 217.797 116.594C216.883 116.958 215.735 117.14 214.353 117.14ZM210.601 112.282C210.34 113.01 210.209 113.584 210.209 114.004C210.209 114.135 210.214 114.233 210.223 114.298C210.298 114.802 210.685 115.194 211.385 115.474C212.085 115.745 213.098 115.88 214.423 115.88C214.442 116.039 214.451 116.272 214.451 116.58C214.451 116.832 214.447 117.019 214.437 117.14C212.813 117.149 211.544 116.925 210.629 116.468C209.724 116.001 209.229 115.339 209.145 114.48C209.136 114.405 209.131 114.298 209.131 114.158C209.131 113.766 209.178 113.36 209.271 112.94C209.374 112.511 209.5 112.133 209.649 111.806L210.601 112.282ZM212.813 111.764L213.443 111.134L214.381 112.072L213.443 113.024L212.505 112.072L212.813 111.764ZM215.305 111.764L215.935 111.134L216.873 112.072L215.935 113.024L214.997 112.072L215.305 111.764ZM221.667 115.74H221.793C222.512 115.74 223.072 115.712 223.473 115.656C223.875 115.591 224.169 115.493 224.355 115.362C224.542 115.231 224.677 115.054 224.761 114.83C224.817 114.662 224.845 114.461 224.845 114.228C224.845 113.929 224.789 113.416 224.677 112.688L225.713 112.492C225.825 113.08 225.886 113.827 225.895 114.732C226.026 115.404 226.451 115.74 227.169 115.74H227.267L227.337 116.37L227.267 117H227.169C226.703 117 226.292 116.865 225.937 116.594C225.592 116.314 225.349 115.959 225.209 115.53L225.489 115.586C225.368 115.941 225.167 116.221 224.887 116.426C224.607 116.631 224.22 116.781 223.725 116.874C223.24 116.958 222.596 117 221.793 117H221.667V115.74ZM221.289 118.946L221.919 118.316L222.857 119.254L221.919 120.206L220.981 119.254L221.289 118.946ZM223.781 118.946L224.411 118.316L225.349 119.254L224.411 120.206L223.473 119.254L223.781 118.946ZM227.08 115.74H227.416C228.49 115.74 229.339 115.67 229.964 115.53C230.59 115.381 231.042 115.185 231.322 114.942C231.612 114.69 231.803 114.382 231.896 114.018L231.91 113.822C231.91 113.421 231.798 113.071 231.574 112.772C231.35 112.464 231.061 112.31 230.706 112.31C230.361 112.31 230.058 112.459 229.796 112.758C229.544 113.057 229.39 113.416 229.334 113.836C229.306 114.181 229.423 114.499 229.684 114.788C229.955 115.077 230.352 115.311 230.874 115.488C231.397 115.656 232.018 115.74 232.736 115.74H233.968L234.038 116.37L233.968 117H233.128C232.195 117 231.36 116.869 230.622 116.608C229.885 116.337 229.306 115.978 228.886 115.53C228.476 115.073 228.27 114.564 228.27 114.004C228.27 113.948 228.28 113.845 228.298 113.696C228.364 113.211 228.518 112.767 228.76 112.366C229.003 111.955 229.297 111.633 229.642 111.4C229.997 111.157 230.361 111.036 230.734 111.036C231.145 111.036 231.518 111.167 231.854 111.428C232.2 111.689 232.47 112.03 232.666 112.45C232.862 112.87 232.96 113.304 232.96 113.752C232.96 113.827 232.951 113.948 232.932 114.116C232.811 115.096 232.288 115.824 231.364 116.3C230.45 116.767 229.134 117 227.416 117H227.08V115.74ZM229.866 109.23L230.202 108.894C230.641 108.455 230.86 108.236 230.86 108.236C230.86 108.236 231.08 108.455 231.518 108.894L231.854 109.23L230.86 110.224L229.866 109.23ZM233.808 115.74H233.934C234.653 115.74 235.213 115.712 235.614 115.656C236.015 115.591 236.309 115.493 236.496 115.362C236.683 115.231 236.818 115.054 236.902 114.83C236.958 114.662 236.986 114.461 236.986 114.228C236.986 113.929 236.93 113.416 236.818 112.688L237.854 112.492C237.966 113.08 238.027 113.827 238.036 114.732C238.167 115.404 238.591 115.74 239.31 115.74H239.408L239.478 116.37L239.408 117H239.31C238.843 117 238.433 116.865 238.078 116.594C237.733 116.314 237.49 115.959 237.35 115.53L237.63 115.586C237.509 115.941 237.308 116.221 237.028 116.426C236.748 116.631 236.361 116.781 235.866 116.874C235.381 116.958 234.737 117 233.934 117H233.808V115.74ZM233.43 118.946L234.06 118.316L234.998 119.254L234.06 120.206L233.122 119.254L233.43 118.946ZM235.922 118.946L236.552 118.316L237.49 119.254L236.552 120.206L235.614 119.254L235.922 118.946ZM245.591 108.054L241.209 109.958C241.956 110.593 242.614 111.325 243.183 112.156C243.762 112.977 244.051 113.743 244.051 114.452C244.051 114.695 244.009 114.928 243.925 115.152C243.701 115.777 243.22 116.244 242.483 116.552C241.746 116.851 240.789 117 239.613 117H239.263V115.74H239.613C241.844 115.74 242.959 115.278 242.959 114.354C242.959 113.878 242.693 113.295 242.161 112.604C241.638 111.913 240.906 111.185 239.963 110.42L240.117 109.23L245.227 107.018L245.591 108.054ZM251.892 107.256C251.967 107.732 252.023 108.567 252.06 109.762C252.107 110.947 252.13 112.025 252.13 112.996V113.584L252.116 114.074C252.116 114.513 252.153 114.849 252.228 115.082C252.303 115.306 252.443 115.474 252.648 115.586C252.863 115.689 253.18 115.74 253.6 115.74H253.67L253.74 116.37L253.67 117H253.6C252.937 117 252.419 116.893 252.046 116.678C251.673 116.454 251.407 116.123 251.248 115.684C251.099 115.245 251.024 114.667 251.024 113.948C251.024 112.884 251.001 111.68 250.954 110.336C250.917 108.983 250.856 108.035 250.772 107.494L251.892 107.256ZM253.536 115.74H254.264C255.011 115.74 255.548 115.642 255.874 115.446C256.21 115.25 256.378 114.947 256.378 114.536C256.378 114.247 256.285 113.803 256.098 113.206C255.912 112.609 255.758 112.175 255.636 111.904L256.644 111.372C256.822 111.764 257.004 112.282 257.19 112.926C257.377 113.561 257.47 114.102 257.47 114.55C257.461 115.353 257.181 115.964 256.63 116.384C256.08 116.795 255.291 117 254.264 117H253.536V115.74ZM253.578 119.296L253.914 118.96C254.353 118.521 254.572 118.302 254.572 118.302C254.572 118.302 254.792 118.521 255.23 118.96L255.566 119.296L254.572 120.29L253.578 119.296ZM263.364 119.898C264.858 119.571 265.964 119.128 266.682 118.568C267.401 118.017 267.76 117.322 267.76 116.482C267.751 115.931 267.676 115.385 267.536 114.844C267.396 114.303 267.191 113.85 266.92 113.486C266.65 113.113 266.328 112.912 265.954 112.884C265.749 112.875 265.548 112.959 265.352 113.136C265.156 113.313 264.998 113.542 264.876 113.822C264.755 114.102 264.694 114.368 264.694 114.62C264.694 114.825 264.736 114.998 264.82 115.138C264.97 115.362 265.222 115.53 265.576 115.642C265.94 115.754 266.356 115.81 266.822 115.81C267.27 115.81 267.681 115.768 268.054 115.684V116.874C267.653 116.986 267.186 117.042 266.654 117.042C266.038 117.042 265.483 116.949 264.988 116.762C264.494 116.566 264.139 116.258 263.924 115.838C263.775 115.539 263.7 115.189 263.7 114.788C263.7 114.303 263.803 113.817 264.008 113.332C264.223 112.847 264.503 112.445 264.848 112.128C265.203 111.811 265.581 111.652 265.982 111.652C266.533 111.652 267.018 111.895 267.438 112.38C267.858 112.865 268.18 113.477 268.404 114.214C268.628 114.942 268.74 115.661 268.74 116.37C268.74 117.527 268.297 118.512 267.41 119.324C266.533 120.136 265.306 120.701 263.728 121.018L263.364 119.898ZM282.918 114.158C283.086 114.746 283.264 115.157 283.45 115.39C283.646 115.623 283.926 115.74 284.29 115.74H284.374L284.444 116.37L284.374 117H284.29C283.964 117 283.679 116.888 283.436 116.664C283.203 116.431 283.007 116.155 282.848 115.838C282.69 115.511 282.503 115.077 282.288 114.536L282.918 114.158ZM276.66 114.144C276.138 115.245 275.876 116.207 275.876 117.028C275.876 117.915 276.138 118.591 276.66 119.058C277.183 119.525 277.934 119.758 278.914 119.758C279.67 119.758 280.3 119.618 280.804 119.338C281.318 119.067 281.696 118.717 281.938 118.288C282.181 117.868 282.302 117.425 282.302 116.958C282.302 116.183 282.046 115.017 281.532 113.458L282.568 112.982C282.839 113.841 283.04 114.583 283.17 115.208C283.301 115.824 283.366 116.407 283.366 116.958C283.366 117.63 283.189 118.279 282.834 118.904C282.489 119.529 281.98 120.038 281.308 120.43C280.636 120.822 279.838 121.018 278.914 121.018C278.028 121.018 277.272 120.841 276.646 120.486C276.03 120.131 275.564 119.66 275.246 119.072C274.938 118.484 274.784 117.84 274.784 117.14C274.784 116.58 274.878 115.992 275.064 115.376C275.251 114.76 275.466 114.2 275.708 113.696L276.66 114.144ZM278.214 113.192L278.55 112.856C278.989 112.417 279.208 112.198 279.208 112.198C279.208 112.198 279.428 112.417 279.866 112.856L280.202 113.192L279.208 114.186L278.214 113.192ZM284.496 115.74H285.056C286.055 115.74 286.759 115.647 287.17 115.46C287.581 115.264 287.786 114.947 287.786 114.508C287.777 114.219 287.679 113.78 287.492 113.192C287.315 112.595 287.161 112.165 287.03 111.904L288.038 111.372C288.225 111.736 288.407 112.231 288.584 112.856C288.771 113.472 288.864 114.009 288.864 114.466C288.864 115.297 288.561 115.927 287.954 116.356C287.347 116.785 286.433 117 285.21 117H284.496V115.74ZM284.678 118.946L285.308 118.316L286.246 119.254L285.308 120.206L284.37 119.254L284.678 118.946ZM287.17 118.946L287.8 118.316L288.738 119.254L287.8 120.206L286.862 119.254L287.17 118.946ZM284.258 117L284.188 116.37L284.258 115.74H284.622V117H284.258ZM294.634 117C294.056 117 293.608 116.799 293.29 116.398C292.973 115.997 292.707 115.418 292.492 114.662L293.276 114.186C293.416 114.755 293.584 115.157 293.78 115.39C293.986 115.623 294.27 115.74 294.634 115.74H294.732L294.802 116.37L294.732 117H294.634ZM289.44 119.926C290.038 119.721 290.579 119.45 291.064 119.114C291.55 118.778 291.928 118.419 292.198 118.036C292.478 117.653 292.618 117.294 292.618 116.958C292.618 116.482 292.38 115.315 291.904 113.458L292.982 113.052C293.188 113.715 293.356 114.415 293.486 115.152C293.626 115.889 293.696 116.491 293.696 116.958C293.696 117.509 293.533 118.045 293.206 118.568C292.88 119.1 292.427 119.576 291.848 119.996C291.279 120.425 290.635 120.766 289.916 121.018L289.44 119.926ZM294.593 115.74H294.719C295.438 115.74 295.998 115.712 296.399 115.656C296.8 115.591 297.094 115.493 297.281 115.362C297.468 115.231 297.603 115.054 297.687 114.83C297.743 114.662 297.771 114.461 297.771 114.228C297.771 113.929 297.715 113.416 297.603 112.688L298.639 112.492C298.751 113.08 298.812 113.827 298.821 114.732C298.952 115.404 299.376 115.74 300.095 115.74H300.193L300.263 116.37L300.193 117H300.095C299.628 117 299.218 116.865 298.863 116.594C298.518 116.314 298.275 115.959 298.135 115.53L298.415 115.586C298.294 115.941 298.093 116.221 297.813 116.426C297.533 116.631 297.146 116.781 296.651 116.874C296.166 116.958 295.522 117 294.719 117H294.593V115.74ZM295.363 110.07L295.993 109.44L296.931 110.378L295.993 111.33L295.055 110.378L295.363 110.07ZM297.855 110.07L298.485 109.44L299.423 110.378L298.485 111.33L297.547 110.378L297.855 110.07ZM300.062 115.74H300.93C302.087 115.74 302.965 115.586 303.562 115.278C304.169 114.961 304.495 114.517 304.542 113.948C304.57 113.64 304.467 113.309 304.234 112.954C304.001 112.599 303.697 112.301 303.324 112.058C303.053 112.469 302.806 113.066 302.582 113.85C302.358 114.625 302.246 115.39 302.246 116.146C302.246 116.753 302.353 117.285 302.568 117.742C302.783 118.209 303.053 118.563 303.38 118.806C303.707 119.058 304.029 119.184 304.346 119.184C304.598 119.184 304.813 119.109 304.99 118.96C305.102 118.867 305.158 118.722 305.158 118.526C305.158 118.19 305.009 117.807 304.71 117.378C304.421 116.949 304.033 116.594 303.548 116.314L303.772 115.25C304.248 115.427 304.766 115.553 305.326 115.628C305.895 115.703 306.549 115.74 307.286 115.74L307.356 116.37L307.286 117C306.567 117 305.909 116.944 305.312 116.832C304.724 116.72 304.136 116.547 303.548 116.314L303.828 115.53C304.276 115.707 304.677 115.959 305.032 116.286C305.396 116.613 305.676 116.977 305.872 117.378C306.077 117.779 306.18 118.171 306.18 118.554C306.18 119.067 305.993 119.497 305.62 119.842C305.247 120.169 304.803 120.332 304.29 120.332C303.777 120.332 303.277 120.169 302.792 119.842C302.316 119.515 301.929 119.03 301.63 118.386C301.341 117.742 301.21 116.963 301.238 116.048C301.285 114.993 301.448 114.06 301.728 113.248C302.008 112.427 302.297 111.783 302.596 111.316L303.604 110.91C304.183 111.246 304.649 111.694 305.004 112.254C305.359 112.805 305.536 113.369 305.536 113.948C305.536 114.919 305.097 115.67 304.22 116.202C303.352 116.734 302.176 117 300.692 117H300.062V115.74ZM307.117 115.74H307.845C308.591 115.74 309.128 115.642 309.455 115.446C309.791 115.25 309.959 114.947 309.959 114.536C309.959 114.247 309.865 113.803 309.679 113.206C309.492 112.609 309.338 112.175 309.217 111.904L310.225 111.372C310.402 111.764 310.584 112.282 310.771 112.926C310.957 113.561 311.051 114.102 311.051 114.55C311.041 115.353 310.761 115.964 310.211 116.384C309.66 116.795 308.871 117 307.845 117H307.117V115.74ZM307.831 119.282L308.167 118.946C308.605 118.507 308.825 118.288 308.825 118.288C308.825 118.288 309.044 118.507 309.483 118.946L309.819 119.282L308.825 120.276L307.831 119.282ZM316.524 119.926C317.122 119.721 317.663 119.45 318.148 119.114C318.634 118.778 319.012 118.419 319.282 118.036C319.562 117.653 319.702 117.294 319.702 116.958C319.702 116.482 319.464 115.315 318.988 113.458L320.066 113.052C320.272 113.715 320.44 114.415 320.57 115.152C320.71 115.889 320.78 116.491 320.78 116.958C320.78 117.509 320.617 118.045 320.29 118.568C319.964 119.1 319.511 119.576 318.932 119.996C318.363 120.425 317.719 120.766 317 121.018L316.524 119.926ZM318.302 110.658L318.638 110.322C319.077 109.883 319.296 109.664 319.296 109.664C319.296 109.664 319.516 109.883 319.954 110.322L320.29 110.658L319.296 111.652L318.302 110.658ZM322.471 116.916C322.536 116.356 322.569 115.409 322.569 114.074C322.569 112.805 322.541 111.493 322.485 110.14C322.438 108.777 322.382 107.895 322.317 107.494L323.437 107.256C323.493 107.685 323.549 108.623 323.605 110.07C323.67 111.507 323.703 112.875 323.703 114.172C323.703 115.479 323.67 116.44 323.605 117.056L322.471 116.916ZM331.681 107.256C331.756 107.732 331.812 108.567 331.849 109.762C331.896 110.947 331.919 112.025 331.919 112.996V113.584L331.905 114.074C331.905 114.513 331.942 114.849 332.017 115.082C332.092 115.306 332.232 115.474 332.437 115.586C332.652 115.689 332.969 115.74 333.389 115.74H333.459L333.529 116.37L333.459 117H333.389C332.726 117 332.208 116.893 331.835 116.678C331.462 116.454 331.196 116.123 331.037 115.684C330.888 115.245 330.813 114.667 330.813 113.948C330.813 112.884 330.79 111.68 330.743 110.336C330.706 108.983 330.645 108.035 330.561 107.494L331.681 107.256ZM336.014 114.634C336.602 115.035 337.129 115.343 337.596 115.558C338.062 115.773 338.422 115.88 338.674 115.88C338.758 115.88 338.837 115.861 338.912 115.824C339.08 115.74 339.206 115.6 339.29 115.404C339.374 115.208 339.416 114.984 339.416 114.732C339.416 114.275 339.299 113.859 339.066 113.486C338.842 113.113 338.543 112.926 338.17 112.926C337.88 112.926 337.572 113.131 337.246 113.542C336.919 113.943 336.56 114.536 336.168 115.32C335.888 115.871 335.524 116.291 335.076 116.58C334.637 116.86 334.138 117 333.578 117H333.326L333.34 115.74H333.606C333.988 115.74 334.338 115.633 334.656 115.418C334.982 115.194 335.253 114.867 335.468 114.438C335.86 113.645 336.266 113.01 336.686 112.534C337.106 112.058 337.568 111.806 338.072 111.778C338.538 111.75 338.949 111.876 339.304 112.156C339.668 112.427 339.943 112.791 340.13 113.248C340.326 113.696 340.424 114.167 340.424 114.662C340.424 115.157 340.326 115.609 340.13 116.02C339.934 116.421 339.644 116.725 339.262 116.93C339.103 117.023 338.902 117.07 338.66 117.07C337.95 117.07 336.9 116.608 335.51 115.684L336.014 114.634ZM106.291 145.606C106.123 143.59 106.039 141.966 106.039 140.734C106.039 140.463 106.049 140.123 106.067 139.712C106.086 139.301 106.207 138.965 106.431 138.704C106.655 138.443 106.935 138.312 107.271 138.312C107.421 138.312 107.57 138.34 107.719 138.396C108.177 137.565 108.597 136.931 108.979 136.492C109.362 136.044 109.801 135.806 110.295 135.778C111.369 135.722 112.097 136.459 112.479 137.99C112.619 138.597 112.778 139.04 112.955 139.32C113.142 139.6 113.38 139.74 113.669 139.74H113.753L113.823 140.37L113.753 141H113.669C112.969 141 112.507 140.617 112.283 139.852C112.255 140.076 112.162 140.286 112.003 140.482C111.854 140.678 111.686 140.827 111.499 140.93C111.313 141.023 111.121 141.07 110.925 141.07C110.58 141.07 110.141 140.958 109.609 140.734C109.077 140.51 108.382 140.151 107.523 139.656C107.477 139.619 107.411 139.6 107.327 139.6C107.169 139.6 107.085 139.698 107.075 139.894L107.061 140.454C107.061 141.331 107.103 142.297 107.187 143.352C107.271 144.407 107.318 145.018 107.327 145.186L107.383 145.83L106.319 146.054L106.291 145.606ZM111.345 139.908C111.551 139.712 111.653 139.395 111.653 138.956C111.653 138.648 111.597 138.335 111.485 138.018C111.383 137.701 111.233 137.439 111.037 137.234C110.851 137.029 110.636 136.926 110.393 136.926C110.104 136.926 109.819 137.094 109.539 137.43C109.259 137.766 108.951 138.247 108.615 138.872C109.166 139.236 109.661 139.507 110.099 139.684C110.547 139.852 110.897 139.936 111.149 139.936C111.224 139.936 111.289 139.927 111.345 139.908ZM113.612 139.74H113.738C114.456 139.74 115.016 139.712 115.418 139.656C115.819 139.591 116.113 139.493 116.3 139.362C116.486 139.231 116.622 139.054 116.706 138.83C116.762 138.662 116.79 138.461 116.79 138.228C116.79 137.929 116.734 137.416 116.622 136.688L117.658 136.492C117.77 137.08 117.83 137.827 117.84 138.732C117.97 139.404 118.395 139.74 119.114 139.74H119.212L119.282 140.37L119.212 141H119.114C118.647 141 118.236 140.865 117.882 140.594C117.536 140.314 117.294 139.959 117.154 139.53L117.434 139.586C117.312 139.941 117.112 140.221 116.832 140.426C116.552 140.631 116.164 140.781 115.67 140.874C115.184 140.958 114.54 141 113.738 141H113.612V139.74ZM113.234 142.946L113.864 142.316L114.802 143.254L113.864 144.206L112.926 143.254L113.234 142.946ZM115.726 142.946L116.356 142.316L117.294 143.254L116.356 144.206L115.418 143.254L115.726 142.946ZM119.067 139.74H119.179C119.851 139.74 120.364 139.67 120.719 139.53C121.073 139.381 121.311 139.147 121.433 138.83C121.479 138.699 121.503 138.517 121.503 138.284C121.503 138.051 121.465 137.654 121.391 137.094L121.335 136.688L122.357 136.492C122.478 137.08 122.539 137.827 122.539 138.732C122.604 139.059 122.749 139.311 122.973 139.488C123.197 139.656 123.477 139.74 123.813 139.74H123.925L123.995 140.37L123.925 141H123.813C123.346 141 122.935 140.865 122.581 140.594C122.235 140.314 121.993 139.959 121.853 139.53L122.147 139.586C121.969 140.099 121.638 140.463 121.153 140.678C120.677 140.893 120.019 141 119.179 141H119.067V139.74ZM119.865 134.336L120.201 134C120.639 133.561 120.859 133.342 120.859 133.342C120.859 133.342 121.078 133.561 121.517 134L121.853 134.336L120.859 135.33L119.865 134.336ZM127.872 136.408C128.413 137.304 128.852 137.981 129.188 138.438C129.533 138.895 129.86 139.227 130.168 139.432C130.485 139.637 130.84 139.74 131.232 139.74H131.4L131.47 140.37L131.4 141H131.232C130.737 141 130.289 140.869 129.888 140.608C129.486 140.337 129.085 139.931 128.684 139.39C128.292 138.849 127.825 138.097 127.284 137.136L127.872 136.408ZM130.112 132.054L125.73 133.958C126.476 134.593 127.134 135.325 127.704 136.156C128.282 136.977 128.572 137.743 128.572 138.452C128.572 138.695 128.53 138.928 128.446 139.152C128.222 139.777 127.741 140.244 127.004 140.552C126.266 140.851 125.31 141 124.134 141H123.784V139.74H124.134C126.364 139.74 127.48 139.278 127.48 138.354C127.48 137.878 127.214 137.295 126.682 136.604C126.159 135.913 125.426 135.185 124.484 134.42L124.638 133.23L129.748 131.018L130.112 132.054ZM131.262 139.74H131.388C132.107 139.74 132.667 139.712 133.068 139.656C133.469 139.591 133.763 139.493 133.95 139.362C134.137 139.231 134.272 139.054 134.356 138.83C134.412 138.662 134.44 138.461 134.44 138.228C134.44 137.929 134.384 137.416 134.272 136.688L135.308 136.492C135.42 137.08 135.481 137.827 135.49 138.732C135.621 139.404 136.045 139.74 136.764 139.74H136.862L136.932 140.37L136.862 141H136.764C136.297 141 135.887 140.865 135.532 140.594C135.187 140.314 134.944 139.959 134.804 139.53L135.084 139.586C134.963 139.941 134.762 140.221 134.482 140.426C134.202 140.631 133.815 140.781 133.32 140.874C132.835 140.958 132.191 141 131.388 141H131.262V139.74ZM130.884 142.946L131.514 142.316L132.452 143.254L131.514 144.206L130.576 143.254L130.884 142.946ZM133.376 142.946L134.006 142.316L134.944 143.254L134.006 144.206L133.068 143.254L133.376 142.946ZM139.405 138.634C139.993 139.035 140.52 139.343 140.987 139.558C141.454 139.773 141.813 139.88 142.065 139.88C142.149 139.88 142.228 139.861 142.303 139.824C142.471 139.74 142.597 139.6 142.681 139.404C142.765 139.208 142.807 138.984 142.807 138.732C142.807 138.275 142.69 137.859 142.457 137.486C142.233 137.113 141.934 136.926 141.561 136.926C141.272 136.926 140.964 137.131 140.637 137.542C140.31 137.943 139.951 138.536 139.559 139.32C139.279 139.871 138.915 140.291 138.467 140.58C138.028 140.86 137.529 141 136.969 141H136.717L136.731 139.74H136.997C137.38 139.74 137.73 139.633 138.047 139.418C138.374 139.194 138.644 138.867 138.859 138.438C139.251 137.645 139.657 137.01 140.077 136.534C140.497 136.058 140.959 135.806 141.463 135.778C141.93 135.75 142.34 135.876 142.695 136.156C143.059 136.427 143.334 136.791 143.521 137.248C143.717 137.696 143.815 138.167 143.815 138.662C143.815 139.157 143.717 139.609 143.521 140.02C143.325 140.421 143.036 140.725 142.653 140.93C142.494 141.023 142.294 141.07 142.051 141.07C141.342 141.07 140.292 140.608 138.901 139.684L139.405 138.634ZM152.518 136.044C151.435 136.949 150.894 137.803 150.894 138.606C150.894 138.97 151.015 139.259 151.258 139.474C151.501 139.689 151.855 139.796 152.322 139.796C152.761 139.796 153.125 139.698 153.414 139.502C153.703 139.306 153.853 139.045 153.862 138.718C153.89 138.177 153.666 137.649 153.19 137.136C152.723 136.623 151.944 136.035 150.852 135.372L151.482 134.364C152.649 135.045 153.512 135.722 154.072 136.394C154.632 137.066 154.912 137.78 154.912 138.536C154.912 139.021 154.795 139.455 154.562 139.838C154.329 140.221 154.011 140.519 153.61 140.734C153.209 140.939 152.765 141.042 152.28 141.042C151.776 141.042 151.337 140.944 150.964 140.748C150.6 140.543 150.32 140.272 150.124 139.936C149.928 139.591 149.83 139.208 149.83 138.788C149.83 138.564 149.858 138.34 149.914 138.116C150.157 137.145 150.796 136.179 151.832 135.218L152.518 136.044ZM156.279 139.124C156.316 139.143 156.451 139.222 156.685 139.362C156.927 139.493 157.231 139.605 157.595 139.698C157.968 139.791 158.36 139.838 158.771 139.838C159.275 139.838 159.685 139.768 160.003 139.628C160.329 139.479 160.539 139.315 160.633 139.138C160.679 139.026 160.703 138.909 160.703 138.788C160.703 138.349 160.46 137.808 159.975 137.164C159.499 136.511 158.771 135.825 157.791 135.106L158.421 134.014C159.457 134.798 160.264 135.61 160.843 136.45C161.431 137.281 161.725 138.06 161.725 138.788C161.725 139.124 161.664 139.427 161.543 139.698C161.356 140.127 161.02 140.459 160.535 140.692C160.049 140.925 159.494 141.042 158.869 141.042C158.131 141.042 157.501 140.944 156.979 140.748C156.456 140.543 156.041 140.309 155.733 140.048L156.279 139.124ZM164.399 131.256C164.473 131.732 164.529 132.567 164.567 133.762C164.613 134.947 164.637 136.025 164.637 136.996V137.584L164.623 138.074C164.623 138.513 164.66 138.849 164.735 139.082C164.809 139.306 164.949 139.474 165.155 139.586C165.369 139.689 165.687 139.74 166.107 139.74H166.177L166.247 140.37L166.177 141H166.107C165.444 141 164.926 140.893 164.553 140.678C164.179 140.454 163.913 140.123 163.755 139.684C163.605 139.245 163.531 138.667 163.531 137.948C163.531 136.884 163.507 135.68 163.461 134.336C163.423 132.983 163.363 132.035 163.279 131.494L164.399 131.256ZM166.001 139.74H166.337C167.411 139.74 168.26 139.67 168.885 139.53C169.511 139.381 169.963 139.185 170.243 138.942C170.533 138.69 170.724 138.382 170.817 138.018L170.831 137.822C170.831 137.421 170.719 137.071 170.495 136.772C170.271 136.464 169.982 136.31 169.627 136.31C169.282 136.31 168.979 136.459 168.717 136.758C168.465 137.057 168.311 137.416 168.255 137.836C168.227 138.181 168.344 138.499 168.605 138.788C168.876 139.077 169.273 139.311 169.795 139.488C170.318 139.656 170.939 139.74 171.657 139.74H172.889L172.959 140.37L172.889 141H172.049C171.116 141 170.281 140.869 169.543 140.608C168.806 140.337 168.227 139.978 167.807 139.53C167.397 139.073 167.191 138.564 167.191 138.004C167.191 137.948 167.201 137.845 167.219 137.696C167.285 137.211 167.439 136.767 167.681 136.366C167.924 135.955 168.218 135.633 168.563 135.4C168.918 135.157 169.282 135.036 169.655 135.036C170.066 135.036 170.439 135.167 170.775 135.428C171.121 135.689 171.391 136.03 171.587 136.45C171.783 136.87 171.881 137.304 171.881 137.752C171.881 137.827 171.872 137.948 171.853 138.116C171.732 139.096 171.209 139.824 170.285 140.3C169.371 140.767 168.055 141 166.337 141H166.001V139.74ZM168.787 133.23L169.123 132.894C169.562 132.455 169.781 132.236 169.781 132.236C169.781 132.236 170.001 132.455 170.439 132.894L170.775 133.23L169.781 134.224L168.787 133.23ZM172.729 139.74H172.855C173.573 139.74 174.133 139.712 174.535 139.656C174.936 139.591 175.23 139.493 175.417 139.362C175.603 139.231 175.739 139.054 175.823 138.83C175.879 138.662 175.907 138.461 175.907 138.228C175.907 137.929 175.851 137.416 175.739 136.688L176.775 136.492C176.887 137.08 176.947 137.827 176.957 138.732C177.087 139.404 177.512 139.74 178.231 139.74H178.329L178.399 140.37L178.329 141H178.231C177.764 141 177.353 140.865 176.999 140.594C176.653 140.314 176.411 139.959 176.271 139.53L176.551 139.586C176.429 139.941 176.229 140.221 175.949 140.426C175.669 140.631 175.281 140.781 174.787 140.874C174.301 140.958 173.657 141 172.855 141H172.729V139.74ZM173.499 134.07L174.129 133.44L175.067 134.378L174.129 135.33L173.191 134.378L173.499 134.07ZM175.991 134.07L176.621 133.44L177.559 134.378L176.621 135.33L175.683 134.378L175.991 134.07ZM186.024 139.74C186.724 139.74 187.074 139.353 187.074 138.578C187.074 138.261 186.981 137.817 186.794 137.248C186.617 136.669 186.458 136.231 186.318 135.932L187.312 135.386C187.499 135.778 187.685 136.291 187.872 136.926C188.059 137.551 188.152 138.102 188.152 138.578C188.152 139.035 188.059 139.451 187.872 139.824C187.695 140.188 187.443 140.477 187.116 140.692C186.799 140.897 186.435 141 186.024 141H185.996V139.74H186.024ZM182.216 141V139.74H182.258C182.781 139.74 183.229 139.413 183.602 138.76C183.723 138.536 183.817 138.27 183.882 137.962C183.957 137.654 184.027 137.313 184.092 136.94L185.128 136.996C185.119 137.033 185.086 137.206 185.03 137.514C184.974 137.822 184.946 138.121 184.946 138.41C184.946 138.858 185.03 139.194 185.198 139.418C185.375 139.633 185.651 139.74 186.024 139.74H186.052L186.122 140.37L186.052 141H186.024C185.483 141 185.049 140.841 184.722 140.524C184.405 140.197 184.213 139.745 184.148 139.166L184.372 139.152C184.176 139.684 183.887 140.127 183.504 140.482C183.131 140.827 182.711 141 182.244 141H182.216ZM178.212 141L178.142 140.37L178.212 139.74H178.282C178.627 139.74 178.954 139.661 179.262 139.502C179.57 139.343 179.808 139.133 179.976 138.872C180.153 138.62 180.289 138.354 180.382 138.074C180.485 137.794 180.587 137.463 180.69 137.08L181.74 137.192C181.721 137.248 181.684 137.388 181.628 137.612C181.572 137.836 181.525 138.046 181.488 138.242C181.46 138.438 181.446 138.615 181.446 138.774C181.446 139.418 181.707 139.74 182.23 139.74H182.258L182.328 140.37L182.258 141H182.216C181.787 141 181.427 140.874 181.138 140.622C180.858 140.361 180.69 140.011 180.634 139.572C180.345 140.039 179.999 140.393 179.598 140.636C179.197 140.879 178.753 141 178.268 141H178.212ZM189.765 140.916C189.83 140.356 189.863 139.409 189.863 138.074C189.863 136.805 189.835 135.493 189.779 134.14C189.732 132.777 189.676 131.895 189.611 131.494L190.731 131.256C190.787 131.685 190.843 132.623 190.899 134.07C190.964 135.507 190.997 136.875 190.997 138.172C190.997 139.479 190.964 140.44 190.899 141.056L189.765 140.916ZM197.841 139.124C197.878 139.143 198.014 139.222 198.247 139.362C198.49 139.493 198.793 139.605 199.157 139.698C199.53 139.791 199.922 139.838 200.333 139.838C200.837 139.838 201.248 139.768 201.565 139.628C201.892 139.479 202.102 139.315 202.195 139.138C202.242 139.026 202.265 138.909 202.265 138.788C202.265 138.349 202.022 137.808 201.537 137.164C201.061 136.511 200.333 135.825 199.353 135.106L199.983 134.014C201.019 134.798 201.826 135.61 202.405 136.45C202.993 137.281 203.287 138.06 203.287 138.788C203.287 139.124 203.226 139.427 203.105 139.698C202.918 140.127 202.582 140.459 202.097 140.692C201.612 140.925 201.056 141.042 200.431 141.042C199.694 141.042 199.064 140.944 198.541 140.748C198.018 140.543 197.603 140.309 197.295 140.048L197.841 139.124ZM204.281 143.898C205.775 143.571 206.881 143.128 207.599 142.568C208.318 142.017 208.677 141.322 208.677 140.482C208.677 139.941 208.607 139.399 208.467 138.858C208.327 138.307 208.117 137.85 207.837 137.486C207.567 137.113 207.245 136.912 206.871 136.884C206.666 136.875 206.465 136.959 206.269 137.136C206.073 137.313 205.915 137.542 205.793 137.822C205.672 138.102 205.611 138.368 205.611 138.62C205.611 138.825 205.653 138.998 205.737 139.138C205.887 139.381 206.237 139.544 206.787 139.628C207.338 139.703 208.047 139.74 208.915 139.74H210.147L210.217 140.37L210.147 141L208.453 141.014C207.501 141.014 206.722 140.935 206.115 140.776C205.509 140.617 205.084 140.305 204.841 139.838C204.692 139.539 204.617 139.189 204.617 138.788C204.617 138.303 204.72 137.817 204.925 137.332C205.14 136.847 205.42 136.445 205.765 136.128C206.12 135.811 206.498 135.652 206.899 135.652C207.45 135.652 207.935 135.895 208.355 136.38C208.775 136.865 209.097 137.477 209.321 138.214C209.545 138.942 209.657 139.661 209.657 140.37C209.657 141.527 209.214 142.512 208.327 143.324C207.45 144.136 206.223 144.701 204.645 145.018L204.281 143.898ZM209.957 139.74H211.245C212.412 139.74 213.499 139.6 214.507 139.32C215.524 139.031 216.542 138.615 217.559 138.074C218.128 137.766 218.688 137.533 219.239 137.374L219.281 137.878C218.749 137.878 218.24 137.817 217.755 137.696C217.279 137.575 216.784 137.383 216.271 137.122C215.823 136.889 215.422 136.711 215.067 136.59C214.712 136.469 214.362 136.408 214.017 136.408C213.625 136.408 213.27 136.525 212.953 136.758C212.636 136.991 212.398 137.267 212.239 137.584L211.483 137.066C211.782 136.459 212.15 136.002 212.589 135.694C213.028 135.377 213.518 135.218 214.059 135.218C214.451 135.218 214.815 135.283 215.151 135.414C215.496 135.545 216.005 135.778 216.677 136.114C217.302 136.431 217.792 136.669 218.147 136.828C218.511 136.977 218.922 137.099 219.379 137.192L219.421 138.298C219.234 138.354 219.038 138.429 218.833 138.522C218.637 138.615 218.352 138.765 217.979 138.97C216.719 139.633 215.576 140.137 214.549 140.482C213.532 140.827 212.43 141 211.245 141H209.957V139.74ZM212.939 133.034L213.275 132.698C213.714 132.259 213.933 132.04 213.933 132.04C213.933 132.04 214.152 132.259 214.591 132.698L214.927 133.034L213.933 134.028L212.939 133.034ZM230.478 141.14C230.469 141 230.464 140.79 230.464 140.51C230.464 140.23 230.469 140.02 230.478 139.88C231.337 139.88 232.079 139.819 232.704 139.698C233.33 139.567 233.806 139.413 234.132 139.236C234.468 139.049 234.655 138.877 234.692 138.718C234.655 138.345 234.543 137.869 234.356 137.29C234.179 136.702 234.025 136.245 233.894 135.918L234.902 135.372C235.089 135.82 235.271 136.375 235.448 137.038C235.635 137.701 235.728 138.233 235.728 138.634C235.728 139.147 235.504 139.595 235.056 139.978C234.608 140.351 233.983 140.641 233.18 140.846C232.387 141.042 231.486 141.14 230.478 141.14ZM226.768 136.282C226.507 137.01 226.376 137.584 226.376 138.004C226.376 138.135 226.381 138.233 226.39 138.298C226.465 138.802 226.852 139.194 227.552 139.474C228.252 139.745 229.265 139.88 230.59 139.88C230.609 140.039 230.618 140.272 230.618 140.58C230.618 140.832 230.614 141.019 230.604 141.14C228.98 141.149 227.711 140.925 226.796 140.468C225.891 140.001 225.396 139.339 225.312 138.48C225.303 138.405 225.298 138.298 225.298 138.158C225.298 137.766 225.345 137.36 225.438 136.94C225.541 136.511 225.667 136.133 225.816 135.806L226.768 136.282ZM228.602 135.792L229.232 135.162L230.17 136.1L229.232 137.052L228.294 136.1L228.602 135.792ZM231.094 135.792L231.724 135.162L232.662 136.1L231.724 137.052L230.786 136.1L231.094 135.792ZM238.391 131.256C238.466 131.732 238.522 132.567 238.559 133.762C238.606 134.947 238.629 136.025 238.629 136.996V137.584L238.615 138.074C238.615 138.513 238.652 138.849 238.727 139.082C238.802 139.306 238.942 139.474 239.147 139.586C239.362 139.689 239.679 139.74 240.099 139.74H240.169L240.239 140.37L240.169 141H240.099C239.436 141 238.918 140.893 238.545 140.678C238.172 140.454 237.906 140.123 237.747 139.684C237.598 139.245 237.523 138.667 237.523 137.948C237.523 136.884 237.5 135.68 237.453 134.336C237.416 132.983 237.355 132.035 237.271 131.494L238.391 131.256ZM242.723 138.634C243.311 139.035 243.839 139.343 244.305 139.558C244.772 139.773 245.131 139.88 245.383 139.88C245.467 139.88 245.547 139.861 245.621 139.824C245.789 139.74 245.915 139.6 245.999 139.404C246.083 139.208 246.125 138.984 246.125 138.732C246.125 138.275 246.009 137.859 245.775 137.486C245.551 137.113 245.253 136.926 244.879 136.926C244.59 136.926 244.282 137.131 243.955 137.542C243.629 137.943 243.269 138.536 242.877 139.32C242.597 139.871 242.233 140.291 241.785 140.58C241.347 140.86 240.847 141 240.287 141H240.035L240.049 139.74H240.315C240.698 139.74 241.048 139.633 241.365 139.418C241.692 139.194 241.963 138.867 242.177 138.438C242.569 137.645 242.975 137.01 243.395 136.534C243.815 136.058 244.277 135.806 244.781 135.778C245.248 135.75 245.659 135.876 246.013 136.156C246.377 136.427 246.653 136.791 246.839 137.248C247.035 137.696 247.133 138.167 247.133 138.662C247.133 139.157 247.035 139.609 246.839 140.02C246.643 140.421 246.354 140.725 245.971 140.93C245.813 141.023 245.612 141.07 245.369 141.07C244.66 141.07 243.61 140.608 242.219 139.684L242.723 138.634ZM252.132 133.986L254.05 138.522C254.236 138.979 254.446 139.297 254.68 139.474C254.922 139.651 255.249 139.74 255.66 139.74H255.814L255.884 140.37L255.814 141H255.66C255.072 141 254.568 140.851 254.148 140.552C253.728 140.244 253.373 139.759 253.084 139.096L251.124 134.518L252.132 133.986ZM248.646 139.124C249.01 139.339 249.36 139.516 249.696 139.656C250.032 139.787 250.433 139.852 250.9 139.852C251.478 139.852 251.964 139.763 252.356 139.586C252.748 139.399 253.13 139.171 253.504 138.9L254.064 139.698C253.802 139.941 253.555 140.151 253.322 140.328C253.088 140.505 252.771 140.673 252.37 140.832C251.968 140.981 251.511 141.056 250.998 141.056C250.363 141.056 249.817 140.958 249.36 140.762C248.902 140.566 248.482 140.328 248.1 140.048L248.646 139.124ZM255.662 139.74H256.95C258.117 139.74 259.204 139.6 260.212 139.32C261.229 139.031 262.247 138.615 263.264 138.074C263.833 137.766 264.393 137.533 264.944 137.374L264.986 137.878C264.454 137.878 263.945 137.817 263.46 137.696C262.984 137.575 262.489 137.383 261.976 137.122C261.528 136.889 261.127 136.711 260.772 136.59C260.417 136.469 260.067 136.408 259.722 136.408C259.33 136.408 258.975 136.525 258.658 136.758C258.341 136.991 258.103 137.267 257.944 137.584L257.188 137.066C257.487 136.459 257.855 136.002 258.294 135.694C258.733 135.377 259.223 135.218 259.764 135.218C260.156 135.218 260.52 135.283 260.856 135.414C261.201 135.545 261.71 135.778 262.382 136.114C263.007 136.431 263.497 136.669 263.852 136.828C264.216 136.977 264.627 137.099 265.084 137.192L265.126 138.298C264.939 138.354 264.743 138.429 264.538 138.522C264.342 138.615 264.057 138.765 263.684 138.97C262.424 139.633 261.281 140.137 260.254 140.482C259.237 140.827 258.135 141 256.95 141H255.662V139.74ZM258.644 133.034L258.98 132.698C259.419 132.259 259.638 132.04 259.638 132.04C259.638 132.04 259.857 132.259 260.296 132.698L260.632 133.034L259.638 134.028L258.644 133.034Z" fill="#8F8F8F"/>
<rect x="157" y="7" width="57" height="57" rx="28.5" fill="#F1F6FE"/>
<path d="M193.018 50.6159C192.267 50.6159 191.304 50.3751 190.1 49.6668L185.864 47.1593C185.425 46.9043 184.575 46.9043 184.15 47.1593L179.9 49.6668C177.392 51.1543 175.919 50.5593 175.253 50.0776C174.602 49.596 173.582 48.3635 174.247 45.5301L175.253 41.181C175.367 40.7276 175.14 39.9485 174.8 39.6084L171.287 36.0951C169.53 34.3385 169.672 32.8368 169.912 32.1001C170.153 31.3635 170.918 30.0601 173.355 29.6493L177.874 28.8984C178.299 28.8276 178.908 28.3743 179.092 27.9918L181.6 22.991C182.733 20.7101 184.221 20.3701 185 20.3701C185.779 20.3701 187.267 20.7101 188.4 22.991L190.893 27.9776C191.092 28.3601 191.701 28.8134 192.126 28.8843L196.645 29.6351C199.096 30.0459 199.861 31.3493 200.087 32.086C200.314 32.8226 200.456 34.3243 198.713 36.081L195.2 39.6084C194.86 39.9485 194.647 40.7135 194.747 41.181L195.752 45.5301C196.404 48.3635 195.398 49.596 194.747 50.0776C194.392 50.3326 193.826 50.6159 193.018 50.6159ZM185 44.836C185.694 44.836 186.388 45.006 186.941 45.3318L191.177 47.8393C192.409 48.5759 193.188 48.576 193.486 48.3635C193.783 48.1509 193.996 47.4001 193.684 46.0118L192.678 41.6626C192.409 40.4868 192.848 38.971 193.698 38.1068L197.212 34.5934C197.906 33.8993 198.217 33.2193 198.076 32.7518C197.92 32.2843 197.268 31.9018 196.305 31.746L191.786 30.9951C190.695 30.8109 189.505 29.9326 189.009 28.9409L186.516 23.9543C186.062 23.0476 185.496 22.5093 185 22.5093C184.504 22.5093 183.937 23.0476 183.498 23.9543L180.991 28.9409C180.495 29.9326 179.305 30.8109 178.214 30.9951L173.709 31.746C172.746 31.9018 172.094 32.2843 171.938 32.7518C171.782 33.2193 172.108 33.9135 172.802 34.5934L176.316 38.1068C177.166 38.9568 177.605 40.4868 177.336 41.6626L176.33 46.0118C176.004 47.4143 176.231 48.1509 176.528 48.3635C176.826 48.576 177.591 48.5618 178.837 47.8393L183.073 45.3318C183.612 45.006 184.306 44.836 185 44.836Z" fill="#4BB09C"/>
</g>
<defs>
<filter id="filter0_d_1211_11738" x="0" y="0" width="370" height="179" filterUnits="userSpaceOnUse" color-interpolation-filters="sRGB">
<feFlood flood-opacity="0" result="BackgroundImageFix"/>
<feColorMatrix in="SourceAlpha" type="matrix" values="0 0 0 0 0 0 0 0 0 0 0 0 0 0 0 0 0 0 127 0" result="hardAlpha"/>
<feOffset/>
<feGaussianBlur stdDeviation="3.5"/>
<feComposite in2="hardAlpha" operator="out"/>
<feColorMatrix type="matrix" values="0 0 0 0 0 0 0 0 0 0 0 0 0 0 0 0 0 0 0.1 0"/>
<feBlend mode="normal" in2="BackgroundImageFix" result="effect1_dropShadow_1211_11738"/>
<feBlend mode="normal" in="SourceGraphic" in2="effect1_dropShadow_1211_11738" result="shape"/>
</filter>
</defs>
</svg>
