<svg width="370" height="179" viewBox="0 0 370 179" fill="none" xmlns="http://www.w3.org/2000/svg">
<g filter="url(#filter0_d_1211_11739)">
<path d="M7 64C7 55.5992 7 51.3988 8.6349 48.1901C10.073 45.3677 12.3677 43.073 15.1901 41.6349C18.3988 40 22.5992 40 31 40H339C347.401 40 351.601 40 354.81 41.6349C357.632 43.073 359.927 45.3677 361.365 48.1901C363 51.3988 363 55.5992 363 64V148C363 156.401 363 160.601 361.365 163.81C359.927 166.632 357.632 168.927 354.81 170.365C351.601 172 347.401 172 339 172H7V64Z" fill="white" shape-rendering="crispEdges"/>
<path d="M140.572 80.832C140.248 80.904 139.93 80.94 139.618 80.94C138.958 80.94 138.352 80.79 137.8 80.49C137.26 80.19 136.834 79.776 136.522 79.248C136.21 78.708 136.054 78.096 136.054 77.412C136.054 76.788 136.204 76.2 136.504 75.648C136.804 75.096 137.212 74.64 137.728 74.28C138.256 73.908 138.832 73.686 139.456 73.614C139.528 73.602 139.63 73.596 139.762 73.596C140.29 73.596 140.83 73.71 141.382 73.938C141.934 74.166 142.444 74.472 142.912 74.856L142.21 76.206C141.838 76.002 141.448 75.846 141.04 75.738C140.644 75.618 140.266 75.558 139.906 75.558C139.45 75.558 139.048 75.648 138.7 75.828C138.352 76.008 138.082 76.242 137.89 76.53C137.698 76.818 137.602 77.118 137.602 77.43C137.602 77.754 137.71 78.066 137.926 78.366C138.142 78.654 138.43 78.888 138.79 79.068C139.162 79.248 139.564 79.338 139.996 79.338C140.188 79.338 140.416 79.308 140.68 79.248L140.572 80.832ZM146.584 89.364C146.44 89.46 146.146 89.604 145.702 89.796C145.27 89.988 144.658 90.174 143.866 90.354C143.074 90.546 142.186 90.642 141.202 90.642C140.05 90.642 139.012 90.42 138.088 89.976C137.164 89.544 136.444 88.926 135.928 88.122C135.424 87.318 135.202 86.388 135.262 85.332C135.358 83.916 135.862 82.734 136.774 81.786C137.686 80.838 138.688 80.124 139.78 79.644C140.872 79.152 142.012 78.738 143.2 78.402L143.578 80.166C141.562 80.742 139.966 81.474 138.79 82.362C137.614 83.25 136.966 84.282 136.846 85.458C136.822 86.07 137.008 86.616 137.404 87.096C137.8 87.588 138.358 87.972 139.078 88.248C139.81 88.524 140.644 88.662 141.58 88.662C142.276 88.662 142.942 88.602 143.578 88.482C144.214 88.362 144.742 88.23 145.162 88.086C145.582 87.954 145.822 87.87 145.882 87.834L146.584 89.364ZM147.579 87.456C149.547 87.036 150.993 86.478 151.917 85.782C152.841 85.098 153.303 84.234 153.303 83.19C153.303 82.506 153.213 81.822 153.033 81.138C152.853 80.454 152.589 79.884 152.241 79.428C151.905 78.96 151.509 78.702 151.053 78.654C150.789 78.618 150.531 78.708 150.279 78.924C150.039 79.128 149.841 79.398 149.685 79.734C149.541 80.07 149.469 80.394 149.469 80.706C149.469 80.958 149.517 81.156 149.613 81.3C149.805 81.588 150.243 81.78 150.927 81.876C151.623 81.972 152.523 82.02 153.627 82.02H155.391L155.499 83.01L155.391 84L153.177 84.018C151.869 84.018 150.807 83.916 149.991 83.712C149.187 83.496 148.623 83.058 148.299 82.398C148.095 81.966 147.993 81.492 147.993 80.976C147.993 80.328 148.131 79.68 148.407 79.032C148.695 78.384 149.073 77.85 149.541 77.43C150.021 77.01 150.537 76.8 151.089 76.8C151.797 76.8 152.427 77.112 152.979 77.736C153.543 78.348 153.975 79.14 154.275 80.112C154.587 81.072 154.743 82.038 154.743 83.01C154.743 84.57 154.161 85.89 152.997 86.97C151.845 88.05 150.237 88.794 148.173 89.202L147.579 87.456ZM155.158 82.02H155.302C156.178 82.02 156.832 81.93 157.264 81.75C157.708 81.558 157.996 81.252 158.128 80.832C158.176 80.676 158.2 80.466 158.2 80.202C158.2 79.818 158.128 79.182 157.984 78.294L159.478 77.988C159.646 78.792 159.73 79.764 159.73 80.904C159.79 81.252 159.952 81.528 160.216 81.732C160.492 81.924 160.84 82.02 161.26 82.02H161.386L161.494 83.01L161.386 84H161.26C160.672 84 160.15 83.832 159.694 83.496C159.25 83.16 158.92 82.728 158.704 82.2L159.118 82.272C158.854 82.896 158.41 83.34 157.786 83.604C157.162 83.868 156.334 84 155.302 84H155.158V82.02ZM156.076 75.162C156.544 74.67 157.012 74.202 157.48 73.758C157.948 74.202 158.416 74.67 158.884 75.162L157.48 76.566L156.076 75.162ZM161.205 82.02H161.349C162.285 82.02 163.011 81.978 163.527 81.894C164.043 81.81 164.415 81.69 164.643 81.534C164.883 81.366 165.045 81.132 165.129 80.832C165.177 80.676 165.201 80.454 165.201 80.166C165.201 79.842 165.171 79.476 165.111 79.068C165.051 78.648 165.015 78.39 165.003 78.294L166.497 77.988C166.665 78.792 166.749 79.764 166.749 80.904C166.809 81.252 166.965 81.528 167.217 81.732C167.481 81.924 167.835 82.02 168.279 82.02H168.405L168.513 83.01L168.405 84H168.279C167.691 84 167.169 83.832 166.713 83.496C166.269 83.16 165.939 82.728 165.723 82.2L166.119 82.272C165.855 82.908 165.369 83.358 164.661 83.622C163.953 83.874 162.849 84 161.349 84H161.205V82.02ZM162.015 74.82C162.591 74.244 162.879 73.956 162.879 73.956L164.193 75.252C163.761 75.696 163.323 76.134 162.879 76.566L161.583 75.252L162.015 74.82ZM165.183 74.82C165.759 74.244 166.047 73.956 166.047 73.956L167.361 75.252C166.929 75.696 166.491 76.134 166.047 76.566L164.751 75.252L165.183 74.82ZM171.747 80.634C172.491 81.138 173.163 81.534 173.763 81.822C174.363 82.11 174.825 82.254 175.149 82.254C175.245 82.254 175.341 82.23 175.437 82.182C175.617 82.086 175.755 81.93 175.851 81.714C175.947 81.486 175.995 81.228 175.995 80.94C175.995 80.388 175.851 79.884 175.563 79.428C175.275 78.972 174.903 78.744 174.447 78.744C174.087 78.744 173.703 78.99 173.295 79.482C172.899 79.974 172.461 80.73 171.981 81.75C171.621 82.494 171.147 83.058 170.559 83.442C169.971 83.814 169.299 84 168.543 84H168.219L168.255 82.02H168.579C169.059 82.02 169.503 81.882 169.911 81.606C170.319 81.33 170.667 80.91 170.955 80.346C171.483 79.314 172.017 78.498 172.557 77.898C173.097 77.298 173.685 76.98 174.321 76.944C174.957 76.908 175.509 77.076 175.977 77.448C176.457 77.82 176.823 78.312 177.075 78.924C177.327 79.536 177.453 80.178 177.453 80.85C177.453 81.51 177.327 82.116 177.075 82.668C176.823 83.208 176.451 83.616 175.959 83.892C175.719 84.024 175.443 84.09 175.131 84.09C174.183 84.09 172.797 83.484 170.973 82.272L171.747 80.634ZM191.177 84.18C191.153 83.748 191.141 83.424 191.141 83.208C191.141 82.98 191.153 82.65 191.177 82.218C192.281 82.218 193.229 82.146 194.021 82.002C194.813 81.846 195.419 81.666 195.839 81.462C196.259 81.258 196.487 81.072 196.523 80.904C196.439 80.16 196.091 78.966 195.479 77.322L196.973 76.512C197.225 77.1 197.465 77.82 197.693 78.672C197.921 79.524 198.035 80.232 198.035 80.796C198.035 81.504 197.741 82.116 197.153 82.632C196.565 83.136 195.749 83.52 194.705 83.784C193.673 84.048 192.497 84.18 191.177 84.18ZM186.515 77.826C186.179 78.774 186.011 79.512 186.011 80.04C186.011 80.172 186.017 80.274 186.029 80.346C186.125 80.934 186.617 81.396 187.505 81.732C188.405 82.056 189.683 82.218 191.339 82.218C191.363 82.698 191.375 83.058 191.375 83.298C191.375 83.502 191.363 83.796 191.339 84.18C189.227 84.192 187.577 83.898 186.389 83.298C185.201 82.686 184.553 81.804 184.445 80.652C184.433 80.556 184.427 80.418 184.427 80.238C184.427 79.746 184.493 79.224 184.625 78.672C184.757 78.108 184.919 77.598 185.111 77.142L186.515 77.826ZM188.747 76.908C189.323 76.332 189.611 76.044 189.611 76.044L190.925 77.34C190.493 77.784 190.055 78.222 189.611 78.654L188.315 77.34L188.747 76.908ZM191.915 76.908C192.491 76.332 192.779 76.044 192.779 76.044L194.093 77.34C193.661 77.784 193.223 78.222 192.779 78.654L191.483 77.34L191.915 76.908ZM201.58 71.202C201.676 71.886 201.754 72.978 201.814 74.478C201.874 75.966 201.904 77.352 201.904 78.636V79.428C201.892 80.148 201.922 80.682 201.994 81.03C202.066 81.378 202.228 81.63 202.48 81.786C202.732 81.942 203.134 82.02 203.686 82.02H203.776L203.884 83.01L203.776 84H203.686C202.414 84 201.52 83.67 201.004 83.01C200.5 82.338 200.248 81.276 200.248 79.824C200.248 78.504 200.212 77.004 200.14 75.324C200.08 73.632 199.99 72.384 199.87 71.58L201.58 71.202ZM207.131 80.634C207.875 81.138 208.547 81.534 209.147 81.822C209.747 82.11 210.209 82.254 210.533 82.254C210.629 82.254 210.725 82.23 210.821 82.182C211.001 82.086 211.139 81.93 211.235 81.714C211.331 81.486 211.379 81.228 211.379 80.94C211.379 80.388 211.235 79.884 210.947 79.428C210.659 78.972 210.287 78.744 209.831 78.744C209.471 78.744 209.087 78.99 208.679 79.482C208.283 79.974 207.845 80.73 207.365 81.75C207.005 82.494 206.531 83.058 205.943 83.442C205.355 83.814 204.683 84 203.927 84H203.603L203.639 82.02H203.963C204.443 82.02 204.887 81.882 205.295 81.606C205.703 81.33 206.051 80.91 206.339 80.346C206.867 79.314 207.401 78.498 207.941 77.898C208.481 77.298 209.069 76.98 209.705 76.944C210.341 76.908 210.893 77.076 211.361 77.448C211.841 77.82 212.207 78.312 212.459 78.924C212.711 79.536 212.837 80.178 212.837 80.85C212.837 81.51 212.711 82.116 212.459 82.668C212.207 83.208 211.835 83.616 211.343 83.892C211.103 84.024 210.827 84.09 210.515 84.09C209.567 84.09 208.181 83.484 206.357 82.272L207.131 80.634ZM219.423 74.73L221.889 80.562C222.117 81.114 222.375 81.498 222.663 81.714C222.951 81.918 223.347 82.02 223.851 82.02H224.049L224.157 83.01L224.049 84H223.851C223.071 84 222.411 83.796 221.871 83.388C221.331 82.968 220.863 82.314 220.467 81.426L217.929 75.522L219.423 74.73ZM214.851 81.318C215.319 81.582 215.763 81.798 216.183 81.966C216.615 82.122 217.137 82.2 217.749 82.2C218.949 82.2 220.023 81.804 220.971 81.012L221.853 82.218C221.541 82.542 221.241 82.824 220.953 83.064C220.665 83.304 220.257 83.532 219.729 83.748C219.213 83.964 218.607 84.072 217.911 84.072C217.059 84.072 216.327 83.94 215.715 83.676C215.103 83.412 214.551 83.1 214.059 82.74L214.851 81.318ZM223.853 82.02H225.401C226.877 82.02 228.257 81.846 229.541 81.498C230.825 81.15 232.133 80.622 233.465 79.914C233.837 79.71 234.227 79.524 234.635 79.356C235.043 79.176 235.379 79.05 235.643 78.978L235.697 80.04C235.037 80.028 234.401 79.938 233.789 79.77C233.189 79.59 232.529 79.32 231.809 78.96C230.693 78.372 229.751 78.078 228.983 78.078C228.491 78.078 228.047 78.222 227.651 78.51C227.255 78.798 226.961 79.128 226.769 79.5L225.617 78.69C226.025 77.874 226.517 77.256 227.093 76.836C227.669 76.416 228.311 76.206 229.019 76.206C229.535 76.206 230.021 76.296 230.477 76.476C230.945 76.644 231.599 76.944 232.439 77.376C233.219 77.772 233.843 78.066 234.311 78.258C234.779 78.45 235.301 78.606 235.877 78.726L235.949 80.472C235.721 80.532 235.433 80.652 235.085 80.832C234.737 81 234.359 81.198 233.951 81.426C232.307 82.302 230.831 82.95 229.523 83.37C228.227 83.79 226.793 84 225.221 84H223.853V82.02ZM227.579 73.362C228.047 72.87 228.515 72.402 228.983 71.958C229.451 72.402 229.919 72.87 230.387 73.362L228.983 74.766L227.579 73.362Z" fill="#393939"/>
<path d="M23.3572 117.14C23.3479 117 23.3432 116.79 23.3432 116.51C23.3432 116.23 23.3479 116.02 23.3572 115.88C24.4959 115.88 25.4245 115.787 26.1432 115.6C26.8619 115.404 27.4265 115.105 27.8372 114.704C28.2572 114.293 28.5792 113.752 28.8032 113.08L29.8392 113.192C29.6805 113.715 29.6012 114.153 29.6012 114.508C29.6012 115.329 30.0025 115.74 30.8052 115.74L30.8752 116.37L30.8052 117C30.1799 117 29.6665 116.804 29.2652 116.412C28.8732 116.02 28.6772 115.493 28.6772 114.83H28.9572C28.4439 115.642 27.7252 116.23 26.8012 116.594C25.8865 116.958 24.7385 117.14 23.3572 117.14ZM19.6052 112.282C19.3439 113.01 19.2132 113.584 19.2132 114.004C19.2132 114.135 19.2179 114.233 19.2272 114.298C19.3019 114.802 19.6892 115.194 20.3892 115.474C21.0892 115.745 22.1019 115.88 23.4272 115.88C23.4459 116.039 23.4552 116.272 23.4552 116.58C23.4552 116.832 23.4505 117.019 23.4412 117.14C21.8172 117.149 20.5479 116.925 19.6332 116.468C18.7279 116.001 18.2332 115.339 18.1492 114.48C18.1399 114.405 18.1352 114.298 18.1352 114.158C18.1352 113.766 18.1819 113.36 18.2752 112.94C18.3779 112.511 18.5039 112.133 18.6532 111.806L19.6052 112.282ZM21.8172 111.764L22.4472 111.134L23.3852 112.072L22.4472 113.024L21.5092 112.072L21.8172 111.764ZM24.3092 111.764L24.9392 111.134L25.8772 112.072L24.9392 113.024L24.0012 112.072L24.3092 111.764ZM30.6712 115.74H30.7832C31.4552 115.74 31.9685 115.67 32.3232 115.53C32.6779 115.381 32.9159 115.147 33.0372 114.83C33.0839 114.699 33.1072 114.517 33.1072 114.284C33.1072 114.051 33.0699 113.654 32.9952 113.094L32.9392 112.688L33.9612 112.492C34.0825 113.08 34.1432 113.827 34.1432 114.732C34.2085 115.059 34.3532 115.311 34.5772 115.488C34.8012 115.656 35.0812 115.74 35.4172 115.74H35.5292L35.5992 116.37L35.5292 117H35.4172C34.9505 117 34.5399 116.865 34.1852 116.594C33.8399 116.314 33.5972 115.959 33.4572 115.53L33.7512 115.586C33.5739 116.099 33.2425 116.463 32.7572 116.678C32.2812 116.893 31.6232 117 30.7832 117H30.6712V115.74ZM30.5592 119.296L30.8952 118.96C31.3339 118.521 31.5532 118.302 31.5532 118.302C31.5532 118.302 31.7725 118.521 32.2112 118.96L32.5472 119.296L31.5532 120.29L30.5592 119.296ZM35.374 115.74H35.542C36.9793 115.74 38.076 115.614 38.832 115.362C39.588 115.101 40.0453 114.676 40.204 114.088C40.204 113.603 40.134 113.103 39.994 112.59C39.8633 112.067 39.6627 111.633 39.392 111.288C39.1307 110.933 38.818 110.756 38.454 110.756C38.23 110.756 38.02 110.831 37.824 110.98C37.6373 111.129 37.488 111.325 37.376 111.568C37.264 111.801 37.208 112.035 37.208 112.268C37.208 112.455 37.25 112.627 37.334 112.786C37.474 113.019 37.7353 113.201 38.118 113.332C38.51 113.463 38.9487 113.528 39.434 113.528C39.7887 113.528 40.1153 113.495 40.414 113.43V114.606C39.994 114.681 39.588 114.718 39.196 114.718C38.5707 114.718 38.0153 114.62 37.53 114.424C37.0447 114.228 36.6947 113.929 36.48 113.528C36.3027 113.183 36.214 112.795 36.214 112.366C36.214 111.909 36.312 111.461 36.508 111.022C36.7133 110.583 36.9933 110.224 37.348 109.944C37.7027 109.664 38.09 109.524 38.51 109.524C39.0233 109.524 39.476 109.72 39.868 110.112C40.2693 110.504 40.5727 111.013 40.778 111.638C40.9927 112.254 41.1 112.884 41.1 113.528C41.1 113.649 41.0907 113.822 41.072 114.046C40.988 114.998 40.4793 115.731 39.546 116.244C38.6127 116.748 37.278 117 35.542 117H35.374V115.74ZM36.732 107.256L37.362 106.626L38.3 107.564L37.362 108.516L36.424 107.564L36.732 107.256ZM39.224 107.256L39.854 106.626L40.792 107.564L39.854 108.516L38.916 107.564L39.224 107.256ZM42.799 116.916C42.8644 116.356 42.897 115.409 42.897 114.074C42.897 112.805 42.869 111.493 42.813 110.14C42.7664 108.777 42.7104 107.895 42.645 107.494L43.765 107.256C43.821 107.685 43.877 108.623 43.933 110.07C43.9984 111.507 44.031 112.875 44.031 114.172C44.031 115.479 43.9984 116.44 43.933 117.056L42.799 116.916ZM49.2243 117C48.6456 117 48.1976 116.799 47.8803 116.398C47.5629 115.997 47.2969 115.418 47.0823 114.662L47.8663 114.186C48.0063 114.755 48.1743 115.157 48.3703 115.39C48.5756 115.623 48.8603 115.74 49.2243 115.74H49.3223L49.3923 116.37L49.3223 117H49.2243ZM44.0303 119.926C44.6276 119.721 45.1689 119.45 45.6543 119.114C46.1396 118.778 46.5176 118.419 46.7883 118.036C47.0683 117.653 47.2083 117.294 47.2083 116.958C47.2083 116.482 46.9703 115.315 46.4943 113.458L47.5723 113.052C47.7776 113.715 47.9456 114.415 48.0763 115.152C48.2163 115.889 48.2863 116.491 48.2863 116.958C48.2863 117.509 48.1229 118.045 47.7963 118.568C47.4696 119.1 47.0169 119.576 46.4383 119.996C45.8689 120.425 45.2249 120.766 44.5063 121.018L44.0303 119.926ZM51.8709 114.634C52.4589 115.035 52.9863 115.343 53.4529 115.558C53.9196 115.773 54.2789 115.88 54.5309 115.88C54.6149 115.88 54.6943 115.861 54.7689 115.824C54.9369 115.74 55.0629 115.6 55.1469 115.404C55.2309 115.208 55.2729 114.984 55.2729 114.732C55.2729 114.275 55.1563 113.859 54.9229 113.486C54.6989 113.113 54.4003 112.926 54.0269 112.926C53.7376 112.926 53.4296 113.131 53.1029 113.542C52.7763 113.943 52.4169 114.536 52.0249 115.32C51.7449 115.871 51.3809 116.291 50.9329 116.58C50.4943 116.86 49.9949 117 49.4349 117H49.1829L49.1969 115.74H49.4629C49.8456 115.74 50.1956 115.633 50.5129 115.418C50.8396 115.194 51.1103 114.867 51.3249 114.438C51.7169 113.645 52.1229 113.01 52.5429 112.534C52.9629 112.058 53.4249 111.806 53.9289 111.778C54.3956 111.75 54.8063 111.876 55.1609 112.156C55.5249 112.427 55.8003 112.791 55.9869 113.248C56.1829 113.696 56.2809 114.167 56.2809 114.662C56.2809 115.157 56.1829 115.609 55.9869 116.02C55.7909 116.421 55.5016 116.725 55.1189 116.93C54.9603 117.023 54.7596 117.07 54.5169 117.07C53.8076 117.07 52.7576 116.608 51.3669 115.684L51.8709 114.634ZM66.9157 117C66.337 117 65.889 116.799 65.5717 116.398C65.2543 115.997 64.9883 115.418 64.7737 114.662L65.5577 114.186C65.6977 114.755 65.8657 115.157 66.0617 115.39C66.267 115.623 66.5517 115.74 66.9157 115.74H67.0137L67.0837 116.37L67.0137 117H66.9157ZM61.7217 119.926C62.319 119.721 62.8603 119.45 63.3457 119.114C63.831 118.778 64.209 118.419 64.4797 118.036C64.7597 117.653 64.8997 117.294 64.8997 116.958C64.8997 116.482 64.6617 115.315 64.1857 113.458L65.2637 113.052C65.469 113.715 65.637 114.415 65.7677 115.152C65.9077 115.889 65.9777 116.491 65.9777 116.958C65.9777 117.509 65.8143 118.045 65.4877 118.568C65.161 119.1 64.7083 119.576 64.1297 119.996C63.5603 120.425 62.9163 120.766 62.1977 121.018L61.7217 119.926ZM63.4997 110.658L63.8357 110.322C64.2743 109.883 64.4937 109.664 64.4937 109.664C64.4937 109.664 64.713 109.883 65.1517 110.322L65.4877 110.658L64.4937 111.652L63.4997 110.658ZM66.8743 115.74H67.0003C67.719 115.74 68.279 115.712 68.6803 115.656C69.0817 115.591 69.3757 115.493 69.5623 115.362C69.749 115.231 69.8843 115.054 69.9683 114.83C70.0243 114.662 70.0523 114.461 70.0523 114.228C70.0523 113.929 69.9963 113.416 69.8843 112.688L70.9203 112.492C71.0323 113.08 71.093 113.827 71.1023 114.732C71.233 115.404 71.6577 115.74 72.3763 115.74H72.4743L72.5443 116.37L72.4743 117H72.3763C71.9097 117 71.499 116.865 71.1443 116.594C70.799 116.314 70.5563 115.959 70.4163 115.53L70.6963 115.586C70.575 115.941 70.3743 116.221 70.0943 116.426C69.8143 116.631 69.427 116.781 68.9323 116.874C68.447 116.958 67.803 117 67.0003 117H66.8743V115.74ZM67.3223 118.974L67.9523 118.344L68.8903 119.282L67.9523 120.234L67.0143 119.282L67.3223 118.974ZM69.8143 118.974L70.4443 118.344L71.3823 119.282L70.4443 120.234L69.5063 119.282L69.8143 118.974ZM72.3294 115.74H72.7914C73.3327 115.74 73.7201 115.619 73.9534 115.376C74.1867 115.133 74.3034 114.76 74.3034 114.256C74.3034 113.733 74.2567 112.59 74.1634 110.826C74.0794 109.053 74.0047 107.942 73.9394 107.494L75.0594 107.256C75.1154 107.704 75.1854 108.833 75.2694 110.644C75.3627 112.455 75.4094 113.631 75.4094 114.172C75.4094 115.031 75.1761 115.717 74.7094 116.23C74.2427 116.743 73.6081 117 72.8054 117H72.3294V115.74ZM86.6023 117.14C86.593 117 86.5883 116.79 86.5883 116.51C86.5883 116.23 86.593 116.02 86.6023 115.88C87.461 115.88 88.203 115.819 88.8283 115.698C89.4536 115.567 89.9296 115.413 90.2563 115.236C90.5923 115.049 90.779 114.877 90.8163 114.718C90.779 114.345 90.667 113.869 90.4803 113.29C90.303 112.702 90.149 112.245 90.0183 111.918L91.0263 111.372C91.213 111.82 91.395 112.375 91.5723 113.038C91.759 113.701 91.8523 114.233 91.8523 114.634C91.8523 115.147 91.6283 115.595 91.1803 115.978C90.7323 116.351 90.107 116.641 89.3043 116.846C88.511 117.042 87.6103 117.14 86.6023 117.14ZM82.8923 112.282C82.631 113.01 82.5003 113.584 82.5003 114.004C82.5003 114.135 82.505 114.233 82.5143 114.298C82.589 114.802 82.9763 115.194 83.6763 115.474C84.3763 115.745 85.389 115.88 86.7143 115.88C86.733 116.039 86.7423 116.272 86.7423 116.58C86.7423 116.832 86.7376 117.019 86.7283 117.14C85.1043 117.149 83.835 116.925 82.9203 116.468C82.015 116.001 81.5203 115.339 81.4363 114.48C81.427 114.405 81.4223 114.298 81.4223 114.158C81.4223 113.766 81.469 113.36 81.5623 112.94C81.665 112.511 81.791 112.133 81.9403 111.806L82.8923 112.282ZM84.7263 111.792L85.3563 111.162L86.2943 112.1L85.3563 113.052L84.4183 112.1L84.7263 111.792ZM87.2183 111.792L87.8483 111.162L88.7863 112.1L87.8483 113.052L86.9103 112.1L87.2183 111.792ZM94.515 107.256C94.5897 107.732 94.6457 108.567 94.683 109.762C94.7297 110.947 94.753 112.025 94.753 112.996V113.584L94.739 114.074C94.739 114.513 94.7764 114.849 94.851 115.082C94.9257 115.306 95.0657 115.474 95.271 115.586C95.4857 115.689 95.803 115.74 96.223 115.74H96.293L96.363 116.37L96.293 117H96.223C95.5604 117 95.0424 116.893 94.669 116.678C94.2957 116.454 94.0297 116.123 93.871 115.684C93.7217 115.245 93.647 114.667 93.647 113.948C93.647 112.884 93.6237 111.68 93.577 110.336C93.5397 108.983 93.479 108.035 93.395 107.494L94.515 107.256ZM96.1175 115.74H96.4535C97.5268 115.74 98.3762 115.67 99.0015 115.53C99.6268 115.381 100.079 115.185 100.359 114.942C100.649 114.69 100.84 114.382 100.933 114.018L100.947 113.822C100.947 113.421 100.835 113.071 100.611 112.772C100.387 112.464 100.098 112.31 99.7435 112.31C99.3982 112.31 99.0948 112.459 98.8335 112.758C98.5815 113.057 98.4275 113.416 98.3715 113.836C98.3435 114.181 98.4602 114.499 98.7215 114.788C98.9922 115.077 99.3888 115.311 99.9115 115.488C100.434 115.656 101.055 115.74 101.773 115.74H103.005L103.075 116.37L103.005 117H102.165C101.232 117 100.397 116.869 99.6595 116.608C98.9222 116.337 98.3435 115.978 97.9235 115.53C97.5128 115.073 97.3075 114.564 97.3075 114.004C97.3075 113.948 97.3168 113.845 97.3355 113.696C97.4008 113.211 97.5548 112.767 97.7975 112.366C98.0402 111.955 98.3342 111.633 98.6795 111.4C99.0342 111.157 99.3982 111.036 99.7715 111.036C100.182 111.036 100.555 111.167 100.891 111.428C101.237 111.689 101.507 112.03 101.703 112.45C101.899 112.87 101.997 113.304 101.997 113.752C101.997 113.827 101.988 113.948 101.969 114.116C101.848 115.096 101.325 115.824 100.401 116.3C99.4868 116.767 98.1708 117 96.4535 117H96.1175V115.74ZM97.9795 108.992L98.6095 108.362L99.5475 109.3L98.6095 110.252L97.6715 109.3L97.9795 108.992ZM100.471 108.992L101.101 108.362L102.039 109.3L101.101 110.252L100.163 109.3L100.471 108.992ZM102.845 115.74H103.405C104.404 115.74 105.108 115.647 105.519 115.46C105.93 115.264 106.135 114.947 106.135 114.508C106.126 114.219 106.028 113.78 105.841 113.192C105.664 112.595 105.51 112.165 105.379 111.904L106.387 111.372C106.574 111.736 106.756 112.231 106.933 112.856C107.12 113.472 107.213 114.009 107.213 114.466C107.213 115.297 106.91 115.927 106.303 116.356C105.696 116.785 104.782 117 103.559 117H102.845V115.74ZM102.369 118.974L102.999 118.344L103.937 119.282L102.999 120.234L102.061 119.282L102.369 118.974ZM104.861 118.974L105.491 118.344L106.429 119.282L105.491 120.234L104.553 119.282L104.861 118.974ZM107.222 119.926C107.819 119.721 108.36 119.45 108.846 119.114C109.331 118.778 109.709 118.419 109.98 118.036C110.26 117.653 110.4 117.294 110.4 116.958C110.4 116.482 110.162 115.315 109.686 113.458L110.764 113.052C110.969 113.715 111.137 114.415 111.268 115.152C111.408 115.889 111.478 116.491 111.478 116.958C111.478 117.509 111.314 118.045 110.988 118.568C110.661 119.1 110.208 119.576 109.63 119.996C109.06 120.425 108.416 120.766 107.698 121.018L107.222 119.926ZM117.228 117C116.65 117 116.202 116.799 115.884 116.398C115.567 115.997 115.301 115.418 115.086 114.662L115.87 114.186C116.01 114.755 116.178 115.157 116.374 115.39C116.58 115.623 116.864 115.74 117.228 115.74H117.326L117.396 116.37L117.326 117H117.228ZM112.034 119.926C112.632 119.721 113.173 119.45 113.658 119.114C114.144 118.778 114.522 118.419 114.792 118.036C115.072 117.653 115.212 117.294 115.212 116.958C115.212 116.482 114.974 115.315 114.498 113.458L115.576 113.052C115.782 113.715 115.95 114.415 116.08 115.152C116.22 115.889 116.29 116.491 116.29 116.958C116.29 117.509 116.127 118.045 115.8 118.568C115.474 119.1 115.021 119.576 114.442 119.996C113.873 120.425 113.229 120.766 112.51 121.018L112.034 119.926ZM113.812 110.658L114.148 110.322C114.587 109.883 114.806 109.664 114.806 109.664C114.806 109.664 115.026 109.883 115.464 110.322L115.8 110.658L114.806 111.652L113.812 110.658ZM117.187 115.74H117.747C118.746 115.74 119.45 115.647 119.861 115.46C120.272 115.264 120.477 114.947 120.477 114.508C120.468 114.219 120.37 113.78 120.183 113.192C120.006 112.595 119.852 112.165 119.721 111.904L120.729 111.372C120.916 111.736 121.098 112.231 121.275 112.856C121.462 113.472 121.555 114.009 121.555 114.466C121.555 115.297 121.252 115.927 120.645 116.356C120.038 116.785 119.124 117 117.901 117H117.187V115.74ZM117.887 109.244L118.517 108.614L119.455 109.552L118.517 110.504L117.579 109.552L117.887 109.244ZM120.379 109.244L121.009 108.614L121.947 109.552L121.009 110.504L120.071 109.552L120.379 109.244ZM131.933 110.21C132.101 112.077 132.227 113.337 132.311 113.99C132.357 114.466 132.423 114.825 132.507 115.068C132.6 115.311 132.735 115.483 132.913 115.586C133.09 115.689 133.347 115.74 133.683 115.74H133.879L133.949 116.37L133.879 117H133.683C132.936 117 132.367 116.781 131.975 116.342C131.583 115.894 131.331 115.166 131.219 114.158L130.981 112.002L130.799 110.434L131.933 110.21ZM131.863 116.02C131.312 116.207 130.761 116.3 130.211 116.3C129.445 116.3 128.815 116.123 128.321 115.768C127.835 115.413 127.593 114.933 127.593 114.326C127.593 113.001 128.783 111.951 131.163 111.176L131.401 112.352C130.663 112.548 130.029 112.814 129.497 113.15C128.965 113.477 128.685 113.794 128.657 114.102C128.629 114.373 128.745 114.597 129.007 114.774C129.277 114.951 129.641 115.04 130.099 115.04C130.565 115.04 131.06 114.947 131.583 114.76L131.863 116.02ZM138 115.74L138.07 116.37L138 117H137.846C137.435 117 137.057 116.883 136.712 116.65C136.367 116.407 136.096 116.076 135.9 115.656C135.704 115.227 135.611 114.746 135.62 114.214C135.629 113.999 135.592 112.945 135.508 111.05C135.433 109.155 135.373 107.97 135.326 107.494L136.446 107.256C136.521 107.844 136.595 109.771 136.67 113.038C136.698 113.626 136.712 114.023 136.712 114.228C136.768 115.236 137.146 115.74 137.846 115.74H138ZM133.716 115.74H134.108C134.649 115.74 135.037 115.619 135.27 115.376C135.513 115.133 135.629 114.746 135.62 114.214L136.46 114.312C136.46 115.133 136.259 115.787 135.858 116.272C135.457 116.757 134.878 117 134.122 117H133.716V115.74ZM137.859 115.74H138.139C138.923 115.74 139.543 115.306 140.001 114.438C140.458 113.598 140.883 112.954 141.275 112.506C141.667 112.049 142.11 111.806 142.605 111.778C143.678 111.722 144.406 112.459 144.789 113.99C144.938 114.615 145.097 115.063 145.265 115.334C145.433 115.605 145.666 115.74 145.965 115.74H146.091L146.161 116.37L146.091 117H145.965C145.274 117 144.826 116.617 144.621 115.852C144.593 116.076 144.495 116.286 144.327 116.482C144.168 116.678 143.991 116.827 143.795 116.93C143.636 117.023 143.44 117.07 143.207 117.07C142.535 117.07 141.587 116.673 140.365 115.88C140.085 116.244 139.749 116.524 139.357 116.72C138.974 116.907 138.559 117 138.111 117H137.859V115.74ZM140.925 114.872C141.447 115.236 141.928 115.511 142.367 115.698C142.815 115.875 143.169 115.964 143.431 115.964C143.524 115.964 143.599 115.95 143.655 115.922C143.86 115.726 143.963 115.409 143.963 114.97C143.963 114.662 143.907 114.349 143.795 114.032C143.692 113.715 143.543 113.453 143.347 113.248C143.16 113.033 142.945 112.926 142.703 112.926C142.423 112.926 142.133 113.099 141.835 113.444C141.545 113.789 141.242 114.265 140.925 114.872ZM145.938 115.74H147.226C148.393 115.74 149.48 115.6 150.488 115.32C151.506 115.031 152.523 114.615 153.54 114.074C154.11 113.766 154.67 113.533 155.22 113.374L155.262 113.878C154.73 113.878 154.222 113.817 153.736 113.696C153.26 113.575 152.766 113.383 152.252 113.122C151.804 112.889 151.403 112.711 151.048 112.59C150.694 112.469 150.344 112.408 149.998 112.408C149.606 112.408 149.252 112.525 148.934 112.758C148.617 112.991 148.379 113.267 148.22 113.584L147.464 113.066C147.763 112.459 148.132 112.002 148.57 111.694C149.009 111.377 149.499 111.218 150.04 111.218C150.432 111.218 150.796 111.283 151.132 111.414C151.478 111.545 151.986 111.778 152.658 112.114C153.284 112.431 153.774 112.669 154.128 112.828C154.492 112.977 154.903 113.099 155.36 113.192L155.402 114.298C155.216 114.354 155.02 114.429 154.814 114.522C154.618 114.615 154.334 114.765 153.96 114.97C152.7 115.633 151.557 116.137 150.53 116.482C149.513 116.827 148.412 117 147.226 117H145.938V115.74ZM149.578 119.114L149.914 118.778C150.353 118.339 150.572 118.12 150.572 118.12C150.572 118.12 150.792 118.339 151.23 118.778L151.566 119.114L150.572 120.108L149.578 119.114ZM160.72 119.926C161.317 119.721 161.858 119.45 162.344 119.114C162.829 118.778 163.207 118.419 163.478 118.036C163.758 117.653 163.898 117.294 163.898 116.958C163.898 116.482 163.66 115.315 163.184 113.458L164.262 113.052C164.467 113.715 164.635 114.415 164.766 115.152C164.906 115.889 164.976 116.491 164.976 116.958C164.976 117.509 164.812 118.045 164.486 118.568C164.159 119.1 163.706 119.576 163.128 119.996C162.558 120.425 161.914 120.766 161.196 121.018L160.72 119.926ZM162.498 110.658L162.834 110.322C163.272 109.883 163.492 109.664 163.492 109.664C163.492 109.664 163.711 109.883 164.15 110.322L164.486 110.658L163.492 111.652L162.498 110.658ZM166.666 116.916C166.732 116.356 166.764 115.409 166.764 114.074C166.764 112.805 166.736 111.493 166.68 110.14C166.634 108.777 166.578 107.895 166.512 107.494L167.632 107.256C167.688 107.685 167.744 108.623 167.8 110.07C167.866 111.507 167.898 112.875 167.898 114.172C167.898 115.479 167.866 116.44 167.8 117.056L166.666 116.916ZM178.466 120.906C177.664 120.906 176.95 120.747 176.324 120.43C175.708 120.122 175.223 119.679 174.868 119.1C174.514 118.521 174.336 117.845 174.336 117.07C174.336 116.501 174.43 115.899 174.616 115.264C174.803 114.629 175.018 114.069 175.26 113.584L176.212 114.032C175.69 115.133 175.428 116.095 175.428 116.916C175.428 117.803 175.69 118.479 176.212 118.946C176.735 119.413 177.486 119.646 178.466 119.646C179.036 119.646 179.572 119.571 180.076 119.422C180.59 119.273 181.01 119.086 181.336 118.862C181.663 118.647 181.85 118.456 181.896 118.288C181.85 118.185 181.686 118.022 181.406 117.798C181.136 117.583 180.795 117.355 180.384 117.112C179.974 116.869 179.549 116.659 179.11 116.482L179.376 115.292C180.823 115.591 182.176 115.74 183.436 115.74H184.038L184.108 116.37L184.038 117H183.436C182.792 117 182.078 116.949 181.294 116.846C180.52 116.743 179.796 116.622 179.124 116.482L179.404 115.67L179.684 115.796C180.618 116.207 181.397 116.613 182.022 117.014C182.657 117.425 182.974 117.859 182.974 118.316C182.974 118.745 182.764 119.156 182.344 119.548C181.934 119.949 181.378 120.276 180.678 120.528C179.988 120.78 179.25 120.906 178.466 120.906ZM184.158 115.74H184.718C185.717 115.74 186.422 115.647 186.832 115.46C187.243 115.264 187.448 114.947 187.448 114.508C187.439 114.219 187.341 113.78 187.154 113.192C186.977 112.595 186.823 112.165 186.692 111.904L187.7 111.372C187.887 111.736 188.069 112.231 188.246 112.856C188.433 113.472 188.526 114.009 188.526 114.466C188.526 115.297 188.223 115.927 187.616 116.356C187.01 116.785 186.095 117 184.872 117H184.158V115.74ZM184.34 118.946L184.97 118.316L185.908 119.254L184.97 120.206L184.032 119.254L184.34 118.946ZM186.832 118.946L187.462 118.316L188.4 119.254L187.462 120.206L186.524 119.254L186.832 118.946ZM183.92 117L183.85 116.37L183.92 115.74H184.284V117H183.92ZM191.203 107.256C191.277 107.732 191.333 108.567 191.371 109.762C191.417 110.947 191.441 112.025 191.441 112.996V113.584L191.427 114.074C191.427 114.513 191.464 114.849 191.539 115.082C191.613 115.306 191.753 115.474 191.959 115.586C192.173 115.689 192.491 115.74 192.911 115.74H192.981L193.051 116.37L192.981 117H192.911C192.248 117 191.73 116.893 191.357 116.678C190.983 116.454 190.717 116.123 190.559 115.684C190.409 115.245 190.335 114.667 190.335 113.948C190.335 112.884 190.311 111.68 190.265 110.336C190.227 108.983 190.167 108.035 190.083 107.494L191.203 107.256ZM192.847 115.74H192.959C193.631 115.74 194.144 115.67 194.499 115.53C194.854 115.381 195.092 115.147 195.213 114.83C195.26 114.699 195.283 114.517 195.283 114.284C195.283 114.051 195.246 113.654 195.171 113.094L195.115 112.688L196.137 112.492C196.258 113.08 196.319 113.827 196.319 114.732C196.384 115.059 196.529 115.311 196.753 115.488C196.977 115.656 197.257 115.74 197.593 115.74H197.705L197.775 116.37L197.705 117H197.593C197.126 117 196.716 116.865 196.361 116.594C196.016 116.314 195.773 115.959 195.633 115.53L195.927 115.586C195.75 116.099 195.418 116.463 194.933 116.678C194.457 116.893 193.799 117 192.959 117H192.847V115.74ZM192.735 119.296L193.071 118.96C193.51 118.521 193.729 118.302 193.729 118.302C193.729 118.302 193.948 118.521 194.387 118.96L194.723 119.296L193.729 120.29L192.735 119.296ZM197.564 115.74H198.124C199.122 115.74 199.827 115.647 200.238 115.46C200.648 115.264 200.854 114.947 200.854 114.508C200.844 114.219 200.746 113.78 200.56 113.192C200.382 112.595 200.228 112.165 200.098 111.904L201.106 111.372C201.292 111.736 201.474 112.231 201.652 112.856C201.838 113.472 201.932 114.009 201.932 114.466C201.932 115.297 201.628 115.927 201.022 116.356C200.415 116.785 199.5 117 198.278 117H197.564V115.74ZM197.088 118.974L197.718 118.344L198.656 119.282L197.718 120.234L196.78 119.282L197.088 118.974ZM199.58 118.974L200.21 118.344L201.148 119.282L200.21 120.234L199.272 119.282L199.58 118.974ZM202.501 119.926C203.098 119.721 203.64 119.45 204.125 119.114C204.61 118.778 204.988 118.419 205.259 118.036C205.539 117.653 205.679 117.294 205.679 116.958C205.679 116.482 205.441 115.315 204.965 113.458L206.043 113.052C206.248 113.715 206.416 114.415 206.547 115.152C206.687 115.889 206.757 116.491 206.757 116.958C206.757 117.509 206.594 118.045 206.267 118.568C205.94 119.1 205.488 119.576 204.909 119.996C204.34 120.425 203.696 120.766 202.977 121.018L202.501 119.926ZM204.279 110.658L204.615 110.322C205.054 109.883 205.273 109.664 205.273 109.664C205.273 109.664 205.492 109.883 205.931 110.322L206.267 110.658L205.273 111.652L204.279 110.658ZM217.948 117.14C217.939 117 217.934 116.79 217.934 116.51C217.934 116.23 217.939 116.02 217.948 115.88C218.807 115.88 219.549 115.819 220.174 115.698C220.799 115.567 221.275 115.413 221.602 115.236C221.938 115.049 222.125 114.877 222.162 114.718C222.125 114.345 222.013 113.869 221.826 113.29C221.649 112.702 221.495 112.245 221.364 111.918L222.372 111.372C222.559 111.82 222.741 112.375 222.918 113.038C223.105 113.701 223.198 114.233 223.198 114.634C223.198 115.147 222.974 115.595 222.526 115.978C222.078 116.351 221.453 116.641 220.65 116.846C219.857 117.042 218.956 117.14 217.948 117.14ZM214.238 112.282C213.977 113.01 213.846 113.584 213.846 114.004C213.846 114.135 213.851 114.233 213.86 114.298C213.935 114.802 214.322 115.194 215.022 115.474C215.722 115.745 216.735 115.88 218.06 115.88C218.079 116.039 218.088 116.272 218.088 116.58C218.088 116.832 218.083 117.019 218.074 117.14C216.45 117.149 215.181 116.925 214.266 116.468C213.361 116.001 212.866 115.339 212.782 114.48C212.773 114.405 212.768 114.298 212.768 114.158C212.768 113.766 212.815 113.36 212.908 112.94C213.011 112.511 213.137 112.133 213.286 111.806L214.238 112.282ZM216.072 111.792L216.702 111.162L217.64 112.1L216.702 113.052L215.764 112.1L216.072 111.792ZM218.564 111.792L219.194 111.162L220.132 112.1L219.194 113.052L218.256 112.1L218.564 111.792ZM225.861 107.256C225.935 107.732 225.991 108.567 226.029 109.762C226.075 110.947 226.099 112.025 226.099 112.996V113.584L226.085 114.074C226.085 114.513 226.122 114.849 226.197 115.082C226.271 115.306 226.411 115.474 226.617 115.586C226.831 115.689 227.149 115.74 227.569 115.74H227.639L227.709 116.37L227.639 117H227.569C226.906 117 226.388 116.893 226.015 116.678C225.641 116.454 225.375 116.123 225.217 115.684C225.067 115.245 224.993 114.667 224.993 113.948C224.993 112.884 224.969 111.68 224.923 110.336C224.885 108.983 224.825 108.035 224.741 107.494L225.861 107.256ZM230.193 114.634C230.781 115.035 231.309 115.343 231.775 115.558C232.242 115.773 232.601 115.88 232.853 115.88C232.937 115.88 233.017 115.861 233.091 115.824C233.259 115.74 233.385 115.6 233.469 115.404C233.553 115.208 233.595 114.984 233.595 114.732C233.595 114.275 233.479 113.859 233.245 113.486C233.021 113.113 232.723 112.926 232.349 112.926C232.06 112.926 231.752 113.131 231.425 113.542C231.099 113.943 230.739 114.536 230.347 115.32C230.067 115.871 229.703 116.291 229.255 116.58C228.817 116.86 228.317 117 227.757 117H227.505L227.519 115.74H227.785C228.168 115.74 228.518 115.633 228.835 115.418C229.162 115.194 229.433 114.867 229.647 114.438C230.039 113.645 230.445 113.01 230.865 112.534C231.285 112.058 231.747 111.806 232.251 111.778C232.718 111.75 233.129 111.876 233.483 112.156C233.847 112.427 234.123 112.791 234.309 113.248C234.505 113.696 234.603 114.167 234.603 114.662C234.603 115.157 234.505 115.609 234.309 116.02C234.113 116.421 233.824 116.725 233.441 116.93C233.283 117.023 233.082 117.07 232.839 117.07C232.13 117.07 231.08 116.608 229.689 115.684L230.193 114.634ZM239.601 109.986L241.519 114.522C241.706 114.979 241.916 115.297 242.149 115.474C242.392 115.651 242.719 115.74 243.129 115.74H243.283L243.353 116.37L243.283 117H243.129C242.541 117 242.037 116.851 241.617 116.552C241.197 116.244 240.843 115.759 240.553 115.096L238.593 110.518L239.601 109.986ZM236.115 115.124C236.479 115.339 236.829 115.516 237.165 115.656C237.501 115.787 237.903 115.852 238.369 115.852C238.948 115.852 239.433 115.763 239.825 115.586C240.217 115.399 240.6 115.171 240.973 114.9L241.533 115.698C241.272 115.941 241.025 116.151 240.791 116.328C240.558 116.505 240.241 116.673 239.839 116.832C239.438 116.981 238.981 117.056 238.467 117.056C237.833 117.056 237.287 116.958 236.829 116.762C236.372 116.566 235.952 116.328 235.569 116.048L236.115 115.124ZM243.132 115.74H244.42C245.586 115.74 246.674 115.6 247.682 115.32C248.699 115.031 249.716 114.615 250.734 114.074C251.303 113.766 251.863 113.533 252.414 113.374L252.456 113.878C251.924 113.878 251.415 113.817 250.93 113.696C250.454 113.575 249.959 113.383 249.446 113.122C248.998 112.889 248.596 112.711 248.242 112.59C247.887 112.469 247.537 112.408 247.192 112.408C246.8 112.408 246.445 112.525 246.128 112.758C245.81 112.991 245.572 113.267 245.414 113.584L244.658 113.066C244.956 112.459 245.325 112.002 245.764 111.694C246.202 111.377 246.692 111.218 247.234 111.218C247.626 111.218 247.99 111.283 248.326 111.414C248.671 111.545 249.18 111.778 249.852 112.114C250.477 112.431 250.967 112.669 251.322 112.828C251.686 112.977 252.096 113.099 252.554 113.192L252.596 114.298C252.409 114.354 252.213 114.429 252.008 114.522C251.812 114.615 251.527 114.765 251.154 114.97C249.894 115.633 248.75 116.137 247.724 116.482C246.706 116.827 245.605 117 244.42 117H243.132V115.74ZM246.114 109.034L246.45 108.698C246.888 108.259 247.108 108.04 247.108 108.04C247.108 108.04 247.327 108.259 247.766 108.698L248.102 109.034L247.108 110.028L246.114 109.034ZM257.913 119.926C258.51 119.721 259.052 119.45 259.537 119.114C260.022 118.778 260.4 118.419 260.671 118.036C260.951 117.653 261.091 117.294 261.091 116.958C261.091 116.482 260.853 115.315 260.377 113.458L261.455 113.052C261.66 113.715 261.828 114.415 261.959 115.152C262.099 115.889 262.169 116.491 262.169 116.958C262.169 117.509 262.006 118.045 261.679 118.568C261.352 119.1 260.9 119.576 260.321 119.996C259.752 120.425 259.108 120.766 258.389 121.018L257.913 119.926ZM259.691 110.658L260.027 110.322C260.466 109.883 260.685 109.664 260.685 109.664C260.685 109.664 260.904 109.883 261.343 110.322L261.679 110.658L260.685 111.652L259.691 110.658ZM263.86 116.916C263.925 116.356 263.958 115.409 263.958 114.074C263.958 112.805 263.93 111.493 263.874 110.14C263.827 108.777 263.771 107.895 263.706 107.494L264.826 107.256C264.882 107.685 264.938 108.623 264.994 110.07C265.059 111.507 265.092 112.875 265.092 114.172C265.092 115.479 265.059 116.44 264.994 117.056L263.86 116.916ZM275.66 120.906C274.857 120.906 274.143 120.747 273.518 120.43C272.902 120.122 272.416 119.679 272.062 119.1C271.707 118.521 271.53 117.845 271.53 117.07C271.53 116.501 271.623 115.899 271.81 115.264C271.996 114.629 272.211 114.069 272.454 113.584L273.406 114.032C272.883 115.133 272.622 116.095 272.622 116.916C272.622 117.803 272.883 118.479 273.406 118.946C273.928 119.413 274.68 119.646 275.66 119.646C276.229 119.646 276.766 119.571 277.27 119.422C277.783 119.273 278.203 119.086 278.53 118.862C278.856 118.647 279.043 118.456 279.09 118.288C279.043 118.185 278.88 118.022 278.6 117.798C278.329 117.583 277.988 117.355 277.578 117.112C277.167 116.869 276.742 116.659 276.304 116.482L276.57 115.292C278.016 115.591 279.22 115.74 280.182 115.74H280.518L280.588 116.37L280.518 117H280.182C279.556 117 278.954 116.958 278.376 116.874C277.797 116.781 277.111 116.65 276.318 116.482L276.598 115.67L276.878 115.796C277.811 116.207 278.59 116.613 279.216 117.014C279.85 117.425 280.168 117.859 280.168 118.316C280.168 118.745 279.958 119.156 279.538 119.548C279.127 119.949 278.572 120.276 277.872 120.528C277.181 120.78 276.444 120.906 275.66 120.906ZM280.265 115.74H280.559C281.791 115.74 282.822 115.558 283.653 115.194C284.484 114.83 285.104 114.429 285.515 113.99C285.926 113.542 286.178 113.173 286.271 112.884C286.178 112.688 285.963 112.529 285.627 112.408C285.3 112.287 284.918 112.226 284.479 112.226C284.087 112.226 283.7 112.282 283.317 112.394C282.934 112.497 282.608 112.655 282.337 112.87C282.925 113.57 283.471 114.125 283.975 114.536C284.479 114.937 285.03 115.241 285.627 115.446C286.224 115.642 286.92 115.74 287.713 115.74H288.063L288.133 116.37L288.063 117H287.713C286.742 117 285.902 116.874 285.193 116.622C284.493 116.361 283.84 115.959 283.233 115.418C282.626 114.867 281.936 114.097 281.161 113.108L281.203 112.282C281.576 111.909 282.052 111.624 282.631 111.428C283.21 111.232 283.807 111.134 284.423 111.134C285.123 111.134 285.734 111.255 286.257 111.498C286.78 111.731 287.106 112.063 287.237 112.492C287.256 112.585 287.265 112.665 287.265 112.73C287.265 113.234 286.971 113.827 286.383 114.508C285.795 115.189 284.988 115.777 283.961 116.272C282.934 116.757 281.8 117 280.559 117H280.265V115.74ZM295.761 115.74C296.461 115.74 296.811 115.353 296.811 114.578C296.811 114.261 296.718 113.817 296.531 113.248C296.354 112.669 296.195 112.231 296.055 111.932L297.049 111.386C297.236 111.778 297.423 112.291 297.609 112.926C297.796 113.551 297.889 114.102 297.889 114.578C297.889 115.035 297.796 115.451 297.609 115.824C297.432 116.188 297.18 116.477 296.853 116.692C296.536 116.897 296.172 117 295.761 117H295.733V115.74H295.761ZM291.953 117V115.74H291.995C292.518 115.74 292.966 115.413 293.339 114.76C293.461 114.536 293.554 114.27 293.619 113.962C293.694 113.654 293.764 113.313 293.829 112.94L294.865 112.996C294.856 113.033 294.823 113.206 294.767 113.514C294.711 113.822 294.683 114.121 294.683 114.41C294.683 114.858 294.767 115.194 294.935 115.418C295.113 115.633 295.388 115.74 295.761 115.74H295.789L295.859 116.37L295.789 117H295.761C295.22 117 294.786 116.841 294.459 116.524C294.142 116.197 293.951 115.745 293.885 115.166L294.109 115.152C293.913 115.684 293.624 116.127 293.241 116.482C292.868 116.827 292.448 117 291.981 117H291.953ZM287.949 117L287.879 116.37L287.949 115.74H288.019C288.365 115.74 288.691 115.661 288.999 115.502C289.307 115.343 289.545 115.133 289.713 114.872C289.891 114.62 290.026 114.354 290.119 114.074C290.222 113.794 290.325 113.463 290.427 113.08L291.477 113.192C291.459 113.248 291.421 113.388 291.365 113.612C291.309 113.836 291.263 114.046 291.225 114.242C291.197 114.438 291.183 114.615 291.183 114.774C291.183 115.418 291.445 115.74 291.967 115.74H291.995L292.065 116.37L291.995 117H291.953C291.524 117 291.165 116.874 290.875 116.622C290.595 116.361 290.427 116.011 290.371 115.572C290.082 116.039 289.737 116.393 289.335 116.636C288.934 116.879 288.491 117 288.005 117H287.949ZM298.788 119.898C300.281 119.571 301.387 119.128 302.106 118.568C302.825 118.017 303.184 117.322 303.184 116.482C303.175 115.931 303.1 115.385 302.96 114.844C302.82 114.303 302.615 113.85 302.344 113.486C302.073 113.113 301.751 112.912 301.378 112.884C301.173 112.875 300.972 112.959 300.776 113.136C300.58 113.313 300.421 113.542 300.3 113.822C300.179 114.102 300.118 114.368 300.118 114.62C300.118 114.825 300.16 114.998 300.244 115.138C300.393 115.362 300.645 115.53 301 115.642C301.364 115.754 301.779 115.81 302.246 115.81C302.694 115.81 303.105 115.768 303.478 115.684V116.874C303.077 116.986 302.61 117.042 302.078 117.042C301.462 117.042 300.907 116.949 300.412 116.762C299.917 116.566 299.563 116.258 299.348 115.838C299.199 115.539 299.124 115.189 299.124 114.788C299.124 114.303 299.227 113.817 299.432 113.332C299.647 112.847 299.927 112.445 300.272 112.128C300.627 111.811 301.005 111.652 301.406 111.652C301.957 111.652 302.442 111.895 302.862 112.38C303.282 112.865 303.604 113.477 303.828 114.214C304.052 114.942 304.164 115.661 304.164 116.37C304.164 117.527 303.721 118.512 302.834 119.324C301.957 120.136 300.729 120.701 299.152 121.018L298.788 119.898ZM315.388 117.126L315.318 116.496L315.388 115.866H315.542C316.998 115.866 318.062 115.698 318.734 115.362C319.415 115.026 319.831 114.578 319.98 114.018L319.994 113.822C319.994 113.421 319.882 113.071 319.658 112.772C319.434 112.464 319.145 112.31 318.79 112.31C318.445 112.31 318.141 112.459 317.88 112.758C317.628 113.057 317.474 113.416 317.418 113.836C317.39 114.181 317.507 114.499 317.768 114.788C318.039 115.077 318.435 115.311 318.958 115.488C319.481 115.656 320.101 115.74 320.82 115.74H322.052L322.122 116.37L322.052 117H321.212C320.279 117 319.443 116.869 318.706 116.608C317.969 116.337 317.39 115.978 316.97 115.53C316.559 115.073 316.354 114.564 316.354 114.004C316.354 113.948 316.363 113.845 316.382 113.696C316.447 113.211 316.601 112.767 316.844 112.366C317.087 111.955 317.381 111.633 317.726 111.4C318.081 111.157 318.445 111.036 318.818 111.036C319.229 111.036 319.602 111.167 319.938 111.428C320.283 111.689 320.554 112.03 320.75 112.45C320.946 112.87 321.044 113.304 321.044 113.752C321.044 113.827 321.035 113.948 321.016 114.116C320.895 115.096 320.358 115.847 319.406 116.37C318.463 116.883 317.175 117.14 315.542 117.14L315.388 117.126ZM311.65 112.282C311.389 113.01 311.258 113.584 311.258 114.004C311.258 114.135 311.263 114.233 311.272 114.298C311.347 114.802 311.734 115.194 312.434 115.474C313.134 115.745 314.147 115.88 315.472 115.88C315.491 116.039 315.5 116.272 315.5 116.58C315.5 116.832 315.495 117.019 315.486 117.14C313.862 117.149 312.593 116.925 311.678 116.468C310.773 116.001 310.278 115.339 310.194 114.48C310.185 114.405 310.18 114.298 310.18 114.158C310.18 113.766 310.227 113.36 310.32 112.94C310.423 112.511 310.549 112.133 310.698 111.806L311.65 112.282ZM317.852 109.216L318.188 108.88C318.627 108.441 318.846 108.222 318.846 108.222C318.846 108.222 319.065 108.441 319.504 108.88L319.84 109.216L318.846 110.21L317.852 109.216ZM321.909 115.74H322.035C322.754 115.74 323.314 115.712 323.715 115.656C324.117 115.591 324.411 115.493 324.597 115.362C324.784 115.231 324.919 115.054 325.003 114.83C325.059 114.662 325.087 114.461 325.087 114.228C325.087 113.929 325.031 113.416 324.919 112.688L325.955 112.492C326.067 113.08 326.128 113.827 326.137 114.732C326.268 115.404 326.693 115.74 327.411 115.74H327.509L327.579 116.37L327.509 117H327.411C326.945 117 326.534 116.865 326.179 116.594C325.834 116.314 325.591 115.959 325.451 115.53L325.731 115.586C325.61 115.941 325.409 116.221 325.129 116.426C324.849 116.631 324.462 116.781 323.967 116.874C323.482 116.958 322.838 117 322.035 117H321.909V115.74ZM321.531 118.946L322.161 118.316L323.099 119.254L322.161 120.206L321.223 119.254L321.531 118.946ZM324.023 118.946L324.653 118.316L325.591 119.254L324.653 120.206L323.715 119.254L324.023 118.946ZM331.019 115.74C331.896 115.74 332.68 115.642 333.371 115.446C334.061 115.241 334.593 114.97 334.967 114.634C335.349 114.298 335.541 113.934 335.541 113.542C335.541 113.206 335.41 112.931 335.149 112.716C334.897 112.492 334.547 112.38 334.099 112.38C333.324 112.38 332.526 112.749 331.705 113.486C330.893 114.214 330.132 115.217 329.423 116.496L328.555 115.964C329.339 114.452 330.207 113.276 331.159 112.436C332.12 111.596 333.063 111.171 333.987 111.162C334.472 111.162 334.911 111.265 335.303 111.47C335.704 111.675 336.017 111.96 336.241 112.324C336.465 112.679 336.577 113.085 336.577 113.542C336.577 114.223 336.343 114.83 335.877 115.362C335.41 115.885 334.766 116.291 333.945 116.58C333.123 116.86 332.204 117 331.187 117H327.365V115.74H331.019ZM329.661 114.368C329.689 114.004 329.703 113.565 329.703 113.052C329.703 112.1 329.661 111.045 329.577 109.888C329.493 108.721 329.413 107.928 329.339 107.508L330.459 107.256C330.533 107.667 330.603 108.334 330.669 109.258C330.743 110.173 330.781 111.073 330.781 111.96C330.781 112.828 330.743 113.556 330.669 114.144L329.661 114.368ZM344.136 107.256C344.211 107.732 344.267 108.567 344.304 109.762C344.351 110.947 344.374 112.025 344.374 112.996V113.584L344.36 114.074C344.36 114.513 344.397 114.849 344.472 115.082C344.547 115.306 344.687 115.474 344.892 115.586C345.107 115.689 345.424 115.74 345.844 115.74H345.914L345.984 116.37L345.914 117H345.844C345.181 117 344.663 116.893 344.29 116.678C343.917 116.454 343.651 116.123 343.492 115.684C343.343 115.245 343.268 114.667 343.268 113.948C343.268 112.884 343.245 111.68 343.198 110.336C343.161 108.983 343.1 108.035 343.016 107.494L344.136 107.256ZM348.469 114.634C349.057 115.035 349.584 115.343 350.051 115.558C350.517 115.773 350.877 115.88 351.129 115.88C351.213 115.88 351.292 115.861 351.367 115.824C351.535 115.74 351.661 115.6 351.745 115.404C351.829 115.208 351.871 114.984 351.871 114.732C351.871 114.275 351.754 113.859 351.521 113.486C351.297 113.113 350.998 112.926 350.625 112.926C350.335 112.926 350.027 113.131 349.701 113.542C349.374 113.943 349.015 114.536 348.623 115.32C348.343 115.871 347.979 116.291 347.531 116.58C347.092 116.86 346.593 117 346.033 117H345.781L345.795 115.74H346.061C346.443 115.74 346.793 115.633 347.111 115.418C347.437 115.194 347.708 114.867 347.923 114.438C348.315 113.645 348.721 113.01 349.141 112.534C349.561 112.058 350.023 111.806 350.527 111.778C350.993 111.75 351.404 111.876 351.759 112.156C352.123 112.427 352.398 112.791 352.585 113.248C352.781 113.696 352.879 114.167 352.879 114.662C352.879 115.157 352.781 115.609 352.585 116.02C352.389 116.421 352.099 116.725 351.717 116.93C351.558 117.023 351.357 117.07 351.115 117.07C350.405 117.07 349.355 116.608 347.965 115.684L348.469 114.634ZM90.4728 145.606C90.3048 143.59 90.2208 141.966 90.2208 140.734C90.2208 140.463 90.2301 140.123 90.2488 139.712C90.2675 139.301 90.3888 138.965 90.6128 138.704C90.8368 138.443 91.1168 138.312 91.4528 138.312C91.6021 138.312 91.7515 138.34 91.9008 138.396C92.3581 137.565 92.7781 136.931 93.1608 136.492C93.5435 136.044 93.9821 135.806 94.4768 135.778C95.5501 135.722 96.2781 136.459 96.6608 137.99C96.8008 138.597 96.9595 139.04 97.1368 139.32C97.3235 139.6 97.5615 139.74 97.8508 139.74H97.9348L98.0048 140.37L97.9348 141H97.8508C97.1508 141 96.6888 140.617 96.4648 139.852C96.4368 140.076 96.3435 140.286 96.1848 140.482C96.0355 140.678 95.8675 140.827 95.6808 140.93C95.4941 141.023 95.3028 141.07 95.1068 141.07C94.7615 141.07 94.3228 140.958 93.7908 140.734C93.2588 140.51 92.5635 140.151 91.7048 139.656C91.6581 139.619 91.5928 139.6 91.5088 139.6C91.3501 139.6 91.2661 139.698 91.2568 139.894L91.2428 140.454C91.2428 141.331 91.2848 142.297 91.3688 143.352C91.4528 144.407 91.4995 145.018 91.5088 145.186L91.5648 145.83L90.5008 146.054L90.4728 145.606ZM95.5268 139.908C95.7321 139.712 95.8348 139.395 95.8348 138.956C95.8348 138.648 95.7788 138.335 95.6668 138.018C95.5641 137.701 95.4148 137.439 95.2188 137.234C95.0321 137.029 94.8175 136.926 94.5748 136.926C94.2855 136.926 94.0008 137.094 93.7208 137.43C93.4408 137.766 93.1328 138.247 92.7968 138.872C93.3475 139.236 93.8421 139.507 94.2808 139.684C94.7288 139.852 95.0788 139.936 95.3308 139.936C95.4055 139.936 95.4708 139.927 95.5268 139.908ZM97.7933 139.74H97.9193C98.6379 139.74 99.1979 139.712 99.5993 139.656C100.001 139.591 100.295 139.493 100.481 139.362C100.668 139.231 100.803 139.054 100.887 138.83C100.943 138.662 100.971 138.461 100.971 138.228C100.971 137.929 100.915 137.416 100.803 136.688L101.839 136.492C101.951 137.08 102.012 137.827 102.021 138.732C102.152 139.404 102.577 139.74 103.295 139.74H103.393L103.463 140.37L103.393 141H103.295C102.829 141 102.418 140.865 102.063 140.594C101.718 140.314 101.475 139.959 101.335 139.53L101.615 139.586C101.494 139.941 101.293 140.221 101.013 140.426C100.733 140.631 100.346 140.781 99.8513 140.874C99.3659 140.958 98.7219 141 97.9193 141H97.7933V139.74ZM97.4153 142.946L98.0453 142.316L98.9833 143.254L98.0453 144.206L97.1073 143.254L97.4153 142.946ZM99.9073 142.946L100.537 142.316L101.475 143.254L100.537 144.206L99.5993 143.254L99.9073 142.946ZM103.276 139.74H103.472C104.966 139.74 106.067 139.6 106.776 139.32C107.486 139.04 107.887 138.597 107.98 137.99C107.99 137.934 107.994 137.855 107.994 137.752C107.994 137.341 107.882 136.982 107.658 136.674C107.444 136.366 107.154 136.212 106.79 136.212C106.566 136.212 106.342 136.291 106.118 136.45C105.904 136.609 105.726 136.814 105.586 137.066C105.446 137.309 105.376 137.547 105.376 137.78C105.376 138.153 105.577 138.508 105.978 138.844C106.38 139.171 106.874 139.432 107.462 139.628C108.06 139.824 108.624 139.922 109.156 139.922C109.548 139.922 109.875 139.861 110.136 139.74C110.407 139.619 110.584 139.437 110.668 139.194C110.696 139.119 110.71 139.04 110.71 138.956C110.71 138.629 110.519 138.279 110.136 137.906C109.763 137.533 109.147 137.145 108.288 136.744C107.43 136.343 106.319 135.955 104.956 135.582L105.39 134.406C107.061 134.975 108.358 135.507 109.282 136.002C110.216 136.497 110.855 136.963 111.2 137.402C111.555 137.841 111.732 138.289 111.732 138.746C111.732 138.979 111.681 139.283 111.578 139.656C111.438 140.113 111.14 140.459 110.682 140.692C110.225 140.916 109.674 141.028 109.03 141.028C108.293 141.028 107.551 140.888 106.804 140.608C106.058 140.328 105.446 139.945 104.97 139.46C104.504 138.975 104.294 138.438 104.34 137.85C104.378 137.393 104.522 136.949 104.774 136.52C105.026 136.091 105.334 135.745 105.698 135.484C106.072 135.213 106.45 135.078 106.832 135.078C107.215 135.078 107.574 135.204 107.91 135.456C108.246 135.708 108.512 136.039 108.708 136.45C108.904 136.861 109.002 137.29 109.002 137.738C109.002 137.831 108.993 137.962 108.974 138.13C108.825 139.157 108.312 139.894 107.434 140.342C106.557 140.781 105.236 141 103.472 141H103.276V139.74ZM113.239 139.124C113.277 139.143 113.412 139.222 113.645 139.362C113.888 139.493 114.191 139.605 114.555 139.698C114.929 139.791 115.321 139.838 115.731 139.838C116.235 139.838 116.646 139.768 116.963 139.628C117.29 139.479 117.5 139.315 117.593 139.138C117.64 139.026 117.663 138.909 117.663 138.788C117.663 138.349 117.421 137.808 116.935 137.164C116.459 136.511 115.731 135.825 114.751 135.106L115.381 134.014C116.417 134.798 117.225 135.61 117.803 136.45C118.391 137.281 118.685 138.06 118.685 138.788C118.685 139.124 118.625 139.427 118.503 139.698C118.317 140.127 117.981 140.459 117.495 140.692C117.01 140.925 116.455 141.042 115.829 141.042C115.092 141.042 114.462 140.944 113.939 140.748C113.417 140.543 113.001 140.309 112.693 140.048L113.239 139.124ZM128.844 144.906C128.042 144.906 127.328 144.747 126.702 144.43C126.086 144.122 125.601 143.679 125.246 143.1C124.892 142.521 124.714 141.845 124.714 141.07C124.714 140.501 124.808 139.899 124.994 139.264C125.181 138.629 125.396 138.069 125.638 137.584L126.59 138.032C126.068 139.133 125.806 140.095 125.806 140.916C125.806 141.803 126.068 142.479 126.59 142.946C127.113 143.413 127.864 143.646 128.844 143.646C129.414 143.646 129.95 143.571 130.454 143.422C130.968 143.273 131.388 143.086 131.714 142.862C132.041 142.647 132.228 142.456 132.274 142.288C132.228 142.185 132.064 142.022 131.784 141.798C131.514 141.583 131.173 141.355 130.762 141.112C130.352 140.869 129.927 140.659 129.488 140.482L129.754 139.292C131.201 139.591 132.405 139.74 133.366 139.74H133.702L133.772 140.37L133.702 141H133.366C132.741 141 132.139 140.958 131.56 140.874C130.982 140.781 130.296 140.65 129.502 140.482L129.782 139.67L130.062 139.796C130.996 140.207 131.775 140.613 132.4 141.014C133.035 141.425 133.352 141.859 133.352 142.316C133.352 142.745 133.142 143.156 132.722 143.548C132.312 143.949 131.756 144.276 131.056 144.528C130.366 144.78 129.628 144.906 128.844 144.906ZM136.138 138.634C136.726 139.035 137.253 139.343 137.72 139.558C138.186 139.773 138.546 139.88 138.798 139.88C138.882 139.88 138.961 139.861 139.036 139.824C139.204 139.74 139.33 139.6 139.414 139.404C139.498 139.208 139.54 138.984 139.54 138.732C139.54 138.275 139.423 137.859 139.19 137.486C138.966 137.113 138.667 136.926 138.294 136.926C138.004 136.926 137.696 137.131 137.37 137.542C137.043 137.943 136.684 138.536 136.292 139.32C136.012 139.871 135.648 140.291 135.2 140.58C134.761 140.86 134.262 141 133.702 141H133.45L133.464 139.74H133.73C134.112 139.74 134.462 139.633 134.78 139.418C135.106 139.194 135.377 138.867 135.592 138.438C135.984 137.645 136.39 137.01 136.81 136.534C137.23 136.058 137.692 135.806 138.196 135.778C138.662 135.75 139.073 135.876 139.428 136.156C139.792 136.427 140.067 136.791 140.254 137.248C140.45 137.696 140.548 138.167 140.548 138.662C140.548 139.157 140.45 139.609 140.254 140.02C140.058 140.421 139.768 140.725 139.386 140.93C139.227 141.023 139.026 141.07 138.784 141.07C138.074 141.07 137.024 140.608 135.634 139.684L136.138 138.634ZM150.902 134.21C151.07 136.077 151.196 137.337 151.28 137.99C151.327 138.466 151.392 138.825 151.476 139.068C151.57 139.311 151.705 139.483 151.882 139.586C152.06 139.689 152.316 139.74 152.652 139.74H152.848L152.918 140.37L152.848 141H152.652C151.906 141 151.336 140.781 150.944 140.342C150.552 139.894 150.3 139.166 150.188 138.158L149.95 136.002L149.768 134.434L150.902 134.21ZM150.832 140.02C150.282 140.207 149.731 140.3 149.18 140.3C148.415 140.3 147.785 140.123 147.29 139.768C146.805 139.413 146.562 138.933 146.562 138.326C146.562 137.001 147.752 135.951 150.132 135.176L150.37 136.352C149.633 136.548 148.998 136.814 148.466 137.15C147.934 137.477 147.654 137.794 147.626 138.102C147.598 138.373 147.715 138.597 147.976 138.774C148.247 138.951 148.611 139.04 149.068 139.04C149.535 139.04 150.03 138.947 150.552 138.76L150.832 140.02ZM152.686 139.74H153.414C154.161 139.74 154.697 139.642 155.024 139.446C155.36 139.25 155.528 138.947 155.528 138.536C155.528 138.247 155.435 137.803 155.248 137.206C155.061 136.609 154.907 136.175 154.786 135.904L155.794 135.372C155.971 135.764 156.153 136.282 156.34 136.926C156.527 137.561 156.62 138.102 156.62 138.55C156.611 139.353 156.331 139.964 155.78 140.384C155.229 140.795 154.441 141 153.414 141H152.686V139.74ZM154.632 134.28C154.24 134.243 153.904 134.103 153.624 133.86C153.353 133.608 153.218 133.305 153.218 132.95C153.218 132.661 153.307 132.395 153.484 132.152C153.671 131.9 153.904 131.741 154.184 131.676C154.296 131.648 154.413 131.634 154.534 131.634C154.786 131.634 155.103 131.695 155.486 131.816L155.304 132.502C154.968 132.39 154.711 132.334 154.534 132.334C154.291 132.334 154.095 132.413 153.946 132.572C153.806 132.721 153.759 132.889 153.806 133.076C153.834 133.225 153.932 133.356 154.1 133.468C154.277 133.58 154.492 133.631 154.744 133.622L154.632 134.28ZM152.798 134.196L155.766 133.244V133.944L152.798 134.896V134.196ZM158.333 140.916C158.399 140.356 158.431 139.409 158.431 138.074C158.431 136.805 158.403 135.493 158.347 134.14C158.301 132.777 158.245 131.895 158.179 131.494L159.299 131.256C159.355 131.685 159.411 132.623 159.467 134.07C159.533 135.507 159.565 136.875 159.565 138.172C159.565 139.479 159.533 140.44 159.467 141.056L158.333 140.916ZM159.564 143.926C160.162 143.721 160.703 143.45 161.188 143.114C161.674 142.778 162.052 142.419 162.322 142.036C162.602 141.653 162.742 141.294 162.742 140.958C162.742 140.482 162.504 139.315 162.028 137.458L163.106 137.052C163.312 137.715 163.48 138.415 163.61 139.152C163.75 139.889 163.82 140.491 163.82 140.958C163.82 141.509 163.657 142.045 163.33 142.568C163.004 143.1 162.551 143.576 161.972 143.996C161.403 144.425 160.759 144.766 160.04 145.018L159.564 143.926ZM165.511 140.916C165.576 140.356 165.609 139.409 165.609 138.074C165.609 136.805 165.581 135.493 165.525 134.14C165.478 132.777 165.422 131.895 165.357 131.494L166.477 131.256C166.533 131.685 166.589 132.623 166.645 134.07C166.71 135.507 166.743 136.875 166.743 138.172C166.743 139.479 166.71 140.44 166.645 141.056L165.511 140.916ZM175.883 136.044C174.8 136.949 174.259 137.803 174.259 138.606C174.259 138.97 174.38 139.259 174.623 139.474C174.866 139.689 175.22 139.796 175.687 139.796C176.126 139.796 176.49 139.698 176.779 139.502C177.068 139.306 177.218 139.045 177.227 138.718C177.255 138.177 177.031 137.649 176.555 137.136C176.088 136.623 175.309 136.035 174.217 135.372L174.847 134.364C176.014 135.045 176.877 135.722 177.437 136.394C177.997 137.066 178.277 137.78 178.277 138.536C178.277 139.021 178.16 139.455 177.927 139.838C177.694 140.221 177.376 140.519 176.975 140.734C176.574 140.939 176.13 141.042 175.645 141.042C175.141 141.042 174.702 140.944 174.329 140.748C173.965 140.543 173.685 140.272 173.489 139.936C173.293 139.591 173.195 139.208 173.195 138.788C173.195 138.564 173.223 138.34 173.279 138.116C173.522 137.145 174.161 136.179 175.197 135.218L175.883 136.044ZM182.887 141C182.309 141 181.861 140.799 181.543 140.398C181.226 139.997 180.96 139.418 180.745 138.662L181.529 138.186C181.669 138.755 181.837 139.157 182.033 139.39C182.239 139.623 182.523 139.74 182.887 139.74H182.985L183.055 140.37L182.985 141H182.887ZM177.693 143.926C178.291 143.721 178.832 143.45 179.317 143.114C179.803 142.778 180.181 142.419 180.451 142.036C180.731 141.653 180.871 141.294 180.871 140.958C180.871 140.482 180.633 139.315 180.157 137.458L181.235 137.052C181.441 137.715 181.609 138.415 181.739 139.152C181.879 139.889 181.949 140.491 181.949 140.958C181.949 141.509 181.786 142.045 181.459 142.568C181.133 143.1 180.68 143.576 180.101 143.996C179.532 144.425 178.888 144.766 178.169 145.018L177.693 143.926ZM182.846 139.74H182.972C183.691 139.74 184.251 139.712 184.652 139.656C185.053 139.591 185.347 139.493 185.534 139.362C185.721 139.231 185.856 139.054 185.94 138.83C185.996 138.662 186.024 138.461 186.024 138.228C186.024 137.929 185.968 137.416 185.856 136.688L186.892 136.492C187.004 137.08 187.065 137.827 187.074 138.732C187.205 139.404 187.629 139.74 188.348 139.74H188.446L188.516 140.37L188.446 141H188.348C187.881 141 187.471 140.865 187.116 140.594C186.771 140.314 186.528 139.959 186.388 139.53L186.668 139.586C186.547 139.941 186.346 140.221 186.066 140.426C185.786 140.631 185.399 140.781 184.904 140.874C184.419 140.958 183.775 141 182.972 141H182.846V139.74ZM183.294 142.974L183.924 142.344L184.862 143.282L183.924 144.234L182.986 143.282L183.294 142.974ZM185.786 142.974L186.416 142.344L187.354 143.282L186.416 144.234L185.478 143.282L185.786 142.974ZM188.301 139.74H188.469C190.084 139.74 191.386 139.684 192.375 139.572C193.374 139.451 194.242 139.25 194.979 138.97L195.245 140.09C194.48 140.407 193.579 140.641 192.543 140.79C191.507 140.93 190.149 141 188.469 141H188.301V139.74ZM193.019 140.636C192.431 140.673 191.866 140.575 191.325 140.342C190.784 140.109 190.345 139.773 190.009 139.334C189.682 138.895 189.519 138.396 189.519 137.836C189.519 137.379 189.631 136.949 189.855 136.548C190.088 136.137 190.401 135.801 190.793 135.54C191.185 135.279 191.619 135.12 192.095 135.064C192.16 135.055 192.254 135.05 192.375 135.05C192.786 135.05 193.187 135.139 193.579 135.316C193.98 135.484 194.34 135.713 194.657 136.002L194.209 136.87C193.602 136.497 193.019 136.31 192.459 136.31C192.086 136.31 191.754 136.38 191.465 136.52C191.185 136.66 190.966 136.851 190.807 137.094C190.648 137.327 190.569 137.579 190.569 137.85C190.569 138.149 190.672 138.433 190.877 138.704C191.092 138.965 191.381 139.171 191.745 139.32C192.109 139.46 192.51 139.521 192.949 139.502L193.019 140.636ZM191.157 132.964L191.493 132.628C191.932 132.189 192.151 131.97 192.151 131.97C192.151 131.97 192.37 132.189 192.809 132.628L193.145 132.964L192.151 133.958L191.157 132.964ZM200.986 143.898C202.48 143.571 203.586 143.128 204.304 142.568C205.023 142.017 205.382 141.322 205.382 140.482C205.373 139.931 205.298 139.385 205.158 138.844C205.018 138.303 204.813 137.85 204.542 137.486C204.272 137.113 203.95 136.912 203.576 136.884C203.371 136.875 203.17 136.959 202.974 137.136C202.778 137.313 202.62 137.542 202.498 137.822C202.377 138.102 202.316 138.368 202.316 138.62C202.316 138.825 202.358 138.998 202.442 139.138C202.592 139.362 202.844 139.53 203.198 139.642C203.562 139.754 203.978 139.81 204.444 139.81C204.892 139.81 205.303 139.768 205.676 139.684V140.874C205.275 140.986 204.808 141.042 204.276 141.042C203.66 141.042 203.105 140.949 202.61 140.762C202.116 140.566 201.761 140.258 201.546 139.838C201.397 139.539 201.322 139.189 201.322 138.788C201.322 138.303 201.425 137.817 201.63 137.332C201.845 136.847 202.125 136.445 202.47 136.128C202.825 135.811 203.203 135.652 203.604 135.652C204.155 135.652 204.64 135.895 205.06 136.38C205.48 136.865 205.802 137.477 206.026 138.214C206.25 138.942 206.362 139.661 206.362 140.37C206.362 141.527 205.919 142.512 205.032 143.324C204.155 144.136 202.928 144.701 201.35 145.018L200.986 143.898ZM216.508 144.906C215.706 144.906 214.992 144.747 214.366 144.43C213.75 144.122 213.265 143.679 212.91 143.1C212.556 142.521 212.378 141.845 212.378 141.07C212.378 140.501 212.472 139.899 212.658 139.264C212.845 138.629 213.06 138.069 213.302 137.584L214.254 138.032C213.732 139.133 213.47 140.095 213.47 140.916C213.47 141.803 213.732 142.479 214.254 142.946C214.777 143.413 215.528 143.646 216.508 143.646C217.078 143.646 217.614 143.571 218.118 143.422C218.632 143.273 219.052 143.086 219.378 142.862C219.705 142.647 219.892 142.456 219.938 142.288C219.892 142.185 219.728 142.022 219.448 141.798C219.178 141.583 218.837 141.355 218.426 141.112C218.016 140.869 217.591 140.659 217.152 140.482L217.418 139.292C218.865 139.591 220.069 139.74 221.03 139.74H221.366L221.436 140.37L221.366 141H221.03C220.405 141 219.803 140.958 219.224 140.874C218.646 140.781 217.96 140.65 217.166 140.482L217.446 139.67L217.726 139.796C218.66 140.207 219.439 140.613 220.064 141.014C220.699 141.425 221.016 141.859 221.016 142.316C221.016 142.745 220.806 143.156 220.386 143.548C219.976 143.949 219.42 144.276 218.72 144.528C218.03 144.78 217.292 144.906 216.508 144.906ZM221.114 139.74H221.24C221.958 139.74 222.518 139.712 222.92 139.656C223.321 139.591 223.615 139.493 223.802 139.362C223.988 139.231 224.124 139.054 224.208 138.83C224.264 138.662 224.292 138.461 224.292 138.228C224.292 137.929 224.236 137.416 224.124 136.688L225.16 136.492C225.272 137.08 225.332 137.827 225.342 138.732C225.472 139.404 225.897 139.74 226.616 139.74H226.714L226.784 140.37L226.714 141H226.616C226.149 141 225.738 140.865 225.384 140.594C225.038 140.314 224.796 139.959 224.656 139.53L224.936 139.586C224.814 139.941 224.614 140.221 224.334 140.426C224.054 140.631 223.666 140.781 223.172 140.874C222.686 140.958 222.042 141 221.24 141H221.114V139.74ZM221.884 134.07L222.514 133.44L223.452 134.378L222.514 135.33L221.576 134.378L221.884 134.07ZM224.376 134.07L225.006 133.44L225.944 134.378L225.006 135.33L224.068 134.378L224.376 134.07ZM234.409 139.74C235.109 139.74 235.459 139.353 235.459 138.578C235.459 138.261 235.365 137.817 235.179 137.248C235.001 136.669 234.843 136.231 234.703 135.932L235.697 135.386C235.883 135.778 236.07 136.291 236.257 136.926C236.443 137.551 236.537 138.102 236.537 138.578C236.537 139.035 236.443 139.451 236.257 139.824C236.079 140.188 235.827 140.477 235.501 140.692C235.183 140.897 234.819 141 234.409 141H234.381V139.74H234.409ZM230.601 141V139.74H230.643C231.165 139.74 231.613 139.413 231.987 138.76C232.108 138.536 232.201 138.27 232.267 137.962C232.341 137.654 232.411 137.313 232.477 136.94L233.513 136.996C233.503 137.033 233.471 137.206 233.415 137.514C233.359 137.822 233.331 138.121 233.331 138.41C233.331 138.858 233.415 139.194 233.583 139.418C233.76 139.633 234.035 139.74 234.409 139.74H234.437L234.507 140.37L234.437 141H234.409C233.867 141 233.433 140.841 233.107 140.524C232.789 140.197 232.598 139.745 232.533 139.166L232.757 139.152C232.561 139.684 232.271 140.127 231.889 140.482C231.515 140.827 231.095 141 230.629 141H230.601ZM226.597 141L226.527 140.37L226.597 139.74H226.667C227.012 139.74 227.339 139.661 227.647 139.502C227.955 139.343 228.193 139.133 228.361 138.872C228.538 138.62 228.673 138.354 228.767 138.074C228.869 137.794 228.972 137.463 229.075 137.08L230.125 137.192C230.106 137.248 230.069 137.388 230.013 137.612C229.957 137.836 229.91 138.046 229.873 138.242C229.845 138.438 229.831 138.615 229.831 138.774C229.831 139.418 230.092 139.74 230.615 139.74H230.643L230.713 140.37L230.643 141H230.601C230.171 141 229.812 140.874 229.523 140.622C229.243 140.361 229.075 140.011 229.019 139.572C228.729 140.039 228.384 140.393 227.983 140.636C227.581 140.879 227.138 141 226.653 141H226.597ZM237.436 143.898C238.929 143.571 240.035 143.128 240.754 142.568C241.472 142.017 241.832 141.322 241.832 140.482C241.832 139.941 241.762 139.399 241.622 138.858C241.482 138.307 241.272 137.85 240.992 137.486C240.721 137.113 240.399 136.912 240.026 136.884C239.82 136.875 239.62 136.959 239.424 137.136C239.228 137.313 239.069 137.542 238.948 137.822C238.826 138.102 238.766 138.368 238.766 138.62C238.766 138.825 238.808 138.998 238.892 139.138C239.041 139.381 239.391 139.544 239.942 139.628C240.492 139.703 241.202 139.74 242.07 139.74H243.302L243.372 140.37L243.302 141L241.608 141.014C240.656 141.014 239.876 140.935 239.27 140.776C238.663 140.617 238.238 140.305 237.996 139.838C237.846 139.539 237.772 139.189 237.772 138.788C237.772 138.303 237.874 137.817 238.08 137.332C238.294 136.847 238.574 136.445 238.92 136.128C239.274 135.811 239.652 135.652 240.054 135.652C240.604 135.652 241.09 135.895 241.51 136.38C241.93 136.865 242.252 137.477 242.476 138.214C242.7 138.942 242.812 139.661 242.812 140.37C242.812 141.527 242.368 142.512 241.482 143.324C240.604 144.136 239.377 144.701 237.8 145.018L237.436 143.898ZM243.433 139.74H243.993C244.992 139.74 245.697 139.647 246.107 139.46C246.518 139.264 246.723 138.947 246.723 138.508C246.714 138.219 246.616 137.78 246.429 137.192C246.252 136.595 246.098 136.165 245.967 135.904L246.975 135.372C247.162 135.736 247.344 136.231 247.521 136.856C247.708 137.472 247.801 138.009 247.801 138.466C247.801 139.297 247.498 139.927 246.891 140.356C246.285 140.785 245.37 141 244.147 141H243.433V139.74ZM246.807 141.952L247.759 142.904L246.807 143.842C246.499 143.525 246.187 143.212 245.869 142.904L246.807 141.952ZM244.231 141.952L245.183 142.904L244.231 143.842C243.923 143.525 243.611 143.212 243.293 142.904L244.231 141.952ZM245.519 143.548L246.359 144.402L245.519 145.242L244.679 144.402L245.519 143.548ZM243.167 141L243.097 140.37L243.167 139.74H243.531V141H243.167ZM257.961 144.906C257.159 144.906 256.445 144.747 255.819 144.43C255.203 144.122 254.718 143.679 254.363 143.1C254.009 142.521 253.831 141.845 253.831 141.07C253.831 140.501 253.925 139.899 254.111 139.264C254.298 138.629 254.513 138.069 254.755 137.584L255.707 138.032C255.185 139.133 254.923 140.095 254.923 140.916C254.923 141.803 255.185 142.479 255.707 142.946C256.23 143.413 256.981 143.646 257.961 143.646C258.531 143.646 259.067 143.571 259.571 143.422C260.085 143.273 260.505 143.086 260.831 142.862C261.158 142.647 261.345 142.456 261.391 142.288C261.345 142.185 261.181 142.022 260.901 141.798C260.631 141.583 260.29 141.355 259.879 141.112C259.469 140.869 259.044 140.659 258.605 140.482L258.871 139.292C260.318 139.591 261.671 139.74 262.931 139.74H263.533L263.603 140.37L263.533 141H262.931C262.287 141 261.573 140.949 260.789 140.846C260.015 140.743 259.291 140.622 258.619 140.482L258.899 139.67L259.179 139.796C260.113 140.207 260.892 140.613 261.517 141.014C262.152 141.425 262.469 141.859 262.469 142.316C262.469 142.745 262.259 143.156 261.839 143.548C261.429 143.949 260.873 144.276 260.173 144.528C259.483 144.78 258.745 144.906 257.961 144.906ZM263.653 139.74H264.213C265.212 139.74 265.917 139.647 266.327 139.46C266.738 139.264 266.943 138.947 266.943 138.508C266.934 138.219 266.836 137.78 266.649 137.192C266.472 136.595 266.318 136.165 266.187 135.904L267.195 135.372C267.382 135.736 267.564 136.231 267.741 136.856C267.928 137.472 268.021 138.009 268.021 138.466C268.021 139.297 267.718 139.927 267.111 140.356C266.505 140.785 265.59 141 264.367 141H263.653V139.74ZM263.835 142.946L264.465 142.316L265.403 143.254L264.465 144.206L263.527 143.254L263.835 142.946ZM266.327 142.946L266.957 142.316L267.895 143.254L266.957 144.206L266.019 143.254L266.327 142.946ZM263.415 141L263.345 140.37L263.415 139.74H263.779V141H263.415ZM270.698 131.256C270.772 131.732 270.828 132.567 270.866 133.762C270.912 134.947 270.936 136.025 270.936 136.996V137.584L270.922 138.074C270.922 138.513 270.959 138.849 271.034 139.082C271.108 139.306 271.248 139.474 271.454 139.586C271.668 139.689 271.986 139.74 272.406 139.74H272.476L272.546 140.37L272.476 141H272.406C271.743 141 271.225 140.893 270.852 140.678C270.478 140.454 270.212 140.123 270.054 139.684C269.904 139.245 269.83 138.667 269.83 137.948C269.83 136.884 269.806 135.68 269.76 134.336C269.722 132.983 269.662 132.035 269.578 131.494L270.698 131.256ZM272.37 139.74H272.566C274.059 139.74 275.161 139.6 275.87 139.32C276.579 139.04 276.981 138.597 277.074 137.99C277.083 137.934 277.088 137.855 277.088 137.752C277.088 137.341 276.976 136.982 276.752 136.674C276.537 136.366 276.248 136.212 275.884 136.212C275.66 136.212 275.436 136.291 275.212 136.45C274.997 136.609 274.82 136.814 274.68 137.066C274.54 137.309 274.47 137.547 274.47 137.78C274.47 138.153 274.671 138.508 275.072 138.844C275.473 139.171 275.968 139.432 276.556 139.628C277.153 139.824 277.718 139.922 278.25 139.922C278.642 139.922 278.969 139.861 279.23 139.74C279.501 139.619 279.678 139.437 279.762 139.194C279.79 139.119 279.804 139.04 279.804 138.956C279.804 138.629 279.613 138.279 279.23 137.906C278.857 137.533 278.241 137.145 277.382 136.744C276.523 136.343 275.413 135.955 274.05 135.582L274.484 134.406C276.155 134.975 277.452 135.507 278.376 136.002C279.309 136.497 279.949 136.963 280.294 137.402C280.649 137.841 280.826 138.289 280.826 138.746C280.826 138.979 280.775 139.283 280.672 139.656C280.532 140.113 280.233 140.459 279.776 140.692C279.319 140.916 278.768 141.028 278.124 141.028C277.387 141.028 276.645 140.888 275.898 140.608C275.151 140.328 274.54 139.945 274.064 139.46C273.597 138.975 273.387 138.438 273.434 137.85C273.471 137.393 273.616 136.949 273.868 136.52C274.12 136.091 274.428 135.745 274.792 135.484C275.165 135.213 275.543 135.078 275.926 135.078C276.309 135.078 276.668 135.204 277.004 135.456C277.34 135.708 277.606 136.039 277.802 136.45C277.998 136.861 278.096 137.29 278.096 137.738C278.096 137.831 278.087 137.962 278.068 138.13C277.919 139.157 277.405 139.894 276.528 140.342C275.651 140.781 274.33 141 272.566 141H272.37V139.74Z" fill="#8F8F8F"/>
<rect x="157" y="7" width="57" height="57" rx="28.5" fill="#F1F6FE"/>
<path d="M193.018 50.6159C192.267 50.6159 191.304 50.3751 190.1 49.6668L185.864 47.1593C185.425 46.9043 184.575 46.9043 184.15 47.1593L179.9 49.6668C177.392 51.1543 175.919 50.5593 175.253 50.0776C174.602 49.596 173.582 48.3635 174.247 45.5301L175.253 41.181C175.367 40.7276 175.14 39.9485 174.8 39.6084L171.287 36.0951C169.53 34.3385 169.672 32.8368 169.912 32.1001C170.153 31.3635 170.918 30.0601 173.355 29.6493L177.874 28.8984C178.299 28.8276 178.908 28.3743 179.092 27.9918L181.6 22.991C182.733 20.7101 184.221 20.3701 185 20.3701C185.779 20.3701 187.267 20.7101 188.4 22.991L190.893 27.9776C191.092 28.3601 191.701 28.8134 192.126 28.8843L196.645 29.6351C199.096 30.0459 199.861 31.3493 200.087 32.086C200.314 32.8226 200.456 34.3243 198.713 36.081L195.2 39.6084C194.86 39.9485 194.647 40.7135 194.747 41.181L195.752 45.5301C196.404 48.3635 195.398 49.596 194.747 50.0776C194.392 50.3326 193.826 50.6159 193.018 50.6159ZM185 44.836C185.694 44.836 186.388 45.006 186.941 45.3318L191.177 47.8393C192.409 48.5759 193.188 48.576 193.486 48.3635C193.783 48.1509 193.996 47.4001 193.684 46.0118L192.678 41.6626C192.409 40.4868 192.848 38.971 193.698 38.1068L197.212 34.5934C197.906 33.8993 198.217 33.2193 198.076 32.7518C197.92 32.2843 197.268 31.9018 196.305 31.746L191.786 30.9951C190.695 30.8109 189.505 29.9326 189.009 28.9409L186.516 23.9543C186.062 23.0476 185.496 22.5093 185 22.5093C184.504 22.5093 183.937 23.0476 183.498 23.9543L180.991 28.9409C180.495 29.9326 179.305 30.8109 178.214 30.9951L173.709 31.746C172.746 31.9018 172.094 32.2843 171.938 32.7518C171.782 33.2193 172.108 33.9135 172.802 34.5934L176.316 38.1068C177.166 38.9568 177.605 40.4868 177.336 41.6626L176.33 46.0118C176.004 47.4143 176.231 48.1509 176.528 48.3635C176.826 48.576 177.591 48.5618 178.837 47.8393L183.073 45.3318C183.612 45.006 184.306 44.836 185 44.836Z" fill="#4BB09C"/>
</g>
<defs>
<filter id="filter0_d_1211_11739" x="0" y="0" width="370" height="179" filterUnits="userSpaceOnUse" color-interpolation-filters="sRGB">
<feFlood flood-opacity="0" result="BackgroundImageFix"/>
<feColorMatrix in="SourceAlpha" type="matrix" values="0 0 0 0 0 0 0 0 0 0 0 0 0 0 0 0 0 0 127 0" result="hardAlpha"/>
<feOffset/>
<feGaussianBlur stdDeviation="3.5"/>
<feComposite in2="hardAlpha" operator="out"/>
<feColorMatrix type="matrix" values="0 0 0 0 0 0 0 0 0 0 0 0 0 0 0 0 0 0 0.1 0"/>
<feBlend mode="normal" in2="BackgroundImageFix" result="effect1_dropShadow_1211_11739"/>
<feBlend mode="normal" in="SourceGraphic" in2="effect1_dropShadow_1211_11739" result="shape"/>
</filter>
</defs>
</svg>
