<svg width="21" height="20" viewBox="0 0 21 20" fill="none" xmlns="http://www.w3.org/2000/svg">
<path d="M10.4997 10.6251C7.85801 10.6251 5.70801 8.47508 5.70801 5.83341C5.70801 3.19175 7.85801 1.04175 10.4997 1.04175C13.1413 1.04175 15.2913 3.19175 15.2913 5.83341C15.2913 8.47508 13.1413 10.6251 10.4997 10.6251ZM10.4997 2.29175C8.54967 2.29175 6.95801 3.88341 6.95801 5.83341C6.95801 7.78341 8.54967 9.37508 10.4997 9.37508C12.4497 9.37508 14.0413 7.78341 14.0413 5.83341C14.0413 3.88341 12.4497 2.29175 10.4997 2.29175Z" fill="white"/>
<path d="M17.6585 18.9583C17.3168 18.9583 17.0335 18.675 17.0335 18.3333C17.0335 15.4583 14.1001 13.125 10.5001 13.125C6.90013 13.125 3.9668 15.4583 3.9668 18.3333C3.9668 18.675 3.68346 18.9583 3.3418 18.9583C3.00013 18.9583 2.7168 18.675 2.7168 18.3333C2.7168 14.775 6.20846 11.875 10.5001 11.875C14.7918 11.875 18.2835 14.775 18.2835 18.3333C18.2835 18.675 18.0001 18.9583 17.6585 18.9583Z" fill="white"/>
</svg>
